<?xml version="1.0" encoding="UTF-8" standalone="no"?>
<svg width="750px" height="471px" viewBox="0 0 750 471" version="1.1" xmlns="http://www.w3.org/2000/svg" xmlns:xlink="http://www.w3.org/1999/xlink" xmlns:sketch="http://www.bohemiancoding.com/sketch/ns">
    <!-- Generator: Sketch 3.3.1 (12005) - http://www.bohemiancoding.com/sketch -->
    <title>jcb</title>
    <desc>Created with Sketch.</desc>
    <defs></defs>
    <g id="Page-1" stroke="none" stroke-width="1" fill="none" fill-rule="evenodd" sketch:type="MSPage">
        <g id="jcb" sketch:type="MSLayerGroup" fill="#393939">
            <rect id="Rectangle-1" sketch:type="MSShapeGroup" x="0" y="0" width="750" height="471" rx="40"></rect>
        </g>
        <g id="Group" sketch:type="MSLayerGroup" transform="translate(155.000000, 66.000000)" fill="#FFFFFF">
            <path d="M41.6171449,198.052608 C35.9160335,196.357197 24.1855634,190.948399 24.1855634,190.948399 L24.0659367,64.6679808 C24.0659367,64.6679808 23.4432364,50.5606097 38.9618109,35.9693531 C54.4803853,21.3780964 71.3920268,22.3167664 71.3920268,22.3167664 L144.386476,22.3167664 L144.218999,265.0884 C144.218999,265.0884 145.325878,283.157656 131.975207,297.983288 C117.099292,315.13743 95.953967,314.24812 95.953967,314.24812 L24.2094888,314.24812 L24.2094888,211.886293 L50.906526,216.593768 C50.906526,216.593768 61.1888917,217.623086 71.392028,217.832909 C80.3350657,218.016819 88.6384612,217.231017 94.1481203,216.374078 C104.687468,214.734853 110.131546,213.299209 120.108035,207.348779 C134.973842,196.490091 134.303019,179.81248 134.303019,179.81248 L133.914913,121.416396 L92.3579437,121.648738 L92.3579437,179.039697 C92.3579437,179.039697 92.748633,189.805774 84.2244869,196.469239 C80.4871195,199.3908 75.0445586,202.05563 64.8971057,202.055617 C57.6798853,202.055608 47.9544675,199.937218 41.6171449,198.052608 Z" id="Path-8" sketch:type="MSShapeGroup"></path>
            <path d="M159.850617,136.556499 L159.850617,72.2271243 C159.850617,72.2271243 159.110553,53.4183686 172.996173,38.9994845 C186.881792,24.5806003 204.944782,24.0203046 204.944782,24.0203046 L280.107195,24.0203046 L280.107194,267.994613 C280.107194,267.994613 281.026325,285.920044 266.410905,300.769528 C251.84908,315.564558 235.770159,315.651198 235.770159,315.651198 L159.850617,315.651198 L159.850617,203.609273 C159.850617,203.609273 169.89974,214.247498 198.394061,218.271779 C211.770209,220.160905 227.59515,219.876407 240.602465,218.271779 C255.30377,216.458174 266.410905,213.159756 266.410905,213.159756 L266.108782,192.85005 C266.108782,192.85005 260.833694,196.07714 244.713699,200.984408 C228.593704,205.891676 188.317216,208.123473 187.196673,171.536075 C186.076129,134.948677 220.386005,134.623901 235.770161,136.556499 C251.154316,138.489096 266.410906,146.804005 266.410906,146.804005 L266.410906,126.945701 C266.410906,126.945701 246.992515,122.546813 238.71419,121.63697 C228.50342,120.514738 214.111558,119.301964 192.074299,122.555157 C170.03704,125.808349 159.850617,136.556499 159.850617,136.556499 Z" id="Path-9" sketch:type="MSShapeGroup"></path>
            <path d="M293.910128,215.180503 L293.910128,314.1351 L369.378527,314.135102 C369.378527,314.135102 386.699631,312.47984 396.81855,302.468011 C413.287286,289.843518 414.026382,269.625892 414.026382,269.625892 L414.026382,22.3078372 L342.056446,22.3078372 C342.056446,22.3078372 322.862003,21.7103456 308.071184,36.671597 C293.280365,51.6328485 293.910128,69.0624827 293.910128,69.0624827 L293.910128,121.620136 L367.119982,121.620136 C367.119982,121.620136 373.845913,121.732438 380.489304,124.362111 C385.747101,126.44332 390.882129,130.206284 393.08825,136.002908 C398.056924,149.022655 390.54315,158.388661 386.699631,160.936295 C381.639054,165.342254 372.58522,166.682672 372.58522,166.682672 C372.58522,166.682672 385.688263,168.012659 393.08825,174.758316 C395.533792,176.942458 398.349286,180.597387 399.484703,184.259097 C400.980911,189.084355 400.385851,193.784261 400.385851,193.784261 C400.385851,193.784261 399.484703,202.062647 392.577622,207.665231 C389.630857,210.055459 385.627182,212.250718 381.567444,213.435733 C376.111342,215.028339 370.861435,215.180503 370.861435,215.180503 L293.910128,215.180503 Z" id="Path-10" sketch:type="MSShapeGroup"></path>
            <path d="M317.96875,137.258883 L317.96875,161.044279 L343.941512,161.044279 C343.941512,161.044279 356.111741,161.008725 356.111741,149.133804 C356.111741,137.258883 343.941512,137.258883 343.941512,137.258883 L317.96875,137.258883 Z" id="Path-11" sketch:type="MSShapeGroup"></path>
            <path d="M345.749893,175.01374 L317.96875,175.01374 L317.96875,200.568656 L345.749893,200.568656 C345.829565,200.568656 359.445848,201.361012 359.445848,187.791199 C359.445848,174.221386 345.749893,175.01374 345.749893,175.01374 Z" id="Path-11-Copy" sketch:type="MSShapeGroup"></path>
        </g>
    </g>
</svg>