<?xml version="1.0" encoding="utf-8"?>
<!-- Generator: Adobe Illustrator 16.0.0, SVG Export Plug-In . SVG Version: 6.00 Build 0)  -->
<!DOCTYPE svg PUBLIC "-//W3C//DTD SVG 1.1//EN" "http://www.w3.org/Graphics/SVG/1.1/DTD/svg11.dtd">
<svg version="1.1" id="Layer_1" xmlns:sketch="http://www.bohemiancoding.com/sketch/ns"
	 xmlns="http://www.w3.org/2000/svg" xmlns:xlink="http://www.w3.org/1999/xlink" x="0px" y="0px" width="780px" height="501px"
	 viewBox="0 0 780 501" enable-background="new 0 0 780 501" xml:space="preserve">
<title>amex-outline</title>
<desc>Created with Sketch.</desc>
<path id="Rectangle-1" sketch:type="MSShapeGroup" fill="none" stroke="#393939" stroke-width="30" d="M55,15h670
	c22.091,0,40,17.908,40,40v391c0,22.092-17.909,40-40,40H55c-22.092,0-40-17.908-40-40V55C15,32.908,32.908,15,55,15z"/>
<g>
	<path fill="#393939" d="M135.496,156.408H93.678c-5.882,0-7.515,3.594-9.802,7.841c-1.307,2.94-28.423,120.554-28.423,124.802
		c0,3.267,2.94,5.88,6.207,5.88h20.256c19.276,0,6.86-45.084,26.138-45.084c36.264,0,83.309-9.802,83.309-55.213
		C191.363,161.309,162.286,156.408,135.496,156.408z M118.835,223.382h-4.901c-3.268,0-6.208-2.287-6.208-5.88
		c0-6.861,3.921-20.909,6.208-27.77c2.286-7.188,7.187-7.841,14.048-7.841c11.108,0,25.156,1.306,25.156,16.008
		C153.138,217.502,135.496,223.382,118.835,223.382z"/>
	<path fill="#393939" d="M248.536,187.772c-8.167,0-16.335,0.653-24.176,1.96c-8.821,1.307-16.01,1.307-19.275,11.107
		c-1.307,4.248-2.94,8.495-2.94,12.742c0,1.634,0.979,3.268,2.94,3.268c2.939,0,10.127-2.94,13.395-3.594
		c6.207-1.634,12.414-2.614,18.949-2.614c8.167,0,24.176,0,24.176,11.762c0,2.939,0,3.594-3.267,4.574
		c-5.881,1.633-12.742,1.306-18.623,1.959c-27.116,2.941-59.46,8.821-59.46,42.798c0,16.988,13.395,26.463,29.404,26.463
		c16.661,0,24.828-5.554,38.224-14.048c-0.653,1.634-0.98,3.267-0.98,4.901c0,3.267,2.614,6.207,5.881,6.207h18.295
		c4.248-1.96,7.842-2.614,8.822-7.842l14.701-63.38c0.98-3.267,1.307-6.534,1.307-9.801
		C295.908,189.732,266.506,187.772,248.536,187.772z M230.568,275.981c-6.861,0-15.355-0.98-15.355-9.475
		c0-18.295,26.79-20.255,40.185-20.255l0.98,0.98C255.397,263.567,249.19,275.981,230.568,275.981z"/>
	<path fill="#393939" d="M396.862,189.405c-5.229,0-9.802,3.594-12.742,7.514c-4.574,7.188-30.711,54.887-33.324,55.867
		l-1.633-1.308c0-15.681-4.248-39.204-8.822-54.232c-2.939-9.474-14.701-8.494-22.869-8.494c-4.573,0-12.414,0.653-12.414,6.861
		l0.326,1.633c2.94,32.344,12.415,63.707,16.336,96.052c0.326,2.613,0.653,5.227,0.653,7.84c0,12.088-19.93,28.424-19.93,39.205
		c0,4.247,10.455,4.247,13.069,4.247c8.82,0,19.602,0.327,24.828-8.168l80.045-135.583c1.306-2.613,3.267-5.554,3.267-8.494
		c0-1.633-0.98-2.94-2.614-2.94H396.862z"/>
	<path fill="#393939" d="M500.099,157.061h-42.145c-5.227,0-7.513,3.267-9.474,7.514c-2.614,5.881-28.424,119.574-28.424,124.802
		c0,6.534,9.475,6.534,14.049,6.534c7.188,0,19.929,0.98,21.889-8.169l6.86-29.729c0.98-4.574,5.229-7.84,9.802-7.84
		c36.265,0,83.31-9.474,83.31-54.887C555.966,161.961,526.891,157.061,500.099,157.061z M483.438,224.036h-4.9
		c-3.593,0-6.208-2.614-6.208-6.208c0-6.534,3.921-20.909,6.208-27.77c2.287-7.187,7.188-7.514,14.049-7.514
		c11.107,0,25.155,1.307,25.155,16.008C517.741,218.155,500.099,224.036,483.438,224.036z"/>
	<path fill="#393939" d="M613.141,187.772c-8.169,0-16.336,0.98-24.177,1.96c-8.821,1.307-16.008,1.634-19.276,11.435
		c-1.306,3.92-2.613,8.167-2.613,12.742c0,1.633,0.653,3.267,2.613,3.267c2.941,0,10.129-2.94,13.396-3.92
		c6.206-1.634,12.74-2.614,18.947-2.614c8.169,0,24.177,0,24.177,11.762c0,2.939,0,3.92-3.267,4.574
		c-5.881,1.633-12.741,1.633-18.623,2.286c-27.116,2.94-59.459,8.82-59.459,42.798c0,16.661,13.721,26.136,29.402,26.136
		c16.662,0,24.83-5.227,38.225-14.048c-0.326,1.634-0.98,3.267-0.98,5.228c0,7.515,12.742,6.534,17.643,6.534
		c6.208,0,14.048-0.98,15.683-8.169l14.701-63.379c0.654-3.268,0.979-6.861,0.979-10.128
		C660.512,189.732,631.436,187.772,613.141,187.772z M595.171,276.309c-6.861,0-15.354-1.308-15.354-9.802
		c0-18.295,26.79-20.255,40.185-20.255l0.98,0.98C620.001,263.894,613.793,276.309,595.171,276.309z"/>
	<path fill="#393939" d="M700.371,158.042c-7.842,0-9.475,6.861-10.781,13.068c-8.821,38.551-16.336,77.756-25.812,116.632v1.635
		c0,2.94,2.289,5.554,5.229,5.881h0.327h18.621c4.247,0,8.495-3.268,9.476-7.516l27.116-122.187h-0.327l0.327-1.633
		c0-3.267-2.94-5.88-6.207-5.88H700.371z"/>
</g>
</svg>
