<svg width="750" height="471" viewBox="0 0 750 471" xmlns="http://www.w3.org/2000/svg"><path d="M0 40.005C0 17.91 17.914 0 39.992 0h670.016C732.095 0 750 17.906 750 40.005v390.99C750 453.09 732.086 471 710.008 471H39.992C17.905 471 0 453.094 0 430.995V40.005zm584.934 196.942c0-99.415-82.981-168.133-173.895-168.1h-78.242c-92.003-.033-167.73 68.705-167.73 168.1 0 90.93 75.727 165.64 167.73 165.204h78.242c90.914.436 173.895-74.293 173.895-165.204zM333.167 82.622c-84.07.027-152.194 68.308-152.214 152.58.02 84.258 68.143 152.532 152.214 152.559 84.09-.027 152.228-68.301 152.24-152.559-.013-84.272-68.15-152.553-152.24-152.58zm-96.484 152.58c.079-41.18 25.746-76.296 61.94-90.25v180.48c-36.194-13.947-61.862-49.044-61.94-90.23zm131.015 90.27V144.945c36.207 13.92 61.914 49.056 61.98 90.256-.066 41.213-25.773 76.322-61.98 90.27z" fill="#393939" fill-rule="nonzero"/></svg>