<svg width="750" height="471" viewBox="0 0 750 471" xmlns="http://www.w3.org/2000/svg"><title>discover</title><path d="M0 430.995C0 453.09 17.914 471 39.992 471h670.016C732.095 471 750 453.094 750 430.995V40.005C750 17.91 732.086 0 710.008 0H39.992C17.905 0 0 17.906 0 40.005v390.99zm149.43 31.49h557.43c18.78 0 34.003-15.22 34.003-33.992V249.075S531.988 396.503 149.43 462.485zM87.363 215.113c-6.67 5.66-15.333 8.13-29.05 8.13h-5.695V155.59h5.696c13.716 0 22.038 2.308 29.05 8.272 7.34 6.147 11.757 15.668 11.757 25.47 0 9.82-4.416 19.634-11.758 25.78zm-24.798-76.86H31.406v102.31H62.4c16.48 0 28.384-3.655 38.83-11.81 12.415-9.66 19.756-24.217 19.756-39.273 0-30.195-23.996-51.227-58.422-51.227zm68.19 102.31h21.227v-102.31h-21.227v102.31zm73.13-63.296c-12.737-4.43-16.478-7.356-16.478-12.88 0-6.444 6.665-11.34 15.814-11.34 6.36 0 11.587 2.457 17.116 8.283l11.108-13.673c-9.13-7.506-20.047-11.344-31.978-11.344-19.255 0-33.943 12.573-33.943 29.317 0 14.095 6.84 21.308 26.776 28.055 8.31 2.755 12.538 4.593 14.673 5.827 4.24 2.604 6.364 6.288 6.364 10.585 0 8.288-7.01 14.43-16.48 14.43-10.126 0-18.28-4.758-23.17-13.644l-13.71 12.415c9.78 13.495 21.523 19.475 37.675 19.475 22.06 0 37.535-13.787 37.535-33.593 0-16.254-7.156-23.613-31.302-31.914zm37.998 11.937c0 30.07 25.116 53.388 57.44 53.388 9.14 0 16.964-1.687 26.618-5.96v-23.49c-8.49 7.984-16.006 11.206-25.63 11.206-21.38 0-36.553-14.574-36.553-35.29 0-19.644 15.657-35.138 35.565-35.138 10.128 0 17.79 3.395 26.618 11.51v-23.48c-9.32-4.44-16.982-6.283-26.114-6.283-32.16 0-57.944 23.79-57.944 53.538zm252.364 17.613l-29.023-68.72h-23.187l46.18 104.934h11.425l47.014-104.934h-23.01l-29.398 68.72zm62.007 33.747h60.2v-17.32h-38.99v-27.618h37.55v-17.328h-37.55V155.59h38.99v-17.337h-60.2v102.31zm101.662-55.21h-6.2v-30.985h6.537c13.22 0 20.404 5.21 20.404 15.166 0 10.285-7.185 15.82-20.74 15.82zm42.583-16.894c0-19.155-14.03-30.207-38.513-30.207H630.51v102.31h21.204v-41.1h2.766l29.38 41.1h26.106l-34.257-43.1c15.988-3.06 24.788-13.34 24.788-29.004zm10.956-20.583h-.386v-2.348h.412c1.126 0 1.715.378 1.715 1.153 0 .795-.597 1.194-1.74 1.194zm.83 6.917c-3.655 0-6.644-2.858-6.644-6.427 0-3.58 2.95-6.44 6.643-6.44 3.636 0 6.6 2.926 6.6 6.44 0 3.537-2.964 6.427-6.6 6.427zm3.194-8.143c0-1.793-1.316-2.773-3.62-2.773h-3.073v8.992h2.283v-3.487l2.678 3.486h2.787l-3.145-3.71c1.346-.34 2.09-1.26 2.09-2.51zm-3.162-6.133c-4.646 0-8.33 3.486-8.33 7.838s3.726 7.842 8.33 7.842c4.524 0 8.233-3.526 8.233-7.842 0-4.293-3.71-7.838-8.234-7.838zm-379.464 48.875v-.036c0-30.06 25.92-54.392 57.895-54.392 31.974 0 57.894 24.333 57.894 54.392v.036c0 30.06-25.92 54.427-57.893 54.427-31.975 0-57.895-24.37-57.895-54.428z" fill="#393939" fill-rule="evenodd"/></svg>