<svg xmlns="http://www.w3.org/2000/svg" width="750" height="471" viewBox="0 0 750 471"><path d="M0 430.995C0 453.09 17.914 471 39.992 471h670.016C732.095 471 750 453.094 750 430.995V40.005C750 17.91 732.086 0 710.008 0H39.992C17.905 0 0 17.906 0 40.005zm149.431 31.49h557.43c18.779 0 34.002-15.219 34.002-33.992V249.075s-208.875 147.428-591.432 213.41zM87.362 215.113c-6.669 5.66-15.333 8.13-29.05 8.13h-5.695V155.59h5.696c13.716 0 22.038 2.309 29.05 8.273 7.34 6.147 11.757 15.668 11.757 25.47 0 9.82-4.416 19.634-11.758 25.78zm-24.798-76.859H31.406v102.31H62.4c16.481 0 28.384-3.656 38.83-11.81 12.415-9.66 19.756-24.218 19.756-39.274 0-30.194-23.996-51.226-58.422-51.226zm68.19 102.31h21.227v-102.31h-21.228zm73.131-63.297c-12.738-4.43-16.48-7.356-16.48-12.881 0-6.443 6.666-11.34 15.815-11.34 6.36 0 11.587 2.458 17.116 8.284l11.108-13.672c-9.129-7.506-20.047-11.344-31.978-11.344-19.255 0-33.943 12.573-33.943 29.317 0 14.095 6.84 21.308 26.776 28.055 8.31 2.755 12.539 4.593 14.674 5.827 4.24 2.604 6.364 6.288 6.364 10.585 0 8.288-7.011 14.43-16.48 14.43-10.126 0-18.28-4.758-23.17-13.644l-13.711 12.415c9.78 13.495 21.524 19.475 37.676 19.475 22.059 0 37.535-13.787 37.535-33.593 0-16.254-7.156-23.613-31.302-31.914zm37.997 11.937c0 30.071 25.116 53.388 57.44 53.388 9.14 0 16.964-1.688 26.618-5.96V213.14c-8.489 7.984-16.006 11.206-25.63 11.206-21.38 0-36.553-14.574-36.553-35.29 0-19.644 15.657-35.138 35.565-35.138 10.128 0 17.789 3.395 26.618 11.51v-23.479c-9.321-4.442-16.982-6.284-26.114-6.284-32.16 0-57.944 23.79-57.944 53.538zm252.364 17.613l-29.023-68.72h-23.187l46.181 104.934h11.424l47.013-104.934h-23.01l-29.398 68.72zm62.007 33.747h60.199v-17.32h-38.988v-27.618h37.55v-17.328h-37.55V155.59h38.988v-17.336h-60.199zm101.662-55.21h-6.201v-30.985h6.538c13.219 0 20.404 5.21 20.404 15.166 0 10.285-7.185 15.819-20.74 15.819zm42.583-16.894c0-19.154-14.03-30.206-38.513-30.206h-31.474v102.31h21.203v-41.1h2.767l29.38 41.1h26.105l-34.257-43.1c15.989-3.059 24.789-13.34 24.789-29.004zm-367.646 20.933v-.036c0-30.06 25.92-54.392 57.895-54.392 31.974 0 57.894 24.333 57.894 54.392v.036c0 30.06-25.92 54.427-57.894 54.427-31.975 0-57.895-24.368-57.895-54.427z" fill="#393939" fill-rule="evenodd"/></svg>