<svg width="780" height="501" viewBox="0 0 780 501" xmlns="http://www.w3.org/2000/svg"><title>amex-outline</title><path d="M725 0H55C24.673 0 0 24.673 0 55v391c0 30.327 24.673 55 55 55h670c30.325 0 55-24.673 55-55V55c0-30.327-24.675-55-55-55zM339.927 390.424l-286.534.103v-.69c0-.38.457-2.838 1.015-5.465.56-2.626 1.427-6.804 1.93-9.283.503-2.48 1.363-6.694 1.91-9.365.548-2.67 1.46-7.117 2.024-9.883.564-2.765 1.448-7.135 1.965-9.71.517-2.575 1.378-6.79 1.916-9.363.537-2.576 1.454-7.023 2.037-9.884.582-2.86 1.467-7.23 1.967-9.71.5-2.48 1.294-6.304 1.765-8.496.47-2.194 1.07-5.16 1.333-6.59.263-1.43 1.114-5.644 1.89-9.363.778-3.72 1.634-7.933 1.906-9.363.272-1.43 1.133-5.645 1.915-9.364.78-3.718 1.64-7.932 1.907-9.363.268-1.43 1.13-5.644 1.917-9.363.787-3.72 1.637-7.855 1.887-9.19.252-1.335.94-4.768 1.53-7.63.59-2.86 1.705-8.244 2.48-11.963.774-3.72 2.098-10.195 2.94-14.392.846-4.196 1.855-9.19 2.244-11.096.39-1.907 1.092-5.34 1.563-7.63.47-2.29 1.325-6.424 1.9-9.19.573-2.766 1.506-7.29 2.073-10.057.568-2.765 1.442-7.057 1.943-9.536.5-2.48 1.355-6.616 1.9-9.19.543-2.576 1.48-7.102 2.08-10.058.6-2.957 1.604-7.482 2.232-10.057.628-2.575 1.516-5.696 1.974-6.935.457-1.24 1.72-3.927 2.806-5.973l1.975-3.717 1.795-2.352c.986-1.292 2.75-3.335 3.916-4.54 1.167-1.203 3.135-3.015 4.376-4.025 1.24-1.01 3.034-2.375 3.987-3.03.955-.657 2.828-1.806 4.163-2.554 1.335-.75 3.21-1.728 4.162-2.177.954-.45 2.905-1.27 4.335-1.823 1.43-.552 4.16-1.48 6.068-2.058 1.907-.58 5.488-1.454 7.957-1.94 2.47-.49 6.37-1.14 8.67-1.45l4.18-.562 286.708-.108 286.706-.11v.69c0 .378-.46 2.837-1.022 5.463-.563 2.626-1.502 7.116-2.088 9.977-.587 2.86-1.44 6.997-1.9 9.19-.46 2.194-1.33 6.407-1.934 9.363-.603 2.957-1.532 7.483-2.063 10.057-.53 2.575-1.392 6.79-1.912 9.363-.52 2.576-1.385 6.79-1.922 9.364-.54 2.574-1.37 6.632-1.853 9.016-.482 2.384-1.353 6.675-1.936 9.536-.585 2.86-1.522 7.387-2.084 10.057-.563 2.67-1.418 6.805-1.902 9.19-.486 2.383-1.357 6.674-1.938 9.535-.582 2.86-1.517 7.387-2.08 10.058-.56 2.67-1.398 6.727-1.86 9.016-.46 2.287-1.33 6.58-1.93 9.535-.6 2.956-1.474 7.248-1.944 9.538-.47 2.288-1.307 6.346-1.86 9.015-.557 2.67-1.506 7.275-2.11 10.23-.605 2.958-1.47 7.17-1.922 9.365-.454 2.192-1.3 6.328-1.885 9.188-.583 2.864-1.51 7.388-2.063 10.06-.55 2.67-1.415 6.883-1.92 9.363-.505 2.48-1.384 6.77-1.95 9.536-.57 2.764-1.498 7.29-2.064 10.055-.566 2.766-1.414 6.902-1.885 9.19-.47 2.29-1.33 6.503-1.912 9.364-.58 2.86-1.526 7.37-2.1 10.018l-1.044 4.817-1.244 3.332c-.684 1.833-1.713 4.27-2.287 5.414-.572 1.144-1.74 3.164-2.592 4.488-.854 1.323-2.044 3.018-2.644 3.767-.6.75-2.408 2.683-4.018 4.3l-2.923 2.934-2.816 2c-1.548 1.1-3.216 2.218-3.705 2.485-.49.267-2.356 1.22-4.146 2.115-1.79.897-4.318 2.037-5.617 2.534-1.3.5-3.875 1.346-5.722 1.883-1.847.54-3.827 1.07-4.4 1.178-.572.11-2.557.52-4.413.914-1.855.392-5.6.98-8.322 1.303l-4.95.59zm273.07-8.825l4.655-.555c2.56-.304 6.08-.856 7.824-1.226 1.744-.37 3.61-.756 4.15-.86.537-.102 2.4-.6 4.135-1.107 1.737-.505 4.158-1.3 5.38-1.77 1.222-.468 3.6-1.54 5.28-2.383 1.684-.84 3.437-1.737 3.898-1.988.46-.25 2.028-1.303 3.483-2.337l2.647-1.88 2.748-2.76c1.514-1.52 3.213-3.337 3.777-4.04.564-.706 1.683-2.3 2.486-3.543.802-1.245 1.9-3.144 2.436-4.218.54-1.077 1.507-3.367 2.15-5.09l1.17-3.133.98-4.527c.54-2.49 1.43-6.73 1.977-9.42.547-2.69 1.355-6.65 1.798-8.802.443-2.15 1.24-6.04 1.772-8.64.532-2.6 1.405-6.854 1.94-9.453.533-2.6 1.36-6.635 1.833-8.965.476-2.332 1.288-6.293 1.806-8.804.518-2.51 1.39-6.764 1.94-9.455.548-2.69 1.344-6.578 1.77-8.638.426-2.064 1.24-6.024 1.81-8.804.565-2.778 1.458-7.106 1.98-9.617.52-2.51 1.308-6.324 1.75-8.475.442-2.153 1.262-6.188 1.828-8.967.564-2.778 1.38-6.813 1.814-8.964.434-2.152 1.22-5.966 1.75-8.476.528-2.51 1.407-6.766 1.954-9.456.546-2.69 1.365-6.724 1.822-8.965.455-2.242 1.26-6.13 1.788-8.64.528-2.51 1.41-6.766 1.958-9.456.548-2.69 1.367-6.724 1.82-8.965.454-2.242 1.236-6.057 1.743-8.478.504-2.42 1.32-6.38 1.807-8.803.49-2.42 1.3-6.383 1.798-8.804.5-2.42 1.372-6.675 1.94-9.454.567-2.78 1.385-6.74 1.817-8.803.43-2.063 1.234-5.95 1.786-8.64.55-2.69 1.434-6.912 1.963-9.38.526-2.47.96-4.78.96-5.137v-.65l-269.54.106-269.54.1-3.932.528c-2.163.29-5.83.904-8.15 1.363-2.322.46-5.69 1.28-7.482 1.825-1.792.545-4.36 1.416-5.704 1.935-1.345.52-3.18 1.292-4.076 1.714-.896.422-2.657 1.343-3.912 2.046-1.256.703-3.016 1.783-3.913 2.4-.895.617-2.583 1.9-3.748 2.85-1.166.95-3.016 2.652-4.114 3.784-1.097 1.132-2.754 3.053-3.68 4.268l-1.69 2.21-1.855 3.495c-1.02 1.924-2.21 4.45-2.638 5.616-.43 1.164-1.266 4.1-1.856 6.52-.592 2.42-1.536 6.674-2.1 9.454-.565 2.78-1.444 7.034-1.956 9.455-.51 2.42-1.315 6.308-1.786 8.64-.47 2.33-1.293 6.365-1.827 8.965-.532 2.6-1.41 6.854-1.95 9.456-.538 2.6-1.34 6.487-1.784 8.638-.443 2.153-1.104 5.382-1.468 7.175-.366 1.792-1.315 6.486-2.11 10.43-.792 3.947-2.036 10.035-2.765 13.532-.728 3.497-1.777 8.558-2.33 11.248-.555 2.69-1.202 5.917-1.44 7.172-.234 1.255-1.033 5.143-1.774 8.64-.74 3.496-1.55 7.458-1.803 8.802-.252 1.345-1.06 5.306-1.793 8.802-.735 3.496-1.545 7.458-1.8 8.803-.255 1.345-1.06 5.306-1.79 8.803-.73 3.496-1.53 7.458-1.778 8.802-.246 1.345-.81 4.133-1.253 6.195-.443 2.06-1.19 5.655-1.66 7.987-.47 2.33-1.302 6.44-1.85 9.13-.547 2.69-1.41 6.87-1.914 9.29-.507 2.42-1.316 6.382-1.802 8.804-.486 2.42-1.317 6.528-1.847 9.128-.53 2.6-1.387 6.782-1.902 9.29-.514 2.512-1.323 6.473-1.795 8.804-.474 2.33-1.29 6.26-1.815 8.727-.525 2.47-.955 4.782-.955 5.138v.65l269.378-.098zm-499.263-97.543v-.563c0-.31.402-2.534.893-4.942.492-2.408 1.028-5.16 1.194-6.113.165-.954.684-3.607 1.154-5.895.47-2.29 1.346-6.736 1.945-9.884.6-3.146 1.458-7.672 1.91-10.056.45-2.384 1.3-6.987 1.886-10.23.587-3.243 1.538-8.86 2.116-12.485l1.903-11.965c.47-2.956 1.335-8.34 1.92-11.964.585-3.623 1.218-7.602 1.407-8.842.188-1.24.587-3.62.887-5.288l.542-3.035h16.995l-.21.55c-.117.302-.526 2.33-.91 4.508-.383 2.177-.935 5.09-1.226 6.472-.29 1.384-.68 3.608-.867 4.943-.187 1.335-.735 4.534-1.22 7.108-.484 2.576-1.182 6.165-1.55 7.977-.368 1.81-.898 4.615-1.18 6.23-.28 1.613-.476 2.96-.437 2.994.04.032 4.812.173 10.605.31l10.533.25 12.576-.254 12.574-.255.578-3.857c.318-2.12 1.044-6.666 1.614-10.098.57-3.434 1.414-8.35 1.876-10.925.462-2.575 1.148-6.475 1.527-8.67.377-2.192.79-4.73.918-5.634l.233-1.648h17.134l-.584 2.514c-.32 1.383-1.068 5.167-1.66 8.41-.592 3.24-1.47 8.08-1.952 10.75s-1.35 7.43-1.93 10.576c-.58 3.148-1.51 8.14-2.07 11.098-.56 2.956-1.406 7.637-1.88 10.404-.476 2.765-1.342 7.914-1.926 11.443-.584 3.53-1.52 9.07-2.078 12.312-.56 3.242-1.332 7.77-1.72 10.057-.386 2.287-.867 5.33-1.065 6.762-.2 1.43-.53 3.576-.738 4.768l-.374 2.167h-16.92l-.005-.433c-.002-.24.548-3.477 1.22-7.196.675-3.72 1.6-8.713 2.06-11.097.456-2.383 1.318-6.987 1.913-10.23.597-3.242 1.547-8.392 2.112-11.444.565-3.052 1.204-6.45 1.42-7.55l.393-2.003-.25-.252-.253-.25h-45.313l-.195.194c-.107.107-.572 2.29-1.033 4.856-.46 2.563-1.238 7-1.727 9.862-.49 2.86-1.37 8.088-1.96 11.617-.586 3.527-1.445 8.678-1.906 11.443-.46 2.765-1.11 6.706-1.443 8.757l-.604 3.727zm116.793 32.252l.19-.782c.104-.428.652-3.12 1.22-5.982.567-2.86 1.5-7.7 2.074-10.75.575-3.052 1.53-8.2 2.125-11.445.594-3.24 1.456-7.922 1.913-10.4.458-2.48 1.305-7.085 1.884-10.232.58-3.147 1.516-8.454 2.083-11.79.568-3.34 1.425-8.41 1.905-11.272.48-2.86 1.34-8.01 1.91-11.443.57-3.434 1.54-9.402 2.153-13.265l1.114-7.023h12.716l-.014.433c-.01.24-.3 1.805-.652 3.48l-.636 3.047.91-.597c.5-.326 1.124-.807 1.383-1.066.26-.26 1.29-.992 2.286-1.63.997-.638 2.86-1.645 4.14-2.236l2.33-1.08 2.68-.682 2.68-.685 3.284-.378 3.283-.377 2.947.216 2.948.217 2.948.705 2.948.707 5.354 2.765 2.262 2.4 2.263 2.398 1.17 2.337 1.173 2.336.723 3.12.724 3.123.23 3.12.23 3.12-.398 3.678c-.22 2.024-.712 5.3-1.094 7.283l-.695 3.605-1.343 4.162c-.74 2.29-2.008 5.722-2.82 7.63-.813 1.906-1.92 4.12-2.46 4.917-.54.798-.984 1.537-.984 1.644 0 .106-.737 1.17-1.64 2.364-.9 1.195-2.655 3.19-3.9 4.433l-2.263 2.263-2.428 1.58c-1.335.87-3.363 2.01-4.508 2.533l-2.08.95-3.877 1.003-3.876 1.003-3.58.22-3.578.22-2.82-.366-2.82-.366-2.368-.947-2.366-.948-1.923-1.937-1.922-1.938-.866-1.638c-.477-.902-.96-1.64-1.07-1.64-.114 0-.393 1.366-.622 3.035-.23 1.67-.8 5.453-1.265 8.41-.466 2.956-1.306 8.262-1.867 11.79-.562 3.53-1.266 8.008-1.566 9.956-.3 1.946-.547 4-.547 4.566 0 .565-.094 1.274-.21 1.576l-.21.55zm105.352-30.914c-1.322-.17-3.682-.618-5.245-.995l-2.843-.687-2.04-.928c-1.12-.51-2.818-1.51-3.77-2.22-.955-.708-2.38-1.97-3.165-2.8-.786-.83-1.83-2.213-2.318-3.07-.49-.86-1.207-2.42-1.594-3.47-.387-1.047-.942-2.92-1.23-4.16l-.528-2.255-.005-5.16-.006-5.16.553-3.51c.305-1.93.922-5.07 1.373-6.976.45-1.908 1.22-4.64 1.71-6.07.488-1.43 1.217-3.38 1.617-4.334.4-.954 1.282-2.826 1.958-4.162.677-1.335 1.863-3.363 2.637-4.508.773-1.145 2.19-2.863 3.15-3.82.956-.958 2.442-2.31 3.302-3.006.858-.695 2.574-1.84 3.814-2.542 1.24-.703 3.425-1.747 4.855-2.318l2.602-1.04 4.16-.8 4.163-.798 3.468-.225 3.467-.225 3.734.357 3.73.357 3.03.728 3.03.73 1.734.922c.954.507 2.29 1.316 2.973 1.797.68.48 1.71 1.42 2.286 2.084.576.667 1.457 1.917 1.955 2.78l.91 1.567.55 2.368.548 2.37-.01 3.172-.012 3.172-.506 3.77c-.278 2.075-.768 4.884-1.09 6.243l-.58 2.47-19.29-.123-19.292-.125-10.436.488-.596 3.87-.594 3.866.005 4.336.004 4.336.67 2.343.67 2.342 1.068 1.87 1.07 1.866 2.74 2.476 1.658.82c.913.453 2.596 1.12 3.74 1.486l2.08.664 6.07-.01 6.07-.013 3.817-.74 3.818-.74 3.64-1.198c2-.66 4.22-1.482 4.933-1.826l1.296-.625.185.185.188.186-.847 4.126c-.466 2.268-.942 4.826-1.058 5.685l-.212 1.565-4.24.933c-2.33.512-5.955 1.174-8.054 1.47-2.097.295-5.53.694-7.63.885l-3.813.348-3.816-.043c-2.098-.023-4.895-.182-6.215-.35zm173.542.225l-4.682.135-2.042-.322c-1.124-.178-3.11-.626-4.417-.995l-2.374-.67-2.074-1.26-2.073-1.26-1.17-1.365c-.64-.75-1.59-2.14-2.106-3.09l-.938-1.724-.507-2.646-.506-2.646v-6.355l.53-3.03.53-3.027 1.154-2.693c.634-1.482 1.68-3.474 2.325-4.427.644-.954 2.11-2.67 3.257-3.816l2.085-2.082 2.648-1.645c1.457-.907 2.793-1.647 2.97-1.647.176 0 .97-.314 1.764-.698.794-.383 3.28-1.2 5.527-1.817l4.083-1.12 12.478-.043 12.478-.045.598-2.907.598-2.906.017-2.65.016-2.648-1.127-1.68-1.127-1.68-2.013-.993-2.012-.994-6.03-1.058-4.683.194-4.68.192-5.202.886c-2.862.488-6.67 1.28-8.462 1.763-1.792.482-3.31.827-3.37.765-.062-.062.332-1.82.877-3.908.543-2.09 1.174-4.694 1.4-5.79l.414-1.995 5.672-.022 4.162-.504c2.29-.28 6.76-.668 9.94-.864l5.78-.358 4.487.34 4.486.342 6.52 1.45 2.186 1.11 2.185 1.106 1.334 1.28 1.33 1.277.984 2.008.98 2.008-.03 4.344-.03 4.343-.933 5.028c-.51 2.766-1.378 7.525-1.925 10.577-.548 3.053-1.393 7.89-1.88 10.75-.486 2.86-1.293 8.09-1.793 11.618l-.908 6.416-.195 4.942-.195 4.94H533l.007-2.166c.004-1.192.228-3.725.497-5.63.27-1.904.446-3.507.39-3.563-.057-.057-.725.72-1.485 1.728-.76 1.006-2.148 2.588-3.083 3.516-.935.928-2.56 2.26-3.61 2.96-1.048.702-2.764 1.68-3.813 2.176l-1.908.9-2.948.756-2.948.754-4.68.135zm-57.04.13c-2.1-.024-4.732-.177-5.85-.34-1.116-.163-3.223-.628-4.68-1.032l-2.65-.737-2.02-1.065-2.017-1.068-1.91-1.877-1.906-1.878-1.2-1.875-1.2-1.875-1.04-2.594-1.038-2.594-.654-5.044-.004-4.334-.003-4.335.325-3.294.325-3.294.895-3.642c.49-2.003 1.464-5.28 2.16-7.283l1.267-3.64 1.652-3.364c.91-1.85 2.32-4.34 3.134-5.536l1.484-2.172 2.655-2.614c1.462-1.437 3.098-2.925 3.638-3.307.54-.38 1.774-1.177 2.745-1.77.97-.592 2.77-1.48 3.998-1.97l2.234-.893 3.467-.73 3.468-.727 4.68-.36 4.683-.36 6.64.382c3.65.21 7.925.53 9.498.708 1.572.18 2.927.394 3.01.478.085.084-.08 1.454-.364 3.046-.284 1.59-.714 4.18-.956 5.752-.242 1.574-.484 2.862-.537 2.862-.054 0-.923-.31-1.93-.685l-1.834-.684-4.51-.9-4.507-.903-3.816-.19-3.814-.193-2.6.406c-1.43.222-3.61.715-4.844 1.095l-2.242.69-1.747 1.084-1.745 1.08-3.298 3.42-1.342 2.31c-.738 1.272-1.854 3.483-2.48 4.913-.625 1.43-1.26 3.07-1.413 3.642-.152.572-.6 2.132-.998 3.467l-.72 2.428-.682 4.51-.68 4.507-.004 3.72-.004 3.72.56 2.87.562 2.868 1.176 2.143 1.178 2.144 1.774 1.553 1.774 1.55 4.594 1.595 4.043.138 4.042.137 4.756-.92 4.756-.922 3.34-1.24c1.836-.682 3.537-1.398 3.78-1.592.244-.19.5-.288.57-.213.068.075-.03 1.072-.218 2.217-.19 1.144-.63 3.546-.98 5.336-.352 1.79-.764 3.365-.92 3.498-.154.132-1.477.58-2.94.993-1.462.413-3.88.988-5.374 1.277-1.495.29-4.667.758-7.05 1.04l-4.332.514-3.817-.04zm-69.887-1.693v-.305c0-.167.22-1.376.49-2.686.27-1.312.97-4.802 1.553-7.76.583-2.955 1.526-7.794 2.092-10.75.568-2.956 1.428-7.482 1.913-10.057.485-2.575 1.345-7.49 1.91-10.924.567-3.433 1.427-8.74 1.91-11.79.485-3.053 1.272-7.943 1.75-10.87.475-2.926.866-5.695.866-6.155v-.835h13.224l-.185.608c-.1.332-.512 2.48-.91 4.768-.398 2.29-.86 4.786-1.026 5.55l-.3 1.386.495-.693c.272-.38 1.298-1.786 2.28-3.12.98-1.336 2.545-3.175 3.476-4.087.93-.91 2.534-2.197 3.565-2.858 1.033-.66 2.706-1.504 3.72-1.876 1.013-.373 2.856-.857 4.096-1.076l2.254-.4 1.734.215c.953.12 2.865.56 4.248.98 1.383.42 2.514.863 2.514.984 0 .12-.39 2.135-.867 4.476-.478 2.342-.868 4.626-.868 5.076 0 .45-.093.82-.207.82-.114 0-1.09-.265-2.167-.587l-1.96-.586-3.988-.02-3.99-.023-2.608 1.248-2.61 1.246-2.115 1.958-2.115 1.96-1.58 2.344c-.87 1.29-2.14 3.553-2.82 5.032-.68 1.48-1.236 2.903-1.236 3.165 0 .26-.232 1.133-.517 1.94-.285.804-1.126 4.53-1.872 8.278-.744 3.75-1.832 9.782-2.418 13.407-.585 3.623-1.384 8.65-1.774 11.17-.39 2.522-.808 5.995-.93 7.717l-.223 3.133zm175.592 0l.64-3.207 1.673-8.41c.568-2.86 1.494-7.62 2.058-10.577.564-2.956 1.42-7.482 1.9-10.056.482-2.575 1.344-7.49 1.915-10.924.572-3.434 1.504-9.13 2.073-12.658.567-3.53 1.353-8.54 1.744-11.137.39-2.596.71-4.82.71-4.94v-.223h12.832l-.015.78c-.008.43-.46 3.044-1.003 5.81-.543 2.765-.942 5.078-.886 5.138.056.06.702-.797 1.435-1.907l1.334-2.018 2.483-2.6 2.484-2.6 1.91-1.153 1.91-1.152 2.543-.894 2.544-.897 3.122-.007 3.12-.01 1.735.548c.954.3 2.144.706 2.645.902l.912.357-.81 3.926c-.447 2.16-.818 4.423-.825 5.032l-.017 1.106-.287.178-.288.178-1.706-.548-1.707-.547-4.335-.032-4.334-.03-1.992.965c-1.096.53-2.92 1.662-4.055 2.516l-2.064 1.55-1.885 2.504-1.885 2.505-1.43 3.022c-.784 1.662-1.43 3.22-1.433 3.462-.003.242-.25 1.143-.552 2-.3.86-1.014 3.746-1.587 6.417-.57 2.67-1.247 6.182-1.503 7.803-.255 1.622-.862 5.367-1.35 8.324-.488 2.955-1.28 7.96-1.76 11.12l-.872 5.746v4.634zm-285.11-8.017l5.887-2.002 1.27-.95c.7-.52 1.82-1.417 2.485-1.99.667-.573 1.79-1.848 2.494-2.83.704-.983 1.93-3.02 2.727-4.53l1.45-2.742 1.18-3.388c.65-1.863 1.582-5.14 2.072-7.282l.89-3.895.178-6.588.178-6.59-.58-2.23c-.32-1.225-.947-2.948-1.394-3.83l-.81-1.6-1.505-1.512-1.505-1.512-1.793-.826-1.794-.826-2.54-.54-2.543-.543-6.242.366-2.428.75-2.427.752-1.86 1.056c-1.024.58-2.756 1.8-3.85 2.71l-1.988 1.653-.907 4.8c-.5 2.64-1.39 7.532-1.976 10.87-.587 3.337-1.47 8.175-1.96 10.75l-.893 4.682-.178 2.988-.177 2.99.44 1.865c.244 1.027.79 2.647 1.218 3.6l.775 1.735 1.343 1.28 1.342 1.284 1.923.878 1.923.877 1.893.333 1.892.335zm-64.997 8.017l.21-.78c.115-.43.512-2.262.883-4.075.37-1.812 1.145-5.713 1.723-8.67.578-2.956 1.447-7.48 1.93-10.057.486-2.575 1.336-7.1 1.89-10.056.556-2.958 1.41-7.873 1.9-10.926.492-3.05 1.366-8.435 1.943-11.964.577-3.527 1.333-8.443 1.677-10.923l.63-4.51 15.086-.185-.19.305c-.102.167-.742 3.095-1.42 6.508-.68 3.413-1.632 8.312-2.115 10.887-.484 2.574-1.332 7.022-1.884 9.882-.552 2.863-1.388 7.466-1.86 10.23-.47 2.767-1.333 7.917-1.917 11.445-.585 3.528-1.532 9.33-2.106 12.892-.57 3.563-1.04 7.023-1.04 7.69 0 .663-.095 1.454-.212 1.757l-.21.547zm308.548-8.278l2.812-.89 2.813-.89 1.278-.866c.704-.477 1.405-.868 1.558-.868.154 0 1.217-.927 2.36-2.06l2.08-2.06 1.265-2.127c.697-1.17 1.267-2.22 1.267-2.338 0-.116.46-1.392 1.024-2.836.563-1.443 1.42-4.106 1.907-5.92.488-1.81 1.093-4.518 1.347-6.014l.46-2.722-.547-.226-.548-.227h-17.34l-2.775.66-2.774.66-2.232 1.073-2.23 1.075-2.103 2.088-2.103 2.087-1.098 2.267c-.604 1.246-1.363 3.177-1.686 4.29l-.588 2.02.147 3.335.144 3.333.743 1.428c.41.785 1.13 1.885 1.6 2.446l.858 1.018 1.57.807c.863.444 2.397 1.018 3.407 1.275l1.837.47 2.774-.147zm-150.446-38.886l.366-3.382.367-3.38-.32-2.033-.32-2.033-.485-.916c-.267-.502-.963-1.43-1.546-2.058l-1.062-1.145-1.936-.886-1.935-.885-2.66-.342-2.665-.343-3.47.223c-1.906.12-4.09.38-4.854.577-.76.196-2.4.842-3.64 1.435l-2.254 1.077-2.294 2.283-2.293 2.28-1.046 2.078c-.573 1.142-1.453 3.216-1.953 4.61-.5 1.395-.91 2.605-.91 2.688 0 .086 7.855.154 17.455.154zm-138.08-37.47l-1.454-.658-1.454-.66-.754-1.476-.752-1.477.152-2.97.153-2.972.81-1.906.81-1.907 1.03-1.105 1.03-1.104 1.774-.794 1.775-.795h5.214l1.208.747 1.207.747.695 1.15.693 1.153-.028 2.946-.027 2.948-.78 2.003-.78 2.003-1.482 1.502-1.48 1.503-1.675.57-1.674.57-2.103-.006zm393.187 86c-1.184-.154-3.135-.55-4.336-.88-1.202-.328-3.12-1.063-4.266-1.63l-2.08-1.034-1.525-1.25-1.524-1.247-1.337-1.808-1.335-1.806-.732-1.84c-.403-1.01-.94-2.54-1.197-3.398l-.464-1.56-.394-4.335-.392-4.335.523-5.386.523-5.388 1.06-4.15c.586-2.282 1.476-5.24 1.982-6.577.505-1.334 1.767-4.19 2.803-6.35l1.887-3.92 1.604-2.297c.885-1.263 2.55-3.308 3.703-4.544l2.097-2.25 2.427-1.797 2.427-1.796 3.296-1.607 3.294-1.607 3.468-.876 3.468-.877 3.814-.356 3.815-.355 4.508.35 4.508.35 3.294.828c1.81.455 3.558.94 3.88 1.077l.585.25.186-1.157c.102-.636.65-3.966 1.22-7.4.57-3.432 1.506-9.206 2.08-12.83.573-3.624 1.142-7.564 1.262-8.756l.22-2.168h14.843v.26c0 .143-.376 2.056-.838 4.248-.46 2.194-1.317 6.486-1.906 9.538-.586 3.05-1.47 7.733-1.963 10.403-.493 2.67-1.347 7.274-1.895 10.23-.55 2.957-1.468 7.95-2.04 11.098-.575 3.147-1.433 7.986-1.91 10.75-.473 2.766-1.196 6.902-1.603 9.19-.41 2.29-1.12 6.658-1.58 9.71-.46 3.053-1.304 9.528-1.874 14.392l-1.036 8.844v4.68h-13.606l.23-2.34c.126-1.287.365-3.12.533-4.074.17-.954.384-2.515.48-3.468l.175-1.735-.2.52c-.112.287-1.05 1.652-2.087 3.035l-1.886 2.513-1.79 1.576-1.79 1.576-2.082 1.066c-1.143.586-2.86 1.286-3.814 1.556-.954.27-3.138.72-4.855.997l-3.123.506-3.294-.042c-1.813-.022-4.262-.167-5.444-.32zm13.975-9.657l5.514-1.75 1.906-1.268c1.05-.698 2.43-1.754 3.068-2.35.638-.594 1.648-1.784 2.246-2.642.598-.858 1.517-2.466 2.042-3.573.525-1.106 1.18-2.824 1.454-3.815.275-.99.81-2.972 1.19-4.403.38-1.43 1.093-4.707 1.585-7.282.494-2.574 1.356-7.178 1.917-10.23.56-3.052 1.347-7.422 1.745-9.71.398-2.29.81-4.59.916-5.114l.19-.95-.98-.382c-.54-.21-2.463-.793-4.276-1.295l-3.294-.915h-5.722l-5.722.003-2.726.945-2.727.944-1.55.954c-.856.525-2.293 1.67-3.197 2.54-.904.87-2.273 2.432-3.042 3.468-.766 1.036-1.884 2.82-2.482 3.964-.598 1.145-1.556 3.138-2.13 4.43-.575 1.293-1.045 2.54-1.05 2.774 0 .234-.395 1.674-.873 3.2l-.87 2.774-.558 3.987-.56 3.99-.04 4.508-.04 4.508.48 2.255.483 2.255 2.112 4.046 1.42 1.165 1.423 1.166 1.69.724c.93.398 2.484.868 3.456 1.042l1.767.318 2.62-.137z" fill="#393939"/></svg>