<svg width="750" height="471" viewBox="0 0 750 471" xmlns="http://www.w3.org/2000/svg"><path d="M697.115 0H52.885C23.724 0 0 23.196 0 51.707v367.586C0 447.804 23.724 471 52.885 471h644.23C726.274 471 750 447.804 750 419.293V51.707C750 23.196 726.274 0 697.115 0zM320.513 379.012l-275.513.1v-.664c0-.364.44-2.729.976-5.255.537-2.525 1.372-6.542 1.857-8.926.482-2.384 1.31-6.435 1.835-9.004a3845.025 3845.025 0 003.836-18.838c.497-2.477 1.325-6.529 1.842-9.004.517-2.476 1.398-6.752 1.959-9.503.56-2.75 1.41-6.953 1.891-9.337.48-2.385 1.244-6.06 1.697-8.168.452-2.11 1.03-4.961 1.282-6.337.253-1.375 1.071-5.427 1.818-9.003.747-3.576 1.57-7.628 1.832-9.003.26-1.376 1.088-5.428 1.84-9.004.751-3.575 1.576-7.627 1.834-9.003.258-1.375 1.088-5.426 1.843-9.002.758-3.577 1.575-7.553 1.816-8.837.242-1.284.904-4.585 1.47-7.336.567-2.75 1.64-7.927 2.385-11.503a2391.74 2391.74 0 002.828-13.84 6096.08 6096.08 0 012.157-10.669 4130.484 4130.484 0 013.328-16.172c.552-2.66 1.449-7.012 1.994-9.671.546-2.659 1.387-6.786 1.868-9.17.482-2.384 1.304-6.36 1.827-8.836.523-2.476 1.423-6.828 2-9.67a308.656 308.656 0 012.147-9.67c.604-2.476 1.458-5.477 1.899-6.669.439-1.193 1.653-3.776 2.698-5.743l1.899-3.574 1.726-2.262c.948-1.242 2.643-3.206 3.765-4.364 1.122-1.158 3.014-2.9 4.208-3.871 1.191-.972 2.917-2.284 3.833-2.915.918-.63 2.719-1.735 4.002-2.454 1.284-.72 3.086-1.661 4.002-2.093.918-.431 2.793-1.22 4.168-1.753 1.376-.53 4.001-1.422 5.835-1.978 1.834-.558 5.277-1.398 7.651-1.867 2.374-.469 6.124-1.096 8.337-1.393l4.02-.54 275.68-.104L704.563 92v.663c0 .365-.442 2.73-.981 5.254-.542 2.525-1.444 6.843-2.008 9.594-.564 2.75-1.386 6.727-1.828 8.836-.441 2.11-1.278 6.16-1.858 9.003-.58 2.843-1.474 7.195-1.984 9.67-.51 2.476-1.339 6.528-1.839 9.003-.5 2.477-1.332 6.528-1.849 9.004-.518 2.476-1.318 6.378-1.781 8.67a7432.89 7432.89 0 01-1.862 9.17c-.561 2.75-1.462 7.102-2.003 9.67a1454.53 1454.53 0 00-1.829 8.836c-.467 2.292-1.304 6.418-1.863 9.17a1791.01 1791.01 0 01-2 9.67c-.54 2.568-1.344 6.469-1.789 8.67a8117.17 8117.17 0 01-3.725 18.34c-.452 2.2-1.256 6.102-1.789 8.668-.535 2.569-1.447 6.996-2.027 9.838-.583 2.843-1.414 6.893-1.849 9.004-.436 2.107-1.25 6.084-1.812 8.834-.561 2.753-1.453 7.103-1.984 9.671-.53 2.568-1.36 6.62-1.847 9.004-.485 2.384-1.33 6.51-1.875 9.17-.547 2.658-1.44 7.01-1.984 9.669-.544 2.66-1.36 6.636-1.812 8.837-.453 2.2-1.28 6.252-1.839 9.003a916.023 916.023 0 01-2.02 9.634l-1.004 4.632-1.196 3.203c-.658 1.763-1.647 4.105-2.2 5.206-.55 1.1-1.671 3.041-2.491 4.315-.822 1.272-1.966 2.901-2.543 3.622-.577.72-2.314 2.58-3.862 4.133l-2.81 2.822-2.707 1.924c-1.489 1.057-3.093 2.133-3.563 2.39-.471.257-2.264 1.173-3.986 2.034-1.72.862-4.151 1.958-5.4 2.436-1.25.48-3.726 1.294-5.502 1.81-1.776.519-3.68 1.029-4.23 1.133-.551.106-2.46.5-4.245.88-1.783.377-5.384.942-8.001 1.253l-4.76.566-275.513.099zm262.569-8.485l4.475-.533c2.46-.292 5.846-.823 7.523-1.179 1.677-.355 3.472-.726 3.99-.826.517-.098 2.307-.577 3.976-1.064 1.67-.486 3.997-1.251 5.172-1.703 1.175-.449 3.46-1.48 5.078-2.29a195.11 195.11 0 003.747-1.912c.443-.241 1.95-1.253 3.35-2.247l2.544-1.809 2.642-2.652c1.456-1.461 3.09-3.21 3.632-3.886.542-.678 1.618-2.21 2.39-3.406.771-1.197 1.826-3.023 2.342-4.056.52-1.035 1.45-3.237 2.068-4.894l1.125-3.012.943-4.354a853.33 853.33 0 001.9-9.057 3748.85 3748.85 0 011.728-8.464c.426-2.07 1.192-5.808 1.704-8.308a9504.1 9504.1 0 011.865-9.09c.512-2.5 1.307-6.38 1.762-8.62.458-2.243 1.239-6.052 1.737-8.466.499-2.414 1.337-6.504 1.865-9.091.528-2.586 1.294-6.325 1.704-8.306.409-1.985 1.19-5.792 1.739-8.465.544-2.673 1.403-6.834 1.904-9.249.501-2.412 1.258-6.08 1.683-8.149.425-2.07 1.214-5.95 1.758-8.622.542-2.672 1.328-6.552 1.744-8.62.417-2.07 1.174-5.736 1.682-8.15.508-2.414 1.354-6.506 1.88-9.092.525-2.587 1.312-6.466 1.752-8.62.437-2.155 1.21-5.895 1.719-8.308a1874.66 1874.66 0 001.882-9.091 9110.83 9110.83 0 001.751-8.62 1440.19 1440.19 0 011.675-8.152 1630.64 1630.64 0 001.738-8.464c.47-2.327 1.249-6.137 1.729-8.464.48-2.327 1.319-6.419 1.864-9.09.546-2.674 1.333-6.482 1.748-8.465.416-1.983 1.188-5.721 1.719-8.308.53-2.586 1.378-6.645 1.887-9.018.507-2.374.923-4.597.923-4.94v-.624l-259.173.101-259.173.097-3.78.508c-2.08.28-5.606.87-7.837 1.31-2.232.441-5.47 1.23-7.194 1.755-1.723.524-4.192 1.361-5.484 1.86-1.293.5-3.057 1.242-3.92 1.648-.861.406-2.554 1.292-3.761 1.968-1.208.675-2.9 1.714-3.762 2.307-.862.593-2.485 1.826-3.605 2.74-1.121.913-2.9 2.55-3.956 3.639-1.055 1.088-2.648 2.936-3.54 4.104l-1.623 2.126-1.784 3.36c-.982 1.85-2.124 4.277-2.537 5.4-.414 1.119-1.217 3.94-1.784 6.268a288.452 288.452 0 00-2.019 9.091c-.543 2.672-1.388 6.764-1.88 9.091-.492 2.328-1.265 6.066-1.718 8.308-.453 2.24-1.243 6.12-1.756 8.62-.513 2.5-1.356 6.59-1.875 9.093-.519 2.499-1.29 6.237-1.717 8.305-.426 2.07-1.061 5.174-1.411 6.898-.352 1.724-1.265 6.237-2.028 10.03a2244.46 2244.46 0 01-2.66 13.01c-.7 3.363-1.708 8.23-2.241 10.816a583.803 583.803 0 00-1.383 6.896c-.226 1.207-.994 4.946-1.707 8.308-.71 3.362-1.49 7.171-1.732 8.464-.243 1.294-1.019 5.102-1.724 8.464-.707 3.362-1.486 7.171-1.73 8.464a705.108 705.108 0 01-1.722 8.465c-.703 3.361-1.472 7.171-1.71 8.463-.236 1.294-.78 3.974-1.205 5.957a768.67 768.67 0 00-1.596 7.68c-.452 2.241-1.252 6.192-1.778 8.778-.527 2.586-1.355 6.606-1.841 8.934-.487 2.326-1.264 6.136-1.732 8.465a3741.852 3741.852 0 01-3.606 17.71c-.494 2.415-1.272 6.223-1.725 8.465-.456 2.241-1.24 6.018-1.746 8.391-.504 2.375-.918 4.598-.918 4.94v.624l259.017-.093 259.017-.092zm-480.062-93.79v-.542c0-.299.387-2.436.859-4.752.473-2.315.988-4.96 1.148-5.878.158-.916.657-3.467 1.109-5.667a845.629 845.629 0 001.87-9.504c.577-3.026 1.403-7.378 1.836-9.67a1427.33 1427.33 0 001.815-9.837 704.773 704.773 0 002.034-12.004l1.83-11.504c.453-2.842 1.284-8.02 1.846-11.504.563-3.485 1.171-7.31 1.353-8.503.181-1.192.565-3.48.853-5.085l.522-2.918h16.342l-.202.53c-.113.29-.506 2.24-.874 4.334-.37 2.093-.9 4.894-1.18 6.223-.28 1.33-.656 3.469-.835 4.753-.18 1.283-.707 4.36-1.173 6.834a661.043 661.043 0 01-1.49 7.67 263.572 263.572 0 00-1.134 5.99c-.27 1.552-.459 2.847-.421 2.88.038.03 4.627.166 10.197.298l10.127.24 12.092-.244 12.092-.245.555-3.709a788.6 788.6 0 011.552-9.71c.548-3.302 1.36-8.028 1.804-10.505a1585.28 1585.28 0 001.468-8.336c.364-2.109.762-4.548.884-5.418l.224-1.585h16.474l-.561 2.418c-.31 1.33-1.027 4.969-1.597 8.086-.569 3.117-1.413 7.77-1.876 10.337a3308.08 3308.08 0 01-1.855 10.17c-.558 3.027-1.454 7.828-1.992 10.671a715.846 715.846 0 00-1.807 10.004c-.458 2.658-1.29 7.61-1.852 11.003a2257 2257 0 01-1.998 11.837c-.538 3.117-1.281 7.47-1.653 9.67-.372 2.2-.835 5.127-1.025 6.503-.193 1.375-.51 3.439-.709 4.585l-.36 2.084h-16.27l-.004-.417c-.001-.23.527-3.343 1.174-6.919.649-3.577 1.539-8.378 1.98-10.67.439-2.293 1.268-6.72 1.84-9.837.574-3.118 1.487-8.07 2.03-11.005.544-2.934 1.158-6.2 1.365-7.26l.379-1.925-.243-.242-.242-.242h-43.57l-.188.187c-.101.103-.549 2.203-.992 4.669-.442 2.464-1.19 6.732-1.66 9.483-.47 2.75-1.319 7.777-1.884 11.17-.564 3.392-1.39 8.345-1.834 11.004a2246.84 2246.84 0 00-1.387 8.42l-.582 3.584H103.02zm112.301 31.011l.182-.75c.1-.412.628-3.002 1.174-5.753a1319.1 1319.1 0 001.994-10.336c.552-2.935 1.471-7.886 2.042-11.005.572-3.117 1.4-7.618 1.84-10.002.44-2.385 1.255-6.812 1.811-9.838.557-3.026 1.458-8.128 2.003-11.337a5749.938 5749.938 0 003.67-21.84c.548-3.302 1.478-9.04 2.069-12.755l1.07-6.753h12.228l-.014.416c-.007.231-.288 1.736-.626 3.346l-.611 2.93.876-.574c.48-.313 1.08-.776 1.329-1.025.25-.249 1.24-.954 2.198-1.567.957-.614 2.75-1.582 3.98-2.15l2.24-1.038 2.577-.656 2.576-.66 3.159-.362 3.156-.362 2.834.208 2.835.207 2.834.678 2.835.68 5.148 2.66 2.175 2.306 2.176 2.307 1.126 2.247 1.127 2.246.695 3.001.696 3.002.22 3.001.221 3.001-.381 3.536c-.211 1.946-.684 5.097-1.051 7.003l-.669 3.465-1.292 4.002c-.711 2.2-1.93 5.502-2.712 7.335-.781 1.834-1.845 3.963-2.365 4.73-.52.767-.946 1.477-.946 1.58 0 .102-.709 1.125-1.576 2.273-.865 1.15-2.554 3.068-3.75 4.263l-2.177 2.176-2.334 1.52c-1.284.836-3.234 1.932-4.335 2.434l-2 .912-3.728.965-3.727.965-3.442.211-3.442.21-2.712-.35-2.712-.352-2.276-.91-2.275-.912-1.849-1.862-1.848-1.863-.832-1.575c-.459-.867-.923-1.576-1.03-1.576-.109 0-.377 1.312-.597 2.917a547.3 547.3 0 01-1.217 8.087c-.448 2.842-1.255 7.944-1.795 11.337a2414.16 2414.16 0 00-1.506 9.572c-.289 1.872-.526 3.847-.526 4.39 0 .544-.09 1.226-.202 1.516l-.202.528H215.32zm101.3-29.724c-1.27-.163-3.54-.594-5.042-.957l-2.734-.661-1.96-.893c-1.078-.49-2.711-1.45-3.627-2.133-.918-.682-2.287-1.894-3.043-2.693-.755-.8-1.76-2.128-2.228-2.953-.47-.825-1.16-2.326-1.532-3.335-.372-1.008-.906-2.81-1.184-4l-.507-2.17-.004-4.96-.006-4.962.532-3.375c.293-1.856.886-4.874 1.32-6.708.432-1.835 1.172-4.46 1.643-5.837.47-1.375 1.171-3.25 1.556-4.167.385-.917 1.233-2.717 1.882-4.002.651-1.283 1.792-3.233 2.536-4.334.743-1.101 2.107-2.753 3.028-3.674.92-.92 2.349-2.22 3.176-2.89.825-.668 2.475-1.768 3.667-2.444 1.192-.676 3.293-1.68 4.668-2.229l2.501-.999 4.001-.77 4.002-.767 3.335-.217 3.334-.217 3.59.343 3.588.343 2.914.701 2.912.702 1.668.887c.917.487 2.203 1.265 2.858 1.728.655.462 1.645 1.364 2.198 2.004.554.64 1.401 1.842 1.88 2.67l.874 1.508.53 2.277.527 2.278-.01 3.051-.011 3.05-.487 3.627c-.267 1.994-.738 4.695-1.047 6.002l-.56 2.375-18.547-.118-18.55-.12-10.034.469-.573 3.72-.571 3.718.004 4.17.004 4.17.645 2.253.644 2.252 1.028 1.797 1.028 1.795 2.634 2.38 1.595.79c.878.436 2.497 1.078 3.596 1.429l2.001.638 5.836-.01 5.836-.012 3.67-.71 3.672-.713 3.498-1.152c1.923-.633 4.059-1.424 4.744-1.755l1.246-.6.18.178.18.18-.814 3.966c-.448 2.18-.906 4.64-1.018 5.466l-.204 1.504-4.076.897c-2.242.492-5.726 1.129-7.745 1.412-2.016.285-5.317.669-7.335.852l-3.668.335-3.668-.042c-2.017-.023-4.707-.175-5.976-.338zm166.868.216l-4.501.13-1.964-.31c-1.08-.172-2.991-.602-4.247-.957l-2.284-.645-1.994-1.212-1.993-1.211-1.123-1.312c-.617-.721-1.53-2.059-2.026-2.97l-.902-1.659-.488-2.543-.485-2.544v-6.11l.51-2.913.509-2.912 1.11-2.59c.61-1.424 1.616-3.34 2.235-4.256.62-.917 2.028-2.568 3.132-3.67l2.005-2.001 2.546-1.582c1.4-.872 2.685-1.584 2.855-1.584.17 0 .933-.302 1.697-.67.763-.369 3.155-1.156 5.314-1.748l3.926-1.077 11.998-.042 11.998-.043.575-2.796.574-2.794.017-2.547.015-2.546-1.085-1.614-1.083-1.616-1.936-.956-1.934-.954-5.8-1.018-4.502.187-4.501.184-5.001.852c-2.752.47-6.414 1.231-8.137 1.696-1.723.463-3.182.795-3.24.735-.06-.06.32-1.75.843-3.758.522-2.008 1.129-4.513 1.347-5.567l.397-1.918 5.454-.021 4.002-.485c2.201-.268 6.501-.641 9.559-.83l5.557-.344 4.314.328 4.313.328 6.268 1.394 2.103 1.066 2.1 1.065 1.282 1.23 1.28 1.228.945 1.931.944 1.93-.03 4.177-.03 4.176-.896 4.835c-.492 2.66-1.325 7.235-1.851 10.17-.527 2.935-1.34 7.586-1.807 10.337a495.305 495.305 0 00-1.725 11.17l-.873 6.17-.187 4.752-.187 4.75h-12.24l.006-2.083c.004-1.146.22-3.582.478-5.414.26-1.83.429-3.372.374-3.426-.054-.054-.696.694-1.427 1.662-.73.967-2.064 2.488-2.963 3.38-.9.892-2.462 2.173-3.47 2.847-1.009.674-2.659 1.615-3.668 2.091l-1.834.867-2.835.726-2.834.725-4.501.13h.002zm-54.847.123c-2.019-.022-4.549-.169-5.623-.325-1.074-.157-3.1-.604-4.5-.993l-2.55-.708-1.941-1.025-1.94-1.027-1.835-1.805-1.834-1.806-1.153-1.803-1.154-1.803-.999-2.494-.999-2.494-.628-4.85-.004-4.168-.003-4.168.311-3.168.313-3.167.86-3.502c.473-1.926 1.408-5.077 2.077-7.003l1.219-3.5 1.588-3.235c.874-1.78 2.23-4.174 3.014-5.323l1.427-2.088 2.552-2.514c1.406-1.382 2.98-2.813 3.498-3.18a60.993 60.993 0 012.64-1.702c.934-.57 2.663-1.423 3.844-1.895l2.148-.858 3.334-.701 3.335-.7 4.501-.346 4.502-.346 6.384.367c3.51.203 7.62.508 9.133.68 1.511.173 2.814.38 2.894.46.082.08-.076 1.397-.35 2.928a281.989 281.989 0 00-.92 5.53c-.232 1.514-.465 2.753-.516 2.753-.053 0-.888-.297-1.857-.659l-1.763-.658-4.335-.866-4.335-.868-3.668-.184-3.668-.185-2.5.39c-1.376.214-3.472.688-4.657 1.054l-2.156.664-1.68 1.041-1.678 1.04-3.171 3.287-1.29 2.222c-.71 1.224-1.783 3.35-2.384 4.725-.602 1.375-1.212 2.95-1.36 3.501-.145.55-.577 2.05-.958 3.334l-.693 2.335-.655 4.335-.655 4.335-.003 3.578-.004 3.577.539 2.757.54 2.76 1.13 2.06 1.133 2.061 1.706 1.493 1.706 1.492 4.417 1.533 3.888.132 3.886.132 4.573-.886 4.572-.885 3.211-1.193c1.766-.655 3.402-1.344 3.637-1.53.233-.185.478-.278.546-.206.066.072-.028 1.03-.209 2.132-.182 1.1-.607 3.41-.943 5.13-.338 1.723-.734 3.236-.883 3.364-.149.127-1.421.557-2.827.955a77.285 77.285 0 01-5.168 1.227c-1.438.28-4.488.728-6.779 1l-4.165.494-3.67-.04h.005zm-67.198-1.626v-.294c0-.16.212-1.323.472-2.582.259-1.262.931-4.618 1.493-7.461a2330.284 2330.284 0 003.85-20.008 575.526 575.526 0 001.838-10.503 2282.66 2282.66 0 001.837-11.337c.465-2.935 1.222-7.637 1.68-10.451.458-2.814.834-5.476.834-5.918v-.804h12.716l-.177.584c-.097.32-.492 2.384-.875 4.585-.382 2.2-.826 4.601-.986 5.336l-.29 1.332.477-.666c.263-.366 1.25-1.717 2.194-3.001.943-1.284 2.447-3.052 3.342-3.929.893-.876 2.437-2.112 3.428-2.748.992-.635 2.6-1.446 3.576-1.804.974-.358 2.746-.824 3.938-1.034l2.168-.384 1.667.206c.916.114 2.755.537 4.085.941 1.33.404 2.417.83 2.417.946 0 .117-.376 2.053-.834 4.304-.458 2.252-.833 4.448-.833 4.88 0 .435-.09.788-.2.788-.11 0-1.047-.253-2.083-.563l-1.886-.563-3.833-.02-3.836-.02-2.509 1.198-2.508 1.198-2.035 1.883-2.034 1.885-1.52 2.253c-.836 1.24-2.055 3.417-2.71 4.839-.653 1.422-1.189 2.791-1.189 3.043 0 .251-.223 1.09-.497 1.864-.273.775-1.082 4.357-1.799 7.961a445.581 445.581 0 00-2.325 12.89c-.562 3.484-1.33 8.318-1.706 10.742-.375 2.424-.777 5.763-.895 7.419l-.213 3.013h-14.239zm168.839 0l.615-3.084c.338-1.696 1.063-5.336 1.609-8.086s1.436-7.328 1.979-10.17a3153.44 3153.44 0 001.827-9.67 649.562 649.562 0 001.84-10.504c.55-3.302 1.447-8.779 1.994-12.171.545-3.393 1.301-8.212 1.677-10.709.376-2.496.684-4.634.684-4.75v-.214h12.337l-.014.75c-.008.413-.443 2.927-.965 5.586-.522 2.659-.905 4.883-.852 4.94.054.06.675-.766 1.38-1.833l1.283-1.94 2.387-2.5 2.389-2.501 1.835-1.108 1.837-1.108 2.446-.86 2.446-.86 3.001-.007 3.001-.01 1.668.527a51.59 51.59 0 012.543.867l.877.343-.78 3.775c-.429 2.077-.786 4.254-.792 4.84l-.016 1.063-.276.171-.277.172-1.64-.527-1.641-.526-4.169-.03-4.167-.029-1.915.928c-1.054.51-2.809 1.598-3.9 2.42l-1.983 1.49-1.813 2.408-1.813 2.409-1.374 2.907c-.755 1.598-1.375 3.096-1.379 3.328-.003.233-.241 1.1-.53 1.924-.29.826-.976 3.601-1.527 6.17-.549 2.567-1.199 5.943-1.445 7.502-.245 1.56-.829 5.16-1.298 8.003-.47 2.842-1.23 7.655-1.692 10.693l-.839 5.525v4.456h-14.558zm-274.144-7.71l5.66-1.924 1.222-.913a52.428 52.428 0 002.389-1.915c.642-.55 1.722-1.776 2.399-2.72.677-.945 1.856-2.905 2.622-4.356l1.392-2.637 1.136-3.257c.625-1.792 1.52-4.942 1.992-7.002l.856-3.745.17-6.336.172-6.336-.559-2.144c-.306-1.179-.91-2.835-1.339-3.682l-.779-1.54-1.447-1.454-1.446-1.453-1.724-.795-1.725-.794-2.443-.52-2.445-.521-6.002.352-2.334.723-2.334.722-1.788 1.015c-.985.558-2.65 1.731-3.702 2.605l-1.912 1.59-.872 4.616c-.48 2.537-1.335 7.241-1.9 10.45a903.618 903.618 0 01-1.885 10.337l-.858 4.502-.171 2.873-.17 2.874.424 1.795c.234.987.76 2.545 1.17 3.462l.746 1.667 1.291 1.232 1.29 1.234 1.85.844 1.848.843 1.82.321 1.82.322 5.566-.334zm-62.498 7.71l.201-.75c.112-.413.494-2.175.85-3.919.356-1.742 1.101-5.493 1.657-8.336s1.391-7.194 1.857-9.67l1.817-9.67a495.73 495.73 0 001.827-10.505c.472-2.932 1.313-8.11 1.867-11.503a538.478 538.478 0 001.614-10.503l.606-4.336 14.505-.179-.181.294c-.1.16-.715 2.976-1.368 6.257-.653 3.282-1.568 7.993-2.032 10.469-.466 2.475-1.281 6.751-1.812 9.501a557.388 557.388 0 00-1.787 9.838 2967.242 2967.242 0 00-3.87 23.401c-.55 3.426-1.002 6.753-1.002 7.393 0 .639-.09 1.4-.202 1.69l-.202.528H193.64zm296.681-7.96l2.704-.855 2.705-.856 1.229-.832c.676-.459 1.35-.835 1.497-.835.148 0 1.17-.891 2.269-1.98l1.999-1.981 1.217-2.046c.67-1.124 1.219-2.134 1.219-2.247 0-.111.443-1.338.984-2.727.542-1.387 1.367-3.948 1.834-5.691.468-1.742 1.05-4.345 1.294-5.784l.443-2.617-.527-.217-.526-.219h-16.674l-2.668.634-2.667.635-2.146 1.032-2.146 1.034-2.022 2.008-2.022 2.006-1.055 2.18c-.581 1.198-1.311 3.055-1.622 4.124l-.565 1.945.141 3.205.14 3.205.714 1.373c.393.755 1.086 1.813 1.539 2.352l.825.98 1.508.776c.831.427 2.306.979 3.277 1.226l1.767.45 2.668-.14 2.667-.138zm-144.66-37.39l.352-3.251.353-3.251-.308-1.954-.308-1.954-.465-.88c-.257-.484-.926-1.376-1.487-1.98l-1.021-1.102-1.862-.852-1.86-.851-2.56-.33-2.561-.33-3.336.215c-1.834.117-3.934.367-4.668.555-.733.189-2.309.81-3.5 1.38l-2.168 1.036-2.206 2.195-2.205 2.193-1.005 1.997c-.55 1.098-1.397 3.092-1.878 4.433-.481 1.341-.876 2.505-.876 2.584 0 .082 7.553.147 16.784.147h16.786zm-132.77-36.027l-1.397-.634-1.398-.635-.725-1.419-.723-1.42.146-2.857.147-2.857.778-1.833.779-1.834.99-1.062.99-1.062 1.708-.763 1.706-.765h5.014l1.161.72 1.16.718.668 1.106.667 1.108-.027 2.833-.026 2.834-.751 1.925-.75 1.926-1.424 1.445-1.424 1.445-1.611.548-1.61.548-2.023-.007-2.025-.008zm378.066 82.69c-1.138-.147-3.014-.528-4.169-.844-1.155-.317-3-1.023-4.101-1.569l-2.001-.994-1.466-1.2-1.465-1.2-1.285-1.74-1.284-1.736-.703-1.768a47.465 47.465 0 01-1.151-3.267l-.445-1.5-.38-4.169-.376-4.168.503-5.179.503-5.18 1.02-3.99c.562-2.195 1.418-5.04 1.904-6.325.486-1.284 1.7-4.03 2.696-6.106l1.813-3.77 1.542-2.208c.85-1.215 2.451-3.181 3.56-4.37l2.016-2.162 2.334-1.728 2.334-1.727 3.169-1.545 3.167-1.545 3.335-.843 3.334-.843 3.668-.342 3.668-.342 4.336.338 4.334.337 3.168.796c1.74.437 3.42.903 3.73 1.035l.563.24.179-1.112c.097-.612.624-3.813 1.172-7.114.548-3.301 1.448-8.853 2-12.337.55-3.486 1.098-7.274 1.213-8.42l.21-2.085h14.274v.251c0 .137-.362 1.976-.806 4.084a708.403 708.403 0 00-1.833 9.171c-.564 2.934-1.414 7.436-1.888 10.003s-1.295 6.994-1.822 9.837c-.528 2.843-1.412 7.644-1.963 10.67-.552 3.026-1.377 7.679-1.834 10.337a1758.29 1758.29 0 01-1.543 8.837 427.206 427.206 0 00-1.519 9.336c-.442 2.935-1.253 9.16-1.8 13.838l-.997 8.504v4.5H618.79l.222-2.25c.12-1.238.35-3 .512-3.918.163-.917.37-2.418.462-3.334l.168-1.669-.193.501c-.107.276-1.009 1.589-2.006 2.919l-1.814 2.416-1.72 1.515-1.721 1.516-2.002 1.025c-1.099.563-2.75 1.236-3.667 1.496-.918.26-3.017.691-4.668.959l-3.002.487-3.168-.04c-1.743-.022-4.098-.16-5.234-.309zm13.438-9.285l5.302-1.682 1.834-1.22c1.008-.67 2.335-1.685 2.95-2.258.613-.571 1.584-1.716 2.16-2.54.574-.826 1.458-2.372 1.963-3.436.505-1.064 1.133-2.716 1.398-3.668.264-.953.78-2.858 1.144-4.234.365-1.375 1.051-4.526 1.524-7.002a1639.1 1639.1 0 001.842-9.837c.54-2.934 1.296-7.136 1.678-9.337.383-2.2.78-4.413.881-4.916l.184-.916-.943-.366c-.519-.202-2.369-.763-4.112-1.245l-3.167-.88h-5.502l-5.502.003-2.621.907-2.622.908-1.493.918c-.822.505-2.204 1.605-3.073 2.442-.87.838-2.185 2.34-2.925 3.335-.737.996-1.812 2.71-2.387 3.812a90.326 90.326 0 00-2.048 4.26c-.553 1.243-1.005 2.443-1.01 2.667-.001.225-.38 1.61-.84 3.077l-.835 2.667-.538 3.834-.537 3.835-.038 4.335-.04 4.334.462 2.169.464 2.167 2.03 3.89 1.367 1.12 1.367 1.12 1.625.696c.894.383 2.389.835 3.324 1.002l1.698.306 2.518-.132 2.518-.135z" fill="#393939" fill-rule="nonzero"/></svg>