<svg width="780" height="501" viewBox="0 0 780 501" xmlns="http://www.w3.org/2000/svg"><title>amex-outline</title><path d="M725 0H55C24.673 0 0 24.673 0 55v391c0 30.327 24.673 55 55 55h670c30.325 0 55-24.673 55-55V55c0-30.327-24.675-55-55-55zM339.927 390.424l-286.534.103v-.69c0-.379.457-2.838 1.015-5.465.559-2.626 1.427-6.804 1.931-9.283.502-2.48 1.362-6.693 1.909-9.364a3998.806 3998.806 0 0 0 3.989-19.592c.517-2.576 1.378-6.79 1.916-9.364a2675.22 2675.22 0 0 0 2.037-9.883c.582-2.861 1.467-7.231 1.967-9.711.5-2.48 1.294-6.303 1.765-8.495.47-2.194 1.071-5.159 1.333-6.59.263-1.43 1.114-5.644 1.891-9.363a763.876 763.876 0 0 0 1.905-9.363c.271-1.431 1.132-5.645 1.914-9.364.781-3.718 1.639-7.932 1.907-9.363.268-1.43 1.131-5.644 1.917-9.363.788-3.72 1.638-7.855 1.888-9.19.252-1.335.94-4.768 1.53-7.629.589-2.861 1.705-8.245 2.479-11.964.775-3.72 2.099-10.196 2.942-14.393.845-4.196 1.854-9.189 2.243-11.096a4295.655 4295.655 0 0 1 3.461-16.819c.574-2.767 1.507-7.292 2.074-10.058.568-2.765 1.442-7.057 1.943-9.536.501-2.48 1.356-6.615 1.9-9.19.544-2.575 1.48-7.101 2.08-10.057.6-2.957 1.605-7.482 2.233-10.057.628-2.575 1.516-5.696 1.974-6.935.457-1.241 1.72-3.927 2.806-5.973l1.975-3.717 1.795-2.352c.986-1.292 2.749-3.335 3.916-4.539 1.167-1.204 3.135-3.016 4.376-4.026 1.239-1.011 3.034-2.375 3.987-3.031.954-.656 2.827-1.805 4.162-2.553s3.209-1.727 4.162-2.176c.954-.449 2.905-1.27 4.335-1.823 1.43-.552 4.161-1.479 6.068-2.058 1.907-.58 5.488-1.454 7.957-1.941 2.469-.488 6.369-1.14 8.67-1.449l4.181-.562 286.707-.108 286.706-.111v.69c0 .379-.46 2.838-1.021 5.464a1351.1 1351.1 0 0 0-2.088 9.977c-.587 2.861-1.441 6.997-1.901 9.19a2516.71 2516.71 0 0 0-1.933 9.363c-.603 2.957-1.532 7.483-2.063 10.057-.531 2.575-1.392 6.789-1.912 9.363-.52 2.576-1.386 6.789-1.923 9.364a1624.25 1624.25 0 0 0-1.853 9.017c-.482 2.384-1.353 6.675-1.936 9.536-.584 2.861-1.521 7.387-2.083 10.057-.563 2.67-1.418 6.806-1.902 9.19-.486 2.384-1.357 6.675-1.938 9.536-.582 2.861-1.517 7.387-2.079 10.058-.562 2.67-1.399 6.727-1.861 9.016a8442.112 8442.112 0 0 1-3.874 19.074c-.47 2.288-1.307 6.346-1.861 9.015a3166.86 3166.86 0 0 0-2.108 10.231c-.606 2.957-1.471 7.169-1.923 9.364-.454 2.192-1.301 6.328-1.885 9.188a4279.12 4279.12 0 0 1-2.063 10.058c-.551 2.67-1.415 6.884-1.921 9.364-.504 2.479-1.383 6.771-1.95 9.536-.569 2.765-1.497 7.291-2.063 10.056-.566 2.766-1.414 6.902-1.885 9.191a4422 4422 0 0 0-1.912 9.363 952.651 952.651 0 0 1-2.101 10.019l-1.044 4.817-1.244 3.332c-.684 1.833-1.713 4.269-2.287 5.414-.572 1.143-1.739 3.163-2.592 4.487-.854 1.323-2.044 3.018-2.644 3.767-.6.749-2.407 2.683-4.017 4.299l-2.923 2.935-2.815 2c-1.548 1.1-3.216 2.219-3.705 2.486-.49.267-2.355 1.22-4.145 2.115-1.789.897-4.318 2.037-5.617 2.534-1.3.499-3.875 1.346-5.722 1.883-1.847.539-3.827 1.069-4.399 1.178-.573.11-2.558.52-4.414.914-1.855.393-5.6.98-8.322 1.304l-4.95.589zm273.071-8.825l4.654-.554c2.559-.304 6.08-.856 7.824-1.226 1.744-.37 3.611-.755 4.149-.859.538-.102 2.4-.601 4.136-1.107 1.736-.505 4.157-1.301 5.379-1.771 1.222-.467 3.599-1.539 5.281-2.382a202.915 202.915 0 0 0 3.897-1.988c.46-.251 2.028-1.303 3.483-2.337l2.646-1.881 2.748-2.759c1.514-1.519 3.213-3.337 3.777-4.041.564-.705 1.683-2.298 2.486-3.542.802-1.245 1.899-3.144 2.436-4.218.54-1.077 1.507-3.367 2.15-5.09l1.17-3.133.981-4.528c.54-2.491 1.43-6.73 1.976-9.419.546-2.69 1.354-6.652 1.797-8.803.443-2.152 1.24-6.04 1.772-8.64.532-2.6 1.405-6.855 1.94-9.454.533-2.6 1.359-6.635 1.833-8.965a5203.21 5203.21 0 0 1 1.806-8.804c.519-2.511 1.391-6.764 1.94-9.455.549-2.689 1.345-6.578 1.772-8.638.425-2.064 1.238-6.024 1.808-8.804.566-2.779 1.459-7.107 1.981-9.618.521-2.509 1.308-6.324 1.75-8.475.442-2.153 1.262-6.188 1.828-8.967a7221.71 7221.71 0 0 0 1.814-8.965 1265.28 1265.28 0 0 1 1.749-8.476 1669.35 1669.35 0 0 0 1.955-9.456c.546-2.69 1.365-6.724 1.822-8.965.455-2.241 1.259-6.13 1.788-8.64.528-2.51 1.409-6.765 1.958-9.455.548-2.689 1.367-6.724 1.821-8.965.453-2.241 1.235-6.056 1.742-8.477.504-2.421 1.319-6.381 1.807-8.803.489-2.42 1.299-6.382 1.798-8.803.499-2.42 1.372-6.675 1.939-9.454.568-2.78 1.386-6.74 1.818-8.803.432-2.062 1.235-5.95 1.787-8.64.551-2.689 1.434-6.911 1.963-9.379.527-2.469.96-4.781.96-5.137v-.649l-269.54.105-269.54.101-3.931.528c-2.163.291-5.83.904-8.151 1.363-2.321.458-5.688 1.279-7.481 1.824-1.792.545-4.36 1.416-5.704 1.935-1.345.52-3.179 1.292-4.076 1.714-.896.422-2.657 1.343-3.912 2.046-1.256.703-3.016 1.783-3.913 2.4-.896.617-2.584 1.899-3.749 2.849-1.166.95-3.016 2.653-4.114 3.785-1.097 1.132-2.754 3.053-3.681 4.268l-1.688 2.211-1.856 3.494c-1.021 1.924-2.209 4.449-2.638 5.616-.431 1.164-1.266 4.099-1.856 6.519a299.989 299.989 0 0 0-2.099 9.455c-.565 2.779-1.444 7.034-1.956 9.455a1226.4 1226.4 0 0 0-1.786 8.64c-.471 2.33-1.293 6.365-1.827 8.965-.533 2.6-1.41 6.854-1.95 9.456-.539 2.599-1.342 6.487-1.785 8.638-.443 2.152-1.104 5.381-1.468 7.174-.366 1.792-1.315 6.486-2.109 10.431a2334.239 2334.239 0 0 1-2.766 13.531c-.728 3.497-1.777 8.558-2.331 11.248a607.159 607.159 0 0 0-1.438 7.172c-.235 1.255-1.034 5.143-1.775 8.64-.739 3.496-1.55 7.458-1.802 8.802-.252 1.346-1.059 5.307-1.793 8.803-.735 3.496-1.545 7.458-1.799 8.803a733.31 733.31 0 0 1-1.791 8.803c-.731 3.496-1.531 7.458-1.778 8.802a264.437 264.437 0 0 1-1.253 6.195 799.417 799.417 0 0 0-1.66 7.987c-.47 2.331-1.302 6.44-1.849 9.129-.548 2.69-1.41 6.871-1.915 9.292-.506 2.419-1.315 6.381-1.801 8.803a3891.522 3891.522 0 0 1-3.75 18.419c-.514 2.511-1.323 6.472-1.795 8.803-.474 2.331-1.29 6.259-1.815 8.727-.525 2.47-.955 4.782-.955 5.138v.649l269.378-.097zm-499.264-97.542v-.563c0-.311.402-2.534.893-4.942.492-2.408 1.028-5.159 1.194-6.113.164-.953.683-3.606 1.153-5.894a879.45 879.45 0 0 0 1.945-9.884c.6-3.147 1.459-7.673 1.91-10.057a1484.38 1484.38 0 0 0 1.887-10.231 732.966 732.966 0 0 0 2.116-12.484l1.903-11.964c.471-2.956 1.335-8.34 1.92-11.964a1555.56 1555.56 0 0 0 1.407-8.843c.188-1.24.587-3.619.887-5.288l.543-3.035h16.995l-.21.55c-.117.302-.526 2.331-.909 4.508-.384 2.177-.936 5.09-1.227 6.472a88.437 88.437 0 0 0-.868 4.943c-.187 1.335-.735 4.534-1.22 7.108a687.472 687.472 0 0 1-1.55 7.977 274.11 274.11 0 0 0-1.179 6.229c-.28 1.614-.477 2.961-.438 2.995.04.032 4.812.173 10.605.31l10.532.25 12.576-.254 12.575-.255.578-3.857a820.15 820.15 0 0 1 1.614-10.099c.57-3.434 1.414-8.349 1.876-10.925.462-2.575 1.148-6.475 1.527-8.669.378-2.193.792-4.73.919-5.635l.233-1.648h17.133l-.584 2.514c-.321 1.384-1.068 5.168-1.66 8.41-.592 3.242-1.47 8.08-1.952 10.75-.482 2.671-1.349 7.431-1.929 10.577a2951.08 2951.08 0 0 1-2.071 11.098 744.485 744.485 0 0 0-1.88 10.404 2204.98 2204.98 0 0 0-1.926 11.443c-.584 3.529-1.52 9.069-2.078 12.311a3919.04 3919.04 0 0 0-1.719 10.057 290.678 290.678 0 0 0-1.066 6.763c-.2 1.43-.53 3.576-.737 4.768l-.374 2.167h-16.921l-.004-.433c-.002-.239.548-3.477 1.221-7.196.674-3.72 1.6-8.713 2.058-11.097a1624.04 1624.04 0 0 0 1.914-10.23c.597-3.243 1.547-8.393 2.112-11.445.565-3.052 1.204-6.449 1.419-7.551l.394-2.002-.252-.252-.252-.251h-45.313l-.195.194c-.106.107-.571 2.291-1.032 4.856-.46 2.563-1.238 7.001-1.727 9.862-.489 2.86-1.371 8.088-1.959 11.617l-1.907 11.444c-.461 2.765-1.111 6.706-1.443 8.757l-.605 3.727zm116.793 32.252l.189-.781c.105-.428.653-3.121 1.221-5.982.567-2.861 1.5-7.699 2.074-10.75.574-3.052 1.53-8.201 2.124-11.445.594-3.242 1.456-7.923 1.913-10.402.458-2.48 1.305-7.084 1.884-10.231.579-3.147 1.516-8.454 2.083-11.791a5980.603 5980.603 0 0 0 3.816-22.714c.57-3.434 1.538-9.402 2.152-13.265l1.114-7.023h12.716l-.014.433c-.008.24-.3 1.805-.651 3.48l-.636 3.047.911-.597c.5-.326 1.123-.807 1.382-1.066.26-.259 1.289-.992 2.286-1.63.996-.638 2.86-1.645 4.14-2.236l2.329-1.079 2.68-.683 2.679-.685 3.285-.377 3.283-.377 2.947.216 2.948.216 2.948.705 2.948.707 5.354 2.766 2.262 2.399 2.263 2.399 1.171 2.337 1.172 2.336.723 3.121.724 3.122.229 3.121.23 3.121-.397 3.677a108.011 108.011 0 0 1-1.093 7.283l-.695 3.604-1.344 4.162c-.74 2.289-2.008 5.722-2.821 7.629-.812 1.907-1.918 4.121-2.459 4.918-.541.798-.984 1.537-.984 1.644 0 .106-.737 1.17-1.639 2.364-.9 1.195-2.656 3.191-3.901 4.433l-2.263 2.263-2.428 1.581c-1.335.87-3.363 2.009-4.508 2.532l-2.08.948-3.877 1.004-3.876 1.003-3.58.22-3.579.219-2.821-.365-2.82-.366-2.367-.947-2.366-.948-1.923-1.936-1.922-1.938-.866-1.638c-.477-.902-.959-1.639-1.071-1.639-.113 0-.392 1.365-.621 3.034a569.19 569.19 0 0 1-1.265 8.41c-.466 2.956-1.306 8.262-1.867 11.791-.562 3.528-1.266 8.007-1.566 9.955-.301 1.946-.547 4-.547 4.566 0 .565-.094 1.274-.211 1.576l-.21.549zm105.352-30.913c-1.321-.17-3.681-.618-5.244-.995l-2.843-.688-2.039-.928c-1.121-.51-2.819-1.509-3.772-2.219-.954-.709-2.378-1.97-3.164-2.801-.786-.831-1.83-2.213-2.318-3.071-.488-.858-1.206-2.419-1.593-3.468-.387-1.048-.942-2.922-1.231-4.161l-.527-2.255-.005-5.16-.006-5.16.553-3.51c.305-1.93.922-5.069 1.373-6.976.45-1.908 1.219-4.639 1.709-6.07.489-1.43 1.218-3.381 1.618-4.334.401-.954 1.282-2.826 1.958-4.162.677-1.335 1.863-3.363 2.637-4.508.773-1.145 2.191-2.863 3.149-3.821.957-.957 2.443-2.309 3.303-3.005.858-.695 2.574-1.839 3.814-2.542 1.239-.703 3.424-1.747 4.854-2.318l2.602-1.039 4.161-.8 4.162-.799 3.468-.225 3.467-.226 3.734.357 3.732.357 3.03.729 3.029.73 1.734.922c.954.507 2.291 1.316 2.973 1.797.681.481 1.71 1.419 2.286 2.084.576.666 1.457 1.916 1.955 2.778l.909 1.568.55 2.368.549 2.369-.011 3.173-.011 3.172-.506 3.772c-.278 2.074-.768 4.883-1.089 6.242l-.582 2.47-19.29-.123-19.291-.125-10.436.488-.596 3.869-.594 3.867.005 4.337.004 4.336.67 2.343.67 2.342 1.069 1.869 1.069 1.867 2.74 2.476 1.659.821c.913.453 2.596 1.121 3.74 1.486l2.081.664 6.069-.01 6.069-.013 3.818-.739 3.818-.741 3.638-1.198c2-.659 4.221-1.481 4.934-1.825l1.296-.625.186.186.188.186-.847 4.125c-.466 2.268-.942 4.826-1.058 5.685l-.212 1.564-4.239.933c-2.332.512-5.956 1.174-8.055 1.469-2.097.296-5.53.695-7.629.886l-3.814.348-3.815-.044c-2.098-.023-4.895-.182-6.215-.351zm173.543.225l-4.682.134-2.042-.322c-1.124-.178-3.111-.626-4.417-.995l-2.375-.671-2.074-1.26-2.073-1.26-1.168-1.364c-.641-.75-1.59-2.141-2.107-3.089l-.938-1.725-.507-2.645-.505-2.646v-6.355l.53-3.029.53-3.028 1.154-2.693c.634-1.482 1.681-3.474 2.325-4.427.644-.954 2.109-2.671 3.257-3.816l2.085-2.082 2.648-1.645c1.457-.907 2.793-1.647 2.969-1.647.177 0 .971-.314 1.765-.698.794-.383 3.281-1.201 5.527-1.817l4.083-1.12 12.478-.044 12.478-.045.598-2.907.597-2.906.017-2.649.016-2.648-1.128-1.679-1.127-1.68-2.013-.994-2.012-.993-6.032-1.058-4.682.194-4.681.192-5.201.886c-2.862.488-6.67 1.28-8.462 1.763-1.792.482-3.309.827-3.37.765-.062-.062.332-1.82.877-3.908.543-2.089 1.174-4.694 1.401-5.79l.413-1.995 5.672-.022 4.162-.504c2.289-.279 6.761-.667 9.941-.863l5.779-.358 4.487.341 4.486.341 6.518 1.45 2.187 1.109 2.185 1.107 1.333 1.279 1.331 1.278.983 2.008.981 2.007-.03 4.344-.032 4.343-.932 5.028c-.511 2.766-1.378 7.525-1.925 10.577-.548 3.053-1.393 7.89-1.879 10.751a515.117 515.117 0 0 0-1.794 11.617l-.908 6.416-.194 4.942-.195 4.941h-12.729l.006-2.167c.004-1.192.228-3.725.497-5.63.27-1.904.446-3.507.389-3.563-.056-.057-.724.721-1.484 1.728-.76 1.006-2.147 2.588-3.082 3.516-.935.927-2.56 2.259-3.609 2.96-1.049.701-2.765 1.68-3.814 2.175l-1.908.901-2.948.755-2.948.754-4.681.135zm-57.041.128c-2.1-.023-4.731-.176-5.848-.339-1.117-.163-3.224-.628-4.681-1.032l-2.651-.737-2.019-1.066-2.017-1.068-1.909-1.877-1.907-1.878-1.199-1.875-1.201-1.875-1.038-2.594-1.039-2.594-.654-5.044-.004-4.334-.003-4.335.324-3.295.325-3.294.895-3.642c.491-2.003 1.464-5.28 2.16-7.283l1.267-3.64 1.652-3.364c.909-1.851 2.319-4.341 3.134-5.536l1.484-2.172 2.655-2.614c1.462-1.438 3.098-2.926 3.638-3.308a63.433 63.433 0 0 1 2.745-1.77c.971-.592 2.77-1.479 3.998-1.97l2.234-.893 3.467-.729 3.469-.728 4.681-.36 4.682-.359 6.639.381c3.651.211 7.925.529 9.498.708 1.572.179 2.927.394 3.01.478.085.083-.079 1.453-.364 3.045-.284 1.59-.714 4.179-.956 5.752-.242 1.574-.484 2.862-.537 2.862-.055 0-.924-.309-1.932-.685l-1.833-.684-4.509-.901-4.508-.903-3.815-.191-3.814-.192-2.601.406c-1.43.222-3.61.715-4.843 1.095l-2.242.691-1.747 1.083-1.745 1.082-3.298 3.418-1.342 2.311c-.738 1.272-1.854 3.483-2.479 4.913-.626 1.431-1.261 3.069-1.414 3.642-.151.572-.6 2.132-.997 3.467l-.72 2.428-.682 4.509-.681 4.508-.003 3.721-.004 3.72.56 2.868.562 2.869 1.176 2.143 1.178 2.144 1.774 1.553 1.774 1.551 4.594 1.594 4.043.138 4.042.137 4.756-.921 4.755-.921 3.339-1.24c1.837-.682 3.538-1.398 3.782-1.592.243-.192.498-.289.568-.214.069.075-.029 1.072-.217 2.217a234.217 234.217 0 0 1-.981 5.336c-.351 1.791-.763 3.365-.918 3.498-.155.132-1.478.579-2.94.993a80.377 80.377 0 0 1-5.375 1.276c-1.495.291-4.667.758-7.05 1.041l-4.332.513-3.817-.042zm-69.886-1.692v-.305c0-.167.22-1.376.491-2.686.269-1.312.968-4.802 1.552-7.759a2423.609 2423.609 0 0 0 4.005-20.808c.485-2.574 1.345-7.49 1.911-10.923.566-3.433 1.426-8.739 1.91-11.791.484-3.052 1.271-7.942 1.748-10.869.476-2.926.867-5.695.867-6.155v-.836h13.225l-.185.608c-.1.332-.511 2.479-.909 4.768-.398 2.288-.86 4.785-1.026 5.549l-.301 1.386.496-.693a496.58 496.58 0 0 1 2.281-3.121c.981-1.335 2.545-3.174 3.476-4.086.929-.911 2.534-2.197 3.565-2.858 1.032-.66 2.705-1.504 3.719-1.876 1.013-.373 2.856-.857 4.096-1.076l2.254-.399 1.734.214c.953.119 2.865.559 4.248.979 1.383.42 2.514.863 2.514.984s-.391 2.135-.867 4.476c-.477 2.342-.867 4.626-.867 5.076 0 .451-.093.819-.207.819-.114 0-1.089-.264-2.167-.586l-1.961-.585-3.987-.021-3.989-.022-2.609 1.247-2.609 1.246-2.116 1.958-2.115 1.96-1.581 2.344c-.87 1.289-2.138 3.553-2.818 5.032-.68 1.479-1.237 2.903-1.237 3.165 0 .261-.232 1.133-.517 1.939-.284.805-1.125 4.531-1.871 8.279a463.4 463.4 0 0 0-2.418 13.406c-.585 3.623-1.384 8.65-1.774 11.171-.39 2.521-.808 5.994-.931 7.716l-.222 3.133zm175.592 0l.64-3.207 1.673-8.409c.568-2.861 1.494-7.621 2.058-10.578.564-2.956 1.419-7.482 1.9-10.056a675.555 675.555 0 0 0 1.915-10.924c.572-3.434 1.504-9.13 2.073-12.658.567-3.529 1.353-8.54 1.744-11.137.391-2.596.711-4.82.711-4.941v-.222h12.831l-.015.781c-.008.429-.46 3.043-1.003 5.809-.543 2.765-.942 5.078-.886 5.138.056.061.702-.797 1.435-1.907l1.334-2.018 2.483-2.6 2.484-2.601 1.909-1.152 1.91-1.152 2.544-.894 2.544-.896 3.121-.007 3.121-.009 1.734.547c.954.3 2.144.706 2.645.902l.912.357-.811 3.926c-.446 2.16-.817 4.424-.824 5.033l-.016 1.106-.287.178-.288.178-1.706-.548-1.707-.547-4.335-.031-4.334-.03-1.992.965c-1.096.531-2.921 1.662-4.055 2.516l-2.063 1.551-1.885 2.504-1.886 2.505-1.429 3.023c-.785 1.662-1.43 3.22-1.434 3.462-.003.242-.251 1.143-.552 2.001-.301.859-1.014 3.745-1.587 6.416-.571 2.67-1.247 6.181-1.503 7.802-.255 1.622-.862 5.367-1.35 8.324-.488 2.955-1.279 7.961-1.76 11.12l-.872 5.746v4.634zm-285.109-8.017l5.886-2.002 1.271-.949a54.525 54.525 0 0 0 2.484-1.992c.668-.572 1.791-1.847 2.495-2.829.704-.983 1.931-3.021 2.727-4.53l1.448-2.742 1.181-3.388c.65-1.863 1.582-5.14 2.072-7.282l.89-3.895.178-6.589.178-6.59-.581-2.229c-.319-1.226-.946-2.949-1.393-3.83l-.81-1.601-1.505-1.512-1.504-1.512-1.793-.826-1.794-.826-2.541-.541-2.542-.542-6.242.366-2.428.752-2.427.751-1.86 1.056c-1.024.58-2.756 1.8-3.85 2.709l-1.988 1.654-.907 4.8c-.499 2.639-1.389 7.531-1.976 10.869a939.758 939.758 0 0 1-1.96 10.75l-.893 4.682-.178 2.988-.177 2.989.442 1.866c.243 1.027.79 2.647 1.217 3.601l.775 1.734 1.343 1.281 1.342 1.283 1.923.878 1.922.877 1.893.334 1.892.335zm-64.998 8.017l.209-.78c.116-.429.513-2.262.884-4.075.37-1.812 1.145-5.713 1.723-8.67.578-2.956 1.447-7.481 1.931-10.057.485-2.575 1.335-7.1 1.89-10.056a515.563 515.563 0 0 0 1.9-10.925c.491-3.05 1.365-8.435 1.942-11.964.578-3.527 1.334-8.443 1.678-10.923l.63-4.509 15.086-.186-.189.305c-.103.167-.743 3.095-1.422 6.508-.679 3.413-1.631 8.312-2.114 10.887a2547.51 2547.51 0 0 1-1.884 9.882 579.677 579.677 0 0 0-1.859 10.231 3085.913 3085.913 0 0 0-4.024 24.337c-.572 3.563-1.042 7.023-1.042 7.689 0 .664-.094 1.455-.211 1.758l-.21.548zm308.548-8.278l2.812-.889 2.813-.89 1.278-.866c.703-.477 1.404-.868 1.557-.868.154 0 1.217-.927 2.36-2.059l2.079-2.061 1.266-2.127c.697-1.169 1.267-2.22 1.267-2.337 0-.116.461-1.392 1.024-2.836.563-1.443 1.421-4.106 1.907-5.919.487-1.812 1.092-4.519 1.346-6.015l.461-2.722-.548-.226-.548-.227h-17.34l-2.775.659-2.774.66-2.232 1.074-2.232 1.075-2.102 2.088-2.103 2.087-1.098 2.267c-.604 1.246-1.363 3.177-1.686 4.289l-.588 2.022.147 3.334.145 3.333.743 1.428c.409.785 1.129 1.885 1.6 2.446l.858 1.019 1.569.807c.864.444 2.398 1.018 3.408 1.275l1.837.469 2.775-.146zm-150.446-38.885l.366-3.382.367-3.381-.321-2.032-.32-2.032-.484-.916c-.267-.503-.963-1.43-1.546-2.059l-1.062-1.145-1.936-.886-1.935-.886-2.662-.342-2.664-.343-3.469.223c-1.907.121-4.091.381-4.855.577-.762.196-2.401.842-3.64 1.435l-2.255 1.077-2.294 2.283-2.293 2.281-1.045 2.077c-.573 1.142-1.453 3.216-1.953 4.61-.501 1.395-.911 2.605-.911 2.688 0 .085 7.855.153 17.455.153zm-138.081-37.469l-1.453-.659-1.454-.66-.754-1.476-.752-1.477.152-2.971.153-2.971.809-1.907.81-1.907 1.03-1.105 1.03-1.104 1.775-.794 1.775-.795h5.214l1.208.748 1.207.747.694 1.151.693 1.152-.028 2.946-.027 2.948-.781 2.002-.779 2.003-1.482 1.502-1.481 1.503-1.675.57-1.674.57-2.104-.007zm393.188 85.998c-1.183-.153-3.134-.549-4.335-.878-1.202-.329-3.121-1.064-4.266-1.631l-2.081-1.034-1.524-1.249-1.524-1.248-1.336-1.808-1.335-1.806-.732-1.839a49.363 49.363 0 0 1-1.197-3.398l-.463-1.56-.394-4.335-.392-4.335.523-5.386.523-5.388 1.061-4.15c.585-2.282 1.475-5.241 1.981-6.577.505-1.335 1.767-4.192 2.803-6.35l1.886-3.922 1.604-2.296c.884-1.263 2.549-3.308 3.702-4.544l2.097-2.249 2.427-1.797 2.427-1.796 3.296-1.607 3.294-1.607 3.468-.876 3.468-.877 3.814-.356 3.815-.355 4.509.351 4.508.351 3.294.827c1.811.455 3.558.94 3.88 1.077l.585.249.186-1.156c.101-.636.649-3.966 1.219-7.399.57-3.433 1.506-9.207 2.08-12.83.573-3.625 1.142-7.565 1.262-8.757l.219-2.168h14.844v.261c.001.142-.376 2.055-.838 4.247a736.738 736.738 0 0 0-1.906 9.538c-.587 3.051-1.471 7.733-1.964 10.403-.493 2.67-1.347 7.274-1.895 10.231-.549 2.956-1.468 7.949-2.041 11.097-.574 3.146-1.432 7.985-1.908 10.75a1828.64 1828.64 0 0 1-1.604 9.19 444.303 444.303 0 0 0-1.58 9.71c-.46 3.052-1.303 9.527-1.873 14.391l-1.036 8.844v4.681h-13.606l.23-2.34c.126-1.288.365-3.121.533-4.075.169-.954.384-2.515.48-3.468l.175-1.735-.201.521c-.111.287-1.049 1.652-2.086 3.035l-1.886 2.513-1.789 1.576-1.79 1.576-2.082 1.066c-1.143.586-2.861 1.286-3.814 1.556-.954.27-3.138.719-4.855.997l-3.122.507-3.294-.042c-1.813-.022-4.262-.167-5.444-.321zm13.976-9.656l5.514-1.75 1.907-1.268c1.049-.697 2.429-1.753 3.068-2.349.638-.594 1.648-1.784 2.246-2.642.598-.858 1.517-2.466 2.042-3.573.525-1.106 1.179-2.824 1.454-3.815.275-.991.811-2.972 1.19-4.403.38-1.43 1.093-4.707 1.585-7.282.493-2.574 1.355-7.178 1.916-10.23.561-3.052 1.347-7.422 1.745-9.711.398-2.288.811-4.589.916-5.113l.191-.952-.981-.381c-.539-.21-2.463-.793-4.276-1.295l-3.294-.915h-5.722l-5.722.003-2.726.944-2.727.944-1.552.955c-.855.525-2.292 1.669-3.196 2.539-.904.872-2.273 2.433-3.042 3.469-.767 1.036-1.885 2.819-2.483 3.964a93.94 93.94 0 0 0-2.13 4.431c-.575 1.292-1.045 2.54-1.049 2.773-.002.234-.396 1.674-.874 3.2l-.869 2.774-.559 3.987-.559 3.989-.04 4.508-.041 4.508.48 2.255.483 2.254 2.112 4.046 1.421 1.164 1.422 1.166 1.689.723c.93.398 2.485.868 3.457 1.042l1.766.318 2.619-.137z" fill="#393939"/></svg>