<svg width="750" height="471" viewBox="0 0 750 471" xmlns="http://www.w3.org/2000/svg"><path d="M0 40.005C0 17.91 17.914 0 39.992 0h670.016C732.095 0 750 17.906 750 40.005v390.99C750 453.09 732.086 471 710.008 471H39.992C17.905 471 0 453.094 0 430.995V40.005zm179.18 218.944s-.272-89.502.031-130.713c4.054-24.09 28.713-42.12 52.865-39.92h67.31c-.078 81.943-.068 163.887-.203 245.827-.746 24.243-21.883 45.468-46.18 46.074-24.596.072-49.196.01-73.794.031V277.886c18.265 3.348 36.627 6.953 55.314 5.863 17.923-.932 39.538-3.676 49.802-20.443 7.597-12.385 4.192-27.162 4.823-40.86l-.233-35.03-41.557.233c-.2 20.378.411 40.8-.326 61.149-1.597 13.533-16.079 20.483-28.516 19.233-14.384-.132-27.187-5.502-39.335-9.082zm135.67-56.393c.154-23.04-.316-46.105.253-69.131 1.684-21.943 20.124-40.413 41.802-43.092 21.8-.718 43.672-.113 65.5-.313h12.702c-.056 82.335.113 164.676-.085 247.007-1.573 25.578-26.249 47.054-51.823 44.624h-68.348V269.61c17.82 14.075 41.894 16.19 63.857 15.908a178.015 178.015 0 0042.703-6.357l-.302-20.31c-19.64 9.454-43.983 16.134-64.471 5.376-16.277-9.316-18.188-32.77-9.488-47.863 10.747-15.656 32.454-16.122 49.354-12.811 8.292.738 19.431 8.157 24.907 7.99v-18.596c-28.346-7.167-58.717-9.486-87.115-1.371-7.06 2.414-13.973 5.83-19.445 10.982zm134.06 78.624v98.955c25.41-.06 50.832.121 76.233-.09 24.156-2.168 45.134-24.233 43.883-48.837v-242.9c-25.065.092-50.14-.185-75.2.14-25.202 1.522-46.625 25.057-44.916 50.401v48.771c25.227.114 50.472-.229 75.688.174 13.252.326 27.386 10.705 24.984 25.248-1.007 11.128-11.594 18.429-21.997 19.64 13 1.038 28.168 9.43 27.911 24.15.341 15.873-16.81 24.888-30.897 24.348H448.91zm24.059-77.921v23.785h25.973s12.17-.035 12.17-11.91-12.17-11.875-12.17-11.875h-25.973zm27.78 37.755h-27.78v25.555h27.78c.08 0 13.697.792 13.697-12.778s-13.696-12.777-13.696-12.777z" fill="#393939" fill-rule="evenodd"/></svg>