<svg xmlns="http://www.w3.org/2000/svg" width="750" height="471" viewBox="0 0 750 471"><title>jcb</title><g fill="none" fill-rule="evenodd"><rect width="750" height="471" rx="40" fill="#393939"/><g fill="#FFF"><path d="M179.18 258.95s-.272-89.503.03-130.714c4.055-24.09 28.714-42.12 52.866-39.92h67.31c-.078 81.943-.068 163.887-.203 245.827-.746 24.243-21.883 45.468-46.18 46.074-24.596.072-49.196.01-73.794.03v-102.36c18.264 3.347 36.626 6.952 55.313 5.862 17.923-.933 39.538-3.677 49.802-20.444 7.597-12.385 4.192-27.162 4.823-40.86l-.233-35.03-41.557.233c-.2 20.377.41 40.8-.326 61.148-1.597 13.533-16.08 20.483-28.516 19.233-14.384-.13-27.187-5.5-39.335-9.08zM314.85 202.556c.154-23.04-.316-46.105.253-69.13 1.684-21.944 20.124-40.414 41.802-43.093 21.8-.718 43.672-.113 65.5-.313h12.702c-.056 82.335.113 164.676-.085 247.007-1.573 25.578-26.25 47.054-51.823 44.624h-68.35V269.61c17.82 14.074 41.895 16.19 63.858 15.907 14.42-.375 28.798-2.518 42.703-6.357l-.3-20.31c-19.64 9.454-43.984 16.134-64.472 5.376-16.277-9.316-18.188-32.77-9.488-47.863 10.747-15.656 32.454-16.122 49.354-12.81 8.292.737 19.43 8.156 24.907 7.99v-18.597c-28.344-7.167-58.716-9.486-87.114-1.37-7.06 2.413-13.973 5.828-19.445 10.98zM448.91 281.18v98.955c25.41-.06 50.832.12 76.233-.09 24.156-2.168 45.134-24.233 43.883-48.837v-242.9c-25.065.092-50.14-.185-75.2.14-25.202 1.522-46.625 25.057-44.916 50.4v48.772c25.227.114 50.472-.23 75.688.174 13.252.326 27.386 10.705 24.984 25.248-1.007 11.128-11.594 18.43-21.997 19.64 13 1.038 28.168 9.43 27.91 24.15.342 15.873-16.81 24.888-30.896 24.348h-75.69z"/><path d="M472.97 203.26v23.784h25.972s12.17-.035 12.17-11.91-12.17-11.875-12.17-11.875H472.97zM500.75 241.014h-27.78v25.555h27.78c.08 0 13.696.79 13.696-12.78s-13.696-12.776-13.696-12.776z"/></g></g></svg>