<svg xmlns="http://www.w3.org/2000/svg" width="750" height="471" viewBox="0 0 750 471"><path d="M0 40.005C0 17.91 17.914 0 39.992 0h670.016C732.095 0 750 17.906 750 40.005v390.99C750 453.09 732.086 471 710.008 471H39.992C17.905 471 0 453.094 0 430.995zm703.578 195.043c0 112.425-91.513 203.896-204.045 203.896-46.9 0-90.171-15.878-124.68-42.594-34.515 26.716-77.763 42.594-124.682 42.594-112.495 0-204.006-91.471-204.006-203.896 0-112.396 91.51-203.853 204.006-203.853 46.92 0 90.167 15.917 124.681 42.606 34.51-26.689 77.78-42.606 124.68-42.606 112.533 0 204.046 91.457 204.046 203.853zM499.533 49.453c-41.38 0-79.58 13.55-110.483 36.41 30.173 28.035 51.804 65.075 60.688 106.746h-18.7c-8.72-37.283-28.725-70.253-56.186-95.108-27.442 24.855-47.439 57.825-56.168 95.108h-18.69c8.875-41.671 30.515-78.711 60.664-106.746-30.862-22.86-69.097-36.41-110.487-36.41-102.564 0-185.734 83.08-185.734 185.595 0 102.513 83.17 185.654 185.734 185.654 41.39 0 79.625-13.56 110.487-36.42-26.346-24.53-46.201-55.863-56.729-91.266h19.115c10.167 30.942 28.25 58.265 51.808 79.638 23.612-21.373 41.66-48.696 51.826-79.638h19.111c-10.491 35.403-30.378 66.735-56.739 91.266 30.904 22.86 69.102 36.42 110.483 36.42 102.593 0 185.751-83.141 185.751-185.654 0-102.514-83.158-185.595-185.751-185.595zM371.154 278.56c-7.546 1.939-14.856 2.892-22.562 2.892-24.57 0-37.404-11.197-37.404-32.632 0-24.98 16.298-43.372 38.459-43.372 18.092 0 29.656 10.328 29.656 26.465 0 5.332-.776 10.547-2.702 17.964h-43.718c-1.58 10.446 6.062 15.044 19.078 15.044 7.793 0 14.82-1.385 22.617-4.539l-3.424 18.178zm-11.778-43.412c0-1.617 2.424-12.824-10.213-13.08-6.98 0-11.998 4.661-14.039 13.08h24.252zm31.245-4.935c0 9.24 5.21 15.645 17.047 20.364 9.03 3.71 10.455 4.776 10.455 8.094 0 4.625-3.972 6.7-12.852 6.662-6.665-.041-12.755-.86-19.91-2.852l-3.204 16.813c6.378 1.49 15.344 1.996 23.297 2.158 23.59 0 34.464-7.731 34.464-24.429 0-10.024-4.524-15.941-15.764-20.348-9.355-3.725-10.432-4.57-10.432-7.948 0-3.98 3.707-5.999 10.961-5.999 4.383 0 10.387.41 16.093 1.112l3.178-16.97c-5.785-.77-14.61-1.422-19.7-1.422-25.041 0-33.71 11.246-33.633 24.765zm-94.207 50.062H278.05l.45-7.698c-5.593 6.023-13.027 8.875-23.164 8.875-11.96 0-20.18-8.185-20.18-19.93 0-17.874 14.272-28.185 38.78-28.185 2.506 0 5.737.154 9.015.53.673-2.415.854-3.431.854-4.734 0-4.895-3.837-6.69-14.177-6.69-10.157.043-17.012 1.549-23.37 3.258l3.128-16.399c11.013-2.776 18.225-3.854 26.364-3.854 18.975 0 29.02 7.408 29.02 21.395.15 3.716-1.151 11.228-1.804 14.476-.754 4.783-6 32.402-6.552 38.956zm-16.102-32.626c-2.312-.258-3.339-.33-4.94-.33-12.528 0-18.845 3.698-18.845 11.067 0 4.665 3.087 7.517 7.917 7.517 8.971 0 15.483-7.517 15.868-18.254zm203.9 15.323c-1.526.523-3.443.73-5.95.73-5.218 0-7.5-1.632-7.5-5.417 0-2.362 6.177-33.347 6.177-33.347h11.267l3.013-17.823h-11.203l3.337-17.477h-21.84s-9.78 52.822-10.387 56.464c-.612 3.623-3.388 16.624-3.013 19.39 0 10.221 6.131 15.96 17.398 15.96 5.045 0 9.757-.668 15.765-2.322l2.935-16.158zm104.61-40.12c-11.062 0-17.95 13.09-17.95 24.672 0 9.784 4.688 16.298 12.49 16.196 10.697 0 17.463-9.79 17.463-26.268 0-7.494-3.06-14.6-12.003-14.6zm-7.295 58.6c-24.603 0-34.528-14.943-34.528-33.202 0-25.521 16.805-42.802 42.819-42.802 22.598 0 34.596 14.23 34.596 32.489 0 30.286-18.01 43.515-42.887 43.515zm-76.005-74.388c-2.77 22.64-7.706 45.593-11.532 68.238l-.94 4.973h22.083c7.948-43.801 10.6-56.283 27.26-51.874.858-2.35 8.025-20.705 8.025-20.705-11.61-4.273-19.106 1.843-25.872 10.463.608-3.919 1.758-7.665 1.47-11.095h-20.494zm-267.196-16.226h-35.724l-24.16 55.344-1.814-55.344h-34.316l-16.982 89.437h19.936l13.098-68.342 3.646 68.342h20.035l30.06-68.761-13.057 68.761h21.962l17.316-89.437z" fill="#393939" fill-rule="evenodd"/></svg>