<svg xmlns="http://www.w3.org/2000/svg" width="750" height="471"><path d="M0 40.005C0 17.91 17.914 0 39.992 0h670.016C732.095 0 750 17.906 750 40.005v390.99C750 453.09 732.086 471 710.008 471H39.992C17.905 471 0 453.094 0 430.995zM703.975 235.48c0 112.363-91.606 203.806-204.198 203.806-46.96 0-90.253-15.942-124.79-42.602-34.516 26.66-77.808 42.602-124.771 42.602-112.589 0-204.19-91.443-204.19-203.806 0-112.366 91.601-203.766 204.19-203.766 46.963 0 90.255 15.882 124.77 42.581 34.538-26.699 77.83-42.581 124.791-42.581 112.592 0 204.198 91.4 204.198 203.766zM499.777 49.936c-41.419 0-79.657 13.543-110.55 36.397 28.019 26.024 48.74 59.818 58.64 97.903h-18.924c-9.696-33.67-28.649-63.397-53.957-86.275-25.28 22.878-44.247 52.604-53.906 86.275h-18.953c9.924-38.085 30.645-71.879 58.663-97.903-30.91-22.854-69.135-36.397-110.574-36.397-102.668 0-185.896 83.06-185.896 185.544 0 102.459 83.228 185.545 185.896 185.545 41.44 0 79.664-13.543 110.574-36.396-26.364-24.505-46.253-55.9-56.767-91.239h19.136c10.166 30.944 28.214 58.256 51.827 79.607 23.64-21.351 41.711-48.663 51.878-79.607h19.13c-10.531 35.34-30.416 66.734-56.766 91.239 30.892 22.853 69.13 36.396 110.55 36.396 102.667 0 185.897-83.086 185.897-185.545 0-102.484-83.23-185.544-185.898-185.544zM174.974 191.254h-29.767l-18.603 55.349-.775-55.349H98.243L83.27 280.681h17.951l11.53-68.321 1.61 68.321h13.08l24.51-68.73-10.982 68.73h19.172l14.834-89.427zm35.655 57.018c-2.017-.206-2.895-.285-4.28-.285-10.88 0-16.362 3.717-16.362 11.04 0 4.536 2.69 7.422 6.847 7.422 7.825 0 13.447-7.422 13.795-18.177zm13.934 32.41H208.67l.37-7.544c-4.852 5.958-11.31 8.808-20.088 8.808-10.413 0-17.502-8.114-17.502-19.849 0-17.732 12.365-28.04 33.636-28.04 2.18 0 4.97.203 7.823.568.592-2.42.735-3.436.735-4.738 0-4.798-3.323-6.608-12.288-6.608-9.37-.123-17.113 2.217-20.292 3.274.206-1.22 2.67-16.349 2.67-16.349 9.537-2.805 15.85-3.863 22.94-3.863 16.464 0 25.184 7.36 25.164 21.31.02 3.741-.592 8.357-1.549 14.44-1.67 10.509-5.237 33.08-5.727 38.59zm250.445-91.624c-25.409 0-43.178 22.326-43.178 54.294 0 23.747 12.862 38.594 33.5 38.594 5.296 0 9.88-.695 16.93-2.645l3.362-20.356c-6.337 3.113-11.55 4.595-16.284 4.595-11.144 0-17.87-8.215-17.87-21.78 0-19.701 10.011-33.51 24.33-33.51 5.319 0 10.29 1.384 17.135 4.842l3.139-19.398c-2.81-1.097-12.693-4.636-21.064-4.636zm55.254 59.214c-1.996-.206-2.892-.285-4.3-.285-10.86 0-16.361 3.717-16.361 11.04 0 4.536 2.691 7.422 6.89 7.422 7.804 0 13.447-7.422 13.771-18.177zm13.936 32.41h-15.869l.366-7.544c-4.87 5.958-11.35 8.808-20.113 8.808-10.39 0-17.523-8.114-17.523-19.849 0-17.732 12.41-28.04 33.66-28.04 2.18 0 4.972.203 7.828.568.585-2.42.73-3.436.73-4.738 0-4.798-3.32-6.608-12.267-6.608-9.39-.123-17.111 2.217-20.292 3.274.183-1.22 2.65-16.349 2.65-16.349 9.555-2.805 15.869-3.863 22.92-3.863 16.484 0 25.207 7.36 25.184 21.31.041 3.741-.59 8.357-1.549 14.44-1.65 10.509-5.232 33.08-5.725 38.59zm-225.403-17.204c-1.284.45-2.974.691-5.154.691-4.564 0-6.58-1.625-6.58-5.388.042-2.316 3.2-19.519 5.402-33.327h9.837l2.609-17.488h-9.8l2.22-10.976h-19.052s-7.21 42.8-8.29 49.572c-1.223 7.748-2.77 16.186-2.65 19.397 0 10.353 5.34 15.987 15.138 15.987 4.445 0 8.535-.736 13.798-2.36l2.522-16.108zm58.64 15.538c-6.561 1.995-12.88 2.93-19.56 2.93-21.356-.045-32.477-11.165-32.477-32.455 0-24.85 14.16-43.15 33.372-43.15 15.709 0 25.756 10.228 25.756 26.332 0 5.328-.712 10.513-2.366 17.896h-37.938c-1.284 10.51 5.483 14.904 16.568 14.904 6.822 0 12.958-1.384 19.802-4.555l-3.157 18.098zm-10.719-43.128c.123-1.505 2.015-13.017-8.864-13.017-6.072 0-10.431 4.658-12.181 13.017h21.045zm-127.42-4.942c0 9.212 4.44 15.535 14.588 20.314 7.763 3.66 8.965 4.715 8.965 8.034 0 4.51-3.424 6.544-11.023 6.544-5.704 0-11.043-.855-17.177-2.845l-2.647 16.798c4.381.935 8.251 1.825 19.967 2.155 20.23 0 29.563-7.71 29.563-24.302 0-10.023-3.893-15.838-13.511-20.254-8.024-3.7-8.962-4.514-8.962-7.909 0-3.945 3.199-5.939 9.412-5.939 3.748 0 8.902.409 13.751 1.1l2.733-16.878c-4.972-.773-12.49-1.423-16.872-1.423-21.453 0-28.869 11.163-28.787 24.604zM652.18 280.68h-18.148l.914-6.769c-5.278 5.594-10.674 8.034-17.683 8.034-13.94 0-23.147-11.979-23.147-30.156 0-24.222 14.279-44.596 31.189-44.596 7.42 0 13.081 3.01 18.322 9.904l4.236-25.844h18.911l-14.594 89.427zm-28.296-16.793c8.923 0 15.22-10.109 15.22-24.505 0-9.252-3.564-14.255-10.171-14.255-8.7 0-14.873 10.107-14.873 24.403 0 9.535 3.304 14.357 9.824 14.357zm-59.147-55.922c-2.403 22.491-6.662 45.284-9.983 67.817l-.878 4.898h19.154c6.867-44.469 8.535-53.152 19.272-52.055 1.71-9.13 4.89-17.078 7.293-21.104-8.042-1.67-12.529 2.886-18.373 11.487.466-3.742 1.303-7.342 1.12-11.043h-17.605zm-167.576 0c-2.408 22.491-6.685 45.284-10.006 67.817l-.878 4.898h19.172c6.868-44.469 8.517-53.152 19.254-52.055 1.732-9.13 4.93-17.078 7.297-21.104-8.01-1.67-12.528 2.886-18.381 11.487.47-3.742 1.302-7.342 1.142-11.043h-17.6z" fill="#393939" fill-rule="evenodd"/></svg>