<svg width="750" height="471" viewBox="0 0 750 471" xmlns="http://www.w3.org/2000/svg"><title>mastercard</title><path d="M0 40.005C0 17.91 17.914 0 39.992 0h670.016C732.095 0 750 17.906 750 40.005v390.99C750 453.09 732.086 471 710.008 471H39.992C17.905 471 0 453.094 0 430.995V40.005zM703.975 235.48c0 112.363-91.606 203.806-204.198 203.806-46.96 0-90.253-15.942-124.79-42.602-34.516 26.66-77.808 42.602-124.77 42.602-112.59 0-204.192-91.443-204.192-203.806 0-112.366 91.602-203.766 204.19-203.766 46.964 0 90.256 15.882 124.77 42.58 34.54-26.698 77.83-42.58 124.792-42.58 112.592 0 204.198 91.4 204.198 203.766zM499.777 49.936c-41.42 0-79.657 13.543-110.55 36.397 28.02 26.024 48.74 59.818 58.64 97.903h-18.924c-9.696-33.67-28.65-63.397-53.957-86.275-25.28 22.88-44.247 52.605-53.906 86.276h-18.953c9.924-38.085 30.645-71.88 58.663-97.903-30.91-22.854-69.135-36.397-110.574-36.397-102.668 0-185.896 83.06-185.896 185.544 0 102.46 83.228 185.545 185.896 185.545 41.44 0 79.664-13.543 110.574-36.396-26.364-24.506-46.253-55.9-56.767-91.24h19.136c10.165 30.944 28.213 58.256 51.826 79.607 23.64-21.35 41.71-48.663 51.878-79.607h19.13c-10.53 35.34-30.416 66.734-56.766 91.24 30.892 22.852 69.13 36.395 110.55 36.395 102.667 0 185.897-83.086 185.897-185.545 0-102.484-83.23-185.544-185.898-185.544zM174.974 191.254h-29.767l-18.603 55.35-.775-55.35H98.242L83.27 280.68h17.95l11.53-68.32 1.61 68.32h13.08l24.51-68.728-10.982 68.73h19.172l14.834-89.428zm35.655 57.018c-2.018-.206-2.896-.285-4.28-.285-10.88 0-16.363 3.717-16.363 11.04 0 4.536 2.69 7.422 6.847 7.422 7.825 0 13.447-7.423 13.795-18.178zm13.933 32.41H208.67l.37-7.544c-4.85 5.958-11.31 8.808-20.087 8.808-10.413 0-17.502-8.114-17.502-19.85 0-17.73 12.366-28.04 33.637-28.04 2.18 0 4.97.204 7.823.57.592-2.42.735-3.437.735-4.74 0-4.797-3.323-6.607-12.288-6.607-9.37-.124-17.113 2.216-20.292 3.273.206-1.22 2.67-16.35 2.67-16.35 9.537-2.804 15.85-3.862 22.94-3.862 16.464 0 25.184 7.36 25.164 21.312.02 3.74-.593 8.356-1.55 14.44-1.67 10.508-5.237 33.08-5.727 38.59zm250.445-91.624c-25.41 0-43.178 22.326-43.178 54.294 0 23.747 12.862 38.594 33.5 38.594 5.296 0 9.88-.695 16.93-2.645l3.362-20.355c-6.337 3.113-11.55 4.595-16.284 4.595-11.144 0-17.87-8.215-17.87-21.78 0-19.7 10.01-33.51 24.33-33.51 5.32 0 10.29 1.384 17.135 4.842l3.14-19.398c-2.81-1.097-12.694-4.636-21.065-4.636zm55.254 59.214c-1.996-.206-2.892-.285-4.3-.285-10.86 0-16.36 3.717-16.36 11.04 0 4.536 2.69 7.422 6.89 7.422 7.803 0 13.446-7.423 13.77-18.178zm13.936 32.41h-15.87l.367-7.544c-4.87 5.958-11.35 8.808-20.113 8.808-10.39 0-17.523-8.114-17.523-19.85 0-17.73 12.41-28.04 33.66-28.04 2.18 0 4.97.204 7.827.57.585-2.42.73-3.437.73-4.74 0-4.797-3.32-6.607-12.267-6.607-9.39-.124-17.11 2.216-20.292 3.273.183-1.22 2.65-16.35 2.65-16.35 9.555-2.804 15.87-3.862 22.92-3.862 16.484 0 25.207 7.36 25.184 21.312.04 3.74-.59 8.356-1.55 14.44-1.648 10.508-5.23 33.08-5.724 38.59zm-225.403-17.204c-1.284.45-2.974.69-5.154.69-4.563 0-6.578-1.624-6.578-5.387.04-2.315 3.198-19.518 5.4-33.326h9.838l2.61-17.488h-9.802l2.22-10.976h-19.05s-7.212 42.8-8.29 49.572c-1.224 7.748-2.772 16.186-2.652 19.397 0 10.352 5.34 15.986 15.14 15.986 4.444 0 8.534-.736 13.797-2.36l2.522-16.108zm58.64 15.538c-6.56 1.995-12.88 2.93-19.56 2.93-21.356-.045-32.477-11.165-32.477-32.455 0-24.85 14.16-43.15 33.372-43.15 15.71 0 25.756 10.23 25.756 26.333 0 5.328-.712 10.513-2.366 17.896h-37.938c-1.284 10.51 5.483 14.903 16.568 14.903 6.822 0 12.958-1.384 19.802-4.555l-3.157 18.098zm-10.72-43.128c.124-1.505 2.016-13.017-8.863-13.017-6.072 0-10.43 4.66-12.18 13.018h21.044zm-127.42-4.942c0 9.212 4.442 15.535 14.59 20.314 7.762 3.66 8.964 4.715 8.964 8.034 0 4.51-3.425 6.544-11.024 6.544-5.704 0-11.043-.855-17.177-2.845L232 279.79c4.38.936 8.25 1.826 19.967 2.156 20.23 0 29.562-7.71 29.562-24.302 0-10.023-3.893-15.838-13.51-20.254-8.025-3.7-8.963-4.514-8.963-7.91 0-3.944 3.198-5.938 9.41-5.938 3.75 0 8.903.41 13.752 1.1l2.733-16.878c-4.972-.773-12.49-1.423-16.872-1.423-21.453 0-28.87 11.164-28.787 24.606zM652.18 280.68h-18.15l.915-6.768c-5.278 5.594-10.674 8.034-17.683 8.034-13.94 0-23.147-11.98-23.147-30.156 0-24.222 14.28-44.596 31.19-44.596 7.42 0 13.08 3.01 18.32 9.904l4.237-25.844h18.91L652.18 280.68zm-28.297-16.792c8.923 0 15.22-10.11 15.22-24.505 0-9.252-3.564-14.255-10.17-14.255-8.7 0-14.874 10.107-14.874 24.403 0 9.536 3.303 14.358 9.823 14.358zm-59.147-55.922c-2.403 22.49-6.662 45.284-9.983 67.817l-.878 4.898h19.154c6.866-44.468 8.534-53.15 19.27-52.054 1.71-9.13 4.89-17.078 7.294-21.104-8.042-1.67-12.53 2.886-18.373 11.487.467-3.743 1.304-7.343 1.12-11.044h-17.604zm-167.576 0c-2.408 22.49-6.685 45.284-10.006 67.817l-.878 4.898h19.172c6.868-44.468 8.517-53.15 19.254-52.054 1.732-9.13 4.93-17.078 7.297-21.104-8.01-1.67-12.53 2.886-18.382 11.487.47-3.743 1.302-7.343 1.142-11.044h-17.6zm269.53 76.477c3.67 0 6.64-2.97 6.64-6.585 0-3.643-2.97-6.59-6.64-6.59-3.627 0-6.565 2.947-6.565 6.59 0 3.616 2.938 6.585 6.566 6.585zm-5.016-6.585c0-2.767 2.243-5.023 5.017-5.023 2.81 0 5.01 2.256 5.01 5.023 0 2.725-2.2 5-5.01 5-2.773 0-5.016-2.275-5.016-5zm4.158 2.845h-1.343v-5.734h2.443c.49 0 1.02 0 1.467.284.452.285.735.876.735 1.425 0 .67-.37 1.258-1.023 1.504l1.064 2.52h-1.507l-.86-2.235h-.978v2.233zm0-3.233h.735c.284 0 .572 0 .814-.12.248-.142.33-.427.33-.67 0-.247-.124-.47-.33-.612-.205-.125-.607-.08-.854-.08h-.694v1.482zm10.92 71.655c0-3.62 2.974-6.59 6.602-6.59s6.603 2.97 6.603 6.59c0 3.62-2.975 6.585-6.603 6.585-3.628 0-6.602-2.965-6.602-6.585zm6.602 5c2.774 0 5.054-2.28 5.054-5 0-2.766-2.28-5.005-5.054-5.005-2.77 0-5.007 2.24-5.007 5.005 0 2.72 2.238 5 5.007 5zm-.895-4.435h.977l.895 2.32h1.508l-1.056-2.56c.608-.245 1.015-.815 1.015-1.488 0-.547-.326-1.156-.732-1.46-.448-.307-1.02-.307-1.508-.307h-2.445v5.816h1.344v-2.32zm0-2.44h.73c.247 0 .612-.04.818.085.205.16.365.365.365.61 0 .263-.12.525-.365.69-.206.102-.53.102-.777.102h-.77v-1.488z" fill="#393939" fill-rule="evenodd"/></svg>