<svg width="750" height="471" viewBox="0 0 750 471" xmlns="http://www.w3.org/2000/svg"><path d="M697.115 0C726.274 0 750 23.196 750 51.707v367.586C750 447.804 726.274 471 697.115 471H52.885C23.724 471 0 447.804 0 419.293V51.707C0 23.196 23.724 0 52.885 0h644.23zM117.88 242.191c17.916 0 31.98-5.048 42.19-15.155 10.205-10.104 15.314-24.113 15.314-42.034 0-12.291-4.014-21.198-12.033-26.722-8.024-5.516-18.492-8.28-31.408-8.28H81.938c-3.958 0-6.146 1.98-6.561 5.937L55.064 283.443c-.211 1.252.102 2.398.937 3.439.83 1.044 1.874 1.563 3.124 1.563h23.751c4.166 0 6.456-1.977 6.876-5.938l5.624-34.374c.206-1.666.939-3.02 2.189-4.064 1.248-1.04 2.812-1.723 4.687-2.034 1.875-.31 3.643-.465 5.313-.465 1.665 0 3.644.105 5.939.312 2.29.208 3.75.31 4.375.31zm124.227-17.97c3.851 3.44 5.781 8.18 5.781 14.222 0 7.709-2.657 14.117-7.97 19.216-5.314 5.112-11.828 7.659-19.531 7.659-6.046 0-10.89-1.664-14.533-5-3.65-3.328-5.47-7.912-5.47-13.752 0-7.703 2.603-14.218 7.814-19.53 5.204-5.313 11.664-7.97 19.375-7.97 5.832 0 10.676 1.72 14.534 5.156zm42.656-23.282c.205-1.25-.106-2.395-.936-3.437-.835-1.04-1.875-1.563-3.124-1.563h-23.75c-2.922 0-4.69 3.439-5.315 10.315-5.625-8.331-15.522-12.502-29.69-12.502-15 0-27.762 5.626-38.283 16.877-10.523 11.25-15.782 24.483-15.782 39.69 0 12.295 3.595 22.086 10.783 29.376 7.188 7.296 16.822 10.938 28.907 10.938 5.831 0 11.877-1.252 18.126-3.75 6.25-2.5 11.25-5.833 15-10-.835 2.498-1.25 4.687-1.25 6.56 0 3.338 1.354 5 4.063 5h21.563c3.955 0 6.25-1.977 6.875-5.938l12.813-81.566zm40.942 119.693c2.29 0 4.164-1.038 5.626-3.122l79.692-115.01c.415-.413.623-1.14.623-2.187 0-1.04-.42-2.03-1.247-2.967-.836-.937-1.775-1.408-2.813-1.408H383.52c-2.296 0-4.17 1.047-5.625 3.125l-33.126 48.755-13.752-46.878c-1.045-3.331-3.336-5.002-6.874-5.002h-23.442c-1.044 0-1.981.47-2.81 1.408-.835.936-1.25 1.929-1.25 2.967 0 .42 2.032 6.563 6.093 18.439 4.062 11.877 8.437 24.692 13.124 38.443 4.689 13.748 7.135 21.045 7.344 21.872-17.085 23.337-25.625 35.838-25.625 37.502 0 2.71 1.353 4.063 4.063 4.063h24.064zm147.192-78.44c17.919 0 31.979-5.049 42.191-15.156 10.208-10.104 15.314-24.113 15.314-42.034 0-12.291-4.012-21.198-12.032-26.722-8.022-5.516-18.49-8.28-31.407-8.28h-49.69c-4.17 0-6.463 1.98-6.876 5.937l-20.313 127.506c-.212 1.252.1 2.398.937 3.439.827 1.044 1.873 1.563 3.124 1.563h25.625c2.5 0 4.165-1.353 5-4.062l5.627-36.25c.207-1.666.935-3.02 2.188-4.064 1.25-1.04 2.81-1.723 4.687-2.034 1.874-.31 3.643-.465 5.314-.465 1.665 0 3.643.105 5.936.312 2.29.208 3.754.31 4.375.31zm124.229-17.97c3.851 3.438 5.782 8.18 5.783 14.221-.001 7.5-2.658 13.857-7.97 19.062-5.313 5.209-11.719 7.813-19.22 7.813-6.045 0-10.937-1.664-14.689-5-3.75-3.328-5.626-7.912-5.626-13.752 0-7.703 2.604-14.218 7.814-19.53 5.203-5.313 11.667-7.97 19.377-7.97 5.828 0 10.672 1.72 14.53 5.156zm42.658-23.283c.206-1.25-.107-2.395-.94-3.437-.835-1.04-1.874-1.563-3.124-1.563h-23.753c-2.918 0-4.685 3.439-5.31 10.315-5.423-8.331-15.312-12.502-29.69-12.502-15.002 0-27.765 5.626-38.283 16.877-10.523 11.25-15.782 24.483-15.782 39.69 0 12.295 3.594 22.086 10.78 29.376 7.19 7.296 16.825 10.938 28.911 10.938 6.04 0 12.187-1.252 18.437-3.75 6.251-2.5 11.143-5.833 14.69-10 0 .208-.212 1.144-.625 2.81-.42 1.67-.626 2.923-.626 3.75 0 3.338 1.35 5 4.064 5h21.565c3.953 0 6.248-1.977 6.872-5.938l12.814-81.566zm55.317-46.254h-.001v-.31c0-2.915-1.36-4.374-4.065-4.374h-23.125c-2.297 0-3.65 1.146-4.063 3.439L643.53 283.446l-.314.625c0 1.046.419 2.031 1.254 2.969.829.937 1.875 1.406 3.123 1.406h20.629c3.953 0 6.142-1.977 6.563-5.938L695.1 154.685zm-205.639 27.658c2.502 2.188 3.75 5.367 3.75 9.532 0 8.752-2.293 14.688-6.874 17.816-4.585 3.124-11.46 4.686-20.627 4.686l-10 .312 5.313-33.44c.413-2.29 1.766-3.436 4.062-3.436h5.623c4.583 0 8.229.209 10.941.624 2.705.42 5.313 1.719 7.812 3.906zm-355.641-.936c3.748 2.398 4.999 7.452 3.747 15.159-1.045 7.293-3.75 12.082-8.125 14.375-4.376 2.295-10.626 3.437-18.75 3.437l-10.314.312 5.314-33.44c.416-2.29 1.77-3.436 4.062-3.436h5.94c8.33 0 14.376 1.201 18.126 3.593z" fill="#393939" fill-rule="nonzero"/></svg>