<svg xmlns="http://www.w3.org/2000/svg" width="780" height="501" viewBox="0 0 780 501"><title>amex-outline</title><g fill="#393939"><path d="M622.483 238.885c-4.039-3.597-9.111-5.397-15.212-5.397-8.071 0-14.838 2.781-20.285 8.343-5.454 5.561-8.18 12.382-8.18 20.446 0 6.113 1.963 10.912 5.89 14.396 3.928 3.492 9.049 5.234 15.377 5.234 7.853 0 14.559-2.726 20.12-8.179 5.562-5.449 8.343-12.104 8.344-19.955-.001-6.325-2.022-11.288-6.054-14.888zM250.826 238.885c-4.039-3.597-9.11-5.397-15.215-5.397-8.072 0-14.835 2.781-20.283 8.343-5.455 5.561-8.181 12.382-8.181 20.446 0 6.113 1.907 10.912 5.727 14.396 3.813 3.492 8.885 5.234 15.214 5.234 8.064 0 14.884-2.666 20.447-8.017 5.562-5.338 8.343-12.047 8.343-20.117 0-6.325-2.02-11.288-6.052-14.888z"/><path d="M725 0H55C24.673 0 0 24.673 0 55v391c0 30.327 24.673 55 55 55h670c30.325 0 55-24.673 55-55V55c0-30.327-24.675-55-55-55zM120.777 257.697c-.654 0-2.183-.106-4.58-.324-2.402-.217-4.474-.327-6.217-.327-1.748 0-3.599.163-5.562.487-1.963.326-3.6 1.04-4.907 2.13-1.309 1.092-2.076 2.51-2.291 4.254l-5.888 35.985c-.44 4.147-2.837 6.216-7.198 6.216H59.27c-1.309 0-2.401-.543-3.271-1.636-.874-1.09-1.202-2.289-.981-3.6L76.283 167.4c.435-4.142 2.725-6.215 6.869-6.215h52.347c13.521 0 24.48 2.894 32.88 8.668 8.395 5.783 12.597 15.107 12.597 27.974 0 18.761-5.348 33.427-16.032 44.004-10.689 10.581-25.411 15.866-44.167 15.866zm174.704-43.186L282.068 299.9c-.654 4.147-3.057 6.216-7.197 6.216h-22.574c-2.836 0-4.253-1.74-4.253-5.234 0-1.961.434-4.252 1.309-6.868-3.926 4.363-9.161 7.852-15.704 10.469-6.542 2.615-12.871 3.926-18.975 3.926-12.652 0-22.737-3.813-30.262-11.451-7.525-7.631-11.288-17.881-11.288-30.752 0-15.92 5.505-29.773 16.521-41.551 11.014-11.778 24.374-17.668 40.078-17.668 14.831 0 25.192 4.367 31.081 13.088.655-7.198 2.505-10.798 5.563-10.798h24.864c1.307 0 2.396.547 3.27 1.636.869 1.091 1.195 2.289.98 3.598zm42.861 125.303H313.15c-2.837 0-4.253-1.416-4.253-4.254 0-1.742 8.94-14.828 26.826-39.259-.219-.866-2.78-8.505-7.688-22.897a42994.14 42994.14 0 0 0-13.739-40.245c-4.252-12.432-6.379-18.863-6.379-19.303 0-1.087.434-2.126 1.309-3.106.867-.982 1.848-1.474 2.941-1.474h24.541c3.704 0 6.102 1.749 7.196 5.236l14.396 49.075 34.679-51.04c1.523-2.175 3.485-3.271 5.889-3.271h25.192c1.087 0 2.07.493 2.945 1.474.866.98 1.306 2.018 1.306 3.106 0 1.097-.218 1.857-.652 2.29l-83.427 120.399c-1.531 2.182-3.492 3.269-5.89 3.269zm154.09-82.117c-.65 0-2.182-.106-4.58-.324-2.4-.217-4.471-.327-6.214-.327-1.749 0-3.601.163-5.563.487-1.965.326-3.599 1.04-4.907 2.13-1.311 1.092-2.074 2.51-2.29 4.254l-5.891 37.949c-.874 2.836-2.618 4.252-5.234 4.252h-26.826c-1.31 0-2.405-.543-3.271-1.636-.875-1.09-1.202-2.289-.98-3.6L447.94 167.4c.433-4.142 2.833-6.215 7.198-6.215h52.019c13.523 0 24.481 2.894 32.879 8.668 8.396 5.783 12.597 15.107 12.596 27.974 0 18.761-5.345 33.427-16.031 44.004-10.691 10.581-25.41 15.866-44.169 15.866zm174.709-43.186L653.726 299.9c-.653 4.147-3.056 6.216-7.194 6.216h-22.576c-2.84 0-4.254-1.74-4.254-5.234 0-.866.215-2.178.655-3.926.433-1.744.655-2.724.655-2.942-3.714 4.363-8.835 7.852-15.379 10.469-6.543 2.615-12.978 3.926-19.301 3.926-12.653 0-22.74-3.813-30.266-11.451-7.523-7.631-11.285-17.881-11.285-30.752 0-15.92 5.505-29.773 16.521-41.551 11.011-11.778 24.373-17.668 40.077-17.668 15.052 0 25.405 4.367 31.083 13.088.653-7.198 2.503-10.798 5.558-10.798h24.866c1.309 0 2.396.547 3.271 1.636.872 1.091 1.199 2.289.984 3.598zm57.909-48.421l-21.266 133.813c-.441 4.147-2.732 6.216-6.871 6.216h-21.595c-1.307 0-2.402-.491-3.27-1.472-.874-.981-1.312-2.013-1.312-3.108l.328-.654 21.267-136.099c.433-2.4 1.849-3.6 4.254-3.6h24.208c2.833 0 4.255 1.527 4.256 4.58v.324z"/><path d="M509.774 195.044c-2.617-2.29-5.347-3.65-8.178-4.089-2.84-.435-6.657-.653-11.454-.653h-5.887c-2.403 0-3.82 1.2-4.252 3.597l-5.563 35.007 10.47-.327c9.596 0 16.793-1.635 21.593-4.906 4.796-3.274 7.197-9.488 7.197-18.65-.001-4.361-1.307-7.689-3.926-9.979zM137.465 194.064c-3.926-2.504-10.255-3.761-18.975-3.761h-6.219c-2.4 0-3.817 1.2-4.252 3.597l-5.563 35.007 10.797-.327c8.505 0 15.048-1.195 19.629-3.598 4.58-2.4 7.412-7.414 8.506-15.049 1.31-8.068.001-13.359-3.923-15.869z"/></g></svg>