<svg xmlns="http://www.w3.org/2000/svg" width="780" height="501" viewBox="0 0 780 501"><title>amex-outline</title><g fill="#393939"><path d="M622.483 238.885c-4.04-3.597-9.11-5.397-15.212-5.397-8.07 0-14.837 2.78-20.284 8.343-5.454 5.562-8.18 12.383-8.18 20.447 0 6.113 1.963 10.912 5.89 14.396 3.928 3.492 9.05 5.234 15.377 5.234 7.853 0 14.56-2.726 20.12-8.18 5.562-5.448 8.343-12.103 8.344-19.954 0-6.325-2.022-11.288-6.054-14.888zM250.826 238.885c-4.04-3.597-9.11-5.397-15.215-5.397-8.07 0-14.834 2.78-20.282 8.343-5.455 5.562-8.18 12.383-8.18 20.447 0 6.113 1.906 10.912 5.726 14.396 3.813 3.492 8.885 5.234 15.214 5.234 8.064 0 14.884-2.666 20.447-8.017 5.562-5.338 8.343-12.047 8.343-20.117 0-6.325-2.02-11.288-6.052-14.888z"/><path d="M725 0H55C24.673 0 0 24.673 0 55v391c0 30.327 24.673 55 55 55h670c30.325 0 55-24.673 55-55V55c0-30.327-24.675-55-55-55zM120.777 257.697c-.654 0-2.183-.106-4.58-.324-2.402-.217-4.474-.327-6.217-.327-1.748 0-3.6.163-5.562.487-1.963.326-3.6 1.04-4.907 2.13-1.308 1.092-2.075 2.51-2.29 4.254l-5.888 35.985c-.44 4.147-2.837 6.216-7.198 6.216H59.27c-1.31 0-2.4-.543-3.27-1.636-.875-1.09-1.203-2.29-.982-3.6L76.283 167.4c.435-4.142 2.725-6.215 6.87-6.215h52.346c13.52 0 24.48 2.894 32.88 8.668 8.394 5.783 12.596 15.107 12.596 27.974 0 18.76-5.348 33.427-16.032 44.004-10.69 10.582-25.41 15.867-44.167 15.867zM295.48 214.51L282.07 299.9c-.654 4.147-3.057 6.216-7.197 6.216h-22.573c-2.836 0-4.253-1.74-4.253-5.234 0-1.96.434-4.252 1.31-6.868-3.927 4.363-9.162 7.852-15.705 10.47-6.543 2.614-12.872 3.925-18.976 3.925-12.652 0-22.737-3.814-30.262-11.452-7.525-7.63-11.288-17.88-11.288-30.752 0-15.92 5.505-29.773 16.52-41.55 11.015-11.78 24.375-17.67 40.08-17.67 14.83 0 25.19 4.368 31.08 13.09.655-7.2 2.505-10.8 5.563-10.8h24.864c1.308 0 2.397.548 3.27 1.637.87 1.09 1.196 2.29.98 3.598zm42.862 125.304H313.15c-2.837 0-4.253-1.416-4.253-4.254 0-1.742 8.94-14.828 26.826-39.26-.22-.865-2.78-8.504-7.688-22.896-4.907-14.396-9.487-27.81-13.74-40.245-4.25-12.433-6.378-18.864-6.378-19.304 0-1.087.434-2.126 1.31-3.106.866-.982 1.847-1.474 2.94-1.474h24.54c3.705 0 6.103 1.75 7.197 5.236l14.396 49.075 34.68-51.04c1.522-2.175 3.484-3.27 5.888-3.27h25.192c1.087 0 2.07.492 2.945 1.473.866.98 1.306 2.018 1.306 3.106 0 1.097-.217 1.857-.65 2.29l-83.428 120.4c-1.53 2.18-3.492 3.268-5.89 3.268zm154.09-82.117c-.65 0-2.182-.106-4.58-.324-2.4-.217-4.47-.327-6.214-.327-1.75 0-3.6.163-5.563.487-1.965.326-3.6 1.04-4.907 2.13-1.31 1.092-2.074 2.51-2.29 4.254l-5.89 37.95c-.875 2.835-2.62 4.25-5.235 4.25h-26.826c-1.31 0-2.405-.542-3.27-1.635-.876-1.09-1.203-2.29-.98-3.6L447.94 167.4c.433-4.142 2.833-6.215 7.198-6.215h52.02c13.522 0 24.48 2.894 32.878 8.668 8.396 5.783 12.597 15.107 12.596 27.974 0 18.76-5.345 33.427-16.03 44.004-10.692 10.582-25.41 15.867-44.17 15.867zm174.71-43.186l-13.416 85.39c-.653 4.147-3.056 6.216-7.194 6.216h-22.576c-2.84 0-4.254-1.74-4.254-5.234 0-.866.215-2.178.655-3.926.433-1.744.655-2.724.655-2.942-3.714 4.363-8.835 7.852-15.38 10.47-6.542 2.614-12.977 3.925-19.3 3.925-12.653 0-22.74-3.814-30.266-11.452-7.523-7.63-11.285-17.88-11.285-30.752 0-15.92 5.506-29.773 16.522-41.55 11.01-11.78 24.373-17.67 40.077-17.67 15.05 0 25.404 4.368 31.082 13.09.653-7.2 2.503-10.8 5.558-10.8h24.866c1.31 0 2.396.548 3.27 1.637.873 1.09 1.2 2.29.985 3.598zm57.908-48.42l-21.266 133.813c-.44 4.147-2.732 6.216-6.87 6.216h-21.596c-1.307 0-2.402-.492-3.27-1.473-.874-.98-1.312-2.013-1.312-3.108l.328-.655 21.267-136.1c.434-2.4 1.85-3.6 4.255-3.6h24.208c2.833 0 4.255 1.528 4.256 4.58v.325z"/><path d="M509.774 195.044c-2.617-2.29-5.347-3.65-8.178-4.09-2.84-.434-6.657-.652-11.454-.652h-5.887c-2.403 0-3.82 1.2-4.252 3.597l-5.563 35.006 10.47-.327c9.596 0 16.793-1.636 21.593-4.907 4.796-3.274 7.197-9.488 7.197-18.65 0-4.36-1.307-7.69-3.926-9.98zM137.465 194.064c-3.926-2.504-10.255-3.76-18.975-3.76h-6.22c-2.4 0-3.816 1.2-4.25 3.596l-5.564 35.007 10.797-.327c8.505 0 15.048-1.195 19.63-3.598 4.58-2.4 7.41-7.414 8.505-15.05 1.31-8.067 0-13.358-3.923-15.868z"/></g></svg>