<svg xmlns="http://www.w3.org/2000/svg" width="780" height="501" viewBox="0 0 780 501"><title>amex-outline</title><path fill="#393939" d="M215.212 266.507c0 8.494 8.494 9.475 15.355 9.475 18.622 0 24.83-12.414 25.81-28.75l-.98-.98c-13.395 0-40.185 1.96-40.185 20.255zM579.817 266.507c0 8.494 8.493 9.802 15.354 9.802 18.623 0 24.83-12.416 25.812-29.078l-.98-.98c-13.395 0-40.185 1.96-40.185 20.255zM492.586 182.544c-6.86 0-11.762.327-14.05 7.514-2.286 6.86-6.207 21.236-6.207 27.77 0 3.594 2.614 6.208 6.207 6.208h4.9c16.66 0 34.304-5.88 34.304-25.483 0-14.702-14.046-16.01-25.154-16.01z"/><path fill="#393939" d="M725 0H55C24.673 0 0 24.673 0 55v391c0 30.327 24.673 55 55 55h670c30.327 0 55-24.673 55-55V55c0-30.327-24.673-55-55-55zM108.054 249.846c-19.277 0-6.86 45.084-26.138 45.084H61.66c-3.267 0-6.207-2.613-6.207-5.88 0-4.248 27.116-121.862 28.423-124.802 2.287-4.247 3.92-7.84 9.802-7.84h41.818c26.79 0 55.866 4.9 55.866 38.224 0 45.412-47.044 55.214-83.308 55.214zm186.548-25.81l-14.7 63.38c-.98 5.228-4.575 5.882-8.823 7.842h-18.296c-3.267 0-5.88-2.94-5.88-6.207 0-1.634.326-3.267.98-4.9-13.397 8.494-21.564 14.048-38.225 14.048-16.01 0-29.405-9.475-29.405-26.463 0-33.977 32.344-39.857 59.46-42.798 5.88-.653 12.742-.326 18.623-1.96 3.267-.98 3.267-1.634 3.267-4.573 0-11.762-16.01-11.762-24.176-11.762-6.536 0-12.743.98-18.95 2.614-3.268.653-10.455 3.594-13.395 3.594-1.96 0-2.94-1.634-2.94-3.268 0-4.247 1.634-8.494 2.94-12.742 3.266-9.8 10.454-9.8 19.275-11.107 7.84-1.307 16.01-1.96 24.176-1.96 17.97 0 47.372 1.96 47.372 26.463 0 3.266-.326 6.533-1.306 9.8zm20.91 120.554c-2.614 0-13.07 0-13.07-4.247 0-10.78 19.93-27.117 19.93-39.205 0-2.613-.326-5.227-.652-7.84-3.92-32.345-13.396-63.708-16.336-96.052l-.326-1.633c0-6.208 7.84-6.86 12.414-6.86 8.168 0 19.93-.98 22.87 8.493 4.573 15.03 8.82 38.55 8.82 54.232l1.634 1.308c2.613-.98 28.75-48.68 33.324-55.867 2.94-3.92 7.514-7.515 12.742-7.515h24.176c1.634 0 2.614 1.307 2.614 2.94 0 2.94-1.96 5.88-3.267 8.494L340.34 336.42c-5.226 8.495-16.008 8.168-24.828 8.168zm157.144-94.418c-4.573 0-8.82 3.266-9.802 7.84l-6.86 29.73c-1.96 9.148-14.7 8.168-21.89 8.168-4.573 0-14.048 0-14.048-6.534 0-5.228 25.81-118.92 28.424-124.802 1.96-4.247 4.247-7.514 9.474-7.514H500.1c26.79 0 55.866 4.9 55.866 38.225 0 45.414-47.045 54.887-83.31 54.887zm186.876-25.81l-14.7 63.38c-1.636 7.188-9.476 8.17-15.684 8.17-4.9 0-17.643.98-17.643-6.535 0-1.96.654-3.594.98-5.228-13.395 8.82-21.563 14.047-38.225 14.047-15.682 0-29.402-9.475-29.402-26.136 0-33.977 32.343-39.857 59.46-42.797 5.88-.653 12.74-.653 18.622-2.286 3.267-.654 3.267-1.635 3.267-4.574 0-11.762-16.008-11.762-24.177-11.762-6.207 0-12.74.98-18.947 2.615-3.268.98-10.455 3.92-13.396 3.92-1.96 0-2.613-1.634-2.613-3.267 0-4.574 1.308-8.82 2.613-12.742 3.27-9.8 10.455-10.128 19.276-11.435 7.84-.98 16.008-1.96 24.177-1.96 18.295 0 47.37 1.96 47.37 26.464.002 3.268-.323 6.86-.978 10.13zm65.015-58.807L697.43 287.742c-.98 4.248-5.228 7.516-9.475 7.516h-18.948c-2.94-.327-5.23-2.94-5.23-5.88v-1.636c9.477-38.876 16.99-78.082 25.813-116.632 1.307-6.208 2.94-13.068 10.78-13.068h17.97c3.267 0 6.207 2.613 6.207 5.88l-.327 1.633h.327z"/><path fill="#393939" d="M127.982 181.89c-6.86 0-11.762.654-14.048 7.842-2.287 6.86-6.208 20.91-6.208 27.77 0 3.593 2.94 5.88 6.208 5.88h4.9c16.662 0 34.304-5.88 34.304-25.483 0-14.703-14.048-16.01-25.156-16.01z"/></svg>