<svg width="750" height="471" xmlns="http://www.w3.org/2000/svg"><g fill="none" fill-rule="evenodd"><path d="M697.115 0H52.885C23.724 0 0 23.196 0 51.707v367.586C0 447.804 23.724 471 52.885 471h644.23C726.274 471 750 447.804 750 419.293V51.707C750 23.196 726.274 0 697.115 0z" fill="#393939"/><path d="M597.125 224.222c-3.859-3.436-8.703-5.156-14.531-5.156-7.71 0-14.174 2.657-19.377 7.97-5.21 5.312-7.814 11.827-7.814 19.53 0 5.84 1.875 10.424 5.626 13.752 3.752 3.336 8.644 5 14.689 5 7.501 0 13.907-2.604 19.22-7.813 5.312-5.205 7.969-11.562 7.97-19.062-.001-6.042-1.932-10.783-5.783-14.221zm-355.02 0c-3.857-3.436-8.701-5.156-14.533-5.156-7.71 0-14.17 2.657-19.375 7.97-5.21 5.312-7.815 11.827-7.815 19.53 0 5.84 1.822 10.424 5.47 13.752 3.643 3.336 8.488 5 14.534 5 7.703 0 14.217-2.547 19.531-7.659 5.313-5.099 7.97-11.507 7.97-19.216 0-6.042-1.93-10.783-5.781-14.221zm-124.226 17.97c-.625 0-2.085-.102-4.375-.31-2.295-.207-4.274-.312-5.939-.312-1.67 0-3.438.155-5.313.465-1.875.311-3.439.993-4.687 2.034-1.25 1.043-1.983 2.398-2.189 4.064l-5.624 34.374c-.42 3.961-2.71 5.938-6.876 5.938h-23.75c-1.251 0-2.294-.519-3.125-1.563-.835-1.041-1.148-2.187-.937-3.439l20.313-127.506c.415-3.957 2.603-5.937 6.561-5.937h50.004c12.916 0 23.384 2.764 31.408 8.28 8.019 5.524 12.033 14.43 12.033 26.722 0 17.92-5.109 31.93-15.314 42.034-10.21 10.107-24.274 15.155-42.19 15.155zm166.883-41.253l-12.813 81.566c-.624 3.961-2.92 5.938-6.875 5.938h-21.563c-2.709 0-4.063-1.662-4.063-5 0-1.873.415-4.062 1.25-6.56-3.75 4.167-8.75 7.5-15 10-6.25 2.498-12.295 3.75-18.126 3.75-12.085 0-21.719-3.642-28.907-10.938-7.188-7.29-10.783-17.08-10.783-29.376 0-15.207 5.259-28.44 15.782-39.69 10.52-11.251 23.283-16.877 38.284-16.877 14.167 0 24.064 4.171 29.69 12.502.625-6.876 2.392-10.315 5.313-10.315h23.751c1.249 0 2.289.523 3.124 1.563.83 1.042 1.141 2.186.936 3.437zm40.942 119.693H301.64c-2.71 0-4.063-1.352-4.063-4.063 0-1.664 8.54-14.165 25.625-37.502-.209-.827-2.655-8.124-7.344-21.872a41068.705 41068.705 0 0 0-13.124-38.443c-4.061-11.876-6.093-18.019-6.093-18.439 0-1.038.415-2.03 1.25-2.967.829-.938 1.766-1.408 2.81-1.408h23.442c3.538 0 5.829 1.67 6.874 5.002l13.752 46.878 33.126-48.755c1.455-2.078 3.329-3.125 5.625-3.125h24.065c1.038 0 1.977.471 2.813 1.408.827.936 1.247 1.928 1.247 2.967 0 1.048-.208 1.774-.623 2.188L331.33 317.51c-1.462 2.084-3.335 3.122-5.626 3.122zm147.192-78.44c-.621 0-2.085-.102-4.375-.31-2.293-.207-4.271-.312-5.936-.312-1.67 0-3.44.155-5.314.465-1.877.311-3.438.993-4.687 2.034-1.253 1.043-1.981 2.398-2.188 4.064l-5.627 36.25c-.835 2.71-2.5 4.062-5 4.062h-25.625c-1.251 0-2.297-.519-3.124-1.563-.836-1.041-1.149-2.187-.937-3.439l20.313-127.506c.413-3.957 2.706-5.937 6.875-5.937h49.69c12.918 0 23.386 2.764 31.408 8.28 8.02 5.524 12.033 14.43 12.032 26.722 0 17.92-5.106 31.93-15.314 42.034-10.212 10.107-24.272 15.155-42.191 15.155zm166.887-41.253l-12.814 81.566c-.624 3.961-2.92 5.938-6.872 5.938h-21.565c-2.713 0-4.064-1.662-4.064-5 0-.827.206-2.08.626-3.75.413-1.666.626-2.602.626-2.81-3.548 4.167-8.44 7.5-14.691 10-6.25 2.498-12.397 3.75-18.437 3.75-12.086 0-21.722-3.642-28.911-10.938-7.186-7.29-10.78-17.08-10.78-29.376 0-15.207 5.259-28.44 15.782-39.69 10.518-11.251 23.281-16.877 38.282-16.877 14.379 0 24.268 4.171 29.692 12.502.624-6.876 2.39-10.315 5.31-10.315h23.752c1.25 0 2.289.523 3.124 1.563.833 1.042 1.146 2.186.94 3.437zm55.317-46.254l-20.314 127.823c-.421 3.961-2.61 5.938-6.563 5.938h-20.629c-1.248 0-2.294-.47-3.123-1.406-.835-.938-1.254-1.923-1.254-2.97l.314-.624 20.315-130.006c.413-2.293 1.766-3.439 4.063-3.439h23.125c2.706 0 4.064 1.459 4.065 4.375v.31h.001zm-205.639 27.658c-2.5-2.187-5.107-3.486-7.812-3.906-2.712-.415-6.358-.624-10.94-.624h-5.624c-2.296 0-3.65 1.147-4.062 3.436l-5.314 33.44 10.001-.312c9.167 0 16.042-1.562 20.627-4.686 4.581-3.128 6.875-9.064 6.875-17.816-.001-4.165-1.249-7.344-3.75-9.532zm-355.641-.936c-3.75-2.392-9.796-3.593-18.126-3.593h-5.94c-2.293 0-3.646 1.147-4.062 3.436l-5.314 33.44 10.314-.312c8.124 0 14.374-1.142 18.75-3.437 4.375-2.293 7.08-7.082 8.125-14.375 1.252-7.707.001-12.761-3.747-15.159z" fill="#FFF" fill-rule="nonzero"/></g></svg>