<svg width="750" height="471" viewBox="0 0 750 471" xmlns="http://www.w3.org/2000/svg"><g fill-rule="nonzero" fill="none"><rect fill="#393939" transform="matrix(-1 0 0 1 750 0)" width="750" height="471" rx="40"/><g fill="#FFF" fill-opacity=".196"><path d="M671.846 310.37v-3.795h5.117v-11.27h4.198l.402 11.27h11.443l-10.58-25.07 3.967-1.725 11.673 27.14v3.45H681.62v9.66h-4.658v-9.66zM652.26 279.78c4.026 0 7.878 1.38 11.213 4.6l-2.587 2.933c-2.645-2.473-5.003-3.68-8.395-3.68-4.198 0-7.533 2.357-7.533 6.727 0 4.773 3.738 6.958 7.533 6.958h2.357l.575 3.795h-3.335c-4.657 0-8.222 1.84-8.222 7.532 0 4.945 3.277 8.108 8.855 8.108 3.22 0 6.555-1.323 8.797-3.968l3.22 2.645c-2.99 3.68-7.705 5.233-12.132 5.233-8.165 0-13.743-5.175-13.743-12.018 0-6.152 4.37-9.372 9.028-9.717-4.198-.805-7.763-4.428-7.763-9.2 0-5.405 4.715-9.948 12.133-9.948zM617.783 279.78c5.348 0 8.913 1.898 12.075 5.693l-3.335 2.53c-2.53-2.933-4.657-4.198-8.567-4.198-4.428 0-7.073 2.76-7.073 7.188 0 6.497 3.22 10.81 18.17 25.127v3.91h-23.517l-.575-4.082h18.63c-13.053-11.903-17.71-17.825-17.71-25.07 0-6.325 4.427-11.098 11.902-11.098zM569.046 316.12h8.28v-35.65h4.197l11.73 7.245-2.07 3.393-9.085-5.463v30.475h9.775v3.91h-22.827zM499.458 310.37v-3.795h5.117v-11.27h4.198l.402 11.27h11.443l-10.58-25.07 3.967-1.725 11.673 27.14v3.45h-16.445v9.66h-4.658v-9.66zM479.873 279.78c4.025 0 7.877 1.38 11.212 4.6l-2.587 2.933c-2.645-2.473-5.003-3.68-8.395-3.68-4.198 0-7.533 2.357-7.533 6.727 0 4.773 3.738 6.958 7.533 6.958h2.357l.575 3.795H479.7c-4.657 0-8.222 1.84-8.222 7.532 0 4.945 3.277 8.108 8.855 8.108 3.22 0 6.555-1.323 8.797-3.968l3.22 2.645c-2.99 3.68-7.705 5.233-12.132 5.233-8.165 0-13.743-5.175-13.743-12.018 0-6.152 4.37-9.372 9.028-9.717-4.198-.805-7.763-4.428-7.763-9.2 0-5.405 4.715-9.948 12.133-9.948zM445.395 279.78c5.348 0 8.913 1.898 12.075 5.693l-3.335 2.53c-2.53-2.933-4.657-4.198-8.567-4.198-4.428 0-7.073 2.76-7.073 7.188 0 6.497 3.22 10.81 18.17 25.127v3.91h-23.517l-.575-4.082h18.63c-13.053-11.903-17.71-17.825-17.71-25.07 0-6.325 4.427-11.098 11.902-11.098zM396.658 316.12h8.28v-35.65h4.197l11.73 7.245-2.07 3.393-9.085-5.463v30.475h9.775v3.91h-22.827zM327.07 310.37v-3.795h5.118v-11.27h4.197l.403 11.27h11.442l-10.58-25.07 3.968-1.725 11.672 27.14v3.45h-16.445v9.66h-4.657v-9.66zM307.485 279.78c4.025 0 7.878 1.38 11.213 4.6l-2.588 2.933c-2.645-2.473-5.002-3.68-8.395-3.68-4.197 0-7.532 2.357-7.532 6.727 0 4.773 3.737 6.958 7.532 6.958h2.358l.575 3.795h-3.335c-4.658 0-8.223 1.84-8.223 7.532 0 4.945 3.278 8.108 8.855 8.108 3.22 0 6.555-1.323 8.798-3.968l3.22 2.645c-2.99 3.68-7.705 5.233-12.133 5.233-8.165 0-13.742-5.175-13.742-12.018 0-6.152 4.37-9.372 9.027-9.717-4.197-.805-7.762-4.428-7.762-9.2 0-5.405 4.715-9.948 12.132-9.948zM273.008 279.78c5.347 0 8.912 1.898 12.075 5.693l-3.335 2.53c-2.53-2.933-4.658-4.198-8.568-4.198-4.427 0-7.072 2.76-7.072 7.188 0 6.497 3.22 10.81 18.17 25.127v3.91H260.76l-.575-4.082h18.63c-13.052-11.903-17.71-17.825-17.71-25.07 0-6.325 4.428-11.098 11.903-11.098zM224.27 316.12h8.28v-35.65h4.198l11.73 7.245-2.07 3.393-9.085-5.463v30.475h9.775v3.91H224.27zM154.683 310.37v-3.795h5.117v-11.27h4.198l.402 11.27h11.443l-10.58-25.07 3.967-1.725 11.673 27.14v3.45h-16.445v9.66H159.8v-9.66zM135.098 279.78c4.025 0 7.877 1.38 11.212 4.6l-2.587 2.933c-2.645-2.473-5.003-3.68-8.395-3.68-4.198 0-7.533 2.357-7.533 6.727 0 4.773 3.738 6.958 7.533 6.958h2.357l.575 3.795h-3.335c-4.657 0-8.222 1.84-8.222 7.532 0 4.945 3.277 8.108 8.855 8.108 3.22 0 6.555-1.323 8.797-3.968l3.22 2.645c-2.99 3.68-7.705 5.233-12.132 5.233-8.165 0-13.743-5.175-13.743-12.018 0-6.152 4.37-9.372 9.028-9.717-4.198-.805-7.763-4.428-7.763-9.2 0-5.405 4.715-9.948 12.133-9.948zM100.62 279.78c5.348 0 8.913 1.898 12.075 5.693l-3.335 2.53c-2.53-2.933-4.657-4.198-8.567-4.198-4.428 0-7.073 2.76-7.073 7.188 0 6.497 3.22 10.81 18.17 25.127v3.91H88.373l-.575-4.082h18.63c-13.053-11.903-17.71-17.825-17.71-25.07 0-6.325 4.427-11.098 11.902-11.098zM51.882 316.12h8.28v-35.65h4.198l11.73 7.245-2.07 3.393-9.085-5.463v30.475h9.775v3.91H51.882z"/></g><g fill="#FFF" fill-opacity=".196"><path d="M698.526 391.936v-2.695c-2.539-.247-4.31-.657-5.312-1.23-1.003-.586-1.752-1.96-2.246-4.121h-2.774v27.851h3.75v-19.805h6.582zM676.26 391.936v-2.695c-2.539-.247-4.31-.657-5.312-1.23-1.003-.586-1.751-1.96-2.246-4.121h-2.774v27.851h3.75v-19.805h6.582zM645.48 411.741c-.131-2.409-.626-4.505-1.485-6.289-.873-1.784-2.565-3.405-5.078-4.863l-3.75-2.168c-1.68-.977-2.858-1.81-3.535-2.5-1.068-1.08-1.602-2.318-1.602-3.711 0-1.628.488-2.917 1.465-3.867.976-.964 2.279-1.446 3.906-1.446 2.409 0 4.076.912 5 2.735.495.976.768 2.33.82 4.062h3.575c-.04-2.435-.489-4.42-1.348-5.957-1.523-2.708-4.212-4.062-8.066-4.062-3.204 0-5.54.866-7.012 2.597-1.484 1.732-2.227 3.66-2.227 5.782 0 2.24.788 4.153 2.364 5.742.911.924 2.545 2.044 4.902 3.36l2.676 1.484c1.276.703 2.278 1.373 3.008 2.011 1.302 1.133 2.122 2.39 2.46 3.77H626.28v3.32h19.2zM614.073 412.503c3.307 0 5.71-.905 7.207-2.715 1.484-1.823 2.227-4.036 2.227-6.64h-3.672c-.157 1.81-.495 3.124-1.016 3.945-.911 1.471-2.559 2.207-4.941 2.207-1.85 0-3.334-.495-4.453-1.485-1.12-.99-1.68-2.265-1.68-3.828 0-1.927.592-3.274 1.777-4.043 1.172-.768 2.806-1.152 4.903-1.152.234 0 .475.006.722.02.235 0 .475.006.723.019v-3.105c-.365.039-.67.065-.918.078-.247.013-.514.02-.8.02-1.316 0-2.397-.21-3.243-.626-1.484-.729-2.227-2.031-2.227-3.906 0-1.393.495-2.467 1.485-3.223.99-.755 2.142-1.133 3.457-1.133 2.344 0 3.965.782 4.863 2.344.495.86.775 2.084.84 3.672h3.476c0-2.083-.416-3.854-1.25-5.312-1.432-2.605-3.951-3.907-7.558-3.907-2.852 0-5.059.638-6.621 1.914-1.563 1.263-2.344 3.1-2.344 5.508 0 1.719.462 3.112 1.387 4.18.573.664 1.315 1.185 2.226 1.562-1.471.404-2.617 1.185-3.437 2.344-.834 1.146-1.25 2.552-1.25 4.219 0 2.67.879 4.844 2.637 6.523 1.757 1.68 4.25 2.52 7.48 2.52zM586.163 404.612c-.235 2.005-1.166 3.392-2.793 4.16-.833.391-1.797.586-2.89.586-2.084 0-3.627-.664-4.63-1.992-1.002-1.328-1.504-2.8-1.504-4.414 0-1.953.6-3.463 1.797-4.531 1.185-1.068 2.611-1.602 4.278-1.602 1.21 0 2.252.235 3.125.703a6.706 6.706 0 012.207 1.954l3.047-.176-2.13-15.059h-14.53v3.399h11.894l1.191 7.773c-.65-.495-1.27-.866-1.855-1.113-1.042-.43-2.246-.645-3.613-.645-2.566 0-4.74.827-6.524 2.48-1.784 1.654-2.676 3.75-2.676 6.29 0 2.643.82 4.974 2.461 6.992 1.628 2.018 4.232 3.027 7.813 3.027 2.278 0 4.297-.638 6.054-1.914 1.745-1.289 2.722-3.261 2.93-5.918h-3.652zM557.96 395.491c-1.55 0-2.76-.43-3.633-1.289-.872-.872-1.309-1.907-1.309-3.105 0-1.042.417-1.999 1.25-2.871.834-.873 2.103-1.309 3.809-1.309 1.693 0 2.917.436 3.672 1.309.755.872 1.133 1.894 1.133 3.066 0 1.315-.489 2.344-1.465 3.086-.977.742-2.13 1.113-3.457 1.113zm-.215 13.848c-1.628 0-2.975-.436-4.043-1.309-1.08-.885-1.621-2.2-1.621-3.945 0-1.81.553-3.184 1.66-4.121 1.107-.938 2.526-1.406 4.258-1.406 1.68 0 3.053.481 4.12 1.445 1.056.95 1.583 2.272 1.583 3.965 0 1.458-.482 2.721-1.445 3.789-.977 1.054-2.48 1.582-4.512 1.582zm5-12.5c.976-.417 1.738-.905 2.285-1.465 1.029-1.042 1.543-2.396 1.543-4.063 0-2.083-.755-3.873-2.266-5.37-1.51-1.498-3.652-2.247-6.425-2.247-2.683 0-4.786.71-6.309 2.13-1.523 1.405-2.285 3.053-2.285 4.94 0 1.745.443 3.158 1.328 4.239.495.612 1.263 1.21 2.305 1.797-1.16.534-2.07 1.146-2.735 1.836-1.237 1.302-1.855 2.995-1.855 5.078 0 2.46.827 4.55 2.48 6.27 1.654 1.705 3.991 2.558 7.012 2.558 2.721 0 5.026-.736 6.914-2.207 1.875-1.484 2.813-3.633 2.813-6.445 0-1.654-.404-3.08-1.211-4.278-.808-1.21-2.006-2.135-3.594-2.773z"/></g><g fill="#FFF" fill-opacity=".196"><path d="M511.297 392.969v-2.696c-2.54-.247-4.31-.657-5.313-1.23-1.002-.586-1.751-1.96-2.246-4.121h-2.773v27.851h3.75V392.97h6.582zM482.469 413.535c3.307 0 5.71-.905 7.207-2.715 1.484-1.823 2.226-4.036 2.226-6.64h-3.672c-.156 1.81-.495 3.125-1.015 3.945-.912 1.471-2.559 2.207-4.942 2.207-1.849 0-3.333-.495-4.453-1.484-1.12-.99-1.68-2.266-1.68-3.828 0-1.928.593-3.275 1.778-4.043 1.172-.769 2.806-1.153 4.902-1.153.234 0 .475.007.723.02.234 0 .475.006.722.02v-3.106c-.364.039-.67.065-.918.078-.247.013-.514.02-.8.02-1.315 0-2.396-.209-3.243-.626-1.484-.729-2.226-2.03-2.226-3.906 0-1.393.495-2.467 1.484-3.222.99-.756 2.142-1.133 3.457-1.133 2.344 0 3.965.781 4.864 2.344.494.859.774 2.083.84 3.671h3.476c0-2.083-.417-3.854-1.25-5.312-1.432-2.604-3.952-3.906-7.559-3.906-2.851 0-5.058.638-6.62 1.914-1.563 1.263-2.344 3.099-2.344 5.508 0 1.718.462 3.111 1.386 4.18.573.663 1.315 1.184 2.227 1.562-1.472.403-2.617 1.185-3.438 2.343-.833 1.146-1.25 2.553-1.25 4.22 0 2.668.88 4.843 2.637 6.523 1.758 1.68 4.251 2.52 7.48 2.52zM469.344 412.773c-.13-2.408-.625-4.505-1.485-6.289-.872-1.783-2.565-3.405-5.078-4.863l-3.75-2.168c-1.68-.976-2.858-1.81-3.535-2.5-1.068-1.08-1.602-2.318-1.602-3.71 0-1.628.489-2.917 1.465-3.868.977-.964 2.279-1.445 3.906-1.445 2.41 0 4.076.911 5 2.734.495.977.769 2.33.82 4.063h3.575c-.04-2.435-.488-4.421-1.348-5.957-1.523-2.709-4.212-4.063-8.066-4.063-3.203 0-5.54.866-7.012 2.598-1.484 1.731-2.226 3.659-2.226 5.78 0 2.24.787 4.155 2.363 5.743.911.925 2.545 2.044 4.902 3.36l2.676 1.484c1.276.703 2.279 1.374 3.008 2.012 1.302 1.132 2.122 2.389 2.46 3.77h-15.273v3.32h19.2zM444.5 392.969v-2.696c-2.54-.247-4.31-.657-5.313-1.23-1.002-.586-1.751-1.96-2.246-4.121h-2.773v27.851h3.75V392.97h6.582zM404.578 413.535c3.307 0 5.71-.905 7.207-2.715 1.484-1.823 2.226-4.036 2.226-6.64h-3.671c-.157 1.81-.495 3.125-1.016 3.945-.911 1.471-2.559 2.207-4.941 2.207-1.85 0-3.334-.495-4.454-1.484-1.12-.99-1.68-2.266-1.68-3.828 0-1.928.593-3.275 1.778-4.043 1.172-.769 2.806-1.153 4.902-1.153.235 0 .476.007.723.02.234 0 .475.006.723.02v-3.106c-.365.039-.67.065-.918.078-.248.013-.515.02-.801.02-1.315 0-2.396-.209-3.242-.626-1.485-.729-2.227-2.03-2.227-3.906 0-1.393.495-2.467 1.485-3.222.99-.756 2.142-1.133 3.457-1.133 2.343 0 3.965.781 4.863 2.344.495.859.775 2.083.84 3.671h3.476c0-2.083-.416-3.854-1.25-5.312-1.432-2.604-3.951-3.906-7.558-3.906-2.852 0-5.059.638-6.621 1.914-1.563 1.263-2.344 3.099-2.344 5.508 0 1.718.462 3.111 1.387 4.18.573.663 1.315 1.184 2.226 1.562-1.471.403-2.617 1.185-3.437 2.343-.834 1.146-1.25 2.553-1.25 4.22 0 2.668.879 4.843 2.636 6.523 1.758 1.68 4.252 2.52 7.48 2.52zM379.48 402.871v-12.676l8.965 12.676h-8.965zm-.058 9.902v-6.835h12.265V402.5l-12.812-17.773h-2.969v18.144h-4.121v3.067h4.121v6.835h3.516zM365.496 405.645c-.235 2.005-1.166 3.391-2.793 4.16-.833.39-1.797.586-2.89.586-2.084 0-3.627-.664-4.63-1.993-1.002-1.328-1.504-2.799-1.504-4.414 0-1.953.6-3.463 1.797-4.53 1.185-1.069 2.611-1.602 4.278-1.602 1.21 0 2.252.234 3.125.703a6.706 6.706 0 012.207 1.953l3.047-.176-2.13-15.059h-14.53v3.399h11.894l1.191 7.773c-.65-.494-1.27-.866-1.855-1.113-1.042-.43-2.246-.644-3.613-.644-2.566 0-4.74.826-6.524 2.48-1.784 1.654-2.676 3.75-2.676 6.289 0 2.643.82 4.974 2.461 6.992 1.628 2.018 4.232 3.028 7.813 3.028 2.278 0 4.297-.638 6.055-1.914 1.744-1.29 2.72-3.262 2.93-5.918h-3.653zM343.23 405.645c-.234 2.005-1.165 3.391-2.793 4.16-.833.39-1.797.586-2.89.586-2.084 0-3.627-.664-4.63-1.993-1.002-1.328-1.503-2.799-1.503-4.414 0-1.953.599-3.463 1.797-4.53 1.185-1.069 2.61-1.602 4.277-1.602 1.211 0 2.253.234 3.125.703a6.706 6.706 0 012.207 1.953l3.047-.176-2.129-15.059h-14.531v3.399H341.1l1.192 7.773c-.651-.494-1.27-.866-1.856-1.113-1.041-.43-2.246-.644-3.613-.644-2.565 0-4.74.826-6.523 2.48-1.784 1.654-2.676 3.75-2.676 6.289 0 2.643.82 4.974 2.46 6.992 1.628 2.018 4.232 3.028 7.813 3.028 2.279 0 4.297-.638 6.055-1.914 1.745-1.29 2.721-3.262 2.93-5.918h-3.653z"/></g><path fill="#000" d="M0 154h750V52H0z"/><path fill="#FFF" d="M16 177h562v80H16z"/><g fill="#000"><path d="M498.85 230.6h-7.2v-31H488l-10.2 6.3 1.8 2.95 7.9-4.75v26.5H479v3.4h19.85zM516.43 199c-4.65 0-7.75 1.65-10.5 4.95l2.9 2.2c2.2-2.55 4.05-3.65 7.45-3.65 3.85 0 6.15 2.4 6.15 6.25 0 5.65-2.8 9.4-15.8 21.85v3.4h20.45l.5-3.55h-16.2c11.35-10.35 15.4-15.5 15.4-21.8 0-5.5-3.85-9.65-10.35-9.65zM546.41 199c-3.5 0-6.85 1.2-9.75 4l2.25 2.55c2.3-2.15 4.35-3.2 7.3-3.2 3.65 0 6.55 2.05 6.55 5.85 0 4.15-3.25 6.05-6.55 6.05h-2.05l-.5 3.3h2.9c4.05 0 7.15 1.6 7.15 6.55 0 4.3-2.85 7.05-7.7 7.05-2.8 0-5.7-1.15-7.65-3.45l-2.8 2.3c2.6 3.2 6.7 4.55 10.55 4.55 7.1 0 11.95-4.5 11.95-10.45 0-5.35-3.8-8.15-7.85-8.45 3.65-.7 6.75-3.85 6.75-8 0-4.7-4.1-8.65-10.55-8.65z"/></g><rect fill-opacity=".5" fill="#FFF" x="16" y="310" width="133" height="95" rx="25"/></g></svg>