<svg width="750" height="471" viewBox="0 0 750 471" xmlns="http://www.w3.org/2000/svg"><path d="M269.06 191.663c-10.981-52.22-57.31-91.426-112.797-91.426C92.605 100.237 41 151.842 41 215.5c0 63.658 51.605 115.263 115.263 115.263 37.271 0 70.41-17.69 91.48-45.13 11.713 19.33 33.09 26.962 55.994 26.962 24.058 0 41.242-6.874 41.242-6.874l-3.438-27.494s-17.183 5.16-34.367 5.16c-34.369 0-36.087-25.781-36.087-25.781h77.33c3.435-20.621 0-72.174-51.553-72.174-10.323 0-19.715 2.17-27.805 6.231zM40 0h670c22.091 0 40 17.909 40 40v391c0 22.091-17.909 40-40 40H40c-22.091 0-40-17.909-40-40V40C0 17.909 17.909 0 40 0zm116.263 264.873c25.78-58.441 44.685-113.033 44.685-113.033h39.525s-24.057 70.072-68.742 157.7h-30.935c-44.685-87.628-68.742-157.7-68.742-157.7h39.525s18.905 54.592 44.684 113.033zm551.782-7.267c3.437-20.621 0-72.174-51.552-72.174-34.37 0-58.426 24.058-58.426 61.863 0 48.115 30.931 65.3 65.299 65.3 24.058 0 41.243-6.874 41.243-6.874l-3.437-27.494s-17.185 5.16-34.369 5.16c-34.369 0-36.087-25.781-36.087-25.781h77.33zm-53.27-48.116c22.339 0 24.057 24.057 24.057 24.057h-48.116s1.718-24.057 24.059-24.057zm-212.441 7.258l5.155-27.495s-39.813-12.081-72.174 10.31v109.978h34.37l-.002-89.356c13.746-10.31 32.65-3.437 32.65-3.437zm-147.19-7.258c-22.339 0-24.057 24.057-24.057 24.057h48.116s-1.718-24.057-24.059-24.057zm230.66 58.834a534.672 534.672 0 0 1-25.777-80.102l-34.366.005s17.184 66.345 46.399 121.32h27.487c29.215-54.975 46.399-121.308 46.399-121.308H551.58a534.82 534.82 0 0 1-25.776 80.085z" fill="#393939" fill-rule="nonzero"/></svg>