<svg width="750" height="471" viewBox="0 0 750 471" xmlns="http://www.w3.org/2000/svg"><path d="M0 40.005C0 17.91 17.914 0 39.992 0h670.016C732.095 0 750 17.906 750 40.005v390.99C750 453.09 732.086 471 710.008 471H39.992C17.905 471 0 453.094 0 430.995V40.005zm524.513 102.683c-10.572-3.966-27.137-8.222-47.824-8.222-52.724 0-89.864 26.55-90.18 64.603-.297 28.13 26.514 43.822 46.755 53.186 20.769 9.594 27.751 15.714 27.652 24.283-.132 13.121-16.586 19.116-31.923 19.116-21.356 0-32.702-2.966-50.226-10.276l-6.875-3.111-7.49 43.824c12.464 5.464 35.51 10.198 59.439 10.443 56.089 0 92.5-26.246 92.914-66.882.202-22.268-14.014-39.216-44.798-53.188-18.651-9.055-30.073-15.099-29.952-24.268 0-8.137 9.668-16.839 30.557-16.839 17.448-.27 30.087 3.535 39.935 7.5l4.783 2.26 7.233-42.43zm136.827-4.633h-41.231c-12.774 0-22.332 3.486-27.942 16.233l-79.245 179.404h56.031s9.163-24.123 11.235-29.418c6.123 0 60.553.084 68.336.084 1.596 6.853 6.491 29.334 6.491 29.334h49.513L661.34 138.054zm-65.798 126.178c4.413-11.28 21.26-54.724 21.26-54.724-.316.522 4.38-11.333 7.074-18.683l3.608 16.877s10.216 46.73 12.351 56.528h-44.293v.002zM277.65 333.63h53.337l33.383-195.762h-53.358L277.65 333.63zm-102.562-89.263l-18.707-89.95c-3.23-12.397-12.597-16.096-24.186-16.528H46.154l-.682 4.073c20.93 5.067 39.646 12.378 56.049 21.472l47.438 170.027 56.456-.065 84.004-195.386h-56.521l-52.24 133.495-5.566-27.129-.004-.01z" fill="#393939" fill-rule="nonzero"/></svg>