<svg width="750" height="471" viewBox="0 0 750 471" xmlns="http://www.w3.org/2000/svg"><title>visa</title><path d="M0 40.005C0 17.91 17.914 0 39.992 0h670.016C732.095 0 750 17.906 750 40.005v390.99C750 453.09 732.086 471 710.008 471H39.992C17.905 471 0 453.094 0 430.995V40.005zM277.65 333.63l33.362-195.762h53.358L330.986 333.63h-53.335zm246.863-190.942c-10.572-3.966-27.137-8.222-47.824-8.222-52.724 0-89.865 26.55-90.18 64.603-.298 28.13 26.514 43.82 46.754 53.185 20.77 9.594 27.75 15.714 27.652 24.283-.132 13.12-16.586 19.116-31.923 19.116-21.356 0-32.702-2.966-50.226-10.276l-6.875-3.11-7.49 43.823c12.464 5.465 35.51 10.2 59.44 10.445 56.088 0 92.5-26.248 92.913-66.883.202-22.268-14.014-39.216-44.798-53.188-18.651-9.055-30.073-15.1-29.952-24.268 0-8.137 9.668-16.84 30.557-16.84 17.448-.27 30.087 3.536 39.935 7.5l4.783 2.26 7.233-42.43zm136.827-4.633h-41.23c-12.774 0-22.332 3.486-27.942 16.233l-79.245 179.404h56.03s9.163-24.123 11.235-29.418c6.123 0 60.553.084 68.336.084 1.596 6.853 6.49 29.334 6.49 29.334h49.514L661.34 138.054zM175.088 244.366c0 .003.002.006.004.01l5.565 27.128 52.24-133.494h56.522l-84.006 195.386-56.454.065-47.44-170.026c-16.402-9.094-35.118-16.405-56.047-21.47l.68-4.075h86.04c11.59.43 20.958 4.13 24.188 16.527l18.708 89.95zm420.455 19.866c4.413-11.28 21.26-54.724 21.26-54.724-.317.52 4.38-11.334 7.073-18.684l3.608 16.877s10.216 46.73 12.35 56.528h-44.29v.002z" fill="#393939" fill-rule="evenodd"/></svg>