<svg width="750" height="471" xmlns="http://www.w3.org/2000/svg"><g fill="none" fill-rule="evenodd"><path d="M0 40.005C0 17.91 17.914 0 39.992 0h670.016C732.095 0 750 17.906 750 40.005v390.99C750 453.09 732.086 471 710.008 471H39.992C17.905 471 0 453.094 0 430.995V40.005z" fill="#393939"/><path d="M524.513 142.688c-10.572-3.966-27.136-8.222-47.823-8.222-52.724 0-89.864 26.55-90.18 64.603-.297 28.13 26.514 43.822 46.754 53.186 20.769 9.595 27.752 15.715 27.653 24.283-.132 13.122-16.586 19.117-31.923 19.117-21.357 0-32.703-2.967-50.226-10.276l-6.876-3.112-7.49 43.824c12.464 5.464 35.51 10.199 59.439 10.444 56.089 0 92.5-26.248 92.915-66.882.2-22.27-14.015-39.217-44.8-53.188-18.65-9.056-30.072-15.1-29.952-24.27 0-8.136 9.668-16.837 30.558-16.837 17.448-.271 30.087 3.534 39.935 7.5l4.782 2.259 7.233-42.43zM661.34 138.054h-41.231c-12.774 0-22.332 3.486-27.942 16.234l-79.245 179.403h56.031s9.163-24.121 11.235-29.417c6.123 0 60.553.083 68.336.083 1.596 6.853 6.491 29.334 6.491 29.334h49.513L661.34 138.054z" fill="#FFF"/><path d="M595.543 264.232c4.413-11.279 21.259-54.723 21.259-54.723-.316.521 4.38-11.334 7.074-18.684l3.608 16.878s10.216 46.73 12.351 56.528h-44.293v.001z" fill="#393939"/><path fill="#FFF" fill-rule="nonzero" d="M277.65 333.63l33.362-195.762h53.358L330.986 333.63z"/><path d="M175.088 244.367l.004.01 5.565 27.129 52.24-133.495h56.522l-84.004 195.385-56.455.065-47.44-170.027c-16.402-9.094-35.118-16.405-56.048-21.471l.681-4.073h86.041c11.59.432 20.958 4.13 24.188 16.527l18.706 89.95z" fill="#FFF"/></g></svg>