<svg width="750" height="472" viewBox="0 0 750 472" xmlns="http://www.w3.org/2000/svg"><title>amex</title><path d="M0 41.005C0 18.91 17.914 1 39.992 1h670.016C732.095 1 750 18.906 750 41.005v390.99C750 454.09 732.086 472 710.008 472H39.992C17.905 472 0 454.094 0 431.995V41.005zm.003 180.9H36.03l8.122-19.51h18.186l8.102 19.51h70.884V206.99l6.328 14.98h36.797l6.327-15.203v15.14h176.16l-.08-32.028h3.407c2.387.08 3.084.3 3.084 4.225v27.8h91.11v-7.455c7.35 3.922 18.78 7.456 33.82 7.456h38.332l8.203-19.51H563l8.02 19.51h73.865v-18.533l11.186 18.533h59.192V99.392h-58.58v14.47l-8.202-14.47h-60.108v14.47l-7.533-14.47h-81.193c-13.59 0-25.538 1.89-35.188 7.154v-7.154h-56.03v7.154c-6.142-5.427-14.51-7.154-23.814-7.154H179.918l-13.734 31.643-14.105-31.643H87.603v14.47l-7.082-14.47H25.535L0 157.642v64.264h.003zm227.657-17.253h-21.616l-.08-68.797-30.574 68.797h-18.514l-30.654-68.858v68.858H83.337l-8.102-19.593H31.333l-8.185 19.592H.248l37.758-87.842h31.327l35.86 83.17v-83.17h34.415l27.595 59.59 25.348-59.59h35.107v87.842h.003zM67.622 166.748l-14.43-35.02-14.35 35.02h28.78zm246.19 37.904h-70.438V116.81h70.437v18.292h-49.35v15.834h48.167v18.006H264.46v17.543h49.35v18.167zm99.314-64.184c0 14.005-9.388 21.24-14.858 23.413 4.614 1.75 8.554 4.84 10.43 7.4 2.977 4.368 3.49 8.27 3.49 16.116v17.256h-21.266l-.08-11.077c0-5.286.508-12.888-3.33-17.114-3.08-3.088-7.776-3.758-15.367-3.758H349.51v31.95h-21.083V116.81h48.497c10.776 0 18.715.283 25.532 4.207 6.67 3.924 10.67 9.653 10.67 19.45zm-27.574 12.336c-2.897 1.75-6.324 1.81-10.43 1.81h-25.614V135.1h25.963c3.675 0 7.51.165 10 1.585 2.735 1.28 4.427 4.003 4.427 7.765 0 3.84-1.61 6.93-4.345 8.352zm61.317 51.848h-21.516V116.81h21.515v87.842zm249.596 0h-29.88l-39.967-65.93v65.93h-42.942l-8.206-19.593h-43.8l-7.96 19.592h-24.674c-10.25 0-23.226-2.257-30.575-9.715-7.41-7.46-11.265-17.562-11.265-33.536 0-13.026 2.304-24.936 11.366-34.347 6.817-7.01 17.492-10.243 32.022-10.243H521v18.822h-19.985c-7.695 0-12.04 1.14-16.225 5.204-3.595 3.7-6.062 10.69-6.062 19.898 0 9.41 1.88 16.196 5.798 20.63 3.246 3.475 9.145 4.53 14.695 4.53h9.47l29.718-69.08h31.594l35.7 83.085v-83.087h32.103l37.064 61.177v-61.177h21.596v87.84zm-128.18-37.904l-14.592-35.02-14.51 35.02h29.102zM750 344.518c-5.122 7.46-15.102 11.24-28.613 11.24h-40.72v-18.84h40.555c4.023 0 6.838-.528 8.533-2.176 1.468-1.36 2.493-3.334 2.493-5.73 0-2.56-1.025-4.593-2.576-5.812-1.53-1.34-3.757-1.95-7.43-1.95-19.797-.67-44.497.61-44.497-27.195 0-12.744 8.126-26.158 30.253-26.158h42v-17.482h-39.023c-11.776 0-20.33 2.81-26.39 7.175v-7.175h-57.718c-9.23 0-20.065 2.28-25.19 7.175v-7.175h-103.07v7.175c-8.203-5.893-22.044-7.175-28.433-7.175h-67.987v7.175c-6.49-6.258-20.92-7.175-29.717-7.175h-76.09l-17.41 18.764-16.308-18.765h-113.66v122.6h111.52l17.942-19.062 16.9 19.06 68.743.062v-28.84h6.758c9.12.14 19.88-.225 29.37-4.31v33.086h56.7V341.06h2.735c3.49 0 3.834.143 3.834 3.617v28.334h172.244c10.936 0 22.367-2.79 28.696-7.847v7.846h54.636c11.37 0 22.472-1.588 30.92-5.653v-22.84zM408.517 296.84c0 24.408-18.287 29.447-36.718 29.447h-26.31v29.47h-40.983l-25.964-29.086-26.982 29.088h-83.52v-87.864h84.806l25.942 28.8 26.82-28.8h67.375c16.733 0 35.534 4.613 35.534 28.946zm-167.63 40.607h-51.842v-17.482h46.29v-17.927h-46.29v-15.974h52.863l23.063 25.605-24.084 25.777zm83.602 10.32l-32.374-35.79 32.373-34.653v70.443zm48.248-39.325H345.49v-22.375h27.493c7.613 0 12.897 3.09 12.897 10.773 0 7.6-5.04 11.602-13.142 11.602zm142.26-40.548h70.375v18.17h-49.375v15.974h48.17v17.927h-48.17v17.482l49.375.08v18.23H515v-87.863zm-26.635 47.032c4.693 1.725 8.53 4.817 10.33 7.376 2.976 4.29 3.407 8.293 3.492 16.038v17.418h-21.168v-10.993c0-5.286.51-13.113-3.41-17.198-3.08-3.148-7.776-3.9-15.468-3.9h-22.535v32.09h-21.187v-87.863h48.68c10.675 0 18.45.47 25.37 4.146 6.655 4.004 10.84 9.488 10.84 19.512-.002 14.024-9.395 21.18-14.945 23.374zM475.63 303.99c-2.822 1.668-6.31 1.81-10.413 1.81h-25.615v-19.733h25.964c3.754 0 7.51.08 10.063 1.587 2.73 1.423 4.365 4.144 4.365 7.904s-1.634 6.788-4.366 8.433zm190.262 5.427c4.105 4.232 6.306 9.573 6.306 18.616 0 18.902-11.86 27.725-33.124 27.725h-41.068v-18.84h40.903c3.998 0 6.835-.528 8.612-2.176 1.45-1.36 2.49-3.334 2.49-5.73 0-2.56-1.125-4.593-2.572-5.812-1.613-1.34-3.837-1.95-7.51-1.95-19.718-.67-44.412.61-44.412-27.195 0-12.744 8.04-26.158 30.146-26.158h42.27v18.7h-38.678c-3.834 0-6.327.143-8.448 1.587-2.31 1.423-3.166 3.535-3.166 6.322 0 3.314 1.96 5.57 4.614 6.544 2.224.77 4.614.996 8.206.996l11.35.305c11.447.28 19.304 2.25 24.08 7.067zM750 286.592h-38.43c-3.836 0-6.385.143-8.532 1.587-2.224 1.422-3.08 3.533-3.08 6.32 0 3.315 1.878 5.57 4.61 6.545 2.224.77 4.614.996 8.126.996l11.428.306c11.53.283 19.23 2.257 23.922 7.07.854.672 1.368 1.424 1.956 2.177v-25z" fill="#393939" fill-rule="evenodd"/></svg>