<svg width="750" height="471" viewBox="0 0 750 471" xmlns="http://www.w3.org/2000/svg"><title>jcb</title><g fill="none" fill-rule="evenodd"><rect width="750" height="471" rx="40" fill="#393939"/><g fill="#FFF"><path d="M196.617 264.053c-5.7-1.696-17.43-7.105-17.43-7.105l-.12-126.28s-.624-14.107 14.895-28.7c15.518-14.59 32.43-13.65 32.43-13.65h72.994l-.167 242.77s1.106 18.07-12.245 32.895c-14.876 17.154-36.02 16.265-36.02 16.265h-71.746V277.886l26.697 4.708s10.282 1.03 20.485 1.24c8.943.183 17.246-.603 22.756-1.46 10.54-1.64 15.984-3.075 25.96-9.025 14.866-10.86 14.195-27.538 14.195-27.538l-.388-58.396-41.557.233v57.39s.39 10.766-8.134 17.43c-3.737 2.92-9.18 5.586-19.327 5.586-7.217 0-16.943-2.12-23.28-4.003zM314.85 202.556v-64.33s-.74-18.808 13.146-33.227c13.886-14.42 31.95-14.98 31.95-14.98h75.16v243.975s.92 17.925-13.695 32.775c-14.56 14.795-30.64 14.88-30.64 14.88h-75.92V269.61s10.05 10.637 38.544 14.662c13.376 1.89 29.2 1.604 42.208 0 14.702-1.814 25.81-5.112 25.81-5.112l-.303-20.31s-5.276 3.227-21.396 8.134c-16.12 4.908-56.397 7.14-57.517-29.448-1.12-36.587 33.19-36.912 48.573-34.98 15.384 1.933 30.64 10.248 30.64 10.248v-19.858s-19.417-4.4-27.696-5.31c-10.21-1.12-24.602-2.334-46.64.92-22.037 3.252-32.223 14-32.223 14zM448.91 281.18v98.955h75.47s17.32-1.655 27.44-11.667c16.467-12.624 17.206-32.842 17.206-32.842V88.308h-71.97s-19.194-.598-33.985 14.364c-14.79 14.96-14.16 32.39-14.16 32.39v52.558h73.21s6.726.112 13.37 2.742c5.257 2.08 10.392 5.844 12.598 11.64 4.97 13.02-2.545 22.387-6.388 24.934-5.06 4.406-14.115 5.747-14.115 5.747s13.103 1.33 20.503 8.075c2.446 2.184 5.26 5.84 6.397 9.5 1.496 4.826.9 9.526.9 9.526s-.9 8.28-7.807 13.88c-2.947 2.39-6.95 4.587-11.01 5.772-5.457 1.592-10.707 1.745-10.707 1.745h-76.95z"/><path d="M472.97 203.26v23.784h25.972s12.17-.035 12.17-11.91-12.17-11.875-12.17-11.875H472.97zM500.75 241.014h-27.78v25.555h27.78c.08 0 13.696.79 13.696-12.78s-13.696-12.776-13.696-12.776z"/></g></g></svg>