<svg width="750" height="471" viewBox="0 0 750 471" xmlns="http://www.w3.org/2000/svg"><title>jcb</title><path d="M0 40.005C0 17.91 17.914 0 39.992 0h670.016C732.095 0 750 17.906 750 40.005v390.99C750 453.09 732.086 471 710.008 471H39.992C17.905 471 0 453.094 0 430.995V40.005zm474.91 201.52H503.782l.08.003c.15.003.31.01.48.02.153.007.313.018.477.03.158.012.32.025.48.04.16.015.32.03.477.048.165.02.326.038.48.06.17.022.33.046.477.07.106.018.204.037.29.055l.19.044c.16.037.32.078.478.122.16.044.32.09.478.142.16.05.32.105.48.163.16.06.32.12.477.185.16.066.32.135.48.208.16.073.32.15.477.23.16.082.32.168.478.257.16.09.32.186.48.284.16.1.32.204.477.312.162.11.322.225.478.343.162.122.322.248.48.38.16.134.32.274.477.418.164.15.323.303.48.462.163.167.322.34.477.516.165.188.324.38.478.578.166.213.326.432.48.656.166.246.326.498.477.757.17.292.33.593.478.9.176.367.337.743.48 1.13.19.522.35 1.06.477 1.618.22.966.337 1.983.337 3.045 0 1.067-.117 2.09-.337 3.058-.126.56-.286 1.1-.478 1.62-.144.39-.304.767-.48 1.134-.148.308-.307.61-.478.902-.15.26-.31.51-.478.757-.153.226-.313.444-.48.657-.153.198-.312.39-.477.578-.155.177-.314.35-.478.516-.157.16-.317.313-.48.463-.156.143-.316.282-.478.417-.157.13-.316.256-.48.38-.155.116-.315.23-.477.34-.157.108-.317.212-.478.312-.158.097-.318.192-.48.282-.156.088-.316.173-.477.255-.158.078-.317.155-.478.228-.16.072-.318.14-.48.206-.157.064-.317.125-.477.182-.16.057-.318.11-.48.16-.157.05-.317.097-.477.14-.16.044-.318.084-.478.12l-.19.043c-.086.02-.184.04-.29.057-.145.026-.306.05-.477.074-.153.022-.314.04-.48.06-.156.017-.316.033-.477.047-.16.015-.32.028-.48.04l-.477.03c-.17.008-.33.014-.48.018l-.256.003H474.91v-26.152zm38.52-29.598c.193.878.296 1.807.296 2.787 0 .977-.103 1.906-.296 2.783-.123.564-.284 1.106-.478 1.625-.142.38-.302.746-.48 1.1-.146.297-.306.585-.477.864-.15.247-.31.486-.478.72-.154.21-.313.416-.48.615-.153.187-.312.367-.477.542-.155.164-.314.323-.478.477-.156.146-.315.29-.48.426-.155.132-.315.26-.477.382-.157.12-.316.234-.478.345-.157.107-.317.21-.48.31-.156.097-.316.19-.477.28-.158.086-.317.17-.478.25-.158.08-.318.154-.48.226-.157.07-.316.135-.477.2-.16.06-.318.12-.48.176-.157.055-.316.107-.477.156-.16.048-.318.093-.48.134-.157.042-.316.08-.477.115-.157.035-.317.066-.477.095l-.116.02c-.093.017-.217.035-.363.054-.14.017-.303.035-.478.053-.15.015-.312.03-.478.044-.157.013-.318.025-.48.035-.16.01-.32.02-.477.025-.165.007-.326.01-.477.012H474.91v-24.134H501.193l.277.01c.158.006.32.015.48.026.16.01.32.022.478.034.166.014.327.03.478.044.175.017.337.034.478.05.146.017.27.033.363.046l.116.02c.16.03.32.062.478.097.162.035.32.074.48.115.16.043.32.088.478.136.16.05.32.102.478.157.16.057.32.116.48.18.16.063.32.13.477.2.16.073.32.148.48.226.16.08.32.164.477.252.16.09.32.183.478.28.162.1.322.202.48.31.16.11.32.226.477.345.162.123.322.25.478.382.164.138.323.28.48.427.163.155.322.314.477.478.165.174.324.355.478.54.166.2.325.406.48.618.166.232.326.47.477.718.17.28.33.567.478.864.177.354.337.722.48 1.1.193.52.354 1.063.477 1.627zm59.327-125.14h.196v247.856c0 1.48-.07 2.946-.196 4.394-.112 1.274-.272 2.534-.48 3.78-.138.835-.297 1.664-.477 2.486-.146.668-.306 1.332-.48 1.99-.148.567-.308 1.13-.477 1.69-.153.506-.31 1.01-.48 1.51-.15.452-.312.9-.477 1.348-.154.417-.314.83-.48 1.24-.153.387-.313.77-.477 1.15-.156.362-.316.72-.48 1.077-.155.34-.315.677-.478 1.012-.156.32-.315.64-.478.958-.157.304-.316.607-.48.907-.155.29-.315.575-.477.86-.157.277-.317.552-.478.824-.16.265-.318.53-.48.792-.158.255-.317.51-.48.763-.156.244-.316.486-.477.727-.157.236-.318.468-.48.7-.156.228-.316.456-.477.68-.158.22-.317.44-.48.657-.156.21-.317.42-.477.628-.16.206-.318.412-.48.615-.158.2-.317.397-.478.594-.158.192-.318.383-.478.573-.16.188-.317.376-.48.562-.157.18-.317.36-.477.54-.158.176-.318.352-.48.526-.158.172-.316.344-.477.514-.158.166-.32.33-.48.494-.158.164-.316.328-.477.49-.158.156-.32.31-.48.466-.158.154-.316.31-.477.46-.16.15-.318.3-.48.446-.157.147-.317.292-.477.436-.16.143-.32.284-.48.424-.158.14-.318.276-.478.413-.16.137-.318.272-.478.406l-.48.39c-.158.13-.317.26-.477.386-.16.125-.32.248-.48.37-.158.124-.317.246-.477.367-.158.118-.32.235-.48.352-.158.117-.317.235-.477.35-.16.113-.32.223-.48.335-.158.11-.317.223-.477.332l-.48.318-.477.315c-.16.103-.32.204-.48.304l-.478.3-.478.29-.48.282c-.158.092-.317.185-.477.276-.16.09-.32.18-.48.268-.158.088-.317.178-.477.264-.16.086-.32.17-.48.253-.16.085-.317.17-.478.253-.158.082-.318.16-.478.24l-.478.236c-.16.076-.32.15-.48.227l-.477.223-.48.217-.478.21c-.16.07-.318.14-.478.207-.16.067-.32.13-.48.196-.16.065-.317.132-.477.195-.16.063-.32.123-.48.185-.158.06-.317.122-.477.18l-.48.178c-.158.057-.318.113-.478.168-.16.056-.317.114-.478.168-.158.054-.32.104-.478.156l-.48.155c-.158.05-.318.1-.477.147l-.48.143-.478.14-.478.13-.48.13-.477.12-.48.116-.477.115c-.16.036-.32.07-.48.104-.158.034-.317.07-.478.104l-.478.095-.478.09c-.16.03-.32.063-.48.09-.158.03-.318.053-.477.08l-.48.08-.478.07-.48.068c-.158.022-.317.047-.477.067-.16.02-.32.036-.478.055-.16.02-.32.038-.48.055l-.477.05-.48.042c-.16.014-.318.03-.478.042l-.478.033-.478.03-.48.03c-.158.007-.318.01-.477.017l-.48.018-.478.013c-.16.004-.32.005-.48.007l-.477.006H450.68v-101.06H527.774l.48-.005.478-.01c.16-.004.32-.006.48-.012.16-.005.317-.013.477-.02l.478-.022.48-.03.477-.032.48-.037.477-.044c.16-.014.32-.03.48-.046.16-.016.318-.035.477-.054l.478-.058c.16-.02.32-.04.48-.063.16-.023.318-.048.478-.07l.478-.075.48-.08.477-.087c.16-.03.32-.058.48-.09.16-.032.318-.066.477-.1l.478-.102c.16-.036.32-.072.48-.11.16-.037.318-.077.477-.116.16-.04.32-.08.48-.122.158-.042.32-.085.477-.13.16-.043.32-.09.478-.135l.48-.142.478-.15c.16-.05.32-.103.478-.157.16-.054.32-.108.48-.164.16-.057.32-.113.477-.172.16-.06.32-.12.48-.182.16-.06.318-.124.477-.188l.478-.195.48-.207c.16-.07.32-.142.477-.215.16-.073.32-.147.48-.223.16-.077.32-.154.477-.233.16-.08.32-.162.478-.245.16-.085.32-.17.48-.257.16-.088.32-.176.478-.266.16-.09.32-.184.478-.278.16-.096.32-.192.48-.29.16-.1.32-.202.477-.304.16-.105.32-.21.48-.32.16-.108.32-.22.477-.33.16-.116.32-.232.478-.35.162-.12.32-.24.48-.363.16-.126.32-.253.477-.382.162-.13.32-.265.48-.4.16-.14.32-.28.477-.422.162-.146.32-.295.48-.445.16-.155.32-.31.477-.47.164-.164.323-.33.48-.498.162-.174.32-.35.478-.528.163-.185.322-.373.48-.563.162-.198.32-.398.477-.6.163-.213.324-.427.48-.645.163-.232.32-.467.477-.704.164-.252.324-.506.48-.764.164-.277.324-.558.477-.843.165-.31.326-.624.477-.943.17-.355.33-.717.48-1.083.17-.42.33-.847.477-1.28.18-.535.34-1.08.48-1.635.203-.812.363-1.644.477-2.497.14-1.035.213-2.098.213-3.19 0-1.064-.072-2.098-.212-3.1-.113-.826-.274-1.63-.477-2.412-.14-.532-.3-1.056-.48-1.57-.145-.42-.305-.834-.477-1.24-.15-.354-.31-.7-.48-1.043-.15-.308-.31-.61-.477-.91-.155-.275-.314-.547-.48-.815-.153-.25-.314-.494-.478-.736-.155-.228-.314-.455-.478-.677-.155-.21-.316-.418-.48-.623-.155-.196-.314-.39-.477-.58-.157-.183-.316-.365-.48-.544-.156-.172-.315-.342-.477-.51-.157-.16-.317-.32-.48-.48-.156-.152-.316-.303-.477-.452-.158-.144-.317-.286-.48-.427-.156-.138-.316-.274-.477-.408-.158-.13-.317-.26-.48-.388-.156-.124-.316-.248-.477-.37-.16-.118-.32-.235-.48-.35-.157-.115-.317-.227-.478-.338-.158-.11-.317-.216-.478-.322-.16-.104-.318-.207-.48-.308-.157-.1-.316-.197-.477-.294-.158-.095-.318-.19-.48-.28-.157-.092-.317-.18-.477-.27-.158-.087-.318-.173-.48-.257-.157-.085-.317-.167-.478-.25-.158-.08-.317-.16-.478-.237-.158-.077-.317-.153-.478-.228-.16-.074-.318-.146-.48-.217l-.477-.21-.48-.2c-.16-.064-.317-.13-.478-.192-.16-.063-.318-.124-.478-.184-.16-.06-.32-.117-.48-.175-.158-.057-.317-.113-.477-.168-.16-.056-.318-.11-.48-.163-.158-.053-.317-.104-.477-.154-.16-.05-.32-.1-.48-.147l-.478-.14-.478-.135-.478-.125-.48-.12c-.158-.04-.317-.08-.477-.116-.16-.038-.32-.074-.48-.11-.158-.035-.318-.07-.478-.102-.16-.033-.318-.067-.478-.098l-.48-.09-.477-.087c-.16-.028-.32-.055-.48-.08l-.477-.076c-.16-.025-.32-.047-.48-.07l-.478-.065-.478-.06-.478-.054-.48-.05-.477-.045-.48-.04-.44-.034-.002-.574.442-.07.48-.078c.16-.027.32-.055.477-.084l.48-.092c.16-.03.32-.064.477-.098l.478-.104.48-.11.478-.12c.16-.04.32-.084.478-.127.16-.044.32-.088.48-.134l.477-.14.48-.15.477-.158c.16-.055.32-.11.478-.167.16-.057.32-.115.48-.175.16-.06.32-.12.477-.183.16-.063.32-.128.48-.193.16-.067.32-.134.477-.203.16-.07.32-.14.478-.213l.48-.225.478-.236c.16-.082.32-.164.478-.248.16-.085.32-.172.48-.26.16-.09.32-.18.477-.272.16-.094.32-.19.48-.286.16-.1.32-.2.477-.3.16-.104.32-.21.478-.316.162-.11.32-.22.48-.332.16-.115.32-.232.477-.35.162-.12.322-.242.48-.367.16-.127.32-.256.477-.387.162-.134.32-.27.478-.41.163-.142.322-.287.48-.433.16-.152.32-.305.478-.46.162-.16.322-.32.478-.485.163-.17.322-.344.48-.52.162-.182.32-.367.477-.554.163-.195.323-.394.48-.594.162-.21.322-.426.477-.642.164-.23.324-.462.478-.697.165-.25.325-.503.48-.76.165-.278.325-.56.477-.843.168-.313.328-.63.48-.95.17-.36.328-.725.477-1.094.174-.43.333-.866.48-1.307.18-.556.34-1.12.477-1.69.222-.927.38-1.873.48-2.835.078-.76.118-1.528.118-2.305 0-.82-.04-1.62-.118-2.4-.1-.997-.26-1.96-.48-2.89-.136-.58-.295-1.148-.477-1.702-.146-.442-.305-.877-.48-1.303-.148-.366-.308-.727-.477-1.08-.152-.316-.312-.627-.48-.932-.152-.28-.312-.555-.477-.826-.156-.252-.315-.5-.48-.745-.154-.228-.314-.454-.478-.676-.155-.21-.315-.417-.478-.62-.157-.197-.315-.39-.48-.58-.155-.18-.315-.357-.477-.533-.157-.17-.316-.335-.48-.5-.156-.16-.315-.315-.477-.47-.157-.15-.317-.297-.48-.442-.156-.14-.316-.28-.478-.416-.157-.133-.316-.265-.478-.395-.157-.127-.317-.252-.478-.374-.158-.12-.317-.238-.48-.354-.156-.114-.316-.225-.477-.336-.16-.108-.318-.214-.48-.32-.157-.102-.317-.204-.478-.304-.158-.098-.318-.194-.478-.29-.16-.093-.318-.185-.48-.276-.157-.09-.316-.177-.477-.263-.16-.086-.318-.17-.48-.252l-.477-.24c-.16-.077-.318-.154-.48-.23-.157-.073-.317-.147-.478-.218-.158-.07-.317-.14-.478-.208l-.478-.2-.48-.19-.477-.18c-.16-.06-.32-.117-.48-.173l-.478-.164c-.16-.053-.318-.105-.478-.156l-.48-.15-.477-.143c-.16-.045-.32-.09-.48-.133l-.477-.127-.48-.122c-.158-.04-.317-.078-.478-.115-.158-.037-.318-.072-.478-.107l-.478-.102c-.16-.032-.318-.065-.48-.096l-.477-.09-.48-.083-.478-.08-.48-.072-.477-.067-.478-.062-.48-.057-.477-.05-.48-.05-.478-.04-.478-.038-.478-.034-.48-.027-.19-.01-.287-.018-.48-.028-.478-.026-.48-.025-.477-.023-.478-.02-.48-.018-.477-.015-.48-.01-.478-.007H450.68v-51.48c0-3.462.355-6.84 1.03-10.104.146-.7.306-1.392.48-2.08.148-.587.31-1.17.478-1.75.15-.518.31-1.032.48-1.542.152-.466.31-.93.477-1.39.153-.427.312-.85.478-1.272.155-.394.314-.785.478-1.173.156-.368.315-.733.478-1.095.156-.344.316-.685.48-1.025.155-.324.315-.645.477-.965.158-.308.318-.613.48-.917.156-.293.316-.585.478-.874.157-.28.317-.56.48-.836.156-.27.315-.537.477-.802.158-.258.317-.513.48-.767.155-.247.316-.49.477-.734.158-.238.317-.475.48-.71.157-.23.315-.46.477-.69.156-.22.317-.437.478-.655.157-.213.317-.426.478-.637.16-.208.317-.417.478-.623.158-.2.32-.396.48-.594.157-.194.316-.387.477-.58.16-.19.32-.38.48-.566.157-.182.318-.36.478-.54.16-.18.318-.36.48-.535.157-.172.317-.343.477-.514.158-.167.318-.334.48-.5.157-.164.316-.328.477-.49.158-.158.318-.315.48-.472.158-.155.316-.313.477-.466.157-.15.318-.297.478-.446.16-.147.317-.295.478-.44.158-.144.32-.284.48-.425.158-.14.317-.28.477-.417l.478-.404c.16-.134.32-.266.48-.397.16-.13.318-.258.478-.385l.48-.377.477-.365c.16-.12.32-.24.48-.358.157-.117.317-.233.477-.35l.48-.34c.157-.11.317-.22.477-.33l.478-.324.478-.315c.16-.104.318-.207.48-.308l.477-.3c.16-.098.318-.197.478-.294.16-.096.32-.19.48-.283.16-.094.318-.19.478-.28.16-.09.32-.18.48-.268.158-.09.317-.18.477-.268.16-.086.32-.17.48-.253.158-.085.317-.17.477-.253l.48-.24c.158-.08.317-.16.477-.238l.478-.232.478-.223c.16-.074.318-.15.48-.22.157-.073.318-.14.477-.21l.478-.21c.16-.067.32-.13.48-.197.16-.065.318-.132.478-.196l.48-.188.477-.182.48-.18c.158-.057.318-.112.477-.168l.48-.17c.157-.053.318-.104.477-.157l.478-.156c.16-.05.318-.102.478-.15.16-.05.32-.096.48-.143.158-.047.317-.096.477-.14.16-.047.32-.09.48-.132.158-.044.317-.088.477-.13l.478-.124c.16-.04.32-.078.48-.116.158-.04.317-.08.477-.117l.48-.104.477-.104.48-.1.477-.09c.16-.03.318-.064.478-.093.16-.03.32-.054.478-.08l.48-.08c.158-.026.317-.052.477-.076l.48-.067c.158-.022.317-.046.477-.067.16-.02.32-.04.478-.058l.48-.054c.158-.018.318-.037.477-.053.16-.016.32-.028.48-.043l.477-.042.48-.036c.158-.012.318-.02.477-.03.16-.01.318-.022.478-.03.16-.01.32-.014.478-.02l.48-.018c.158-.006.318-.012.477-.016l.48-.006c.158-.003.317-.005.477-.006l.12-.002H572.756zm-394.684 172.49c-.342-.16-.684-.325-1.026-.49V136.36c0-3.452.354-6.823 1.026-10.077.144-.7.304-1.39.478-2.08.15-.588.31-1.172.478-1.752.15-.516.31-1.03.478-1.54.153-.466.31-.93.477-1.392.155-.426.312-.85.478-1.27.155-.394.315-.786.48-1.175.154-.366.313-.73.476-1.092.156-.343.315-.684.478-1.023.155-.325.315-.647.477-.967.157-.308.317-.613.48-.917.155-.293.315-.584.476-.874.157-.28.316-.56.478-.837.157-.268.316-.537.478-.802.157-.256.316-.51.478-.765.156-.246.316-.49.477-.733.157-.238.316-.475.477-.71.16-.23.316-.462.478-.69.157-.22.318-.437.478-.655.158-.214.317-.426.478-.638.158-.21.316-.418.477-.623.157-.2.318-.396.478-.593.157-.195.316-.39.477-.58.16-.19.317-.38.478-.566.157-.183.318-.362.478-.543.158-.18.316-.357.477-.533.158-.173.318-.343.478-.513.16-.17.318-.336.478-.503.16-.163.317-.327.478-.49.158-.158.318-.315.478-.47.16-.157.316-.314.477-.468l.48-.446c.158-.148.316-.296.477-.442.157-.142.318-.282.477-.423.16-.14.317-.282.478-.42.158-.136.318-.27.477-.403.158-.133.317-.266.477-.397.158-.13.318-.257.478-.385.158-.126.317-.252.477-.376.158-.125.318-.246.478-.368.16-.12.318-.24.477-.358l.478-.348c.16-.115.318-.228.478-.34.158-.112.317-.223.477-.332.16-.11.318-.217.478-.325.158-.106.318-.21.477-.315.16-.103.318-.208.478-.31.158-.1.318-.2.478-.298.16-.1.318-.2.478-.295.158-.096.318-.19.478-.283.16-.095.317-.19.478-.283.157-.09.318-.177.477-.267.16-.09.32-.18.48-.267.157-.086.317-.17.476-.254.16-.085.318-.17.478-.253.158-.082.318-.163.478-.243l.477-.237c.158-.08.317-.157.477-.233.16-.076.318-.15.477-.223.16-.073.318-.15.478-.22.158-.073.318-.14.478-.21l.477-.21.478-.197.478-.196.477-.19.478-.18c.16-.06.317-.123.477-.182.16-.058.32-.112.478-.168.16-.056.318-.114.478-.168l.478-.16.478-.156c.16-.05.318-.103.477-.152.16-.05.32-.095.478-.142.16-.048.32-.096.48-.142.157-.046.317-.088.476-.132l.478-.13c.16-.042.318-.085.477-.125.16-.04.32-.077.48-.116.158-.038.317-.08.477-.116.158-.037.318-.072.477-.107l.478-.103c.16-.034.318-.068.478-.1.158-.032.318-.062.477-.092.16-.03.318-.062.478-.09.16-.03.318-.056.477-.084l.478-.078c.16-.025.318-.053.478-.077.158-.024.318-.044.477-.067.16-.022.318-.046.478-.067l.477-.06.478-.053c.16-.018.318-.04.478-.055.158-.016.318-.028.477-.043l.478-.043.478-.038c.16-.012.32-.022.478-.03.16-.01.318-.023.478-.032.158-.008.318-.014.477-.02l.48-.02c.158-.005.317-.013.477-.017.158-.003.318-.003.477-.005.16-.003.318-.006.478-.006l.212-.004H299.323v247.857c0 2.156-.138 4.28-.405 6.364-.13 1.003-.29 1.995-.48 2.98-.14.747-.3 1.49-.476 2.225-.148.62-.307 1.235-.478 1.846-.15.536-.31 1.067-.477 1.595-.153.478-.313.953-.48 1.425-.152.437-.31.87-.477 1.302-.154.402-.313.802-.477 1.2-.155.373-.314.746-.478 1.115-.155.35-.315.7-.478 1.045-.155.33-.314.66-.477.985-.156.313-.315.625-.478.934-.156.297-.315.593-.477.887-.157.285-.315.568-.478.85-.156.27-.316.54-.478.81-.156.258-.316.515-.477.77-.157.25-.317.5-.478.747-.158.24-.316.482-.477.72-.157.232-.317.46-.478.69-.157.223-.317.444-.478.665-.158.216-.316.432-.477.646-.158.21-.317.418-.478.624-.158.202-.318.402-.478.6-.16.2-.317.396-.478.59-.157.19-.318.377-.478.565-.158.185-.317.368-.477.55-.16.18-.318.36-.48.54-.156.173-.317.343-.477.515-.158.17-.316.34-.477.508-.158.165-.318.327-.478.49-.158.16-.317.32-.477.478-.158.157-.317.312-.477.467-.158.152-.318.302-.478.452-.158.148-.316.298-.477.444-.158.143-.318.284-.478.426-.16.142-.316.285-.477.424-.158.136-.32.27-.478.404-.16.134-.317.27-.478.402-.158.13-.318.258-.477.386-.16.127-.317.256-.478.382-.158.124-.318.244-.477.366-.16.12-.317.243-.478.363-.158.117-.318.232-.478.348-.16.117-.318.233-.478.347-.158.112-.318.22-.478.33-.16.11-.317.223-.478.33-.157.107-.318.21-.477.316-.16.104-.318.21-.48.314-.157.1-.317.198-.476.298-.16.1-.318.2-.478.298-.158.096-.32.19-.478.284-.16.095-.317.19-.477.283l-.477.27c-.16.09-.318.18-.477.268l-.478.26-.478.25c-.16.084-.317.167-.477.248-.16.08-.318.16-.478.238-.16.078-.317.16-.477.236-.16.076-.32.15-.478.223l-.478.224c-.158.072-.318.14-.477.21l-.478.21-.478.203-.478.195-.478.194-.477.18c-.16.06-.318.122-.478.18-.16.06-.32.116-.48.173l-.476.168-.478.165-.477.155c-.16.052-.32.105-.48.155-.157.05-.318.095-.477.143l-.477.142-.478.136c-.16.045-.318.087-.477.13-.16.042-.318.088-.477.128l-.478.117c-.16.04-.318.08-.477.118l-.478.11-.478.104-.477.104c-.16.033-.32.06-.478.09-.16.032-.318.064-.477.093l-.478.085c-.16.028-.318.053-.478.08-.16.025-.318.054-.477.078-.16.025-.32.045-.478.068l-.478.068c-.16.022-.318.044-.478.063-.16.02-.32.038-.478.056-.16.018-.318.038-.478.055-.158.018-.318.032-.477.047l-.477.042c-.16.013-.318.03-.477.04-.16.013-.32.02-.478.032l-.477.03-.477.025c-.16.008-.32.012-.478.018l-.477.02c-.16.003-.32.004-.478.008l-.477.006c-.148 0-.295.004-.443.004H177.04v-104.47s.353.098 1.026.268l.478.12.478.116.478.114.477.113.478.11.48.11.476.11.478.105.477.105.48.103.476.102.478.1.478.1.478.098.477.097.477.095.478.095.478.092.478.093.477.09.478.09.477.088.478.088.478.086.477.085.478.084.478.083.478.082.478.08.477.08.48.078.477.077.477.077.478.075.477.074.477.073.478.07.477.072.478.07.477.07.478.067.478.066.477.065.478.066.477.064.478.062.478.062.478.06.478.06.478.06.477.057.48.056.476.056.478.054.478.054.477.053.477.05.477.052.478.048.478.05.477.046.478.045.478.046.477.044.478.045.477.04.478.04.478.04.478.04.478.038.477.036.478.037.48.035.476.034.478.032.477.03.48.032.477.03.477.028.478.028.478.026.477.026.478.024.477.023.478.02.478.022.477.02.478.02.477.016.478.017.478.016.477.015.478.014.478.01.478.012.478.01.477.01.48.007.477.006.477.005.478.006.477.004h.477l.478.002h.476l.478-.004.477-.002.478-.003.478-.003.477-.01.478-.007.477-.01.478-.008.478-.012.478-.015.478-.015.478-.014.477-.017.48-.02.476-.022.478-.02.478-.022.477-.026.477-.027.477-.028.478-.028.478-.033.478-.034.477-.034.477-.036.478-.038.478-.04.478-.042.477-.042.478-.045.478-.05.478-.047.477-.05.478-.052.48-.056.476-.056.478-.056.477-.062.48-.064.477-.064.478-.065c.16-.023.317-.048.477-.072l.477-.072.477-.07.478-.076.478-.08.477-.08.478-.082c.16-.028.317-.06.477-.088l.478-.09.478-.088.478-.094.478-.098.477-.1.478-.1c.162-.033.32-.07.478-.106l.478-.108c.158-.037.32-.07.478-.107.16-.04.318-.08.478-.117l.477-.118c.158-.04.32-.077.477-.117.16-.04.318-.083.477-.125l.478-.127.478-.128c.16-.044.318-.09.477-.136l.478-.138c.16-.046.32-.092.477-.14l.478-.145.478-.15c.158-.05.32-.098.477-.15l.478-.158.478-.162c.16-.054.32-.106.478-.16l.478-.175.477-.174c.16-.058.32-.116.478-.176.162-.06.32-.124.48-.187.158-.062.32-.124.476-.187l.478-.194.477-.2c.16-.068.322-.133.48-.2.16-.07.317-.144.477-.216l.477-.214.478-.222c.16-.076.32-.154.477-.23.158-.077.32-.154.477-.232.162-.08.318-.164.478-.246.16-.08.32-.162.477-.245.162-.084.32-.17.478-.257.16-.087.32-.174.478-.262l.477-.27.478-.28c.16-.095.32-.19.477-.286.162-.1.32-.2.478-.3l.478-.3c.16-.106.318-.213.477-.32.16-.107.32-.213.478-.322.163-.112.32-.226.478-.34.16-.113.32-.228.478-.344.162-.12.32-.24.478-.36l.477-.37c.162-.128.32-.257.48-.386.16-.133.32-.266.476-.4.16-.136.322-.272.478-.41.162-.143.32-.29.478-.433.16-.148.32-.294.477-.443.16-.154.32-.31.477-.466.16-.16.32-.32.478-.484.16-.165.32-.33.477-.498.163-.176.32-.354.478-.532.162-.183.32-.367.477-.552.162-.19.322-.382.478-.576.162-.2.322-.402.478-.605.163-.213.32-.428.477-.644.163-.225.322-.45.478-.68.163-.236.322-.475.477-.716.163-.252.323-.506.478-.763.163-.27.323-.54.478-.815.165-.29.324-.583.478-.878.165-.316.324-.634.478-.954.166-.344.324-.69.477-1.04.167-.38.326-.763.478-1.15.17-.424.328-.853.48-1.286.17-.49.328-.987.476-1.487.174-.585.333-1.175.478-1.77.18-.74.34-1.49.478-2.245.204-1.126.362-2.27.477-3.428.16-1.616.238-3.26.238-4.932V187.84H246.483v57.515c0 .9-.04 1.786-.116 2.655-.096 1.107-.256 2.186-.476 3.235-.136.648-.295 1.284-.478 1.91-.145.496-.303.985-.477 1.466-.15.41-.31.814-.48 1.21-.15.356-.31.705-.477 1.05-.152.312-.31.622-.477.926-.153.28-.313.554-.478.826-.154.256-.313.51-.477.758-.154.233-.314.463-.477.69-.155.216-.314.43-.477.64-.156.2-.316.397-.478.59-.156.187-.315.37-.478.55-.156.176-.315.348-.478.518-.156.163-.315.325-.477.484-.157.153-.316.306-.477.455-.157.144-.317.286-.478.426-.157.136-.316.27-.478.402-.157.13-.317.255-.478.38-.157.122-.316.24-.477.36-.157.115-.317.228-.478.34-.158.11-.317.216-.478.322-.158.103-.317.204-.478.304-.157.1-.317.195-.478.29-.157.09-.317.182-.477.27-.16.09-.318.174-.48.26-.156.082-.315.164-.476.244-.158.078-.317.156-.478.232-.158.074-.317.15-.478.22l-.477.21c-.157.065-.316.13-.477.193-.158.062-.317.124-.478.184-.158.06-.316.118-.477.175l-.478.165c-.158.052-.317.104-.477.154-.158.05-.318.096-.478.144-.158.046-.317.092-.478.136-.158.044-.317.088-.477.13-.158.04-.318.08-.478.118-.158.038-.317.074-.477.11l-.478.104c-.158.033-.317.065-.478.095-.16.03-.318.06-.478.087-.16.027-.318.055-.478.08l-.477.074c-.16.023-.318.044-.478.065-.16.02-.318.042-.48.06l-.476.053c-.158.017-.318.03-.478.046-.16.014-.317.03-.478.04-.158.013-.317.024-.477.034-.158.01-.317.02-.477.028l-.477.023c-.16.006-.318.01-.478.014l-.478.012c-.158.003-.317.004-.477.005l-.18.002-.298-.003-.477-.003-.478-.006-.478-.01-.477-.013-.478-.016-.477-.02-.478-.022-.478-.024-.477-.03-.478-.03-.48-.034-.476-.037-.478-.04-.477-.043-.48-.045-.477-.05-.477-.05-.478-.055-.477-.058-.477-.06-.478-.064-.477-.066-.478-.07-.477-.07-.478-.076-.478-.077-.477-.08-.478-.084-.478-.087-.477-.09-.478-.09-.478-.094-.478-.097-.478-.1-.477-.103-.48-.105-.476-.108-.478-.11-.478-.113-.477-.115-.477-.118-.478-.12-.477-.124-.478-.126-.477-.13-.478-.13-.478-.133-.477-.137-.478-.138-.477-.143-.478-.144-.478-.146-.478-.15-.478-.15-.477-.154-.478-.156-.48-.16-.476-.16-.478-.164-.478-.165-.477-.17-.477-.17-.477-.172-.478-.176-.478-.178-.477-.18-.478-.182-.477-.184-.478-.187-.478-.19-.478-.192-.477-.193-.477-.196-.478-.2-.478-.2-.478-.202-.477-.205-.48-.207-.476-.21-.478-.21-.477-.213-.48-.216-.477-.217-.477-.22-.478-.222-.477-.224-.477-.226zm138.795-58.87c-.348.28-.69.565-1.025.853v-64.9c0-3.45.354-6.82 1.025-10.072.145-.698.304-1.39.478-2.078.148-.59.308-1.174.477-1.755.152-.518.31-1.032.478-1.542.154-.466.313-.93.48-1.39.153-.427.31-.85.477-1.272.154-.392.313-.784.477-1.172.155-.367.314-.73.478-1.093.155-.343.315-.685.477-1.024.155-.324.315-.645.477-.965.156-.308.316-.613.478-.918.156-.293.315-.584.477-.873.157-.28.316-.56.478-.837.157-.268.315-.536.477-.802.157-.256.317-.51.478-.765.157-.246.317-.49.478-.734.157-.238.316-.475.477-.71.158-.23.316-.462.478-.69.157-.22.317-.437.478-.654.157-.214.316-.427.477-.638.16-.21.316-.417.478-.623.158-.198.32-.395.48-.592.157-.195.316-.39.476-.58.158-.19.317-.38.478-.566.157-.182.318-.362.478-.542.158-.18.316-.358.477-.534.157-.173.317-.343.476-.513.158-.17.318-.335.478-.502.16-.162.317-.326.478-.488.158-.16.317-.315.477-.472.158-.156.316-.313.477-.467.157-.15.318-.297.477-.445.16-.148.317-.296.478-.442.158-.143.318-.283.478-.424.158-.14.317-.28.478-.418.158-.136.317-.27.477-.404l.478-.397c.158-.13.318-.257.477-.384.16-.128.318-.254.478-.378.16-.123.318-.245.478-.366.158-.12.317-.24.477-.358.158-.118.318-.233.478-.35l.48-.34.476-.33c.16-.11.318-.22.478-.326.158-.106.318-.21.478-.314.158-.104.317-.208.477-.31.158-.1.317-.2.477-.298.16-.1.317-.2.477-.296.16-.096.32-.188.478-.282.16-.094.318-.19.478-.282.158-.09.32-.178.478-.268.16-.09.317-.18.477-.266.158-.086.318-.17.478-.255.16-.083.317-.168.477-.25l.478-.244.478-.237c.158-.08.317-.158.477-.234.16-.076.32-.15.478-.223.16-.074.318-.15.478-.222.16-.07.32-.138.478-.208l.478-.21c.158-.067.318-.132.477-.198l.48-.195c.158-.065.317-.13.477-.19.158-.063.318-.122.477-.183.16-.06.318-.122.478-.18.158-.06.32-.113.478-.17l.477-.167c.16-.055.32-.107.478-.16l.477-.155c.16-.05.32-.103.478-.152.16-.05.32-.095.478-.142.16-.047.318-.096.478-.142.158-.045.318-.088.477-.132l.478-.13c.16-.04.32-.084.478-.125.16-.04.32-.076.478-.115.16-.04.318-.08.478-.117.158-.037.318-.07.477-.106l.48-.104c.158-.034.317-.07.476-.1.16-.033.32-.062.478-.093.16-.03.318-.062.478-.09l.478-.084.477-.078c.16-.025.318-.053.478-.077.16-.024.318-.044.477-.067.16-.022.318-.046.478-.067l.478-.06.477-.053c.16-.018.318-.04.478-.055.16-.016.318-.028.478-.043l.478-.043.478-.038c.16-.012.318-.022.477-.03.16-.01.318-.023.478-.032.16-.008.32-.014.48-.02l.476-.02c.16-.005.318-.013.478-.017.16-.003.32-.003.478-.005.16-.003.318-.006.478-.006l.21-.004H438.12v247.857c0 2.155-.138 4.278-.404 6.36-.128 1.003-.29 1.996-.477 2.98-.143.747-.302 1.49-.478 2.226-.148.618-.306 1.234-.478 1.845-.15.536-.31 1.068-.477 1.596-.152.48-.312.953-.478 1.425-.153.437-.312.87-.477 1.302-.155.402-.313.802-.478 1.2-.155.373-.314.746-.478 1.115-.156.35-.315.7-.478 1.045-.156.33-.315.66-.478.986-.156.313-.315.624-.478.933-.156.298-.315.595-.477.89-.158.284-.316.568-.48.85-.155.27-.315.54-.476.806-.157.26-.317.517-.478.773-.157.25-.316.5-.478.745-.157.242-.315.484-.477.722-.156.23-.316.46-.477.69-.157.222-.317.444-.478.664-.158.217-.316.434-.477.648-.158.21-.317.416-.478.623-.157.202-.317.402-.478.602-.158.196-.316.392-.477.587-.157.19-.318.378-.478.566-.158.184-.317.367-.477.55-.16.18-.317.36-.478.538-.158.175-.318.345-.478.517-.158.17-.316.34-.477.51-.158.164-.318.326-.478.488-.16.16-.318.32-.478.478-.16.157-.318.313-.478.467-.158.152-.318.302-.478.452-.16.15-.317.3-.478.445-.157.144-.318.285-.477.427-.158.142-.316.285-.477.424-.158.137-.318.27-.478.404-.16.135-.317.27-.477.402-.158.13-.32.257-.478.385-.16.127-.317.256-.477.38-.158.125-.32.246-.478.367-.16.122-.317.244-.478.364-.158.118-.318.233-.477.35-.16.115-.317.232-.478.345-.158.112-.318.22-.478.33-.16.11-.317.223-.477.33-.158.107-.318.21-.478.316-.16.105-.318.212-.478.315l-.478.298c-.16.1-.317.2-.478.298-.158.097-.318.19-.477.285-.16.095-.32.19-.48.283l-.477.27-.477.268-.478.26-.478.25-.477.25-.478.236c-.16.08-.317.16-.477.236-.16.077-.32.15-.478.224-.16.074-.318.15-.478.223-.158.072-.318.142-.477.212l-.478.21-.478.2-.478.197c-.16.064-.318.13-.478.193-.158.063-.32.12-.478.182l-.477.18c-.16.06-.32.115-.48.172l-.477.168-.477.164c-.16.053-.32.103-.478.155-.16.05-.318.104-.478.154-.158.05-.318.095-.477.143l-.478.142-.477.135c-.16.045-.32.087-.478.13-.16.042-.317.087-.478.13-.158.04-.318.076-.477.115-.16.04-.318.08-.478.117l-.478.11-.478.104c-.16.035-.318.072-.478.105-.158.032-.32.06-.478.092l-.477.09-.48.087c-.157.028-.317.053-.476.08-.16.026-.318.054-.478.078-.16.025-.32.046-.478.07l-.477.066-.477.063c-.16.02-.318.038-.477.056-.16.018-.318.038-.478.055-.16.017-.318.03-.478.047l-.478.042c-.16.013-.317.03-.477.04-.16.013-.318.02-.478.03l-.478.032-.478.025c-.16.008-.32.012-.478.018l-.477.018-.478.01-.48.006c-.148 0-.295.004-.445.004H315.835V269.76c.334.287.677.57 1.025.852.158.128.317.255.478.38.158.125.317.25.477.373.16.12.317.243.478.363.16.118.32.234.48.35.157.116.316.23.477.344.158.112.316.225.477.336l.478.327c.157.107.317.213.477.318l.477.312c.158.102.317.204.478.305.157.1.317.198.477.296l.478.29.477.285c.158.094.318.185.478.277l.478.27.477.266.478.258c.16.086.317.172.478.256.157.083.318.164.477.246l.478.243.48.237.476.23c.16.077.317.154.478.23l.478.22.477.218.476.212.478.208.478.204.477.2.477.195.477.19.478.188.478.182.478.18.477.175c.16.058.317.117.478.174l.477.165.478.166.478.16c.16.054.317.11.477.16.158.053.32.103.478.154l.48.153.476.147.478.146.478.14.477.14.477.136.477.134.478.13.478.127.478.126.477.12.478.12.477.117.478.116.478.11.477.11.478.106.478.104.478.103.478.097.477.1.48.092.477.093.477.09.478.088.478.088.477.083.478.084.477.08.478.077.478.078.478.073.477.074.478.07.478.067.478.07.478.062.477.063.48.06.476.06.478.058.478.054.478.054.477.054.478.05.477.05.478.046.478.045.477.045.478.042.478.04.478.04.478.038.477.036.478.036.48.033.476.032.478.03.478.03.478.027.477.027.478.025.477.023.478.024.478.02.477.02.478.018.477.016.478.016.478.015.478.012.477.01.48.013.476.008.478.01.478.008.477.004.477.005.477.004.478.003h.478l.477.002.478-.002.478-.002.477-.002.478-.004.478-.006.478-.007.477-.005.478-.01.478-.01.478-.01.478-.012.477-.013.477-.013.477-.015.478-.016.478-.016.477-.017.478-.02.478-.02.477-.02.234-.01.244-.01.478-.024.477-.027.478-.026.478-.03.478-.028.478-.033.477-.033.48-.035.477-.037.477-.038.478-.04.477-.04.477-.042.478-.043.477-.045.478-.046.478-.05.478-.047.477-.05.478-.052.478-.05.478-.055.478-.055.477-.057.48-.057.476-.06.478-.06.478-.06.477-.06.477-.065.478-.063.477-.066.478-.065.478-.068.477-.07.478-.068.477-.073.478-.07.478-.074.477-.074.478-.076.48-.076.476-.077.478-.077.478-.08.477-.08.477-.08.478-.08.477-.084.478-.085.478-.085.477-.085.478-.087.477-.087.478-.087.478-.09.477-.09.478-.092.48-.09.476-.094.478-.094.478-.095.477-.096.477-.095.477-.098.478-.1.478-.1.477-.1.478-.102.478-.102.477-.104.478-.105.477-.106.478-.108.478-.108.478-.11.478-.11.478-.113.478-.112.477-.115.474-.117v-20.97l-.475.237-.478.236-.478.232-.478.232-.478.23-.477.227-.477.226-.478.222-.477.22-.478.22-.477.214-.478.213-.478.21-.477.208-.478.206-.478.202-.477.2-.478.2-.478.194-.478.193-.478.19-.477.187-.48.185-.477.182-.477.18-.478.176-.478.174-.477.172-.478.17-.477.165-.478.164-.478.16-.477.16-.478.154-.478.153-.478.15-.478.147-.478.145-.477.14-.48.14-.477.137-.477.132-.478.13-.478.13-.477.124-.478.122-.477.12-.478.117-.478.115-.477.112-.478.11-.478.105-.478.104-.478.102-.478.098-.477.096-.48.094-.476.09-.478.087-.478.086-.477.083-.477.08-.477.076-.478.076-.478.07-.478.07-.477.068-.478.064-.478.062-.478.06-.478.056-.477.054-.478.052-.48.05-.476.046-.478.044-.478.042-.477.04-.29.022-.187.013-.477.033-.478.03-.478.027-.477.024-.478.023-.478.015-.477.015-.478.01-.478.008-.477.006c-.16.002-.318 0-.478 0l-.478-.002-.478-.007-.478-.01-.478-.012c-.16-.005-.318-.013-.477-.02-.158-.006-.318-.01-.476-.02l-.478-.025-.478-.03-.478-.032-.477-.037c-.16-.013-.32-.024-.478-.04-.16-.014-.318-.03-.478-.047l-.477-.048-.478-.055-.478-.058-.477-.063-.478-.068-.478-.07-.478-.08c-.16-.027-.32-.05-.478-.08-.16-.028-.318-.06-.477-.09-.16-.03-.32-.057-.48-.088-.16-.032-.317-.067-.476-.1l-.478-.1-.478-.11-.478-.113c-.16-.038-.318-.08-.477-.12-.16-.04-.32-.08-.478-.124-.16-.044-.32-.088-.477-.133-.16-.045-.32-.09-.478-.136-.16-.046-.32-.095-.478-.144-.16-.05-.32-.098-.477-.15-.16-.05-.32-.104-.478-.157-.16-.054-.32-.108-.477-.163-.16-.056-.32-.114-.478-.172-.16-.06-.32-.116-.478-.176l-.478-.188c-.16-.064-.32-.126-.477-.19-.162-.067-.32-.136-.48-.204-.16-.07-.32-.137-.477-.207-.16-.07-.32-.146-.477-.22-.16-.074-.32-.148-.478-.225-.16-.077-.32-.156-.477-.236-.16-.082-.32-.164-.477-.247-.16-.084-.32-.166-.478-.252-.16-.087-.32-.178-.477-.268-.16-.09-.32-.18-.478-.274-.16-.095-.32-.19-.478-.288-.16-.1-.32-.2-.477-.3-.16-.102-.32-.203-.478-.308-.16-.107-.32-.217-.477-.327-.16-.11-.32-.224-.478-.338-.16-.115-.32-.23-.478-.35-.16-.12-.32-.244-.478-.368-.16-.127-.32-.254-.477-.383-.16-.132-.322-.262-.48-.396-.16-.137-.318-.278-.476-.42-.162-.143-.32-.29-.478-.437-.16-.15-.32-.302-.478-.455-.16-.157-.32-.314-.477-.475-.16-.165-.32-.335-.477-.505-.162-.174-.32-.35-.477-.528-.162-.183-.322-.37-.478-.556-.162-.192-.32-.387-.478-.584-.16-.204-.32-.41-.478-.62-.16-.215-.32-.432-.477-.653-.162-.23-.322-.462-.478-.697-.162-.245-.32-.494-.477-.745-.164-.263-.323-.53-.478-.8-.164-.283-.323-.57-.478-.86-.164-.31-.323-.622-.477-.938-.165-.336-.324-.677-.478-1.02-.166-.372-.326-.747-.48-1.127-.167-.42-.324-.85-.476-1.283-.17-.48-.33-.967-.478-1.462-.172-.573-.332-1.157-.478-1.75-.18-.738-.338-1.492-.477-2.26-.205-1.138-.365-2.307-.477-3.51-.128-1.387-.194-2.816-.194-4.287 0-1.472.065-2.902.193-4.29.112-1.203.272-2.373.478-3.512.14-.768.298-1.523.478-2.26.146-.594.306-1.178.478-1.752.15-.495.31-.982.478-1.462.152-.434.31-.863.477-1.284.154-.38.314-.755.48-1.126.153-.345.312-.686.477-1.022.154-.316.313-.63.477-.937.155-.29.314-.58.478-.863.155-.27.314-.536.478-.8.156-.25.315-.5.477-.745.156-.235.316-.467.478-.697.156-.22.316-.44.477-.655.157-.208.317-.414.478-.618.157-.197.316-.392.478-.585.156-.187.316-.373.478-.556.157-.178.315-.355.477-.53.158-.17.316-.338.478-.504.157-.16.318-.318.478-.475.157-.154.317-.305.478-.455.158-.148.316-.294.478-.438.158-.14.316-.282.477-.42.158-.134.32-.265.48-.396.157-.13.316-.257.476-.383.16-.124.317-.248.478-.37.157-.118.318-.233.478-.35.158-.113.317-.225.478-.336.158-.11.316-.22.477-.328.157-.105.318-.207.478-.31l.477-.3c.16-.096.317-.192.478-.287.158-.093.318-.183.478-.274.158-.09.316-.182.477-.27.158-.085.318-.17.478-.252.158-.083.317-.165.478-.246.16-.08.318-.16.478-.237.158-.076.318-.15.478-.225.158-.074.317-.15.477-.22.158-.07.318-.14.478-.207.16-.07.318-.138.48-.204.157-.066.317-.128.476-.192.16-.063.318-.126.478-.187.158-.06.318-.116.478-.175.16-.058.317-.116.478-.172.157-.055.318-.11.477-.162.16-.053.318-.106.478-.157l.477-.15c.16-.048.318-.097.478-.144l.478-.137c.158-.045.317-.09.477-.133.158-.042.318-.082.478-.123.16-.04.317-.082.477-.12l.478-.113c.16-.037.318-.075.478-.11.158-.035.318-.067.478-.1.16-.034.316-.07.477-.1.16-.032.32-.06.48-.09l.476-.09c.158-.028.32-.052.478-.08.16-.025.317-.053.478-.078l.477-.07.477-.07.477-.062.478-.058.478-.055.477-.047c.16-.016.318-.034.478-.048.158-.015.32-.026.478-.04l.477-.037.478-.033.478-.03.478-.025c.158-.008.318-.013.477-.02l.478-.02.478-.01.478-.012.478-.007h.477c.16 0 .317-.003.477-.002l.477.006.478.007.478.01.477.017.478.015.478.022.477.025.478.024.478.032.477.032.188.013.29.024.478.038.478.04.478.045.477.046.48.048.477.052.477.054.478.056.477.058.477.06.478.064.477.067.478.07.478.07.478.074.477.077.478.08.478.08.478.086.478.087.477.09.48.09.476.096.478.097.478.1.477.103.477.106.478.108.477.11.478.115.478.116.477.12.478.12.477.126.478.127.478.13.477.133.478.135.48.14.476.14.478.145.478.147.477.15.477.152.478.155.477.16.478.16.478.163.477.166.478.17.477.172.478.175.478.177.477.18.478.184.48.185.476.188.478.19.478.195.477.197.477.2.477.2.478.205.478.207.477.21.478.212.478.215.477.216.478.22.477.222.478.225.478.227.478.23.478.23.478.235.478.235.477.24.474.238v-20.985l-.475-.117-.478-.115-.478-.113-.478-.112-.478-.11-.477-.11-.477-.108-.478-.107-.477-.105-.478-.105-.477-.104-.478-.102-.478-.103-.477-.1-.478-.098-.478-.1-.477-.097-.478-.097-.478-.096-.478-.095-.478-.093-.477-.094-.48-.092-.477-.09-.477-.09-.478-.09-.478-.09-.477-.086-.478-.086-.477-.086-.478-.085-.478-.083-.477-.083-.478-.082-.478-.08-.478-.08-.478-.08-.478-.078-.477-.076-.48-.076-.477-.075-.477-.074-.478-.074-.478-.07-.477-.072-.478-.07-.477-.068-.478-.068-.478-.066-.477-.065-.478-.065-.478-.063-.478-.063-.478-.06-.478-.06-.477-.06-.48-.056-.476-.055-.478-.055-.478-.054-.477-.053-.477-.05-.477-.05-.478-.05-.478-.046-.478-.046-.477-.044-.478-.043-.478-.042-.478-.04-.478-.038-.477-.038-.478-.035-.48-.037-.476-.032-.478-.03-.478-.03-.477-.028-.477-.026-.477-.025-.478-.022-.244-.012-.234-.01-.477-.02-.478-.02-.478-.02-.477-.016-.478-.016-.478-.017-.477-.014-.478-.014-.478-.014-.478-.012-.478-.01-.478-.01-.477-.01-.476-.006-.478-.006-.478-.006-.478-.004-.477-.003-.478-.004H374.662l-.478.002-.477.005-.478.005-.478.004-.478.01-.478.007-.477.007-.48.012-.476.01-.478.013-.478.015-.478.016-.477.016-.478.02-.477.02-.478.018-.478.024-.477.024-.478.023-.477.026-.478.028-.478.028-.478.032-.477.032-.48.032-.477.036-.477.036-.478.038-.477.04-.477.04-.478.043-.477.045-.478.045-.478.048-.477.05-.478.05-.477.052-.478.054-.478.054-.478.06-.477.057-.48.062-.476.063-.478.063-.478.067-.477.068-.477.07-.477.073-.478.074-.478.076-.478.08-.477.078-.478.083-.477.084-.478.087-.478.09-.477.09-.478.093-.48.094-.476.098-.478.1-.478.1-.477.106-.477.107-.477.11-.478.11-.478.116-.477.116-.478.12-.477.12-.478.126-.478.127-.478.13-.477.134-.478.136-.478.14-.478.14-.478.147-.477.147-.48.153c-.158.05-.32.1-.477.153l-.477.16c-.16.053-.32.105-.478.16l-.478.166-.477.166c-.16.057-.32.116-.478.174-.16.058-.32.115-.477.174l-.478.18c-.16.062-.32.12-.478.183l-.478.19-.477.19-.478.195-.478.2-.478.203-.478.21-.477.21-.478.22-.478.22c-.16.075-.32.152-.478.228l-.477.23-.48.24-.477.24c-.16.084-.32.165-.477.248-.16.085-.32.17-.478.256l-.478.258-.477.265-.478.27-.478.276c-.16.094-.318.19-.477.285-.16.097-.32.194-.478.292-.16.098-.32.197-.477.296-.16.1-.32.203-.478.305l-.478.312c-.16.106-.32.21-.478.318l-.478.328c-.16.112-.32.224-.477.337-.16.113-.32.228-.478.343l-.48.35-.477.365c-.16.123-.32.247-.477.372-.16.126-.32.253-.478.38z" fill="#393939" fill-rule="evenodd"/></svg>