<?xml version="1.0" encoding="utf-8"?>
<!-- Generator: Adobe Illustrator 16.0.0, SVG Export Plug-In . SVG Version: 6.00 Build 0)  -->
<!DOCTYPE svg PUBLIC "-//W3C//DTD SVG 1.1//EN" "http://www.w3.org/Graphics/SVG/1.1/DTD/svg11.dtd">
<svg version="1.1" id="Layer_1" xmlns:sketch="http://www.bohemiancoding.com/sketch/ns"
	 xmlns="http://www.w3.org/2000/svg" xmlns:xlink="http://www.w3.org/1999/xlink" x="0px" y="0px" width="750" height="471"
	 viewBox="0 0 750 471" enable-background="new 0 0 752 471" xml:space="preserve">
<title>Slice 1</title>
<desc>Created with Sketch.</desc>
<g>
	<g>
		<path fill="#2557D6" d="M554.594,130.608l-14.521,35.039h29.121L554.594,130.608z M387.03,152.321
			c2.738-1.422,4.349-4.515,4.349-8.356c0-3.764-1.693-6.49-4.431-7.771c-2.492-1.42-6.328-1.584-10.006-1.584h-25.978v19.523h25.63
			C380.7,154.134,384.131,154.074,387.03,152.321z M54.142,130.608l-14.357,35.039h28.8L54.142,130.608z M722.565,355.08h-40.742
			v-18.852h40.578c4.023,0,6.84-0.525,8.537-2.177c1.471-1.358,2.494-3.336,2.494-5.733c0-2.562-1.023-4.596-2.578-5.813
			c-1.529-1.342-3.76-1.953-7.434-1.953c-19.81-0.67-44.523,0.609-44.523-27.211c0-12.75,8.131-26.172,30.27-26.172h42.025v-17.492
			h-39.045c-11.783,0-20.344,2.81-26.406,7.181v-7.181h-57.752c-9.233,0-20.074,2.279-25.201,7.181v-7.181H499.655v7.181
			c-8.207-5.898-22.057-7.181-28.447-7.181H403.18v7.181c-6.492-6.262-20.935-7.181-29.734-7.181h-76.134l-17.42,18.775
			l-16.318-18.775H149.847v122.675h111.586l17.95-19.076l16.91,19.076l68.78,0.059v-28.859h6.764
			c9.125,0.145,19.889-0.223,29.387-4.311v33.107h56.731v-31.976h2.736c3.492,0,3.838,0.146,3.838,3.621v28.348h172.344
			c10.941,0,22.38-2.786,28.712-7.853v7.853h54.668c11.375,0,22.485-1.588,30.938-5.653v-22.853
			C746.069,351.297,736.079,355.08,722.565,355.08z M372.734,326.113h-26.325v29.488h-41.006L279.425,326.5l-26.997,29.102h-83.569
			v-87.914h84.855l25.955,28.818l26.835-28.818h67.414c16.743,0,35.555,4.617,35.555,28.963
			C409.473,321.072,391.176,326.113,372.734,326.113z M499.323,322.127c2.98,4.291,3.41,8.297,3.496,16.047v17.428h-21.182v-10.998
			c0-5.289,0.512-13.121-3.41-17.209c-3.08-3.149-7.781-3.901-15.48-3.901h-22.545v32.108h-21.198v-87.914h48.706
			c10.685,0,18.462,0.472,25.386,4.148c6.658,4.006,10.848,9.494,10.848,19.523c-0.002,14.031-9.399,21.19-14.953,23.389
			C493.684,316.473,497.522,319.566,499.323,322.127z M586.473,285.869h-49.404v15.982h48.197v17.938h-48.197v17.492l49.404,0.078
			v18.242h-70.414v-87.914h70.414V285.869z M640.686,355.6h-41.09v-18.852h40.926c4.002,0,6.84-0.527,8.619-2.178
			c1.449-1.359,2.492-3.336,2.492-5.73c0-2.564-1.129-4.598-2.574-5.818c-1.615-1.34-3.842-1.948-7.514-1.948
			c-19.73-0.673-44.439,0.606-44.439-27.212c0-12.752,8.047-26.174,30.164-26.174h42.297v18.709h-38.703
			c-3.836,0-6.33,0.146-8.451,1.592c-2.313,1.423-3.17,3.535-3.17,6.322c0,3.316,1.963,5.574,4.615,6.549
			c2.228,0.771,4.617,0.996,8.211,0.996l11.359,0.308c11.449,0.274,19.313,2.25,24.092,7.069c4.105,4.232,6.311,9.578,6.311,18.625
			C673.829,346.771,661.963,355.6,640.686,355.6z M751.192,343.838L751.192,343.838L751.192,343.838L751.192,343.838z
			 M477.061,287.287c-2.549-1.508-6.311-1.588-10.066-1.588h-25.979v19.744h25.631c4.104,0,7.594-0.144,10.414-1.812
			c2.734-1.646,4.371-4.678,4.371-8.438C481.432,291.434,479.795,288.711,477.061,287.287z M712.784,285.697
			c-3.838,0-6.389,0.145-8.537,1.588c-2.227,1.426-3.081,3.537-3.081,6.326c0,3.315,1.879,5.572,4.612,6.549
			c2.228,0.771,4.615,0.996,8.129,0.996l11.437,0.303c11.537,0.285,19.242,2.262,23.938,7.08c0.855,0.668,1.369,1.42,1.957,2.174
			v-25.014h-38.453L712.784,285.697L712.784,285.697z M373.47,285.697h-27.509v22.391h27.265c8.105,0,13.146-4.006,13.149-11.611
			C386.372,288.789,381.086,285.697,373.47,285.697z M189.872,285.697v15.984h46.315v17.938h-46.315v17.49h51.87l24.1-25.791
			l-23.076-25.621H189.872L189.872,285.697z M325.321,347.176v-70.482l-32.391,34.673L325.321,347.176z M191.649,206.025v15.148
			h176.263l-0.082-32.046h3.411c2.39,0.083,3.084,0.302,3.084,4.229v27.818h91.164v-7.461c7.353,3.924,18.789,7.461,33.838,7.461
			h38.353l8.209-19.522h18.197l8.026,19.522h73.906V202.63l11.189,18.543h59.227V98.59h-58.611v14.477l-8.207-14.477h-60.143v14.477
			l-7.537-14.477h-81.24c-13.6,0-25.551,1.89-35.207,7.158V98.59h-56.063v7.158c-6.146-5.43-14.519-7.158-23.826-7.158H180.784
			l-13.742,31.662L152.928,98.59H88.417v14.477L81.329,98.59H26.312L0.763,156.874v46.621l37.779-87.894h31.346l35.88,83.217
			v-83.217h34.435l27.61,59.625l25.365-59.625h35.126v87.894h-21.625l-0.079-68.837l-30.593,68.837h-18.524l-30.671-68.898v68.898
			H83.899l-8.106-19.605H31.865l-8.19,19.605H0.762v17.682h36.049l8.128-19.523h18.198l8.106,19.523h70.925V206.25l6.33,14.989
			h36.819L191.649,206.025z M469.401,125.849c6.818-7.015,17.5-10.25,32.039-10.25h20.424v18.833h-19.996
			c-7.696,0-12.047,1.14-16.233,5.208c-3.599,3.7-6.066,10.696-6.066,19.908c0,9.417,1.881,16.206,5.801,20.641
			c3.248,3.478,9.152,4.533,14.705,4.533h9.478l29.733-69.12h31.611l35.719,83.134v-83.133h32.123l37.086,61.213v-61.213h21.611
			v87.891h-29.898l-39.989-65.968v65.968h-42.968l-8.209-19.605h-43.827l-7.966,19.605h-24.688c-10.254,0-23.238-2.258-30.59-9.722
			c-7.416-7.462-11.271-17.571-11.271-33.553C458.026,147.182,460.329,135.266,469.401,125.849z M426.006,115.6h21.526v87.894
			h-21.526V115.6z M328.951,115.6h48.525c10.779,0,18.727,0.285,25.547,4.21c6.674,3.926,10.676,9.658,10.676,19.46
			c0,14.015-9.393,21.254-14.864,23.429c4.614,1.75,8.559,4.841,10.438,7.401c2.979,4.372,3.492,8.277,3.492,16.126v17.267h-21.279
			l-0.08-11.084c0-5.29,0.508-12.896-3.33-17.122c-3.082-3.09-7.782-3.763-15.379-3.763H350.05v31.97h-21.098L328.951,115.6
			L328.951,115.6z M243.902,115.6h70.479v18.303h-49.379v15.843h48.193v18.017h-48.193v17.553h49.379v18.177h-70.479V115.6
			L243.902,115.6z"/>
	</g>
</g>
</svg>
