<?xml version="1.0" encoding="utf-8"?>
<!-- Generator: Adobe Illustrator 16.0.0, SVG Export Plug-In . SVG Version: 6.00 Build 0)  -->
<!DOCTYPE svg PUBLIC "-//W3C//DTD SVG 1.1//EN" "http://www.w3.org/Graphics/SVG/1.1/DTD/svg11.dtd">
<svg version="1.1" id="Layer_1" xmlns:sketch="http://www.bohemiancoding.com/sketch/ns"
	 xmlns="http://www.w3.org/2000/svg" xmlns:xlink="http://www.w3.org/1999/xlink" x="0px" y="0px" width="752px" height="471px"
	 viewBox="0 0 752 471" enable-background="new 0 0 752 471" xml:space="preserve">
<title>Slice 1</title>
<desc>Created with Sketch.</desc>
<g id="amex" sketch:type="MSLayerGroup">
	<path id="Path" sketch:type="MSShapeGroup" fill="#2557D6" d="M1.002,221.185h36.024l8.123-19.51h18.185l8.102,19.51h70.881
		v-14.916l6.326,14.979h36.796l6.327-15.202v15.139h176.151l-0.083-32.026h3.408c2.387,0.083,3.084,0.302,3.084,4.226v27.8h91.105
		v-7.456c7.349,3.921,18.778,7.456,33.818,7.456h38.328l8.203-19.51h18.185l8.022,19.51h73.859v-18.532l11.186,18.532h59.187V98.678
		h-58.575v14.468l-8.202-14.468h-60.104v14.468l-7.532-14.468h-81.188c-13.591,0-25.536,1.889-35.187,7.153v-7.153h-56.026v7.153
		c-6.141-5.426-14.508-7.153-23.812-7.153H180.907l-13.733,31.642l-14.104-31.642H88.6v14.468l-7.083-14.468H26.533L1,156.924
		v64.261H1.002L1.002,221.185z M228.4,203.514h-21.615l-0.079-68.793l-30.573,68.793H157.62l-30.652-68.854v68.854H84.084
		l-8.102-19.592H32.083L23.9,203.514H1l37.756-87.837h31.326l35.858,83.164v-83.164h34.412l27.593,59.587l25.348-59.587h35.104
		v87.837H228.4L228.4,203.514z M68.778,165.693l-14.432-35.017l-14.349,35.017H68.778L68.778,165.693z M314.419,203.514h-70.433
		v-87.837h70.433v18.292h-49.348v15.833h48.164v18.005h-48.164v17.542h49.348V203.514L314.419,203.514z M413.675,139.333
		c0,14.005-9.387,21.24-14.856,23.413c4.613,1.749,8.554,4.838,10.43,7.397c2.977,4.369,3.49,8.271,3.49,16.116v17.255h-21.266
		l-0.08-11.077c0-5.286,0.508-12.887-3.328-17.112c-3.081-3.089-7.777-3.76-15.368-3.76h-22.633v31.949h-21.083v-87.837h48.494
		c10.775,0,18.715,0.284,25.531,4.208C409.676,123.808,413.675,129.536,413.675,139.333L413.675,139.333z M387.023,152.376
		c-2.897,1.751-6.324,1.81-10.43,1.81H350.98v-19.51h25.962c3.674,0,7.508,0.164,9.998,1.584c2.735,1.28,4.428,4.003,4.428,7.765
		C391.367,147.864,389.758,150.954,387.023,152.376L387.023,152.376z M447.489,203.514h-21.513v-87.837h21.513V203.514
		L447.489,203.514z M697.229,203.514H667.35l-39.964-65.927v65.927h-42.939l-8.205-19.592h-43.799l-7.96,19.592h-24.672
		c-10.248,0-23.224-2.257-30.572-9.715c-7.41-7.458-11.265-17.56-11.265-33.533c0-13.027,2.304-24.936,11.366-34.347
		c6.815-7.01,17.49-10.243,32.02-10.243h20.412v18.821h-19.983c-7.694,0-12.039,1.139-16.225,5.204
		c-3.595,3.698-6.061,10.69-6.061,19.896c0,9.411,1.878,16.196,5.797,20.628c3.246,3.476,9.145,4.53,14.694,4.53h9.47l29.716-69.077
		h31.592l35.696,83.082V115.68h32.103l37.062,61.174V115.68h21.597V203.514L697.229,203.514z M569.071,165.693l-14.591-35.017
		l-14.511,35.017H569.071L569.071,165.693z"/>
	<path id="path13" sketch:type="MSShapeGroup" fill="#2557D6" d="M750.956,343.768c-5.122,7.457-15.102,11.238-28.612,11.238
		h-40.717v-18.84h40.553c4.022,0,6.837-0.527,8.532-2.175c1.469-1.359,2.493-3.333,2.493-5.731c0-2.559-1.024-4.591-2.576-5.81
		c-1.529-1.341-3.757-1.95-7.428-1.95c-19.798-0.67-44.496,0.609-44.496-27.193c0-12.743,8.126-26.156,30.251-26.156h41.997v-17.48
		h-39.02c-11.776,0-20.33,2.808-26.388,7.174v-7.174H627.83c-9.229,0-20.063,2.277-25.188,7.174v-7.174H499.577v7.174
		c-8.203-5.893-22.043-7.174-28.431-7.174h-67.983v7.174c-6.489-6.258-20.92-7.174-29.716-7.174h-76.084l-17.411,18.762
		l-16.307-18.762H149.991v122.592h111.516l17.939-19.061l16.9,19.061l68.738,0.061v-28.839h6.758
		c9.12,0.141,19.877-0.226,29.367-4.311v33.085h56.697v-31.951h2.735c3.49,0,3.834,0.144,3.834,3.617v28.332h172.234
		c10.935,0,22.365-2.787,28.694-7.845v7.845h54.632c11.369,0,22.472-1.587,30.919-5.651V343.768L750.956,343.768z M409.452,296.613
		c0,24.405-18.286,29.444-36.716,29.444h-26.308v29.47h-40.98l-25.962-29.086l-26.98,29.086H168.99v-87.859h84.801l25.94,28.799
		l26.818-28.799h67.371C390.654,267.668,409.452,272.281,409.452,296.613L409.452,296.613z M241.827,337.047H189.99v-17.48h46.288
		v-17.926H189.99v-15.974h52.86l23.062,25.604L241.827,337.047L241.827,337.047z M325.354,347.106l-32.37-35.788l32.37-34.65
		V347.106L325.354,347.106z M373.227,308.041H345.98v-22.374h27.492c7.611,0,12.896,3.089,12.896,10.772
		C386.367,304.038,381.328,308.041,373.227,308.041L373.227,308.041z M515.97,267.668h70.37v18.17h-49.373v15.973h48.168v17.926
		h-48.168v17.48l49.373,0.08v18.23h-70.37V267.668L515.97,267.668z M488.917,314.697c4.693,1.725,8.529,4.816,10.328,7.376
		c2.978,4.289,3.408,8.292,3.493,16.036v17.418h-21.167v-10.992c0-5.286,0.511-13.112-3.408-17.197
		c-3.081-3.148-7.777-3.9-15.469-3.9h-22.532v32.09h-21.187v-87.859h48.678c10.675,0,18.448,0.469,25.369,4.146
		c6.653,4.004,10.839,9.487,10.839,19.51C503.859,305.348,494.467,312.504,488.917,314.697L488.917,314.697z M476.998,303.59
		c-2.819,1.667-6.308,1.811-10.41,1.811h-25.613v-19.733h25.962c3.754,0,7.511,0.079,10.062,1.587
		c2.732,1.423,4.366,4.145,4.366,7.903S479.731,301.945,476.998,303.59L476.998,303.59z M667.335,309.187
		c4.105,4.231,6.306,9.572,6.306,18.614c0,18.9-11.858,27.724-33.122,27.724h-41.065v-18.84h40.901c3.998,0,6.835-0.527,8.612-2.175
		c1.449-1.359,2.49-3.334,2.49-5.73c0-2.561-1.126-4.592-2.573-5.811c-1.612-1.341-3.837-1.95-7.508-1.95
		c-19.718-0.67-44.41,0.609-44.41-27.192c0-12.744,8.04-26.158,30.144-26.158h42.269v18.699h-38.677
		c-3.834,0-6.326,0.144-8.447,1.588c-2.31,1.422-3.166,3.533-3.166,6.32c0,3.314,1.961,5.569,4.613,6.545
		c2.225,0.771,4.613,0.996,8.205,0.996l11.351,0.305C654.702,302.398,662.56,304.37,667.335,309.187L667.335,309.187z M751,285.667
		h-38.427c-3.837,0-6.386,0.144-8.533,1.587c-2.224,1.423-3.081,3.535-3.081,6.322c0,3.314,1.879,5.568,4.611,6.543
		c2.225,0.771,4.613,0.996,8.125,0.996l11.428,0.305c11.53,0.284,19.228,2.258,23.921,7.072c0.854,0.67,1.367,1.422,1.956,2.174
		V285.667L751,285.667z"/>
</g>
</svg>
