<?xml version="1.0" encoding="utf-8"?>
<!-- Generator: Adobe Illustrator 16.0.0, SVG Export Plug-In . SVG Version: 6.00 Build 0)  -->
<!DOCTYPE svg PUBLIC "-//W3C//DTD SVG 1.1//EN" "http://www.w3.org/Graphics/SVG/1.1/DTD/svg11.dtd">
<svg version="1.1" id="Layer_1" xmlns:sketch="http://www.bohemiancoding.com/sketch/ns"
	 xmlns="http://www.w3.org/2000/svg" xmlns:xlink="http://www.w3.org/1999/xlink" x="0px" y="0px" width="780px" height="501px"
	 viewBox="0 0 780 501" enable-background="new 0 0 780 501" xml:space="preserve">
<title>discover</title>
<desc>Created with Sketch.</desc>
<g id="Page-1" sketch:type="MSPage">
	<g id="discover" sketch:type="MSLayerGroup">
		<path fill="#F47216" d="M415.131,197.758c30.939,0,56.021,23.58,56.021,52.709v0.033c0,29.129-25.082,52.742-56.021,52.742
			c-30.94,0-56.021-23.613-56.021-52.742v-0.033C359.11,221.338,384.191,197.758,415.131,197.758L415.131,197.758z"/>
		<path d="M327.153,198.438c8.836,0,16.247,1.785,25.268,6.09v22.752c-8.544-7.863-15.955-11.154-25.756-11.154
			c-19.265,0-34.414,15.015-34.414,34.051c0,20.074,14.681,34.195,35.369,34.195c9.313,0,16.586-3.12,24.801-10.857v22.764
			c-9.342,4.141-16.912,5.775-25.756,5.775c-31.278,0-55.582-22.596-55.582-51.736C271.082,221.49,296.033,198.438,327.153,198.438
			L327.153,198.438z"/>
		<path d="M230.039,199.064c11.546,0,22.11,3.721,30.943,10.994l-10.748,13.248c-5.351-5.646-10.411-8.027-16.564-8.027
			c-8.854,0-15.301,4.745-15.301,10.988c0,5.354,3.619,8.188,15.945,12.482c23.364,8.043,30.289,15.176,30.289,30.926
			c0,19.193-14.976,32.553-36.32,32.553c-15.63,0-26.993-5.795-36.457-18.871l13.268-12.031c4.73,8.61,12.622,13.223,22.42,13.223
			c9.163,0,15.947-5.952,15.947-13.984c0-4.164-2.055-7.734-6.158-10.258c-2.066-1.195-6.158-2.977-14.199-5.646
			c-19.292-6.538-25.91-13.527-25.91-27.186C197.194,211.25,211.407,199.064,230.039,199.064L230.039,199.064z"/>
		<polygon points="464.762,200.793 487.199,200.793 515.283,267.385 543.729,200.793 565.996,200.793 520.502,302.479 
			509.449,302.479 464.762,200.793 		"/>
		<polygon points="163.549,200.945 184.09,200.945 184.09,300.088 163.549,300.088 163.549,200.945 		"/>
		<polygon points="575.283,200.945 633.535,200.945 633.535,217.744 595.809,217.744 595.809,239.75 632.145,239.75 
			632.145,256.541 595.809,256.541 595.809,283.303 633.535,283.303 633.535,300.088 575.283,300.088 575.283,200.945 		"/>
		<path d="M690.875,258.322c15.472-2.965,23.986-12.926,23.986-28.105c0-18.562-13.576-29.271-37.266-29.271h-30.455v99.143h20.516
			V260.26h2.678l28.43,39.828h25.26L690.875,258.322z M673.658,246.586h-6.002v-30.025h6.326c12.791,0,19.744,5.049,19.744,14.697
			C693.727,241.224,686.775,246.586,673.658,246.586z"/>
		<path d="M97.565,200.945h-30.15v99.143h29.992c15.947,0,27.465-3.543,37.574-11.445c12.013-9.361,19.117-23.467,19.117-38.057
			C154.098,221.327,130.876,200.945,97.565,200.945z M121.561,275.424c-6.454,5.484-14.837,7.879-28.109,7.879H87.94v-65.559h5.512
			c13.272,0,21.324,2.238,28.109,8.018c7.104,5.956,11.377,15.183,11.377,24.682C132.938,259.957,128.664,269.468,121.561,275.424z"
			/>
	</g>
</g>
</svg>
