<?xml version="1.0" encoding="utf-8"?>
<!-- Generator: Adobe Illustrator 16.0.0, SVG Export Plug-In . SVG Version: 6.00 Build 0)  -->
<!DOCTYPE svg PUBLIC "-//W3C//DTD SVG 1.1//EN" "http://www.w3.org/Graphics/SVG/1.1/DTD/svg11.dtd">
<svg version="1.1" id="Layer_1" xmlns:sketch="http://www.bohemiancoding.com/sketch/ns"
	 xmlns="http://www.w3.org/2000/svg" xmlns:xlink="http://www.w3.org/1999/xlink" x="0px" y="0px" width="780px" height="501px"
	 viewBox="0 0 780 501" enable-background="new 0 0 780 501" xml:space="preserve">
<title>discover</title>
<desc>Created with Sketch.</desc>
<g id="Page-1" sketch:type="MSPage">
	<g id="discover" sketch:type="MSLayerGroup">
		<path fill="#F47216" d="M409.412,197.758c30.938,0,56.02,23.58,56.02,52.709v0.033c0,29.129-25.082,52.742-56.02,52.742
			c-30.941,0-56.022-23.613-56.022-52.742v-0.033C353.39,221.338,378.471,197.758,409.412,197.758L409.412,197.758z"/>
		<path d="M321.433,198.438c8.836,0,16.247,1.785,25.269,6.09v22.752c-8.544-7.863-15.955-11.154-25.757-11.154
			c-19.265,0-34.413,15.015-34.413,34.051c0,20.074,14.681,34.195,35.368,34.195c9.313,0,16.586-3.12,24.802-10.856v22.764
			c-9.343,4.141-16.912,5.775-25.757,5.775c-31.277,0-55.581-22.597-55.581-51.737C265.363,221.49,290.314,198.438,321.433,198.438
			L321.433,198.438z"/>
		<path d="M224.32,199.064c11.546,0,22.109,3.721,30.942,10.994l-10.748,13.248c-5.351-5.646-10.411-8.027-16.563-8.027
			c-8.854,0-15.301,4.745-15.301,10.988c0,5.354,3.618,8.188,15.944,12.482c23.364,8.043,30.289,15.176,30.289,30.926
			c0,19.193-14.976,32.554-36.319,32.554c-15.631,0-26.993-5.795-36.457-18.871l13.268-12.031
			c4.73,8.609,12.622,13.223,22.42,13.223c9.163,0,15.947-5.951,15.947-13.984c0-4.164-2.056-7.733-6.158-10.258
			c-2.066-1.195-6.158-2.977-14.199-5.646c-19.292-6.538-25.91-13.527-25.91-27.186C191.474,211.25,205.688,199.064,224.32,199.064
			L224.32,199.064z"/>
		<polygon points="459.043,200.793 481.479,200.793 509.563,267.385 538.01,200.793 560.276,200.793 514.783,302.479 
			503.729,302.479 		"/>
		<polygon points="157.83,200.945 178.371,200.945 178.371,300.088 157.83,300.088 		"/>
		<polygon points="569.563,200.945 627.815,200.945 627.815,217.744 590.09,217.744 590.09,239.75 626.426,239.75 626.426,256.541 
			590.09,256.541 590.09,283.303 627.815,283.303 627.815,300.088 569.563,300.088 		"/>
		<path d="M685.156,258.322c15.471-2.965,23.984-12.926,23.984-28.105c0-18.562-13.576-29.271-37.266-29.271H641.42v99.143h20.516
			V260.26h2.68l28.43,39.828h25.26L685.156,258.322z M667.938,246.586h-6.002v-30.025h6.326c12.791,0,19.744,5.049,19.744,14.697
			C688.008,241.224,681.055,246.586,667.938,246.586z"/>
		<path d="M91.845,200.945H61.696v99.143h29.992c15.946,0,27.465-3.543,37.573-11.445c12.014-9.36,19.117-23.467,19.117-38.057
			C148.379,221.327,125.157,200.945,91.845,200.945z M115.842,275.424c-6.454,5.484-14.837,7.879-28.108,7.879H82.22v-65.559h5.513
			c13.271,0,21.323,2.238,28.108,8.018c7.104,5.956,11.377,15.183,11.377,24.682C127.219,259.957,122.945,269.468,115.842,275.424z"
			/>
	</g>
</g>
</svg>
