<?xml version="1.0" encoding="utf-8"?>
<!-- Generator: Adobe Illustrator 21.0.0, SVG Export Plug-In . SVG Version: 6.00 Build 0)  -->
<svg version="1.1" id="Layer_1" xmlns:sketch="http://www.bohemiancoding.com/sketch/ns"
	 xmlns="http://www.w3.org/2000/svg" xmlns:xlink="http://www.w3.org/1999/xlink" x="0px" y="0px" viewBox="0 0 750 471"
	 style="enable-background:new 0 0 750 471;" xml:space="preserve">
<style type="text/css">
	.st0{fill:#FFF100;}
	.st1{fill:#00A3DF;}
	.st2{fill:#EE4023;}
</style>
<title>Slice 1</title>
<desc>Created with Sketch.</desc>
<g>
	<g>
		<path class="st0" d="M150.7,170.6c6.8-2.3,14.1-3.5,21.7-3.5c33.2,0,60.9,23.6,67.2,54.9l47-9.6c-10.8-53.2-57.8-93.3-114.2-93.3
			c-12.9,0-25.3,2.1-36.9,6L150.7,170.6z"/>
		<path class="st1" d="M95.2,323L127,287c-14.2-12.6-23.1-30.9-23.1-51.4c0-20.4,8.9-38.8,23.1-51.3l-31.8-35.9
			c-24.1,21.4-39.3,52.5-39.3,87.3C55.9,270.4,71.1,301.6,95.2,323z"/>
		<path class="st2" d="M239.6,249.4c-6.4,31.3-34,54.8-67.2,54.8c-7.6,0-14.9-1.2-21.8-3.5l-15.2,45.5c11.6,3.9,24.1,6,37,6
			c56.4,0,103.4-40,114.2-93.2L239.6,249.4z"/>
	</g>
	<g>
		<g>
			<g>
				<path d="M443.2,281.6c-7.8,7.6-18.3,12.2-29.9,12c-8-0.1-15.4-2.5-21.6-6.5l-15.6,24.8c10.7,6.7,23.2,10.7,36.8,10.9
					c19.7,0.3,37.7-7.5,50.8-20.2L443.2,281.6z"/>
				<path d="M415,180.5c-39.2-0.6-71.6,30.8-72.2,70c-0.2,14.7,4,28.5,11.5,39.9l128.8-55.1C475.9,204.4,448.3,181.1,415,180.5
					 M372.3,256.1c-0.2-1.6-0.3-3.3-0.3-5c0.4-23.1,19.4-41.6,42.5-41.2c12.6,0.2,23.8,5.9,31.3,14.9L372.3,256.1z"/>
			</g>
			<path d="M523.6,148.5v137.3l23.8,9.9l-11.3,27.1l-23.6-9.8c-5.3-2.3-8.9-5.8-11.6-9.8c-2.6-4-4.6-9.6-4.6-17V148.5H523.6z"/>
		</g>
		<g>
			<path d="M609.5,212c4.2-1.4,8.6-2.1,13.3-2.1c20.3,0,37.1,14.4,41,33.5l28.7-5.9c-6.6-32.5-35.3-56.9-69.7-56.9
				c-7.9,0-15.5,1.3-22.5,3.6L609.5,212z"/>
			<path d="M575.6,304.9L595,283c-8.7-7.7-14.1-18.9-14.1-31.4c0-12.5,5.5-23.7,14.1-31.3l-19.4-21.9c-14.7,13-24,32.1-24,53.3
				C551.6,272.9,560.9,291.9,575.6,304.9z"/>
			<path d="M663.8,260.1c-3.9,19.1-20.8,33.5-41,33.5c-4.6,0-9.1-0.8-13.3-2.2l-9.3,27.8c7.1,2.4,14.7,3.7,22.6,3.7
				c34.4,0,63.1-24.4,69.7-56.9L663.8,260.1z"/>
		</g>
	</g>
</g>
</svg>
