<svg enable-background="new 0 0 780 501" viewBox="0 0 780 501" xmlns="http://www.w3.org/2000/svg"><path d="m725 0h-670c-30.3 0-55 24.7-55 55v391c0 30.3 24.7 55 55 55h670c30.3 0 55-24.7 55-55v-391c0-30.3-24.7-55-55-55z" fill="none"/><g fill="#b3131b"><path d="m225.7 184.9c1.2-1.6 2.9-2.6 5.9-3.1 3.2-.5 5.6-.2 6.9 1 4.4 3.9.5 13.2-2.4 15.3-1.9 1.3-8.3 2.8-11.1 0-2.9-2.9-1.1-10.7.7-13.2z"/><path d="m176.2 284.1c2.7-17 6.1-33.2 9-49.9-13.9-1.3-31.3-.7-45.8-.3-3.5 16.1-6 33.3-8.7 50.3h-17c6.7-33.1 12.1-67.5 18-101.3h16.6c-2.8 13.3-4.8 27.3-7.6 40.6 14.9 1.1 30.7.5 46.1.3 2.4-13.5 4.8-27.1 6.9-40.9h17.3c-6.8 32.9-12.6 67-18 101.3h-16.8z"/><path d="m208.1 284.1c4.8-23.1 9.2-46.5 12.5-71.1 0-.5-.1-1 .3-1h14.9c-5.1 23.2-9.2 47.4-12.8 72.1z"/><path d="m405 237.6c-4.6 13.5-5.5 32.4-7.6 46.5h-14.9c4.5-23.7 9.3-47.1 12.5-72.1h13.2c-.9 4-1.3 8.4-2.4 12.1 4.8-8.5 15.2-17.5 28.4-12.1-.4 3.8-1.5 6.8-1.7 10.8-14.1-5.1-23.8 4-27.5 14.8z"/><path d="m476.1 282c-19.5 6.7-43.5 5.8-48.9-11.8-4.6-15 1.9-38.9 11.8-49.2 10.1-10.6 29.2-12.6 49.2-9.4-.5 4-1.4 7.7-1.7 11.8-12.2-4.3-27.6-5.5-35.4 2.1-5.6 5.5-9.3 17.7-10.1 27.7-.3 4.5 0 10.3 1.4 13.9 4.7 12.2 25.1 9.3 35.7 3.8-.7 3.6-1.1 7.5-2 11.1z"/><path d="m576.7 258c-1.5 9.4-3.4 16.4-3.5 26h-15.2c5-23.3 9.3-47.4 12.8-72.1h13.2c-1.1 3.5-1.2 8-2.4 11.4 4.3-6.6 15.3-17.7 28.4-11.1-1 3.2-1.3 7-2.1 10.4-23.3-6.5-28 15.4-31.2 35.4z"/><path d="m295.5 211.9c-12.6-4.7-28 .9-34.7 6.3 0 0 0 0 0-.1.1-2.3.9-3.9 1-6.2h-12.8c-5.3 35.6-11.7 70.2-18.4 104.4h14.9c2.2-13.3 3.6-27.4 6.6-39.9 3.4 13.1 25.6 10.6 35 5.5 19.4-10.4 34.3-60.2 8.4-70zm-11.8 58.6c-8 8.4-27.6 8.3-29.1-5.9-.7-6.2 1.6-12.7 2.8-19.1 1.2-6.5 2-12.7 3.1-18.4 7.9-9.6 30.9-10.8 33.3 5.2 1.9 13.9-3.5 31.2-10.1 38.2z"/><path d="m553.8 223.7c-1.1-19-32.6-12.3-50.3-11.8-.7 4.1-1.9 7.8-2.8 11.8 8.8-2.2 36.2-9 38.8 2.8.9 3.9-.6 8-1.7 11.1-24.8-2.3-45 1.8-50.3 19.4-3.6 11.8.4 23.5 8 26.7 14.6 6.3 32.3-.9 38.5-10.8-.6 3.4-1.2 6.8-1 11.1h12.8c.1-12.3 1.9-22.2 3.8-33.3 1.7-9.4 4.7-18.7 4.2-27zm-26 46.5c-7.7 7.5-29.3 9.7-27-8.3 1.8-14.9 18.1-18.1 35.7-16-1.3 8.2-2.8 18.6-8.7 24.3z"/><path d="m260.8 218.2c-.1.1-.2.2-.4.3.2 0 .4 0 .4-.3z"/><path d="m665.5 180.7c-1.3 11.2-3 22-5.2 32.3-36.6-11.6-59 15.3-58.6 48.6.1 6.4 1.2 12.8 5.2 17.3 6.9 7.8 26.8 9.7 36.8 3.1 1.9-1.3 3.9-3.6 5.2-5.2 1-1.2 2.5-4.4 2.8-3.5-.5 3.5-1.3 6.8-1.4 10.8h13.5c2.6-37.4 10.7-69.3 16.6-103.3h-14.9zm-33.3 95.4c-10 .2-15-6-15.3-16.3-.4-18 7.5-38.1 23.6-39.9 7.5-.8 12.9.9 18.4 2.8-5 20.2-3.2 52.9-26.7 53.4z"/><path d="m378.3 245.2c1-7.5 3.9-15.8 1.4-23.2-3.4-9.8-15.5-12.4-27.7-11.4-10.8.8-19.9 3.9-26.4 10.7-7.9 8.4-14.4 26.9-12.5 43.7 2.7 24 32.6 23.2 56.5 17.3.4-4.2 1.4-7.8 2.1-11.8-9.9 3.7-27 8.8-37.1 2.4-7.7-4.8-7.7-17.1-5.2-27.7 16.1-.5 32.8-.4 48.9 0zm-27.4-25.6c10.7-.4 18.4 3.9 15.3 17.3h-35c1.1-8.1 8.3-16.9 19.7-17.3z"/></g></svg>