<?xml version="1.0" encoding="utf-8"?>
<!-- Generator: Adobe Illustrator 16.0.0, SVG Export Plug-In . SVG Version: 6.00 Build 0)  -->
<!DOCTYPE svg PUBLIC "-//W3C//DTD SVG 1.1//EN" "http://www.w3.org/Graphics/SVG/1.1/DTD/svg11.dtd">
<svg version="1.1" id="Layer_1" xmlns:sketch="http://www.bohemiancoding.com/sketch/ns"
	 xmlns="http://www.w3.org/2000/svg" xmlns:xlink="http://www.w3.org/1999/xlink" x="0px" y="0px" width="750px" height="471px"
	 viewBox="0 0 750 471" enable-background="new 0 0 750 471" xml:space="preserve">
<title>Slice 1</title>
<desc>Created with Sketch.</desc>
<path id="path3494" sketch:type="MSShapeGroup" fill="#FFFFFF" d="M617.242,346.766c0,41.615-33.728,75.36-75.359,75.36H132.757
	V124.245c0-41.626,33.732-75.371,75.364-75.371l409.121,0V346.766L617.242,346.766L617.242,346.766z"/>
<linearGradient id="path3496_1_" gradientUnits="userSpaceOnUse" x1="274.9148" y1="334.9277" x2="275.9143" y2="334.9277" gradientTransform="matrix(132.8743 0 0 -323.0226 -36071.5273 108424.6016)">
	<stop  offset="0" style="stop-color:#007B40"/>
	<stop  offset="1" style="stop-color:#55B330"/>
</linearGradient>
<path id="path3496" sketch:type="MSShapeGroup" fill="url(#path3496_1_)" d="M483.859,242.045c11.684,0.254,23.438-0.516,35.077,0.4
	c11.787,2.2,14.628,20.043,4.156,25.887c-7.142,3.85-15.633,1.433-23.379,2.114h-15.854V242.045L483.859,242.045z M525.692,209.9
	c2.597,9.164-6.238,17.392-15.066,16.13h-26.767c0.185-8.642-0.367-18.022,0.272-26.209c10.724,0.302,21.548-0.616,32.209,0.48
	C520.921,201.452,524.754,205.218,525.692,209.9L525.692,209.9z M590.12,73.997c0.497,17.501,0.071,35.927,0.213,53.783
	c-0.034,72.596,0.072,145.194-0.055,217.789c-0.469,27.207-24.582,50.845-51.6,51.388c-27.046,0.111-54.095,0.016-81.142,0.047
	v-109.75c29.47-0.154,58.958,0.307,88.416-0.232c13.667-0.859,28.633-9.876,29.27-24.914c1.61-15.102-12.631-25.551-26.152-27.202
	c-5.198-0.135-5.044-1.515,0-2.117c12.893-2.787,23.02-16.133,19.226-29.499c-3.235-14.058-18.772-19.499-31.696-19.472
	c-26.352-0.179-52.709-0.025-79.063-0.077c0.171-20.489-0.354-41,0.285-61.474c2.088-26.716,26.806-48.748,53.447-48.27
	C537.553,73.998,563.837,73.998,590.12,73.997L590.12,73.997z"/>
<linearGradient id="path3498_1_" gradientUnits="userSpaceOnUse" x1="274.9211" y1="334.9268" x2="275.9163" y2="334.9268" gradientTransform="matrix(133.4307 0 0 -323.0203 -36523.1992 108423.8281)">
	<stop  offset="0" style="stop-color:#1D2970"/>
	<stop  offset="1" style="stop-color:#006DBA"/>
</linearGradient>
<path id="path3498" sketch:type="MSShapeGroup" fill="url(#path3498_1_)" d="M159.74,125.041
	c0.673-27.164,24.888-50.611,51.874-51.008c26.945-0.083,53.892-0.012,80.837-0.036c-0.074,90.885,0.148,181.776-0.111,272.658
	c-1.038,26.833-24.989,49.833-51.679,50.308c-26.996,0.098-53.995,0.014-80.992,0.041V283.551
	c26.223,6.195,53.722,8.832,80.474,4.722c15.991-2.575,33.487-10.425,38.901-27.015c3.986-14.191,1.741-29.126,2.334-43.691v-33.825
	h-46.297c-0.208,22.371,0.426,44.781-0.335,67.125c-1.248,13.734-14.847,22.46-27.8,21.994c-16.066,0.17-47.899-11.64-47.899-11.64
	C158.967,219.305,159.514,166.814,159.74,125.041L159.74,125.041z"/>
<linearGradient id="path3500_1_" gradientUnits="userSpaceOnUse" x1="274.9153" y1="334.9277" x2="275.914" y2="334.9277" gradientTransform="matrix(132.9583 0 0 -323.0276 -36243.6641 108426.2656)">
	<stop  offset="0" style="stop-color:#6E2B2F"/>
	<stop  offset="1" style="stop-color:#E30138"/>
</linearGradient>
<path id="path3500" sketch:type="MSShapeGroup" fill="url(#path3500_1_)" d="M309.72,197.39c-2.435,0.517-0.491-8.301-1.114-11.646
	c0.166-21.15-0.346-42.323,0.284-63.458c2.082-26.829,26.991-48.916,53.738-48.288h78.767
	c-0.074,90.885,0.147,181.776-0.111,272.657c-1.039,26.834-24.992,49.833-51.682,50.309c-26.997,0.1-53.997,0.014-80.996,0.042
	V272.707c18.44,15.129,43.5,17.485,66.472,17.526c17.317-0.006,34.534-2.676,51.351-6.671V260.79
	c-18.953,9.446-41.233,15.446-62.243,10.019c-14.656-3.651-25.294-17.813-25.057-32.937c-1.698-15.729,7.524-32.335,22.981-37.011
	c19.191-6.008,40.107-1.413,58.097,6.398c3.854,2.018,7.764,4.521,6.222-1.921v-17.899c-30.085-7.158-62.102-9.792-92.329-2.005
	C325.351,187.902,316.828,191.645,309.72,197.39L309.72,197.39z"/>
</svg>
