<?xml version="1.0" encoding="utf-8"?>
<!-- Generator: Adobe Illustrator 16.0.0, SVG Export Plug-In . SVG Version: 6.00 Build 0)  -->
<!DOCTYPE svg PUBLIC "-//W3C//DTD SVG 1.1//EN" "http://www.w3.org/Graphics/SVG/1.1/DTD/svg11.dtd">
<svg version="1.1" id="Layer_1" xmlns:sketch="http://www.bohemiancoding.com/sketch/ns"
	 xmlns="http://www.w3.org/2000/svg" xmlns:xlink="http://www.w3.org/1999/xlink" x="0px" y="0px" width="750px" height="471px"
	 viewBox="0 0 750 471" enable-background="new 0 0 750 471" xml:space="preserve">
<title>Slice 1</title>
<desc>Created with Sketch.</desc>
<g id="Page-1" sketch:type="MSPage">
	<g id="maestro" sketch:type="MSLayerGroup">
		<path id="Fill-1" sketch:type="MSShapeGroup" fill="#D9222A" d="M675,235.506c0,99.133-80.351,179.496-179.483,179.496
			c-99.121,0-179.479-80.362-179.479-179.496c0-99.142,80.358-179.508,179.479-179.508C594.65,55.998,675,136.365,675,235.506"/>
		<path id="Fill-2" sketch:type="MSShapeGroup" fill="#0097D0" d="M356.87,349.49c-4.958-6.014-9.524-12.359-13.675-19.009h63.612
			c3.817-6.097,7.263-12.442,10.342-19.013h-84.292c-2.87-6.15-5.425-12.492-7.596-19h99.476c5.987-17.904,9.229-37.05,9.229-56.962
			c0-13.046-1.392-25.763-4.028-38.013H320.074c1.392-6.479,3.142-12.816,5.209-19.008h99.441
			c-2.184-6.508-4.721-12.85-7.592-19.004h-84.254c3.075-6.563,6.529-12.904,10.337-19.009h63.571
			c-4.146-6.629-8.725-12.975-13.671-18.991h-36.225c5.57-6.767,11.629-13.117,18.112-19
			c-31.854-28.884-74.138-46.483-120.517-46.483C155.359,55.998,75,136.365,75,235.506c0,99.133,80.358,179.496,179.487,179.496
			c46.388,0,88.666-17.596,120.517-46.475c6.496-5.893,12.559-12.259,18.133-19.037H356.87"/>
		<path id="Fill-3" sketch:type="MSShapeGroup" d="M651.074,335.544c0-3.2,2.596-5.796,5.801-5.796c3.199,0,5.791,2.596,5.791,5.796
			c0,3.204-2.592,5.8-5.791,5.8C653.67,341.344,651.074,338.748,651.074,335.544L651.074,335.544L651.074,335.544z M656.875,339.952
			c2.433,0,4.403-1.967,4.403-4.408c0-2.434-1.971-4.396-4.403-4.396c-2.434,0-4.409,1.962-4.409,4.396
			C652.466,337.985,654.442,339.952,656.875,339.952L656.875,339.952L656.875,339.952z M656.087,338.09h-1.184v-5.092h2.15
			c0.446,0,0.904,0.004,1.3,0.258c0.417,0.283,0.646,0.775,0.646,1.271c0,0.583-0.338,1.112-0.88,1.316l0.934,2.246h-1.316
			l-0.775-2.009h-0.875V338.09L656.087,338.09z M656.087,335.211h0.658c0.246,0,0.505,0.016,0.726-0.101
			c0.195-0.129,0.3-0.366,0.3-0.592c0-0.188-0.125-0.417-0.288-0.513c-0.212-0.125-0.541-0.1-0.762-0.1h-0.634V335.211
			L656.087,335.211z"/>
		<path id="Fill-4" sketch:type="MSShapeGroup" d="M372.446,284.006c-7.671,2.033-15.088,3.025-22.929,3.009
			c-25.017-0.024-38.046-11.417-38.046-33.2c0-25.458,16.587-44.183,39.1-44.183c18.417,0,30.175,10.5,30.175,26.946
			c0,5.458-0.796,10.771-2.745,18.296h-44.488c-1.583,10.633,6.188,15.305,19.413,15.305c7.925,0,15.092-1.426,23.024-4.613
			L372.446,284.006L372.446,284.006z M360.483,239.856c0-1.608,2.476-13.034-10.399-13.284c-7.108,0-12.208,4.725-14.271,13.284
			H360.483L360.483,239.856z"/>
		<path id="Fill-5" sketch:type="MSShapeGroup" d="M387.517,234.865c0,9.404,5.296,15.9,17.329,20.737
			c9.199,3.771,10.649,4.859,10.649,8.221c0,4.663-4.066,6.805-13.092,6.746c-6.778-0.05-12.962-0.871-20.262-2.896l-3.229,17.154
			c6.487,1.504,15.588,2,23.65,2.188c24.024,0,35.116-7.866,35.116-24.866c0-10.217-4.625-16.234-16.033-20.713
			c-9.538-3.809-10.658-4.638-10.658-8.083c0-4.05,3.779-6.1,11.149-6.1c4.463,0,10.579,0.413,16.38,1.108l3.258-17.242
			c-5.912-0.825-14.883-1.483-20.075-1.483C396.25,209.635,387.442,221.094,387.517,234.865"/>
		<path id="Fill-6" sketch:type="MSShapeGroup" d="M299.275,285.785h-18.662l0.445-7.82c-5.691,6.17-13.271,9.041-23.558,9.041
			c-12.175,0-20.517-8.324-20.517-20.295c0-18.196,14.5-28.692,39.429-28.692c2.563,0,5.821,0.192,9.167,0.563
			c0.691-2.433,0.879-3.479,0.879-4.808c0-4.979-3.921-6.813-14.412-6.813c-10.342,0.042-17.321,1.571-23.796,3.313l3.188-16.7
			c11.195-2.846,18.529-3.941,26.825-3.941c19.304,0,29.499,7.566,29.499,21.796c0.167,3.795-1.158,11.413-1.82,14.746
			C305.183,251.027,299.833,279.148,299.275,285.785L299.275,285.785L299.275,285.785z M282.896,252.594
			c-2.366-0.242-3.396-0.313-5.013-0.313c-12.729,0-19.183,3.787-19.183,11.267c0,4.692,3.149,7.634,8.058,7.634
			C275.905,271.182,282.508,263.531,282.896,252.594L282.896,252.594L282.896,252.594z"/>
		<path id="Fill-7" sketch:type="MSShapeGroup" d="M477.004,284.606c-6.125,1.679-10.896,2.408-16.059,2.408
			c-11.434,0-17.675-5.842-17.675-16.25c-0.358-2.858,2.434-16.059,3.066-19.737c0.634-3.691,10.538-57.492,10.538-57.492h22.212
			l-3.362,17.8h11.392l-3.096,18.171h-11.441c0,0-6.279,31.529-6.279,33.933c0,3.825,2.316,5.488,7.633,5.488
			c2.546,0,4.509-0.238,6.029-0.692L477.004,284.606"/>
		<path id="Fill-8" sketch:type="MSShapeGroup" d="M576.25,209.631c-16.279,0-29,6.7-36.388,17.892l6.412-16.596
			c-11.816-4.337-19.434,1.85-26.325,10.65c0,0-1.154,1.462-2.3,2.8v-13.05h-20.858c-2.825,23.029-7.82,46.379-11.729,69.446
			l-0.942,5.021h22.438c2.125-11.708,3.875-21.213,5.617-28.788c4.767-20.787,12.787-27.141,24.829-24.333
			c-2.779,5.979-4.305,12.892-4.305,20.554c0,18.58,10.092,33.788,35.15,33.788c25.287,0,43.596-13.509,43.596-44.309
			C611.446,224.127,599.245,209.631,576.25,209.631L576.25,209.631L576.25,209.631z M569.721,268.947
			c-7.926,0.125-12.729-6.524-12.729-16.471c0-11.791,7.013-25.112,18.275-25.112c9.087,0,12.199,7.204,12.199,14.879
			C587.466,259.023,580.591,268.947,569.721,268.947L569.721,268.947L569.721,268.947z"/>
		<path id="Fill-9" sketch:type="MSShapeGroup" d="M226.53,285.794h-22.342l13.279-69.954l-30.571,69.954H166.53l-3.726-69.55
			l-13.32,69.55h-20.271l17.267-90.996h34.913l2.912,50.726l22.117-50.726h37.721L226.53,285.794"/>
		<path id="Fill-10" sketch:type="MSShapeGroup" fill="#FFFFFF" d="M613.15,274.385c0-3.195,2.596-5.795,5.796-5.795
			c3.204,0,5.796,2.6,5.796,5.795c0,3.209-2.592,5.805-5.796,5.805C615.745,280.189,613.15,277.594,613.15,274.385L613.15,274.385
			L613.15,274.385z M618.946,278.798c2.434,0,4.408-1.979,4.408-4.413c0-2.433-1.975-4.403-4.408-4.403s-4.408,1.971-4.408,4.403
			C614.537,276.818,616.512,278.798,618.946,278.798L618.946,278.798L618.946,278.798z M618.162,276.932h-1.188v-5.084h2.15
			c0.449,0,0.908,0,1.304,0.25c0.408,0.279,0.646,0.768,0.646,1.271c0,0.578-0.337,1.116-0.883,1.316l0.934,2.246h-1.317
			l-0.771-2.009h-0.875V276.932L618.162,276.932z M618.162,274.044h0.658c0.242,0,0.504,0.017,0.725-0.097
			c0.196-0.133,0.296-0.357,0.296-0.587c0-0.196-0.12-0.417-0.283-0.513c-0.212-0.129-0.541-0.096-0.763-0.096h-0.633V274.044
			L618.162,274.044z"/>
		<path id="Fill-11" sketch:type="MSShapeGroup" fill="#FFFFFF" d="M378.054,278.398c-7.667,2.033-15.088,3.029-22.925,3.012
			c-25.017-0.025-38.046-11.42-38.046-33.208c0-25.45,16.579-44.179,39.096-44.179c18.421,0,30.175,10.496,30.175,26.942
			c0,5.467-0.8,10.771-2.741,18.3h-44.487c-1.584,10.629,6.179,15.308,19.408,15.308c7.925,0,15.087-1.424,23.029-4.616
			L378.054,278.398L378.054,278.398z M366.091,234.248c0-1.604,2.472-13.033-10.399-13.279c-7.108,0-12.204,4.729-14.271,13.279
			H366.091L366.091,234.248z"/>
		<path id="Fill-12" sketch:type="MSShapeGroup" fill="#FFFFFF" d="M393.129,229.252c0,9.408,5.287,15.9,17.325,20.746
			c9.204,3.767,10.649,4.858,10.649,8.213c0,4.666-4.066,6.808-13.087,6.75c-6.784-0.047-12.967-0.871-20.263-2.896l-3.237,17.146
			c6.491,1.516,15.596,2.012,23.653,2.199c24.025,0,35.121-7.871,35.121-24.871c0-10.217-4.629-16.236-16.041-20.712
			c-9.538-3.809-10.654-4.638-10.654-8.083c0-4.05,3.783-6.1,11.146-6.1c4.471,0,10.583,0.417,16.388,1.113l3.25-17.246
			c-5.913-0.825-14.879-1.483-20.066-1.483C401.854,204.027,393.05,215.481,393.129,229.252"/>
		<path id="Fill-13" sketch:type="MSShapeGroup" fill="#FFFFFF" d="M304.887,280.182h-18.666l0.45-7.821
			c-5.696,6.158-13.275,9.033-23.559,9.033c-12.175,0-20.521-8.325-20.521-20.287c0-18.204,14.495-28.696,39.429-28.696
			c2.563,0,5.816,0.192,9.171,0.563c0.691-2.433,0.875-3.475,0.875-4.808c0-4.983-3.917-6.813-14.408-6.813
			c-10.342,0.042-17.321,1.575-23.796,3.313l3.184-16.696c11.199-2.85,18.529-3.946,26.829-3.946
			c19.304,0,29.495,7.567,29.495,21.792c0.167,3.8-1.158,11.412-1.816,14.754C310.791,245.419,305.442,273.539,304.887,280.182
			L304.887,280.182L304.887,280.182z M288.5,246.985c-2.358-0.245-3.392-0.313-5.013-0.313c-12.721,0-19.18,3.788-19.18,11.267
			c0,4.695,3.154,7.633,8.055,7.633C281.517,265.572,288.12,257.919,288.5,246.985L288.5,246.985L288.5,246.985z"/>
		<path id="Fill-14" sketch:type="MSShapeGroup" fill="#FFFFFF" d="M482.608,279.002c-6.12,1.676-10.896,2.408-16.054,2.408
			c-11.434,0-17.671-5.846-17.671-16.254c-0.362-2.854,2.434-16.059,3.063-19.737c0.634-3.692,10.537-57.492,10.537-57.492h22.209
			l-3.354,17.8h11.392l-3.096,18.171h-11.441c0,0-6.283,31.53-6.283,33.933c0,3.825,2.32,5.479,7.633,5.479
			c2.542,0,4.509-0.229,6.029-0.691L482.608,279.002"/>
		<path id="Fill-15" sketch:type="MSShapeGroup" fill="#FFFFFF" d="M593.079,236.635c0,16.775-6.88,26.709-17.755,26.709
			c-7.921,0.112-12.725-6.525-12.725-16.475c0-11.792,7.008-25.113,18.271-25.113C589.962,221.756,593.079,228.969,593.079,236.635
			L593.079,236.635L593.079,236.635z M617.058,237.102c0-18.579-12.208-33.079-35.195-33.079c-26.45,0-43.55,17.625-43.55,43.596
			c0,18.578,10.083,33.791,35.149,33.791C598.75,281.41,617.058,267.898,617.058,237.102L617.058,237.102L617.058,237.102z"/>
		<path id="Fill-16" sketch:type="MSShapeGroup" fill="#FFFFFF" d="M502.396,205.719c-2.821,23.029-7.816,46.375-11.721,69.45
			l-0.946,5.021h22.434c8.088-44.558,10.8-57.254,27.741-52.783l8.15-21.087c-11.816-4.337-19.425,1.854-26.309,10.658
			c0.621-3.962,1.792-7.783,1.509-11.258H502.396"/>
		<path id="Fill-17" sketch:type="MSShapeGroup" fill="#FFFFFF" d="M232.138,280.189H209.8l13.275-69.958L192.5,280.189h-20.362
			l-3.726-69.554l-13.32,69.554h-20.271l17.263-91h34.921l1.846,56.334l24.575-56.334h36.325L232.138,280.189"/>
	</g>
</g>
</svg>
