<svg id="Layer_1" data-name="Layer 1" xmlns="http://www.w3.org/2000/svg" width="482.51" height="374" viewBox="0 0 482.51 374">
  <title>mastercard</title>
  <g>
    <path d="M220.13,421.67V396.82c0-9.53-5.8-15.74-15.32-15.74-5,0-10.35,1.66-14.08,7-2.9-4.56-7-7-13.25-7a14.07,14.07,0,0,0-12,5.8v-5h-7.87v39.76h7.87V398.89c0-7,4.14-10.35,9.94-10.35s9.11,3.73,9.11,10.35v22.78h7.87V398.89c0-7,4.14-10.35,9.94-10.35s9.11,3.73,9.11,10.35v22.78Zm129.22-39.35h-14.5v-12H327v12h-8.28v7H327V408c0,9.11,3.31,14.5,13.25,14.5A23.17,23.17,0,0,0,351,419.6l-2.49-7a13.63,13.63,0,0,1-7.46,2.07c-4.14,0-6.21-2.49-6.21-6.63V389h14.5v-6.63Zm73.72-1.24a12.39,12.39,0,0,0-10.77,5.8v-5h-7.87v39.76h7.87V399.31c0-6.63,3.31-10.77,8.7-10.77a24.24,24.24,0,0,1,5.38.83l2.49-7.46a28,28,0,0,0-5.8-.83Zm-111.41,4.14c-4.14-2.9-9.94-4.14-16.15-4.14-9.94,0-16.15,4.56-16.15,12.43,0,6.63,4.56,10.35,13.25,11.6l4.14.41c4.56.83,7.46,2.49,7.46,4.56,0,2.9-3.31,5-9.53,5a21.84,21.84,0,0,1-13.25-4.14l-4.14,6.21c5.8,4.14,12.84,5,17,5,11.6,0,17.81-5.38,17.81-12.84,0-7-5-10.35-13.67-11.6l-4.14-.41c-3.73-.41-7-1.66-7-4.14,0-2.9,3.31-5,7.87-5,5,0,9.94,2.07,12.43,3.31Zm120.11,16.57c0,12,7.87,20.71,20.71,20.71,5.8,0,9.94-1.24,14.08-4.56l-4.14-6.21a16.74,16.74,0,0,1-10.35,3.73c-7,0-12.43-5.38-12.43-13.25S445,389,452.07,389a16.74,16.74,0,0,1,10.35,3.73l4.14-6.21c-4.14-3.31-8.28-4.56-14.08-4.56-12.43-.83-20.71,7.87-20.71,19.88h0Zm-55.5-20.71c-11.6,0-19.47,8.28-19.47,20.71s8.28,20.71,20.29,20.71a25.33,25.33,0,0,0,16.15-5.38l-4.14-5.8a19.79,19.79,0,0,1-11.6,4.14c-5.38,0-11.18-3.31-12-10.35h29.41v-3.31c0-12.43-7.46-20.71-18.64-20.71h0Zm-.41,7.46c5.8,0,9.94,3.73,10.35,9.94H364.68c1.24-5.8,5-9.94,11.18-9.94ZM268.59,401.79V381.91h-7.87v5c-2.9-3.73-7-5.8-12.84-5.8-11.18,0-19.47,8.7-19.47,20.71s8.28,20.71,19.47,20.71c5.8,0,9.94-2.07,12.84-5.8v5h7.87V401.79Zm-31.89,0c0-7.46,4.56-13.25,12.43-13.25,7.46,0,12,5.8,12,13.25,0,7.87-5,13.25-12,13.25-7.87.41-12.43-5.8-12.43-13.25Zm306.08-20.71a12.39,12.39,0,0,0-10.77,5.8v-5h-7.87v39.76H532V399.31c0-6.63,3.31-10.77,8.7-10.77a24.24,24.24,0,0,1,5.38.83l2.49-7.46a28,28,0,0,0-5.8-.83Zm-30.65,20.71V381.91h-7.87v5c-2.9-3.73-7-5.8-12.84-5.8-11.18,0-19.47,8.7-19.47,20.71s8.28,20.71,19.47,20.71c5.8,0,9.94-2.07,12.84-5.8v5h7.87V401.79Zm-31.89,0c0-7.46,4.56-13.25,12.43-13.25,7.46,0,12,5.8,12,13.25,0,7.87-5,13.25-12,13.25-7.87.41-12.43-5.8-12.43-13.25Zm111.83,0V366.17h-7.87v20.71c-2.9-3.73-7-5.8-12.84-5.8-11.18,0-19.47,8.7-19.47,20.71s8.28,20.71,19.47,20.71c5.8,0,9.94-2.07,12.84-5.8v5h7.87V401.79Zm-31.89,0c0-7.46,4.56-13.25,12.43-13.25,7.46,0,12,5.8,12,13.25,0,7.87-5,13.25-12,13.25C564.73,415.46,560.17,409.25,560.17,401.79Z" transform="translate(-132.74 -48.5)"/>
    <g>
      <rect x="169.81" y="31.89" width="143.72" height="234.42" fill="#ff5f00"/>
      <path d="M317.05,197.6A149.5,149.5,0,0,1,373.79,80.39a149.1,149.1,0,1,0,0,234.42A149.5,149.5,0,0,1,317.05,197.6Z" transform="translate(-132.74 -48.5)" fill="#eb001b"/>
      <path d="M615.26,197.6a148.95,148.95,0,0,1-241,117.21,149.43,149.43,0,0,0,0-234.42,148.95,148.95,0,0,1,241,117.21Z" transform="translate(-132.74 -48.5)" fill="#f79e1b"/>
    </g>
  </g>
</svg>
