<?xml version="1.0" encoding="utf-8"?>
<!-- Generator: Adobe Illustrator 16.0.0, SVG Export Plug-In . SVG Version: 6.00 Build 0)  -->
<!DOCTYPE svg PUBLIC "-//W3C//DTD SVG 1.1//EN" "http://www.w3.org/Graphics/SVG/1.1/DTD/svg11.dtd">
<svg version="1.1" id="Layer_1" xmlns:sketch="http://www.bohemiancoding.com/sketch/ns"
	 xmlns="http://www.w3.org/2000/svg" xmlns:xlink="http://www.w3.org/1999/xlink" x="0px" y="0px" width="780px" height="501px"
	 viewBox="0 0 780 501" enable-background="new 0 0 780 501" xml:space="preserve">
<title>amex-outline</title>
<desc>Created with Sketch.</desc>
<g>
	<path fill="#253B80" d="M248.536,193.772c-8.167,0-16.335,0.653-24.176,1.96c-8.821,1.307-16.01,1.307-19.275,11.107
		c-1.307,4.248-2.94,8.495-2.94,12.742c0,1.634,0.979,3.268,2.94,3.268c2.939,0,10.127-2.94,13.395-3.594
		c6.207-1.634,12.414-2.614,18.949-2.614c8.167,0,24.176,0,24.176,11.762c0,2.939,0,3.594-3.267,4.574
		c-5.881,1.633-12.742,1.306-18.623,1.959c-27.116,2.941-59.46,8.821-59.46,42.798c0,16.988,13.395,26.463,29.404,26.463
		c16.661,0,24.828-5.554,38.224-14.048c-0.653,1.634-0.98,3.267-0.98,4.901c0,3.267,2.614,6.207,5.881,6.207h18.295
		c4.248-1.96,7.842-2.614,8.822-7.842l14.701-63.38c0.98-3.267,1.307-6.534,1.307-9.801
		C295.908,195.732,266.506,193.772,248.536,193.772z M230.568,281.981c-6.861,0-15.355-0.98-15.355-9.475
		c0-18.296,26.79-20.255,40.185-20.255l0.98,0.98C255.397,269.567,249.19,281.981,230.568,281.981z"/>
	<path fill="#253B80" d="M135.496,162.408H93.678c-5.882,0-7.515,3.594-9.802,7.841c-1.307,2.94-28.423,120.554-28.423,124.802
		c0,3.267,2.94,5.88,6.207,5.88h20.256c19.276,0,6.86-45.085,26.138-45.085c36.264,0,83.309-9.801,83.309-55.213
		C191.363,167.309,162.286,162.408,135.496,162.408z M118.835,229.382h-4.901c-3.268,0-6.208-2.287-6.208-5.88
		c0-6.861,3.921-20.909,6.208-27.77c2.286-7.188,7.187-7.841,14.048-7.841c11.108,0,25.156,1.306,25.156,16.008
		C153.138,223.502,135.496,229.382,118.835,229.382z"/>
	<path fill="#179BD7" d="M718.34,164.042h-17.969c-7.842,0-9.475,6.861-10.781,13.068c-8.822,38.551-16.336,77.755-25.813,116.632
		v1.635c0,2.94,2.289,5.554,5.229,5.881h18.949c4.246,0,8.494-3.268,9.475-7.516l27.117-122.187h-0.328l0.328-1.633
		C724.547,166.655,721.606,164.042,718.34,164.042z"/>
	<path fill="#179BD7" d="M613.141,193.772c-8.17,0-16.336,0.98-24.178,1.96c-8.82,1.307-16.008,1.634-19.275,11.435
		c-1.307,3.92-2.613,8.167-2.613,12.742c0,1.633,0.652,3.267,2.613,3.267c2.941,0,10.129-2.94,13.396-3.92
		c6.205-1.634,12.74-2.614,18.947-2.614c8.168,0,24.176,0,24.176,11.762c0,2.939,0,3.92-3.266,4.574
		c-5.881,1.633-12.742,1.633-18.623,2.286c-27.117,2.94-59.459,8.82-59.459,42.798c0,16.661,13.721,26.136,29.402,26.136
		c16.662,0,24.83-5.227,38.225-14.048c-0.326,1.634-0.98,3.267-0.98,5.228c0,7.515,12.742,6.534,17.643,6.534
		c6.207,0,14.047-0.98,15.682-8.169l14.701-63.379c0.654-3.268,0.98-6.861,0.98-10.128
		C660.512,195.732,631.436,193.772,613.141,193.772z M595.17,282.309c-6.861,0-15.354-1.308-15.354-9.802
		c0-18.296,26.789-20.255,40.184-20.255l0.98,0.98C620,269.894,613.793,282.309,595.17,282.309z"/>
	<path fill="#179BD7" d="M500.098,163.061h-42.145c-5.227,0-7.512,3.267-9.473,7.514c-2.615,5.881-28.424,119.574-28.424,124.802
		c0,6.534,9.475,6.534,14.049,6.534c7.188,0,19.928,0.98,21.889-8.169l6.859-29.729c0.98-4.574,5.229-7.841,9.803-7.841
		c36.264,0,83.309-9.473,83.309-54.886C555.965,167.961,526.891,163.061,500.098,163.061z M483.438,230.036h-4.9
		c-3.594,0-6.209-2.614-6.209-6.208c0-6.534,3.922-20.909,6.209-27.77c2.287-7.187,7.188-7.514,14.049-7.514
		c11.107,0,25.154,1.307,25.154,16.008C517.74,224.155,500.098,230.036,483.438,230.036z"/>
	<path fill="#253B80" d="M423.651,198.345c0-1.633-0.98-2.94-2.613-2.94h-24.176c-5.229,0-9.802,3.594-12.742,7.514
		c-4.574,7.188-30.711,54.887-33.324,55.867l-1.633-1.308c0-15.681-4.248-39.204-8.822-54.232
		c-2.939-9.474-14.701-8.494-22.869-8.494c-4.573,0-12.414,0.653-12.414,6.861l0.326,1.633c2.94,32.344,12.415,63.707,16.336,96.052
		c0.326,2.613,0.653,5.227,0.653,7.84c0,12.088-19.93,28.424-19.93,39.205c0,4.247,10.455,4.247,13.069,4.247
		c8.82,0,19.602,0.327,24.828-8.168l80.045-135.583C421.69,204.226,423.651,201.286,423.651,198.345z"/>
</g>
</svg>
