<?xml version="1.0" encoding="utf-8"?>
<!-- Generator: Adobe Illustrator 16.0.0, SVG Export Plug-In . SVG Version: 6.00 Build 0)  -->
<!DOCTYPE svg PUBLIC "-//W3C//DTD SVG 1.1//EN" "http://www.w3.org/Graphics/SVG/1.1/DTD/svg11.dtd">
<svg version="1.1" id="Layer_1" xmlns:sketch="http://www.bohemiancoding.com/sketch/ns"
	 xmlns="http://www.w3.org/2000/svg" xmlns:xlink="http://www.w3.org/1999/xlink" x="0px" y="0px" width="780px" height="501px"
	 viewBox="0 0 780 501" enable-background="new 0 0 780 501" xml:space="preserve">
<title>amex-outline</title>
<desc>Created with Sketch.</desc>
<g>
	<path fill="#253B80" d="M248.536,187.772c-8.167,0-16.335,0.653-24.177,1.96c-8.82,1.307-16.01,1.307-19.274,11.107
		c-1.308,4.248-2.94,8.495-2.94,12.742c0,1.634,0.979,3.268,2.94,3.268c2.938,0,10.127-2.94,13.395-3.594
		c6.207-1.634,12.414-2.614,18.949-2.614c8.167,0,24.176,0,24.176,11.762c0,2.939,0,3.594-3.267,4.574
		c-5.881,1.633-12.742,1.306-18.623,1.959c-27.116,2.941-59.46,8.821-59.46,42.798c0,16.988,13.395,26.463,29.404,26.463
		c16.66,0,24.827-5.555,38.224-14.049c-0.653,1.635-0.98,3.268-0.98,4.901c0,3.267,2.614,6.207,5.882,6.207h18.295
		c4.248-1.96,7.842-2.614,8.821-7.842l14.701-63.38c0.98-3.267,1.308-6.534,1.308-9.801
		C295.908,189.732,266.506,187.772,248.536,187.772z M230.568,275.98c-6.86,0-15.354-0.979-15.354-9.475
		c0-18.296,26.79-20.255,40.185-20.255l0.98,0.979C255.397,263.566,249.19,275.98,230.568,275.98z"/>
	<path fill="#253B80" d="M135.496,156.408H93.678c-5.882,0-7.515,3.594-9.802,7.841c-1.308,2.94-28.423,120.554-28.423,124.802
		c0,3.268,2.939,5.881,6.207,5.881h20.256c19.275,0,6.859-45.086,26.138-45.086c36.264,0,83.309-9.801,83.309-55.213
		C191.363,161.309,162.286,156.408,135.496,156.408z M118.835,223.382h-4.901c-3.268,0-6.208-2.287-6.208-5.88
		c0-6.861,3.921-20.909,6.208-27.77c2.286-7.188,7.188-7.841,14.048-7.841c11.108,0,25.156,1.306,25.156,16.008
		C153.138,217.502,135.496,223.382,118.835,223.382z"/>
	<path fill="#179BD7" d="M718.34,158.042h-17.97c-7.842,0-9.475,6.861-10.78,13.068c-8.822,38.551-16.336,77.755-25.813,116.632
		v1.635c0,2.939,2.289,5.555,5.229,5.881h18.948c4.246,0,8.494-3.268,9.476-7.516l27.117-122.187h-0.328l0.328-1.633
		C724.547,160.655,721.606,158.042,718.34,158.042z"/>
	<path fill="#179BD7" d="M613.141,187.772c-8.17,0-16.336,0.98-24.178,1.96c-8.82,1.307-16.009,1.634-19.275,11.435
		c-1.307,3.92-2.613,8.167-2.613,12.742c0,1.633,0.652,3.267,2.613,3.267c2.941,0,10.129-2.94,13.396-3.92
		c6.204-1.634,12.739-2.614,18.946-2.614c8.168,0,24.177,0,24.177,11.762c0,2.939,0,3.92-3.267,4.574
		c-5.881,1.633-12.742,1.633-18.623,2.286c-27.117,2.94-59.459,8.82-59.459,42.798c0,16.66,13.722,26.136,29.402,26.136
		c16.662,0,24.83-5.228,38.225-14.048c-0.326,1.634-0.979,3.267-0.979,5.228c0,7.515,12.742,6.534,17.643,6.534
		c6.207,0,14.047-0.98,15.682-8.169l14.701-63.379c0.654-3.268,0.98-6.861,0.98-10.128
		C660.512,189.732,631.436,187.772,613.141,187.772z M595.17,276.309c-6.861,0-15.354-1.308-15.354-9.802
		c0-18.296,26.789-20.255,40.185-20.255l0.979,0.98C620,263.895,613.793,276.309,595.17,276.309z"/>
	<path fill="#179BD7" d="M500.098,157.061h-42.146c-5.227,0-7.512,3.267-9.473,7.514c-2.615,5.881-28.424,119.573-28.424,124.802
		c0,6.534,9.475,6.534,14.049,6.534c7.188,0,19.928,0.979,21.889-8.169l6.859-29.729c0.98-4.574,5.229-7.842,9.803-7.842
		c36.265,0,83.31-9.473,83.31-54.886C555.965,161.961,526.891,157.061,500.098,157.061z M483.438,224.036h-4.9
		c-3.594,0-6.209-2.614-6.209-6.208c0-6.534,3.922-20.909,6.209-27.77c2.287-7.187,7.188-7.514,14.05-7.514
		c11.106,0,25.153,1.307,25.153,16.008C517.74,218.155,500.098,224.036,483.438,224.036z"/>
	<path fill="#253B80" d="M423.651,192.345c0-1.633-0.979-2.94-2.613-2.94h-24.176c-5.229,0-9.802,3.594-12.742,7.514
		c-4.573,7.188-30.711,54.888-33.323,55.867l-1.634-1.308c0-15.682-4.248-39.205-8.821-54.232
		c-2.939-9.474-14.701-8.494-22.869-8.494c-4.573,0-12.414,0.653-12.414,6.861l0.326,1.633
		c2.939,32.344,12.415,63.707,16.336,96.052c0.326,2.613,0.652,5.228,0.652,7.841c0,12.088-19.93,28.424-19.93,39.204
		c0,4.247,10.455,4.247,13.069,4.247c8.82,0,19.602,0.327,24.828-8.168l80.045-135.583
		C421.69,198.226,423.651,195.286,423.651,192.345z"/>
</g>
</svg>
