<svg height="296" viewBox="0 0 750 296" width="750" xmlns="http://www.w3.org/2000/svg"><g fill="none"><rect fill="#00425f" height="295.450012" rx="20" width="750"/><g transform="translate(66 35)"><circle cx="107.5" cy="107.5" fill="#ee312a" r="107.5"/><g fill="#fff"><path d="m107.499995 153.362725c-24.0318427-54.4753913-41.6551458-105.362725-41.6551458-105.362725h-36.8448492s22.4257509 65.317063 64.080897 147h28.838206c41.655146-81.682937 64.080897-147 64.080897-147h-36.844859s-17.623303 50.8873337-41.655146 105.362725z"/><path d="m621.113436 146.540569h-71.798759s1.595141 24.126314 33.506008 24.126314c15.954923 0 31.911043-4.828895 31.911043-4.828895l3.191518 25.729318s-15.956121 6.432694-38.293949 6.432694c-31.909725 0-60.629297-16.081409-60.629297-61.108005 0-35.378697 22.3365-57.891995 54.247544-57.891995 47.865892 0 51.057409 48.243281 47.865892 67.540569zm-49.460932-45.027271c-20.742733 0-22.337827 22.513299-22.337827 22.513299h44.674328s-1.595095-22.513299-22.336501-22.513299z"/><path d="m373.214385 108.623324 4.785615-25.5938844s-36.958685-11.2459866-67 9.5976774v102.372883h31.906457l-.002516-83.177668c12.761083-9.597547 30.310444-3.199008 30.310444-3.199008z"/><path d="m286.113913 146.540569h-71.7982s1.595128 24.126314 33.505747 24.126314c15.954799 0 31.909477-4.828895 31.909477-4.828895l3.191492 25.729318s-15.954668 6.432694-38.292322 6.432694c-31.910795 0-60.630107-16.081409-60.630107-61.108005 0-35.378697 22.337654-57.891995 54.248449-57.891995 47.865464 0 51.055601 48.243281 47.865464 67.540569zm-49.461874-45.027271c-20.741244 0-22.336326 22.513299-22.336326 22.513299h44.67398s-1.595092-22.513299-22.337654-22.513299z"/><path d="m451 156.605781c-9.94728-24.199275-17.972439-49.145102-24.000936-74.605781l-31.999064.0042285s16.000193 61.7930505 43.202963 112.9957715h25.594074c27.202789-51.202721 43.202963-112.9843806 43.202963-112.9843806h-31.999064c-6.029832 25.4552216-14.054969 50.3957546-24.000936 74.5901616z"/></g></g></g></svg>