<?xml version="1.0" encoding="utf-8"?>
<!-- Generator: Adobe Illustrator 16.0.0, SVG Export Plug-In . SVG Version: 6.00 Build 0)  -->
<!DOCTYPE svg PUBLIC "-//W3C//DTD SVG 1.1//EN" "http://www.w3.org/Graphics/SVG/1.1/DTD/svg11.dtd">
<svg version="1.1" id="Layer_1" xmlns:sketch="http://www.bohemiancoding.com/sketch/ns"
	 xmlns="http://www.w3.org/2000/svg" xmlns:xlink="http://www.w3.org/1999/xlink" x="0px" y="0px" width="750px" height="471px"
	 viewBox="0 0 750 471" enable-background="new 0 0 750 471" xml:space="preserve">
<title>Slice 1</title>
<desc>Created with Sketch.</desc>
<g id="visa" sketch:type="MSLayerGroup">
	<path id="Shape" sketch:type="MSShapeGroup" fill="#0E4595" d="M278.198,334.228l33.36-195.762h53.359l-33.384,195.762H278.198
		L278.198,334.228z"/>
	<path id="path13" sketch:type="MSShapeGroup" fill="#0E4595" d="M524.307,142.688c-10.571-3.966-27.136-8.222-47.822-8.222
		c-52.725,0-89.864,26.551-90.181,64.604c-0.297,28.129,26.515,43.821,46.754,53.185c20.77,9.596,27.752,15.716,27.653,24.283
		c-0.132,13.123-16.586,19.117-31.923,19.117c-21.357,0-32.703-2.967-50.226-10.275l-6.877-3.112l-7.488,43.823
		c12.463,5.465,35.509,10.199,59.438,10.445c56.089,0,92.501-26.248,92.915-66.883c0.201-22.27-14.015-39.217-44.799-53.188
		c-18.651-9.056-30.073-15.099-29.952-24.269c0-8.137,9.668-16.838,30.558-16.838c17.448-0.271,30.088,3.534,39.936,7.5l4.782,2.259
		L524.307,142.688"/>
	<path id="Path" sketch:type="MSShapeGroup" fill="#0E4595" d="M661.615,138.465h-41.231c-12.772,0-22.331,3.486-27.94,16.234
		l-79.245,179.403h56.031c0,0,9.161-24.122,11.233-29.418c6.123,0,60.554,0.084,68.336,0.084c1.596,6.853,6.492,29.334,6.492,29.334
		h49.512L661.615,138.465L661.615,138.465z M596.198,264.873c4.413-11.279,21.259-54.724,21.259-54.724
		c-0.315,0.521,4.38-11.334,7.075-18.684l3.606,16.878c0,0,10.218,46.729,12.353,56.527h-44.293V264.873L596.198,264.873z"/>
	<path id="path16" sketch:type="MSShapeGroup" fill="#0E4595" d="M232.903,138.465l-52.24,133.496l-5.565-27.129
		c-9.726-31.274-40.025-65.157-73.899-82.12l47.767,171.204l56.455-0.065l84.004-195.385H232.903"/>
	<path id="path18" sketch:type="MSShapeGroup" fill="#F2AE14" d="M131.919,138.465H45.878l-0.681,4.073
		c66.939,16.204,111.232,55.363,129.618,102.415l-18.709-89.96C152.876,142.597,143.508,138.897,131.919,138.465"/>
</g>
</svg>
