<svg version="1.1" id="Camada_1" xmlns="http://www.w3.org/2000/svg" x="0" y="0" viewBox="0 0 750 471" xml:space="preserve"><style>.st2{fill:#fff}</style><g id="alipay"><path d="M710 20c11 0 20 9 20 20v391c0 11-9 20-20 20H40c-11 0-20-9-20-20V40c0-11 9-20 20-20h670m0-20H40C17.9 0 0 17.9 0 40v391c0 22.1 17.9 40 40 40h670c22.1 0 40-17.9 40-40V40c0-22.1-17.9-40-40-40z" fill="#393939" id="Shape"/></g><path d="M461.1 75.2c-33.7 0-65 10.2-91 27.7-1.9 1.3-14.6 10.4-15.2 10.8-21.2 16-35.5 18.8-55 13.8-1.2-.3-6.8-2.2-8.5-2.9-13.3-5-27.8-7.8-42.9-7.8-67.2 0-121.6 54.5-121.6 121.7s54.5 121.7 121.6 121.7c13.5 0 26.4-2.2 38.5-6.2 29.1-8.7 44.9-6.3 63.1 6.6 3.7 2.6 12.5 8.2 14.3 9.6 27.1 20 60.5 31.8 96.8 31.8 90.2 0 163.3-73.1 163.3-163.3-.1-90.3-73.2-163.5-163.4-163.5z" fill="#393939" stroke="#fff" stroke-width="14" stroke-miterlimit="10"/><path class="st2" d="M402.2 263.8c-5.3 5.2-12.7 8.4-20.7 8.3-5.5-.1-10.7-1.7-15-4.5l-10.8 17.2c7.4 4.7 16.1 7.4 25.5 7.6 13.7.2 26.1-5.2 35.2-14l-14.2-14.6zM382.7 193.7c-27.2-.4-49.7 21.3-50.1 48.6-.2 10.2 2.8 19.7 8 27.7l89.4-38.2c-5.1-21.5-24.2-37.7-47.3-38.1zM353 246.1c-.1-1.2-.2-2.3-.2-3.5.2-16 13.4-28.8 29.5-28.6 8.7.1 16.5 4.1 21.7 10.3l-51 21.8zM457.9 171.5v95.2l16.5 6.8-7.8 18.8-16.4-6.8c-3.7-1.6-6.2-4-8-6.8-1.8-2.8-3.2-6.6-3.2-11.8v-95.5h18.9zM314.1 171.5v95.2l16.5 6.8-7.8 18.8-16.3-6.8c-3.7-1.6-6.2-4-8.1-6.8-1.8-2.8-3.2-6.6-3.2-11.8v-95.5h18.9zM539.3 216.9c14.5 7 20.6 24.3 13.6 38.8l18.3 8.8c11.8-24.6 1.5-54-23.1-65.8-18.7-9-40.2-5.1-54.6 8l13.7 15c8.4-7.9 21.1-10.1 32.1-4.8zM514.1 269.2c-14.4-7-20.5-24.3-13.6-38.8l-18.3-8.8c-11.8 24.6-1.5 54 23.1 65.8 18.7 9 40.2 5.1 54.6-8l-13.7-15c-8.5 7.8-21.1 10.1-32.1 4.8zM276.7 270.6v-27.4-.1c0-22-14.4-40.6-34.3-46.9-4.7-1.5-9.7-2.3-14.9-2.3-5.1 0-10 .8-14.6 2.2-7.7 2.4-14.6 6.6-20.2 12.2-8.9 8.9-14.4 21.2-14.4 34.8 0 27.2 22.1 49.2 49.2 49.2 7.9 0 15.3-1.9 22-5.2l-8-18.6c-4.2 2.3-8.9 3.6-14 3.6-16.1 0-29.1-13-29.1-29.1 0-4.9 1.3-9.6 3.4-13.6 3.9-7.3 10.8-12.7 19.1-14.7 2.1-.5 4.3-.8 6.6-.8 4.3 0 8.4 1 12 2.6 10 4.6 17 14.7 17.1 26.5v27.3c0 5.2 1.4 9 3.2 11.8 1.9 2.7 4.3 5.2 8.1 6.8l9.2 3.7 7.8-18.8-8.2-3.2z"/></svg>