<svg width="780" height="501" viewBox="0 0 780 501" xmlns="http://www.w3.org/2000/svg"><title>amex-outline</title><g fill="none" fill-rule="evenodd"><rect stroke="#393939" stroke-width="30" x="15" y="15" width="750" height="471" rx="40"/><path d="M29.002 236.72h34.68l7.819-18.782h17.506l7.799 18.781h68.234V222.36l6.09 14.42h35.423l6.09-14.634v14.573H382.22l-.08-30.83h3.281c2.298.08 2.969.291 2.969 4.068v26.762h87.705v-7.177c7.074 3.775 18.077 7.177 32.556 7.177h36.897l7.896-18.781h17.507l7.722 18.781h71.103v-17.84l10.767 17.84h56.978V118.786H661.13v13.928l-7.896-13.928h-57.861v13.928l-7.251-13.928h-78.157c-13.083 0-24.583 1.818-33.872 6.886v-6.886h-53.935v6.886c-5.911-5.223-13.967-6.886-22.923-6.886H202.19l-13.221 30.46-13.577-30.46h-62.064v13.928l-6.819-13.928H53.58L29 174.858v61.861h.002zm218.907-17.012h-20.807l-.077-66.225-29.431 66.225h-17.822l-29.508-66.284v66.284h-41.282l-7.799-18.86h-42.26l-7.879 18.86H29l36.347-84.558h30.156l34.52 80.06v-80.06h33.128l26.563 57.363 24.4-57.363h33.794v84.558h.002zm-153.663-36.41L80.354 149.59 66.541 183.3h27.705zm236.472 36.41h-67.804V135.15h67.804v17.609h-47.506V168h46.367v17.333h-46.367v16.887h47.506v17.488zm95.55-61.785c0 13.482-9.035 20.447-14.301 22.539 4.441 1.683 8.234 4.657 10.04 7.12 2.866 4.206 3.36 7.963 3.36 15.515v16.611h-20.472l-.077-10.663c0-5.088.49-12.406-3.204-16.474-2.966-2.973-7.486-3.619-14.794-3.619h-21.788v30.756h-20.295V135.15h46.683c10.373 0 18.016.273 24.578 4.05 6.421 3.777 10.27 9.292 10.27 18.723zm-25.657 12.556c-2.789 1.686-6.088 1.742-10.04 1.742h-24.657V153.44h24.993c3.537 0 7.228.158 9.625 1.525 2.633 1.232 4.262 3.854 4.262 7.475 0 3.696-1.55 6.67-4.183 8.04zm58.21 49.23H438.11V135.15h20.71v84.558zm240.416 0h-28.763L632 156.241v63.466h-41.336l-7.899-18.86h-42.163l-7.663 18.86h-23.75c-9.867 0-22.358-2.173-29.432-9.352-7.133-7.18-10.844-16.905-10.844-32.281 0-12.541 2.218-24.006 10.941-33.065 6.562-6.748 16.838-9.86 30.825-9.86h19.65v18.119h-19.238c-7.407 0-11.59 1.096-15.618 5.009-3.46 3.56-5.835 10.29-5.835 19.154 0 9.06 1.808 15.59 5.581 19.858 3.125 3.346 8.803 4.361 14.146 4.361h9.115l28.607-66.498H577.5l34.365 79.98v-79.98h30.904l35.678 58.89v-58.89h20.79v84.555zm-123.374-36.41l-14.046-33.71-13.97 33.71h28.016zM750.959 354.725c-4.93 7.18-14.538 10.82-27.544 10.82h-39.197v-18.137h39.038c3.873 0 6.583-.507 8.214-2.094a7.422 7.422 0 0 0 2.4-5.517c0-2.463-.986-4.42-2.48-5.593-1.472-1.29-3.616-1.877-7.15-1.877-19.059-.645-42.835.587-42.835-26.178 0-12.268 7.822-25.18 29.122-25.18h40.43V264.14h-37.564c-11.336 0-19.57 2.704-25.403 6.907v-6.907h-55.56c-8.886 0-19.315 2.194-24.248 6.907v-6.907h-99.218v6.907c-7.896-5.672-21.22-6.907-27.37-6.907H416.15v6.907c-6.247-6.024-20.14-6.907-28.607-6.907h-73.244l-16.76 18.063-15.699-18.063H172.43v118.016H279.78l17.27-18.348 16.27 18.348 66.172.058v-27.762h6.506c8.78.136 19.135-.216 28.27-4.15v31.851h54.58v-30.759h2.634c3.36 0 3.69.138 3.69 3.482v27.275H640.98c10.526 0 21.53-2.684 27.623-7.552v7.552h52.592c10.945 0 21.633-1.528 29.765-5.44v-21.986zm-328.755-45.394c0 23.495-17.603 28.346-35.345 28.346h-25.326v28.369h-39.45l-24.993-27.999-25.974 27.999h-80.398v-84.579h81.635l24.972 27.724 25.818-27.724h64.856c16.107 0 34.205 4.44 34.205 27.864zm-161.367 38.925h-49.904v-16.828h44.56V314.17h-44.56v-15.377h50.887l22.201 24.648-23.184 24.814zm80.408 9.684l-31.163-34.452 31.163-33.357v67.81zm46.086-37.607H361.1v-21.539h26.465c7.328 0 12.415 2.974 12.415 10.37 0 7.315-4.851 11.17-12.65 11.17zm137.414-38.866h67.743v17.491h-47.53v15.377h46.37v17.257h-46.37v16.828l47.53.076v17.55h-67.743v-84.579zm-26.043 45.274c4.518 1.66 8.211 4.636 9.943 7.1 2.866 4.13 3.28 7.983 3.363 15.438v16.767H491.63v-10.582c0-5.088.492-12.622-3.28-16.555-2.967-3.03-7.487-3.754-14.892-3.754h-21.691v30.891h-20.395v-84.579h46.86c10.276 0 17.76.452 24.422 3.992 6.406 3.854 10.434 9.133 10.434 18.781-.002 13.5-9.043 20.389-14.386 22.5zm-11.473-10.693c-2.715 1.605-6.073 1.742-10.023 1.742H452.55v-18.996h24.993c3.614 0 7.23.077 9.687 1.528 2.63 1.37 4.203 3.989 4.203 7.608 0 3.62-1.573 6.534-4.203 8.118zm183.23 5.388c3.952 4.073 6.07 9.215 6.07 17.92 0 18.194-11.415 26.687-31.884 26.687h-39.533v-18.136h39.374c3.85 0 6.58-.507 8.29-2.094 1.396-1.308 2.398-3.208 2.398-5.517 0-2.463-1.084-4.42-2.477-5.593-1.552-1.29-3.693-1.877-7.228-1.877-18.981-.645-42.752.587-42.752-26.178 0-12.268 7.74-25.18 29.019-25.18h40.69v18h-37.233c-3.69 0-6.09.138-8.131 1.528-2.224 1.37-3.048 3.403-3.048 6.086 0 3.19 1.887 5.36 4.44 6.3 2.142.742 4.442.958 7.9.958l10.926.294c11.019.267 18.582 2.165 23.18 6.802zm80.542-22.642h-36.993c-3.693 0-6.147.138-8.213 1.528-2.142 1.37-2.966 3.402-2.966 6.085 0 3.191 1.808 5.362 4.438 6.3 2.141.742 4.441.96 7.822.96l11 .292c11.101.273 18.511 2.173 23.03 6.808.821.645 1.316 1.37 1.882 2.094v-24.067z" fill="#393939"/></g></svg>