<svg width="750" height="471" viewBox="0 0 750 471" xmlns="http://www.w3.org/2000/svg"><g fill="#393939" fill-rule="nonzero"><path d="M52.885 28.204c-13.276 0-24.039 10.522-24.039 23.503v367.586c0 12.98 10.763 23.503 24.039 23.503h644.23c13.276 0 24.039-10.522 24.039-23.503V51.707c0-12.98-10.763-23.503-24.039-23.503H52.885zm0-28.204h644.23C726.323 0 750 23.15 750 51.707v367.586C750 447.85 726.323 471 697.115 471H52.885C23.677 471 0 447.85 0 419.293V51.707C0 23.15 23.677 0 52.885 0z"/><path d="M28.002 223.137h33.332l7.515-18.052h16.826l7.496 18.052h65.584v-13.8l5.854 13.86h34.045l5.854-14.067v14.007h162.987l-.076-29.632h3.153c2.208.076 2.853.28 2.853 3.91v25.722h84.298v-6.898c6.799 3.628 17.375 6.898 31.29 6.898h35.465l7.59-18.052h16.825l7.422 18.052h68.34V205.99l10.35 17.147h54.763V109.786h-54.197v13.387l-7.59-13.387h-55.613v13.387l-6.969-13.387h-75.12c-12.574 0-23.628 1.748-32.556 6.618v-6.618h-51.84v6.618c-5.681-5.02-13.423-6.618-22.032-6.618H194.462l-12.707 29.276-13.05-29.276h-59.653v13.387l-6.553-13.387H51.625l-23.626 53.893v59.458h.003zm210.402-16.35h-20l-.073-63.652-28.288 63.652h-17.129l-28.361-63.709v63.71h-39.678l-7.496-18.129h-40.62l-7.571 18.128H27.999l34.935-81.273h28.984l33.18 76.949v-76.949h31.84l25.53 55.134 23.453-55.134h32.48v81.273h.003zM90.711 171.792l-13.352-32.4-13.276 32.4H90.71zm227.285 34.995h-65.17v-81.273h65.17v16.925h-45.66v14.649H316.9v16.66h-44.565v16.23h45.66v16.81zm91.838-59.384c0 12.958-8.685 19.652-13.747 21.662 4.269 1.618 7.915 4.477 9.65 6.845 2.755 4.042 3.23 7.653 3.23 14.911v15.966H389.29l-.073-10.249c0-4.89.47-11.923-3.08-15.833-2.85-2.859-7.196-3.479-14.22-3.479h-20.941v29.561h-19.507v-81.273h44.87c9.97 0 17.316.263 23.623 3.893 6.172 3.63 9.872 8.93 9.872 17.996zm-24.661 12.068c-2.68 1.62-5.852 1.674-9.65 1.674h-23.7v-18.052h24.022c3.4 0 6.947.152 9.252 1.466 2.53 1.184 4.096 3.704 4.096 7.185 0 3.552-1.49 6.41-4.02 7.727zm55.947 47.316h-19.905v-81.273h19.905v81.273zm231.076 0H644.55l-36.977-61v61h-39.73l-7.592-18.128h-40.525l-7.366 18.128h-22.828c-9.482 0-21.488-2.088-28.287-8.989-6.856-6.9-10.423-16.248-10.423-31.027 0-12.053 2.131-23.072 10.516-31.78 6.307-6.486 16.184-9.477 29.627-9.477h18.887v17.415h-18.49c-7.12 0-11.14 1.054-15.012 4.814-3.326 3.422-5.608 9.892-5.608 18.41 0 8.708 1.738 14.985 5.364 19.087 3.003 3.216 8.461 4.191 13.596 4.191h8.762l27.495-63.914h29.23l33.03 76.872v-76.872h29.703l34.292 56.602v-56.602h19.982v81.27zm-118.58-34.995l-13.5-32.4-13.427 32.4h26.926zM721.908 336.558c-4.739 6.901-13.973 10.4-26.473 10.4H657.76v-17.433h37.522c3.722 0 6.327-.487 7.895-2.012a7.133 7.133 0 002.307-5.303c0-2.368-.948-4.248-2.383-5.375-1.416-1.24-3.476-1.805-6.874-1.805-18.317-.62-41.17.564-41.17-25.16 0-11.792 7.519-24.203 27.99-24.203h38.859l.002-16.174h-36.106c-10.896 0-18.81 2.598-24.416 6.638v-6.638h-53.402c-8.54 0-18.564 2.108-23.305 6.638v-6.638h-95.363v6.638c-7.59-5.452-20.395-6.638-26.306-6.638h-62.902v6.638c-6.005-5.79-19.357-6.638-27.496-6.638h-70.398l-16.11 17.36-15.087-17.36h-105.16v113.43h103.18l16.6-17.635 15.637 17.635 63.601.056v-26.683h6.253c8.439.13 18.392-.208 27.173-3.988v30.612h52.46v-29.563h2.53c3.23 0 3.547.132 3.547 3.346v26.215h159.363c10.118 0 20.694-2.579 26.55-7.259v7.259h50.55c10.518 0 20.791-1.468 28.607-5.229v-21.13zm-315.981-43.63c0 22.582-16.92 27.245-33.972 27.245h-24.342v27.266h-37.918l-24.021-26.911-24.965 26.911h-77.274v-81.292h78.463l24.002 26.646 24.814-26.646h62.336c15.482 0 32.877 4.267 32.877 26.78zM250.829 330.34h-47.964v-16.174h42.829V297.58h-42.83V282.8h48.91l21.339 23.69-22.284 23.85zm77.284 9.308l-29.952-33.113 29.952-32.061v65.174zm44.295-36.146h-25.21V282.8h25.437c7.043 0 11.932 2.859 11.932 9.968 0 7.03-4.663 10.734-12.159 10.734zm132.076-37.355h65.11v16.811h-45.682v14.78h44.567v16.586h-44.567v16.174l45.682.073v16.868h-65.11v-81.292zm-25.032 43.514c4.343 1.596 7.893 4.457 9.557 6.825 2.755 3.968 3.153 7.672 3.232 14.838v16.115h-19.585v-10.17c0-4.891.472-12.132-3.154-15.912-2.85-2.913-7.196-3.609-14.312-3.609H434.34v29.691h-19.603v-81.292h45.04c9.877 0 17.07.434 23.473 3.836 6.157 3.704 10.029 8.778 10.029 18.052-.002 12.975-8.692 19.596-13.828 21.626zm-11.027-10.277c-2.61 1.542-5.837 1.674-9.633 1.674h-23.699V282.8h24.022c3.473 0 6.95.074 9.31 1.469 2.528 1.316 4.04 3.834 4.04 7.312 0 3.479-1.512 6.28-4.04 7.803zm176.112 5.178c3.798 3.915 5.834 8.857 5.834 17.224 0 17.488-10.972 25.65-30.646 25.65h-37.997v-17.431h37.844c3.7 0 6.324-.488 7.969-2.013 1.341-1.257 2.304-3.083 2.304-5.302 0-2.368-1.041-4.248-2.38-5.376-1.492-1.24-3.55-1.804-6.948-1.804-18.243-.62-41.09.564-41.09-25.16 0-11.792 7.438-24.203 27.89-24.203h39.11v17.301h-35.786c-3.547 0-5.854.133-7.816 1.469-2.137 1.316-2.93 3.27-2.93 5.849 0 3.066 1.815 5.153 4.27 6.055 2.057.713 4.268.921 7.591.921l10.502.282c10.59.258 17.86 2.082 22.279 6.538zm77.412-21.762h-35.555c-3.55 0-5.908.133-7.895 1.469-2.058 1.316-2.85 3.27-2.85 5.849 0 3.066 1.737 5.153 4.265 6.055 2.058.713 4.27.921 7.519.921l10.573.282c10.669.263 17.79 2.089 22.133 6.543.79.62 1.266 1.316 1.81 2.013V282.8z"/></g></svg>