<svg width="780" height="501" viewBox="0 0 780 501" xmlns="http://www.w3.org/2000/svg"><title>amex-outline</title><g fill="none" fill-rule="evenodd"><rect stroke="#393939" stroke-width="30" x="15" y="15" width="750" height="471" rx="40"/><path d="M29.002 236.72h34.68l7.82-18.782h17.505l7.8 18.78h68.233V222.36l6.09 14.42h35.423l6.09-14.634v14.573H382.22l-.08-30.83h3.28c2.298.078 2.97.29 2.97 4.067v26.762h87.704v-7.178c7.074 3.775 18.077 7.177 32.556 7.177h36.897l7.896-18.782h17.507l7.722 18.78h71.103v-17.84l10.767 17.84h56.978V118.787h-56.39v13.928l-7.895-13.928h-57.86v13.928l-7.252-13.928h-78.157c-13.083 0-24.583 1.818-33.872 6.886v-6.886H422.16v6.886c-5.912-5.223-13.968-6.886-22.924-6.886H202.19l-13.22 30.46-13.577-30.46H113.33v13.928l-6.82-13.928H53.58L29 174.858v61.86H29zm218.907-17.012H227.1l-.077-66.225-29.43 66.225H179.77l-29.508-66.284v66.284h-41.282l-7.8-18.86h-42.26l-7.878 18.86H29l36.346-84.558h30.156l34.52 80.06v-80.06h33.128l26.563 57.363 24.4-57.363h33.794v84.558h.002zm-153.664-36.41l-13.892-33.71L66.54 183.3h27.706zm236.472 36.41h-67.804V135.15h67.804v17.61h-47.506V168h46.367v17.333H283.21v16.887h47.506v17.488zm95.55-61.785c0 13.482-9.035 20.447-14.3 22.54 4.44 1.682 8.233 4.656 10.04 7.12 2.865 4.205 3.36 7.962 3.36 15.514v16.61h-20.473l-.077-10.662c0-5.088.49-12.406-3.204-16.474-2.966-2.972-7.486-3.618-14.794-3.618h-21.788v30.756h-20.295V135.15h46.683c10.373 0 18.016.273 24.578 4.05 6.42 3.777 10.27 9.292 10.27 18.723zm-25.657 12.556c-2.788 1.685-6.087 1.74-10.04 1.74h-24.656v-18.78h24.993c3.537 0 7.228.158 9.625 1.525 2.633 1.232 4.262 3.854 4.262 7.475 0 3.696-1.55 6.67-4.183 8.04zm58.21 49.228h-20.71V135.15h20.71v84.558zm240.417 0h-28.763L632 156.242v63.466h-41.335l-7.9-18.86h-42.162l-7.663 18.86h-23.75c-9.867 0-22.358-2.173-29.432-9.352-7.133-7.18-10.844-16.905-10.844-32.28 0-12.542 2.218-24.007 10.94-33.066 6.563-6.748 16.84-9.86 30.826-9.86h19.65v18.12h-19.238c-7.407 0-11.59 1.095-15.618 5.008-3.46 3.56-5.835 10.29-5.835 19.154 0 9.06 1.807 15.59 5.58 19.858 3.125 3.346 8.803 4.36 14.146 4.36h9.115l28.608-66.497H577.5l34.365 79.98v-79.98h30.904l35.677 58.89v-58.89h20.79v84.555zm-123.374-36.41l-14.046-33.71-13.97 33.71h28.016z" id="Path" fill="#393939"/><path d="M750.96 354.725c-4.932 7.18-14.54 10.82-27.545 10.82h-39.197v-18.137h39.038c3.873 0 6.583-.507 8.214-2.094 1.414-1.308 2.4-3.208 2.4-5.517 0-2.463-.986-4.42-2.48-5.593-1.472-1.29-3.616-1.877-7.15-1.877-19.06-.645-42.835.587-42.835-26.178 0-12.27 7.822-25.182 29.122-25.182h40.43V264.14h-37.564c-11.336 0-19.57 2.704-25.403 6.907v-6.907h-55.56c-8.886 0-19.315 2.194-24.248 6.907v-6.907h-99.218v6.907c-7.896-5.672-21.22-6.907-27.37-6.907H416.15v6.907c-6.247-6.024-20.14-6.907-28.607-6.907H314.3l-16.762 18.063-15.698-18.063H172.43v118.016h107.35l17.27-18.348 16.27 18.348 66.173.058v-27.762H386c8.78.136 19.134-.216 28.27-4.15v31.85h54.58v-30.758h2.633c3.36 0 3.69.138 3.69 3.482v27.275H640.98c10.525 0 21.528-2.683 27.622-7.55v7.55h52.592c10.945 0 21.633-1.527 29.765-5.44v-21.985zM422.203 309.33c0 23.496-17.603 28.347-35.345 28.347h-25.327v28.37h-39.45l-24.993-28-25.974 28h-80.398v-84.58h81.635l24.972 27.724 25.818-27.723H388c16.106 0 34.204 4.44 34.204 27.864zm-161.367 38.926h-49.904v-16.828h44.56V314.17h-44.56v-15.376h50.887l22.2 24.648-23.183 24.814zm80.408 9.684l-31.163-34.452 31.163-33.357v67.81zm46.086-37.607H361.1v-21.54h26.466c7.328 0 12.415 2.975 12.415 10.372 0 7.314-4.85 11.168-12.65 11.168zm137.415-38.866h67.743v17.49h-47.53v15.378h46.37v17.257h-46.37v16.828l47.53.076v17.55h-67.743v-84.58zm-26.043 45.274c4.518 1.66 8.21 4.637 9.943 7.1 2.866 4.13 3.28 7.984 3.363 15.44v16.766H491.63v-10.582c0-5.088.492-12.622-3.28-16.555-2.967-3.03-7.487-3.755-14.892-3.755h-21.69v30.89H431.37v-84.578h46.86c10.276 0 17.76.452 24.422 3.992 6.406 3.853 10.434 9.132 10.434 18.78-.002 13.5-9.043 20.39-14.386 22.5zM487.23 316.05c-2.716 1.605-6.074 1.742-10.024 1.742H452.55v-18.996h24.992c3.614 0 7.23.077 9.687 1.528 2.63 1.37 4.202 3.99 4.202 7.608 0 3.62-1.573 6.534-4.203 8.118zm183.23 5.388c3.95 4.073 6.07 9.215 6.07 17.92 0 18.194-11.416 26.687-31.885 26.687h-39.533v-18.136h39.374c3.85 0 6.58-.507 8.29-2.094 1.396-1.308 2.398-3.208 2.398-5.517 0-2.463-1.084-4.42-2.477-5.593-1.552-1.29-3.693-1.877-7.228-1.877-18.982-.645-42.753.587-42.753-26.178 0-12.268 7.74-25.18 29.02-25.18h40.69v18h-37.234c-3.69 0-6.09.138-8.13 1.528-2.225 1.37-3.05 3.403-3.05 6.086 0 3.19 1.888 5.36 4.442 6.3 2.14.742 4.44.958 7.9.958l10.925.294c11.02.267 18.582 2.165 23.18 6.802zM751 298.794H714.01c-3.693 0-6.147.138-8.213 1.528-2.142 1.37-2.966 3.402-2.966 6.085 0 3.19 1.807 5.362 4.437 6.3 2.14.742 4.44.96 7.822.96l11 .292c11.1.272 18.51 2.172 23.028 6.807.822.645 1.317 1.37 1.883 2.094v-24.066z" fill="#393939"/></g></svg>