<svg width="750" height="471" viewBox="0 0 750 471" xmlns="http://www.w3.org/2000/svg"><g fill-rule="nonzero" fill="none"><path d="M52.885 28.204c-13.276 0-24.039 10.522-24.039 23.503v367.586c0 12.98 10.763 23.503 24.039 23.503h644.23c13.276 0 24.039-10.522 24.039-23.503V51.707c0-12.98-10.763-23.503-24.039-23.503H52.885zm0-28.204h644.23C726.323 0 750 23.15 750 51.707v367.586C750 447.85 726.323 471 697.115 471H52.885C23.677 471 0 447.85 0 419.293V51.707C0 23.15 23.677 0 52.885 0z" fill="#393939"/><g transform="translate(63 168)" fill="#000"><rect fill-opacity=".196" x=".677" y=".55" width="105.24" height="95.085" rx="20.323"/><g fill-opacity=".784"><path d="M23.834 135.747H19.83l-.384 10.75H8.53l10.093-23.914-3.785-1.645-11.134 25.889v3.291H19.39v9.215h4.443v-9.215h4.881v-3.62h-4.881zM47.398 120.938c-3.84 0-7.515 1.316-10.696 4.388l2.468 2.797c2.523-2.358 4.772-3.51 8.008-3.51 4.004 0 7.186 2.249 7.186 6.417 0 4.553-3.566 6.637-7.186 6.637H44.93l-.549 3.62h3.181c4.443 0 7.844 1.755 7.844 7.186 0 4.717-3.127 7.733-8.447 7.733-3.072 0-6.253-1.261-8.392-3.784l-3.072 2.523c2.852 3.51 7.35 4.991 11.574 4.991 7.788 0 13.109-4.936 13.109-11.463 0-5.87-4.169-8.941-8.612-9.27 4.004-.768 7.405-4.224 7.405-8.776 0-5.156-4.498-9.49-11.573-9.49zM80.286 120.938c-5.1 0-8.501 1.81-11.518 5.43l3.181 2.413c2.414-2.797 4.443-4.004 8.173-4.004 4.223 0 6.747 2.633 6.747 6.857 0 6.198-3.072 10.311-17.333 23.97v3.729H91.97l.548-3.894H74.747c12.45-11.354 16.893-17.004 16.893-23.915 0-6.034-4.223-10.586-11.354-10.586zM114.876 121.596l-11.19 6.911 1.975 3.236 8.666-5.21v29.07h-9.324v3.73h21.775v-3.73h-7.898v-34.007zM188.277 135.747h-4.004l-.384 10.75h-10.915l10.092-23.914-3.784-1.645-11.135 25.889v3.291h15.687v9.215h4.443v-9.215h4.882v-3.62h-4.882zM211.841 120.938c-3.84 0-7.514 1.316-10.695 4.388l2.468 2.797c2.523-2.358 4.772-3.51 8.008-3.51 4.004 0 7.185 2.249 7.185 6.417 0 4.553-3.565 6.637-7.185 6.637h-2.249l-.548 3.62h3.18c4.444 0 7.844 1.755 7.844 7.186 0 4.717-3.126 7.733-8.446 7.733-3.072 0-6.253-1.261-8.393-3.784l-3.071 2.523c2.852 3.51 7.35 4.991 11.573 4.991 7.789 0 13.11-4.936 13.11-11.463 0-5.87-4.17-8.941-8.612-9.27 4.004-.768 7.405-4.224 7.405-8.776 0-5.156-4.498-9.49-11.574-9.49zM244.73 120.938c-5.101 0-8.502 1.81-11.519 5.43l3.182 2.413c2.413-2.797 4.443-4.004 8.172-4.004 4.224 0 6.747 2.633 6.747 6.857 0 6.198-3.072 10.311-17.333 23.97v3.729h22.434l.549-3.894H239.19c12.451-11.354 16.894-17.004 16.894-23.915 0-6.034-4.223-10.586-11.354-10.586zM279.32 121.596l-11.19 6.911 1.974 3.236 8.667-5.21v29.07h-9.325v3.73h21.776v-3.73h-7.899v-34.007zM352.72 135.747h-4.003l-.384 10.75h-10.916l10.093-23.914-3.785-1.645-11.134 25.889v3.291h15.687v9.215h4.443v-9.215h4.881v-3.62h-4.881zM376.285 120.938c-3.84 0-7.515 1.316-10.696 4.388l2.468 2.797c2.523-2.358 4.772-3.51 8.008-3.51 4.005 0 7.186 2.249 7.186 6.417 0 4.553-3.565 6.637-7.186 6.637h-2.248l-.549 3.62h3.181c4.443 0 7.844 1.755 7.844 7.186 0 4.717-3.126 7.733-8.447 7.733-3.072 0-6.253-1.261-8.392-3.784l-3.072 2.523c2.853 3.51 7.35 4.991 11.574 4.991 7.789 0 13.109-4.936 13.109-11.463 0-5.87-4.169-8.941-8.611-9.27 4.004-.768 7.404-4.224 7.404-8.776 0-5.156-4.497-9.49-11.573-9.49zM409.174 120.938c-5.101 0-8.502 1.81-11.519 5.43l3.181 2.413c2.414-2.797 4.443-4.004 8.173-4.004 4.224 0 6.747 2.633 6.747 6.857 0 6.198-3.072 10.311-17.333 23.97v3.729h22.434l.548-3.894h-17.771c12.45-11.354 16.894-17.004 16.894-23.915 0-6.034-4.224-10.586-11.354-10.586zM443.763 121.596l-11.19 6.911 1.975 3.236 8.666-5.21v29.07h-9.324v3.73h21.775v-3.73h-7.898v-34.007zM517.164 135.747h-4.004l-.384 10.75h-10.915l10.093-23.914-3.785-1.645-11.135 25.889v3.291h15.687v9.215h4.443v-9.215h4.882v-3.62h-4.882zM540.728 120.938c-3.84 0-7.514 1.316-10.695 4.388l2.468 2.797c2.523-2.358 4.772-3.51 8.008-3.51 4.004 0 7.185 2.249 7.185 6.417 0 4.553-3.565 6.637-7.185 6.637h-2.249l-.548 3.62h3.181c4.443 0 7.844 1.755 7.844 7.186 0 4.717-3.127 7.733-8.447 7.733-3.072 0-6.253-1.261-8.392-3.784l-3.072 2.523c2.852 3.51 7.35 4.991 11.573 4.991 7.79 0 13.11-4.936 13.11-11.463 0-5.87-4.17-8.941-8.612-9.27 4.004-.768 7.405-4.224 7.405-8.776 0-5.156-4.498-9.49-11.574-9.49zM573.617 120.938c-5.1 0-8.502 1.81-11.518 5.43l3.18 2.413c2.414-2.797 4.444-4.004 8.174-4.004 4.223 0 6.746 2.633 6.746 6.857 0 6.198-3.071 10.311-17.332 23.97v3.729H585.3l.549-3.894h-17.772c12.451-11.354 16.894-17.004 16.894-23.915 0-6.034-4.223-10.586-11.354-10.586zM608.206 121.596l-11.19 6.911 1.975 3.236 8.667-5.21v29.07h-9.325v3.73h21.776v-3.73h-7.899v-34.007z"/></g><g fill-opacity=".784"><path d="M6.716 230.448v-3.428l6.651-1.341h3.764v24.649h6.148v3.167H7.256v-3.167h6.148v-21.221zM31.01 230.448v-3.428l6.652-1.341h3.764v24.649h6.148v3.167H31.551v-3.167H37.7v-21.221zM70.584 250.328h13.135v3.167H66.056v-3.167a727.479 727.479 0 015.832-5.944c2.471-2.496 4.024-4.105 4.658-4.825 1.204-1.354 2.043-2.497 2.515-3.428.484-.944.726-1.87.726-2.776 0-1.478-.521-2.683-1.565-3.615-1.03-.931-2.378-1.397-4.043-1.397-1.18 0-2.428.205-3.744.615-1.305.41-2.702 1.03-4.193 1.863v-3.8c1.516-.61 2.932-1.07 4.248-1.38 1.317-.31 2.522-.465 3.615-.465 2.881 0 5.18.72 6.893 2.16 1.714 1.442 2.572 3.367 2.572 5.777 0 1.142-.218 2.23-.653 3.26-.422 1.018-1.198 2.223-2.328 3.614-.311.36-1.298 1.404-2.963 3.13a2359.319 2359.319 0 01-7.042 7.21zM103.04 238.497c1.8.385 3.204 1.186 4.21 2.403 1.018 1.218 1.528 2.72 1.528 4.51 0 2.744-.944 4.868-2.832 6.371-1.888 1.503-4.571 2.254-8.05 2.254a19.35 19.35 0 01-3.614-.354 25.396 25.396 0 01-3.819-1.024v-3.633a13.039 13.039 0 003.428 1.378c1.242.31 2.54.466 3.894.466 2.36 0 4.155-.466 5.385-1.397 1.242-.932 1.863-2.286 1.863-4.062 0-1.64-.578-2.919-1.733-3.838-1.143-.931-2.739-1.397-4.788-1.397H95.27v-3.093h3.39c1.851 0 3.267-.366 4.249-1.1.98-.745 1.472-1.813 1.472-3.204 0-1.428-.51-2.521-1.528-3.279-1.006-.77-2.453-1.155-4.341-1.155-1.031 0-2.137.112-3.317.335-1.18.224-2.478.572-3.894 1.044v-3.354a36.58 36.58 0 014.006-.894 22.682 22.682 0 013.54-.298c2.857 0 5.117.652 6.782 1.956 1.664 1.292 2.496 3.043 2.496 5.254 0 1.54-.44 2.844-1.322 3.912-.882 1.056-2.137 1.789-3.764 2.199zM128.117 225.679h14.774v3.167h-11.328v6.819a9.893 9.893 0 011.64-.41 9.148 9.148 0 011.64-.149c3.105 0 5.564.85 7.377 2.553 1.814 1.701 2.72 4.005 2.72 6.912 0 2.993-.93 5.322-2.794 6.986-1.863 1.652-4.49 2.478-7.881 2.478-1.168 0-2.36-.099-3.577-.298a28.56 28.56 0 01-3.745-.894v-3.782a14.664 14.664 0 003.465 1.36c1.193.298 2.453.447 3.782.447 2.15 0 3.85-.565 5.105-1.695 1.255-1.13 1.882-2.665 1.882-4.602 0-1.938-.627-3.472-1.882-4.602-1.254-1.13-2.956-1.696-5.105-1.696-1.006 0-2.012.112-3.018.336-.993.223-2.012.571-3.055 1.043V225.68zM160.423 240.286c-1.788 0-3.198.478-4.23 1.434-1.018.957-1.527 2.273-1.527 3.95s.51 2.993 1.528 3.95c1.03.956 2.44 1.434 4.23 1.434 1.788 0 3.198-.478 4.228-1.434 1.031-.97 1.547-2.286 1.547-3.95 0-1.677-.516-2.993-1.547-3.95-1.018-.956-2.428-1.434-4.229-1.434zm-3.763-1.603c-1.615-.397-2.876-1.149-3.782-2.254-.895-1.106-1.342-2.453-1.342-4.043 0-2.223.789-3.981 2.366-5.273 1.59-1.291 3.764-1.937 6.521-1.937 2.77 0 4.944.646 6.521 1.937 1.578 1.292 2.366 3.05 2.366 5.273 0 1.59-.453 2.937-1.36 4.043-.894 1.105-2.142 1.857-3.745 2.254 1.814.423 3.223 1.249 4.23 2.478 1.018 1.23 1.527 2.733 1.527 4.509 0 2.695-.826 4.763-2.478 6.204-1.64 1.44-3.993 2.161-7.06 2.161-3.069 0-5.429-.72-7.08-2.16-1.64-1.442-2.46-3.51-2.46-6.205 0-1.776.51-3.28 1.528-4.509 1.018-1.23 2.434-2.055 4.248-2.478zm-1.379-5.943c0 1.44.447 2.565 1.341 3.372.907.807 2.174 1.211 3.801 1.211 1.615 0 2.876-.404 3.782-1.21.92-.808 1.379-1.932 1.379-3.373 0-1.44-.46-2.565-1.379-3.372-.906-.808-2.167-1.211-3.782-1.211-1.627 0-2.894.403-3.8 1.21-.895.808-1.342 1.932-1.342 3.373z"/></g><g fill-opacity=".784"><path d="M248.276 229.525v-3.428l6.651-1.341h3.764v24.649h6.148v3.167h-16.023v-3.167h6.148v-21.221zM283.861 237.574c1.801.385 3.205 1.186 4.211 2.403 1.019 1.217 1.528 2.72 1.528 4.509 0 2.745-.944 4.869-2.832 6.372-1.888 1.503-4.571 2.254-8.049 2.254-1.167 0-2.372-.118-3.614-.354a25.396 25.396 0 01-3.82-1.025V248.1a13.039 13.039 0 003.428 1.38c1.243.31 2.54.465 3.894.465 2.36 0 4.155-.466 5.385-1.397 1.242-.932 1.863-2.286 1.863-4.062 0-1.64-.578-2.919-1.733-3.838-1.143-.932-2.739-1.397-4.788-1.397h-3.242v-3.093h3.391c1.85 0 3.267-.367 4.248-1.1.981-.745 1.472-1.813 1.472-3.204 0-1.428-.51-2.521-1.528-3.28-1.006-.77-2.453-1.154-4.341-1.154-1.03 0-2.136.112-3.316.335-1.18.224-2.478.572-3.894 1.043v-3.353a36.58 36.58 0 014.005-.894 22.682 22.682 0 013.54-.299c2.857 0 5.118.653 6.782 1.957 1.664 1.292 2.497 3.043 2.497 5.254 0 1.54-.441 2.844-1.323 3.912-.882 1.056-2.137 1.789-3.764 2.199zM299.996 249.405h13.135v3.167h-17.662v-3.167a727.615 727.615 0 015.831-5.944c2.472-2.496 4.024-4.105 4.658-4.825 1.205-1.354 2.043-2.497 2.515-3.428.485-.944.727-1.87.727-2.776 0-1.478-.522-2.683-1.565-3.615-1.031-.931-2.379-1.397-4.043-1.397-1.18 0-2.428.205-3.745.615-1.304.41-2.702 1.03-4.192 1.863v-3.801c1.515-.609 2.931-1.068 4.248-1.379 1.316-.31 2.521-.466 3.614-.466 2.882 0 5.18.72 6.894 2.162 1.714 1.44 2.57 3.366 2.57 5.775 0 1.143-.216 2.23-.651 3.26-.422 1.02-1.199 2.224-2.33 3.615-.31.36-1.297 1.404-2.961 3.13a2360.293 2360.293 0 01-7.043 7.21zM321.161 229.525v-3.428l6.651-1.341h3.764v24.649h6.148v3.167h-16.023v-3.167h6.149v-21.221zM368.894 237.574c1.801.385 3.205 1.186 4.21 2.403 1.02 1.217 1.529 2.72 1.529 4.509 0 2.745-.944 4.869-2.832 6.372-1.888 1.503-4.571 2.254-8.05 2.254-1.167 0-2.371-.118-3.614-.354a25.396 25.396 0 01-3.819-1.025V248.1a13.039 13.039 0 003.428 1.38c1.242.31 2.54.465 3.894.465 2.36 0 4.155-.466 5.385-1.397 1.242-.932 1.863-2.286 1.863-4.062 0-1.64-.578-2.919-1.733-3.838-1.143-.932-2.739-1.397-4.788-1.397h-3.242v-3.093h3.39c1.851 0 3.267-.367 4.249-1.1.98-.745 1.472-1.813 1.472-3.204 0-1.428-.51-2.521-1.528-3.28-1.006-.77-2.453-1.154-4.341-1.154-1.031 0-2.137.112-3.317.335-1.18.224-2.478.572-3.894 1.043v-3.353a36.58 36.58 0 014.006-.894 22.682 22.682 0 013.54-.299c2.857 0 5.117.653 6.782 1.957 1.664 1.292 2.496 3.043 2.496 5.254 0 1.54-.44 2.844-1.322 3.912-.882 1.056-2.137 1.789-3.764 2.199zM392.127 228.035l-9.502 14.849h9.502v-14.85zm-.987-3.28h4.732v18.129h3.969v3.13h-3.969v6.558h-3.745v-6.558H379.57v-3.633l11.57-17.625zM406.12 224.756h14.774v3.167h-11.328v6.819a9.893 9.893 0 011.64-.41 9.148 9.148 0 011.64-.15c3.104 0 5.564.852 7.377 2.553 1.813 1.702 2.72 4.006 2.72 6.913 0 2.993-.931 5.322-2.794 6.986-1.864 1.652-4.49 2.478-7.881 2.478-1.168 0-2.36-.1-3.578-.298a28.56 28.56 0 01-3.745-.894v-3.782a14.664 14.664 0 003.466 1.36c1.192.298 2.453.447 3.782.447 2.149 0 3.85-.565 5.105-1.696 1.254-1.13 1.882-2.664 1.882-4.601 0-1.938-.628-3.472-1.882-4.602-1.255-1.13-2.956-1.696-5.105-1.696-1.006 0-2.012.112-3.018.336-.994.223-2.012.57-3.056 1.043v-13.973zM430.414 224.756h14.775v3.167H433.86v6.819a9.893 9.893 0 011.64-.41 9.148 9.148 0 011.64-.15c3.104 0 5.564.852 7.377 2.553 1.814 1.702 2.72 4.006 2.72 6.913 0 2.993-.931 5.322-2.794 6.986-1.864 1.652-4.49 2.478-7.881 2.478-1.168 0-2.36-.1-3.578-.298a28.56 28.56 0 01-3.744-.894v-3.782a14.664 14.664 0 003.465 1.36c1.192.298 2.453.447 3.782.447 2.149 0 3.85-.565 5.105-1.696 1.255-1.13 1.882-2.664 1.882-4.601 0-1.938-.627-3.472-1.882-4.602-1.254-1.13-2.956-1.696-5.105-1.696-1.006 0-2.012.112-3.018.336-.994.223-2.012.57-3.056 1.043v-13.973z"/></g></g></g></svg>