<svg width="750" height="471" viewBox="0 0 750 471" xmlns="http://www.w3.org/2000/svg"><g fill-rule="nonzero" fill="none"><path d="M52.885 28.204c-13.276 0-24.039 10.522-24.039 23.503v367.586c0 12.98 10.763 23.503 24.039 23.503h644.23c13.276 0 24.039-10.522 24.039-23.503V51.707c0-12.98-10.763-23.503-24.039-23.503H52.885zm0-28.204h644.23C726.323 0 750 23.15 750 51.707v367.586C750 447.85 726.323 471 697.115 471H52.885C23.677 471 0 447.85 0 419.293V51.707C0 23.15 23.677 0 52.885 0z" fill="#393939"/><path d="M584.868 237.1c0-99.416-82.981-168.133-173.895-168.1H332.73C240.728 68.967 165 137.705 165 237.1c0 90.93 75.728 165.64 167.73 165.204h78.243c90.914.436 173.895-74.293 173.895-165.204zM333.214 83.084c84.09.026 152.228 68.307 152.24 152.58-.012 84.257-68.15 152.532-152.24 152.558-84.07-.026-152.194-68.3-152.214-152.559.02-84.272 68.144-152.553 152.214-152.58zM237 235.25c.079 41.186 25.746 76.283 61.94 90.229V145c-36.194 13.954-61.86 49.07-61.94 90.25zm131 90.275c36.207-13.947 61.914-49.057 61.98-90.27-.066-41.2-25.773-76.335-61.98-90.256v180.526z" fill="#373737"/></g></svg>