<svg width="780" height="501" viewBox="0 0 780 501" xmlns="http://www.w3.org/2000/svg"><title>diners-outline</title><g fill="none" fill-rule="evenodd"><rect stroke="#393939" stroke-width="30" x="15" y="15" width="750" height="471" rx="40"/><path d="M599.934 252.947c0-99.415-82.981-168.133-173.895-168.1h-78.242c-92.003-.033-167.73 68.705-167.73 168.1 0 90.93 75.727 165.64 167.73 165.204h78.242c90.914.436 173.895-74.293 173.895-165.204zM348.28 98.931c-84.07.026-152.194 68.307-152.214 152.58.02 84.257 68.144 152.532 152.214 152.558 84.09-.026 152.228-68.3 152.24-152.558-.012-84.273-68.15-152.554-152.24-152.58z" fill="#373737"/><path d="M252.066 251.098c.08-41.18 25.746-76.296 61.94-90.25v180.48c-36.194-13.947-61.861-49.044-61.94-90.23zM383.066 341.373V160.847c36.207 13.92 61.914 49.057 61.98 90.257-.066 41.212-25.773 76.322-61.98 90.269z" fill="#393939"/></g></svg>