<svg width="750" height="471" viewBox="0 0 750 471" xmlns="http://www.w3.org/2000/svg"><g fill="#393939" fill-rule="nonzero"><path d="M52.877 28.204h644.246c13.273 0 24.03 10.52 24.03 23.507v206.75s-72.693 48.02-156.916 81.205c-133.766 60.46-327.538 103.13-340.803 103.13H52.877c-13.273 0-24.03-10.52-24.03-23.507V51.71c0-12.98 10.764-23.507 24.03-23.507zM0 51.71V419.29C0 447.85 23.672 471 52.877 471h644.246C726.321 471 750 447.845 750 419.289V51.71C750 23.15 726.328 0 697.123 0H52.877C23.679 0 0 23.155 0 51.711z"/><path d="M64.822 154.6v94.465H93.66c15.335 0 26.409-3.376 36.129-10.905 11.551-8.92 18.382-22.361 18.382-36.262 0-27.88-22.328-47.299-54.358-47.299H64.822zm52.064 70.965c-6.206 5.226-14.267 7.507-27.03 7.507h-5.299v-62.466h5.3c12.762 0 20.505 2.131 27.029 7.639 6.83 5.675 10.94 14.467 10.94 23.517 0 9.066-4.11 18.128-10.94 23.803zM157.258 249.065h19.75v-94.466h-19.75zM225.302 190.621c-11.851-4.091-15.332-6.792-15.332-11.894 0-5.949 6.2-10.47 14.713-10.47 5.917 0 10.781 2.27 15.926 7.649l10.335-12.624c-8.493-6.93-18.652-10.474-29.753-10.474-17.916 0-31.582 11.609-31.582 27.069 0 13.014 6.363 19.674 24.913 25.904 7.732 2.544 11.667 4.241 13.653 5.38 3.946 2.405 5.922 5.806 5.922 9.773 0 7.653-6.524 13.325-15.335 13.325-9.42 0-17.007-4.394-21.557-12.598l-12.758 11.463c9.1 12.46 20.027 17.981 35.056 17.981 20.524 0 34.924-12.73 34.924-31.017 0-15.007-6.659-21.803-29.125-29.467M260.656 201.642c0 27.766 23.369 49.295 53.444 49.295 8.504 0 15.784-1.558 24.766-5.503v-21.69c-7.898 7.372-14.892 10.347-23.847 10.347-19.892 0-34.01-13.456-34.01-32.584 0-18.138 14.568-32.444 33.09-32.444 9.425 0 16.552 3.135 24.767 10.627v-21.678c-8.673-4.102-15.8-5.803-24.297-5.803-29.922 0-53.913 21.967-53.913 49.433M495.464 217.906l-27.004-63.452h-21.574l42.969 96.889h10.628l43.743-96.889h-21.41l-27.352 63.452M553.157 249.065h56.011v-15.993h-36.275v-25.5h34.937v-16h-34.937v-20.966h36.275V154.6h-56.01v94.466M687.368 182.49c0-17.687-13.055-27.89-35.834-27.89H622.25v94.465h19.728v-37.949h2.574l27.336 37.949h24.29l-31.875-39.795c14.877-2.825 23.065-12.318 23.065-26.78zm-39.62 15.597h-5.77v-28.609h6.083c12.299 0 18.984 4.81 18.984 14.004 0 9.496-6.685 14.605-19.297 14.605zM345.297 201.817v-.033c0-27.755 24.117-50.222 53.868-50.222 29.75 0 53.867 22.467 53.867 50.222v.033c0 27.755-24.117 50.254-53.867 50.254-29.75 0-53.868-22.5-53.868-50.254"/></g></svg>