<svg width="780" height="501" viewBox="0 0 780 501" xmlns="http://www.w3.org/2000/svg"><title>discover-outline</title><g fill="#393939" fill-rule="evenodd"><path d="M54.992 30h670.016C738.81 30 750 41.19 750 55.005v219.92S674.398 326 586.807 361.3C447.69 425.61 246.167 471 232.37 471H54.993C41.19 471 30 459.81 30 445.995V55.005C30 41.198 41.196 30 54.992 30zM0 55.005v390.99C0 476.375 24.618 501 54.992 501h670.016C755.374 501 780 476.37 780 445.995V55.005C780 24.625 755.382 0 725.008 0H54.992C24.626 0 0 24.63 0 55.005z"/><path d="M67.415 164.4v99.142h29.992c15.947 0 27.465-3.543 37.573-11.445 12.014-9.36 19.117-23.467 19.117-38.057 0-29.26-23.22-49.64-56.532-49.64h-30.15zm54.146 74.48c-6.453 5.484-14.836 7.878-28.11 7.878h-5.51V181.2h5.51c13.274 0 21.327 2.236 28.11 8.016 7.105 5.956 11.378 15.183 11.378 24.682 0 9.515-4.273 19.025-11.377 24.98zM163.548 263.542h20.54V164.4h-20.54v99.142zM234.314 202.205c-12.325-4.293-15.946-7.128-15.946-12.483 0-6.243 6.45-10.99 15.303-10.99 6.154 0 11.213 2.384 16.564 8.03l10.748-13.25c-8.833-7.273-19.398-10.992-30.944-10.992-18.632 0-32.844 12.184-32.844 28.41 0 13.658 6.617 20.648 25.91 27.186 8.04 2.67 12.132 4.45 14.198 5.646 4.104 2.524 6.16 6.094 6.16 10.257 0 8.03-6.786 13.983-15.95 13.983-9.797 0-17.687-4.61-22.418-13.222l-13.27 12.032c9.465 13.077 20.83 18.872 36.46 18.872 21.344 0 36.32-13.36 36.32-32.553 0-15.75-6.925-22.88-30.29-30.925M271.083 213.773c0 29.14 24.303 51.735 55.58 51.735 8.846 0 16.417-1.635 25.758-5.776V236.97c-8.213 7.736-15.488 10.858-24.8 10.858-20.688 0-35.37-14.122-35.37-34.197 0-19.035 15.15-34.05 34.414-34.05 9.8 0 17.213 3.29 25.757 11.154v-22.75c-9.02-4.307-16.43-6.092-25.268-6.092-31.12 0-56.07 23.055-56.07 51.88M515.283 230.84L487.2 164.25H464.76l44.687 101.684h11.053l45.492-101.685H543.73l-28.447 66.59M575.284 263.542h58.25v-16.784H595.81v-26.762h36.334v-16.792H595.81V181.2h37.725v-16.8h-58.25v99.142M714.862 193.67c0-18.56-13.576-29.27-37.266-29.27H647.14v99.142h20.517v-39.827h2.677l28.43 39.827h25.26l-33.15-41.765c15.473-2.964 23.988-12.927 23.988-28.106zm-41.204 16.37h-6v-30.024h6.325c12.79 0 19.744 5.048 19.744 14.697 0 9.966-6.953 15.328-20.07 15.328zM729.358 172.538c0-1.74-1.273-2.688-3.503-2.688h-2.974v8.713h2.21v-3.378l2.592 3.378h2.697l-3.044-3.592c1.302-.33 2.022-1.22 2.022-2.432zm-3.893 1.188h-.375v-2.275h.4c1.09 0 1.66.368 1.66 1.12 0 .77-.58 1.156-1.685 1.156z"/><path d="M726.3 166.594c-4.497 0-8.06 3.378-8.06 7.595 0 4.216 3.604 7.598 8.06 7.598 4.376 0 7.964-3.416 7.964-7.6 0-4.158-3.588-7.594-7.965-7.594zm-.034 13.835c-3.535 0-6.428-2.77-6.428-6.23 0-3.47 2.856-6.24 6.428-6.24 3.52 0 6.387 2.836 6.387 6.24 0 3.43-2.868 6.23-6.387 6.23zM359.11 213.955v-.035c0-29.13 25.08-52.708 56.02-52.708 30.94 0 56.023 23.58 56.023 52.708v.035c0 29.13-25.082 52.742-56.022 52.742-30.94 0-56.02-23.613-56.02-52.742"/></g></svg>