<svg width="750" height="471" viewBox="0 0 750 471" xmlns="http://www.w3.org/2000/svg"><g fill="#393939" fill-rule="nonzero"><path d="M52.885 28.204c-13.285 0-24.039 10.514-24.039 23.503v367.586c0 12.989 10.754 23.503 24.039 23.503h644.23c13.285 0 24.039-10.514 24.039-23.503V51.707c0-12.989-10.754-23.503-24.039-23.503H52.885zm0-28.204h644.23C726.331 0 750 23.142 750 51.707v367.586C750 447.858 726.331 471 697.115 471H52.885C23.669 471 0 447.858 0 419.293V51.707C0 23.142 23.669 0 52.885 0z"/><path d="M166.02 174.175c6.378-2.094 13.233-3.332 20.374-3.332 31.037 0 56.934 22.088 62.837 51.317l43.986-8.95C283.125 163.417 239.139 126 186.394 126c-12.092 0-23.707 2-34.56 5.617l14.185 42.558zM114.13 316.701l29.705-33.608a64.094 64.094 0 0 1-21.612-48.08c0-19.137 8.378-36.274 21.612-47.985L114.13 153.42c-22.564 19.993-36.75 49.127-36.75 81.593s14.186 61.694 36.75 81.688zm135.004-68.835c-5.998 29.229-31.799 51.222-62.837 51.222-7.14 0-13.995-1.143-20.374-3.333l-14.281 42.558a109.096 109.096 0 0 0 34.56 5.617c52.745 0 96.636-37.416 106.823-87.115l-43.89-8.95zM439.55 277.951c-7.235 7.046-17.137 11.33-27.99 11.235-7.426-.095-14.377-2.38-20.184-6.093l-14.567 23.23c9.997 6.284 21.707 9.997 34.37 10.188 18.47.285 35.227-6.95 47.509-18.947l-19.137-19.613zm-26.372-94.446c-36.655-.57-66.93 28.753-67.502 65.503-.19 13.805 3.808 26.658 10.759 37.322l120.437-51.508c-6.76-29.038-32.56-50.84-63.694-51.317zm-39.892 70.645c-.19-1.524-.285-3.142-.19-4.76.38-21.613 18.185-38.94 39.797-38.56 11.805.19 22.183 5.522 29.324 13.9l-68.93 29.42zM514.67 153.515V281.95l22.278 9.235-10.568 25.326-21.993-9.14c-4.95-2.19-8.283-5.427-10.853-9.14-2.476-3.809-4.285-8.95-4.285-15.9V153.515h25.42zM595.025 212.83c3.903-1.334 8.093-2 12.377-2 18.946 0 34.75 13.424 38.369 31.323l26.848-5.426c-6.188-30.372-33.037-53.222-65.217-53.222a66.749 66.749 0 0 0-21.041 3.428l8.664 25.896zm-31.609 87.02l18.185-20.47c-8.093-7.141-13.234-17.614-13.234-29.324 0-11.711 5.141-22.089 13.234-29.324l-18.185-20.47c-13.805 12.187-22.469 29.99-22.469 49.794 0 19.803 8.664 37.607 22.469 49.793zm82.355-41.987c-3.618 17.803-19.423 31.323-38.37 31.323-4.379 0-8.473-.667-12.376-2l-8.664 25.992c6.665 2.19 13.71 3.428 21.136 3.428 32.18 0 59.029-22.85 65.217-53.221l-26.943-5.522z"/></g></svg>