<svg width="750" height="471" viewBox="0 0 750 471" xmlns="http://www.w3.org/2000/svg"><g fill="#393939" fill-rule="nonzero"><path d="M52.885 28.204c-13.276 0-24.039 10.522-24.039 23.503v367.586c0 12.98 10.763 23.503 24.039 23.503h644.23c13.276 0 24.039-10.522 24.039-23.503V51.707c0-12.98-10.763-23.503-24.039-23.503H52.885zm0-28.204h644.23C726.323 0 750 23.15 750 51.707v367.586C750 447.85 726.323 471 697.115 471H52.885C23.677 471 0 447.85 0 419.293V51.707C0 23.15 23.677 0 52.885 0z"/><path d="M321.005 378.442L47 378.54v-.66c0-.362.437-2.714.97-5.226.535-2.511 1.365-6.506 1.847-8.877.48-2.372 1.303-6.4 1.826-8.955a3824.02 3824.02 0 0 0 3.815-18.735c.494-2.463 1.317-6.493 1.832-8.954.513-2.463 1.39-6.715 1.947-9.451.557-2.736 1.403-6.915 1.881-9.287a794.283 794.283 0 0 1 1.688-8.123 271.84 271.84 0 0 0 1.275-6.302c.251-1.368 1.065-5.397 1.808-8.954a730.48 730.48 0 0 0 1.822-8.953c.26-1.369 1.083-5.399 1.83-8.955.747-3.555 1.568-7.585 1.824-8.954.256-1.367 1.081-5.397 1.833-8.953.754-3.557 1.566-7.512 1.806-8.788.24-1.277.898-4.56 1.463-7.296.563-2.736 1.63-7.884 2.37-11.44.741-3.558 2.007-9.75 2.814-13.764.808-4.013 1.773-8.787 2.145-10.611a4107.848 4107.848 0 0 1 3.31-16.084c.548-2.646 1.44-6.973 1.983-9.618.543-2.644 1.378-6.748 1.858-9.119.479-2.372 1.296-6.326 1.817-8.788.52-2.463 1.415-6.79 1.989-9.617a306.967 306.967 0 0 1 2.135-9.618c.6-2.462 1.45-5.447 1.888-6.631.437-1.187 1.644-3.756 2.683-5.712l1.889-3.555 1.716-2.249c.943-1.235 2.629-3.19 3.745-4.34 1.116-1.152 2.998-2.885 4.185-3.85 1.184-.967 2.9-2.272 3.812-2.899.912-.627 2.704-1.726 3.98-2.441 1.277-.716 3.069-1.652 3.98-2.081.913-.43 2.778-1.215 4.146-1.743 1.367-.528 3.979-1.415 5.802-1.968 1.824-.555 5.248-1.39 7.61-1.857 2.36-.466 6.09-1.09 8.29-1.385l3.999-.538 274.17-.103L702.953 93v.66c0 .362-.44 2.714-.976 5.225-.538 2.511-1.436 6.805-1.997 9.54-.561 2.737-1.378 6.692-1.818 8.789-.439 2.098-1.27 6.127-1.848 8.953-.577 2.828-1.465 7.156-1.973 9.618-.508 2.462-1.331 6.492-1.828 8.953a1728.3 1728.3 0 0 1-1.84 8.955c-.515 2.462-1.31 6.343-1.771 8.623-.461 2.28-1.294 6.383-1.852 9.119-.558 2.736-1.454 7.064-1.991 9.617-.539 2.553-1.356 6.508-1.82 8.788l-1.853 9.12c-.556 2.735-1.45 7.063-1.988 9.617-.537 2.554-1.338 6.433-1.78 8.622a8073.703 8073.703 0 0 1-3.704 18.24c-.45 2.188-1.25 6.069-1.78 8.621a3028.38 3028.38 0 0 0-2.015 9.784c-.58 2.827-1.407 6.855-1.84 8.954-.433 2.096-1.243 6.051-1.802 8.786-.557 2.738-1.445 7.064-1.973 9.619-.527 2.553-1.353 6.583-1.837 8.954-.482 2.37-1.322 6.475-1.864 9.12-.545 2.643-1.432 6.971-1.973 9.616-.541 2.645-1.352 6.6-1.803 8.789-.45 2.188-1.273 6.217-1.828 8.953a911.006 911.006 0 0 1-2.01 9.581l-.998 4.607-1.19 3.186c-.653 1.753-1.637 4.082-2.186 5.177-.547 1.093-1.663 3.025-2.479 4.291-.817 1.265-1.955 2.886-2.528 3.602-.574.717-2.302 2.566-3.842 4.111l-2.795 2.807-2.692 1.913c-1.48 1.051-3.075 2.121-3.543 2.377-.468.255-2.252 1.166-3.964 2.022-1.71.858-4.129 1.948-5.371 2.424-1.243.477-3.706 1.287-5.472 1.8-1.766.516-3.66 1.022-4.206 1.127-.548.105-2.447.497-4.221.874-1.774.376-5.356.937-7.959 1.247l-4.733.563-274.005.098zm-97.486-70.875h7.13l.2-.525c.113-.289.202-.967.202-1.507 0-.541.236-2.505.524-4.366.286-1.863.96-6.146 1.497-9.52.537-3.375 1.34-8.449 1.785-11.275.446-2.828.99-6.447 1.21-8.043.22-1.596.486-2.901.594-2.901.107 0 .568.705 1.024 1.567l.828 1.567 1.838 1.853 1.84 1.851 2.262.907 2.263.905 2.697.35 2.698.35 3.422-.21 3.424-.21 3.706-.96 3.708-.96 1.989-.906c1.095-.5 3.034-1.59 4.31-2.421l2.322-1.512 2.164-2.164c1.19-1.188 2.87-3.097 3.73-4.24.863-1.141 1.568-2.159 1.568-2.26 0-.102.424-.81.941-1.572.517-.762 1.575-2.88 2.352-4.703.777-1.824 1.99-5.107 2.697-7.296l1.285-3.98.665-3.446c.365-1.895.836-5.03 1.045-6.965l.38-3.516-.22-2.984-.219-2.985-.692-2.985-.692-2.985-1.12-2.234-1.12-2.235-2.164-2.294-2.163-2.294-2.56-1.322-2.56-1.323-2.82-.676-2.819-.674-2.819-.207-2.818-.206-3.14.36-3.14.36-2.562.656-2.563.653-2.227 1.032c-1.224.565-3.007 1.528-3.96 2.138-.953.61-1.937 1.311-2.185 1.559-.248.247-.844.707-1.322 1.02l-.871.57.608-2.914c.336-1.602.615-3.098.623-3.328l.013-.414H234.146l-1.064 6.716c-.588 3.694-1.513 9.401-2.058 12.685a5720.204 5720.204 0 0 1-3.65 21.72c-.542 3.192-1.438 8.267-1.991 11.277-.554 3.009-1.364 7.412-1.802 9.783-.437 2.37-1.261 6.847-1.83 9.947a2809.83 2809.83 0 0 1-2.03 10.945c-.55 2.918-1.442 7.544-1.984 10.28-.543 2.736-1.067 5.311-1.167 5.72l-.181.747h7.13zm30.696-38.342l-2.768.167-1.81-.32-1.81-.32-1.838-.839-1.838-.84-1.284-1.226-1.284-1.225-.741-1.658c-.409-.913-.932-2.462-1.164-3.444l-.423-1.784.17-2.859.17-2.857.854-4.477c.47-2.463 1.313-7.09 1.874-10.28.561-3.192 1.412-7.87 1.89-10.394l.867-4.59 1.901-1.582c1.046-.87 2.703-2.036 3.682-2.59l1.778-1.01 2.321-.718 2.322-.72 2.985-.174 2.984-.175 2.431.518 2.43.517 1.716.79 1.714.79 1.438 1.446 1.44 1.446.774 1.53c.428.843 1.027 2.49 1.332 3.663l.556 2.132-.17 6.302-.17 6.3-.852 3.725c-.468 2.049-1.36 5.182-1.981 6.964l-1.13 3.24-1.384 2.622c-.761 1.443-1.935 3.392-2.608 4.332-.673.939-1.747 2.158-2.386 2.705a52.14 52.14 0 0 1-2.375 1.905l-1.216.907-2.814.958-2.814.957-2.769.166zm68.863 9.116l3.648.043 3.647-.333c2.007-.183 5.29-.564 7.296-.847 2.007-.283 5.472-.916 7.702-1.405l4.054-.892.203-1.496c.11-.822.566-3.268 1.011-5.437l.81-3.944-.18-.178-.177-.178-1.24.598c-.681.329-2.805 1.115-4.718 1.745l-3.479 1.146-3.65.708-3.652.707-5.804.012-5.803.01-1.99-.635c-1.094-.35-2.704-.988-3.577-1.421l-1.586-.785-1.31-1.184-1.31-1.184-1.023-1.785-1.022-1.788-.64-2.24-.641-2.24-.004-4.146-.005-4.148.568-3.697.57-3.7 4.99-.234 4.99-.233 18.447.12 18.447.117.556-2.362c.307-1.3.776-3.986 1.042-5.969l.484-3.607.01-3.033.01-3.034-.524-2.266-.526-2.264-.87-1.5c-.476-.824-1.318-2.02-1.869-2.656-.55-.636-1.535-1.533-2.186-1.993-.652-.46-1.93-1.234-2.843-1.719l-1.658-.881-2.897-.698-2.897-.698-3.57-.34-3.57-.342-3.315.216-3.317.215-3.98.764-3.979.765-2.488.994c-1.367.546-3.457 1.544-4.642 2.216-1.185.673-2.826 1.767-3.647 2.431-.822.666-2.243 1.959-3.158 2.874-.917.916-2.273 2.559-3.012 3.654-.74 1.095-1.874 3.034-2.522 4.31-.646 1.278-1.488 3.068-1.872 3.98-.382.912-1.08 2.778-1.547 4.145-.469 1.369-1.204 3.98-1.634 5.805a109.125 109.125 0 0 0-1.313 6.67l-.53 3.357.007 4.935.004 4.934.504 2.156c.277 1.185.807 2.977 1.177 3.98.37 1.003 1.057 2.495 1.524 3.316.466.82 1.465 2.142 2.216 2.936.752.795 2.114 2.001 3.026 2.679.911.679 2.535 1.634 3.607 2.122l1.95.887 2.719.658c1.494.36 3.751.79 5.014.952 1.263.161 3.937.313 5.944.335zm6.245-46.716c-9.18 0-16.692-.065-16.692-.147 0-.08.392-1.236.871-2.57.479-1.333 1.32-3.317 1.868-4.409l1-1.986 2.192-2.181 2.194-2.183 2.156-1.03c1.185-.567 2.752-1.185 3.481-1.372.73-.188 2.82-.437 4.643-.552l3.317-.213 2.548.328 2.545.327 1.85.847 1.852.847 1.016 1.095c.557.602 1.223 1.488 1.478 1.969l.463.876.306 1.943.307 1.943-.351 3.233-.35 3.235h-16.694zm99.214 46.718l3.65.04 4.142-.49c2.28-.27 5.312-.717 6.742-.996a76.862 76.862 0 0 0 5.14-1.22c1.398-.396 2.663-.823 2.812-.95.148-.126.542-1.632.877-3.344.335-1.712.758-4.01.938-5.103.18-1.095.274-2.048.208-2.12-.067-.072-.31.02-.543.205-.233.185-1.86.87-3.617 1.522l-3.193 1.186-4.547.88-4.548.881-3.865-.13-3.866-.133-2.197-.762-2.197-.762-1.696-1.483-1.696-1.485-1.127-2.05-1.124-2.05-.538-2.743-.535-2.743.003-3.557.003-3.559.651-4.31.653-4.312.688-2.322c.38-1.277.81-2.769.954-3.316.146-.548.753-2.114 1.352-3.482.597-1.368 1.665-3.482 2.37-4.699l1.284-2.21 1.577-1.634 1.576-1.634 1.67-1.035 1.67-1.035 2.144-.661c1.179-.364 3.264-.835 4.631-1.047l2.487-.389 3.648.184 3.648.183 4.31.863 4.312.862 1.753.654c.964.36 1.795.655 1.848.655.05 0 .282-1.232.513-2.737.232-1.504.643-3.98.915-5.5.272-1.523.429-2.833.348-2.912-.08-.08-1.375-.286-2.879-.457-1.504-.172-5.591-.476-9.082-.677l-6.35-.365-4.476.343-4.477.345-3.317.696-3.316.697-2.136.854c-1.174.47-2.894 1.318-3.823 1.884a60.66 60.66 0 0 0-2.625 1.692c-.516.366-2.08 1.789-3.479 3.164l-2.539 2.5-1.419 2.077c-.78 1.142-2.128 3.523-2.997 5.293l-1.58 3.217-1.211 3.481c-.666 1.916-1.596 5.05-2.066 6.965l-.856 3.483-.31 3.15-.31 3.15.003 4.146.003 4.144.313 2.412.313 2.412.993 2.48.993 2.481 1.148 1.793 1.147 1.793 1.824 1.796 1.825 1.795 1.929 1.021 1.93 1.02 2.536.704c1.393.387 3.408.831 4.476.987 1.068.156 3.584.302 5.592.324h-.005zm54.55-.122l4.476-.13 2.819-.72 2.819-.722 1.825-.862c1.003-.473 2.644-1.41 3.647-2.08 1.003-.67 2.557-1.944 3.451-2.83.894-.888 2.22-2.4 2.947-3.362.727-.963 1.366-1.707 1.42-1.653.054.054-.114 1.587-.373 3.407-.257 1.822-.471 4.244-.475 5.384l-.006 2.072h12.173l.186-4.725.186-4.726.868-6.135a492.59 492.59 0 0 1 1.716-11.109c.464-2.736 1.272-7.361 1.796-10.28.524-2.92 1.353-7.47 1.841-10.115l.892-4.809.03-4.153.029-4.154-.938-1.919-.94-1.92-1.273-1.222-1.275-1.223-2.09-1.059-2.09-1.06-3.117-.694-3.117-.693-4.29-.326-4.29-.326-5.527.342c-3.04.187-7.317.559-9.506.825l-3.98.482-2.712.01-2.712.011-.395 1.908c-.217 1.048-.82 3.54-1.34 5.537-.52 1.997-.898 3.678-.838 3.737.058.06 1.509-.27 3.222-.732 1.714-.461 5.355-1.219 8.092-1.685l4.974-.848 4.476-.183 4.478-.186 2.884.506 2.884.506 1.924.95 1.925.95 1.078 1.607 1.078 1.605-.015 2.532-.016 2.534-.571 2.779-.572 2.78-11.933.042-11.932.043-3.904 1.07c-2.148.59-4.526 1.372-5.286 1.738-.759.367-1.518.668-1.688.668-.168 0-1.445.707-2.839 1.575l-2.532 1.573-1.994 1.99c-1.098 1.096-2.499 2.737-3.114 3.65-.616.911-1.617 2.816-2.224 4.233l-1.103 2.575-.507 2.896-.507 2.897v6.077l.483 2.53.485 2.53.897 1.649c.494.906 1.402 2.237 2.015 2.954l1.117 1.304 1.982 1.205 1.983 1.205 2.271.642c1.25.353 3.15.781 4.224.951l1.953.308 4.477-.128h-.003zm4.145-9.274l-2.654.14-1.756-.449c-.966-.246-2.433-.795-3.26-1.22l-1.5-.77-.82-.975c-.45-.537-1.14-1.589-1.53-2.34l-.71-1.365-.14-3.187-.14-3.188.562-1.934c.31-1.063 1.035-2.91 1.612-4.101l1.05-2.168 2.012-1.996 2.01-1.997 2.134-1.028 2.134-1.027 2.653-.63 2.654-.631h16.582l.524.217.524.216-.441 2.603c-.243 1.43-.822 4.02-1.287 5.752-.465 1.734-1.286 4.28-1.824 5.66-.538 1.381-.98 2.601-.98 2.712 0 .112-.544 1.117-1.21 2.235l-1.211 2.034-1.988 1.971c-1.094 1.082-2.11 1.969-2.257 1.969-.147 0-.817.374-1.49.83l-1.221.828-2.69.851-2.69.85-2.652.138zm107.943 9.392l3.15.04 2.986-.485c1.642-.266 3.73-.695 4.642-.953.912-.259 2.555-.928 3.648-1.488l1.99-1.02 1.712-1.507 1.711-1.507 1.804-2.403c.991-1.323 1.888-2.628 1.995-2.902l.192-.499-.168 1.66a54.147 54.147 0 0 1-.459 3.316c-.16.912-.389 2.665-.51 3.897l-.22 2.237h13.012v-4.476l.99-8.457c.546-4.652 1.352-10.843 1.792-13.762.44-2.92 1.12-7.097 1.51-9.285.39-2.19 1.081-6.145 1.534-8.789.456-2.644 1.276-7.271 1.825-10.28.548-3.01 1.427-7.785 1.952-10.611l1.812-9.784c.471-2.553 1.317-7.03 1.878-9.948a704.517 704.517 0 0 1 1.823-9.121c.441-2.096.802-3.926.801-4.061v-.25h-14.195l-.21 2.073c-.114 1.14-.658 4.908-1.206 8.374-.55 3.465-1.444 8.986-1.99 12.27-.544 3.282-1.068 6.467-1.165 7.075l-.178 1.105-.56-.238c-.307-.13-1.978-.595-3.71-1.03l-3.15-.79-4.31-.336-4.312-.336-3.648.34-3.648.34-3.316.839-3.316.837-3.15 1.537-3.152 1.537-2.321 1.717-2.321 1.719-2.005 2.15c-1.103 1.182-2.695 3.138-3.54 4.346l-1.534 2.195-1.804 3.75c-.99 2.064-2.197 4.797-2.68 6.073-.484 1.278-1.335 4.107-1.895 6.29l-1.014 3.968-.5 5.153-.5 5.15.374 4.145.377 4.146.443 1.492c.246.821.76 2.283 1.144 3.25l.7 1.758 1.277 1.727 1.278 1.729 1.457 1.193 1.457 1.195 1.99.988c1.095.543 2.93 1.245 4.08 1.56 1.148.315 3.014.693 4.145.84 1.13.147 3.473.286 5.206.307zm5.655-9.407l-2.505.13-1.689-.303c-.929-.167-2.416-.616-3.305-.997l-1.615-.691-1.36-1.115-1.36-1.113-1.009-1.935-1.01-1.934-.462-2.156-.459-2.156.04-4.311.038-4.311.534-3.815.535-3.812.83-2.653c.458-1.46.835-2.836.837-3.06.003-.223.453-1.416 1.003-2.652a89.833 89.833 0 0 1 2.037-4.237c.571-1.095 1.64-2.8 2.374-3.79.735-.991 2.045-2.484 2.909-3.318.865-.832 2.239-1.926 3.056-2.428l1.484-.913 2.608-.903 2.607-.903 5.472-.003h5.472l3.15.875c1.733.48 3.573 1.038 4.089 1.239l.938.364-.183.91c-.1.502-.495 2.702-.876 4.89-.38 2.189-1.132 6.368-1.669 9.286-.536 2.919-1.36 7.322-1.832 9.783-.47 2.462-1.152 5.596-1.515 6.964a457.856 457.856 0 0 1-1.138 4.21c-.263.948-.889 2.59-1.39 3.648-.503 1.059-1.382 2.597-1.954 3.417-.571.82-1.537 1.958-2.147 2.527-.611.57-1.931 1.58-2.934 2.246l-1.824 1.212-2.636.837-2.637.837-2.504.134zm-488.069 7.793h8.057l.578-3.564c.318-1.961.94-5.73 1.38-8.374.441-2.644 1.263-7.57 1.824-10.943a3241.82 3241.82 0 0 1 1.873-11.11c.468-2.735 1.212-6.98 1.652-9.43.44-2.453.885-4.542.987-4.644l.186-.185h43.332l.24.24.242.24-.377 1.915c-.206 1.054-.817 4.302-1.357 7.22-.54 2.92-1.449 7.844-2.02 10.945-.569 3.1-1.393 7.503-1.83 9.783a1289.4 1289.4 0 0 0-1.968 10.612c-.644 3.556-1.17 6.653-1.168 6.881l.004.414H180.577l.358-2.072c.198-1.14.513-3.192.705-4.56.19-1.368.65-4.279 1.02-6.467.37-2.188 1.108-6.517 1.643-9.617.534-3.1 1.429-8.398 1.987-11.773.559-3.374 1.387-8.298 1.842-10.942a711.924 711.924 0 0 1 1.798-9.95c.534-2.827 1.426-7.602 1.98-10.612.555-3.009 1.384-7.56 1.845-10.115.46-2.553 1.3-7.18 1.866-10.28.567-3.1 1.28-6.718 1.588-8.042l.558-2.404h-16.384l-.222 1.576c-.122.865-.518 3.291-.88 5.389-.362 2.098-1.018 5.827-1.46 8.29-.441 2.463-1.248 7.163-1.793 10.447a784.297 784.297 0 0 0-1.544 9.657l-.553 3.689-12.025.243-12.026.243-10.071-.239c-5.54-.13-10.103-.266-10.142-.296-.037-.033.151-1.32.42-2.864a262.12 262.12 0 0 1 1.127-5.957c.352-1.733 1.02-5.165 1.482-7.628.464-2.462.988-5.52 1.167-6.797.177-1.277.551-3.404.83-4.727.278-1.322.806-4.107 1.173-6.19.366-2.081.757-4.021.87-4.31l.2-.526H121.684l-.52 2.902a231.192 231.192 0 0 0-.847 5.057c-.181 1.186-.786 4.99-1.346 8.456-.56 3.466-1.385 8.615-1.836 11.441l-1.82 11.441a700.913 700.913 0 0 1-2.023 11.938c-.56 3.102-1.372 7.504-1.805 9.784-.43 2.28-1.252 6.608-1.826 9.617a840.999 840.999 0 0 1-1.86 9.452c-.45 2.188-.946 4.725-1.103 5.636-.158.913-.67 3.543-1.141 5.846-.47 2.303-.854 4.429-.854 4.726v.538h8.058zm89.2 0h7.132l.201-.524c.112-.29.202-1.046.202-1.68 0-.638.45-3.946.996-7.354a2951.166 2951.166 0 0 1 3.848-23.273c.451-2.644 1.25-7.045 1.778-9.783.528-2.735 1.339-6.989 1.802-9.45.462-2.462 1.372-7.147 2.021-10.411.65-3.264 1.262-6.064 1.36-6.223l.181-.292-7.213.089-7.213.089-.603 4.312a535.536 535.536 0 0 1-1.604 10.445c-.552 3.375-1.388 8.524-1.858 11.44-.47 2.92-1.286 7.62-1.816 10.448-.531 2.827-1.344 7.154-1.808 9.616-.463 2.464-1.294 6.791-1.846 9.618a1286.43 1286.43 0 0 1-1.648 8.29c-.355 1.734-.734 3.487-.845 3.897l-.2.746h7.133zm166.831 0h7.08l.213-2.996c.118-1.646.517-4.967.89-7.378.373-2.411 1.137-7.218 1.697-10.683.56-3.466 1.6-9.235 2.312-12.82.713-3.584 1.518-7.147 1.79-7.917.272-.77.494-1.604.494-1.854s.532-1.612 1.182-3.026c.65-1.415 1.863-3.58 2.695-4.812l1.512-2.242 2.023-1.874 2.023-1.873 2.495-1.191 2.495-1.193 3.815.021 3.812.02 1.875.56c1.031.308 1.964.56 2.073.56.109 0 .198-.352.198-.783 0-.43.373-2.614.829-4.854.455-2.239.829-4.165.829-4.28 0-.116-1.082-.54-2.404-.941-1.323-.402-3.151-.823-4.062-.936l-1.659-.205-2.155.381c-1.186.21-2.948.673-3.917 1.03-.97.355-2.57 1.162-3.556 1.793-.986.633-2.521 1.862-3.41 2.733-.89.873-2.385 2.631-3.324 3.908a474.88 474.88 0 0 0-2.18 2.984l-.475.663.288-1.325c.158-.731.6-3.119.98-5.307.381-2.189.774-4.242.87-4.56l.177-.58H373.65v.799c0 .44-.374 3.088-.829 5.886a2985.88 2985.88 0 0 0-1.671 10.393c-.463 2.919-1.286 7.993-1.827 11.276a572.388 572.388 0 0 1-1.827 10.445 2317.584 2317.584 0 0 1-3.83 19.898c-.559 2.828-1.227 6.166-1.484 7.42-.26 1.253-.47 2.409-.47 2.569v.291h7.08zm168.074 0h7.24v-4.431l.833-5.495c.46-3.02 1.217-7.808 1.683-10.634.467-2.827 1.047-6.409 1.291-7.96.245-1.55.892-4.907 1.438-7.46.548-2.555 1.23-5.314 1.517-6.136.288-.82.525-1.682.528-1.913.004-.232.62-1.722 1.371-3.311l1.367-2.89 1.803-2.396 1.803-2.395 1.973-1.483c1.084-.817 2.83-1.898 3.877-2.406l1.905-.923 4.145.029 4.145.03 1.633.523 1.631.524.276-.17.274-.17.015-1.058c.007-.583.362-2.748.788-4.813l.776-3.755-.872-.341a51.307 51.307 0 0 0-2.53-.863l-1.658-.523-2.984.009-2.985.007-2.433.856-2.432.855-1.827 1.102-1.825 1.102-2.376 2.487-2.374 2.486-1.276 1.93c-.7 1.061-1.319 1.882-1.372 1.824-.054-.058.328-2.27.847-4.914.52-2.645.952-5.145.96-5.555l.014-.747h-12.27v.213c0 .115-.306 2.242-.68 4.725-.374 2.483-1.126 7.275-1.668 10.65a2889.06 2889.06 0 0 1-1.982 12.104 646.011 646.011 0 0 1-1.832 10.446c-.46 2.462-1.277 6.79-1.817 9.617-.539 2.827-1.425 7.38-1.968 10.115-.543 2.735-1.264 6.355-1.6 8.042l-.612 3.066h7.24zm-320.879-80.923l2.012.007 1.601-.545 1.602-.545 1.416-1.437 1.417-1.437.745-1.915.747-1.914.026-2.82.027-2.817-.663-1.101-.664-1.101-1.154-.714-1.155-.716h-4.986l-1.698.76-1.697.76-.985 1.056-.985 1.056-.774 1.824-.774 1.823-.146 2.842-.146 2.84.72 1.413.72 1.412 1.39.63 1.39.63 2.014.01z"/></g></svg>