<svg width="780" height="501" viewBox="0 0 780 501" xmlns="http://www.w3.org/2000/svg"><title>amex-outline</title><path d="M725 0H55C24.673 0 0 24.673 0 55v391c0 30.327 24.673 55 55 55h670c30.325 0 55-24.673 55-55V55c0-30.327-24.675-55-55-55z" fill="none"/><rect stroke="#393939" stroke-width="30" x="15" y="14.595" width="750" height="471" rx="40" fill="none"/><path d="M333.56 399.695l-286.533.103v-.69c0-.38.457-2.838 1.015-5.465.56-2.626 1.427-6.804 1.93-9.283.503-2.48 1.363-6.693 1.91-9.364.548-2.67 1.46-7.117 2.024-9.883.564-2.765 1.448-7.135 1.965-9.71.518-2.575 1.38-6.79 1.917-9.363.537-2.575 1.454-7.022 2.037-9.883.582-2.86 1.467-7.23 1.967-9.71.5-2.48 1.295-6.304 1.766-8.496.47-2.193 1.07-5.158 1.333-6.59.262-1.43 1.113-5.643 1.89-9.362.777-3.72 1.633-7.933 1.905-9.363.27-1.43 1.132-5.645 1.914-9.364.78-3.717 1.638-7.93 1.906-9.362.268-1.43 1.13-5.644 1.917-9.363.788-3.72 1.638-7.855 1.888-9.19.253-1.335.94-4.768 1.53-7.63.59-2.86 1.706-8.244 2.48-11.963.775-3.72 2.1-10.196 2.942-14.393.845-4.197 1.854-9.19 2.243-11.097.388-1.907 1.09-5.34 1.562-7.63.47-2.29 1.325-6.424 1.9-9.19.573-2.766 1.506-7.29 2.073-10.057.568-2.765 1.442-7.057 1.943-9.536.5-2.48 1.356-6.615 1.9-9.19.544-2.575 1.48-7.1 2.08-10.057.6-2.957 1.605-7.482 2.233-10.057.628-2.575 1.516-5.696 1.974-6.935.457-1.24 1.72-3.926 2.806-5.972l1.975-3.717 1.796-2.35c.986-1.293 2.75-3.336 3.916-4.54 1.167-1.204 3.135-3.016 4.376-4.026 1.24-1.01 3.034-2.375 3.987-3.03.954-.657 2.827-1.806 4.162-2.554 1.335-.748 3.21-1.727 4.162-2.176.953-.45 2.904-1.27 4.334-1.823 1.43-.55 4.16-1.478 6.068-2.057 1.907-.58 5.488-1.454 7.957-1.94 2.468-.49 6.368-1.14 8.67-1.45l4.18-.562 286.707-.107 286.706-.11v.69c0 .378-.46 2.837-1.02 5.463-.564 2.626-1.503 7.116-2.09 9.977-.586 2.86-1.44 6.997-1.9 9.19-.46 2.194-1.33 6.407-1.933 9.363-.603 2.957-1.532 7.483-2.063 10.057-.53 2.575-1.392 6.79-1.912 9.363-.52 2.576-1.386 6.79-1.923 9.364-.54 2.575-1.37 6.633-1.853 9.017-.483 2.384-1.354 6.675-1.937 9.536-.584 2.86-1.52 7.387-2.083 10.057-.563 2.67-1.418 6.806-1.902 9.19-.486 2.384-1.357 6.675-1.938 9.536-.582 2.86-1.517 7.387-2.08 10.058-.56 2.67-1.398 6.727-1.86 9.016-.46 2.288-1.33 6.58-1.93 9.536-.6 2.956-1.474 7.248-1.944 9.538-.47 2.288-1.307 6.346-1.86 9.015-.557 2.67-1.506 7.274-2.11 10.23-.605 2.957-1.47 7.17-1.922 9.364-.454 2.192-1.3 6.328-1.885 9.188-.584 2.863-1.512 7.387-2.064 10.058-.55 2.67-1.415 6.884-1.92 9.364-.505 2.48-1.384 6.77-1.95 9.536-.57 2.765-1.498 7.29-2.064 10.056-.566 2.766-1.414 6.902-1.885 9.19-.47 2.29-1.33 6.503-1.912 9.364-.58 2.86-1.527 7.37-2.1 10.02l-1.045 4.816-1.244 3.332c-.684 1.833-1.713 4.27-2.287 5.414-.573 1.143-1.74 3.163-2.593 4.487-.854 1.322-2.044 3.017-2.644 3.766-.6.75-2.407 2.683-4.017 4.3l-2.923 2.934-2.815 2c-1.548 1.1-3.216 2.22-3.705 2.486-.49.267-2.355 1.22-4.145 2.115-1.79.898-4.318 2.038-5.617 2.535-1.3.5-3.874 1.346-5.72 1.883-1.848.54-3.828 1.07-4.4 1.178-.573.11-2.558.52-4.414.914-1.855.393-5.6.98-8.322 1.304l-4.95.59-286.533.1zM231.618 325.58h7.456l.21-.55c.117-.3.21-1.01.21-1.575 0-.566.247-2.62.548-4.566.3-1.95 1.005-6.428 1.567-9.956l1.867-11.79c.466-2.958 1.035-6.742 1.265-8.41.228-1.67.507-3.035.62-3.035.112 0 .594.736 1.07 1.638l.867 1.638 1.922 1.938 1.922 1.936 2.366.948 2.367.947 2.82.366 2.82.366 3.58-.22 3.58-.22 3.876-1.002 3.878-1.004 2.08-.948c1.145-.523 3.173-1.662 4.508-2.532l2.428-1.58 2.263-2.264c1.245-1.242 3-3.238 3.9-4.433.903-1.194 1.64-2.258 1.64-2.364 0-.108.443-.847.984-1.645.542-.797 1.648-3.01 2.46-4.918.813-1.907 2.08-5.34 2.82-7.63l1.345-4.16.695-3.605c.382-1.982.874-5.26 1.093-7.283l.397-3.678-.23-3.12-.23-3.122-.723-3.122-.723-3.12-1.172-2.337-1.17-2.336-2.264-2.4-2.262-2.398-2.677-1.383-2.678-1.383-2.948-.707-2.948-.705-2.948-.216-2.947-.216-3.282.377-3.285.377-2.68.685-2.68.683-2.328 1.08c-1.28.59-3.144 1.597-4.14 2.235-.997.638-2.026 1.37-2.286 1.63-.26.26-.883.74-1.383 1.066l-.91.596.635-3.047c.35-1.676.643-3.24.65-3.48l.015-.434H242.73l-1.113 7.023c-.614 3.862-1.582 9.83-2.152 13.264-.57 3.433-1.43 8.582-1.91 11.443-.48 2.86-1.338 7.933-1.906 11.27-.568 3.338-1.505 8.645-2.084 11.792-.58 3.146-1.426 7.75-1.884 10.23-.457 2.48-1.32 7.16-1.913 10.402-.595 3.244-1.55 8.393-2.125 11.445-.574 3.05-1.507 7.89-2.074 10.75-.567 2.86-1.115 5.554-1.22 5.982l-.19.78h7.457zm32.1-40.095l-2.895.174-1.892-.336-1.893-.334-1.922-.877-1.923-.878-1.342-1.283-1.343-1.28-.775-1.735c-.427-.954-.974-2.574-1.217-3.6l-.442-1.867.177-2.99.178-2.987.893-4.682c.492-2.574 1.374-7.412 1.96-10.75.588-3.337 1.478-8.23 1.977-10.868l.907-4.8 1.988-1.654c1.094-.91 2.826-2.13 3.85-2.71l1.86-1.055 2.427-.75 2.427-.753 3.12-.183 3.122-.183 2.54.542 2.542.54 1.794.827 1.793.826 1.503 1.51 1.505 1.513.81 1.6c.447.882 1.074 2.605 1.393 3.83l.582 2.23-.178 6.59-.178 6.59-.89 3.894c-.49 2.142-1.422 5.42-2.072 7.282l-1.18 3.387-1.45 2.742c-.795 1.508-2.022 3.546-2.726 4.53-.704.98-1.827 2.256-2.495 2.828-.666.574-1.785 1.47-2.484 1.992l-1.272.95-2.943 1-2.943 1-2.895.175zm72.01 9.533l3.816.044 3.814-.348c2.1-.19 5.532-.59 7.63-.886 2.098-.295 5.722-.957 8.054-1.47l4.24-.932.212-1.564c.116-.86.592-3.417 1.058-5.685l.847-4.125-.188-.186-.187-.186-1.296.625c-.713.344-2.934 1.166-4.934 1.825l-3.638 1.198-3.818.74-3.818.74-6.07.013-6.07.01-2.08-.663c-1.144-.365-2.827-1.033-3.74-1.486l-1.66-.82-1.37-1.238-1.37-1.238-1.068-1.867-1.07-1.87-.67-2.34-.67-2.344-.003-4.336-.006-4.337.594-3.867.596-3.87 5.218-.243 5.218-.244 19.29.125 19.29.124.583-2.47c.32-1.36.81-4.168 1.09-6.242l.505-3.772.01-3.172.012-3.173-.55-2.37-.55-2.367-.908-1.568c-.498-.862-1.38-2.112-1.955-2.778-.576-.665-1.605-1.603-2.286-2.084-.68-.48-2.018-1.29-2.972-1.797l-1.734-.92-3.03-.73-3.03-.73-3.73-.357-3.735-.357-3.468.226-3.468.225-4.162.8-4.16.8-2.603 1.038c-1.43.57-3.616 1.615-4.855 2.318-1.24.703-2.956 1.847-3.814 2.542-.86.696-2.345 2.048-3.302 3.005-.958.958-2.376 2.676-3.15 3.82-.773 1.146-1.96 3.174-2.636 4.51-.676 1.335-1.557 3.207-1.958 4.16-.4.954-1.13 2.905-1.618 4.335-.49 1.43-1.26 4.162-1.71 6.07-.45 1.907-1.067 5.046-1.372 6.976l-.553 3.51.007 5.16.005 5.16.527 2.256c.288 1.24.843 3.113 1.23 4.16.387 1.05 1.105 2.61 1.593 3.47.488.857 1.532 2.24 2.318 3.07.787.83 2.21 2.092 3.165 2.8.953.71 2.65 1.71 3.772 2.22l2.04.928 2.842.688c1.562.377 3.922.825 5.243.995 1.32.17 4.117.328 6.215.35zm6.532-48.853c-9.6 0-17.456-.068-17.456-.153 0-.083.41-1.293.91-2.688.5-1.394 1.38-3.468 1.954-4.61l1.045-2.077 2.293-2.28 2.294-2.284 2.255-1.077c1.24-.593 2.878-1.24 3.64-1.435.764-.195 2.948-.455 4.855-.576l3.47-.223 2.663.344 2.662.342 1.935.886 1.936.886 1.062 1.145c.583.63 1.28 1.556 1.546 2.06l.484.915.32 2.032.32 2.032-.366 3.38-.366 3.383H342.26zm103.75 48.855l3.816.042 4.332-.513c2.383-.284 5.555-.75 7.05-1.042 1.493-.29 3.912-.864 5.375-1.276 1.462-.414 2.785-.86 2.94-.993.155-.134.567-1.708.918-3.5.35-1.79.793-4.19.982-5.335.188-1.145.286-2.142.217-2.217-.07-.075-.326.022-.57.214-.243.194-1.944.91-3.78 1.592l-3.34 1.24-4.755.92-4.756.922-4.043-.137-4.043-.14-2.297-.796-2.297-.797-1.774-1.55-1.774-1.554-1.178-2.144-1.176-2.144-.562-2.87-.56-2.867.004-3.72.003-3.722.68-4.508.683-4.51.72-2.427c.397-1.335.846-2.895.997-3.467.153-.573.788-2.21 1.414-3.642.625-1.43 1.74-3.64 2.48-4.913l1.34-2.31 1.65-1.71 1.65-1.708 1.744-1.082 1.748-1.083 2.242-.69c1.233-.38 3.413-.874 4.843-1.096l2.6-.405 3.815.192 3.815.19 4.508.904 4.51.902 1.833.684c1.008.376 1.877.685 1.932.685.053 0 .295-1.287.537-2.86.242-1.574.672-4.163.956-5.753.285-1.592.45-2.962.364-3.045-.083-.084-1.438-.3-3.01-.478-1.573-.18-5.847-.497-9.498-.708l-6.64-.38-4.68.358-4.682.36-3.47.728-3.466.73-2.234.892c-1.228.49-3.027 1.378-3.998 1.97-.97.593-2.205 1.39-2.745 1.77-.54.382-2.177 1.87-3.64 3.308l-2.654 2.614-1.484 2.172c-.815 1.195-2.225 3.685-3.134 5.536l-1.652 3.364-1.267 3.64c-.697 2.003-1.67 5.28-2.16 7.283l-.896 3.643-.325 3.294-.325 3.295.003 4.335.004 4.334.327 2.523.326 2.522 1.04 2.594 1.037 2.593 1.2 1.875 1.2 1.875 1.907 1.878 1.91 1.878 2.016 1.068 2.02 1.066 2.65.737c1.457.403 3.564.868 4.68 1.03 1.118.164 3.75.317 5.85.34zm57.043-.128l4.68-.135 2.95-.754 2.947-.755 1.908-.9c1.05-.496 2.765-1.475 3.814-2.176 1.05-.7 2.674-2.033 3.61-2.96.934-.928 2.32-2.51 3.08-3.516.76-1.007 1.43-1.785 1.485-1.728.057.056-.12 1.66-.39 3.563-.268 1.906-.492 4.44-.496 5.63l-.005 2.168h12.728l.195-4.94.193-4.943.908-6.416c.5-3.53 1.308-8.758 1.795-11.618.486-2.86 1.33-7.698 1.88-10.75.546-3.053 1.413-7.812 1.924-10.578l.93-5.028.033-4.343.03-4.344-.98-2.008-.984-2.008-1.332-1.278-1.333-1.28-2.185-1.106-2.187-1.11-3.26-.724-3.258-.725-4.486-.34-4.488-.34-5.78.357c-3.18.196-7.65.584-9.94.863l-4.162.504-2.836.01-2.836.012-.413 1.995c-.227 1.097-.858 3.702-1.4 5.79-.546 2.09-.94 3.847-.878 3.91.06.06 1.578-.284 3.37-.766 1.792-.483 5.6-1.275 8.462-1.763l5.2-.885 4.68-.192 4.683-.194 3.016.528 3.015.53 2.012.992 2.013.994 1.127 1.68 1.128 1.68-.016 2.647-.018 2.65-.597 2.906-.598 2.907-12.478.045-12.48.044-4.082 1.12c-2.246.616-4.733 1.434-5.527 1.817-.793.383-1.587.697-1.764.697-.176 0-1.512.74-2.97 1.647l-2.647 1.645-2.086 2.08c-1.148 1.146-2.613 2.863-3.257 3.817-.644.953-1.69 2.945-2.325 4.427l-1.154 2.693-.53 3.028-.53 3.03v6.356l.505 2.645.507 2.645.938 1.725c.517.948 1.466 2.34 2.107 3.09l1.168 1.363 2.073 1.26 2.074 1.26 2.375.67c1.306.37 3.293.818 4.417.996l2.042.322 4.682-.134zm4.335-9.698l-2.775.146-1.837-.47c-1.01-.256-2.544-.83-3.408-1.274l-1.57-.807-.857-1.02c-.47-.56-1.19-1.66-1.6-2.446l-.742-1.428-.145-3.333-.147-3.334.588-2.023c.323-1.112 1.082-3.043 1.686-4.29l1.098-2.266 2.103-2.086 2.103-2.088 2.232-1.075 2.232-1.073 2.774-.66 2.776-.66h17.34l.548.228.548.226-.46 2.723c-.255 1.496-.86 4.203-1.347 6.015-.486 1.813-1.344 4.476-1.907 5.92-.563 1.443-1.024 2.72-1.024 2.835 0 .117-.57 1.168-1.267 2.337l-1.266 2.127-2.078 2.06c-1.143 1.133-2.206 2.06-2.36 2.06-.153 0-.854.39-1.557.868l-1.278.866-2.813.89-2.812.89-2.774.144zm112.88 9.82l3.293.043 3.123-.507c1.717-.278 3.9-.727 4.855-.997.953-.27 2.67-.97 3.814-1.556l2.082-1.066 1.79-1.575 1.79-1.576 1.885-2.514c1.036-1.383 1.974-2.748 2.085-3.035l.2-.52-.174 1.735c-.095.953-.31 2.514-.48 3.468-.167.954-.406 2.787-.532 4.075l-.23 2.34h13.606v-4.68l1.036-8.845c.57-4.864 1.413-11.34 1.873-14.39.46-3.054 1.17-7.422 1.58-9.71.407-2.29 1.13-6.426 1.604-9.19.476-2.766 1.334-7.605 1.908-10.75.573-3.15 1.492-8.142 2.04-11.098.55-2.957 1.403-7.56 1.896-10.23.494-2.67 1.378-7.353 1.965-10.404.59-3.05 1.445-7.343 1.906-9.537.463-2.192.84-4.105.84-4.247v-.26H659.174l-.22 2.167c-.12 1.192-.688 5.132-1.26 8.757-.575 3.623-1.51 9.397-2.08 12.83-.57 3.433-1.12 6.763-1.22 7.4l-.186 1.155-.586-.25c-.322-.136-2.07-.62-3.88-1.076l-3.294-.828-4.508-.35-4.51-.352-3.814.355-3.814.356-3.468.878-3.468.876-3.294 1.607-3.296 1.608-2.427 1.796-2.426 1.797-2.097 2.25c-1.153 1.236-2.818 3.28-3.702 4.544l-1.604 2.296-1.885 3.922c-1.036 2.158-2.298 5.015-2.803 6.35-.506 1.336-1.396 4.295-1.98 6.577l-1.062 4.15-.523 5.387-.523 5.386.392 4.335.394 4.335.463 1.56c.257.86.794 2.388 1.197 3.398l.732 1.84 1.335 1.806 1.336 1.808 1.524 1.248 1.524 1.25 2.082 1.033c1.145.567 3.064 1.302 4.266 1.63 1.2.33 3.152.726 4.335.88 1.182.153 3.63.298 5.444.32zm5.912-9.836l-2.62.137-1.765-.318c-.972-.174-2.527-.644-3.457-1.042l-1.69-.723-1.42-1.166-1.422-1.164-1.056-2.023-1.056-2.024-.483-2.254-.48-2.255.042-4.508.04-4.51.56-3.988.558-3.987.87-2.774c.477-1.525.87-2.965.873-3.2.004-.232.474-1.48 1.05-2.772.573-1.293 1.53-3.286 2.13-4.43.597-1.146 1.715-2.93 2.482-3.965.77-1.036 2.138-2.597 3.042-3.47.904-.87 2.34-2.013 3.196-2.538l1.552-.955 2.727-.944 2.726-.944 5.722-.003h5.722l3.294.914c1.813.502 3.737 1.085 4.276 1.295l.98.38-.19.952c-.105.524-.518 2.825-.916 5.113-.398 2.29-1.184 6.66-1.745 9.71-.56 3.053-1.422 7.657-1.915 10.23-.492 2.576-1.205 5.853-1.585 7.283-.38 1.43-.915 3.412-1.19 4.403-.275.992-.93 2.71-1.454 3.816-.525 1.107-1.444 2.715-2.042 3.573-.598.857-1.608 2.047-2.246 2.64-.64.597-2.02 1.653-3.068 2.35l-1.907 1.268-2.757.875-2.757.875-2.62.14zm-510.385 8.15h8.425l.605-3.727c.332-2.05.982-5.99 1.443-8.756l1.907-11.444c.588-3.53 1.47-8.757 1.96-11.617.488-2.86 1.266-7.3 1.726-9.862.462-2.564.927-4.748 1.033-4.855l.195-.194H178.4l.253.252.252.252-.394 2.002c-.214 1.102-.853 4.5-1.418 7.55-.565 3.053-1.515 8.203-2.112 11.446-.595 3.242-1.457 7.846-1.914 10.23-.458 2.384-1.384 7.377-2.058 11.097-.673 3.718-1.223 6.956-1.22 7.195l.003.433h16.922l.374-2.167c.207-1.19.537-3.337.737-4.767.198-1.43.68-4.475 1.066-6.763.386-2.288 1.16-6.815 1.718-10.057s1.494-8.782 2.078-12.31c.584-3.53 1.45-8.68 1.926-11.444.474-2.768 1.32-7.45 1.88-10.405.56-2.957 1.49-7.95 2.07-11.098.58-3.146 1.448-7.906 1.93-10.577.482-2.67 1.36-7.508 1.952-10.75.592-3.242 1.34-7.026 1.66-8.41l.584-2.514H187.555l-.233 1.648c-.127.905-.54 3.442-.92 5.635-.378 2.193-1.064 6.093-1.526 8.668-.462 2.576-1.306 7.49-1.876 10.925-.57 3.432-1.296 7.977-1.614 10.1l-.578 3.856-12.575.254-12.576.254-10.532-.25c-5.793-.137-10.565-.278-10.605-.31-.04-.034.158-1.38.438-2.995.28-1.614.81-4.418 1.18-6.23.367-1.81 1.065-5.4 1.55-7.976.484-2.574 1.032-5.773 1.22-7.108.185-1.336.576-3.56.867-4.944.29-1.382.843-4.295 1.227-6.472.383-2.177.792-4.206.91-4.508l.21-.55h-16.996l-.543 3.035c-.3 1.67-.7 4.05-.887 5.29-.19 1.24-.822 5.218-1.407 8.842-.586 3.624-1.45 9.008-1.92 11.964-.472 2.957-1.328 8.34-1.904 11.964-.578 3.625-1.53 9.242-2.116 12.484-.586 3.244-1.435 7.847-1.887 10.23-.45 2.385-1.31 6.91-1.91 10.058-.6 3.148-1.476 7.595-1.945 9.884-.47 2.288-.99 4.94-1.153 5.894-.166.954-.702 3.705-1.194 6.113-.49 2.408-.892 4.63-.892 4.942v.563h8.427zm93.278 0h7.46l.21-.548c.116-.303.21-1.094.21-1.758 0-.666.47-4.126 1.042-7.69.574-3.562 1.52-9.363 2.106-12.892.585-3.528 1.448-8.678 1.92-11.444.47-2.765 1.306-7.368 1.858-10.23.552-2.86 1.4-7.31 1.884-9.883.483-2.575 1.435-7.474 2.114-10.887.68-3.413 1.32-6.34 1.422-6.508l.19-.305-7.544.093-7.543.093-.63 4.508c-.343 2.48-1.1 7.396-1.677 10.923-.577 3.53-1.45 8.915-1.942 11.965-.49 3.053-1.344 7.968-1.9 10.925-.554 2.956-1.404 7.48-1.89 10.056-.483 2.576-1.352 7.1-1.93 10.057-.578 2.957-1.353 6.858-1.723 8.67-.37 1.813-.768 3.646-.884 4.075l-.21.78h7.46zm174.46 0h7.404l.222-3.133c.122-1.722.54-5.195.93-7.716.39-2.522 1.19-7.55 1.774-11.172.586-3.625 1.674-9.657 2.418-13.406.746-3.748 1.587-7.474 1.87-8.28.286-.805.518-1.677.518-1.938 0-.262.557-1.686 1.237-3.165.68-1.48 1.948-3.744 2.818-5.033l1.58-2.344 2.116-1.96 2.117-1.958 2.61-1.246 2.608-1.248 3.99.022 3.986.02 1.962.586c1.078.322 2.053.586 2.167.586.113 0 .206-.368.206-.82 0-.45.39-2.733.867-5.075.476-2.34.867-4.354.867-4.475 0-.12-1.13-.564-2.514-.984-1.383-.42-3.295-.86-4.248-.978l-1.734-.214-2.254.4c-1.24.218-3.083.702-4.096 1.075-1.014.372-2.687 1.216-3.72 1.876-1.03.66-2.635 1.946-3.564 2.857-.93.912-2.495 2.75-3.476 4.086-.982 1.335-2.008 2.74-2.28 3.12l-.497.694.3-1.386c.167-.763.63-3.26 1.027-5.548.398-2.29.81-4.436.91-4.768l.184-.608H388.613v.836c0 .46-.39 3.23-.867 6.155-.477 2.927-1.264 7.817-1.748 10.87-.484 3.05-1.344 8.357-1.91 11.79-.566 3.433-1.426 8.35-1.91 10.923-.486 2.575-1.346 7.1-1.914 10.058-.566 2.955-1.51 7.794-2.092 10.75-.584 2.957-1.283 6.447-1.552 7.76-.27 1.31-.49 2.518-.49 2.685v.305h7.403zm175.76 0h7.57v-4.634l.87-5.746c.482-3.16 1.273-8.165 1.76-11.12.49-2.957 1.096-6.702 1.35-8.324.257-1.62.933-5.132 1.504-7.802.573-2.67 1.286-5.557 1.587-6.416.3-.858.55-1.76.552-2 .004-.243.65-1.8 1.434-3.463l1.43-3.023 1.885-2.505 1.885-2.504 2.063-1.55c1.134-.854 2.96-1.985 4.055-2.516l1.992-.965 4.334.03 4.335.03 1.706.547 1.706.548.288-.178.287-.178.016-1.107c.007-.61.378-2.873.824-5.033l.81-3.926-.91-.357c-.502-.196-1.692-.602-2.646-.902l-1.733-.547-3.12.01-3.122.006-2.544.896-2.543.894-1.91 1.152-1.91 1.152-2.483 2.6-2.483 2.6-1.333 2.02c-.733 1.11-1.38 1.967-1.435 1.906-.056-.06.343-2.373.886-5.138.543-2.766.995-5.38 1.003-5.81l.016-.78h-12.831v.222c0 .12-.32 2.345-.71 4.94-.392 2.598-1.178 7.61-1.745 11.138-.57 3.528-1.5 9.224-2.073 12.658-.57 3.433-1.433 8.35-1.915 10.924-.48 2.574-1.336 7.1-1.9 10.056-.564 2.957-1.49 7.717-2.058 10.578l-1.673 8.41-.64 3.206h7.572zM223.74 208.705l2.105.007 1.674-.57 1.674-.57 1.48-1.503 1.483-1.503.78-2.003.78-2.002.027-2.948.028-2.946-.693-1.152-.695-1.15-1.207-.748-1.208-.748h-5.214l-1.775.795-1.774.794-1.03 1.103-1.03 1.105-.81 1.907-.81 1.907-.152 2.97-.152 2.972.752 1.477.754 1.477 1.454.66 1.453.66 2.106.008z" fill="#393939"/></svg>