<svg width="780" height="501" xmlns="http://www.w3.org/2000/svg"><g fill="none" fill-rule="evenodd"><rect stroke="#393939" stroke-width="30" x="15" y="15" width="750" height="471" rx="40"/><path d="M161.341 288.187c-7.354-2.222-22.486-9.313-22.486-9.313l-.154-165.55s-.804-18.495 19.215-37.624c20.018-19.129 41.834-17.898 41.834-17.898h94.16l-.217 318.268s1.428 23.688-15.794 43.124c-19.189 22.489-46.466 21.323-46.466 21.323h-92.547V306.323l34.438 6.171s13.264 1.35 26.426 1.625c11.536.241 22.247-.79 29.354-1.913 13.595-2.149 20.618-4.03 33.487-11.832 19.177-14.235 18.311-36.099 18.311-36.099l-.5-76.556-53.607.305v75.238s.504 14.114-10.492 22.85c-4.821 3.83-11.842 7.323-24.932 7.323-9.31 0-21.855-2.777-30.03-5.248zm152.517-80.62v-84.334s-.955-24.658 16.957-43.56c17.912-18.903 41.212-19.638 41.212-19.638h96.957V379.88s1.186 23.5-17.668 42.967c-18.784 19.396-39.525 19.51-39.525 19.51h-97.933V295.471s12.963 13.946 49.72 19.222c17.254 2.477 37.667 2.104 54.446 0 18.964-2.377 33.292-6.702 33.292-6.702l-.39-26.625s-6.804 4.23-27.598 10.664c-20.795 6.433-72.75 9.359-74.195-38.606-1.446-47.965 42.813-48.391 62.658-45.858 19.845 2.534 39.525 13.435 39.525 13.435v-26.034s-25.049-5.767-35.727-6.96c-13.172-1.471-31.737-3.06-60.164 1.204-28.427 4.265-41.567 18.355-41.567 18.355zm172.931 103.075v129.727h97.351s22.344-2.17 35.397-15.295c21.244-16.55 22.197-43.056 22.197-43.056V57.79h-92.838s-24.76-.783-43.84 18.83c-19.08 19.614-18.267 42.464-18.267 42.464v68.902h94.438s8.676.147 17.246 3.595c6.782 2.728 13.406 7.661 16.252 15.26 6.41 17.07-3.283 29.348-8.241 32.688-6.528 5.776-18.207 7.533-18.207 7.533s16.902 1.744 26.448 10.587c3.155 2.863 6.787 7.655 8.251 12.455 1.93 6.326 1.163 12.488 1.163 12.488s-1.163 10.852-10.073 18.197c-3.8 3.134-8.965 6.012-14.202 7.565-7.039 2.088-13.81 2.288-13.81 2.288h-99.265zm31.035-102.154v31.182h33.504s15.699-.046 15.699-15.614c0-15.568-15.7-15.568-15.7-15.568h-33.503zm35.836 49.496h-35.836v33.502h35.836c.103 0 17.668 1.039 17.668-16.751 0-17.79-17.668-16.751-17.668-16.751z" fill="#393939"/></g></svg>