<svg width="750" height="471" viewBox="0 0 750 471" xmlns="http://www.w3.org/2000/svg"><g fill="#393939" fill-rule="nonzero"><path d="M52.885 28.204c-13.276 0-24.039 10.522-24.039 23.503v367.586c0 12.98 10.763 23.503 24.039 23.503h644.23c13.276 0 24.039-10.522 24.039-23.503V51.707c0-12.98-10.763-23.503-24.039-23.503H52.885zm0-28.204h644.23C726.323 0 750 23.15 750 51.707v367.586C750 447.85 726.323 471 697.115 471H52.885C23.677 471 0 447.85 0 419.293V51.707C0 23.15 23.677 0 52.885 0z"/><path d="M160 273c-6.716-2.167-20.852-8.781-21-9V110c.004-.198-.746-17.448 18-35 18.656-18.133 39.036-16.985 39-17h88v297c-.202-.122 1.132 21.973-15 40-17.883 21.078-43.365 19.99-43 20h-87V290l32 6c.35-.422 12.74.837 25 1 10.813.318 20.82-.643 27-2 13.16-1.695 19.72-3.45 32-11 17.657-13.005 16.849-33.398 17-33l-1-72h-50v71c.301-.343.772 12.822-10 21-4.004 3.542-10.563 6.8-23 7-8.488-.2-20.208-2.79-28-5zm143-75v-79c.008.012-.884-23.012 16-41 16.596-17.314 38.373-18 38-18h91v299c-.014-.339 1.094 21.605-17 40-17.081 17.894-36.465 18-36 18h-92V280c.008-.156 12.123 12.867 46 18 16.601 2.106 35.68 1.757 51 0 18.084-2.427 31.474-6.465 31-6v-25c.11-.327-6.25 3.623-26 10-19.117 5.638-67.673 8.37-69-36-1.375-45.207 39.988-45.605 59-43 18.081 2.127 36.474 12.306 36 12v-24c.474-.004-22.936-5.389-33-7-12.226-.876-29.576-2.36-56 2-26.711 3.604-38.992 16.761-39 17zm161 96v121h91c.104 0 21.013-2.025 33-14 20.108-15.716 21-40.449 21-40V58h-87c.123.004-23.047-.727-41 18-17.756 17.878-16.995 39.2-17 39v64h88c.378.494 8.497.631 17 4 5.863 2.394 12.062 6.998 15 14 5.723 16.016-3.347 27.473-8 31-6.096 4.98-17.025 6.62-17 7-.025-.38 15.792 1.247 25 9 2.677 3.17 6.076 7.642 7 12 2.252 6.024 1.534 11.773 2 12-.466-.227-1.554 9.9-10 17-3.448 2.678-8.281 5.364-13 7-6.768 1.761-13.105 1.948-13 2h-93zm29-95v29h31c.323 0 15-.043 15-15 0-14-14.677-14-15-14h-31zm33 46h-33v31h33c.586-.01 17 .95 17-15 0-16.95-16.51-15.99-17-16z"/></g></svg>