<svg xmlns="http://www.w3.org/2000/svg" width="780" height="501" viewBox="0 0 780 501"><title>maestro</title><g fill="none" fill-rule="evenodd"><rect stroke="#393939" stroke-width="30" x="15" y="15" width="750" height="471" rx="40"/><path d="M718.706 250.479c0 112.424-91.513 203.895-204.045 203.895-46.9 0-90.17-15.878-124.68-42.593-34.514 26.715-77.762 42.593-124.681 42.593-112.496 0-204.006-91.47-204.006-203.895 0-112.396 91.51-203.853 204.006-203.853 46.919 0 90.167 15.917 124.68 42.606 34.51-26.689 77.781-42.606 124.681-42.606 112.532 0 204.045 91.457 204.045 203.853zM514.39 64.626c-41.38 0-79.579 13.55-110.482 36.41 30.173 28.035 51.803 65.075 60.688 106.746h-18.7c-8.72-37.283-28.725-70.253-56.186-95.108-27.443 24.855-47.439 57.825-56.168 95.108h-18.69c8.874-41.671 30.514-78.711 60.664-106.746-30.862-22.86-69.097-36.41-110.487-36.41-102.564 0-185.734 83.08-185.734 185.595 0 102.513 83.17 185.654 185.734 185.654 41.39 0 79.625-13.56 110.487-36.42-26.347-24.53-46.202-55.863-56.73-91.266h19.116c10.167 30.942 28.25 58.265 51.808 79.638 23.612-21.373 41.659-48.696 51.826-79.638h19.11c-10.49 35.403-30.377 66.735-56.738 91.266 30.903 22.86 69.102 36.42 110.482 36.42 102.593 0 185.752-83.141 185.752-185.654 0-102.514-83.159-185.595-185.752-185.595z" fill="#393939"/><path d="M386.26 293.738c-7.547 1.939-14.856 2.892-22.562 2.892-24.571 0-37.404-11.197-37.404-32.632 0-24.98 16.298-43.372 38.458-43.372 18.093 0 29.657 10.328 29.657 26.466 0 5.331-.776 10.546-2.703 17.963h-43.718c-1.58 10.446 6.063 15.044 19.08 15.044 7.792 0 14.818-1.384 22.616-4.539l-3.424 18.178zm-11.715-43.034c0-1.616 2.424-12.823-10.213-13.078-6.98 0-11.998 4.66-14.038 13.078h24.251zM405.758 245.391c0 9.24 5.209 15.645 17.047 20.364 9.03 3.71 10.455 4.776 10.455 8.094 0 4.625-3.972 6.7-12.852 6.662-6.665-.04-12.755-.86-19.91-2.852l-3.204 16.813c6.378 1.49 15.344 1.996 23.297 2.158 23.59 0 34.464-7.73 34.464-24.429 0-10.024-4.524-15.94-15.764-20.348-9.355-3.724-10.432-4.57-10.432-7.948 0-3.98 3.707-5.998 10.961-5.998 4.383 0 10.386.41 16.093 1.111l3.178-16.97c-5.785-.77-14.61-1.422-19.7-1.422-25.041 0-33.71 11.246-33.633 24.765zM311.553 295.454h-18.364l.45-7.7c-5.593 6.024-13.028 8.876-23.164 8.876-11.96 0-20.181-8.185-20.181-19.93 0-17.874 14.272-28.185 38.78-28.185 2.506 0 5.738.154 9.016.53.672-2.415.854-3.431.854-4.734 0-4.895-3.838-6.69-14.178-6.69-10.156.043-17.011 1.549-23.369 3.258l3.128-16.399c11.012-2.776 18.224-3.854 26.363-3.854 18.976 0 29.02 7.408 29.02 21.395.15 3.716-1.151 11.228-1.804 14.476-.753 4.783-5.999 32.402-6.551 38.957zm-15.475-32.499c-2.311-.258-3.338-.33-4.94-.33-12.528 0-18.844 3.699-18.844 11.067 0 4.666 3.087 7.517 7.916 7.517 8.972 0 15.483-7.517 15.868-18.254zM499.427 278.959c-1.525.524-3.443.73-5.949.73-5.218 0-7.5-1.632-7.5-5.417 0-2.362 6.176-33.347 6.176-33.347h11.267l3.014-17.822H495.23l3.337-17.477h-21.84s-9.78 52.821-10.387 56.464c-.611 3.622-3.387 16.623-3.013 19.389 0 10.222 6.132 15.96 17.399 15.96 5.045 0 9.756-.668 15.764-2.322l2.936-16.158zM596.822 296.63c-24.603 0-34.528-14.943-34.528-33.202 0-25.521 16.805-42.802 42.818-42.802 22.599 0 34.597 14.23 34.597 32.489 0 30.286-18.01 43.515-42.887 43.515zm7.423-58.004c-11.062 0-17.951 13.091-17.951 24.673 0 9.784 4.688 16.297 12.49 16.195 10.697 0 17.463-9.789 17.463-26.268 0-7.493-3.059-14.6-12.002-14.6zM520.766 222.39c-2.77 22.64-7.706 45.592-11.532 68.238l-.94 4.973h22.082c7.949-43.801 10.601-56.283 27.26-51.875.859-2.35 8.026-20.704 8.026-20.704-11.61-4.273-19.106 1.843-25.872 10.463.607-3.919 1.758-7.665 1.47-11.095h-20.494zM253.29 206.626h-35.724l-24.16 55.344-1.814-55.344h-34.316l-16.982 89.437h19.936l13.098-68.342 3.646 68.342h20.035l30.06-68.761-13.057 68.761h21.962l17.316-89.437z" fill="#393939"/></g></svg>