<svg width="750" height="471" viewBox="0 0 750 471" xmlns="http://www.w3.org/2000/svg"><g fill="#393939" fill-rule="nonzero"><path d="M697.115 471H52.885C23.69 470.969.032 447.837 0 419.293V51.707C.032 23.163 23.69.03 52.885 0h644.23C726.31.031 749.968 23.163 750 51.707v367.586c-.032 28.544-23.69 51.676-52.885 51.707zM52.885 28.204c-13.276 0-24.039 10.522-24.039 23.503v367.586c0 12.98 10.763 23.503 24.039 23.503h644.23c13.276 0 24.039-10.522 24.039-23.503V51.707c0-12.98-10.763-23.503-24.039-23.503H52.885z"/><path d="M286.787 409.03v-23.242c0-8.756-5.618-14.646-14.561-14.721-4.683-.075-9.608 1.395-13.017 6.555-2.556-4.102-6.555-6.555-12.24-6.555a12.249 12.249 0 00-10.853 5.45v-4.57h-8.062v37.036h8.137v-20.489c0-6.433 3.568-9.842 9.065-9.842 5.347 0 8.063 3.484 8.063 9.758v20.601h8.138v-20.517c0-6.433 3.745-9.842 9.064-9.842 5.497 0 8.138 3.484 8.138 9.758v20.601l8.128.02zm45.399-18.513v-18.523h-8.063v4.523c-2.556-3.334-6.433-5.422-11.696-5.422-10.385 0-18.513 8.138-18.513 19.45s8.137 19.45 18.513 19.45c5.272 0 9.14-2.089 11.696-5.422v4.495h8.063v-18.551zm-29.966 0c0-6.509 4.26-11.856 11.237-11.856 6.668 0 11.153 5.113 11.153 11.856 0 6.742-4.495 11.855-11.153 11.855-6.995-.01-11.256-5.356-11.256-11.865l.019.01zm202.383-19.497a20.873 20.873 0 017.95 1.489 19.394 19.394 0 016.322 4.102 18.729 18.729 0 014.176 6.17 20.602 20.602 0 010 15.47 18.729 18.729 0 01-4.176 6.172 19.375 19.375 0 01-6.321 4.101 21.94 21.94 0 01-15.92 0 19.169 19.169 0 01-6.302-4.101 18.925 18.925 0 01-4.158-6.171 20.602 20.602 0 010-15.47 18.944 18.944 0 014.158-6.171 19.178 19.178 0 016.302-4.102 20.873 20.873 0 017.97-1.489zm0 7.623a12.024 12.024 0 00-4.598.87 10.881 10.881 0 00-3.67 2.435 11.359 11.359 0 00-2.435 3.746 13.475 13.475 0 000 9.627 11.34 11.34 0 002.435 3.745 10.881 10.881 0 003.67 2.435 12.604 12.604 0 009.206 0 11.106 11.106 0 003.69-2.435 11.237 11.237 0 002.453-3.745 13.475 13.475 0 000-9.627 11.237 11.237 0 00-2.454-3.746 11.106 11.106 0 00-3.69-2.434 12.024 12.024 0 00-4.607-.871zM376.03 390.507c-.075-11.546-7.201-19.45-17.586-19.45-10.844 0-18.439 7.904-18.439 19.45 0 11.78 7.904 19.45 18.982 19.45 5.619 0 10.694-1.395 15.189-5.188l-3.952-5.965a17.643 17.643 0 01-10.769 3.877c-5.188 0-9.917-2.397-11.078-9.065h27.503c.056-1.011.15-2.022.15-3.109zm-27.578-3.25c.852-5.346 4.102-8.989 9.842-8.989 5.188 0 8.522 3.25 9.364 8.99h-19.206zm61.515-5.805a23.87 23.87 0 00-11.556-3.184c-4.42 0-7.051 1.63-7.051 4.336 0 2.481 2.809 3.174 6.274 3.643l3.792.543c8.063 1.16 12.942 4.57 12.942 11.078 0 7.051-6.2 12.09-16.856 12.09-6.04 0-11.621-1.555-16.041-4.805l3.792-6.274a19.73 19.73 0 0012.305 3.858c5.497 0 8.428-1.63 8.428-4.495 0-2.088-2.088-3.25-6.508-3.876l-3.793-.544c-8.287-1.16-12.782-4.878-12.782-10.928 0-7.36 6.04-11.855 15.414-11.855 5.89 0 11.237 1.32 15.105 3.877l-3.465 6.536zm38.722-2.126h-13.176v16.763c0 3.745 1.32 6.199 5.347 6.199a14.88 14.88 0 007.126-2.088l2.323 6.892a18.935 18.935 0 01-10.077 2.865c-9.533 0-12.857-5.113-12.857-13.719v-16.912h-7.491v-7.36h7.491v-11.237h8.138v11.237h13.166l.01 7.36zm27.887-8.287c1.954.01 3.892.351 5.73 1.011l-2.48 7.595a13.11 13.11 0 00-5.039-.937c-5.272 0-7.903 3.409-7.903 9.533v20.761h-8.054v-37.008h7.941v4.523a10.919 10.919 0 019.758-5.422l.047-.056zM554.628 101.344C506.448 53.136 430.48 46.819 375 86.408c-42.55-30.316-98.47-34.322-144.906-10.38-46.436 23.942-75.606 71.819-75.588 124.064-.018 52.244 29.152 100.122 75.588 124.063 46.436 23.942 102.357 19.936 144.906-10.38 42.55 30.316 98.47 34.322 144.906 10.38 46.436-23.941 75.606-71.819 75.588-124.063a138.734 138.734 0 00-40.866-98.748zM375 291.675a122.318 122.318 0 010-183.13 122.374 122.374 0 010 183.13zm-80.871 30.528c-67.42 0-122.074-54.654-122.074-122.074 0-67.42 54.654-122.074 122.074-122.074a120.36 120.36 0 0166.543 19.833 139.867 139.867 0 000 204.49 120.36 120.36 0 01-66.543 19.825zm161.742 0a120.36 120.36 0 01-66.487-19.796 139.951 139.951 0 000-204.519 120.36 120.36 0 0166.543-19.833c67.42 0 122.075 54.654 122.075 122.074 0 67.42-54.655 122.074-122.075 122.074h-.056z"/></g></svg>