<svg width="780" height="501" viewBox="0 0 780 501" xmlns="http://www.w3.org/2000/svg"><title>maestro</title><g fill="none" fill-rule="evenodd"><rect stroke="#393939" stroke-width="30" x="15" y="15" width="750" height="471" rx="40"/><path d="M718.706 250.48c0 112.423-91.513 203.894-204.045 203.894-46.9 0-90.17-15.878-124.68-42.593-34.513 26.716-77.76 42.594-124.68 42.594-112.496 0-204.006-91.47-204.006-203.895 0-112.397 91.51-203.854 204.006-203.854 46.92 0 90.167 15.917 124.68 42.606 34.51-26.69 77.78-42.606 124.68-42.606 112.533 0 204.046 91.457 204.046 203.853zM514.39 64.625c-41.38 0-79.58 13.55-110.483 36.41 30.173 28.035 51.803 65.075 60.688 106.746h-18.7c-8.72-37.283-28.725-70.253-56.186-95.108-27.444 24.855-47.44 57.825-56.17 95.108h-18.69c8.875-41.67 30.515-78.71 60.665-106.746-30.862-22.86-69.097-36.41-110.487-36.41-102.564 0-185.734 83.08-185.734 185.595 0 102.514 83.17 185.655 185.734 185.655 41.39 0 79.625-13.56 110.487-36.42-26.347-24.53-46.202-55.863-56.73-91.266h19.116c10.168 30.94 28.25 58.264 51.81 79.637 23.61-21.373 41.658-48.696 51.825-79.638h19.11c-10.49 35.402-30.377 66.734-56.738 91.265 30.903 22.86 69.102 36.42 110.482 36.42 102.592 0 185.75-83.14 185.75-185.654 0-102.513-83.158-185.594-185.75-185.594z" id="path14-path" fill="#393939"/><path d="M386.26 293.738c-7.547 1.94-14.856 2.892-22.562 2.892-24.57 0-37.404-11.197-37.404-32.632 0-24.98 16.298-43.372 38.458-43.372 18.093 0 29.657 10.328 29.657 26.466 0 5.33-.777 10.546-2.704 17.963h-43.718c-1.58 10.446 6.063 15.044 19.08 15.044 7.792 0 14.818-1.385 22.616-4.54l-3.424 18.178zm-11.715-43.034c0-1.616 2.424-12.823-10.213-13.078-6.98 0-11.998 4.66-14.038 13.078h24.25zM405.758 245.39c0 9.24 5.21 15.646 17.047 20.365 9.03 3.71 10.455 4.776 10.455 8.094 0 4.624-3.972 6.7-12.852 6.66-6.665-.04-12.755-.86-19.91-2.85l-3.204 16.812c6.378 1.49 15.344 1.996 23.297 2.158 23.59 0 34.465-7.73 34.465-24.43 0-10.023-4.524-15.94-15.764-20.347-9.354-3.724-10.43-4.57-10.43-7.948 0-3.98 3.706-5.998 10.96-5.998 4.383 0 10.386.41 16.093 1.11l3.178-16.97c-5.784-.77-14.61-1.42-19.7-1.42-25.04 0-33.71 11.245-33.632 24.764zM311.553 295.454H293.19l.448-7.7c-5.592 6.024-13.027 8.876-23.163 8.876-11.96 0-20.18-8.185-20.18-19.93 0-17.874 14.27-28.185 38.78-28.185 2.505 0 5.737.154 9.015.53.672-2.415.854-3.43.854-4.734 0-4.894-3.838-6.69-14.178-6.69-10.156.044-17.01 1.55-23.37 3.26l3.13-16.4c11.01-2.776 18.223-3.854 26.362-3.854 18.976 0 29.02 7.408 29.02 21.395.15 3.717-1.15 11.23-1.804 14.477-.753 4.783-6 32.402-6.55 38.957zm-15.475-32.5c-2.31-.257-3.338-.328-4.94-.328-12.528 0-18.844 3.698-18.844 11.066 0 4.666 3.087 7.517 7.916 7.517 8.972 0 15.483-7.518 15.868-18.255zM499.427 278.96c-1.525.523-3.443.73-5.95.73-5.217 0-7.5-1.633-7.5-5.418 0-2.362 6.177-33.347 6.177-33.347h11.267l3.015-17.822H495.23l3.338-17.477h-21.84s-9.78 52.82-10.387 56.464c-.61 3.622-3.386 16.623-3.012 19.39 0 10.22 6.132 15.96 17.4 15.96 5.044 0 9.755-.67 15.763-2.323l2.937-16.158zM596.822 296.63c-24.603 0-34.528-14.943-34.528-33.202 0-25.52 16.805-42.802 42.818-42.802 22.6 0 34.597 14.23 34.597 32.49 0 30.285-18.012 43.514-42.888 43.514zm7.423-58.004c-11.062 0-17.95 13.09-17.95 24.673 0 9.783 4.687 16.296 12.49 16.194 10.696 0 17.462-9.79 17.462-26.268 0-7.493-3.06-14.6-12.002-14.6zM520.766 222.39c-2.77 22.64-7.706 45.592-11.532 68.238l-.94 4.973h22.082c7.95-43.8 10.6-56.282 27.26-51.874.86-2.35 8.026-20.704 8.026-20.704-11.61-4.273-19.106 1.843-25.872 10.463.607-3.92 1.758-7.665 1.47-11.095h-20.494zM253.29 206.626h-35.724l-24.16 55.344-1.814-55.344h-34.316l-16.982 89.437h19.936l13.098-68.342 3.646 68.343h20.035l30.06-68.76-13.058 68.76h21.962l17.316-89.437z" id="path14-path" fill="#393939"/><g fill="#393939"><path d="M691.38 363.72c0-3.622 2.975-6.59 6.603-6.59 3.627 0 6.602 2.968 6.602 6.59 0 3.62-2.975 6.585-6.602 6.585-3.628 0-6.603-2.966-6.603-6.585zm6.653 5c2.773 0 5.053-2.28 5.053-5 0-2.767-2.28-5.006-5.053-5.006-2.77 0-5.008 2.24-5.008 5.006 0 2.72 2.24 5 5.008 5z" id="path14-path"/><path d="M697.37 364.21h.976l.896 2.32h1.508l-1.056-2.56c.608-.246 1.015-.816 1.015-1.49 0-.546-.326-1.155-.732-1.458-.448-.308-1.02-.308-1.508-.308h-2.445v5.816h1.344v-2.32zm-.345-2.49h.73c.248 0 .614-.04.82.086.205.16.365.365.365.61 0 .262-.12.524-.366.69-.205.1-.53.1-.777.1h-.772v-1.486z" id="path14-path"/></g><g fill="#393939"><path d="M633.38 295.72c0-3.622 2.975-6.59 6.603-6.59 3.627 0 6.602 2.968 6.602 6.59 0 3.62-2.975 6.585-6.602 6.585-3.628 0-6.603-2.966-6.603-6.585zm6.653 5c2.773 0 5.053-2.28 5.053-5 0-2.767-2.28-5.006-5.053-5.006-2.77 0-5.008 2.24-5.008 5.006 0 2.72 2.24 5 5.008 5z" id="path14-path"/><path d="M639.37 296.21h.976l.896 2.32h1.508l-1.056-2.56c.608-.246 1.015-.816 1.015-1.49 0-.546-.326-1.155-.732-1.458-.448-.308-1.02-.308-1.508-.308h-2.445v5.816h1.344v-2.32zm-.345-2.49h.73c.248 0 .614-.04.82.086.205.16.365.365.365.61 0 .262-.12.524-.366.69-.205.1-.53.1-.777.1h-.772v-1.486z"/></g></g></svg>