<svg width="750" height="471" viewBox="0 0 750 471" xmlns="http://www.w3.org/2000/svg"><g fill="#393939" fill-rule="nonzero"><path d="M52.885 28.204c-13.276 0-24.039 10.522-24.039 23.503v367.586c0 12.98 10.763 23.503 24.039 23.503h644.23c13.276 0 24.039-10.522 24.039-23.503V51.707c0-12.98-10.763-23.503-24.039-23.503H52.885zm0-28.204h644.23C726.323 0 750 23.15 750 51.707v367.586C750 447.85 726.323 471 697.115 471H52.885C23.677 471 0 447.85 0 419.293V51.707C0 23.15 23.677 0 52.885 0z"/><path d="M688.72 235.156c0 107.299-87.341 194.6-194.742 194.6-44.762 0-86.06-15.155-118.996-40.652-32.941 25.497-74.217 40.651-118.997 40.651-107.366 0-194.705-87.3-194.705-194.599 0-107.271 87.339-194.559 194.705-194.559 44.78 0 86.056 15.192 118.997 40.663 32.936-25.471 74.234-40.663 118.996-40.663 107.401 0 194.742 87.288 194.742 194.559zM493.718 57.776c-39.494 0-75.95 12.932-105.445 34.75 28.797 26.757 49.442 62.108 57.92 101.88h-17.846c-8.323-35.583-27.416-67.05-53.625-90.772-26.191 23.722-45.276 55.19-53.607 90.772h-17.838c8.47-39.772 29.123-75.123 57.898-101.88-29.454-21.818-65.946-34.75-105.45-34.75-97.887 0-177.265 79.294-177.265 177.134 0 97.84 79.378 177.19 177.266 177.19 39.503 0 75.995-12.942 105.45-34.76-25.146-23.412-44.096-53.316-54.143-87.105h18.243c9.704 29.531 26.963 55.609 49.446 76.007 22.536-20.398 39.76-46.476 49.463-76.007h18.24c-10.013 33.789-28.993 63.693-54.152 87.105 29.494 21.818 65.951 34.76 105.445 34.76 97.916 0 177.283-79.35 177.283-177.19S591.634 57.776 493.718 57.776z"/><path d="M371.43 276.443c-7.202 1.85-14.178 2.76-21.533 2.76-23.45 0-35.699-10.687-35.699-31.144 0-23.84 15.556-41.395 36.706-41.395 17.267 0 28.304 9.858 28.304 25.26 0 5.088-.74 10.065-2.58 17.144h-41.724c-1.508 9.97 5.786 14.358 18.209 14.358 7.437 0 14.143-1.322 21.585-4.332l-3.268 17.349zm-11.18-41.072c0-1.542 2.313-12.239-9.747-12.482-6.663 0-11.451 4.448-13.399 12.482h23.146zM390.04 230.3c0 8.82 4.971 14.932 16.27 19.436 8.618 3.54 9.977 4.558 9.977 7.725 0 4.414-3.79 6.395-12.265 6.358-6.362-.04-12.174-.822-19.002-2.722l-3.059 16.046c6.087 1.422 14.645 1.905 22.235 2.06 22.514 0 32.893-7.378 32.893-23.315 0-9.567-4.318-15.214-15.046-19.42-8.928-3.555-9.956-4.361-9.956-7.586 0-3.798 3.538-5.725 10.462-5.725 4.183 0 9.912.391 15.359 1.061l3.033-16.197c-5.521-.735-13.943-1.357-18.802-1.357-23.9 0-32.174 10.734-32.1 23.636zM300.13 278.08h-17.527l.429-7.347c-5.338 5.748-12.434 8.47-22.108 8.47-11.414 0-19.26-7.812-19.26-19.02 0-17.06 13.62-26.9 37.012-26.9 2.391 0 5.476.145 8.604.504.642-2.304.815-3.274.815-4.517 0-4.673-3.662-6.385-13.531-6.385-9.693.04-16.236 1.478-22.303 3.109l2.985-15.651c10.51-2.65 17.393-3.679 25.16-3.679 18.111 0 27.697 7.07 27.697 20.42.144 3.547-1.098 10.716-1.72 13.816-.72 4.565-5.726 30.925-6.254 37.18zm-14.77-31.016c-2.205-.247-3.186-.315-4.714-.315-11.957 0-17.986 3.53-17.986 10.562 0 4.453 2.947 7.174 7.556 7.174 8.563 0 14.777-7.174 15.145-17.421zM479.438 262.338c-1.456.5-3.286.697-5.678.697-4.98 0-7.159-1.558-7.159-5.17 0-2.254 5.896-31.827 5.896-31.827h10.753l2.876-17.01h-10.693l3.186-16.68h-20.845s-9.334 50.413-9.913 53.89c-.584 3.457-3.233 15.865-2.876 18.505 0 9.755 5.852 15.232 16.605 15.232 4.815 0 9.312-.637 15.046-2.216l2.802-15.421zM572.392 279.203c-23.481 0-32.954-14.261-32.954-31.688 0-24.358 16.04-40.851 40.867-40.851 21.568 0 33.019 13.581 33.019 31.008 0 28.905-17.19 41.53-40.932 41.53zm7.085-55.36c-10.558 0-17.133 12.495-17.133 23.548 0 9.338 4.475 15.555 11.922 15.458 10.209 0 16.666-9.343 16.666-25.07 0-7.153-2.92-13.936-11.455-13.936zM499.804 208.348c-2.644 21.607-7.355 43.514-11.006 65.126l-.898 4.747h21.076c7.586-41.804 10.118-53.717 26.017-49.51.82-2.243 7.66-19.76 7.66-19.76-11.08-4.078-18.235 1.76-24.692 9.986.58-3.74 1.677-7.315 1.403-10.59h-19.56zM244.523 193.302h-34.095l-23.06 52.822-1.73-52.822h-32.751l-16.208 85.36h19.027l12.501-65.227 3.48 65.227h19.121l28.69-65.626-12.462 65.626h20.96z"/></g></svg>