<svg id="Layer_1" data-name="Layer 1" xmlns="http://www.w3.org/2000/svg" width="780" height="501" viewBox="0 0 780 501"><title>maestro</title><path d="M725,501H55A55.06,55.06,0,0,1,0,446V55A55.06,55.06,0,0,1,55,0H725a55.06,55.06,0,0,1,55,55V446A55.06,55.06,0,0,1,725,501ZM55,30A25,25,0,0,0,30,55V446a25,25,0,0,0,25,25H725a25,25,0,0,0,25-25V55a25,25,0,0,0-25-25Z" fill="#393939"/><path d="M295.8,435.72V410.9c0-9.35-6-15.64-15.55-15.72-5-.08-10.26,1.49-13.9,7-2.73-4.38-7-7-13.07-7A13.08,13.08,0,0,0,241.69,401v-4.88h-8.61v39.55h8.69V413.79c0-6.87,3.81-10.51,9.68-10.51,5.71,0,8.61,3.72,8.61,10.42v22h8.69V413.79c0-6.87,4-10.51,9.68-10.51,5.87,0,8.69,3.72,8.69,10.42v22Zm48.48-19.77V396.17h-8.61V401c-2.73-3.56-6.87-5.79-12.49-5.79-11.09,0-19.77,8.69-19.77,20.77s8.69,20.77,19.77,20.77c5.63,0,9.76-2.23,12.49-5.79v4.8h8.61Zm-32,0c0-6.95,4.55-12.66,12-12.66,7.12,0,11.91,5.46,11.91,12.66s-4.8,12.66-11.91,12.66C316.81,428.6,312.26,422.89,312.26,415.94ZM528.4,395.13a22.29,22.29,0,0,1,8.49,1.59,20.71,20.71,0,0,1,6.75,4.38,20,20,0,0,1,4.46,6.59,22,22,0,0,1,0,16.52,20,20,0,0,1-4.46,6.59,20.69,20.69,0,0,1-6.75,4.38,23.43,23.43,0,0,1-17,0,20.47,20.47,0,0,1-6.73-4.38,20.21,20.21,0,0,1-4.44-6.59,22,22,0,0,1,0-16.52,20.23,20.23,0,0,1,4.44-6.59,20.48,20.48,0,0,1,6.73-4.38A22.29,22.29,0,0,1,528.4,395.13Zm0,8.14a12.84,12.84,0,0,0-4.91.93,11.62,11.62,0,0,0-3.92,2.6,12.13,12.13,0,0,0-2.6,4,14.39,14.39,0,0,0,0,10.28,12.11,12.11,0,0,0,2.6,4,11.62,11.62,0,0,0,3.92,2.6,13.46,13.46,0,0,0,9.83,0,11.86,11.86,0,0,0,3.94-2.6,12,12,0,0,0,2.62-4,14.39,14.39,0,0,0,0-10.28,12,12,0,0,0-2.62-4,11.86,11.86,0,0,0-3.94-2.6A12.84,12.84,0,0,0,528.4,403.27ZM391.1,415.94c-.08-12.33-7.69-20.77-18.78-20.77-11.58,0-19.69,8.44-19.69,20.77,0,12.58,8.44,20.77,20.27,20.77,6,0,11.42-1.49,16.22-5.54l-4.22-6.37a18.84,18.84,0,0,1-11.5,4.14c-5.54,0-10.59-2.56-11.83-9.68h29.37C391,418.18,391.1,417.1,391.1,415.94Zm-29.45-3.47c.91-5.71,4.38-9.6,10.51-9.6,5.54,0,9.1,3.47,10,9.6Zm65.69-6.2A25.49,25.49,0,0,0,415,402.87c-4.72,0-7.53,1.74-7.53,4.63,0,2.65,3,3.39,6.7,3.89l4.05.58c8.61,1.24,13.82,4.88,13.82,11.83,0,7.53-6.62,12.91-18,12.91-6.45,0-12.41-1.66-17.13-5.13l4.05-6.7A21.07,21.07,0,0,0,414.1,429c5.87,0,9-1.74,9-4.8,0-2.23-2.23-3.47-6.95-4.14l-4.05-.58c-8.85-1.24-13.65-5.21-13.65-11.67,0-7.86,6.45-12.66,16.46-12.66,6.29,0,12,1.41,16.13,4.14ZM468.69,404H454.62V421.9c0,4,1.41,6.62,5.71,6.62a15.89,15.89,0,0,0,7.61-2.23l2.48,7.36a20.22,20.22,0,0,1-10.76,3.06c-10.18,0-13.73-5.46-13.73-14.65V404h-8v-7.86h8v-12h8.69v12h14.06Zm29.78-8.85a18.38,18.38,0,0,1,6.12,1.08l-2.65,8.11a14,14,0,0,0-5.38-1c-5.63,0-8.44,3.64-8.44,10.18v22.17h-8.6V396.17H488V401a11.66,11.66,0,0,1,10.42-5.79Z" fill="#393939"/><path d="M581.82,107.15A148.91,148.91,0,0,0,390,91.2,149,149,0,0,0,154.54,212.6,149,149,0,0,0,390,334,149,149,0,0,0,625.46,212.6,148.15,148.15,0,0,0,581.82,107.15ZM390,310.4a130.62,130.62,0,0,1,0-195.56,130.68,130.68,0,0,1,0,195.56ZM303.64,343a130.36,130.36,0,1,1,0-260.72,128.53,128.53,0,0,1,71.06,21.18,149.36,149.36,0,0,0,0,218.37A128.53,128.53,0,0,1,303.64,343Zm172.72,0a128.53,128.53,0,0,1-71-21.14,149.45,149.45,0,0,0,0-218.4,128.53,128.53,0,0,1,71.06-21.18,130.36,130.36,0,0,1,0,260.72Z" fill="#393939"/></svg>