<svg width="750" height="471" xmlns="http://www.w3.org/2000/svg"><g fill="#393939" fill-rule="nonzero"><path d="M52.885 28.204c-13.276 0-24.039 10.522-24.039 23.503v367.586c0 12.98 10.763 23.503 24.039 23.503h644.23c13.276 0 24.039-10.522 24.039-23.503V51.707c0-12.98-10.763-23.503-24.039-23.503H52.885zm0-28.204h644.23C726.323 0 750 23.15 750 51.707v367.586C750 447.85 726.323 471 697.115 471H52.885C23.677 471 0 447.85 0 419.293V51.707C0 23.15 23.677 0 52.885 0z"/><path d="M688.976 235.158c0 107.239-87.43 194.513-194.888 194.513-44.82 0-86.138-15.215-119.101-40.66-32.942 25.445-74.26 40.66-119.082 40.66-107.456 0-194.88-87.274-194.88-194.513 0-107.244 87.424-194.477 194.88-194.477 44.822 0 86.14 15.159 119.082 40.64 32.963-25.481 74.281-40.64 119.101-40.64 107.459 0 194.888 87.233 194.888 194.477zM493.807 57.86c-39.53 0-76.025 12.925-105.509 34.738 26.74 24.837 46.517 57.09 55.967 93.439h-18.063c-9.253-32.136-27.342-60.507-51.496-82.341-24.128 21.834-42.23 50.205-51.449 82.34H305.17c9.472-36.348 29.248-68.6 55.988-93.438-29.5-21.813-65.983-34.738-105.533-34.738-97.986 0-177.42 79.273-177.42 177.085 0 97.787 79.434 177.085 177.42 177.085 39.55 0 76.032-12.925 105.533-34.737-25.162-23.387-44.144-53.35-54.178-87.078h18.263c9.702 29.532 26.927 55.599 49.464 75.977 22.563-20.378 39.81-46.445 49.512-75.977h18.259c-10.052 33.728-29.03 63.691-54.179 87.078 29.484 21.812 65.979 34.737 105.51 34.737 97.986 0 177.422-79.298 177.422-177.085 0-97.812-79.436-177.085-177.423-177.085z" stroke="#979797"/><path d="M183.861 192.432h-28.41l-17.754 52.825-.74-52.825h-26.328l-14.292 85.35h17.133l11.004-65.206 1.537 65.206h12.483l23.393-65.596-10.481 65.596h18.298zM231.016 277.699h-15.168l.353-7.2c-4.63 5.687-10.794 8.407-19.172 8.407-9.938 0-16.704-7.744-16.704-18.944 0-16.923 11.801-26.761 32.103-26.761 2.08 0 4.744.193 7.466.542.565-2.31.702-3.28.702-4.522 0-4.58-3.172-6.307-11.728-6.307-8.943-.117-16.333 2.116-19.367 3.124.196-1.164 2.549-15.603 2.549-15.603 9.101-2.677 15.126-3.687 21.894-3.687 15.712 0 24.035 7.025 24.017 20.34.018 3.57-.566 7.974-1.48 13.78-1.593 10.03-4.997 31.573-5.465 36.83zm-12.857-30.594c-1.925-.195-2.763-.272-4.085-.272-10.384 0-15.615 3.548-15.615 10.537 0 4.33 2.567 7.084 6.534 7.084 7.468 0 12.834-7.084 13.166-17.349zM470.635 190.523c-24.25 0-41.21 21.309-41.21 51.82 0 22.664 12.276 36.833 31.974 36.833 5.054 0 9.428-.662 16.156-2.524l3.21-19.428c-6.049 2.972-11.024 4.386-15.542 4.386-10.636 0-17.055-7.84-17.055-20.786 0-18.804 9.554-31.983 23.221-31.983 5.076 0 9.82 1.321 16.353 4.62l2.996-18.512c-2.682-1.047-12.114-4.426-20.103-4.426zM536.451 277.699h-15.145l.35-7.2c-4.65 5.687-10.833 8.407-19.197 8.407-9.916 0-16.724-7.744-16.724-18.944 0-16.923 11.844-26.761 32.126-26.761 2.08 0 4.745.193 7.47.542.558-2.31.698-3.28.698-4.522 0-4.58-3.17-6.307-11.709-6.307-8.961-.117-16.33 2.116-19.366 3.124.175-1.164 2.53-15.603 2.53-15.603 9.118-2.677 15.144-3.687 21.873-3.687 15.734 0 24.058 7.025 24.037 20.34.039 3.57-.563 7.974-1.479 13.78-1.574 10.03-4.993 31.573-5.464 36.83zm-12.862-30.594c-1.906-.195-2.76-.272-4.104-.272-10.365 0-15.616 3.548-15.616 10.537 0 4.33 2.569 7.084 6.576 7.084 7.448 0 12.834-7.084 13.144-17.349zM321.067 261.615c-1.225.43-2.838.66-4.919.66-4.356 0-6.28-1.55-6.28-5.142.04-2.21 3.053-18.63 5.155-31.808h9.39l2.49-16.69h-9.355l2.12-10.476h-18.184s-6.881 40.85-7.912 47.311c-1.167 7.395-2.644 15.449-2.53 18.514 0 9.88 5.097 15.257 14.449 15.257 4.243 0 8.146-.702 13.17-2.252l2.406-15.374zM376.969 276.11c-6.262 1.903-12.293 2.796-18.669 2.796-20.382-.043-30.996-10.656-30.996-30.975 0-23.717 13.514-41.183 31.85-41.183 14.993 0 24.583 9.762 24.583 25.132 0 5.084-.68 10.033-2.26 17.08H345.27c-1.225 10.03 5.233 14.224 15.812 14.224 6.511 0 12.368-1.321 18.9-4.347l-3.013 17.272zm-9.537-40.713c.118-1.436 1.923-12.424-8.46-12.424-5.795 0-9.955 4.445-11.626 12.424h20.086zM245.506 230.23c0 8.793 4.238 14.828 13.922 19.39 7.41 3.491 8.556 4.5 8.556 7.667 0 4.304-3.267 6.245-10.52 6.245-5.444 0-10.54-.816-16.394-2.714 0 0-2.408 15.291-2.526 16.03 4.182.893 7.875 1.743 19.057 2.058 19.308 0 28.215-7.358 28.215-23.194 0-9.566-3.715-15.116-12.895-19.33-7.659-3.532-8.553-4.309-8.553-7.549 0-3.765 3.053-5.668 8.982-5.668 3.577 0 8.497.39 13.125 1.05l2.608-16.108c-4.746-.738-11.92-1.359-16.102-1.359-20.476 0-27.553 10.654-27.475 23.483zM639.456 277.782h-17.32l.871-6.46c-5.036 5.338-10.187 7.667-16.876 7.667-13.305 0-22.092-11.433-22.092-28.781 0-23.118 13.628-42.562 29.767-42.562 7.082 0 12.485 2.873 17.487 9.452l4.042-24.666h18.05l-13.929 85.35zm-26.953-15.907c8.517 0 14.526-9.648 14.526-23.388 0-8.83-3.401-13.605-9.707-13.605-8.303 0-14.194 9.646-14.194 23.29 0 9.1 3.152 13.703 9.375 13.703zM556.229 208.452c-2.294 21.466-6.358 43.22-9.529 64.726l-.837 4.675h18.28c6.555-42.442 8.146-50.73 18.394-49.682 1.631-8.715 4.666-16.3 6.96-20.142-7.675-1.595-11.957 2.754-17.535 10.964.445-3.572 1.243-7.008 1.069-10.54h-16.802zM395.91 208.452c-2.298 21.466-6.38 43.22-9.55 64.726l-.837 4.675h18.297c6.555-42.442 8.129-50.73 18.377-49.682 1.653-8.715 4.705-16.3 6.964-20.142-7.644-1.595-11.957 2.754-17.543 10.964.449-3.572 1.242-7.008 1.09-10.54H395.91z"/></g></svg>