<svg width="750" height="471" viewBox="0 0 750 471" xmlns="http://www.w3.org/2000/svg"><g fill="#393939" fill-rule="nonzero"><path d="M697.115 471H52.885C23.69 470.969.032 447.837 0 419.293V51.707C.032 23.163 23.69.03 52.885 0h644.23C726.31.031 749.968 23.163 750 51.707v367.586c-.032 28.544-23.69 51.676-52.885 51.707zM52.885 28.204c-13.276 0-24.039 10.522-24.039 23.503v367.586c0 12.98 10.763 23.503 24.039 23.503h644.23c13.276 0 24.039-10.522 24.039-23.503V51.707c0-12.98-10.763-23.503-24.039-23.503H52.885z"/><path d="M233.255 406.003V383.26c0-8.722-5.309-14.406-14.022-14.406-4.576 0-9.473 1.52-12.887 6.407-2.654-4.174-6.407-6.407-12.127-6.407a12.878 12.878 0 00-10.983 5.308v-4.576h-7.203v36.39h7.203v-20.821c0-6.407 3.79-9.473 9.098-9.473 5.308 0 8.338 3.414 8.338 9.473v20.85h7.203v-20.85c0-6.407 3.789-9.473 9.097-9.473 5.309 0 8.338 3.414 8.338 9.473v20.85h7.945zm118.269-36.015h-13.271v-10.983h-7.185v10.983h-7.579v6.407h7.579v17.097c0 8.337 3.03 13.27 12.127 13.27a21.206 21.206 0 009.839-2.654l-2.28-6.406a12.475 12.475 0 01-6.827 1.894c-3.789 0-5.684-2.279-5.684-6.068v-17.426h13.272v-6.068l.009-.046zm67.472-1.135a11.34 11.34 0 00-9.857 5.308v-4.576h-7.203v36.39h7.203v-20.437c0-6.068 3.03-9.857 7.963-9.857 1.664.067 3.316.322 4.924.76l2.279-6.828a25.627 25.627 0 00-5.309-.76zm-101.968 3.789c-3.79-2.654-9.098-3.79-14.782-3.79-9.097 0-14.78 4.174-14.78 11.377 0 6.069 4.173 9.473 12.126 10.617l3.79.376c4.173.76 6.827 2.279 6.827 4.173 0 2.654-3.03 4.577-8.722 4.577a19.99 19.99 0 01-12.127-3.79l-3.79 5.684c5.309 3.79 11.752 4.576 15.56 4.576 10.617 0 16.3-4.924 16.3-11.751 0-6.407-4.576-9.473-12.511-10.617l-3.79-.376c-3.413-.375-6.406-1.519-6.406-3.789 0-2.654 3.03-4.576 7.203-4.576 4.576 0 9.098 1.894 11.377 3.03l3.725-5.721zm109.931 15.166c0 10.983 7.203 18.955 18.955 18.955 5.308 0 9.098-1.135 12.887-4.174l-3.79-5.684a15.321 15.321 0 01-9.472 3.414c-6.407 0-11.377-4.924-11.377-12.127s4.906-12.09 11.377-12.09a15.321 15.321 0 019.473 3.414l3.789-5.684c-3.79-3.03-7.579-4.174-12.887-4.174-11.377-.76-18.955 7.203-18.955 18.196v-.046zm-50.797-18.955c-10.617 0-17.82 7.578-17.82 18.955 0 11.376 7.579 18.955 18.57 18.955a23.183 23.183 0 0014.782-4.924l-3.789-5.309a18.113 18.113 0 01-10.617 3.79c-4.924 0-10.232-3.03-10.983-9.474h26.918v-3.03c0-11.376-6.828-18.954-17.06-18.954v-.01zm-.375 6.828c5.309 0 9.098 3.414 9.473 9.097h-19.705c1.134-5.308 4.576-9.097 10.232-9.097zm-98.18 12.127v-18.195h-7.202v4.576c-2.654-3.414-6.407-5.309-11.752-5.309-10.233 0-17.82 7.963-17.82 18.955 0 10.992 7.578 18.955 17.82 18.955 5.308 0 9.098-1.894 11.752-5.308v4.576h7.203v-18.25zm-29.187 0c0-6.828 4.174-12.127 11.377-12.127 6.828 0 10.983 5.308 10.983 12.127 0 7.203-4.576 12.127-10.983 12.127-7.203.375-11.377-5.309-11.377-12.127zm280.141-18.955a11.34 11.34 0 00-9.857 5.308v-4.576h-7.203v36.39h7.194v-20.437c0-6.068 3.03-9.857 7.963-9.857 1.664.067 3.316.322 4.924.76l2.279-6.828a25.627 25.627 0 00-5.309-.76h.01zm-28.052 18.955v-18.195h-7.203v4.576c-2.654-3.414-6.407-5.309-11.752-5.309-10.233 0-17.82 7.963-17.82 18.955 0 10.992 7.578 18.955 17.82 18.955 5.308 0 9.098-1.894 11.752-5.308v4.576h7.203v-18.25zm-29.188 0c0-6.828 4.174-12.127 11.377-12.127 6.828 0 10.983 5.308 10.983 12.127 0 7.203-4.576 12.127-10.983 12.127-7.203.375-11.377-5.309-11.377-12.127zm102.353 0v-32.602h-7.203v18.955c-2.654-3.414-6.407-5.308-11.752-5.308-10.232 0-17.82 7.963-17.82 18.955 0 10.992 7.579 18.955 17.82 18.955 5.309 0 9.098-1.895 11.752-5.309v4.577h7.203v-18.223zm-29.187 0c0-6.828 4.173-12.127 11.376-12.127 6.828 0 10.983 5.308 10.983 12.127 0 7.203-4.576 12.127-10.983 12.127-7.212.384-11.385-5.3-11.385-12.127h.009zM550.564 104.408C503.474 57.291 429.225 51.118 375 89.81c-41.587-29.63-96.242-33.545-141.627-10.145-45.386 23.4-73.896 70.194-73.879 121.257-.017 51.063 28.493 97.857 73.879 121.257 45.385 23.4 100.04 19.485 141.627-10.145 41.587 29.63 96.242 33.545 141.627 10.145 45.386-23.4 73.896-70.194 73.879-121.257a135.595 135.595 0 00-39.942-96.514zM375 290.434a119.55 119.55 0 010-178.987 119.605 119.605 0 010 178.987zm-79.041 29.837c-65.895 0-119.313-53.418-119.313-119.312 0-65.895 53.418-119.313 119.313-119.313a117.638 117.638 0 0165.038 19.385 136.702 136.702 0 000 199.864 117.638 117.638 0 01-65.038 19.376zm158.082 0a117.638 117.638 0 01-64.983-19.348 136.785 136.785 0 000-199.892 117.638 117.638 0 0165.038-19.385c65.895 0 119.313 53.418 119.313 119.313 0 65.894-53.418 119.312-119.313 119.312h-.055z"/></g></svg>