<svg xmlns="http://www.w3.org/2000/svg" width="780" height="501" viewBox="0 0 780 501"><title>jcb copy</title><g fill="none" fill-rule="evenodd"><rect stroke="#393939" stroke-width="30" x="15" y="15" width="750" height="471" rx="40"/><path d="M718.975 250.48c0 112.363-91.606 203.806-204.198 203.806-46.961 0-90.253-15.942-124.79-42.602-34.516 26.66-77.808 42.602-124.771 42.602-112.589 0-204.19-91.443-204.19-203.806 0-112.366 91.601-203.766 204.19-203.766 46.963 0 90.255 15.882 124.77 42.581 34.538-26.699 77.83-42.581 124.791-42.581 112.592 0 204.198 91.4 204.198 203.766zM514.483 64.714c-41.419 0-79.658 13.543-110.55 36.398 28.018 26.023 48.74 59.817 58.64 97.902h-18.925c-9.695-33.67-28.648-63.397-53.956-86.274-25.28 22.877-44.247 52.603-53.906 86.274h-18.953c9.924-38.085 30.645-71.879 58.663-97.902-30.91-22.855-69.135-36.398-110.574-36.398-102.668 0-185.897 83.06-185.897 185.545 0 102.458 83.23 185.544 185.897 185.544 41.44 0 79.664-13.543 110.574-36.396-26.364-24.504-46.253-55.899-56.767-91.238h19.136c10.166 30.943 28.214 58.255 51.827 79.607 23.64-21.352 41.711-48.664 51.877-79.607H460.7c-10.532 35.34-30.416 66.734-56.766 91.238 30.891 22.853 69.13 36.396 110.549 36.396 102.668 0 185.898-83.086 185.898-185.544 0-102.485-83.23-185.545-185.898-185.545z" stroke="#979797" fill="#393939"/><path d="M189.73 205.714h-29.767l-18.603 55.349-.774-55.349H113l-14.975 89.427h17.952l11.53-68.321 1.61 68.321h13.079l24.51-68.73-10.982 68.73h19.173l14.833-89.427zM239.137 295.054h-15.891l.369-7.544c-4.851 5.958-11.31 8.808-20.088 8.808-10.412 0-17.502-8.113-17.502-19.848 0-17.732 12.365-28.04 33.637-28.04 2.18 0 4.97.203 7.822.568.593-2.42.736-3.436.736-4.738 0-4.799-3.324-6.608-12.289-6.608-9.37-.123-17.112 2.217-20.29 3.274.204-1.22 2.67-16.349 2.67-16.349 9.535-2.805 15.848-3.863 22.94-3.863 16.462 0 25.183 7.36 25.163 21.31.02 3.741-.592 8.356-1.55 14.44-1.67 10.509-5.236 33.08-5.727 38.59zm-13.47-32.055c-2.017-.205-2.895-.285-4.28-.285-10.88 0-16.362 3.717-16.362 11.04 0 4.537 2.69 7.422 6.847 7.422 7.825 0 13.446-7.422 13.795-18.177zM490.203 203.714c-25.408 0-43.178 22.326-43.178 54.294 0 23.748 12.862 38.594 33.5 38.594 5.297 0 9.88-.694 16.93-2.645l3.362-20.356c-6.337 3.114-11.55 4.596-16.284 4.596-11.144 0-17.87-8.216-17.87-21.78 0-19.702 10.011-33.51 24.33-33.51 5.32 0 10.29 1.384 17.135 4.841l3.139-19.397c-2.81-1.098-12.693-4.637-21.064-4.637zM559.164 295.054h-15.869l.366-7.544c-4.87 5.958-11.35 8.808-20.113 8.808-10.39 0-17.523-8.113-17.523-19.848 0-17.732 12.41-28.04 33.66-28.04 2.18 0 4.972.203 7.828.568.585-2.42.73-3.436.73-4.738 0-4.799-3.321-6.608-12.267-6.608-9.39-.123-17.112 2.217-20.292 3.274.183-1.22 2.65-16.349 2.65-16.349 9.554-2.805 15.869-3.863 22.919-3.863 16.485 0 25.208 7.36 25.185 21.31.041 3.741-.59 8.356-1.549 14.44-1.65 10.509-5.232 33.08-5.725 38.59zm-13.477-32.055c-1.997-.205-2.892-.285-4.3-.285-10.86 0-16.362 3.717-16.362 11.04 0 4.537 2.692 7.422 6.89 7.422 7.805 0 13.447-7.422 13.772-18.177zM333.491 278.202c-1.284.451-2.974.691-5.154.691-4.564 0-6.58-1.624-6.58-5.388.042-2.316 3.199-19.519 5.401-33.327h9.837l2.61-17.488h-9.801l2.22-10.976h-19.051s-7.21 42.801-8.29 49.572c-1.223 7.748-2.77 16.186-2.651 19.398 0 10.352 5.34 15.986 15.138 15.986 4.446 0 8.535-.736 13.799-2.36l2.522-16.108zM392.063 293.389c-6.561 1.995-12.88 2.93-19.56 2.93-21.357-.045-32.478-11.165-32.478-32.455 0-24.85 14.16-43.15 33.373-43.15 15.709 0 25.756 10.228 25.756 26.332 0 5.327-.713 10.513-2.367 17.896H358.85c-1.284 10.51 5.483 14.903 16.568 14.903 6.821 0 12.957-1.383 19.802-4.554l-3.157 18.098zm-9.992-42.658c.123-1.505 2.015-13.017-8.864-13.017-6.073 0-10.432 4.658-12.182 13.017h21.046zM254.32 245.318c0 9.213 4.44 15.536 14.587 20.315 7.764 3.659 8.965 4.715 8.965 8.034 0 4.51-3.423 6.544-11.023 6.544-5.704 0-11.042-.855-17.177-2.845 0 0-2.523 16.023-2.647 16.797 4.382.936 8.252 1.826 19.967 2.155 20.23 0 29.564-7.709 29.564-24.301 0-10.023-3.893-15.839-13.512-20.255-8.024-3.7-8.961-4.513-8.961-7.908 0-3.946 3.198-5.939 9.411-5.939 3.748 0 8.903.408 13.752 1.1l2.733-16.878c-4.973-.773-12.49-1.423-16.872-1.423-21.453 0-28.869 11.163-28.787 24.604zM667.09 295.141h-18.15l.915-6.769c-5.278 5.593-10.674 8.033-17.683 8.033-13.94 0-23.147-11.978-23.147-30.156 0-24.221 14.279-44.595 31.189-44.595 7.42 0 13.081 3.01 18.322 9.904l4.236-25.844h18.911l-14.594 89.427zm-28.241-16.667c8.923 0 15.22-10.109 15.22-24.505 0-9.252-3.564-14.255-10.171-14.255-8.7 0-14.873 10.107-14.873 24.403 0 9.535 3.304 14.357 9.824 14.357zM579.886 222.5c-2.403 22.491-6.662 45.284-9.983 67.817l-.878 4.898h19.154c6.867-44.469 8.535-53.152 19.272-52.055 1.71-9.13 4.89-17.078 7.293-21.104-8.042-1.671-12.529 2.886-18.373 11.487.466-3.742 1.303-7.342 1.12-11.044h-17.605zM411.909 222.5c-2.408 22.491-6.685 45.284-10.006 67.817l-.878 4.898h19.172c6.868-44.469 8.517-53.152 19.254-52.055 1.732-9.13 4.93-17.078 7.297-21.104-8.01-1.671-12.528 2.886-18.381 11.487.47-3.742 1.302-7.342 1.142-11.044h-17.6z" fill="#393939"/></g></svg>