<svg xmlns="http://www.w3.org/2000/svg" width="780" height="501" viewBox="0 0 780 501"><title>visa</title><path fill="none" stroke="#393939" stroke-width="30" d="M55 15h670c22.091 0 40 17.909 40 40v391c0 22.092-17.909 40-40 40H55c-22.092 0-40-17.908-40-40V55c0-22.091 17.908-40 40-40z"/><g fill="#393939"><path d="M168.379 169.853c-8.399-5.774-19.359-8.668-32.88-8.668H83.153c-4.145 0-6.435 2.073-6.87 6.215L55.018 300.883c-.221 1.311.107 2.51.981 3.6.869 1.092 1.962 1.635 3.271 1.635h24.864c4.361 0 6.758-2.068 7.198-6.215l5.888-35.986c.215-1.744.982-3.162 2.291-4.254 1.308-1.09 2.944-1.803 4.907-2.13 1.963-.324 3.814-.487 5.562-.487 1.743 0 3.814.11 6.217.327 2.397.218 3.925.324 4.58.324 18.756 0 33.478-5.285 44.167-15.866 10.684-10.577 16.032-25.243 16.032-44.004 0-12.867-4.202-22.191-12.597-27.974zm-26.99 40.08c-1.094 7.635-3.926 12.649-8.506 15.049-4.581 2.403-11.124 3.598-19.629 3.598l-10.797.327 5.563-35.007c.434-2.397 1.851-3.597 4.252-3.597h6.218c8.72 0 15.049 1.257 18.975 3.761 3.924 2.51 5.233 7.801 3.924 15.869zM720.793 161.185h-24.207c-2.406 0-3.822 1.2-4.254 3.6l-21.266 136.099-.328.654c0 1.096.436 2.127 1.311 3.109.867.98 1.963 1.471 3.27 1.471h21.594c4.139 0 6.43-2.068 6.871-6.215L725.05 166.09v-.325c-.001-3.053-1.423-4.58-4.257-4.58zM428.31 213.856c0-1.088-.439-2.126-1.305-3.106-.875-.981-1.859-1.474-2.945-1.474h-25.193c-2.404 0-4.366 1.096-5.889 3.271l-34.679 51.04-14.395-49.075c-1.095-3.487-3.492-5.236-7.197-5.236h-24.541c-1.093 0-2.074.492-2.941 1.474-.875.98-1.309 2.019-1.309 3.106 0 .44 2.127 6.871 6.379 19.303 4.252 12.435 8.832 25.849 13.74 40.245 4.908 14.393 7.469 22.031 7.688 22.898-17.886 24.43-26.826 37.517-26.826 39.259 0 2.838 1.416 4.254 4.253 4.254h25.192c2.398 0 4.36-1.088 5.889-3.27l83.427-120.399c.435-.433.652-1.193.652-2.29zM662.887 209.276H638.02c-3.055 0-4.904 3.6-5.557 10.798-5.678-8.721-16.031-13.088-31.084-13.088-15.703 0-29.066 5.89-40.076 17.668-11.016 11.778-16.521 25.631-16.521 41.551 0 12.871 3.761 23.121 11.284 30.752 7.525 7.639 17.613 11.451 30.266 11.451 6.324 0 12.758-1.311 19.301-3.926 6.543-2.617 11.664-6.105 15.379-10.469 0 .219-.223 1.199-.656 2.943-.439 1.748-.654 3.059-.654 3.926 0 3.494 1.414 5.234 4.254 5.234h22.576c4.137 0 6.541-2.068 7.193-6.215l13.416-85.39c.215-1.309-.113-2.507-.982-3.599-.876-1.089-1.963-1.636-3.272-1.636zm-42.695 64.453c-5.561 5.453-12.268 8.178-20.119 8.178-6.328 0-11.449-1.742-15.377-5.234-3.928-3.484-5.891-8.283-5.891-14.395 0-8.065 2.727-14.886 8.18-20.447 5.447-5.562 12.215-8.343 20.285-8.343 6.102 0 11.174 1.8 15.213 5.397 4.031 3.6 6.053 8.563 6.053 14.889-.001 7.851-2.782 14.505-8.344 19.955zM291.231 209.276h-24.865c-3.058 0-4.908 3.6-5.563 10.798-5.889-8.721-16.25-13.088-31.081-13.088-15.704 0-29.065 5.89-40.078 17.668-11.016 11.778-16.521 25.631-16.521 41.551 0 12.871 3.763 23.121 11.288 30.752 7.525 7.639 17.61 11.451 30.262 11.451 6.104 0 12.433-1.311 18.975-3.926 6.543-2.617 11.778-6.105 15.704-10.469-.875 2.617-1.309 4.908-1.309 6.869 0 3.494 1.417 5.234 4.253 5.234h22.574c4.141 0 6.543-2.068 7.198-6.215l13.413-85.39c.215-1.309-.111-2.507-.981-3.599-.873-1.089-1.963-1.636-3.269-1.636zm-42.696 64.615c-5.563 5.35-12.382 8.016-20.447 8.016-6.329 0-11.4-1.742-15.214-5.234-3.819-3.484-5.726-8.283-5.726-14.395 0-8.065 2.725-14.886 8.18-20.447 5.449-5.562 12.211-8.343 20.284-8.343 6.104 0 11.175 1.8 15.214 5.397 4.032 3.6 6.052 8.563 6.052 14.889 0 8.07-2.781 14.779-8.343 20.117zM540.036 169.853c-8.398-5.774-19.355-8.668-32.879-8.668H455.14c-4.365 0-6.766 2.073-7.199 6.215l-21.264 133.483c-.221 1.311.105 2.51.98 3.6.867 1.092 1.963 1.635 3.271 1.635h26.826c2.617 0 4.361-1.416 5.234-4.252l5.891-37.949c.215-1.744.98-3.162 2.289-4.254 1.309-1.09 2.943-1.803 4.908-2.13 1.963-.324 3.813-.487 5.563-.487 1.742 0 3.814.11 6.213.327 2.4.218 3.93.324 4.58.324 18.76 0 33.48-5.285 44.168-15.866 10.687-10.577 16.03-25.243 16.03-44.004.001-12.867-4.2-22.191-12.594-27.974zm-33.533 53.82c-4.799 3.271-11.998 4.906-21.592 4.906l-10.471.327 5.564-35.007c.432-2.397 1.848-3.597 4.252-3.597h5.887c4.797 0 8.613.218 11.453.653 2.832.439 5.561 1.799 8.178 4.089 2.619 2.29 3.926 5.618 3.926 9.979 0 9.162-2.402 15.376-7.197 18.65z"/></g></svg>