<svg width="750" height="471" viewBox="0 0 750 471" xmlns="http://www.w3.org/2000/svg"><g fill="#393939" fill-rule="nonzero"><path d="M52.885 28.204c-13.277 0-24.039 10.522-24.039 23.503v367.586c0 12.981 10.762 23.503 24.039 23.503h644.23c13.276 0 24.039-10.522 24.039-23.503V51.707c0-12.98-10.763-23.503-24.039-23.503H52.885zm0-28.204h644.23C726.322 0 750 23.15 750 51.707v367.586C750 447.85 726.323 471 697.115 471H52.885C23.677 471 0 447.85 0 419.293V51.707C0 23.15 23.677 0 52.885 0z"/><path d="M163.273 169.458c-8.024-5.516-18.495-8.281-31.412-8.281H81.85c-3.96 0-6.147 1.98-6.563 5.937L54.973 294.638c-.212 1.253.102 2.398.937 3.44.83 1.043 1.874 1.562 3.125 1.562h23.754c4.166 0 6.456-1.976 6.876-5.938l5.626-34.38c.205-1.666.938-3.02 2.188-4.064 1.25-1.04 2.813-1.722 4.688-2.035 1.876-.309 3.644-.465 5.314-.465 1.665 0 3.644.105 5.94.313 2.29.208 3.75.31 4.375.31 17.919 0 31.983-5.05 42.195-15.159 10.207-10.104 15.316-24.116 15.316-42.04 0-12.292-4.014-21.2-12.034-26.724zm-25.785 38.29c-1.045 7.295-3.751 12.085-8.127 14.378-4.376 2.295-10.627 3.437-18.752 3.437l-10.315.312 5.314-33.444c.415-2.29 1.769-3.436 4.063-3.436h5.94c8.33 0 14.377 1.2 18.128 3.593 3.749 2.398 5 7.453 3.749 15.16zM691.025 161.177H667.9c-2.298 0-3.651 1.146-4.064 3.439l-20.317 130.023-.313.625c0 1.047.417 2.032 1.253 2.97.828.936 1.875 1.406 3.124 1.406h20.63c3.954 0 6.142-1.976 6.564-5.938l20.316-127.84v-.31c0-2.916-1.36-4.375-4.067-4.375zM411.6 211.496c0-1.04-.42-2.03-1.247-2.967-.836-.937-1.776-1.408-2.814-1.408h-24.068c-2.297 0-4.17 1.047-5.626 3.125l-33.13 48.761-13.753-46.884c-1.046-3.331-3.336-5.002-6.876-5.002h-23.445c-1.044 0-1.982.47-2.81 1.408-.836.936-1.25 1.929-1.25 2.967 0 .42 2.032 6.565 6.094 18.442 4.062 11.88 8.437 24.695 13.126 38.448 4.69 13.75 7.136 21.047 7.345 21.876-17.087 23.34-25.628 35.842-25.628 37.506 0 2.711 1.352 4.064 4.063 4.064h24.067c2.291 0 4.166-1.04 5.626-3.124l79.703-115.024c.415-.414.623-1.14.623-2.188zM635.705 207.12h-23.757c-2.919 0-4.685 3.44-5.31 10.317-5.424-8.332-15.315-12.504-29.696-12.504-15.002 0-27.768 5.627-38.286 16.88-10.525 11.252-15.784 24.486-15.784 39.695 0 12.297 3.593 22.09 10.78 29.38 7.19 7.297 16.827 10.94 28.915 10.94 6.042 0 12.189-1.253 18.44-3.751 6.25-2.5 11.143-5.833 14.692-10.002 0 .21-.213 1.145-.627 2.812-.42 1.67-.625 2.922-.625 3.75 0 3.338 1.351 5 4.065 5h21.568c3.952 0 6.249-1.975 6.872-5.937l12.817-81.578c.205-1.25-.108-2.395-.939-3.438-.836-1.04-1.875-1.563-3.125-1.563zm-40.79 61.576c-5.312 5.21-11.72 7.813-19.22 7.813-6.046 0-10.938-1.664-14.69-5-3.753-3.328-5.629-7.913-5.629-13.752 0-7.705 2.605-14.222 7.815-19.535 5.204-5.313 11.67-7.97 19.38-7.97 5.829 0 10.675 1.72 14.533 5.156 3.851 3.44 5.783 8.18 5.783 14.224 0 7.5-2.658 13.858-7.971 19.064zM280.64 207.12h-23.755c-2.921 0-4.689 3.44-5.314 10.317-5.626-8.332-15.525-12.504-29.694-12.504-15.003 0-27.767 5.627-38.289 16.88-10.524 11.252-15.783 24.486-15.783 39.695 0 12.297 3.595 22.09 10.784 29.38 7.19 7.297 16.824 10.94 28.911 10.94 5.832 0 11.878-1.253 18.128-3.751 6.25-2.5 11.252-5.833 15.003-10.002-.836 2.5-1.25 4.689-1.25 6.562 0 3.338 1.353 5 4.062 5h21.567c3.956 0 6.25-1.975 6.876-5.937l12.815-81.578c.205-1.25-.106-2.395-.938-3.438-.834-1.04-1.875-1.563-3.123-1.563zm-40.79 61.731c-5.314 5.111-11.829 7.658-19.534 7.658-6.046 0-10.89-1.664-14.535-5-3.648-3.328-5.47-7.913-5.47-13.752 0-7.705 2.603-14.222 7.815-19.535 5.206-5.313 11.666-7.97 19.378-7.97 5.832 0 10.676 1.72 14.535 5.156 3.852 3.44 5.782 8.18 5.782 14.224 0 7.71-2.657 14.12-7.97 19.22zM518.338 169.458c-8.023-5.516-18.491-8.281-31.411-8.281h-49.695c-4.17 0-6.464 1.98-6.878 5.937L410.04 294.638c-.211 1.253.1 2.398.936 3.44.828 1.043 1.875 1.562 3.125 1.562h25.628c2.5 0 4.167-1.353 5-4.063l5.629-36.255c.205-1.666.936-3.02 2.186-4.064 1.251-1.04 2.812-1.722 4.69-2.035 1.875-.309 3.642-.465 5.314-.465 1.664 0 3.644.105 5.936.313 2.292.208 3.754.31 4.375.31 17.923 0 31.986-5.05 42.196-15.159 10.21-10.104 15.315-24.116 15.315-42.04 0-12.292-4.013-21.2-12.032-26.724zm-32.036 51.417c-4.585 3.125-11.462 4.687-20.628 4.687l-10.004.312 5.316-33.444c.413-2.29 1.765-3.436 4.062-3.436h5.624c4.583 0 8.229.208 10.942.624 2.706.42 5.313 1.718 7.813 3.906 2.502 2.188 3.75 5.367 3.75 9.534 0 8.753-2.294 14.69-6.875 17.817z"/></g></svg>