<svg xmlns="http://www.w3.org/2000/svg" width="780" height="501" viewBox="0 0 780 501"><title>visa</title><path fill="none" stroke="#393939" stroke-width="30" d="M55 15h670c22.09 0 40 17.91 40 40v391c0 22.092-17.91 40-40 40H55c-22.092 0-40-17.908-40-40V55c0-22.09 17.908-40 40-40z"/><g fill="#393939"><path d="M168.38 169.853c-8.4-5.774-19.36-8.668-32.88-8.668H83.152c-4.145 0-6.435 2.073-6.87 6.215L55.018 300.883c-.22 1.31.107 2.51.98 3.6.87 1.092 1.963 1.635 3.272 1.635h24.864c4.36 0 6.758-2.068 7.198-6.215l5.888-35.986c.215-1.744.982-3.162 2.29-4.254 1.31-1.09 2.945-1.803 4.908-2.13 1.963-.324 3.814-.487 5.562-.487 1.743 0 3.814.11 6.217.327 2.397.218 3.925.324 4.58.324 18.756 0 33.478-5.285 44.167-15.866 10.684-10.576 16.032-25.242 16.032-44.003 0-12.867-4.202-22.19-12.597-27.974zm-26.99 40.08c-1.095 7.635-3.927 12.65-8.507 15.05-4.58 2.402-11.124 3.597-19.63 3.597l-10.796.327 5.563-35.007c.434-2.397 1.85-3.597 4.252-3.597h6.218c8.72 0 15.05 1.257 18.975 3.76 3.924 2.51 5.233 7.802 3.924 15.87zM720.793 161.185h-24.207c-2.406 0-3.822 1.2-4.254 3.6l-21.266 136.1-.328.653c0 1.096.436 2.127 1.31 3.11.868.98 1.964 1.47 3.27 1.47h21.595c4.14 0 6.43-2.068 6.87-6.215L725.05 166.09v-.325c0-3.053-1.423-4.58-4.257-4.58zM428.31 213.856c0-1.088-.44-2.126-1.305-3.106-.875-.98-1.86-1.474-2.945-1.474h-25.193c-2.404 0-4.366 1.096-5.89 3.27l-34.678 51.04-14.396-49.074c-1.095-3.487-3.492-5.236-7.197-5.236h-24.54c-1.094 0-2.075.492-2.942 1.474-.875.98-1.31 2.02-1.31 3.106 0 .44 2.128 6.87 6.38 19.303 4.252 12.434 8.832 25.848 13.74 40.244 4.908 14.393 7.47 22.03 7.688 22.898-17.886 24.43-26.826 37.517-26.826 39.26 0 2.837 1.416 4.253 4.253 4.253h25.192c2.398 0 4.36-1.088 5.89-3.27l83.426-120.4c.435-.432.652-1.192.652-2.29zM662.887 209.276H638.02c-3.055 0-4.904 3.6-5.557 10.798-5.678-8.72-16.03-13.088-31.084-13.088-15.704 0-29.067 5.89-40.077 17.668-11.016 11.778-16.52 25.63-16.52 41.55 0 12.872 3.76 23.122 11.283 30.753 7.525 7.64 17.613 11.45 30.266 11.45 6.324 0 12.758-1.31 19.3-3.925 6.544-2.617 11.665-6.105 15.38-10.47 0 .22-.223 1.2-.656 2.944-.44 1.748-.654 3.06-.654 3.926 0 3.494 1.414 5.234 4.254 5.234h22.576c4.137 0 6.54-2.068 7.193-6.215l13.416-85.39c.216-1.308-.112-2.506-.98-3.598-.877-1.09-1.964-1.636-3.273-1.636zm-42.695 64.453c-5.56 5.452-12.268 8.177-20.12 8.177-6.327 0-11.448-1.742-15.376-5.234-3.928-3.484-5.89-8.283-5.89-14.395 0-8.065 2.726-14.886 8.18-20.447 5.446-5.56 12.214-8.342 20.284-8.342 6.102 0 11.174 1.8 15.213 5.397 4.03 3.6 6.053 8.563 6.053 14.89 0 7.85-2.782 14.504-8.344 19.954zM291.23 209.276h-24.864c-3.058 0-4.908 3.6-5.563 10.798-5.89-8.72-16.25-13.088-31.08-13.088-15.705 0-29.066 5.89-40.08 17.668-11.015 11.778-16.52 25.63-16.52 41.55 0 12.872 3.763 23.122 11.288 30.753 7.526 7.64 17.61 11.45 30.263 11.45 6.104 0 12.433-1.31 18.975-3.925 6.543-2.617 11.778-6.105 15.704-10.47-.875 2.618-1.31 4.91-1.31 6.87 0 3.494 1.418 5.234 4.254 5.234h22.574c4.14 0 6.543-2.068 7.198-6.215l13.413-85.39c.216-1.308-.11-2.506-.98-3.598-.873-1.09-1.963-1.636-3.27-1.636zm-42.695 64.615c-5.563 5.35-12.382 8.017-20.447 8.017-6.33 0-11.4-1.742-15.214-5.234-3.82-3.484-5.726-8.283-5.726-14.395 0-8.065 2.725-14.886 8.18-20.447 5.45-5.56 12.21-8.342 20.284-8.342 6.104 0 11.175 1.8 15.214 5.397 4.032 3.6 6.052 8.563 6.052 14.89 0 8.07-2.78 14.778-8.343 20.116zM540.036 169.853c-8.398-5.774-19.355-8.668-32.88-8.668H455.14c-4.365 0-6.766 2.073-7.2 6.215l-21.263 133.483c-.22 1.31.105 2.51.98 3.6.867 1.092 1.963 1.635 3.27 1.635h26.827c2.617 0 4.36-1.416 5.234-4.252l5.89-37.95c.216-1.743.98-3.16 2.29-4.253 1.31-1.09 2.943-1.803 4.908-2.13 1.963-.324 3.813-.487 5.563-.487 1.74 0 3.813.11 6.212.327 2.4.218 3.93.324 4.58.324 18.76 0 33.48-5.285 44.168-15.866 10.687-10.576 16.03-25.242 16.03-44.003 0-12.867-4.2-22.19-12.594-27.974zm-33.533 53.82c-4.8 3.27-11.998 4.906-21.592 4.906l-10.47.326 5.564-35.007c.432-2.398 1.848-3.598 4.252-3.598h5.887c4.797 0 8.613.218 11.453.653 2.832.44 5.56 1.8 8.178 4.09 2.62 2.29 3.926 5.617 3.926 9.978 0 9.162-2.402 15.376-7.197 18.65z"/></g></svg>