<svg width="750" height="471" viewBox="0 0 750 471" xmlns="http://www.w3.org/2000/svg"><g fill-rule="nonzero" fill="none"><path d="M52.885 28.204c-13.276 0-24.039 10.522-24.039 23.503v367.586c0 12.98 10.763 23.503 24.039 23.503h644.23c13.276 0 24.039-10.522 24.039-23.503V51.707c0-12.98-10.763-23.503-24.039-23.503H52.885zm0-28.204h644.23C726.323 0 750 23.15 750 51.707v367.586C750 447.85 726.323 471 697.115 471H52.885C23.677 471 0 447.85 0 419.293V51.707C0 23.15 23.677 0 52.885 0z" fill="#393939"/><g fill="#000" fill-opacity=".196"><path d="M662.88 309.657h4.002l.383 10.64h10.91l-10.087-23.668L671.87 295 683 320.623v3.257h-15.68V333h-4.44v-9.12H658v-3.583h4.88zM639.944 295c3.89 0 7.612 1.316 10.834 4.388l-2.5 2.798c-2.556-2.359-4.834-3.51-8.111-3.51-4.056 0-7.278 2.248-7.278 6.417 0 4.553 3.611 6.637 7.278 6.637h2.277l.556 3.62h-3.222c-4.5 0-7.945 1.755-7.945 7.186 0 4.717 3.167 7.734 8.556 7.734 3.111 0 6.333-1.262 8.5-3.785l3.111 2.523c-2.889 3.511-7.444 4.992-11.722 4.992-7.89 0-13.278-4.937-13.278-11.464 0-5.87 4.222-8.941 8.722-9.27-4.055-.768-7.5-4.224-7.5-8.777 0-5.156 4.556-9.489 11.722-9.489zM606.36 295c5.155 0 8.592 1.791 11.64 5.374l-3.215 2.389c-2.439-2.769-4.49-3.963-8.258-3.963-4.268 0-6.818 2.606-6.818 6.786 0 6.134 3.104 10.205 17.515 23.723V333h-22.67l-.554-3.854h17.958c-12.582-11.237-17.071-16.829-17.071-23.669 0-5.971 4.268-10.477 11.473-10.477zM571.855 295L583 301.96l-1.967 3.258-8.632-5.247v29.273h9.288V333H560v-3.756h7.867V295zM498.88 309.657h4.002l.383 10.64h10.91l-10.087-23.668L507.87 295 519 320.623v3.257h-15.68V333h-4.44v-9.12H494v-3.583h4.88zM474.944 295c3.89 0 7.612 1.316 10.834 4.388l-2.5 2.798c-2.556-2.359-4.834-3.51-8.111-3.51-4.056 0-7.278 2.248-7.278 6.417 0 4.553 3.611 6.637 7.278 6.637h2.277l.556 3.62h-3.222c-4.5 0-7.945 1.755-7.945 7.186 0 4.717 3.167 7.734 8.556 7.734 3.111 0 6.333-1.262 8.5-3.785l3.111 2.523c-2.889 3.511-7.444 4.992-11.722 4.992-7.89 0-13.278-4.937-13.278-11.464 0-5.87 4.222-8.941 8.722-9.27-4.055-.768-7.5-4.224-7.5-8.777 0-5.156 4.556-9.489 11.722-9.489zM442.36 295c5.155 0 8.592 1.791 11.64 5.374l-3.215 2.389c-2.439-2.769-4.49-3.963-8.258-3.963-4.268 0-6.818 2.606-6.818 6.786 0 6.134 3.104 10.205 17.515 23.723V333h-22.67l-.554-3.854h17.958c-12.582-11.237-17.071-16.829-17.071-23.669 0-5.971 4.268-10.477 11.473-10.477zM407.855 295L419 301.96l-1.967 3.258-8.632-5.247v29.273h9.288V333H396v-3.756h7.867V295zM333.88 309.657h4.002l.383 10.64h10.91l-10.087-23.668L342.87 295 354 320.623v3.257h-15.68V333h-4.44v-9.12H329v-3.583h4.88zM310.944 295c3.89 0 7.612 1.316 10.834 4.388l-2.5 2.798c-2.556-2.359-4.834-3.51-8.111-3.51-4.056 0-7.278 2.248-7.278 6.417 0 4.553 3.611 6.637 7.278 6.637h2.277l.556 3.62h-3.222c-4.5 0-7.945 1.755-7.945 7.186 0 4.717 3.167 7.734 8.556 7.734 3.111 0 6.333-1.262 8.5-3.785l3.111 2.523c-2.889 3.511-7.444 4.992-11.722 4.992-7.89 0-13.278-4.937-13.278-11.464 0-5.87 4.222-8.941 8.722-9.27-4.055-.768-7.5-4.224-7.5-8.777 0-5.156 4.556-9.489 11.722-9.489zM278.36 295c5.155 0 8.592 1.791 11.64 5.374l-3.215 2.389c-2.439-2.769-4.49-3.963-8.258-3.963-4.268 0-6.818 2.606-6.818 6.786 0 6.134 3.104 10.205 17.515 23.723V333h-22.67l-.554-3.854h17.958c-12.582-11.237-17.071-16.829-17.071-23.669 0-5.971 4.268-10.477 11.473-10.477zM242.855 295L254 301.96l-1.967 3.258-8.632-5.247v29.273h9.288V333H231v-3.756h7.867V295zM169.88 309.657h4.002l.383 10.64h10.91l-10.087-23.668L178.87 295 190 320.623v3.257h-15.68V333h-4.44v-9.12H165v-3.583h4.88zM145.944 295c3.89 0 7.612 1.316 10.834 4.388l-2.5 2.798c-2.556-2.359-4.834-3.51-8.111-3.51-4.056 0-7.278 2.248-7.278 6.417 0 4.553 3.611 6.637 7.278 6.637h2.277l.556 3.62h-3.222c-4.5 0-7.945 1.755-7.945 7.186 0 4.717 3.167 7.734 8.556 7.734 3.111 0 6.333-1.262 8.5-3.785l3.111 2.523c-2.889 3.511-7.444 4.992-11.722 4.992-7.89 0-13.278-4.937-13.278-11.464 0-5.87 4.222-8.941 8.722-9.27-4.055-.768-7.5-4.224-7.5-8.777 0-5.156 4.556-9.489 11.722-9.489zM113.36 295c5.155 0 8.592 1.791 11.64 5.374l-3.215 2.389c-2.439-2.769-4.49-3.963-8.258-3.963-4.268 0-6.818 2.606-6.818 6.786 0 6.134 3.104 10.205 17.515 23.723V333h-22.67l-.554-3.854h17.958c-12.582-11.237-17.071-16.829-17.071-23.669 0-5.971 4.268-10.477 11.473-10.477zM78.855 295L90 301.96l-1.967 3.258-8.632-5.247v29.273h9.288V333H67v-3.756h7.867V295z"/></g><g fill="#000" fill-opacity=".196"><path d="M687.172 399.195V396.5c-2.54-.247-4.31-.658-5.313-1.23-1.002-.586-1.75-1.96-2.246-4.122h-2.773V419h3.75v-19.805h6.582zM664.906 399.195V396.5c-2.539-.247-4.31-.658-5.312-1.23-1.003-.586-1.752-1.96-2.246-4.122h-2.774V419h3.75v-19.805h6.582zM634.125 419c-.13-2.409-.625-4.505-1.484-6.29-.873-1.783-2.565-3.404-5.078-4.862l-3.75-2.168c-1.68-.977-2.859-1.81-3.536-2.5-1.067-1.081-1.601-2.318-1.601-3.711 0-1.628.488-2.917 1.465-3.867.976-.964 2.278-1.446 3.906-1.446 2.409 0 4.075.912 5 2.735.495.976.768 2.33.82 4.062h3.574c-.039-2.435-.488-4.42-1.347-5.957-1.524-2.708-4.212-4.062-8.067-4.062-3.203 0-5.54.865-7.011 2.597-1.485 1.732-2.227 3.66-2.227 5.781 0 2.24.788 4.154 2.363 5.743.912.924 2.546 2.044 4.903 3.36l2.675 1.483c1.277.704 2.28 1.374 3.008 2.012 1.302 1.133 2.123 2.39 2.461 3.77h-15.273V419h19.199zM602.719 419.762c3.307 0 5.71-.905 7.207-2.715 1.484-1.823 2.226-4.037 2.226-6.64h-3.672c-.156 1.81-.494 3.124-1.015 3.945-.912 1.47-2.559 2.207-4.942 2.207-1.849 0-3.333-.495-4.453-1.485-1.12-.99-1.68-2.265-1.68-3.828 0-1.927.593-3.275 1.778-4.043 1.172-.768 2.806-1.152 4.902-1.152.235 0 .476.006.723.02.234 0 .475.006.723.019v-3.106c-.365.04-.67.065-.918.079-.248.013-.515.019-.801.019-1.315 0-2.396-.208-3.242-.625-1.485-.73-2.227-2.031-2.227-3.906 0-1.393.495-2.468 1.485-3.223.99-.755 2.141-1.133 3.457-1.133 2.343 0 3.964.782 4.863 2.344.495.86.775 2.083.84 3.672h3.476c0-2.083-.416-3.854-1.25-5.313-1.432-2.604-3.952-3.906-7.558-3.906-2.852 0-5.059.638-6.621 1.914-1.563 1.263-2.344 3.1-2.344 5.508 0 1.719.462 3.112 1.387 4.18.572.664 1.315 1.185 2.226 1.562-1.471.404-2.617 1.185-3.437 2.344-.834 1.146-1.25 2.552-1.25 4.219 0 2.669.878 4.844 2.636 6.523 1.758 1.68 4.252 2.52 7.48 2.52zM574.809 411.871c-.235 2.005-1.166 3.392-2.793 4.16-.834.39-1.797.586-2.891.586-2.083 0-3.626-.664-4.629-1.992-1.003-1.328-1.504-2.8-1.504-4.414 0-1.953.6-3.464 1.797-4.531 1.185-1.068 2.61-1.602 4.277-1.602 1.211 0 2.253.235 3.125.703a6.706 6.706 0 012.207 1.953l3.047-.175-2.129-15.059h-14.53v3.398h11.894l1.191 7.774c-.65-.495-1.27-.866-1.855-1.113-1.042-.43-2.246-.645-3.614-.645-2.565 0-4.74.827-6.523 2.48-1.784 1.654-2.676 3.75-2.676 6.29 0 2.643.82 4.974 2.461 6.992 1.628 2.018 4.232 3.027 7.813 3.027 2.278 0 4.296-.638 6.054-1.914 1.745-1.289 2.722-3.262 2.93-5.918h-3.652zM546.605 402.75c-1.549 0-2.76-.43-3.632-1.29-.873-.871-1.309-1.907-1.309-3.105 0-1.041.417-1.998 1.25-2.87.833-.873 2.103-1.31 3.809-1.31 1.692 0 2.916.437 3.672 1.31.755.872 1.132 1.894 1.132 3.066 0 1.315-.488 2.344-1.465 3.086-.976.742-2.128 1.113-3.457 1.113zm-.214 13.848c-1.628 0-2.976-.437-4.043-1.309-1.081-.885-1.621-2.2-1.621-3.945 0-1.81.553-3.184 1.66-4.121 1.106-.938 2.526-1.407 4.258-1.407 1.68 0 3.053.482 4.12 1.446 1.055.95 1.583 2.272 1.583 3.965 0 1.458-.482 2.72-1.446 3.789-.976 1.054-2.48 1.582-4.511 1.582zm5-12.5c.976-.417 1.738-.905 2.285-1.465 1.028-1.042 1.543-2.396 1.543-4.063 0-2.083-.755-3.873-2.266-5.37-1.51-1.498-3.652-2.247-6.426-2.247-2.682 0-4.785.71-6.308 2.129-1.524 1.406-2.285 3.053-2.285 4.941 0 1.745.442 3.158 1.328 4.239.495.612 1.263 1.21 2.304 1.797-1.158.533-2.07 1.145-2.734 1.836-1.237 1.302-1.855 2.994-1.855 5.078 0 2.46.826 4.55 2.48 6.27 1.654 1.705 3.99 2.558 7.012 2.558 2.721 0 5.026-.736 6.914-2.207 1.875-1.485 2.812-3.633 2.812-6.446 0-1.653-.403-3.079-1.21-4.277-.808-1.21-2.006-2.135-3.594-2.773z"/></g><g fill="#000" fill-opacity=".196"><path d="M499.172 400.195V397.5c-2.54-.247-4.31-.658-5.313-1.23-1.002-.586-1.75-1.96-2.246-4.122h-2.773V420h3.75v-19.805h6.582zM470.344 420.762c3.307 0 5.71-.905 7.207-2.715 1.484-1.823 2.226-4.037 2.226-6.64h-3.672c-.156 1.81-.494 3.124-1.015 3.945-.912 1.47-2.559 2.207-4.942 2.207-1.849 0-3.333-.495-4.453-1.485-1.12-.99-1.68-2.265-1.68-3.828 0-1.927.593-3.275 1.778-4.043 1.172-.768 2.806-1.152 4.902-1.152.235 0 .476.006.723.02.234 0 .475.006.723.019v-3.106c-.365.04-.67.065-.918.079-.248.013-.515.019-.801.019-1.315 0-2.396-.208-3.242-.625-1.485-.73-2.227-2.031-2.227-3.906 0-1.393.495-2.468 1.485-3.223.99-.755 2.141-1.133 3.457-1.133 2.343 0 3.964.782 4.863 2.344.495.86.775 2.083.84 3.672h3.476c0-2.083-.416-3.854-1.25-5.313-1.432-2.604-3.952-3.906-7.558-3.906-2.852 0-5.059.638-6.621 1.914-1.563 1.263-2.344 3.1-2.344 5.508 0 1.719.462 3.112 1.387 4.18.572.664 1.315 1.185 2.226 1.562-1.471.404-2.617 1.185-3.437 2.344-.834 1.146-1.25 2.552-1.25 4.219 0 2.669.878 4.843 2.636 6.523 1.758 1.68 4.252 2.52 7.48 2.52zM457.219 420c-.13-2.409-.625-4.505-1.485-6.29-.872-1.783-2.565-3.404-5.078-4.862l-3.75-2.168c-1.68-.977-2.858-1.81-3.535-2.5-1.068-1.081-1.601-2.318-1.601-3.711 0-1.628.488-2.917 1.464-3.867.977-.964 2.279-1.446 3.907-1.446 2.408 0 4.075.912 5 2.735.494.976.768 2.33.82 4.062h3.574c-.039-2.435-.488-4.42-1.347-5.957-1.524-2.708-4.213-4.062-8.067-4.062-3.203 0-5.54.865-7.012 2.597-1.484 1.732-2.226 3.66-2.226 5.781 0 2.24.788 4.154 2.363 5.743.912.924 2.546 2.044 4.902 3.36l2.676 1.483c1.276.704 2.279 1.374 3.008 2.012 1.302 1.133 2.122 2.39 2.461 3.77H438.02V420h19.199zM432.375 400.195V397.5c-2.54-.247-4.31-.658-5.313-1.23-1.002-.586-1.75-1.96-2.246-4.122h-2.773V420h3.75v-19.805h6.582zM392.453 420.762c3.307 0 5.71-.905 7.207-2.715 1.485-1.823 2.227-4.037 2.227-6.64h-3.672c-.156 1.81-.495 3.124-1.016 3.945-.911 1.47-2.558 2.207-4.941 2.207-1.85 0-3.334-.495-4.453-1.485-1.12-.99-1.68-2.265-1.68-3.828 0-1.927.592-3.275 1.777-4.043 1.172-.768 2.806-1.152 4.903-1.152.234 0 .475.006.722.02.235 0 .476.006.723.019v-3.106c-.365.04-.67.065-.918.079-.247.013-.514.019-.8.019-1.316 0-2.397-.208-3.243-.625-1.484-.73-2.226-2.031-2.226-3.906 0-1.393.494-2.468 1.484-3.223.99-.755 2.142-1.133 3.457-1.133 2.344 0 3.965.782 4.863 2.344.495.86.775 2.083.84 3.672h3.477c0-2.083-.417-3.854-1.25-5.313-1.433-2.604-3.952-3.906-7.559-3.906-2.852 0-5.059.638-6.621 1.914-1.563 1.263-2.344 3.1-2.344 5.508 0 1.719.462 3.112 1.387 4.18.573.664 1.315 1.185 2.226 1.562-1.47.404-2.617 1.185-3.437 2.344-.833 1.146-1.25 2.552-1.25 4.219 0 2.669.879 4.844 2.637 6.523 1.757 1.68 4.251 2.52 7.48 2.52zM367.355 410.098v-12.676l8.965 12.676h-8.965zm-.058 9.902v-6.836h12.265v-3.437l-12.812-17.774h-2.969v18.145h-4.12v3.066h4.12V420h3.516zM353.371 412.871c-.234 2.005-1.165 3.392-2.793 4.16-.833.39-1.797.586-2.89.586-2.084 0-3.627-.664-4.63-1.992-1.002-1.328-1.503-2.8-1.503-4.414 0-1.953.599-3.464 1.797-4.531 1.184-1.068 2.61-1.602 4.277-1.602 1.21 0 2.253.235 3.125.703a6.706 6.706 0 012.207 1.953l3.047-.175-2.13-15.059h-14.53v3.398h11.894l1.192 7.774c-.651-.495-1.27-.866-1.856-1.113-1.042-.43-2.246-.645-3.613-.645-2.565 0-4.74.827-6.524 2.48-1.783 1.654-2.675 3.75-2.675 6.29 0 2.643.82 4.974 2.46 6.992 1.628 2.018 4.232 3.027 7.813 3.027 2.279 0 4.297-.638 6.055-1.914 1.745-1.289 2.721-3.262 2.93-5.918h-3.653zM331.105 412.871c-.234 2.005-1.165 3.392-2.793 4.16-.833.39-1.796.586-2.89.586-2.083 0-3.626-.664-4.629-1.992-1.003-1.328-1.504-2.8-1.504-4.414 0-1.953.599-3.464 1.797-4.531 1.185-1.068 2.61-1.602 4.277-1.602 1.211 0 2.253.235 3.125.703a6.706 6.706 0 012.207 1.953l3.047-.175-2.129-15.059h-14.531v3.398h11.895l1.191 7.774c-.651-.495-1.27-.866-1.856-1.113-1.041-.43-2.246-.645-3.613-.645-2.565 0-4.74.827-6.523 2.48-1.784 1.654-2.676 3.75-2.676 6.29 0 2.643.82 4.974 2.46 6.992 1.629 2.018 4.233 3.027 7.813 3.027 2.28 0 4.297-.638 6.055-1.914 1.745-1.289 2.721-3.262 2.93-5.918h-3.653z"/></g><path stroke="#393939" fill="#393939" d="M15 167h722V69H15z"/><path fill-opacity=".196" fill="#000" d="M27 192h562v80H27z"/><g fill="#000" stroke="#393939"><path d="M503 214.6l-10.2 6.3 1.8 2.95 7.9-4.75v26.5H494v3.4h19.85v-3.4h0-7.2v-31zM531.43 214c-4.65 0-7.75 1.65-10.5 4.95l2.9 2.2c2.2-2.55 4.05-3.65 7.45-3.65 3.85 0 6.15 2.4 6.15 6.25 0 5.65-2.8 9.4-15.8 21.85v3.4h20.45l.5-3.55h-16.2c11.35-10.35 15.4-15.5 15.4-21.8 0-5.5-3.85-9.65-10.35-9.65zM561.41 214c-3.5 0-6.85 1.2-9.75 4l2.25 2.55c2.3-2.15 4.35-3.2 7.3-3.2 3.65 0 6.55 2.05 6.55 5.85 0 4.15-3.25 6.05-6.55 6.05h-2.05l-.5 3.3h2.9c4.05 0 7.15 1.6 7.15 6.55 0 4.3-2.85 7.05-7.7 7.05-2.8 0-5.7-1.15-7.65-3.45l-2.8 2.3c2.6 3.2 6.7 4.55 10.55 4.55 7.1 0 11.95-4.5 11.95-10.45 0-5.35-3.8-8.15-7.85-8.45 3.65-.7 6.75-3.85 6.75-8 0-4.7-4.1-8.65-10.55-8.65z"/></g></g></svg>