<svg xmlns="http://www.w3.org/2000/svg" width="780" height="501" viewBox="0 0 780 501"><title>security-code</title><g stroke="#393939" transform="translate(15 15)" fill="none" fill-rule="evenodd"><rect transform="matrix(-1 0 0 1 750 0)" width="750" height="471" rx="40" stroke-width="30"/><g fill="#000" fill-opacity=".196" stroke="none"><path d="M676.963 295.305h4.198l.402 11.27h11.443l-10.58-25.07 3.967-1.725 11.673 27.14v3.45H681.62v9.66h-4.658v-9.66h-5.117v-3.795h5.117zM652.26 279.78c4.026 0 7.878 1.38 11.213 4.6l-2.587 2.933c-2.645-2.473-5.003-3.68-8.395-3.68-4.198 0-7.533 2.357-7.533 6.727 0 4.773 3.738 6.958 7.533 6.958h2.357l.575 3.795h-3.335c-4.657 0-8.222 1.84-8.222 7.532 0 4.945 3.277 8.108 8.855 8.108 3.22 0 6.555-1.323 8.797-3.968l3.22 2.645c-2.99 3.68-7.705 5.233-12.132 5.233-8.165 0-13.743-5.175-13.743-12.018 0-6.152 4.37-9.372 9.028-9.717-4.198-.805-7.763-4.428-7.763-9.2 0-5.405 4.715-9.948 12.133-9.948zM617.783 279.78c5.348 0 8.913 1.898 12.075 5.693l-3.335 2.53c-2.53-2.933-4.657-4.198-8.567-4.198-4.428 0-7.073 2.76-7.073 7.188 0 6.497 3.22 10.81 18.17 25.127v3.91h-23.517l-.575-4.082h18.63c-13.053-11.903-17.71-17.825-17.71-25.07 0-6.325 4.427-11.098 11.902-11.098zM581.523 280.47l11.73 7.245-2.07 3.393-9.085-5.463v30.475h9.775v3.91h-22.827v-3.91h8.28v-35.65zM504.575 295.305h4.198l.402 11.27h11.443l-10.58-25.07 3.967-1.725 11.673 27.14v3.45h-16.445v9.66h-4.658v-9.66h-5.117v-3.795h5.117zM479.873 279.78c4.025 0 7.877 1.38 11.212 4.6l-2.587 2.933c-2.645-2.473-5.003-3.68-8.395-3.68-4.198 0-7.533 2.357-7.533 6.727 0 4.773 3.738 6.958 7.533 6.958h2.357l.575 3.795H479.7c-4.657 0-8.222 1.84-8.222 7.532 0 4.945 3.277 8.108 8.855 8.108 3.22 0 6.555-1.323 8.797-3.968l3.22 2.645c-2.99 3.68-7.705 5.233-12.132 5.233-8.165 0-13.743-5.175-13.743-12.018 0-6.152 4.37-9.372 9.028-9.717-4.198-.805-7.763-4.428-7.763-9.2 0-5.405 4.715-9.948 12.133-9.948zM445.395 279.78c5.348 0 8.913 1.898 12.075 5.693l-3.335 2.53c-2.53-2.933-4.657-4.198-8.567-4.198-4.428 0-7.073 2.76-7.073 7.188 0 6.497 3.22 10.81 18.17 25.127v3.91h-23.517l-.575-4.082h18.63c-13.053-11.903-17.71-17.825-17.71-25.07 0-6.325 4.427-11.098 11.902-11.098zM409.135 280.47l11.73 7.245-2.07 3.393-9.085-5.463v30.475h9.775v3.91h-22.827v-3.91h8.28v-35.65zM332.188 295.305h4.197l.403 11.27h11.442l-10.58-25.07 3.968-1.725 11.672 27.14v3.45h-16.445v9.66h-4.657v-9.66h-5.118v-3.795h5.118zM307.485 279.78c4.025 0 7.878 1.38 11.213 4.6l-2.588 2.933c-2.645-2.473-5.002-3.68-8.395-3.68-4.197 0-7.532 2.357-7.532 6.727 0 4.773 3.737 6.958 7.532 6.958h2.358l.575 3.795h-3.335c-4.658 0-8.223 1.84-8.223 7.532 0 4.945 3.278 8.108 8.855 8.108 3.22 0 6.555-1.323 8.798-3.968l3.22 2.645c-2.99 3.68-7.705 5.233-12.133 5.233-8.165 0-13.742-5.175-13.742-12.018 0-6.152 4.37-9.372 9.027-9.717-4.197-.805-7.762-4.428-7.762-9.2 0-5.405 4.715-9.948 12.132-9.948zM273.008 279.78c5.347 0 8.912 1.898 12.075 5.693l-3.335 2.53c-2.53-2.933-4.658-4.198-8.568-4.198-4.427 0-7.072 2.76-7.072 7.188 0 6.497 3.22 10.81 18.17 25.127v3.91H260.76l-.575-4.082h18.63c-13.052-11.903-17.71-17.825-17.71-25.07 0-6.325 4.428-11.098 11.903-11.098zM236.748 280.47l11.73 7.245-2.07 3.393-9.085-5.463v30.475h9.775v3.91H224.27v-3.91h8.28v-35.65zM159.8 295.305h4.198l.402 11.27h11.443l-10.58-25.07 3.967-1.725 11.673 27.14v3.45h-16.445v9.66H159.8v-9.66h-5.117v-3.795h5.117zM135.098 279.78c4.025 0 7.877 1.38 11.212 4.6l-2.587 2.933c-2.645-2.473-5.003-3.68-8.395-3.68-4.198 0-7.533 2.357-7.533 6.727 0 4.773 3.738 6.958 7.533 6.958h2.357l.575 3.795h-3.335c-4.657 0-8.222 1.84-8.222 7.532 0 4.945 3.277 8.108 8.855 8.108 3.22 0 6.555-1.323 8.797-3.968l3.22 2.645c-2.99 3.68-7.705 5.233-12.132 5.233-8.165 0-13.743-5.175-13.743-12.018 0-6.152 4.37-9.372 9.028-9.717-4.198-.805-7.763-4.428-7.763-9.2 0-5.405 4.715-9.948 12.133-9.948zM100.62 279.78c5.348 0 8.913 1.898 12.075 5.693l-3.335 2.53c-2.53-2.933-4.657-4.198-8.567-4.198-4.428 0-7.073 2.76-7.073 7.188 0 6.497 3.22 10.81 18.17 25.127v3.91H88.373l-.575-4.082h18.63c-13.053-11.903-17.71-17.825-17.71-25.07 0-6.325 4.427-11.098 11.902-11.098zM64.36 280.47l11.73 7.245-2.07 3.393-9.085-5.463v30.475h9.775v3.91H51.882v-3.91h8.28v-35.65z"/></g><g fill="#000" fill-opacity=".196" stroke="none"><path d="M698.526 391.936v-2.695q-3.808-.37-5.312-1.23-1.504-.88-2.246-4.121h-2.774v27.851h3.75v-19.805h6.582zM676.26 391.936v-2.695q-3.808-.37-5.312-1.23-1.504-.88-2.246-4.121h-2.774v27.851h3.75v-19.805h6.583zM645.48 411.741q-.196-3.613-1.485-6.289-1.309-2.676-5.078-4.863l-3.75-2.168q-2.52-1.465-3.535-2.5-1.602-1.621-1.602-3.711 0-2.441 1.465-3.867 1.465-1.446 3.906-1.446 3.613 0 5 2.735.742 1.465.82 4.062h3.575q-.059-3.652-1.348-5.957-2.285-4.062-8.066-4.062-4.805 0-7.012 2.597-2.227 2.598-2.227 5.782 0 3.36 2.364 5.742 1.367 1.387 4.902 3.36l2.676 1.484q1.914 1.054 3.008 2.011 1.953 1.7 2.46 3.77H626.28v3.32h19.2zM614.073 412.503q4.96 0 7.207-2.715 2.227-2.734 2.227-6.64h-3.672q-.235 2.714-1.016 3.945-1.367 2.207-4.941 2.207-2.774 0-4.453-1.485-1.68-1.484-1.68-3.828 0-2.89 1.777-4.043 1.758-1.152 4.903-1.152.351 0 .722.02.352 0 .723.019v-3.105q-.547.058-.918.078-.371.02-.8.02-1.974 0-3.243-.626-2.227-1.094-2.227-3.906 0-2.09 1.485-3.223 1.484-1.133 3.457-1.133 3.515 0 4.863 2.344.742 1.29.84 3.672h3.476q0-3.125-1.25-5.312-2.148-3.907-7.558-3.907-4.277 0-6.621 1.914-2.344 1.895-2.344 5.508 0 2.578 1.387 4.18.86.996 2.226 1.562-2.207.606-3.437 2.344-1.25 1.719-1.25 4.219 0 4.004 2.637 6.523 2.636 2.52 7.48 2.52zM586.163 404.612q-.352 3.008-2.793 4.16-1.25.586-2.89.586-3.126 0-4.63-1.992t-1.504-4.414q0-2.93 1.797-4.531 1.778-1.602 4.278-1.602 1.816 0 3.125.703 1.289.704 2.207 1.954l3.047-.176-2.13-15.059h-14.53v3.399h11.894l1.191 7.773q-.976-.742-1.855-1.113-1.563-.645-3.613-.645-3.848 0-6.524 2.48-2.676 2.481-2.676 6.29 0 3.965 2.461 6.992 2.442 3.027 7.813 3.027 3.418 0 6.054-1.914 2.618-1.933 2.93-5.918h-3.652zM557.96 395.491q-2.325 0-3.633-1.289-1.309-1.308-1.309-3.105 0-1.563 1.25-2.871 1.25-1.309 3.809-1.309 2.539 0 3.672 1.309 1.133 1.308 1.133 3.066 0 1.973-1.465 3.086-1.465 1.113-3.457 1.113zm-.215 13.848q-2.442 0-4.043-1.309-1.621-1.328-1.621-3.945 0-2.715 1.66-4.121 1.66-1.406 4.258-1.406 2.52 0 4.12 1.445 1.583 1.426 1.583 3.965 0 2.187-1.445 3.789-1.465 1.582-4.512 1.582zm5-12.5q1.465-.625 2.285-1.465 1.543-1.563 1.543-4.063 0-3.125-2.266-5.37-2.265-2.247-6.425-2.247-4.024 0-6.309 2.13-2.285 2.109-2.285 4.94 0 2.618 1.328 4.239.742.918 2.305 1.797-1.739.8-2.735 1.836-1.855 1.953-1.855 5.078 0 3.691 2.48 6.27 2.48 2.558 7.012 2.558 4.082 0 6.914-2.207 2.813-2.227 2.813-6.445 0-2.48-1.211-4.278-1.211-1.816-3.594-2.773z"/></g><g fill="#000" fill-opacity=".196" stroke="none"><path d="M511.297 392.969v-2.696q-3.809-.37-5.313-1.23-1.504-.879-2.246-4.121h-2.773v27.851h3.75V392.97h6.582zM482.469 413.535q4.96 0 7.207-2.715 2.226-2.734 2.226-6.64h-3.672q-.234 2.715-1.015 3.945-1.368 2.207-4.942 2.207-2.773 0-4.453-1.484-1.68-1.485-1.68-3.828 0-2.891 1.778-4.043 1.758-1.153 4.902-1.153.352 0 .723.02.351 0 .722.02v-3.106q-.546.058-.918.078-.37.02-.8.02-1.973 0-3.243-.626-2.226-1.093-2.226-3.906 0-2.09 1.484-3.222 1.485-1.133 3.457-1.133 3.516 0 4.864 2.344.742 1.289.84 3.671h3.476q0-3.125-1.25-5.312-2.148-3.906-7.559-3.906-4.277 0-6.62 1.914-2.344 1.894-2.344 5.508 0 2.578 1.386 4.18.86.995 2.227 1.562-2.207.605-3.438 2.343-1.25 1.72-1.25 4.22 0 4.003 2.637 6.523 2.637 2.52 7.48 2.52zM469.344 412.773q-.196-3.613-1.485-6.289-1.308-2.675-5.078-4.863l-3.75-2.168q-2.52-1.465-3.535-2.5-1.602-1.621-1.602-3.71 0-2.442 1.465-3.868 1.465-1.445 3.906-1.445 3.614 0 5 2.734.743 1.465.82 4.063h3.575q-.059-3.653-1.348-5.957-2.285-4.063-8.066-4.063-4.805 0-7.012 2.598-2.226 2.597-2.226 5.78 0 3.36 2.363 5.743 1.367 1.387 4.902 3.36l2.676 1.484q1.914 1.055 3.008 2.012 1.953 1.699 2.46 3.77h-15.273v3.32h19.2zM444.5 392.969v-2.696q-3.809-.37-5.313-1.23-1.504-.879-2.246-4.121h-2.773v27.851h3.75V392.97h6.582zM404.578 413.535q4.96 0 7.207-2.715 2.226-2.734 2.226-6.64h-3.671q-.235 2.715-1.016 3.945-1.367 2.207-4.941 2.207-2.774 0-4.454-1.484-1.68-1.485-1.68-3.828 0-2.891 1.778-4.043 1.758-1.153 4.902-1.153.352 0 .723.02.352 0 .723.02v-3.106q-.547.058-.918.078-.371.02-.801.02-1.973 0-3.242-.626-2.227-1.093-2.227-3.906 0-2.09 1.485-3.222 1.484-1.133 3.457-1.133 3.515 0 4.863 2.344.742 1.289.84 3.671h3.476q0-3.125-1.25-5.312-2.148-3.906-7.558-3.906-4.278 0-6.621 1.914-2.344 1.894-2.344 5.508 0 2.578 1.387 4.18.859.995 2.226 1.562-2.207.605-3.437 2.343-1.25 1.72-1.25 4.22 0 4.003 2.636 6.523 2.637 2.52 7.48 2.52zM379.48 402.871v-12.676l8.965 12.676h-8.965zm-.058 9.902v-6.835h12.265V402.5l-12.812-17.773h-2.969v18.144h-4.121v3.067h4.121v6.835h3.516zM365.496 405.645q-.352 3.007-2.793 4.16-1.25.586-2.89.586-3.126 0-4.63-1.993-1.504-1.992-1.504-4.414 0-2.93 1.797-4.53 1.778-1.602 4.278-1.602 1.816 0 3.125.703 1.289.703 2.207 1.953l3.047-.176-2.13-15.059h-14.53v3.399h11.894l1.191 7.773q-.976-.742-1.855-1.113-1.563-.644-3.613-.644-3.848 0-6.524 2.48t-2.676 6.289q0 3.965 2.461 6.992 2.442 3.028 7.813 3.028 3.418 0 6.055-1.914 2.617-1.934 2.93-5.918h-3.653zM343.23 405.645q-.351 3.007-2.793 4.16-1.25.586-2.89.586-3.125 0-4.63-1.993-1.503-1.992-1.503-4.414 0-2.93 1.797-4.53 1.777-1.602 4.277-1.602 1.816 0 3.125.703 1.29.703 2.207 1.953l3.047-.176-2.129-15.059h-14.531v3.399H341.1l1.192 7.773q-.977-.742-1.856-1.113-1.562-.644-3.613-.644-3.848 0-6.523 2.48-2.676 2.48-2.676 6.289 0 3.965 2.46 6.992 2.442 3.028 7.813 3.028 3.418 0 6.055-1.914 2.617-1.934 2.93-5.918h-3.653z"/></g><path fill="#393939" d="M0 154h750V52H0z"/><path fill="#000" fill-opacity=".196" stroke="none" stroke-opacity=".196" d="M12 177h562v80H12z"/><g fill="#000"><path d="M488 199.6l-10.2 6.3 1.8 2.95 7.9-4.75v26.5H479v3.4h19.85v-3.4h-7.2v-31zM516.43 199c-4.65 0-7.75 1.65-10.5 4.95l2.9 2.2c2.2-2.55 4.05-3.65 7.45-3.65 3.85 0 6.15 2.4 6.15 6.25 0 5.65-2.8 9.4-15.8 21.85v3.4h20.45l.5-3.55h-16.2c11.35-10.35 15.4-15.5 15.4-21.8 0-5.5-3.85-9.65-10.35-9.65zM546.41 199c-3.5 0-6.85 1.2-9.75 4l2.25 2.55c2.3-2.15 4.35-3.2 7.3-3.2 3.65 0 6.55 2.05 6.55 5.85 0 4.15-3.25 6.05-6.55 6.05h-2.05l-.5 3.3h2.9c4.05 0 7.15 1.6 7.15 6.55 0 4.3-2.85 7.05-7.7 7.05-2.8 0-5.7-1.15-7.65-3.45l-2.8 2.3c2.6 3.2 6.7 4.55 10.55 4.55 7.1 0 11.95-4.5 11.95-10.45 0-5.35-3.8-8.15-7.85-8.45 3.65-.7 6.75-3.85 6.75-8 0-4.7-4.1-8.65-10.55-8.65z"/></g></g></svg>