<svg width="750" height="471" viewBox="0 0 750 471" xmlns="http://www.w3.org/2000/svg"><g fill="#393939" fill-rule="evenodd"><path d="M52.885 28.204c-13.276 0-24.039 10.522-24.039 23.503v367.586c0 12.98 10.763 23.503 24.039 23.503h644.23c13.276 0 24.039-10.522 24.039-23.503V51.707c0-12.98-10.763-23.503-24.039-23.503H52.885zm0-28.204h644.23C726.323 0 750 23.15 750 51.707v367.586C750 447.85 726.323 471 697.115 471H52.885C23.677 471 0 447.85 0 419.293V51.707C0 23.15 23.677 0 52.885 0z"/><path d="M166.087 320.174C105.287 320.174 56 270.886 56 210.087 56 149.287 105.288 100 166.087 100c60.8 0 110.087 49.288 110.087 110.087 0 60.8-49.288 110.087-110.087 110.087zm0-62.932c-24.622-55.816-42.678-107.956-42.678-107.956h-37.75s22.977 66.925 65.655 150.618h29.546c42.678-83.693 65.655-150.618 65.655-150.618h-37.75s-18.056 52.14-42.678 107.956zm527.001-6.94h-73.856s1.641 24.623 34.466 24.623c16.412 0 32.825-4.928 32.825-4.928l3.283 26.26s-16.413 6.564-39.39 6.564c-32.825 0-62.367-16.412-62.367-62.367 0-36.107 22.976-59.084 55.802-59.084 49.237 0 52.52 49.237 49.237 68.932zm-50.878-45.955c-21.337 0-22.978 22.977-22.978 22.977h45.954s-1.64-22.977-22.976-22.977zm-202.9 6.932s-18.056-6.565-31.185 3.282l.003 85.343H375.3V194.867c30.908-21.387 68.932-9.848 68.932-9.848l-4.923 26.26zm-89.7 39.023h-73.856s1.641 24.623 34.466 24.623c16.412 0 32.824-4.928 32.824-4.928l3.283 26.26s-16.412 6.564-39.39 6.564c-32.825 0-62.367-16.412-62.367-62.367 0-36.107 22.977-59.084 55.803-59.084 49.237 0 52.519 49.237 49.237 68.932zm-50.88-45.955c-21.335 0-22.976 22.977-22.976 22.977h45.954s-1.64-22.977-22.977-22.977zm220.3 56.191a510.66 510.66 0 01-24.618-76.504l-32.822.005s16.412 63.365 44.315 115.87h26.252c27.903-52.505 44.315-115.859 44.315-115.859H543.65a510.8 510.8 0 01-24.62 76.488z" fill-rule="nonzero"/></g></svg>