<svg width="750" height="471" viewBox="0 0 750 471" xmlns="http://www.w3.org/2000/svg"><g fill="#393939" fill-rule="nonzero"><path d="M52.885 28.204c-13.276 0-24.039 10.522-24.039 23.503v367.586c0 12.98 10.763 23.503 24.039 23.503h644.23c13.276 0 24.039-10.522 24.039-23.503V51.707c0-12.98-10.763-23.503-24.039-23.503H52.885zm0-28.204h644.23C726.323 0 750 23.15 750 51.707v367.586C750 447.85 726.323 471 697.115 471H52.885C23.677 471 0 447.85 0 419.293V51.707C0 23.15 23.677 0 52.885 0z"/><path d="M282.598 330.126l31.844-186.863h50.934l-31.867 186.863zM517.52 147.293c-10.09-3.786-25.902-7.849-45.648-7.849-50.328 0-85.78 25.344-86.081 61.668-.284 26.85 25.308 41.829 44.628 50.767 19.825 9.16 26.491 15.001 26.397 23.18-.126 12.525-15.833 18.248-30.472 18.248-20.387 0-31.217-2.833-47.943-9.81l-6.564-2.97-7.148 41.832c11.896 5.216 33.894 9.736 56.736 9.97 53.54 0 88.296-25.055 88.691-63.843.192-21.256-13.378-37.434-42.762-50.77-17.804-8.644-28.706-14.413-28.59-23.166 0-7.767 9.228-16.072 29.167-16.072 16.656-.26 28.72 3.373 38.12 7.159l4.566 2.156 6.904-40.5M648.587 143.263H609.23c-12.193 0-21.316 3.327-26.671 15.496l-75.643 171.248H560.4s8.745-23.026 10.723-28.08c5.845 0 57.802.08 65.23.08 1.524 6.54 6.197 28 6.197 28h47.261l-41.224-186.744zm-62.444 120.66c4.212-10.766 20.293-52.235 20.293-52.235-.3.497 4.18-10.819 6.753-17.835l3.443 16.111s9.753 44.605 11.79 53.959h-42.279zM239.361 143.263L189.496 270.69l-5.313-25.896c-9.283-29.853-38.206-62.195-70.54-78.387l45.596 163.421 53.889-.062 80.185-186.503h-53.952"/><path d="M142.969 143.263h-82.13l-.65 3.887c63.896 15.468 106.176 52.847 123.726 97.76l-17.859-85.872c-3.083-11.832-12.025-15.363-23.087-15.775"/></g></svg>