<svg height="471" viewBox="0 0 750 471" width="750" xmlns="http://www.w3.org/2000/svg"><path d="m0 41.0047706c0-22.0940247 17.9143492-40.0047706 39.9919369-40.0047706h670.0161261c22.086937 0 39.991937 17.9064659 39.991937 40.0047706v390.9904584c0 22.094025-17.914349 40.004771-39.991937 40.004771h-670.0161261c-22.0869369 0-39.9919369-17.906466-39.9919369-40.004771zm.00266073 180.9013294h36.02622407l8.1231952-19.511128h18.1860592l8.1019093 19.511128h70.8843895v-14.916846l6.327206 14.980435h36.797834l6.327206-15.202995v15.139406h176.161318l-.082483-32.027501h3.408389c2.386671.082135 3.083781.302046 3.083781 4.225998v27.801503h91.111226v-7.455773c7.348924 3.921302 18.779401 7.455773 33.820482 7.455773h38.330413l8.203017-19.511128h18.186059l8.022088 19.511128h73.864402v-18.533452l11.18569 18.533452h59.190501v-122.5142006h-58.578534v14.4690756l-8.203017-14.4690756h-60.108451v14.4690756l-7.532514-14.4690756h-81.192041c-13.590986 0-25.537644 1.8891136-35.188095 7.1537276v-7.1537276h-56.029559v7.1537276c-6.140955-5.426235-14.508937-7.1537276-23.813494-7.1537276h-204.697599l-13.734666 31.6433196-14.104506-31.6433196h-64.4747019v14.4690756l-7.0828514-14.4690756h-54.9865545l-25.5349832 58.2498856v64.264315zm227.65700027-17.25373h-21.615734l-.079822-68.797659-30.574397 68.797659h-18.513329l-30.654219-68.858598v68.858598h-42.8855747l-8.1019093-19.593264h-43.9019718l-8.1843918 19.593264h-22.90086492l37.75835642-87.84247h31.3273828l35.8612593 83.168702v-83.168702h34.413824l27.594385 59.590547 25.348732-59.590547h35.105614v87.84247zm-160.0373208-37.904156-14.4317755-35.018819-14.3492929 35.018819zm246.1889538 37.904156h-70.437388v-87.84247h70.437388v18.292345h-49.351137v15.833583h48.167114v18.006196h-48.167114v17.542529h49.351137zm99.314243-64.184829c0 14.005408-9.38704 21.24127-14.857492 23.413884 4.613698 1.748688 8.554233 4.838039 10.430044 7.397483 2.977352 4.369073 3.490872 8.271828 3.490872 16.117083v17.256379h-21.267179l-.079822-11.077679c0-5.285809.508199-12.887307-3.328568-17.113305-3.08112-3.08935-7.7773-3.759681-15.368351-3.759681h-22.634792v31.950665h-21.083589v-87.84247h48.497045c10.775938 0 18.715543.2835 25.532322 4.207452 6.670439 3.923951 10.66951 9.652232 10.66951 19.450189zm-27.573099 12.336205c-2.897531 1.751338-6.324545 1.809628-10.430045 1.809628h-25.614805v-19.511129h25.96336c3.674462 0 7.508568.164271 9.999007 1.584418 2.735226 1.279723 4.427447 4.003438 4.427447 7.765769 0 3.839167-1.609739 6.928517-4.344964 8.351314zm61.31642 51.848624h-21.514627v-87.84247h21.514627zm249.597344 0h-29.879948l-39.966759-65.930869v65.930869h-42.94145l-8.205678-19.593264h-43.800864l-7.960891 19.593264h-24.672908c-10.249115 0-23.225473-2.257398-30.574397-9.715821-7.410121-7.458423-11.265512-17.561075-11.265512-33.535083 0-13.027732 2.304188-24.937363 11.366619-34.348488 6.816779-7.010653 17.49161-10.243078 32.021833-10.243078h20.413086v18.822251h-19.98471c-7.694818 0-12.039783 1.139297-16.225104 5.203674-3.59464 3.698742-6.061133 10.690848-6.061133 19.89796 0 9.411125 1.878472 16.196568 5.797721 20.629229 3.246085 3.476181 9.144914 4.530694 14.695187 4.530694h9.469523l29.717643-69.081158h31.593456l35.698955 83.086566v-83.086566h32.104314l37.063907 61.177614v-61.177614h21.59711zm-128.180454-37.904156-14.591419-35.018819-14.511597 35.018819zm181.714252 177.770119c-5.121897 7.458423-15.102278 11.2393-28.613443 11.2393h-40.719744v-18.840797h40.554779c4.023017 0 6.838065-.527256 8.532947-2.175263 1.468721-1.359208 2.4931-3.333107 2.4931-5.73093 0-2.559445-1.024379-4.591633-2.575582-5.810417-1.529917-1.340661-3.756945-1.950053-7.428746-1.950053-19.798459-.67033-44.497974.609392-44.497974-27.194761 0-12.744232 8.125856-26.158795 30.252449-26.158795h41.999553v-17.48159h-39.022201c-11.776371 0-20.330604 2.808501-26.389076 7.174924v-7.174924h-57.71912c-9.230057 0-20.064531 2.278595-25.189088 7.174924v-7.174924h-103.071187v7.174924c-8.203017-5.892552-22.044112-7.174924-28.432514-7.174924h-67.986859v7.174924c-6.48951-6.258187-20.921285-7.174924-29.717644-7.174924h-76.088769l-17.411788 18.763962-16.307587-18.763962h-113.660875v122.598986h111.521652l17.941272-19.060709 16.900929 19.060709 68.742506.060939v-28.840118h6.758242c9.120968.140425 19.878281-.22521 29.369089-4.310783v33.087312h56.700062v-31.953314h2.735226c3.490872 0 3.834105.143074 3.834105 3.616606v28.334059h172.24473c10.935582 0 22.366059-2.787304 28.695926-7.845254v7.845254h54.635338c11.369281 0 22.472488-1.587068 30.920292-5.651445zm-341.48284-47.678266c0 24.407457-18.287167 29.44686-36.718013 29.44686h-26.309254v29.470706h-40.983156l-25.96336-29.086524-26.982418 29.086524h-83.520175v-87.863666h84.805305l25.942075 28.800376 26.820113-28.800376h67.374893c16.733303 0 35.53399 4.612829 35.53399 28.9461zm-167.631032 40.606675h-51.841577v-17.48159h46.291304v-17.92671h-46.291304v-15.974008h52.863296l23.063169 25.605044zm83.602658 10.319913-32.373048-35.789832 32.373048-34.653184zm48.249597-39.324303h-27.24849v-22.375268h27.493277c7.612336 0 12.896537 3.08935 12.896537 10.772983 0 7.598848-5.039414 11.602285-13.141324 11.602285zm142.261014-40.548385h70.37353v18.170467h-49.375084v15.974008h48.169776v17.92671h-48.169776v17.48159l49.375084.079485v18.231406h-70.37353zm-26.636524 47.031782c4.69352 1.724843 8.530286 4.816843 10.328937 7.376287 2.977352 4.289587 3.408389 8.293025 3.493533 16.037597v17.418h-21.168733v-10.992894c0-5.285809.510859-13.112516-3.408389-17.198089-3.081121-3.14764-7.777301-3.900107-15.469459-3.900107h-22.533685v32.09109h-21.187357v-87.863666h48.680635c10.674831 0 18.449471.468967 25.370018 4.146512 6.654474 4.003438 10.839796 9.487962 10.839796 19.511129-.002661 14.023954-9.395022 21.180331-14.945296 23.374141zm-12.734232-10.934605c-2.820369 1.666554-6.308581 1.809628-10.411419 1.809628h-25.614805v-19.733688h25.96336c3.754283 0 7.511228.079486 10.062864 1.587067 2.732565 1.422797 4.36625 4.143863 4.36625 7.903544s-1.633685 6.788092-4.36625 8.433449zm190.263163 5.426235c4.1055 4.231297 6.30592 9.572747 6.30592 18.615588 0 18.901736-11.858854 27.724666-33.123373 27.724666h-41.068299v-18.840797h40.903334c3.999071 0 6.835404-.527256 8.612769-2.175263 1.450095-1.359208 2.490439-3.333107 2.490439-5.73093 0-2.559445-1.125487-4.591633-2.572922-5.810417-1.612399-1.340661-3.836766-1.950053-7.508567-1.950053-19.718637-.67033-44.412831.609392-44.412831-27.194761 0-12.744232 8.040713-26.158795 30.14602-26.158795h42.270947v18.700372h-38.678967c-3.834106 0-6.327205.143075-8.447804 1.587068-2.309509 1.422797-3.166263 3.534471-3.166263 6.321775 0 3.31456 1.960955 5.569309 4.613698 6.544336 2.224367.771012 4.613698.996222 8.205678.996222l11.350655.304696c11.446441.278201 19.303564 2.24945 24.079566 7.066293zm84.108196-22.825689h-38.428859c-3.836767 0-6.385742.143075-8.532947 1.587068-2.224367 1.422797-3.08112 3.534471-3.08112 6.321775 0 3.31456 1.878472 5.569309 4.611037 6.544336 2.224367.771012 4.613698.996222 8.125856.996222l11.427816.304696c11.531585.2835 19.229064 2.257398 23.922584 7.071592.854093.670331 1.367613 1.422797 1.955633 2.175263z" fill="#393939" fill-rule="evenodd"/></svg>