<svg height="471" viewBox="0 0 750 471" width="750" xmlns="http://www.w3.org/2000/svg"><path d="m0 40.0047706c0-22.0940247 17.9143492-40.0047706 39.9919369-40.0047706h670.0161261c22.086937 0 39.991937 17.9064659 39.991937 40.0047706v390.9904584c0 22.094025-17.914349 40.004771-39.991937 40.004771h-670.0161261c-22.0869369 0-39.9919369-17.906466-39.9919369-40.004771zm584.933911 196.9425684c0-99.415799-82.980935-168.1332584-173.894987-168.1001926h-78.242184c-92.003041-.0330658-167.730651 68.7048946-167.730651 168.1001926 0 90.930439 75.72761 165.640093 167.730651 165.203624h78.242184c90.914052.435808 173.894987-74.293024 173.894987-165.203624zm-251.766915-154.3249575c-84.069923.0264527-152.194413 68.3074425-152.214213 152.5797415.0198 84.25775 68.14363 152.532127 152.214213 152.55858 84.089723-.026453 152.228073-68.30083 152.239953-152.55858-.01254-84.272299-68.15023-152.5532888-152.239953-152.5797415zm-96.484394 152.5797415c.079199-41.180215 25.746332-76.296153 61.940354-90.250605v180.480048c-36.194022-13.946516-61.861815-49.043275-61.940354-90.229443zm131.015234 90.269122v-180.525679c36.207223 13.920725 61.913955 49.056502 61.979954 90.256557-.065999 41.21262-25.772731 76.321945-61.979954 90.269122z" fill="#393939"/></svg>