<?xml version="1.0" encoding="UTF-8" standalone="no"?>
<svg
   xmlns:sketch="http://www.bohemiancoding.com/sketch/ns"
   xmlns:dc="http://purl.org/dc/elements/1.1/"
   xmlns:cc="http://creativecommons.org/ns#"
   xmlns:rdf="http://www.w3.org/1999/02/22-rdf-syntax-ns#"
   xmlns:svg="http://www.w3.org/2000/svg"
   xmlns="http://www.w3.org/2000/svg"
   xmlns:sodipodi="http://sodipodi.sourceforge.net/DTD/sodipodi-0.dtd"
   xmlns:inkscape="http://www.inkscape.org/namespaces/inkscape"
   width="750px"
   height="471px"
   viewBox="0 0 750 471"
   version="1.1"
   id="svg2"
   inkscape:version="0.91 r13725"
   sodipodi:docname="discover.svg">
  <metadata
     id="metadata15">
    <rdf:RDF>
      <cc:Work
         rdf:about="">
        <dc:format>image/svg+xml</dc:format>
        <dc:type
           rdf:resource="http://purl.org/dc/dcmitype/StillImage" />
      </cc:Work>
    </rdf:RDF>
  </metadata>
  <sodipodi:namedview
     pagecolor="#ffffff"
     bordercolor="#666666"
     borderopacity="1"
     objecttolerance="10"
     gridtolerance="10"
     guidetolerance="10"
     inkscape:pageopacity="0"
     inkscape:pageshadow="2"
     inkscape:window-width="1440"
     inkscape:window-height="851"
     id="namedview13"
     showgrid="false"
     inkscape:zoom="0.90226825"
     inkscape:cx="425.1153"
     inkscape:cy="215.24562"
     inkscape:window-x="0"
     inkscape:window-y="300"
     inkscape:window-maximized="1"
     inkscape:current-layer="Page-1" />
  <!-- Generator: Sketch 3.3.1 (12005) - http://www.bohemiancoding.com/sketch -->
  <title
     id="title4">discover</title>
  <desc
     id="desc6">Created with Sketch.</desc>
  <defs
     id="defs8" />
  <g
     id="Page-1"
     stroke="none"
     stroke-width="1"
     fill="none"
     fill-rule="evenodd"
     sketch:type="MSPage">
    <g
       id="discover"
       sketch:type="MSLayerGroup"
       transform="translate(375.000000, 235.500000) scale(1, -1) translate(-375.000000, -235.500000) "
       fill="#393939">
      <path
         d="M 0,40.004771 C 0,17.910746 17.914349,0 39.991937,0 L 710.00806,0 C 732.095,0 750,17.906466 750,40.004771 l 0,390.990459 C 750,453.08925 732.08565,471 710.00806,471 L 39.991937,471 C 17.905,471 0,453.09353 0,430.99523 Z m 149.43105,-31.4905954 557.42909,0 c 18.77936,0 34.00303,15.2195984 34.00303,33.9925264 l 0,179.418418 c 0,0 -208.87509,-147.428343 -591.43212,-213.4109444 z M 87.362471,255.88812 c -6.669449,-5.66014 -15.333048,-8.13053 -29.049923,-8.13053 l -5.695708,0 0,67.65297 5.695708,0 c 13.716875,0 22.038656,-2.30833 29.049923,-8.27282 7.341313,-6.14632 11.757621,-15.66817 11.757621,-25.47066 0,-9.81829 -4.416308,-19.63264 -11.757621,-25.77896 z m -24.798007,76.85861 -31.158432,0 0,-102.3095 30.99446,0 c 16.480851,0 28.383104,3.65617 38.829788,11.81042 12.41477,9.66019 19.75609,24.21767 19.75609,39.27319 0,30.19403 -23.99665,51.22589 -58.421906,51.22589 z m 68.188736,-102.3095 21.22733,0 0,102.3095 -21.22733,0 z m 73.13186,63.29653 c -12.73767,4.43089 -16.47917,7.35582 -16.47917,12.88158 0,6.44276 6.66482,11.34005 15.81403,11.34005 6.35917,0 11.58693,-2.45852 17.11656,-8.28468 l 11.1072,13.6721 c -9.12819,7.50601 -20.04619,11.344 -31.97787,11.344 -19.25492,0 -33.94259,-12.57327 -33.94259,-29.31655 0,-14.09502 6.83889,-21.30855 26.77534,-28.05566 8.31001,-2.75497 12.53922,-4.59294 14.67422,-5.82616 4.24056,-2.60477 6.3642,-6.28861 6.3642,-10.5851 0,-8.28864 -7.01126,-14.431 -16.48085,-14.431 -10.12505,0 -18.27949,4.75895 -23.1688,13.64443 L 159.97551,247.7016 c 9.78028,-13.49422 21.52445,-19.47453 37.67694,-19.47453 22.05841,0 37.53441,13.78672 37.53441,33.59328 0,16.25315 -7.1559,23.61292 -31.3018,31.91341 z m 37.99732,-11.93665 c 0,-30.0715 25.11586,-53.38798 57.43933,-53.38798 9.14038,0 16.96478,1.68777 26.6181,5.96054 l 0,23.4904 c -8.4887,-7.98429 -16.00618,-11.20567 -25.63006,-11.20567 -21.37941,0 -36.55311,14.5733 -36.55311,35.28895 0,19.6445 15.65721,35.13876 35.56507,35.13876 10.12842,0 17.78884,-3.3953 26.6181,-11.51002 l 0,23.47854 c -9.32117,4.44274 -16.9816,6.28465 -26.11357,6.28465 -32.1595,0 -57.94386,-23.79079 -57.94386,-53.53817 z m 252.364,-17.61349 -29.02301,68.72017 -23.1873,0 46.18119,-104.93403 11.42337,0 47.01367,104.93403 -23.01071,0 -29.39721,-68.72017 z m 62.00658,-33.74639 60.19869,0 0,17.32036 -38.98746,0 0,27.61693 37.54955,0 0,17.32827 -37.54955,0 0,22.70777 38.98746,0 0,17.33617 -60.19869,0 z m 101.66254,55.21014 -6.2015,0 0,30.98455 6.53785,0 c 13.21865,0 20.40398,-5.20955 20.40398,-15.16619 0,-10.2847 -7.18533,-15.81836 -20.74033,-15.81836 z m 42.58222,16.89348 c 0,19.15437 -14.0301,30.20588 -38.51236,30.20588 l -31.47418,0 0,-102.3095 21.20282,0 0,41.0993 2.7665,0 29.38039,-41.0993 26.10515,0 -34.2575,43.09932 c 15.98936,3.05933 24.78918,13.34008 24.78918,29.0043 z m -367.64587,-20.93267 0,0.0356 c 0,30.05964 25.92016,54.39194 57.89467,54.39194 31.97451,0 57.89467,-24.3323 57.89467,-54.39194 l 0,-0.0356 c 0,-30.05964 -25.92016,-54.42751 -57.89467,-54.42751 -31.97451,0 -57.89467,24.36787 -57.89467,54.42751 z"
         id="Rectangle-1"
         sketch:type="MSShapeGroup"
         inkscape:connector-curvature="0"
         sodipodi:nodetypes="ssssssssscsscccsccscscccccscsccccccccssccssccssccsscccsccsssccscccccccccccccccccccccccccccsscccsccccccccccsssssss" />
    </g>
  </g>
</svg>
