<svg height="471" viewBox="0 0 750 471" width="750" xmlns="http://www.w3.org/2000/svg"><path d="m0 40.004771c0-22.094025 17.914349-40.004771 39.991937-40.004771h670.016123c22.08694 0 39.99194 17.906466 39.99194 40.004771v390.990459c0 22.09402-17.91435 40.00477-39.99194 40.00477h-670.016123c-22.086937 0-39.991937-17.90647-39.991937-40.00477zm149.43105-31.4905954h557.42909c18.77936 0 34.00303 15.2195984 34.00303 33.9925264v179.418418s-208.87509-147.428343-591.43212-213.4109444zm-62.068579 247.3739444c-6.669449-5.66014-15.333048-8.13053-29.049923-8.13053h-5.695708v67.65297h5.695708c13.716875 0 22.038656-2.30833 29.049923-8.27282 7.341313-6.14632 11.757621-15.66817 11.757621-25.47066 0-9.81829-4.416308-19.63264-11.757621-25.77896zm-24.798007 76.85861h-31.158432v-102.3095h30.99446c16.480851 0 28.383104 3.65617 38.829788 11.81042 12.41477 9.66019 19.75609 24.21767 19.75609 39.27319 0 30.19403-23.99665 51.22589-58.421906 51.22589zm68.188736-102.3095h21.22733v102.3095h-21.22733zm73.13186 63.29653c-12.73767 4.43089-16.47917 7.35582-16.47917 12.88158 0 6.44276 6.66482 11.34005 15.81403 11.34005 6.35917 0 11.58693-2.45852 17.11656-8.28468l11.1072 13.6721c-9.12819 7.50601-20.04619 11.344-31.97787 11.344-19.25492 0-33.94259-12.57327-33.94259-29.31655 0-14.09502 6.83889-21.30855 26.77534-28.05566 8.31001-2.75497 12.53922-4.59294 14.67422-5.82616 4.24056-2.60477 6.3642-6.28861 6.3642-10.5851 0-8.28864-7.01126-14.431-16.48085-14.431-10.12505 0-18.27949 4.75895-23.1688 13.64443l-13.71182-12.41517c9.78028-13.49422 21.52445-19.47453 37.67694-19.47453 22.05841 0 37.53441 13.78672 37.53441 33.59328 0 16.25315-7.1559 23.61292-31.3018 31.91341zm37.99732-11.93665c0-30.0715 25.11586-53.38798 57.43933-53.38798 9.14038 0 16.96478 1.68777 26.6181 5.96054v23.4904c-8.4887-7.98429-16.00618-11.20567-25.63006-11.20567-21.37941 0-36.55311 14.5733-36.55311 35.28895 0 19.6445 15.65721 35.13876 35.56507 35.13876 10.12842 0 17.78884-3.3953 26.6181-11.51002v23.47854c-9.32117 4.44274-16.9816 6.28465-26.11357 6.28465-32.1595 0-57.94386-23.79079-57.94386-53.53817zm252.364-17.61349-29.02301 68.72017h-23.1873l46.18119-104.93403h11.42337l47.01367 104.93403h-23.01071zm62.00658-33.74639h60.19869v17.32036h-38.98746v27.61693h37.54955v17.32827h-37.54955v22.70777h38.98746v17.33617h-60.19869zm101.66254 55.21014h-6.2015v30.98455h6.53785c13.21865 0 20.40398-5.20955 20.40398-15.16619 0-10.2847-7.18533-15.81836-20.74033-15.81836zm42.58222 16.89348c0 19.15437-14.0301 30.20588-38.51236 30.20588h-31.47418v-102.3095h21.20282v41.0993h2.7665l29.38039-41.0993h26.10515l-34.2575 43.09932c15.98936 3.05933 24.78918 13.34008 24.78918 29.0043zm-367.64587-20.93267v.0356c0 30.05964 25.92016 54.39194 57.89467 54.39194s57.89467-24.3323 57.89467-54.39194v-.0356c0-30.05964-25.92016-54.42751-57.89467-54.42751s-57.89467 24.36787-57.89467 54.42751z" fill="#393939" fill-rule="evenodd" transform="matrix(1 0 0 -1 0 471)"/></svg>