<svg width="750" height="471" viewBox="0 0 750 471" version="1.1" xmlns="http://www.w3.org/2000/svg" xmlns:xlink="http://www.w3.org/1999/xlink">
    <!-- Generator: Sketch 48.2 (47327) - http://www.bohemiancoding.com/sketch -->
    <desc>Created with Sketch.</desc>
    <defs></defs>
    <g id="Page-1" stroke="none" stroke-width="1" fill="none" fill-rule="evenodd">
        <path d="M0,40 C0,17.9 17.9,0 40,0 L710,0 C732.1,0 750,17.9 750,40 L750,431 C750,453.1 732.1,471 710,471 L40,471 C17.9,471 0,453.1 0,431 L0,40 Z M154.5,171.6 C161.2,169.4 168.4,168.1 175.9,168.1 C208.5,168.1 235.7,191.3 241.9,222 L288.1,212.6 C277.5,160.3 231.3,121 175.9,121 C163.2,121 151,123.1 139.6,126.9 L154.5,171.6 Z M100,321.3 L131.2,286 C116.74087,273.201323 108.47383,254.809891 108.5,235.5 C108.5,215.4 117.3,197.4 131.2,185.1 L100,149.8 C76.3,170.8 61.4,201.4 61.4,235.5 C61.4,269.6 76.3,300.3 100,321.3 Z M241.8,249 C235.5,279.7 208.4,302.8 175.8,302.8 C168.3,302.8 161.1,301.6 154.4,299.3 L139.4,344 C150.8,347.8 163,349.9 175.7,349.9 C231.1,349.9 277.2,310.6 287.9,258.4 L241.8,249 Z M441.8,280.6 C434.2,288 423.8,292.5 412.4,292.4 C404.6,292.3 397.3,289.9 391.2,286 L375.9,310.4 C386.4,317 398.7,320.9 412,321.1 C431.4,321.4 449,313.8 461.9,301.2 L441.8,280.6 Z M414.1,181.4 C375.6,180.8 343.8,211.6 343.2,250.2 C343,264.7 347.2,278.2 354.5,289.4 L481,235.3 C473.9,204.8 446.8,181.9 414.1,181.4 Z M372.2,255.6 C372,254 371.9,252.3 372,250.6 C372.4,227.9 391.1,209.7 413.8,210.1 C426.2,210.3 437.1,215.9 444.6,224.7 L372.2,255.6 Z M520.7,149.9 L494,149.9 L494,285.2 C494,292.5 495.9,297.9 498.5,301.9 C501.2,305.8 504.7,309.2 509.9,311.5 L533,321.1 L544.1,294.5 L520.7,284.8 L520.7,149.9 Z M605.1,212.2 C609.2,210.8 613.6,210.1 618.1,210.1 C638,210.1 654.6,224.2 658.4,243 L686.6,237.3 C680.1,205.4 651.9,181.4 618.1,181.4 C610.4,181.4 602.9,182.7 596,185 L605.1,212.2 Z M571.9,303.6 L591,282.1 C582.5,274.6 577.1,263.6 577.1,251.3 C577.1,239 582.5,228.1 591,220.5 L571.9,199 C557.4,211.8 548.3,230.5 548.3,251.3 C548.3,272.1 557.4,290.8 571.9,303.6 Z M658.4,259.5 C654.6,278.2 638,292.4 618.1,292.4 C613.5,292.4 609.2,291.7 605.1,290.3 L596,317.6 C603,319.9 610.4,321.2 618.2,321.2 C652,321.2 680.2,297.2 686.7,265.3 L658.4,259.5 Z" id="elo" fill="#393939" fill-rule="nonzero"></path>
    </g>
</svg>
