<svg width="750" height="471" viewBox="0 0 750 471" version="1.1" xmlns="http://www.w3.org/2000/svg" xmlns:xlink="http://www.w3.org/1999/xlink">
    <!-- Generator: Sketch 48.2 (47327) - http://www.bohemiancoding.com/sketch -->
    <desc>Created with Sketch.</desc>
    <defs></defs>
    <g id="Page-1" stroke="none" stroke-width="1" fill="none" fill-rule="evenodd">
        <g id="elo" fill-rule="nonzero">
            <g id="Page-1" fill="#393939">
                <g id="Visa">
                    <path d="M0,40 C0,17.9 17.9,0 40,0 L710,0 C732.1,0 750,17.9 750,40 L750,431 C750,453.1 732.1,471 710,471 L40,471 C17.9,471 0,453.1 0,431 L0,40 Z" id="Rectangle-1"></path>
                </g>
            </g>
            <path d="M154.5,171.6 C161.2,169.4 168.4,168.1 175.9,168.1 C208.5,168.1 235.7,191.3 241.9,222 L288.1,212.6 C277.5,160.3 231.3,121 175.9,121 C163.2,121 151,123.1 139.6,126.9 L154.5,171.6 Z M100,321.3 L131.2,286 C116.74087,273.201323 108.47383,254.809891 108.5,235.5 C108.5,215.4 117.3,197.4 131.2,185.1 L100,149.8 C76.3,170.8 61.4,201.4 61.4,235.5 C61.4,269.6 76.3,300.3 100,321.3 Z M241.8,249 C235.5,279.7 208.4,302.8 175.8,302.8 C168.3,302.8 161.1,301.6 154.4,299.3 L139.4,344 C150.8,347.8 163,349.9 175.7,349.9 C231.1,349.9 277.2,310.6 287.9,258.4 L241.8,249 Z" id="Shape" fill="#FFFFFF"></path>
            <g id="Group" transform="translate(343.000000, 149.000000)" fill="#FFFFFF">
                <path d="M98.8,131.6 C91.2,139 80.8,143.5 69.4,143.4 C61.6,143.3 54.3,140.9 48.2,137 L32.9,161.4 C43.4,168 55.7,171.9 69,172.1 C88.4,172.4 106,164.8 118.9,152.2 L98.8,131.6 Z M71.1,32.4 C32.6,31.8 0.8,62.6 0.2,101.2 C6.1672889e-14,115.7 4.2,129.2 11.5,140.4 L138,86.3 C130.9,55.8 103.8,32.9 71.1,32.4 Z M29.2,106.6 C29,105 28.9,103.3 29,101.6 C29.4,78.9 48.1,60.7 70.8,61.1 C83.2,61.3 94.1,66.9 101.6,75.7 L29.2,106.6 Z M177.7,0.9 L177.7,135.8 L201.1,145.5 L190,172.1 L166.9,162.5 C161.7,160.2 158.2,156.8 155.5,152.9 C152.9,148.9 151,143.5 151,136.2 L151,0.9 L177.7,0.9 Z" id="Shape"></path>
                <path d="M262.1,63.2 C266.2,61.8 270.6,61.1 275.1,61.1 C295,61.1 311.6,75.2 315.4,94 L343.6,88.3 C337.1,56.4 308.9,32.4 275.1,32.4 C267.4,32.4 259.9,33.7 253,36 L262.1,63.2 Z M228.9,154.6 L248,133.1 C239.5,125.6 234.1,114.6 234.1,102.3 C234.1,90 239.5,79.1 248,71.5 L228.9,50 C214.4,62.8 205.3,81.5 205.3,102.3 C205.3,123.1 214.4,141.8 228.9,154.6 Z M315.4,110.5 C311.6,129.2 295,143.4 275.1,143.4 C270.5,143.4 266.2,142.7 262.1,141.3 L253,168.6 C260,170.9 267.4,172.2 275.2,172.2 C309,172.2 337.2,148.2 343.7,116.3 L315.4,110.5 Z" id="Shape"></path>
            </g>
        </g>
    </g>
</svg>
