<?xml version="1.0" encoding="utf-8"?>
<!-- Generator: Adobe Illustrator 21.0.0, SVG Export Plug-In . SVG Version: 6.00 Build 0)  -->
<svg version="1.1" id="Layer_1" xmlns:sketch="http://www.bohemiancoding.com/sketch/ns"
	 xmlns="http://www.w3.org/2000/svg" xmlns:xlink="http://www.w3.org/1999/xlink" x="0px" y="0px" viewBox="0 0 750 471"
	 style="enable-background:new 0 0 750 471;" xml:space="preserve">
<style type="text/css">
	.st0{fill:#393939;}
	.st1{fill:#FFFFFF;}
</style>
<g id="Page-1" sketch:type="MSPage">
	<g id="Visa" sketch:type="MSLayerGroup">
		<path id="Rectangle-1" sketch:type="MSShapeGroup" class="st0" d="M0,40C0,17.9,17.9,0,40,0h670c22.1,0,40,17.9,40,40v391
			c0,22.1-17.9,40-40,40H40c-22.1,0-40-17.9-40-40V40z"/>
	</g>
</g>
<g>
	<g>
		<path class="st1" d="M154.5,171.6c6.7-2.2,13.9-3.5,21.4-3.5c32.6,0,59.8,23.2,66,53.9l46.2-9.4c-10.6-52.3-56.8-91.6-112.2-91.6
			c-12.7,0-24.9,2.1-36.3,5.9L154.5,171.6z"/>
		<path class="st1" d="M100,321.3l31.2-35.3c-13.9-12.3-22.7-30.4-22.7-50.5c0-20.1,8.8-38.1,22.7-50.4L100,149.8
			c-23.7,21-38.6,51.6-38.6,85.7C61.4,269.6,76.3,300.3,100,321.3z"/>
		<path class="st1" d="M241.8,249c-6.3,30.7-33.4,53.8-66,53.8c-7.5,0-14.7-1.2-21.4-3.5l-15,44.7c11.4,3.8,23.6,5.9,36.3,5.9
			c55.4,0,101.5-39.3,112.2-91.5L241.8,249z"/>
	</g>
	<g>
		<g>
			<g>
				<path class="st1" d="M441.8,280.6c-7.6,7.4-18,11.9-29.4,11.8c-7.8-0.1-15.1-2.5-21.2-6.4l-15.3,24.4
					c10.5,6.6,22.8,10.5,36.1,10.7c19.4,0.3,37-7.3,49.9-19.9L441.8,280.6z"/>
				<path class="st1" d="M414.1,181.4c-38.5-0.6-70.3,30.2-70.9,68.8c-0.2,14.5,4,28,11.3,39.2L481,235.3
					C473.9,204.8,446.8,181.9,414.1,181.4 M372.2,255.6c-0.2-1.6-0.3-3.3-0.2-5c0.4-22.7,19.1-40.9,41.8-40.5
					c12.4,0.2,23.3,5.8,30.8,14.6L372.2,255.6z"/>
			</g>
			<path class="st1" d="M520.7,149.9v134.9l23.4,9.7l-11.1,26.6l-23.1-9.6c-5.2-2.3-8.7-5.7-11.4-9.6c-2.6-4-4.5-9.4-4.5-16.7V149.9
				H520.7z"/>
		</g>
		<g>
			<path class="st1" d="M605.1,212.2c4.1-1.4,8.5-2.1,13-2.1c19.9,0,36.5,14.1,40.3,32.9l28.2-5.7c-6.5-31.9-34.7-55.9-68.5-55.9
				c-7.7,0-15.2,1.3-22.1,3.6L605.1,212.2z"/>
			<path class="st1" d="M571.9,303.6l19.1-21.5c-8.5-7.5-13.9-18.5-13.9-30.8c0-12.3,5.4-23.2,13.9-30.8l-19.1-21.5
				c-14.5,12.8-23.6,31.5-23.6,52.3C548.3,272.1,557.4,290.8,571.9,303.6z"/>
			<path class="st1" d="M658.4,259.5c-3.8,18.7-20.4,32.9-40.3,32.9c-4.6,0-8.9-0.7-13-2.1l-9.1,27.3c7,2.3,14.4,3.6,22.2,3.6
				c33.8,0,62-24,68.5-55.9L658.4,259.5z"/>
		</g>
	</g>
</g>
</svg>
