<?xml version="1.0" encoding="utf-8"?>
<svg id="Layer_1" x="0px" y="0px" width="780px" height="501px" viewBox="0 0 780 501" xmlns="http://www.w3.org/2000/svg">
  <title>amex-outline</title>
  <desc>Created with Sketch.</desc>
  <path d="M 725 0 L 55 0 C 24.673 0 0 24.673 0 55 L 0 446 C 0 476.327 24.673 501 55 501 L 725 501 C 755.325 501 780 476.327 780 446 L 780 55 C 780 24.673 755.325 0 725 0 Z M 339.927 390.424 L 53.393 390.527 L 53.393 389.837 C 53.393 389.458 53.85 386.999 54.408 384.372 C 54.967 381.746 55.835 377.568 56.339 375.089 C 56.841 372.609 57.701 368.396 58.248 365.725 C 58.796 363.056 59.707 358.608 60.272 355.842 C 60.836 353.077 61.72 348.707 62.237 346.133 C 62.754 343.557 63.615 339.343 64.153 336.769 C 64.69 334.194 65.607 329.747 66.19 326.886 C 66.772 324.025 67.657 319.655 68.157 317.175 C 68.657 314.695 69.451 310.872 69.922 308.68 C 70.392 306.486 70.993 303.521 71.255 302.09 C 71.518 300.66 72.369 296.446 73.146 292.727 C 73.923 289.008 74.779 284.794 75.051 283.364 C 75.322 281.933 76.183 277.719 76.965 274 C 77.746 270.282 78.604 266.068 78.872 264.637 C 79.14 263.207 80.003 258.993 80.789 255.274 C 81.577 251.554 82.427 247.419 82.677 246.084 C 82.929 244.749 83.617 241.316 84.207 238.455 C 84.796 235.594 85.912 230.21 86.686 226.491 C 87.461 222.771 88.785 216.295 89.628 212.098 C 90.473 207.902 91.482 202.909 91.871 201.002 C 92.259 199.095 92.962 195.661 93.433 193.372 C 93.904 191.083 94.758 186.948 95.332 184.183 C 95.906 181.416 96.839 176.891 97.406 174.125 C 97.974 171.36 98.848 167.068 99.349 164.589 C 99.85 162.109 100.705 157.974 101.249 155.399 C 101.793 152.824 102.729 148.298 103.329 145.342 C 103.929 142.385 104.934 137.86 105.562 135.285 C 106.19 132.71 107.078 129.589 107.536 128.35 C 107.993 127.109 109.256 124.423 110.342 122.377 L 112.317 118.66 L 114.112 116.308 C 115.098 115.016 116.861 112.973 118.028 111.769 C 119.195 110.565 121.163 108.753 122.404 107.743 C 123.643 106.732 125.438 105.368 126.391 104.712 C 127.345 104.056 129.218 102.907 130.553 102.159 C 131.888 101.411 133.762 100.432 134.715 99.983 C 135.669 99.534 137.62 98.713 139.05 98.16 C 140.48 97.608 143.211 96.681 145.118 96.102 C 147.025 95.522 150.606 94.648 153.075 94.161 C 155.544 93.673 159.444 93.021 161.745 92.712 L 165.926 92.15 L 452.633 92.042 L 739.339 91.931 L 739.339 92.621 C 739.339 93 738.879 95.459 738.318 98.085 C 737.755 100.711 736.816 105.201 736.23 108.062 C 735.643 110.923 734.789 115.059 734.329 117.252 C 733.87 119.446 733 123.659 732.396 126.615 C 731.793 129.572 730.864 134.098 730.333 136.672 C 729.802 139.247 728.941 143.461 728.421 146.035 C 727.901 148.611 727.035 152.824 726.498 155.399 C 725.959 157.974 725.127 162.032 724.645 164.416 C 724.163 166.8 723.292 171.091 722.709 173.952 C 722.125 176.813 721.188 181.339 720.626 184.009 C 720.063 186.679 719.208 190.815 718.724 193.199 C 718.238 195.583 717.367 199.874 716.786 202.735 C 716.204 205.596 715.269 210.122 714.707 212.793 C 714.145 215.463 713.308 219.52 712.846 221.809 C 712.385 224.097 711.516 228.389 710.916 231.345 C 710.315 234.301 709.442 238.593 708.972 240.883 C 708.502 243.171 707.665 247.229 707.111 249.898 C 706.555 252.569 705.606 257.173 705.003 260.129 C 704.397 263.086 703.532 267.298 703.08 269.493 C 702.626 271.685 701.779 275.821 701.195 278.681 C 700.612 281.544 699.684 286.068 699.132 288.739 C 698.581 291.409 697.717 295.623 697.211 298.103 C 696.707 300.582 695.828 304.874 695.261 307.639 C 694.692 310.404 693.764 314.93 693.198 317.695 C 692.632 320.461 691.784 324.597 691.313 326.886 C 690.842 329.174 689.982 333.388 689.401 336.249 C 688.82 339.11 687.874 343.619 687.3 346.268 L 686.256 351.085 L 685.012 354.417 C 684.328 356.25 683.299 358.686 682.725 359.831 C 682.153 360.974 680.986 362.994 680.133 364.318 C 679.279 365.641 678.089 367.336 677.489 368.085 C 676.889 368.834 675.082 370.768 673.472 372.384 L 670.549 375.319 L 667.734 377.319 C 666.186 378.419 664.518 379.538 664.029 379.805 C 663.539 380.072 661.674 381.025 659.884 381.92 C 658.095 382.817 655.566 383.957 654.267 384.454 C 652.967 384.953 650.392 385.8 648.545 386.337 C 646.698 386.876 644.718 387.406 644.146 387.515 C 643.573 387.625 641.588 388.035 639.732 388.429 C 637.877 388.822 634.132 389.409 631.41 389.733 L 626.46 390.322 Z M 612.998 381.599 L 617.652 381.045 C 620.211 380.741 623.732 380.189 625.476 379.819 C 627.22 379.449 629.087 379.064 629.625 378.96 C 630.163 378.858 632.025 378.359 633.761 377.853 C 635.497 377.348 637.918 376.552 639.14 376.082 C 640.362 375.615 642.739 374.543 644.421 373.7 C 646.104 372.859 647.857 371.963 648.318 371.712 C 648.778 371.461 650.346 370.409 651.801 369.375 L 654.447 367.494 L 657.195 364.735 C 658.709 363.216 660.408 361.398 660.972 360.694 C 661.536 359.989 662.655 358.396 663.458 357.152 C 664.26 355.907 665.357 354.008 665.894 352.934 C 666.434 351.857 667.401 349.567 668.044 347.844 L 669.214 344.711 L 670.195 340.183 C 670.735 337.692 671.625 333.453 672.171 330.764 C 672.717 328.074 673.525 324.112 673.968 321.961 C 674.411 319.809 675.208 315.921 675.74 313.321 C 676.272 310.721 677.145 306.466 677.68 303.867 C 678.213 301.267 679.039 297.232 679.513 294.902 C 679.989 292.57 680.801 288.609 681.319 286.098 C 681.838 283.587 682.71 279.334 683.259 276.643 C 683.808 273.954 684.604 270.065 685.031 268.005 C 685.456 265.941 686.269 261.981 686.839 259.201 C 687.405 256.422 688.298 252.094 688.82 249.583 C 689.341 247.074 690.128 243.259 690.57 241.108 C 691.012 238.955 691.832 234.92 692.398 232.141 C 692.962 229.362 693.779 225.327 694.212 223.176 C 694.646 221.024 695.433 217.21 695.961 214.7 C 696.49 212.189 697.369 207.934 697.916 205.244 C 698.462 202.554 699.281 198.52 699.738 196.279 C 700.193 194.038 700.997 190.149 701.526 187.639 C 702.054 185.129 702.935 180.874 703.484 178.184 C 704.032 175.495 704.851 171.46 705.305 169.219 C 705.758 166.978 706.54 163.163 707.047 160.742 C 707.551 158.321 708.366 154.361 708.854 151.939 C 709.343 149.519 710.153 145.557 710.652 143.136 C 711.151 140.716 712.024 136.461 712.591 133.682 C 713.159 130.902 713.977 126.942 714.409 124.879 C 714.841 122.817 715.644 118.929 716.196 116.239 C 716.747 113.55 717.63 109.328 718.159 106.86 C 718.686 104.391 719.119 102.079 719.119 101.723 L 719.119 101.074 L 449.579 101.179 L 180.039 101.28 L 176.108 101.808 C 173.945 102.099 170.278 102.712 167.957 103.171 C 165.636 103.629 162.269 104.45 160.476 104.995 C 158.684 105.54 156.116 106.411 154.772 106.93 C 153.427 107.45 151.593 108.222 150.696 108.644 C 149.8 109.066 148.039 109.987 146.784 110.69 C 145.528 111.393 143.768 112.473 142.871 113.09 C 141.975 113.707 140.287 114.989 139.122 115.939 C 137.956 116.889 136.106 118.592 135.008 119.724 C 133.911 120.856 132.254 122.777 131.327 123.992 L 129.639 126.203 L 127.783 129.697 C 126.762 131.621 125.574 134.146 125.145 135.313 C 124.714 136.477 123.879 139.412 123.289 141.832 C 122.698 144.253 121.754 148.507 121.19 151.287 C 120.625 154.066 119.746 158.321 119.234 160.742 C 118.723 163.163 117.919 167.05 117.448 169.382 C 116.977 171.712 116.155 175.747 115.621 178.347 C 115.088 180.947 114.211 185.201 113.671 187.803 C 113.132 190.402 112.329 194.29 111.886 196.441 C 111.443 198.593 110.782 201.822 110.418 203.615 C 110.052 205.407 109.103 210.101 108.309 214.046 C 107.516 217.992 106.272 224.08 105.543 227.577 C 104.815 231.074 103.766 236.135 103.212 238.825 C 102.658 241.515 102.011 244.742 101.774 245.997 C 101.539 247.252 100.74 251.14 99.999 254.637 C 99.26 258.133 98.449 262.095 98.197 263.439 C 97.945 264.785 97.138 268.746 96.404 272.242 C 95.669 275.738 94.859 279.7 94.605 281.045 C 94.349 282.39 93.544 286.351 92.814 289.848 C 92.083 293.344 91.283 297.306 91.036 298.65 C 90.79 299.995 90.225 302.783 89.783 304.845 C 89.34 306.906 88.594 310.5 88.123 312.832 C 87.653 315.163 86.821 319.272 86.274 321.961 C 85.726 324.651 84.864 328.832 84.359 331.253 C 83.853 333.672 83.044 337.634 82.558 340.056 C 82.072 342.476 81.241 346.584 80.711 349.184 C 80.179 351.784 79.323 355.966 78.808 358.475 C 78.294 360.986 77.485 364.947 77.013 367.278 C 76.539 369.609 75.723 373.537 75.198 376.005 C 74.673 378.475 74.243 380.787 74.243 381.143 L 74.243 381.792 L 343.621 381.695 Z M 113.734 284.057 L 113.734 283.494 C 113.734 283.183 114.136 280.96 114.627 278.552 C 115.119 276.144 115.655 273.393 115.821 272.439 C 115.985 271.486 116.504 268.833 116.974 266.545 C 117.443 264.256 118.32 259.809 118.919 256.661 C 119.519 253.514 120.378 248.988 120.829 246.604 C 121.281 244.22 122.13 239.617 122.716 236.373 C 123.303 233.131 124.254 227.514 124.832 223.889 C 125.408 220.266 126.264 214.882 126.735 211.925 C 127.206 208.969 128.07 203.585 128.655 199.961 C 129.24 196.337 129.873 192.358 130.062 191.118 C 130.25 189.878 130.649 187.499 130.949 185.83 L 131.492 182.795 L 148.487 182.795 L 148.277 183.345 C 148.16 183.647 147.751 185.676 147.368 187.853 C 146.984 190.03 146.432 192.943 146.141 194.325 C 145.85 195.709 145.459 197.933 145.273 199.268 C 145.086 200.603 144.538 203.802 144.053 206.376 C 143.569 208.952 142.871 212.541 142.503 214.353 C 142.135 216.164 141.605 218.968 141.324 220.582 C 141.044 222.196 140.847 223.543 140.886 223.577 C 140.926 223.609 145.698 223.75 151.491 223.887 L 162.023 224.137 L 174.599 223.883 L 187.174 223.628 L 187.752 219.771 C 188.07 217.649 188.796 213.104 189.366 209.672 C 189.936 206.238 190.78 201.323 191.242 198.747 C 191.704 196.172 192.39 192.272 192.769 190.078 C 193.147 187.885 193.561 185.348 193.688 184.443 L 193.921 182.795 L 211.054 182.795 L 210.47 185.309 C 210.149 186.693 209.402 190.477 208.81 193.719 C 208.218 196.961 207.34 201.799 206.858 204.469 C 206.376 207.14 205.509 211.9 204.929 215.046 C 204.349 218.194 203.417 223.187 202.858 226.144 C 202.299 229.1 201.452 233.781 200.978 236.548 C 200.502 239.313 199.636 244.462 199.052 247.991 C 198.468 251.52 197.532 257.06 196.974 260.302 C 196.415 263.544 195.642 268.071 195.255 270.359 C 194.868 272.647 194.387 275.691 194.189 277.122 C 193.989 278.552 193.659 280.698 193.452 281.89 L 193.078 284.057 L 176.157 284.057 L 176.153 283.624 C 176.151 283.385 176.701 280.147 177.374 276.428 C 178.048 272.708 178.974 267.715 179.432 265.331 C 179.889 262.947 180.751 258.343 181.346 255.101 C 181.943 251.858 182.893 246.708 183.458 243.656 C 184.023 240.604 184.662 237.207 184.877 236.105 L 185.271 234.103 L 185.019 233.851 L 184.767 233.6 L 139.454 233.6 L 139.259 233.794 C 139.153 233.901 138.688 236.085 138.227 238.65 C 137.767 241.213 136.989 245.651 136.5 248.512 C 136.011 251.372 135.129 256.6 134.541 260.129 C 133.954 263.657 133.095 268.808 132.634 271.573 C 132.173 274.338 131.523 278.279 131.191 280.33 L 130.586 284.057 Z M 230.527 316.309 L 230.716 315.528 C 230.821 315.1 231.369 312.407 231.937 309.546 C 232.504 306.685 233.437 301.847 234.011 298.796 C 234.585 295.744 235.541 290.595 236.135 287.351 C 236.729 284.109 237.591 279.428 238.048 276.949 C 238.506 274.469 239.353 269.865 239.932 266.718 C 240.511 263.571 241.448 258.264 242.015 254.927 C 242.583 251.589 243.44 246.517 243.92 243.656 C 244.4 240.795 245.261 235.646 245.831 232.213 C 246.401 228.779 247.369 222.811 247.983 218.948 L 249.097 211.925 L 261.813 211.925 L 261.799 212.358 C 261.791 212.598 261.499 214.163 261.148 215.838 L 260.512 218.885 L 261.423 218.288 C 261.923 217.962 262.546 217.481 262.805 217.222 C 263.065 216.963 264.094 216.23 265.091 215.592 C 266.087 214.954 267.951 213.947 269.231 213.356 L 271.56 212.277 L 274.24 211.594 L 276.919 210.909 L 280.204 210.532 L 283.487 210.155 L 286.434 210.371 L 289.382 210.587 L 292.33 211.292 L 295.278 211.999 L 300.632 214.765 L 302.894 217.164 L 305.157 219.563 L 306.328 221.9 L 307.5 224.236 L 308.223 227.357 L 308.947 230.479 L 309.176 233.6 L 309.406 236.721 L 309.009 240.398 C 308.79 242.422 308.298 245.699 307.916 247.681 L 307.221 251.285 L 305.877 255.447 C 305.137 257.736 303.869 261.169 303.056 263.076 C 302.244 264.983 301.138 267.197 300.597 267.994 C 300.056 268.792 299.613 269.531 299.613 269.638 C 299.613 269.744 298.876 270.808 297.974 272.002 C 297.074 273.197 295.318 275.193 294.073 276.435 L 291.81 278.698 L 289.382 280.279 C 288.047 281.149 286.019 282.288 284.874 282.811 L 282.794 283.759 L 278.917 284.763 L 275.041 285.766 L 271.461 285.986 L 267.882 286.205 L 265.061 285.84 L 262.241 285.474 L 259.874 284.527 L 257.508 283.579 L 255.585 281.643 L 253.663 279.705 L 252.797 278.067 C 252.32 277.165 251.838 276.428 251.726 276.428 C 251.613 276.428 251.334 277.793 251.105 279.462 C 250.875 281.131 250.306 284.915 249.84 287.872 C 249.374 290.828 248.534 296.134 247.973 299.663 C 247.411 303.191 246.707 307.67 246.407 309.618 C 246.106 311.564 245.86 313.618 245.86 314.184 C 245.86 314.749 245.766 315.458 245.649 315.76 L 245.439 316.309 Z M 335.879 285.396 C 334.558 285.226 332.198 284.778 330.635 284.401 L 327.792 283.713 L 325.753 282.785 C 324.632 282.275 322.934 281.276 321.981 280.566 C 321.027 279.857 319.603 278.596 318.817 277.765 C 318.031 276.934 316.987 275.552 316.499 274.694 C 316.011 273.836 315.293 272.275 314.906 271.226 C 314.519 270.178 313.964 268.304 313.675 267.065 L 313.148 264.81 L 313.143 259.65 L 313.137 254.49 L 313.69 250.98 C 313.995 249.05 314.612 245.911 315.063 244.004 C 315.513 242.096 316.282 239.365 316.772 237.934 C 317.261 236.504 317.99 234.553 318.39 233.6 C 318.791 232.646 319.672 230.774 320.348 229.438 C 321.025 228.103 322.211 226.075 322.985 224.93 C 323.758 223.785 325.176 222.067 326.134 221.109 C 327.091 220.152 328.577 218.8 329.437 218.104 C 330.295 217.409 332.011 216.265 333.251 215.562 C 334.49 214.859 336.675 213.815 338.105 213.244 L 340.707 212.205 L 344.868 211.405 L 349.03 210.606 L 352.498 210.381 L 355.965 210.155 L 359.699 210.512 L 363.431 210.869 L 366.461 211.598 L 369.49 212.328 L 371.224 213.25 C 372.178 213.757 373.515 214.566 374.197 215.047 C 374.878 215.528 375.907 216.466 376.483 217.131 C 377.059 217.797 377.94 219.047 378.438 219.909 L 379.347 221.477 L 379.897 223.845 L 380.446 226.214 L 380.435 229.387 L 380.424 232.559 L 379.918 236.331 C 379.64 238.405 379.15 241.214 378.829 242.573 L 378.247 245.043 L 358.957 244.92 L 339.666 244.795 L 329.23 245.283 L 328.634 249.152 L 328.04 253.019 L 328.045 257.356 L 328.049 261.692 L 328.719 264.035 L 329.389 266.377 L 330.458 268.246 L 331.527 270.113 L 334.267 272.589 L 335.926 273.41 C 336.839 273.863 338.522 274.531 339.666 274.896 L 341.747 275.56 L 347.816 275.55 L 353.885 275.537 L 357.703 274.798 L 361.521 274.057 L 365.159 272.859 C 367.159 272.2 369.38 271.378 370.093 271.034 L 371.389 270.409 L 371.575 270.595 L 371.763 270.781 L 370.916 274.906 C 370.45 277.174 369.974 279.732 369.858 280.591 L 369.646 282.155 L 365.407 283.088 C 363.075 283.6 359.451 284.262 357.352 284.557 C 355.255 284.853 351.822 285.252 349.723 285.443 L 345.909 285.791 L 342.094 285.747 C 339.996 285.724 337.199 285.565 335.879 285.396 Z M 509.422 285.621 L 504.74 285.755 L 502.698 285.433 C 501.574 285.255 499.587 284.807 498.281 284.438 L 495.906 283.767 L 493.832 282.507 L 491.759 281.247 L 490.591 279.883 C 489.95 279.133 489.001 277.742 488.484 276.794 L 487.546 275.069 L 487.039 272.424 L 486.534 269.778 L 486.534 263.423 L 487.064 260.394 L 487.594 257.366 L 488.748 254.673 C 489.382 253.191 490.429 251.199 491.073 250.246 C 491.717 249.292 493.182 247.575 494.33 246.43 L 496.415 244.348 L 499.063 242.703 C 500.52 241.796 501.856 241.056 502.032 241.056 C 502.209 241.056 503.003 240.742 503.797 240.358 C 504.591 239.975 507.078 239.157 509.324 238.541 L 513.407 237.421 L 525.885 237.377 L 538.363 237.332 L 538.961 234.425 L 539.558 231.519 L 539.575 228.87 L 539.591 226.222 L 538.463 224.543 L 537.336 222.863 L 535.323 221.869 L 533.311 220.876 L 527.279 219.818 L 522.597 220.012 L 517.916 220.204 L 512.715 221.09 C 509.853 221.578 506.045 222.37 504.253 222.853 C 502.461 223.335 500.944 223.68 500.883 223.618 C 500.821 223.556 501.215 221.798 501.76 219.71 C 502.303 217.621 502.934 215.016 503.161 213.92 L 503.574 211.925 L 509.246 211.903 L 513.408 211.399 C 515.697 211.12 520.169 210.732 523.349 210.536 L 529.128 210.178 L 533.615 210.519 L 538.101 210.86 L 544.619 212.31 L 546.806 213.419 L 548.991 214.526 L 550.324 215.805 L 551.655 217.083 L 552.638 219.091 L 553.619 221.098 L 553.589 225.442 L 553.557 229.785 L 552.625 234.813 C 552.114 237.579 551.247 242.338 550.7 245.39 C 550.152 248.443 549.307 253.28 548.821 256.141 C 548.334 259.001 547.527 264.229 547.027 267.758 L 546.119 274.174 L 545.925 279.116 L 545.73 284.057 L 533.001 284.057 L 533.007 281.89 C 533.011 280.698 533.235 278.165 533.504 276.26 C 533.774 274.356 533.95 272.753 533.893 272.697 C 533.837 272.64 533.169 273.418 532.409 274.425 C 531.649 275.431 530.262 277.013 529.327 277.941 C 528.392 278.868 526.767 280.2 525.718 280.901 C 524.669 281.602 522.953 282.581 521.904 283.076 L 519.996 283.977 L 517.048 284.732 L 514.1 285.486 L 509.419 285.621 Z M 452.381 285.749 C 450.281 285.726 447.65 285.573 446.533 285.41 C 445.416 285.247 443.309 284.782 441.852 284.378 L 439.201 283.641 L 437.182 282.575 L 435.165 281.507 L 433.256 279.63 L 431.349 277.752 L 430.15 275.877 L 428.949 274.002 L 427.911 271.408 L 426.872 268.814 L 426.218 263.77 L 426.214 259.436 L 426.211 255.101 L 426.535 251.806 L 426.86 248.512 L 427.755 244.87 C 428.246 242.867 429.219 239.59 429.915 237.587 L 431.182 233.947 L 432.834 230.583 C 433.743 228.732 435.153 226.242 435.968 225.047 L 437.452 222.875 L 440.107 220.261 C 441.569 218.823 443.205 217.335 443.745 216.953 C 444.285 216.572 445.519 215.776 446.49 215.183 C 447.461 214.591 449.26 213.704 450.488 213.213 L 452.722 212.32 L 456.189 211.591 L 459.658 210.863 L 464.339 210.503 L 469.021 210.144 L 475.66 210.525 C 479.311 210.736 483.585 211.054 485.158 211.233 C 486.73 211.412 488.085 211.627 488.168 211.711 C 488.253 211.794 488.089 213.164 487.804 214.756 C 487.52 216.346 487.09 218.935 486.848 220.508 C 486.606 222.082 486.364 223.37 486.311 223.37 C 486.256 223.37 485.387 223.061 484.379 222.685 L 482.546 222.001 L 478.037 221.1 L 473.529 220.197 L 469.714 220.006 L 465.9 219.814 L 463.299 220.22 C 461.869 220.442 459.689 220.935 458.456 221.315 L 456.214 222.006 L 454.467 223.089 L 452.722 224.171 L 449.424 227.589 L 448.082 229.9 C 447.344 231.172 446.228 233.383 445.603 234.813 C 444.977 236.244 444.342 237.882 444.189 238.455 C 444.038 239.027 443.589 240.587 443.192 241.922 L 442.472 244.35 L 441.79 248.859 L 441.109 253.367 L 441.106 257.088 L 441.102 260.808 L 441.662 263.676 L 442.224 266.545 L 443.4 268.688 L 444.578 270.832 L 446.352 272.385 L 448.126 273.936 L 452.72 275.53 L 456.763 275.668 L 460.805 275.805 L 465.561 274.884 L 470.316 273.963 L 473.655 272.723 C 475.492 272.041 477.193 271.325 477.437 271.131 C 477.68 270.939 477.935 270.842 478.005 270.917 C 478.074 270.992 477.976 271.989 477.788 273.134 C 477.599 274.278 477.157 276.68 476.807 278.47 C 476.456 280.261 476.044 281.835 475.889 281.968 C 475.734 282.1 474.411 282.547 472.949 282.961 C 471.486 283.373 469.067 283.948 467.574 284.237 C 466.079 284.528 462.907 284.995 460.524 285.278 L 456.192 285.791 L 452.375 285.749 Z M 382.495 284.057 L 382.495 283.752 C 382.495 283.585 382.715 282.376 382.986 281.066 C 383.255 279.754 383.954 276.264 384.538 273.307 C 385.121 270.351 386.064 265.512 386.63 262.557 C 387.198 259.6 388.058 255.074 388.543 252.499 C 389.028 249.925 389.888 245.009 390.454 241.576 C 391.02 238.143 391.88 232.837 392.364 229.785 C 392.848 226.733 393.635 221.843 394.112 218.916 C 394.588 215.99 394.979 213.221 394.979 212.761 L 394.979 211.925 L 408.204 211.925 L 408.019 212.533 C 407.919 212.865 407.508 215.012 407.11 217.301 C 406.712 219.589 406.25 222.086 406.084 222.85 L 405.783 224.236 L 406.279 223.543 C 406.552 223.162 407.578 221.757 408.56 220.422 C 409.541 219.087 411.105 217.248 412.036 216.336 C 412.965 215.425 414.57 214.139 415.601 213.478 C 416.633 212.818 418.306 211.974 419.32 211.602 C 420.333 211.229 422.176 210.745 423.416 210.526 L 425.67 210.127 L 427.404 210.341 C 428.357 210.46 430.269 210.9 431.652 211.32 C 433.035 211.74 434.166 212.183 434.166 212.304 C 434.166 212.425 433.775 214.439 433.299 216.78 C 432.822 219.122 432.432 221.406 432.432 221.856 C 432.432 222.307 432.339 222.675 432.225 222.675 C 432.111 222.675 431.136 222.411 430.058 222.089 L 428.097 221.504 L 424.11 221.483 L 420.121 221.461 L 417.512 222.708 L 414.903 223.954 L 412.787 225.912 L 410.672 227.872 L 409.091 230.216 C 408.221 231.505 406.953 233.769 406.273 235.248 C 405.593 236.727 405.036 238.151 405.036 238.413 C 405.036 238.674 404.804 239.546 404.519 240.352 C 404.235 241.157 403.394 244.883 402.648 248.631 C 401.904 252.38 400.816 258.412 400.23 262.037 C 399.645 265.66 398.846 270.687 398.456 273.208 C 398.066 275.729 397.648 279.202 397.525 280.924 L 397.303 284.057 Z M 558.087 284.057 L 558.727 280.85 C 559.078 279.086 559.832 275.301 560.4 272.441 C 560.968 269.58 561.894 264.82 562.458 261.863 C 563.022 258.907 563.877 254.381 564.358 251.807 C 564.84 249.232 565.702 244.316 566.273 240.883 C 566.845 237.449 567.777 231.753 568.346 228.225 C 568.913 224.696 569.699 219.685 570.09 217.088 C 570.481 214.492 570.801 212.268 570.801 212.147 L 570.801 211.925 L 583.632 211.925 L 583.617 212.706 C 583.609 213.135 583.157 215.749 582.614 218.515 C 582.071 221.28 581.672 223.593 581.728 223.653 C 581.784 223.714 582.43 222.856 583.163 221.746 L 584.497 219.728 L 586.98 217.128 L 589.464 214.527 L 591.373 213.375 L 593.283 212.223 L 595.827 211.329 L 598.371 210.433 L 601.492 210.426 L 604.613 210.417 L 606.347 210.964 C 607.301 211.264 608.491 211.67 608.992 211.866 L 609.904 212.223 L 609.093 216.149 C 608.647 218.309 608.276 220.573 608.269 221.182 L 608.253 222.288 L 607.966 222.466 L 607.678 222.644 L 605.972 222.096 L 604.265 221.549 L 599.93 221.518 L 595.596 221.488 L 593.604 222.453 C 592.508 222.984 590.683 224.115 589.549 224.969 L 587.486 226.52 L 585.601 229.024 L 583.715 231.529 L 582.286 234.552 C 581.501 236.214 580.856 237.772 580.852 238.014 C 580.849 238.256 580.601 239.157 580.3 240.015 C 579.999 240.874 579.286 243.76 578.713 246.431 C 578.142 249.101 577.466 252.612 577.21 254.233 C 576.955 255.855 576.348 259.6 575.86 262.557 C 575.372 265.512 574.581 270.518 574.1 273.677 L 573.228 279.423 L 573.228 284.057 Z M 272.978 276.04 L 278.864 274.038 L 280.135 273.089 C 280.834 272.568 281.953 271.671 282.619 271.097 C 283.287 270.525 284.41 269.25 285.114 268.268 C 285.818 267.285 287.045 265.247 287.841 263.738 L 289.289 260.996 L 290.47 257.608 C 291.12 255.745 292.052 252.468 292.542 250.326 L 293.432 246.431 L 293.61 239.842 L 293.788 233.252 L 293.207 231.023 C 292.888 229.797 292.261 228.074 291.814 227.193 L 291.004 225.592 L 289.499 224.08 L 287.995 222.568 L 286.202 221.742 L 284.408 220.916 L 281.867 220.375 L 279.325 219.833 L 273.083 220.199 L 270.655 220.951 L 268.228 221.702 L 266.368 222.758 C 265.344 223.338 263.612 224.558 262.518 225.467 L 260.53 227.121 L 259.623 231.921 C 259.124 234.56 258.234 239.452 257.647 242.79 C 257.06 246.127 256.178 250.965 255.687 253.54 L 254.794 258.222 L 254.616 261.21 L 254.439 264.199 L 254.881 266.065 C 255.124 267.092 255.671 268.712 256.098 269.666 L 256.873 271.4 L 258.216 272.681 L 259.558 273.964 L 261.481 274.842 L 263.403 275.719 L 265.296 276.053 L 267.188 276.388 Z M 207.98 284.057 L 208.189 283.277 C 208.305 282.848 208.702 281.015 209.073 279.202 C 209.443 277.39 210.218 273.489 210.796 270.532 C 211.374 267.576 212.243 263.051 212.727 260.475 C 213.212 257.9 214.062 253.375 214.617 250.419 C 215.172 247.462 216.026 242.547 216.517 239.494 C 217.008 236.444 217.882 231.059 218.459 227.53 C 219.037 224.003 219.793 219.087 220.137 216.607 L 220.767 212.098 L 235.853 211.912 L 235.664 212.217 C 235.561 212.384 234.921 215.312 234.242 218.725 C 233.563 222.138 232.611 227.037 232.128 229.612 C 231.644 232.186 230.796 236.634 230.244 239.494 C 229.692 242.357 228.856 246.96 228.385 249.725 C 227.914 252.491 227.051 257.641 226.467 261.169 C 225.882 264.698 224.935 270.499 224.361 274.062 C 223.789 277.625 223.319 281.085 223.319 281.751 C 223.319 282.415 223.225 283.206 223.108 283.509 L 222.898 284.057 Z M 516.528 275.779 L 519.34 274.89 L 522.153 274 L 523.431 273.134 C 524.134 272.657 524.835 272.266 524.988 272.266 C 525.142 272.266 526.205 271.339 527.348 270.207 L 529.427 268.146 L 530.693 266.019 C 531.39 264.85 531.96 263.799 531.96 263.682 C 531.96 263.566 532.421 262.29 532.984 260.846 C 533.547 259.403 534.405 256.74 534.891 254.927 C 535.378 253.115 535.983 250.408 536.237 248.912 L 536.698 246.19 L 536.15 245.964 L 535.602 245.737 L 518.262 245.737 L 515.487 246.396 L 512.713 247.056 L 510.481 248.13 L 508.249 249.205 L 506.147 251.293 L 504.044 253.38 L 502.946 255.647 C 502.342 256.893 501.583 258.824 501.26 259.936 L 500.672 261.958 L 500.819 265.292 L 500.964 268.625 L 501.707 270.053 C 502.116 270.838 502.836 271.938 503.307 272.499 L 504.165 273.518 L 505.734 274.325 C 506.598 274.769 508.132 275.343 509.142 275.6 L 510.979 276.069 L 513.754 275.923 Z M 366.082 236.894 L 366.448 233.512 L 366.815 230.131 L 366.494 228.099 L 366.174 226.067 L 365.69 225.151 C 365.423 224.648 364.727 223.721 364.144 223.092 L 363.082 221.947 L 361.146 221.061 L 359.211 220.175 L 356.549 219.833 L 353.885 219.49 L 350.416 219.713 C 348.509 219.834 346.325 220.094 345.561 220.29 C 344.799 220.486 343.16 221.132 341.921 221.725 L 339.666 222.802 L 337.372 225.085 L 335.079 227.366 L 334.034 229.443 C 333.461 230.585 332.581 232.659 332.081 234.053 C 331.58 235.448 331.17 236.658 331.17 236.741 C 331.17 236.826 339.025 236.894 348.625 236.894 Z M 228.001 199.425 L 226.548 198.766 L 225.094 198.106 L 224.34 196.63 L 223.588 195.153 L 223.74 192.182 L 223.893 189.211 L 224.702 187.304 L 225.512 185.397 L 226.542 184.292 L 227.572 183.188 L 229.347 182.394 L 231.122 181.599 L 236.336 181.599 L 237.544 182.347 L 238.751 183.094 L 239.445 184.245 L 240.138 185.397 L 240.11 188.343 L 240.083 191.291 L 239.302 193.293 L 238.523 195.296 L 237.041 196.798 L 235.56 198.301 L 233.885 198.871 L 232.211 199.441 L 230.107 199.434 Z M 621.189 285.423 C 620.006 285.27 618.055 284.874 616.854 284.545 C 615.652 284.216 613.733 283.481 612.588 282.914 L 610.507 281.88 L 608.983 280.631 L 607.459 279.383 L 606.123 277.575 L 604.788 275.769 L 604.056 273.93 C 603.653 272.92 603.116 271.391 602.859 270.532 L 602.396 268.972 L 602.002 264.637 L 601.61 260.302 L 602.133 254.916 L 602.656 249.528 L 603.717 245.378 C 604.302 243.096 605.192 240.137 605.698 238.801 C 606.203 237.466 607.465 234.609 608.501 232.451 L 610.387 228.529 L 611.991 226.233 C 612.875 224.97 614.54 222.925 615.693 221.689 L 617.79 219.44 L 620.217 217.643 L 622.644 215.847 L 625.94 214.24 L 629.234 212.633 L 632.702 211.757 L 636.17 210.88 L 639.984 210.524 L 643.799 210.169 L 648.308 210.52 L 652.816 210.871 L 656.11 211.698 C 657.921 212.153 659.668 212.638 659.99 212.775 L 660.575 213.024 L 660.761 211.868 C 660.862 211.232 661.41 207.902 661.98 204.469 C 662.55 201.036 663.486 195.262 664.06 191.639 C 664.633 188.014 665.202 184.074 665.322 182.882 L 665.541 180.714 L 680.385 180.714 L 680.385 180.975 C 680.386 181.117 680.009 183.03 679.547 185.222 C 679.086 187.416 678.23 191.708 677.641 194.76 C 677.054 197.811 676.17 202.493 675.677 205.163 C 675.184 207.833 674.33 212.437 673.782 215.394 C 673.233 218.35 672.314 223.343 671.741 226.491 C 671.167 229.637 670.309 234.476 669.833 237.241 C 669.359 240.006 668.636 244.142 668.229 246.431 C 667.82 248.72 667.109 253.088 666.649 256.141 C 666.189 259.193 665.346 265.668 664.776 270.532 L 663.74 279.376 L 663.74 284.057 L 650.134 284.057 L 650.364 281.717 C 650.49 280.429 650.729 278.596 650.897 277.642 C 651.066 276.688 651.281 275.127 651.377 274.174 L 651.552 272.439 L 651.351 272.96 C 651.24 273.247 650.302 274.612 649.265 275.995 L 647.379 278.508 L 645.59 280.084 L 643.8 281.66 L 641.718 282.726 C 640.575 283.312 638.857 284.012 637.904 284.282 C 636.95 284.552 634.766 285.001 633.049 285.279 L 629.927 285.786 L 626.633 285.744 C 624.82 285.722 622.371 285.577 621.189 285.423 Z M 635.165 275.767 L 640.679 274.017 L 642.586 272.749 C 643.635 272.052 645.015 270.996 645.654 270.4 C 646.292 269.806 647.302 268.616 647.9 267.758 C 648.498 266.9 649.417 265.292 649.942 264.185 C 650.467 263.079 651.121 261.361 651.396 260.37 C 651.671 259.379 652.207 257.398 652.586 255.967 C 652.966 254.537 653.679 251.26 654.171 248.685 C 654.664 246.111 655.526 241.507 656.087 238.455 C 656.648 235.403 657.434 231.033 657.832 228.744 C 658.23 226.456 658.643 224.155 658.748 223.631 L 658.939 222.679 L 657.958 222.298 C 657.419 222.088 655.495 221.505 653.682 221.003 L 650.388 220.088 L 644.666 220.088 L 638.944 220.091 L 636.218 221.035 L 633.491 221.979 L 631.939 222.934 C 631.084 223.459 629.647 224.603 628.743 225.473 C 627.839 226.345 626.47 227.906 625.701 228.942 C 624.934 229.978 623.816 231.761 623.218 232.906 C 622.62 234.051 621.662 236.044 621.088 237.337 C 620.513 238.629 620.043 239.877 620.039 240.11 C 620.037 240.344 619.643 241.784 619.165 243.31 L 618.296 246.084 L 617.737 250.071 L 617.178 254.06 L 617.138 258.568 L 617.097 263.076 L 617.577 265.331 L 618.06 267.585 L 620.172 271.631 L 621.593 272.795 L 623.015 273.961 L 624.704 274.684 C 625.634 275.082 627.189 275.552 628.161 275.726 L 629.927 276.044 L 632.546 275.907 Z" style="fill: rgb(57, 57, 57);"/>
</svg>