<svg width="750" height="471" viewBox="0 0 750 471" version="1.1" xmlns="http://www.w3.org/2000/svg" xmlns:xlink="http://www.w3.org/1999/xlink">
    <!-- Generator: Sketch 48.2 (47327) - http://www.bohemiancoding.com/sketch -->
    <desc>Created with Sketch.</desc>
    <defs></defs>
    <g id="Page-1" stroke="none" stroke-width="1" fill="none" fill-rule="evenodd">
        <g id="hipercard" fill="#393939" fill-rule="nonzero">
            <path d="M697.115385,0 L52.8846154,0 C23.7240385,0 0,23.1955749 0,51.7065868 L0,419.293413 C0,447.804425 23.7240385,471 52.8846154,471 L697.115385,471 C726.274038,471 750,447.804425 750,419.293413 L750,51.7065868 C750,23.1955749 726.274038,0 697.115385,0 Z M320.513462,379.0125 L45,379.111538 L45,378.448077 C45,378.083654 45.4394231,375.719231 45.9759615,373.193269 C46.5134615,370.668269 47.3480769,366.650962 47.8326923,364.267308 C48.3153846,361.882692 49.1423077,357.831731 49.6682692,355.263462 C50.1951923,352.697115 51.0711538,348.420192 51.6144231,345.760577 C52.1567308,343.101923 53.0067308,338.9 53.5038462,336.425 C54.0009615,333.948077 54.8288462,329.896154 55.3461538,327.421154 C55.8625,324.945192 56.7442308,320.669231 57.3048077,317.918269 C57.8644231,315.167308 58.7153846,310.965385 59.1961538,308.580769 C59.6769231,306.196154 60.4403846,302.520192 60.8932692,300.4125 C61.3451923,298.302885 61.9230769,295.451923 62.175,294.075962 C62.4278846,292.700962 63.2461538,288.649038 63.9932692,285.073077 C64.7403846,281.497115 65.5634615,277.445192 65.825,276.070192 C66.0855769,274.694231 66.9134615,270.642308 67.6653846,267.066346 C68.4163462,263.491346 69.2413462,259.439423 69.4990385,258.063462 C69.7567308,256.688462 70.5865385,252.636538 71.3423077,249.060577 C72.1,245.483654 72.9173077,241.507692 73.1576923,240.224038 C73.4,238.940385 74.0615385,235.639423 74.6288462,232.888462 C75.1951923,230.1375 76.2682692,224.960577 77.0125,221.384615 C77.7576923,217.807692 79.0307692,211.580769 79.8413462,207.545192 C80.6538462,203.510577 81.6240385,198.709615 81.9980769,196.875962 C82.3711538,195.042308 83.0471154,191.740385 83.5,189.539423 C83.9528846,187.338462 84.7740385,183.3625 85.3259615,180.703846 C85.8778846,178.043269 86.775,173.692308 87.3201923,171.032692 C87.8663462,168.374038 88.7067308,164.247115 89.1884615,161.863462 C89.6701923,159.478846 90.4923077,155.502885 91.0153846,153.026923 C91.5384615,150.550962 92.4384615,146.199038 93.0153846,143.356731 C93.5923077,140.513462 94.5586538,136.1625 95.1625,133.686538 C95.7663462,131.210577 96.6201923,128.209615 97.0605769,127.018269 C97.5,125.825 98.7144231,123.242308 99.7586538,121.275 L101.657692,117.700962 L103.383654,115.439423 C104.331731,114.197115 106.026923,112.232692 107.149038,111.075 C108.271154,109.917308 110.163462,108.175 111.356731,107.203846 C112.548077,106.231731 114.274038,104.920192 115.190385,104.289423 C116.107692,103.658654 117.908654,102.553846 119.192308,101.834615 C120.475962,101.115385 122.277885,100.174038 123.194231,99.7423077 C124.111538,99.3105769 125.9875,98.5211538 127.3625,97.9894231 C128.7375,97.4586538 131.363462,96.5673077 133.197115,96.0105769 C135.030769,95.4528846 138.474038,94.6125 140.848077,94.1442308 C143.222115,93.675 146.972115,93.0480769 149.184615,92.7509615 L153.204808,92.2105769 L428.884615,92.1067308 L704.563462,92 L704.563462,92.6634615 C704.563462,93.0278846 704.121154,95.3923077 703.581731,97.9173077 C703.040385,100.442308 702.1375,104.759615 701.574038,107.510577 C701.009615,110.261538 700.188462,114.238462 699.746154,116.347115 C699.304808,118.456731 698.468269,122.507692 697.8875,125.35 C697.307692,128.193269 696.414423,132.545192 695.903846,135.020192 C695.393269,137.496154 694.565385,141.548077 694.065385,144.023077 C693.565385,146.5 692.732692,150.550962 692.216346,153.026923 C691.698077,155.502885 690.898077,159.404808 690.434615,161.697115 C689.971154,163.989423 689.133654,168.115385 688.573077,170.866346 C688.011538,173.617308 687.110577,177.969231 686.570192,180.536538 C686.028846,183.103846 685.206731,187.080769 684.741346,189.373077 C684.274038,191.665385 683.436538,195.791346 682.877885,198.542308 C682.318269,201.293269 681.419231,205.645192 680.878846,208.213462 C680.338462,210.780769 679.533654,214.681731 679.089423,216.882692 C678.646154,219.082692 677.810577,223.209615 677.233654,226.051923 C676.655769,228.894231 675.816346,233.021154 675.364423,235.223077 C674.9125,237.423077 674.107692,241.325 673.575,243.891346 C673.040385,246.459615 672.127885,250.886538 671.548077,253.728846 C670.965385,256.572115 670.133654,260.622115 669.699038,262.732692 C669.2625,264.840385 668.448077,268.817308 667.886538,271.567308 C667.325962,274.320192 666.433654,278.670192 665.902885,281.238462 C665.373077,283.805769 664.542308,287.857692 664.055769,290.242308 C663.571154,292.625962 662.725962,296.752885 662.180769,299.411538 C661.633654,302.070192 660.741346,306.422115 660.197115,309.080769 C659.652885,311.740385 658.8375,315.717308 658.384615,317.918269 C657.931731,320.118269 657.104808,324.170192 656.546154,326.921154 C655.9875,329.672115 655.077885,334.007692 654.525962,336.554808 L653.522115,341.186538 L652.325962,344.390385 C651.668269,346.152885 650.678846,348.495192 650.126923,349.596154 C649.576923,350.695192 648.454808,352.6375 647.634615,353.910577 C646.813462,355.182692 645.669231,356.8125 645.092308,357.532692 C644.515385,358.252885 642.777885,360.1125 641.229808,361.666346 L638.419231,364.488462 L635.7125,366.411538 C634.224038,367.469231 632.620192,368.545192 632.15,368.801923 C631.678846,369.058654 629.885577,369.975 628.164423,370.835577 C626.444231,371.698077 624.0125,372.794231 622.763462,373.272115 C621.513462,373.751923 619.0375,374.566346 617.261538,375.082692 C615.485577,375.600962 613.581731,376.110577 613.031731,376.215385 C612.480769,376.321154 610.572115,376.715385 608.7875,377.094231 C607.003846,377.472115 603.402885,378.036538 600.785577,378.348077 L596.025962,378.914423 L320.513462,379.0125 Z M583.081731,370.526923 L587.556731,369.994231 C590.017308,369.701923 593.402885,369.171154 595.079808,368.815385 C596.756731,368.459615 598.551923,368.089423 599.069231,367.989423 C599.586538,367.891346 601.376923,367.411538 603.046154,366.925 C604.715385,366.439423 607.043269,365.674038 608.218269,365.222115 C609.393269,364.773077 611.678846,363.742308 613.296154,362.931731 C614.914423,362.123077 616.6,361.261538 617.043269,361.020192 C617.485577,360.778846 618.993269,359.767308 620.392308,358.773077 L622.936538,356.964423 L625.578846,354.311538 C627.034615,352.850962 628.668269,351.102885 629.210577,350.425962 C629.752885,349.748077 630.828846,348.216346 631.600962,347.020192 C632.372115,345.823077 633.426923,343.997115 633.943269,342.964423 C634.4625,341.928846 635.392308,339.726923 636.010577,338.070192 L637.135577,335.057692 L638.078846,330.703846 C638.598077,328.308654 639.453846,324.232692 639.978846,321.647115 C640.503846,319.060577 641.280769,315.250962 641.706731,313.182692 C642.132692,311.113462 642.899038,307.375 643.410577,304.875 C643.922115,302.375 644.761538,298.283654 645.275962,295.784615 C645.788462,293.284615 646.582692,289.404808 647.038462,287.164423 C647.496154,284.922115 648.276923,281.113462 648.775,278.699038 C649.274038,276.284615 650.1125,272.195192 650.640385,269.607692 C651.168269,267.022115 651.933654,263.282692 652.344231,261.301923 C652.752885,259.317308 653.534615,255.509615 654.082692,252.836538 C654.626923,250.164423 655.485577,246.002885 655.9875,243.588462 C656.488462,241.175962 657.245192,237.507692 657.670192,235.439423 C658.095192,233.369231 658.883654,229.489423 659.427885,226.817308 C659.970192,224.145192 660.755769,220.265385 661.172115,218.197115 C661.589423,216.127885 662.346154,212.460577 662.853846,210.047115 C663.3625,207.632692 664.207692,203.541346 664.733654,200.954808 C665.258654,198.368269 666.046154,194.489423 666.485577,192.334615 C666.923077,190.179808 667.696154,186.440385 668.204808,184.026923 C668.7125,181.613462 669.559615,177.522115 670.0875,174.935577 C670.614423,172.35 671.401923,168.470192 671.838462,166.315385 C672.274038,164.160577 673.025962,160.492308 673.513462,158.164423 C673.998077,155.836538 674.781731,152.028846 675.250962,149.7 C675.721154,147.373077 676.5,143.563462 676.979808,141.235577 C677.459615,138.908654 678.299038,134.817308 678.844231,132.145192 C679.390385,129.472115 680.176923,125.664423 680.592308,123.680769 C681.007692,121.698077 681.779808,117.959615 682.310577,115.373077 C682.840385,112.7875 683.689423,108.727885 684.198077,106.354808 C684.704808,103.980769 685.121154,101.757692 685.121154,101.415385 L685.121154,100.791346 L425.948077,100.892308 L166.775,100.989423 L162.995192,101.497115 C160.915385,101.776923 157.389423,102.366346 155.157692,102.807692 C152.925962,103.248077 149.688462,104.0375 147.964423,104.561538 C146.241346,105.085577 143.772115,105.923077 142.479808,106.422115 C141.186538,106.922115 139.423077,107.664423 138.560577,108.070192 C137.699038,108.475962 136.005769,109.361538 134.799038,110.0375 C133.591346,110.713462 131.899038,111.751923 131.036538,112.345192 C130.175,112.938462 128.551923,114.171154 127.431731,115.084615 C126.310577,115.998077 124.531731,117.635577 123.475962,118.724038 C122.421154,119.8125 120.827885,121.659615 119.936538,122.827885 L118.313462,124.953846 L116.528846,128.313462 C115.547115,130.163462 114.404808,132.591346 113.992308,133.713462 C113.577885,134.832692 112.775,137.654808 112.207692,139.981731 C111.639423,142.309615 110.731731,146.4 110.189423,149.073077 C109.646154,151.745192 108.800962,155.836538 108.308654,158.164423 C107.817308,160.492308 107.044231,164.229808 106.591346,166.472115 C106.138462,168.7125 105.348077,172.592308 104.834615,175.092308 C104.322115,177.592308 103.478846,181.682692 102.959615,184.184615 C102.441346,186.683654 101.669231,190.422115 101.243269,192.490385 C100.817308,194.559615 100.181731,197.664423 99.8317308,199.388462 C99.4798077,201.111538 98.5673077,205.625 97.8038462,209.418269 C97.0413462,213.2125 95.8451923,219.066346 95.1442308,222.428846 C94.4442308,225.791346 93.4355769,230.657692 92.9028846,233.244231 C92.3701923,235.830769 91.7480769,238.933654 91.5201923,240.140385 C91.2942308,241.347115 90.5259615,245.085577 89.8134615,248.448077 C89.1028846,251.809615 88.3230769,255.619231 88.0807692,256.911538 C87.8384615,258.205769 87.0625,262.014423 86.3567308,265.375962 C85.65,268.7375 84.8711538,272.547115 84.6269231,273.840385 C84.3807692,275.133654 83.6067308,278.942308 82.9048077,282.304808 C82.2019231,285.666346 81.4326923,289.475962 81.1951923,290.768269 C80.9586538,292.061538 80.4153846,294.742308 79.9903846,296.725 C79.5644231,298.706731 78.8471154,302.1625 78.3942308,304.404808 C77.9423077,306.646154 77.1423077,310.597115 76.6163462,313.182692 C76.0894231,315.769231 75.2605769,319.789423 74.775,322.117308 C74.2884615,324.443269 73.5105769,328.252885 73.0432692,330.581731 C72.5759615,332.908654 71.7769231,336.858654 71.2673077,339.358654 C70.7557692,341.858654 69.9326923,345.879808 69.4375,348.292308 C68.9432692,350.706731 68.1653846,354.515385 67.7115385,356.756731 C67.2557692,358.998077 66.4711538,362.775 65.9663462,365.148077 C65.4615385,367.523077 65.0480769,369.746154 65.0480769,370.088462 L65.0480769,370.7125 L324.065385,370.619231 L583.081731,370.526923 Z M103.020192,276.736538 L103.020192,276.195192 C103.020192,275.896154 103.406731,273.758654 103.878846,271.443269 C104.351923,269.127885 104.867308,266.482692 105.026923,265.565385 C105.184615,264.649038 105.683654,262.098077 106.135577,259.898077 C106.586538,257.697115 107.429808,253.421154 108.005769,250.394231 C108.582692,247.368269 109.408654,243.016346 109.842308,240.724038 C110.276923,238.431731 111.093269,234.005769 111.656731,230.886538 C112.221154,227.769231 113.135577,222.368269 113.691346,218.882692 C114.245192,215.399038 115.068269,210.222115 115.521154,207.378846 C115.974038,204.536538 116.804808,199.359615 117.367308,195.875 C117.929808,192.390385 118.538462,188.564423 118.720192,187.372115 C118.900962,186.179808 119.284615,183.892308 119.573077,182.2875 L120.095192,179.369231 L136.436538,179.369231 L136.234615,179.898077 C136.122115,180.188462 135.728846,182.139423 135.360577,184.232692 C134.991346,186.325962 134.460577,189.126923 134.180769,190.455769 C133.900962,191.786538 133.525,193.925 133.346154,195.208654 C133.166346,196.492308 132.639423,199.568269 132.173077,202.043269 C131.707692,204.520192 131.036538,207.971154 130.682692,209.713462 C130.328846,211.454808 129.819231,214.150962 129.549038,215.702885 C129.279808,217.254808 129.090385,218.55 129.127885,218.582692 C129.166346,218.613462 133.754808,218.749038 139.325,218.880769 L149.451923,219.121154 L161.544231,218.876923 L173.635577,218.631731 L174.191346,214.923077 C174.497115,212.882692 175.195192,208.5125 175.743269,205.2125 C176.291346,201.910577 177.102885,197.184615 177.547115,194.707692 C177.991346,192.231731 178.650962,188.481731 179.015385,186.372115 C179.378846,184.263462 179.776923,181.824038 179.899038,180.953846 L180.123077,179.369231 L196.597115,179.369231 L196.035577,181.786538 C195.726923,183.117308 195.008654,186.755769 194.439423,189.873077 C193.870192,192.990385 193.025962,197.642308 192.5625,200.209615 C192.099038,202.777885 191.265385,207.354808 190.707692,210.379808 C190.15,213.406731 189.253846,218.207692 188.716346,221.050962 C188.178846,223.893269 187.364423,228.394231 186.908654,231.054808 C186.450962,233.713462 185.618269,238.664423 185.056731,242.057692 C184.495192,245.450962 183.595192,250.777885 183.058654,253.895192 C182.521154,257.0125 181.777885,261.365385 181.405769,263.565385 C181.033654,265.765385 180.571154,268.692308 180.380769,270.068269 C180.188462,271.443269 179.871154,273.506731 179.672115,274.652885 L179.3125,276.736538 L163.042308,276.736538 L163.038462,276.320192 C163.036538,276.090385 163.565385,272.976923 164.2125,269.400962 C164.860577,265.824038 165.750962,261.023077 166.191346,258.730769 C166.630769,256.438462 167.459615,252.011538 168.031731,248.894231 C168.605769,245.775962 169.519231,240.824038 170.0625,237.889423 C170.605769,234.954808 171.220192,231.688462 171.426923,230.628846 L171.805769,228.703846 L171.563462,228.461538 L171.321154,228.220192 L127.750962,228.220192 L127.563462,228.406731 C127.461538,228.509615 127.014423,230.609615 126.571154,233.075962 C126.128846,235.540385 125.380769,239.807692 124.910577,242.558654 C124.440385,245.308654 123.592308,250.335577 123.026923,253.728846 C122.4625,257.121154 121.636538,262.074038 121.193269,264.732692 C120.75,267.391346 120.125,271.180769 119.805769,273.152885 L119.224038,276.736538 L103.020192,276.736538 Z M215.321154,307.748077 L215.502885,306.997115 C215.603846,306.585577 216.130769,303.996154 216.676923,301.245192 C217.222115,298.494231 218.119231,293.842308 218.671154,290.908654 C219.223077,287.974038 220.142308,283.023077 220.713462,279.903846 C221.284615,276.786538 222.113462,272.285577 222.552885,269.901923 C222.993269,267.517308 223.807692,263.090385 224.364423,260.064423 C224.921154,257.038462 225.822115,251.935577 226.367308,248.726923 C226.913462,245.517308 227.7375,240.640385 228.199038,237.889423 C228.660577,235.138462 229.488462,230.1875 230.036538,226.886538 C230.584615,223.584615 231.515385,217.846154 232.105769,214.131731 L233.176923,207.378846 L245.403846,207.378846 L245.390385,207.795192 C245.382692,208.025962 245.101923,209.530769 244.764423,211.141346 L244.152885,214.071154 L245.028846,213.497115 C245.509615,213.183654 246.108654,212.721154 246.357692,212.472115 C246.607692,212.223077 247.597115,211.518269 248.555769,210.904808 C249.513462,210.291346 251.305769,209.323077 252.536538,208.754808 L254.775962,207.717308 L257.352885,207.060577 L259.928846,206.401923 L263.0875,206.039423 L266.244231,205.676923 L269.077885,205.884615 L271.9125,206.092308 L274.747115,206.770192 L277.581731,207.45 L282.729808,210.109615 L284.904808,212.416346 L287.080769,214.723077 L288.206731,216.970192 L289.333654,219.216346 L290.028846,222.217308 L290.725,225.219231 L290.945192,228.220192 L291.166346,231.221154 L290.784615,234.756731 C290.574038,236.702885 290.100962,239.853846 289.733654,241.759615 L289.065385,245.225 L287.773077,249.226923 C287.061538,251.427885 285.842308,254.728846 285.060577,256.5625 C284.279808,258.396154 283.216346,260.525 282.696154,261.291346 C282.175962,262.058654 281.75,262.769231 281.75,262.872115 C281.75,262.974038 281.041346,263.997115 280.174038,265.145192 C279.308654,266.294231 277.620192,268.213462 276.423077,269.407692 L274.247115,271.583654 L271.9125,273.103846 C270.628846,273.940385 268.678846,275.035577 267.577885,275.538462 L265.577885,276.45 L261.85,277.415385 L258.123077,278.379808 L254.680769,278.591346 L251.239423,278.801923 L248.526923,278.450962 L245.815385,278.099038 L243.539423,277.188462 L241.264423,276.276923 L239.415385,274.415385 L237.567308,272.551923 L236.734615,270.976923 C236.275962,270.109615 235.8125,269.400962 235.704808,269.400962 C235.596154,269.400962 235.327885,270.713462 235.107692,272.318269 C234.886538,273.923077 234.339423,277.561538 233.891346,280.404808 C233.443269,283.247115 232.635577,288.349038 232.096154,291.742308 C231.555769,295.134615 230.878846,299.441346 230.590385,301.314423 C230.300962,303.185577 230.064423,305.160577 230.064423,305.704808 C230.064423,306.248077 229.974038,306.929808 229.861538,307.220192 L229.659615,307.748077 L215.321154,307.748077 Z M316.621154,278.024038 C315.350962,277.860577 313.081731,277.429808 311.578846,277.067308 L308.845192,276.405769 L306.884615,275.513462 C305.806731,275.023077 304.174038,274.0625 303.257692,273.379808 C302.340385,272.698077 300.971154,271.485577 300.215385,270.686538 C299.459615,269.8875 298.455769,268.558654 297.986538,267.733654 C297.517308,266.908654 296.826923,265.407692 296.454808,264.399038 C296.082692,263.391346 295.549038,261.589423 295.271154,260.398077 L294.764423,258.229808 L294.759615,253.268269 L294.753846,248.306731 L295.285577,244.931731 C295.578846,243.075962 296.172115,240.057692 296.605769,238.224038 C297.038462,236.389423 297.777885,233.763462 298.249038,232.3875 C298.719231,231.0125 299.420192,229.136538 299.804808,228.220192 C300.190385,227.302885 301.0375,225.502885 301.6875,224.218269 C302.338462,222.934615 303.478846,220.984615 304.223077,219.883654 C304.966346,218.782692 306.329808,217.130769 307.250962,216.209615 C308.171154,215.289423 309.6,213.989423 310.426923,213.320192 C311.251923,212.651923 312.901923,211.551923 314.094231,210.875962 C315.285577,210.2 317.386538,209.196154 318.761538,208.647115 L321.263462,207.648077 L325.264423,206.878846 L329.266346,206.110577 L332.600962,205.894231 L335.934615,205.676923 L339.525,206.020192 L343.113462,206.363462 L346.026923,207.064423 L348.939423,207.766346 L350.606731,208.652885 C351.524038,209.140385 352.809615,209.918269 353.465385,210.380769 C354.120192,210.843269 355.109615,211.745192 355.663462,212.384615 C356.217308,213.025 357.064423,214.226923 357.543269,215.055769 L358.417308,216.563462 L358.946154,218.840385 L359.474038,221.118269 L359.463462,224.169231 L359.452885,227.219231 L358.966346,230.846154 C358.699038,232.840385 358.227885,235.541346 357.919231,236.848077 L357.359615,239.223077 L338.811538,239.104808 L320.2625,238.984615 L310.227885,239.453846 L309.654808,243.174038 L309.083654,246.892308 L309.088462,251.0625 L309.092308,255.231731 L309.736538,257.484615 L310.380769,259.736538 L311.408654,261.533654 L312.436538,263.328846 L315.071154,265.709615 L316.666346,266.499038 C317.544231,266.934615 319.1625,267.576923 320.2625,267.927885 L322.263462,268.566346 L328.099038,268.556731 L333.934615,268.544231 L337.605769,267.833654 L341.276923,267.121154 L344.775,265.969231 C346.698077,265.335577 348.833654,264.545192 349.519231,264.214423 L350.765385,263.613462 L350.944231,263.792308 L351.125,263.971154 L350.310577,267.9375 C349.8625,270.118269 349.404808,272.577885 349.293269,273.403846 L349.089423,274.907692 L345.013462,275.804808 C342.771154,276.297115 339.286538,276.933654 337.268269,277.217308 C335.251923,277.501923 331.950962,277.885577 329.932692,278.069231 L326.265385,278.403846 L322.597115,278.361538 C320.579808,278.339423 317.890385,278.186538 316.621154,278.024038 Z M483.489423,278.240385 L478.9875,278.369231 L477.024038,278.059615 C475.943269,277.888462 474.032692,277.457692 472.776923,277.102885 L470.493269,276.457692 L468.499038,275.246154 L466.505769,274.034615 L465.382692,272.723077 C464.766346,272.001923 463.853846,270.664423 463.356731,269.752885 L462.454808,268.094231 L461.967308,265.550962 L461.481731,263.006731 L461.481731,256.896154 L461.991346,253.983654 L462.500962,251.072115 L463.610577,248.482692 C464.220192,247.057692 465.226923,245.142308 465.846154,244.225962 C466.465385,243.308654 467.874038,241.657692 468.977885,240.556731 L470.982692,238.554808 L473.528846,236.973077 C474.929808,236.100962 476.214423,235.389423 476.383654,235.389423 C476.553846,235.389423 477.317308,235.0875 478.080769,234.718269 C478.844231,234.35 481.235577,233.563462 483.395192,232.971154 L487.321154,231.894231 L499.319231,231.851923 L511.317308,231.808654 L511.892308,229.013462 L512.466346,226.219231 L512.482692,223.672115 L512.498077,221.125962 L511.413462,219.511538 L510.329808,217.896154 L508.394231,216.940385 L506.459615,215.985577 L500.659615,214.968269 L496.157692,215.154808 L491.656731,215.339423 L486.655769,216.191346 C483.903846,216.660577 480.242308,217.422115 478.519231,217.886538 C476.796154,218.35 475.3375,218.681731 475.278846,218.622115 C475.219231,218.5625 475.598077,216.872115 476.122115,214.864423 C476.644231,212.855769 477.250962,210.350962 477.469231,209.297115 L477.866346,207.378846 L483.320192,207.357692 L487.322115,206.873077 C489.523077,206.604808 493.823077,206.231731 496.880769,206.043269 L502.4375,205.699038 L506.751923,206.026923 L511.065385,206.354808 L517.332692,207.749038 L519.435577,208.815385 L521.536538,209.879808 L522.818269,211.109615 L524.098077,212.338462 L525.043269,214.269231 L525.986538,216.199038 L525.957692,220.375962 L525.926923,224.551923 L525.030769,229.386538 C524.539423,232.046154 523.705769,236.622115 523.179808,239.556731 C522.652885,242.492308 521.840385,247.143269 521.373077,249.894231 C520.904808,252.644231 520.128846,257.671154 519.648077,261.064423 L518.775,267.233654 L518.588462,271.985577 L518.400962,276.736538 L506.161538,276.736538 L506.167308,274.652885 C506.171154,273.506731 506.386538,271.071154 506.645192,269.239423 C506.904808,267.408654 507.074038,265.867308 507.019231,265.813462 C506.965385,265.758654 506.323077,266.506731 505.592308,267.475 C504.861538,268.442308 503.527885,269.963462 502.628846,270.855769 C501.729808,271.747115 500.167308,273.027885 499.158654,273.701923 C498.15,274.375962 496.5,275.317308 495.491346,275.793269 L493.656731,276.659615 L490.822115,277.385577 L487.9875,278.110577 L483.486538,278.240385 L483.489423,278.240385 Z M428.642308,278.363462 C426.623077,278.341346 424.093269,278.194231 423.019231,278.0375 C421.945192,277.880769 419.919231,277.433654 418.518269,277.045192 L415.969231,276.336538 L414.027885,275.311538 L412.088462,274.284615 L410.252885,272.479808 L408.419231,270.674038 L407.266346,268.871154 L406.111538,267.068269 L405.113462,264.574038 L404.114423,262.079808 L403.485577,257.229808 L403.481731,253.0625 L403.478846,248.894231 L403.790385,245.725962 L404.102885,242.558654 L404.963462,239.056731 C405.435577,237.130769 406.371154,233.979808 407.040385,232.053846 L408.258654,228.553846 L409.847115,225.319231 C410.721154,223.539423 412.076923,221.145192 412.860577,219.996154 L414.2875,217.907692 L416.840385,215.394231 C418.246154,214.011538 419.819231,212.580769 420.338462,212.213462 C420.857692,211.847115 422.044231,211.081731 422.977885,210.511538 C423.911538,209.942308 425.641346,209.089423 426.822115,208.617308 L428.970192,207.758654 L432.303846,207.057692 L435.639423,206.357692 L440.140385,206.011538 L444.642308,205.666346 L451.025962,206.032692 C454.536538,206.235577 458.646154,206.541346 460.158654,206.713462 C461.670192,206.885577 462.973077,207.092308 463.052885,207.173077 C463.134615,207.252885 462.976923,208.570192 462.702885,210.100962 C462.429808,211.629808 462.016346,214.119231 461.783654,215.631731 C461.550962,217.145192 461.318269,218.383654 461.267308,218.383654 C461.214423,218.383654 460.378846,218.086538 459.409615,217.725 L457.647115,217.067308 L453.311538,216.200962 L448.976923,215.332692 L445.308654,215.149038 L441.641346,214.964423 L439.140385,215.354808 C437.765385,215.568269 435.669231,216.042308 434.483654,216.407692 L432.327885,217.072115 L430.648077,218.113462 L428.970192,219.153846 L425.799038,222.440385 L424.508654,224.6625 C423.799038,225.885577 422.725962,228.011538 422.125,229.386538 C421.523077,230.7625 420.9125,232.3375 420.765385,232.888462 C420.620192,233.438462 420.188462,234.938462 419.806731,236.222115 L419.114423,238.556731 L418.458654,242.892308 L417.803846,247.226923 L417.800962,250.804808 L417.797115,254.381731 L418.335577,257.139423 L418.875962,259.898077 L420.006731,261.958654 L421.139423,264.020192 L422.845192,265.513462 L424.550962,267.004808 L428.968269,268.5375 L432.855769,268.670192 L436.742308,268.801923 L441.315385,267.916346 L445.8875,267.030769 L449.098077,265.838462 C450.864423,265.182692 452.5,264.494231 452.734615,264.307692 C452.968269,264.123077 453.213462,264.029808 453.280769,264.101923 C453.347115,264.174038 453.252885,265.132692 453.072115,266.233654 C452.890385,267.333654 452.465385,269.643269 452.128846,271.364423 C451.791346,273.086538 451.395192,274.6 451.246154,274.727885 C451.097115,274.854808 449.825,275.284615 448.419231,275.682692 C447.0125,276.078846 444.686538,276.631731 443.250962,276.909615 C441.813462,277.189423 438.763462,277.638462 436.472115,277.910577 L432.306731,278.403846 L428.636538,278.363462 L428.642308,278.363462 Z M361.444231,276.736538 L361.444231,276.443269 C361.444231,276.282692 361.655769,275.120192 361.916346,273.860577 C362.175,272.599038 362.847115,269.243269 363.408654,266.4 C363.969231,263.557692 364.875962,258.904808 365.420192,256.063462 C365.966346,253.220192 366.793269,248.868269 367.259615,246.392308 C367.725962,243.917308 368.552885,239.190385 369.097115,235.889423 C369.641346,232.588462 370.468269,227.486538 370.933654,224.551923 C371.399038,221.617308 372.155769,216.915385 372.614423,214.100962 C373.072115,211.2875 373.448077,208.625 373.448077,208.182692 L373.448077,207.378846 L386.164423,207.378846 L385.986538,207.963462 C385.890385,208.282692 385.495192,210.347115 385.1125,212.548077 C384.729808,214.748077 384.285577,217.149038 384.125962,217.883654 L383.836538,219.216346 L384.313462,218.55 C384.575962,218.183654 385.5625,216.832692 386.506731,215.549038 C387.45,214.265385 388.953846,212.497115 389.849038,211.620192 C390.742308,210.744231 392.285577,209.507692 393.276923,208.872115 C394.269231,208.2375 395.877885,207.425962 396.852885,207.068269 C397.826923,206.709615 399.599038,206.244231 400.791346,206.033654 L402.958654,205.65 L404.625962,205.855769 C405.542308,205.970192 407.380769,206.393269 408.710577,206.797115 C410.040385,207.200962 411.127885,207.626923 411.127885,207.743269 C411.127885,207.859615 410.751923,209.796154 410.294231,212.047115 C409.835577,214.299038 409.460577,216.495192 409.460577,216.927885 C409.460577,217.361538 409.371154,217.715385 409.261538,217.715385 C409.151923,217.715385 408.214423,217.461538 407.177885,217.151923 L405.292308,216.589423 L401.458654,216.569231 L397.623077,216.548077 L395.114423,217.747115 L392.605769,218.945192 L390.571154,220.827885 L388.5375,222.7125 L387.017308,224.966346 C386.180769,226.205769 384.961538,228.382692 384.307692,229.804808 C383.653846,231.226923 383.118269,232.596154 383.118269,232.848077 C383.118269,233.099038 382.895192,233.9375 382.621154,234.7125 C382.348077,235.486538 381.539423,239.069231 380.822115,242.673077 C380.106731,246.277885 379.060577,252.077885 378.497115,255.563462 C377.934615,259.047115 377.166346,263.880769 376.791346,266.304808 C376.416346,268.728846 376.014423,272.068269 375.896154,273.724038 L375.682692,276.736538 L361.444231,276.736538 Z M530.282692,276.736538 L530.898077,273.652885 C531.235577,271.956731 531.960577,268.317308 532.506731,265.567308 C533.052885,262.816346 533.943269,258.239423 534.485577,255.396154 C535.027885,252.553846 535.85,248.201923 536.3125,245.726923 C536.775962,243.250962 537.604808,238.524038 538.153846,235.223077 C538.703846,231.921154 539.6,226.444231 540.147115,223.051923 C540.692308,219.658654 541.448077,214.840385 541.824038,212.343269 C542.2,209.847115 542.507692,207.708654 542.507692,207.592308 L542.507692,207.378846 L554.845192,207.378846 L554.830769,208.129808 C554.823077,208.542308 554.388462,211.055769 553.866346,213.715385 C553.344231,216.374038 552.960577,218.598077 553.014423,218.655769 C553.068269,218.714423 553.689423,217.889423 554.394231,216.822115 L555.676923,214.881731 L558.064423,212.381731 L560.452885,209.880769 L562.288462,208.773077 L564.125,207.665385 L566.571154,206.805769 L569.017308,205.944231 L572.018269,205.9375 L575.019231,205.928846 L576.686538,206.454808 C577.603846,206.743269 578.748077,207.133654 579.229808,207.322115 L580.106731,207.665385 L579.326923,211.440385 C578.898077,213.517308 578.541346,215.694231 578.534615,216.279808 L578.519231,217.343269 L578.243269,217.514423 L577.966346,217.685577 L576.325962,217.158654 L574.684615,216.632692 L570.516346,216.602885 L566.349038,216.574038 L564.433654,217.501923 C563.379808,218.0125 561.625,219.1 560.534615,219.921154 L558.550962,221.4125 L556.738462,223.820192 L554.925,226.228846 L553.550962,229.135577 C552.796154,230.733654 552.175962,232.231731 552.172115,232.464423 C552.169231,232.697115 551.930769,233.563462 551.641346,234.388462 C551.351923,235.214423 550.666346,237.989423 550.115385,240.557692 C549.566346,243.125 548.916346,246.500962 548.670192,248.059615 C548.425,249.619231 547.841346,253.220192 547.372115,256.063462 C546.902885,258.904808 546.142308,263.718269 545.679808,266.755769 L544.841346,272.280769 L544.841346,276.736538 L530.282692,276.736538 Z M256.139423,269.027885 L261.799038,267.102885 L263.021154,266.190385 C263.693269,265.689423 264.769231,264.826923 265.409615,264.275 C266.051923,263.725 267.131731,262.499038 267.808654,261.554808 C268.485577,260.609615 269.665385,258.65 270.430769,257.199038 L271.823077,254.5625 L272.958654,251.304808 C273.583654,249.513462 274.479808,246.3625 274.950962,244.302885 L275.806731,240.557692 L275.977885,234.222115 L276.149038,227.885577 L275.590385,225.742308 C275.283654,224.563462 274.680769,222.906731 274.250962,222.059615 L273.472115,220.520192 L272.025,219.066346 L270.578846,217.6125 L268.854808,216.818269 L267.129808,216.024038 L264.686538,215.503846 L262.242308,214.982692 L256.240385,215.334615 L253.905769,216.057692 L251.572115,216.779808 L249.783654,217.795192 C248.799038,218.352885 247.133654,219.525962 246.081731,220.4 L244.170192,221.990385 L243.298077,226.605769 C242.818269,229.143269 241.9625,233.847115 241.398077,237.056731 C240.833654,240.265385 239.985577,244.917308 239.513462,247.393269 L238.654808,251.895192 L238.483654,254.768269 L238.313462,257.642308 L238.738462,259.436538 C238.972115,260.424038 239.498077,261.981731 239.908654,262.899038 L240.653846,264.566346 L241.945192,265.798077 L243.235577,267.031731 L245.084615,267.875962 L246.932692,268.719231 L248.752885,269.040385 L250.572115,269.3625 L256.139423,269.027885 Z M193.641346,276.736538 L193.842308,275.986538 C193.953846,275.574038 194.335577,273.811538 194.692308,272.068269 C195.048077,270.325962 195.793269,266.575 196.349038,263.731731 C196.904808,260.889423 197.740385,256.538462 198.205769,254.061538 C198.672115,251.585577 199.489423,247.234615 200.023077,244.392308 C200.556731,241.549038 201.377885,236.823077 201.85,233.8875 C202.322115,230.954808 203.1625,225.776923 203.717308,222.383654 C204.273077,218.992308 205,214.265385 205.330769,211.880769 L205.936538,207.545192 L220.442308,207.366346 L220.260577,207.659615 C220.161538,207.820192 219.546154,210.635577 218.893269,213.917308 C218.240385,217.199038 217.325,221.909615 216.860577,224.385577 C216.395192,226.860577 215.579808,231.1375 215.049038,233.8875 C214.518269,236.640385 213.714423,241.066346 213.261538,243.725 C212.808654,246.384615 211.978846,251.336538 211.417308,254.728846 C210.854808,258.122115 209.944231,263.7 209.392308,267.125962 C208.842308,270.551923 208.390385,273.878846 208.390385,274.519231 C208.390385,275.157692 208.3,275.918269 208.1875,276.209615 L207.985577,276.736538 L193.641346,276.736538 Z M490.322115,268.776923 L493.025962,267.922115 L495.730769,267.066346 L496.959615,266.233654 C497.635577,265.775 498.309615,265.399038 498.456731,265.399038 C498.604808,265.399038 499.626923,264.507692 500.725962,263.419231 L502.725,261.4375 L503.942308,259.392308 C504.6125,258.268269 505.160577,257.257692 505.160577,257.145192 C505.160577,257.033654 505.603846,255.806731 506.145192,254.418269 C506.686538,253.030769 507.511538,250.470192 507.978846,248.726923 C508.447115,246.984615 509.028846,244.381731 509.273077,242.943269 L509.716346,240.325962 L509.189423,240.108654 L508.6625,239.890385 L491.989423,239.890385 L489.321154,240.524038 L486.653846,241.158654 L484.507692,242.191346 L482.361538,243.225 L480.340385,245.232692 L478.318269,247.239423 L477.2625,249.419231 C476.681731,250.617308 475.951923,252.474038 475.641346,253.543269 L475.075962,255.4875 L475.217308,258.693269 L475.356731,261.898077 L476.071154,263.271154 C476.464423,264.025962 477.156731,265.083654 477.609615,265.623077 L478.434615,266.602885 L479.943269,267.378846 C480.774038,267.805769 482.249038,268.357692 483.220192,268.604808 L484.986538,269.055769 L487.654808,268.915385 L490.322115,268.776923 Z M345.6625,231.3875 L346.014423,228.135577 L346.367308,224.884615 L346.058654,222.930769 L345.750962,220.976923 L345.285577,220.096154 C345.028846,219.6125 344.359615,218.721154 343.799038,218.116346 L342.777885,217.015385 L340.916346,216.163462 L339.055769,215.311538 L336.496154,214.982692 L333.934615,214.652885 L330.599038,214.867308 C328.765385,214.983654 326.665385,215.233654 325.930769,215.422115 C325.198077,215.610577 323.622115,216.231731 322.430769,216.801923 L320.2625,217.8375 L318.056731,220.032692 L315.851923,222.225962 L314.847115,224.223077 C314.296154,225.321154 313.45,227.315385 312.969231,228.655769 C312.4875,229.997115 312.093269,231.160577 312.093269,231.240385 C312.093269,231.322115 319.646154,231.3875 328.876923,231.3875 L345.6625,231.3875 Z M212.892308,195.359615 L211.495192,194.725962 L210.097115,194.091346 L209.372115,192.672115 L208.649038,191.251923 L208.795192,188.395192 L208.942308,185.538462 L209.720192,183.704808 L210.499038,181.871154 L211.489423,180.808654 L212.479808,179.747115 L214.186538,178.983654 L215.893269,178.219231 L220.906731,178.219231 L222.068269,178.938462 L223.228846,179.656731 L223.896154,180.763462 L224.5625,181.871154 L224.535577,184.703846 L224.509615,187.538462 L223.758654,189.463462 L223.009615,191.389423 L221.584615,192.833654 L220.160577,194.278846 L218.55,194.826923 L216.940385,195.375 L214.917308,195.368269 L212.892308,195.359615 Z M590.957692,278.05 C589.820192,277.902885 587.944231,277.522115 586.789423,277.205769 C585.633654,276.889423 583.788462,276.182692 582.6875,275.6375 L580.686538,274.643269 L579.221154,273.442308 L577.755769,272.242308 L576.471154,270.503846 L575.1875,268.767308 L574.483654,266.999038 C574.096154,266.027885 573.579808,264.557692 573.332692,263.731731 L572.8875,262.231731 L572.508654,258.063462 L572.131731,253.895192 L572.634615,248.716346 L573.1375,243.535577 L574.157692,239.545192 C574.720192,237.350962 575.575962,234.505769 576.0625,233.221154 C576.548077,231.9375 577.761538,229.190385 578.757692,227.115385 L580.571154,223.344231 L582.113462,221.136538 C582.963462,219.922115 584.564423,217.955769 585.673077,216.767308 L587.689423,214.604808 L590.023077,212.876923 L592.356731,211.15 L595.525962,209.604808 L598.693269,208.059615 L602.027885,207.217308 L605.3625,206.374038 L609.029808,206.031731 L612.698077,205.690385 L617.033654,206.027885 L621.368269,206.365385 L624.535577,207.160577 C626.276923,207.598077 627.956731,208.064423 628.266346,208.196154 L628.828846,208.435577 L629.007692,207.324038 C629.104808,206.7125 629.631731,203.510577 630.179808,200.209615 C630.727885,196.908654 631.627885,191.356731 632.179808,187.873077 C632.730769,184.3875 633.277885,180.599038 633.393269,179.452885 L633.603846,177.368269 L647.876925,177.368269 L647.876923,177.619231 C647.877885,177.755769 647.515385,179.595192 647.071154,181.702885 C646.627885,183.8125 645.804808,187.939423 645.238462,190.874038 C644.674038,193.807692 643.824038,198.309615 643.35,200.876923 C642.875962,203.444231 642.054808,207.871154 641.527885,210.714423 C641,213.556731 640.116346,218.357692 639.565385,221.384615 C639.013462,224.409615 638.188462,229.0625 637.730769,231.721154 C637.275,234.379808 636.579808,238.356731 636.188462,240.557692 C635.795192,242.758654 635.111538,246.958654 634.669231,249.894231 C634.226923,252.828846 633.416346,259.054808 632.868269,263.731731 L631.872115,272.235577 L631.872115,276.736538 L618.789423,276.736538 L619.010577,274.486538 C619.131731,273.248077 619.361538,271.485577 619.523077,270.568269 C619.685577,269.650962 619.892308,268.15 619.984615,267.233654 L620.152885,265.565385 L619.959615,266.066346 C619.852885,266.342308 618.950962,267.654808 617.953846,268.984615 L616.140385,271.400962 L614.420192,272.916346 L612.699038,274.431731 L610.697115,275.456731 C609.598077,276.020192 607.946154,276.693269 607.029808,276.952885 C606.1125,277.2125 604.0125,277.644231 602.361538,277.911538 L599.359615,278.399038 L596.192308,278.358654 C594.449038,278.3375 592.094231,278.198077 590.957692,278.05 Z M604.396154,268.765385 L609.698077,267.082692 L611.531731,265.863462 C612.540385,265.193269 613.867308,264.177885 614.481731,263.604808 C615.095192,263.033654 616.066346,261.889423 616.641346,261.064423 C617.216346,260.239423 618.1,258.693269 618.604808,257.628846 C619.109615,256.565385 619.738462,254.913462 620.002885,253.960577 C620.267308,253.007692 620.782692,251.102885 621.147115,249.726923 C621.5125,248.351923 622.198077,245.200962 622.671154,242.725 C623.145192,240.25 623.974038,235.823077 624.513462,232.888462 C625.052885,229.953846 625.808654,225.751923 626.191346,223.550962 C626.574038,221.350962 626.971154,219.138462 627.072115,218.634615 L627.255769,217.719231 L626.3125,217.352885 C625.794231,217.150962 623.944231,216.590385 622.200962,216.107692 L619.033654,215.227885 L613.531731,215.227885 L608.029808,215.230769 L605.408654,216.138462 L602.786538,217.046154 L601.294231,217.964423 C600.472115,218.469231 599.090385,219.569231 598.221154,220.405769 C597.351923,221.244231 596.035577,222.745192 595.296154,223.741346 C594.558654,224.7375 593.483654,226.451923 592.908654,227.552885 C592.333654,228.653846 591.4125,230.570192 590.860577,231.813462 C590.307692,233.055769 589.855769,234.255769 589.851923,234.479808 C589.85,234.704808 589.471154,236.089423 589.011538,237.556731 L588.175962,240.224038 L587.638462,244.057692 L587.100962,247.893269 L587.0625,252.227885 L587.023077,256.5625 L587.484615,258.730769 L587.949038,260.898077 L589.979808,264.788462 L591.346154,265.907692 L592.713462,267.028846 L594.3375,267.724038 C595.231731,268.106731 596.726923,268.558654 597.661538,268.725962 L599.359615,269.031731 L601.877885,268.9 L604.396154,268.765385 Z" id="Shape"></path>
        </g>
    </g>
</svg>
