<svg enable-background="new 0 0 750 471" viewBox="0 0 750 471" xmlns="http://www.w3.org/2000/svg"><path d="m697.1 0h-644.2c-29.2 0-52.9 23.2-52.9 51.7v367.6c0 28.5 23.7 51.7 52.9 51.7h644.2c29.2 0 52.9-23.2 52.9-51.7v-367.6c0-28.5-23.7-51.7-52.9-51.7zm-42.7 337.7c-7.6 32.7-35.9 41.3-77 41.3h-532.2c14.1-67.6 47-235.3 50.7-248.4 7.1-25.1 31.8-37.3 62-38.7h546.9c-13.6 66.8-46.8 230.6-50.4 245.8zm-388.3-74.1c6.3-6.7 11.6-23.3 9.7-36.6-2.3-15.3-24.4-14.2-32-5-1.1 5.5-1.9 11.4-3 17.7-1.1 6.1-3.3 12.4-2.7 18.3 1.5 13.6 20.3 13.8 28 5.6zm208.5-8.3c-2.1 17.3 18.6 15.2 26 8 5.6-5.5 7.1-15.5 8.3-23.3-16.9-2.1-32.6 1-34.3 15.3zm-362-118.4c-3.5 12.3-34.4 170-47.7 233.6h500.3c38.7 0 65.2-8.2 72.4-38.9 3.3-14.3 34.6-168.3 47.3-231h-514c-28.4 1.3-51.6 12.7-58.3 36.3zm515.2 71.4c2.1-9.9 3.8-20.2 5-31h14.3c-5.7 32.7-13.5 63.3-16 99.3h-13c.1-3.8.8-6.9 1.3-10.3-.3-.9-1.7 2.2-2.7 3.3-1.2 1.5-3.1 3.8-5 5-9.6 6.3-28.7 4.5-35.3-3-3.9-4.4-4.9-10.5-5-16.7-.3-31.8 21.3-57.7 56.4-46.6zm-85.9-1h12.7c-1.1 3.3-1.2 7.7-2.3 11 4.1-6.4 14.7-17 27.3-10.7-.9 3.1-1.3 6.7-2 10-22.4-6.3-26.9 14.7-30 34-1.4 9-3.2 15.8-3.3 25h-14.7c4.7-22.4 8.9-45.5 12.3-69.3zm-30 14c-2.5-11.3-28.9-4.8-37.3-2.7.9-3.8 2-7.4 2.7-11.3 17-.5 47.2-7 48.3 11.3.5 8-2.4 16.9-4 26-1.8 10.6-3.5 20.2-3.7 32h-12.3c-.2-4.1.4-7.4 1-10.7-5.9 9.5-23 16.3-37 10.3-7.3-3.1-11.1-14.3-7.7-25.6 5.1-17 24.5-20.9 48.3-18.7 1.1-2.8 2.5-6.8 1.7-10.6zm-49.3-14.3c-.5 3.8-1.3 7.4-1.7 11.3-11.8-4.1-26.5-5.3-34 2-5.4 5.3-8.9 17-9.7 26.6-.3 4.3 0 9.9 1.3 13.3 4.5 11.7 24.1 9 34.3 3.7-.7 3.5-1.2 7.3-2 10.7-18.7 6.5-41.8 5.5-47-11.3-4.4-14.4 1.8-37.3 11.3-47.3 9.9-10.2 28.2-12.1 47.5-9zm-89.6.3h12.7c-.8 3.8-1.3 8-2.3 11.7 4.6-8.1 14.6-16.8 27.3-11.7-.4 3.6-1.5 6.5-1.7 10.3-13.4-4.8-22.8 4-26.3 14.3-4.5 12.9-5.3 31.1-7.3 44.6h-14.4c4.3-22.6 8.9-45.2 12-69.2zm-66.6 9c6.2-6.5 15-9.5 25.3-10.3 11.8-.9 23.4 1.5 26.6 11 2.5 7.2-.4 15.1-1.3 22.3-15.5-.4-31.5-.5-47 0-2.4 10.2-2.4 22 5 26.6 9.7 6.2 26.2 1.2 35.6-2.3-.6 3.8-1.6 7.3-2 11.3-23 5.6-51.7 6.4-54.3-16.7-1.7-16.1 4.5-33.8 12.1-41.9zm-61.3-9c-.1 2.2-.9 3.8-1 6v.1c6.4-5.2 21.2-10.6 33.3-6.1 24.9 9.4 10.6 57.2-8 67.3-9 4.9-30.4 7.3-33.6-5.3-2.9 12-4.3 25.5-6.3 38.3h-14.3c6.4-32.9 12.5-66.1 17.7-100.3zm-34.6-25.9c1.1-1.5 2.8-2.5 5.7-3 3.1-.5 5.3-.2 6.7 1 4.2 3.7.5 12.7-2.3 14.7-1.8 1.3-7.9 2.7-10.7 0-2.9-2.8-1.2-10.3.6-12.7zm-4.7 25.9h14.3c-4.9 22.3-8.9 45.5-12.3 69.3h-14.3c4.6-22.2 8.8-44.7 12-68.3-.1-.4-.1-.9.3-1zm-32.6 11.4c2.3-13 4.6-26 6.7-39.3h16.7c-6.6 31.6-12.1 64.3-17.3 97.3h-16.3c2.6-16.3 5.9-31.8 8.7-48-13.4-1.3-30.1-.7-44-.3-3.4 15.5-5.8 32-8.3 48.3h-16.3c6.4-31.8 11.6-64.8 17.3-97.3h16c-2.7 12.7-4.6 26.2-7.3 39 14.1 1 29.2.4 44.1.3zm157.5-4c-11 .4-17.9 8.9-19 16.7h33.6c3.1-12.9-4.3-17.1-14.6-16.7zm270.1 54.3c22.6-.5 20.8-31.8 25.6-51.3-5.3-1.8-10.5-3.5-17.7-2.7-15.4 1.7-23 21-22.6 38.3.3 9.9 5.1 15.9 14.7 15.7zm-356.7-55.6c-.1.1-.2.2-.3.3.2 0 .3-.1.3-.3z" fill="#393939"/></svg>