<svg height="471" viewBox="0 0 750 471" width="750" xmlns="http://www.w3.org/2000/svg"><path d="m0 40.0047706c0-22.0940247 17.9143492-40.0047706 39.9919369-40.0047706h670.0161261c22.086937 0 39.991937 17.9064659 39.991937 40.0047706v390.9904584c0 22.094025-17.914349 40.004771-39.991937 40.004771h-670.0161261c-22.0869369 0-39.9919369-17.906466-39.9919369-40.004771zm179.180777 218.9445294s-.273259-89.5021.03034-130.713584c4.054224-24.089001 28.713217-42.119028 52.864848-39.91895h67.310515c-.0789 81.941864-.0683 163.886424-.20314 245.826604-.74635 24.24305-21.88376 45.46784-46.179915 46.07374-24.596815.0721-49.196149.0105-73.793937.031v-102.36183c18.264856 3.34751 36.626104 6.95237 55.313504 5.86236 17.923305-.93137 39.537528-3.67524 49.801728-20.44226 7.59693-12.38525 4.19217-27.16287 4.823-40.8607l-.23281-35.02929c-13.85232.0774-27.70464.15489-41.556967.23234-.200364 20.3779.411493 40.80012-.325899 61.1488-1.596968 13.5333-16.078567 20.48386-28.516122 19.23382-14.38394-.13222-27.187303-5.50203-39.335145-9.08205zm135.669843-56.3928c.15364-23.04134-.31645-46.105843.25211-69.131787 1.6841-21.943077 20.124-40.412279 41.80275-43.091567 21.80037-.717971 43.672-.113144 65.50027-.312841h12.70144c-.0564 82.335025.11285 164.675695-.0847 247.007175-1.5733 25.57784-26.2495 47.05322-51.82331 44.62372h-68.34851v-112.04193c17.82059 14.07505 41.89423 16.19033 63.85722 15.90731 14.42135-.37438 28.79787-2.51748 42.70307-6.35682-.10071-6.76991-.20142-13.53981-.30213-20.30971-19.63891 9.45349-43.98235 16.1344-64.47132 5.37602-16.27614-9.31594-18.18786-32.76987-9.48731-47.86263 10.74645-15.65641 32.45408-16.12208 49.35354-12.81175 8.2927.73852 19.43169 8.15781 24.90722 7.99048v-18.59647c-28.34546-7.16643-58.71741-9.48539-87.11474-1.37066-7.06049 2.414-13.97289 5.82928-19.44555 10.98146zm134.05951 78.624v98.9546c25.40901-.0606 50.83235.12109 76.23243-.0907 24.15687-2.16736 45.13425-24.23224 43.88382-48.83672v-242.899863c-25.06545.09218-50.14129-.185316-75.20017.140412-25.20246 1.521518-46.62552 25.056733-44.91608 50.401254v48.770637c25.22736.11344 50.47179-.22865 75.68831.1742 13.25128.32531 27.38603 10.70453 24.98392 25.24757-1.0073 11.1285-11.59437 18.42894-21.99714 19.64076 12.99985 1.03728 28.16749 9.42882 27.91114 24.14848.34108 15.87429-16.81059 24.8889-30.89727 24.34935h-75.68896zm24.05862-77.921617v23.785396h25.972762s12.170229-.035554 12.170229-11.910475-12.170229-11.874921-12.170229-11.874921zm27.781143 37.754857h-27.781143v25.554916h27.781143c.079672 0 13.695955.792356 13.695955-12.777457s-13.695955-12.777459-13.695955-12.777459z" fill="#393939" fill-rule="evenodd"/></svg>