<svg height="471" viewBox="0 0 750 471" width="750" xmlns="http://www.w3.org/2000/svg"><path d="m40 0h670c22.09139 0 40 17.90861 40 40v391c0 22.09139-17.90861 40-40 40h-670c-22.09139 0-40-17.90861-40-40v-391c0-22.09139 17.90861-40 40-40zm280.68 386.34c-2.73-3.56-6.87-5.79-12.49-5.79-11.09 0-19.77 8.69-19.77 20.77s8.69 20.77 19.77 20.77c5.63 0 9.76-2.23 12.49-5.79v4.8h8.61v-39.56h-8.61zm-11.42 27.66c-7.45 0-12-5.71-12-12.66s4.55-12.66 12-12.66c7.12 0 11.91 5.46 11.91 12.66s-4.79 12.66-11.91 12.66zm-44-33.43c-5-.08-10.26 1.49-13.9 7-2.73-4.38-7-7-13.07-7-4.627185-.232271-9.032003 2.000568-11.58 5.87v-4.88h-8.61v39.55h8.69v-21.95c0-6.87 3.81-10.51 9.68-10.51 5.71 0 8.61 3.72 8.61 10.42v22h8.69v-21.91c0-6.87 4-10.51 9.68-10.51 5.87 0 8.69 3.72 8.69 10.42v22h8.69v-24.8c-.03-9.35-5.99-15.64-15.59-15.72zm207.74 5.77v-4.8h-8.52v39.55h8.6v-22.18c0-6.54 2.81-10.18 8.44-10.18 1.841653-.023802 3.669904.316022 5.38 1l2.65-8.11c-1.96391-.704768-4.033486-1.069988-6.12-1.08-4.277599-.127185-8.281135 2.099134-10.43 5.8zm60.06 6.72c-1.030256-2.473227-2.546937-4.714242-4.46-6.59-1.942003-1.887264-4.235281-3.375346-6.75-4.38-5.467018-2.12729-11.532982-2.12729-17 0-2.510377 1.001606-4.797666 2.490213-6.73 4.38-1.901105 1.881542-3.410212 4.12141-4.44 6.59-2.146003 5.297587-2.146003 11.222413 0 16.52 1.029319 2.468843 2.538485 4.708798 4.44 6.59 1.932168 1.889994 4.219501 3.37863 6.73 4.38 5.466835 2.128264 11.533165 2.128264 17 0 2.514958-1.004191 4.808322-2.492329 6.75-4.38 1.913063-1.875758 3.429744-4.116773 4.46-6.59 2.146003-5.297587 2.146003-11.222413 0-16.52zm-8.22 13.4c-.596152 1.495594-1.487171 2.855929-2.62 4-1.125846 1.12192-2.465716 2.006098-3.94 2.6-3.159488 1.239283-6.670512 1.239283-9.83 0-1.470254-.590363-2.804249-1.475156-3.92-2.6-1.123325-1.147742-2.007139-2.507456-2.6-4-1.265729-3.309784-1.265729-6.970216 0-10.28.593336-1.492298 1.477092-2.851923 2.6-4 1.115751-1.124844 2.449746-2.009637 3.92-2.6 3.159488-1.239283 6.670512-1.239283 9.83 0 1.474284.593902 2.814154 1.47808 3.94 2.6 1.132829 1.144071 2.023848 2.504406 2.62 4 1.265729 3.309784 1.265729 6.970216 0 10.28zm-167.52-25.91c-11.58 0-19.69 8.44-19.69 20.77 0 12.58 8.44 20.77 20.27 20.77 6 0 11.42-1.49 16.22-5.54l-4.22-6.37c-3.266738 2.619648-7.313106 4.076341-11.5 4.14-5.54 0-10.59-2.56-11.83-9.68h29.37c.08-1.08.17-2.15.17-3.31-.11-12.33-7.7-20.78-18.79-20.78zm-10.67 17.29c.91-5.71 4.38-9.6 10.51-9.6 5.54 0 9.1 3.47 10 9.6zm98.68 16.05c-4.3 0-5.71-2.65-5.71-6.62v-17.87h14.06v-7.86h-14.06v-12h-8.69v12h-8v7.86h8v18c0 9.18 3.56 14.65 13.73 14.65 3.802089.015196 7.531426-1.041912 10.76-3.05l-2.48-7.36c-2.305548 1.381544-4.923865 2.155685-7.61 2.25zm-42.09-16.55-4.05-.58c-3.72-.5-6.7-1.24-6.7-3.89 0-2.9 2.81-4.63 7.53-4.63 4.331282.063967 8.574813 1.23068 12.33 3.39l3.72-6.95c-4.14-2.73-9.85-4.14-16.13-4.14-10 0-16.46 4.8-16.46 12.66 0 6.45 4.8 10.42 13.65 11.67l4.05.58c4.72.66 6.95 1.9 6.95 4.14 0 3.06-3.14 4.8-9 4.8-4.72696.135905-9.362215-1.322298-13.16-4.14l-4.05 6.7c4.72 3.48 10.67 5.13 17.13 5.13 11.42 0 18-5.38 18-12.91.01-6.95-5.2-10.59-13.81-11.83zm163.58-304.82c-51.449949-51.4799612-132.574202-58.2255135-191.82-15.95-45.441771-32.3767412-105.164426-36.6517681-154.754405-11.0775256-49.589979 25.5742426-80.735796 76.7114056-80.705595 132.5075256-.011471 55.78713 31.141558 106.907166 80.72783 132.468967 49.586271 25.561801 109.297722 21.282547 154.73217-11.088967 45.434448 32.371514 105.145899 36.650768 154.73217 11.088967 49.586272-25.561801 80.739301-76.681837 80.72783-132.468967.126652-39.577681-15.587947-77.560631-43.64-105.48zm-191.82 203.25c-27.989989-24.791472-44.013672-60.389406-44.013672-97.78s16.023683-72.988528 44.013672-97.78c27.97232 24.801702 43.983207 60.395844 43.983207 97.78s-16.010887 72.978298-43.983207 97.78zm-86.39 32.57c-71.99584 0-130.36-58.36416-130.36-130.36s58.36416-130.36 130.36-130.36c25.262199-.0829795 49.988725 7.2803704 71.09 21.17-30.262056 28.247594-47.443145 67.787916-47.443145 109.185s17.181089 80.937406 47.443145 109.185c-21.092751 13.883978-45.808009 21.24708-71.06 21.17zm172.72 0c-25.228502.074194-49.920979-7.277904-71-21.14 30.247306-28.262023 47.417346-67.803848 47.417346-109.2s-17.17004-80.937977-47.417346-109.2c21.091644-13.8875078 45.806984-21.2541123 71.06-21.18 71.99584 0 130.36 58.36416 130.36 130.36s-58.36416 130.36-130.36 130.36z" fill="#393939"/></svg>