<svg height="471" viewBox="0 0 750 471" width="750" xmlns="http://www.w3.org/2000/svg"><path d="m0 40.004771c0-22.094025 17.914349-40.004771 39.991937-40.004771h670.016123c22.08694 0 39.99194 17.906466 39.99194 40.004771v390.990459c0 22.09402-17.91435 40.00477-39.99194 40.00477h-670.016123c-22.086937 0-39.991937-17.90647-39.991937-40.00477zm703.57762 195.043349c0 112.42453-91.51299 203.89557-204.04498 203.89557-46.90013 0-90.17077-15.87809-124.68046-42.59357-34.51426 26.71548-77.76208 42.59357-124.68092 42.59357-112.49547 0-204.006182-91.47104-204.006182-203.89557 0-112.39579 91.510712-203.853148 204.006182-203.853148 46.91884 0 90.16666 15.91733 124.68092 42.60589 34.50969-26.68856 77.78033-42.60589 124.68046-42.60589 112.53199 0 204.04498 91.457358 204.04498 203.853148zm-204.04498-185.595436c-41.38058 0-79.5791 13.549576-110.48214 36.410494 30.17258 28.034392 51.80334 65.074462 60.68756 106.746022h-18.69978c-8.71987-37.28277-28.72536-70.25341-56.1861-95.107985-27.44249 24.854575-47.43884 57.825215-56.16784 95.107985h-18.69066c8.87509-41.67156 30.51498-78.71163 60.66474-106.746022-30.86196-22.860918-69.09699-36.410494-110.48716-36.410494-102.56395 0-185.734171 83.081256-185.734171 185.595436 0 102.51281 83.170221 185.65428 185.734171 185.65428 41.39017 0 79.6252-13.56006 110.48716-36.42053-26.3468-24.53066-46.20162-55.86303-56.72939-91.2662h19.11524c10.1671 30.9423 28.25056 58.26546 51.80791 79.6382 23.61213-21.37274 41.65907-48.6959 51.82616-79.6382h19.11067c-10.49124 35.40317-30.37802 66.73554-56.73851 91.2662 30.90304 22.86047 69.10156 36.42053 110.48214 36.42053 102.59316 0 185.75152-83.14147 185.75152-185.65428 0-102.51418-83.15836-185.595436-185.75152-185.595436zm-128.37842 229.106906c-7.54657 1.93892-14.85574 2.89195-22.5621 2.89195-24.57086 0-37.40413-11.19688-37.40413-32.63167 0-24.97958 16.29839-43.37233 38.45874-43.37233 18.09259 0 29.65669 10.3287 29.65669 26.46593 0 5.33178-.77612 10.54631-2.7027 17.96345h-43.71806c-1.57962 10.4464 6.06282 15.04414 19.07871 15.04414 7.7931 0 14.81922-1.38461 22.61688-4.53888zm-11.77867-43.41202c0-1.61637 2.42421-12.82374-10.21275-13.07876-6.98047 0-11.99782 4.66023-14.03854 13.07876zm31.24544-4.93442c0 9.24018 5.2091 15.64498 17.04712 20.36406 9.03032 3.70994 10.45471 4.77566 10.45471 8.09416 0 4.62465-3.97187 6.70043-12.85153 6.66119-6.66545-.0406-12.75567-.86042-19.90962-2.85134l-3.20489 16.81242c6.37783 1.49 15.34423 1.99594 23.29712 2.1579 23.58931 0 34.46404-7.73056 34.46404-24.42847 0-10.02441-4.52429-15.94106-15.76425-20.34809-9.35446-3.72454-10.43189-4.56945-10.43189-7.94817 0-3.97956 3.70709-5.99831 10.96147-5.99831 4.38276 0 10.38624.40968 16.09296 1.11179l3.1775-16.97073c-5.78433-.77009-14.60921-1.42202-19.6996-1.42202-25.0411 0-33.71075 11.2466-33.63314 24.76561zm-94.20657 50.06227h-18.36423l.44969-7.69863c-5.59259 6.02341-13.0273 8.87475-23.16381 8.87475-11.95946 0-20.1808-8.18495-20.1808-19.92883 0-17.87449 14.27229-28.1854 38.78106-28.1854 2.50548 0 5.73685.15329 9.01479.52921.67249-2.41474.85419-3.43073.85419-4.73323 0-4.89564-3.83766-6.68993-14.17778-6.68993-10.15614.0424-17.01106 1.5484-23.3688 3.25738l3.12774-16.39864c11.01215-2.77652 18.22407-3.85456 26.36323-3.85456 18.97553 0 29.01936 7.40801 29.01936 21.39556.15066 3.71587-1.15047 11.22744-1.80332 14.47615-.75329 4.78295-5.99891 32.40173-6.55132 38.95617zm-16.10254-32.6262c-2.31145-.25867-3.33866-.32984-4.94019-.32984-12.52786 0-18.84451 3.69808-18.84451 11.06686 0 4.66525 3.0871 7.51659 7.91636 7.51659 8.97188 0 15.48302-7.51659 15.86834-18.25361zm203.89935 15.32243c-1.52484.52374-3.44229.7304-5.94869.7304-5.21822 0-7.50091-1.63234-7.50091-5.41755 0-2.36137 6.17695-33.34655 6.17695-33.34655h11.26736l3.01314-17.82249h-11.20343l3.33729-17.47713h-21.84077s-9.77904 52.82145-10.38623 56.46387c-.61176 3.6228-3.38751 16.62355-3.01315 19.38913 0 10.22194 6.1313 15.96021 17.39865 15.96021 5.04475 0 9.75622-.6679 15.76425-2.32168zm104.61106-40.12043c-11.06191 0-17.95106 13.09154-17.95106 24.673 0 9.78398 4.68864 16.29736 12.49087 16.19562 10.69668 0 17.46257-9.789 17.46257-26.26793 0-7.49378-3.0588-14.60069-12.00238-14.60069zm-7.29547 58.60032c-24.60282 0-34.52795-14.9424-34.52795-33.20194 0-25.5211 16.80515-42.80206 42.81867-42.80206 22.59862 0 34.59644 14.22979 34.59644 32.48933 0 30.28627-18.01042 43.51467-42.88716 43.51467zm-76.00441-74.38763c-2.77118 22.63965-7.70635 45.59273-11.53214 68.23786l-.94047 4.97365h22.08273c7.94833-43.80163 10.60081-56.28366 27.25987-51.87481.85829-2.35041 8.02594-20.70439 8.02594-20.70439-11.60976-4.27336-19.10611 1.84311-25.872 10.46283.6072-3.91888 1.75767-7.66486 1.47005-11.09514zm-267.19602-16.22619h-35.72408l-24.1609 55.34477-1.81382-55.34477h-34.3152l-16.98275 89.4377h19.93609l13.09852-68.34279 3.64546 68.34279h20.03561l30.06028-68.76159-13.05744 68.76159h21.96175z" fill="#393939" fill-rule="evenodd"/></svg>