<?xml version="1.0" encoding="UTF-8" standalone="no"?>
<svg
   xmlns:sketch="http://www.bohemiancoding.com/sketch/ns"
   xmlns:dc="http://purl.org/dc/elements/1.1/"
   xmlns:cc="http://creativecommons.org/ns#"
   xmlns:rdf="http://www.w3.org/1999/02/22-rdf-syntax-ns#"
   xmlns:svg="http://www.w3.org/2000/svg"
   xmlns="http://www.w3.org/2000/svg"
   xmlns:sodipodi="http://sodipodi.sourceforge.net/DTD/sodipodi-0.dtd"
   xmlns:inkscape="http://www.inkscape.org/namespaces/inkscape"
   width="750px"
   height="471px"
   viewBox="0 0 750 471"
   version="1.1"
   id="svg2"
   inkscape:version="0.91 r13725"
   sodipodi:docname="maestro.svg">
  <metadata
     id="metadata15">
    <rdf:RDF>
      <cc:Work
         rdf:about="">
        <dc:format>image/svg+xml</dc:format>
        <dc:type
           rdf:resource="http://purl.org/dc/dcmitype/StillImage" />
      </cc:Work>
    </rdf:RDF>
  </metadata>
  <sodipodi:namedview
     pagecolor="#ffffff"
     bordercolor="#666666"
     borderopacity="1"
     objecttolerance="10"
     gridtolerance="10"
     guidetolerance="10"
     inkscape:pageopacity="0"
     inkscape:pageshadow="2"
     inkscape:window-width="1440"
     inkscape:window-height="851"
     id="namedview13"
     showgrid="false"
     inkscape:zoom="0.768"
     inkscape:cx="499.23885"
     inkscape:cy="189.4823"
     inkscape:window-x="0"
     inkscape:window-y="300"
     inkscape:window-maximized="1"
     inkscape:current-layer="svg2" />
  <!-- Generator: Sketch 3.3.1 (12005) - http://www.bohemiancoding.com/sketch -->
  <title
     id="title4">maestro</title>
  <desc
     id="desc6">Created with Sketch.</desc>
  <defs
     id="defs8" />
  <g
     id="Page-1"
     stroke="none"
     stroke-width="1"
     fill="none"
     fill-rule="evenodd"
     sketch:type="MSPage">
    <g
       id="maestro"
       sketch:type="MSLayerGroup"
       fill="#393939">
      <path
         d="M 0,40.004771 C 0,17.910746 17.914349,0 39.991937,0 L 710.00806,0 C 732.095,0 750,17.906466 750,40.004771 l 0,390.990459 C 750,453.08925 732.08565,471 710.00806,471 L 39.991937,471 C 17.905,471 0,453.09353 0,430.99523 Z M 703.57762,235.04812 c 0,112.42453 -91.51299,203.89557 -204.04498,203.89557 -46.90013,0 -90.17077,-15.87809 -124.68046,-42.59357 -34.51426,26.71548 -77.76208,42.59357 -124.68092,42.59357 -112.49547,0 -204.006182,-91.47104 -204.006182,-203.89557 0,-112.39579 91.510712,-203.853148 204.006182,-203.853148 46.91884,0 90.16666,15.91733 124.68092,42.60589 34.50969,-26.68856 77.78033,-42.60589 124.68046,-42.60589 112.53199,0 204.04498,91.457358 204.04498,203.853148 z M 499.53264,49.452684 c -41.38058,0 -79.5791,13.549576 -110.48214,36.410494 30.17258,28.034392 51.80334,65.074462 60.68756,106.746022 l -18.69978,0 c -8.71987,-37.28277 -28.72536,-70.25341 -56.1861,-95.107985 -27.44249,24.854575 -47.43884,57.825215 -56.16784,95.107985 l -18.69066,0 C 308.86877,150.93764 330.50866,113.89757 360.65842,85.863178 329.79646,63.00226 291.56143,49.452684 250.17126,49.452684 c -102.56395,0 -185.734171,83.081256 -185.734171,185.595436 0,102.51281 83.170221,185.65428 185.734171,185.65428 41.39017,0 79.6252,-13.56006 110.48716,-36.42053 -26.3468,-24.53066 -46.20162,-55.86303 -56.72939,-91.2662 l 19.11524,0 c 10.1671,30.9423 28.25056,58.26546 51.80791,79.6382 23.61213,-21.37274 41.65907,-48.6959 51.82616,-79.6382 l 19.11067,0 c -10.49124,35.40317 -30.37802,66.73554 -56.73851,91.2662 30.90304,22.86047 69.10156,36.42053 110.48214,36.42053 102.59316,0 185.75152,-83.14147 185.75152,-185.65428 0,-102.51418 -83.15836,-185.595436 -185.75152,-185.595436 z M 371.15422,278.55959 c -7.54657,1.93892 -14.85574,2.89195 -22.5621,2.89195 -24.57086,0 -37.40413,-11.19688 -37.40413,-32.63167 0,-24.97958 16.29839,-43.37233 38.45874,-43.37233 18.09259,0 29.65669,10.3287 29.65669,26.46593 0,5.33178 -0.77612,10.54631 -2.7027,17.96345 l -43.71806,0 c -1.57962,10.4464 6.06282,15.04414 19.07871,15.04414 7.7931,0 14.81922,-1.38461 22.61688,-4.53888 l -3.42403,18.17741 z m -11.77867,-43.41202 c 0,-1.61637 2.42421,-12.82374 -10.21275,-13.07876 -6.98047,0 -11.99782,4.66023 -14.03854,13.07876 l 24.25129,0 z m 31.24544,-4.93442 c 0,9.24018 5.2091,15.64498 17.04712,20.36406 9.03032,3.70994 10.45471,4.77566 10.45471,8.09416 0,4.62465 -3.97187,6.70043 -12.85153,6.66119 -6.66545,-0.0406 -12.75567,-0.86042 -19.90962,-2.85134 l -3.20489,16.81242 c 6.37783,1.49 15.34423,1.99594 23.29712,2.1579 23.58931,0 34.46404,-7.73056 34.46404,-24.42847 0,-10.02441 -4.52429,-15.94106 -15.76425,-20.34809 -9.35446,-3.72454 -10.43189,-4.56945 -10.43189,-7.94817 0,-3.97956 3.70709,-5.99831 10.96147,-5.99831 4.38276,0 10.38624,0.40968 16.09296,1.11179 l 3.1775,-16.97073 c -5.78433,-0.77009 -14.60921,-1.42202 -19.6996,-1.42202 -25.0411,0 -33.71075,11.2466 -33.63314,24.76561 z m -94.20657,50.06227 -18.36423,0 0.44969,-7.69863 c -5.59259,6.02341 -13.0273,8.87475 -23.16381,8.87475 -11.95946,0 -20.1808,-8.18495 -20.1808,-19.92883 0,-17.87449 14.27229,-28.1854 38.78106,-28.1854 2.50548,0 5.73685,0.15329 9.01479,0.52921 0.67249,-2.41474 0.85419,-3.43073 0.85419,-4.73323 0,-4.89564 -3.83766,-6.68993 -14.17778,-6.68993 -10.15614,0.0424 -17.01106,1.5484 -23.3688,3.25738 l 3.12774,-16.39864 c 11.01215,-2.77652 18.22407,-3.85456 26.36323,-3.85456 18.97553,0 29.01936,7.40801 29.01936,21.39556 0.15066,3.71587 -1.15047,11.22744 -1.80332,14.47615 -0.75329,4.78295 -5.99891,32.40173 -6.55132,38.95617 z m -16.10254,-32.6262 c -2.31145,-0.25867 -3.33866,-0.32984 -4.94019,-0.32984 -12.52786,0 -18.84451,3.69808 -18.84451,11.06686 0,4.66525 3.0871,7.51659 7.91636,7.51659 8.97188,0 15.48302,-7.51659 15.86834,-18.25361 z m 203.89935,15.32243 c -1.52484,0.52374 -3.44229,0.7304 -5.94869,0.7304 -5.21822,0 -7.50091,-1.63234 -7.50091,-5.41755 0,-2.36137 6.17695,-33.34655 6.17695,-33.34655 l 11.26736,0 3.01314,-17.82249 -11.20343,0 3.33729,-17.47713 -21.84077,0 c 0,0 -9.77904,52.82145 -10.38623,56.46387 -0.61176,3.6228 -3.38751,16.62355 -3.01315,19.38913 0,10.22194 6.1313,15.96021 17.39865,15.96021 5.04475,0 9.75622,-0.6679 15.76425,-2.32168 l 2.93554,-16.15821 z m 104.61106,-40.12043 c -11.06191,0 -17.95106,13.09154 -17.95106,24.673 0,9.78398 4.68864,16.29736 12.49087,16.19562 10.69668,0 17.46257,-9.789 17.46257,-26.26793 0,-7.49378 -3.0588,-14.60069 -12.00238,-14.60069 z m -7.29547,58.60032 c -24.60282,0 -34.52795,-14.9424 -34.52795,-33.20194 0,-25.5211 16.80515,-42.80206 42.81867,-42.80206 22.59862,0 34.59644,14.22979 34.59644,32.48933 0,30.28627 -18.01042,43.51467 -42.88716,43.51467 z m -76.00441,-74.38763 c -2.77118,22.63965 -7.70635,45.59273 -11.53214,68.23786 l -0.94047,4.97365 22.08273,0 c 7.94833,-43.80163 10.60081,-56.28366 27.25987,-51.87481 0.85829,-2.35041 8.02594,-20.70439 8.02594,-20.70439 -11.60976,-4.27336 -19.10611,1.84311 -25.872,10.46283 0.6072,-3.91888 1.75767,-7.66486 1.47005,-11.09514 l -20.49398,0 z m -267.19602,-16.22619 -35.72408,0 -24.1609,55.34477 -1.81382,-55.34477 -34.3152,0 -16.98275,89.4377 19.93609,0 13.09852,-68.34279 3.64546,68.34279 20.03561,0 30.06028,-68.76159 -13.05744,68.76159 21.96175,0 17.31648,-89.4377 z"
         id="Rectangle-1"
         sketch:type="MSShapeGroup"
         inkscape:connector-curvature="0"
         sodipodi:nodetypes="ssssssssscscssscsccccccccccssscccccccsscccssssccsccccccccccsccccscssccscccccssscscccscccccssscccssccccccccsccccscscccsssccccccccccccccccccccccccccc" />
    </g>
  </g>
</svg>
