<svg id="Layer_1" data-name="Layer 1" xmlns="http://www.w3.org/2000/svg" width="750" height="471" viewBox="0 0 750 471">
  <title>maestro</title>
  <path d="M40,0H710a40,40,0,0,1,40,40V431a40,40,0,0,1-40,40H40A40,40,0,0,1,0,431V40A40,40,0,0,1,40,0ZM320.68,386.34c-2.73-3.56-6.87-5.79-12.49-5.79-11.09,0-19.77,8.69-19.77,20.77s8.69,20.77,19.77,20.77c5.63,0,9.76-2.23,12.49-5.79v4.8h8.61V381.54h-8.61ZM309.26,414c-7.45,0-12-5.71-12-12.66s4.55-12.66,12-12.66c7.12,0,11.91,5.46,11.91,12.66S316.38,414,309.26,414Zm-44-33.43c-5-.08-10.26,1.49-13.9,7-2.73-4.38-7-7-13.07-7a13.08,13.08,0,0,0-11.58,5.87v-4.88h-8.61v39.55h8.69V399.16c0-6.87,3.81-10.51,9.68-10.51,5.71,0,8.61,3.72,8.61,10.42v22h8.69V399.16c0-6.87,4-10.51,9.68-10.51,5.87,0,8.69,3.72,8.69,10.42v22h8.69V396.27C280.8,386.92,274.84,380.63,265.24,380.55ZM473,386.34v-4.8h-8.52v39.55h8.6V398.91c0-6.54,2.81-10.18,8.44-10.18a14,14,0,0,1,5.38,1l2.65-8.11a18.38,18.38,0,0,0-6.12-1.08A11.66,11.66,0,0,0,473,386.34Zm60.06,6.72a20,20,0,0,0-4.46-6.59,20.71,20.71,0,0,0-6.75-4.38,23.44,23.44,0,0,0-17,0,20.48,20.48,0,0,0-6.73,4.38,20.23,20.23,0,0,0-4.44,6.59,22,22,0,0,0,0,16.52,20.21,20.21,0,0,0,4.44,6.59,20.47,20.47,0,0,0,6.73,4.38,23.43,23.43,0,0,0,17,0,20.69,20.69,0,0,0,6.75-4.38,20,20,0,0,0,4.46-6.59,22,22,0,0,0,0-16.52Zm-8.22,13.4a12,12,0,0,1-2.62,4,11.86,11.86,0,0,1-3.94,2.6,13.46,13.46,0,0,1-9.83,0,11.62,11.62,0,0,1-3.92-2.6,12.11,12.11,0,0,1-2.6-4,14.39,14.39,0,0,1,0-10.28,12.13,12.13,0,0,1,2.6-4,11.62,11.62,0,0,1,3.92-2.6,13.46,13.46,0,0,1,9.83,0,11.86,11.86,0,0,1,3.94,2.6,12,12,0,0,1,2.62,4,14.39,14.39,0,0,1,0,10.28ZM357.32,380.55c-11.58,0-19.69,8.44-19.69,20.77,0,12.58,8.44,20.77,20.27,20.77,6,0,11.42-1.49,16.22-5.54l-4.22-6.37a18.84,18.84,0,0,1-11.5,4.14c-5.54,0-10.59-2.56-11.83-9.68h29.37c.08-1.08.17-2.15.17-3.31C376,389,368.41,380.55,357.32,380.55Zm-10.67,17.29c.91-5.71,4.38-9.6,10.51-9.6,5.54,0,9.1,3.47,10,9.6Zm98.68,16.05c-4.3,0-5.71-2.65-5.71-6.62V389.4h14.06v-7.86H439.62v-12h-8.69v12h-8v7.86h8v18c0,9.18,3.56,14.65,13.73,14.65A20.22,20.22,0,0,0,455.42,419l-2.48-7.36A15.89,15.89,0,0,1,445.33,413.89Zm-42.09-16.55-4.05-.58c-3.72-.5-6.7-1.24-6.7-3.89,0-2.9,2.81-4.63,7.53-4.63a25.49,25.49,0,0,1,12.33,3.39l3.72-6.95c-4.14-2.73-9.85-4.14-16.13-4.14-10,0-16.46,4.8-16.46,12.66,0,6.45,4.8,10.42,13.65,11.67l4.05.58c4.72.66,6.95,1.9,6.95,4.14,0,3.06-3.14,4.8-9,4.8a21.07,21.07,0,0,1-13.16-4.14l-4.05,6.7c4.72,3.48,10.67,5.13,17.13,5.13,11.42,0,18-5.38,18-12.91C417.06,402.22,411.85,398.58,403.24,397.34ZM566.82,92.52A148.91,148.91,0,0,0,375,76.57,149,149,0,0,0,139.54,198,149,149,0,0,0,375,319.38,149,149,0,0,0,610.46,198,148.15,148.15,0,0,0,566.82,92.52ZM375,295.77a130.62,130.62,0,0,1,0-195.56,130.68,130.68,0,0,1,0,195.56Zm-86.39,32.57a130.36,130.36,0,1,1,0-260.72A128.53,128.53,0,0,1,359.7,88.79a149.36,149.36,0,0,0,0,218.37A128.53,128.53,0,0,1,288.64,328.33Zm172.72,0a128.53,128.53,0,0,1-71-21.14,149.45,149.45,0,0,0,0-218.4,128.53,128.53,0,0,1,71.06-21.18,130.36,130.36,0,0,1,0,260.72Z" fill="#393939"/>
</svg>
