<svg height="471" viewBox="0 0 750 471" width="750" xmlns="http://www.w3.org/2000/svg"><path d="m40 0h670c22.09139 0 40 17.90861 40 40v391c0 22.09139-17.90861 40-40 40h-670c-22.09139 0-40-17.90861-40-40v-391c0-22.09139 17.90861-40 40-40zm180.13 421.67v-24.85c0-9.53-5.8-15.74-15.32-15.74-5 0-10.35 1.66-14.08 7-2.9-4.56-7-7-13.25-7-4.720085-.203992-9.227466 1.974575-12 5.8v-5h-7.87v39.76h7.87v-22.75c0-7 4.14-10.35 9.94-10.35s9.11 3.73 9.11 10.35v22.78h7.87v-22.78c0-7 4.14-10.35 9.94-10.35s9.11 3.73 9.11 10.35v22.78zm129.22-39.35h-14.5v-12h-7.85v12h-8.28v7h8.28v18.68c0 9.11 3.31 14.5 13.25 14.5 3.765784-.078517 7.455651-1.073923 10.75-2.9l-2.49-7c-2.234315 1.396557-4.825525 2.115565-7.46 2.07-4.14 0-6.21-2.49-6.21-6.63v-19.04h14.5v-6.63zm73.72-1.24c-4.360645-.097154-8.451164 2.105726-10.77 5.8v-5h-7.87v39.76h7.87v-22.33c0-6.63 3.31-10.77 8.7-10.77 1.818809.073783 3.62352.352205 5.38.83l2.49-7.46c-1.898987-.47874-3.84296-.756929-5.8-.83zm-111.41 4.14c-4.14-2.9-9.94-4.14-16.15-4.14-9.94 0-16.15 4.56-16.15 12.43 0 6.63 4.56 10.35 13.25 11.6l4.14.41c4.56.83 7.46 2.49 7.46 4.56 0 2.9-3.31 5-9.53 5-4.749373.097716-9.401111-1.355733-13.25-4.14l-4.14 6.21c5.8 4.14 12.84 5 17 5 11.6 0 17.81-5.38 17.81-12.84 0-7-5-10.35-13.67-11.6l-4.14-.41c-3.73-.41-7-1.66-7-4.14 0-2.9 3.31-5 7.87-5 5 0 9.94 2.07 12.43 3.31zm120.11 16.57c0 12 7.87 20.71 20.71 20.71 5.8 0 9.94-1.24 14.08-4.56l-4.14-6.21c-2.931242 2.37388-6.578297 3.68823-10.35 3.73-7 0-12.43-5.38-12.43-13.25s5.36-13.21 12.43-13.21c3.771703.04177 7.418758 1.35612 10.35 3.73l4.14-6.21c-4.14-3.31-8.28-4.56-14.08-4.56-12.43-.83-20.71 7.87-20.71 19.88zm-55.5-20.71c-11.6 0-19.47 8.28-19.47 20.71s8.28 20.71 20.29 20.71c5.842775.123408 11.548486-1.777318 16.15-5.38l-4.14-5.8c-3.327868 2.578743-7.391402 4.029004-11.6 4.14-5.38 0-11.18-3.31-12-10.35h29.41v-3.31c0-12.43-7.46-20.71-18.64-20.71zm-.41 7.46c5.8 0 9.94 3.73 10.35 9.94h-21.53c1.24-5.8 5-9.94 11.18-9.94zm-107.27 13.25v-19.88h-7.87v5c-2.9-3.73-7-5.8-12.84-5.8-11.18 0-19.47 8.7-19.47 20.71s8.28 20.71 19.47 20.71c5.8 0 9.94-2.07 12.84-5.8v5h7.87zm-31.89 0c0-7.46 4.56-13.25 12.43-13.25 7.46 0 12 5.8 12 13.25 0 7.87-5 13.25-12 13.25-7.87.41-12.43-5.8-12.43-13.25zm306.08-20.71c-4.360645-.097154-8.451164 2.105726-10.77 5.8v-5h-7.87v39.76h7.86v-22.33c0-6.63 3.31-10.77 8.7-10.77 1.818809.073783 3.62352.352205 5.38.83l2.49-7.46c-1.898987-.47874-3.84296-.756929-5.8-.83zm-30.65 20.71v-19.88h-7.87v5c-2.9-3.73-7-5.8-12.84-5.8-11.18 0-19.47 8.7-19.47 20.71s8.28 20.71 19.47 20.71c5.8 0 9.94-2.07 12.84-5.8v5h7.87zm-31.89 0c0-7.46 4.56-13.25 12.43-13.25 7.46 0 12 5.8 12 13.25 0 7.87-5 13.25-12 13.25-7.87.41-12.43-5.8-12.43-13.25zm111.83 0v-35.62h-7.87v20.71c-2.9-3.73-7-5.8-12.84-5.8-11.18 0-19.47 8.7-19.47 20.71s8.28 20.71 19.47 20.71c5.8 0 9.94-2.07 12.84-5.8v5h7.87zm-31.89 0c0-7.46 4.56-13.25 12.43-13.25 7.46 0 12 5.8 12 13.25 0 7.87-5 13.25-12 13.25-7.88.42-12.44-5.79-12.44-13.25zm6.65-309.65c-51.453967-51.4823473-132.584587-58.223848-191.83-15.94-45.437377-32.3736034-105.153309-36.6511663-154.741063-11.0843892s-80.737899 76.6936632-80.718937 132.4843892c-.018962 55.790726 31.131183 106.917612 80.718937 132.484389s109.303686 21.289214 154.741063-11.084389c45.437377 32.373603 105.153309 36.651166 154.741063 11.084389s80.737899-76.693663 80.718937-132.484389c.118631-39.567291-15.595354-77.537953-43.64-105.45zm-191.83 203.26c-27.989989-24.791472-44.013672-60.389406-44.013672-97.78s16.023683-72.988528 44.013672-97.78c27.97232 24.801702 43.983207 60.395844 43.983207 97.78s-16.010887 72.978298-43.983207 97.78zm-86.36 32.6c-71.99584 0-130.36-58.36416-130.36-130.36s58.36416-130.36 130.36-130.36c25.248918-.0859845 49.963928 7.2666092 71.06 21.14-30.262056 28.247594-47.443145 67.787916-47.443145 109.185s17.181089 80.937406 47.443145 109.185c-21.088321 13.898097-45.80391 21.27521-71.06 21.21zm172.72 0c-25.228502.074194-49.920979-7.277904-71-21.14 30.247306-28.262023 47.417346-67.803848 47.417346-109.2s-17.17004-80.937977-47.417346-109.2c21.091644-13.8875078 45.806984-21.2541123 71.06-21.18 71.99584 0 130.36 58.36416 130.36 130.36s-58.36416 130.36-130.36 130.36z" fill="#393939"/></svg>