<svg width="750" height="471" viewBox="0 0 750 471" version="1.1" xmlns="http://www.w3.org/2000/svg" xmlns:xlink="http://www.w3.org/1999/xlink">
    <!-- Generator: Sketch 48.2 (47327) - http://www.bohemiancoding.com/sketch -->
    <desc>Created with Sketch.</desc>
    <defs></defs>
    <g id="Page-1" stroke="none" stroke-width="1" fill="none" fill-rule="evenodd">
        <g id="mastercard" fill="#393939" fill-rule="nonzero">
            <path d="M40,0 L710,0 C732.09139,1.3527075e-15 750,17.90861 750,40 L750,431 C750,453.09139 732.09139,471 710,471 L40,471 C17.90861,471 2.705415e-15,453.09139 0,431 L0,40 C-2.705415e-15,17.90861 17.90861,4.05812251e-15 40,0 Z M220.13,421.67 L220.13,396.82 C220.13,387.29 214.33,381.08 204.81,381.08 C199.81,381.08 194.46,382.74 190.73,388.08 C187.83,383.52 183.73,381.08 177.48,381.08 C172.759915,380.876008 168.252534,383.054575 165.48,386.88 L165.48,381.88 L157.61,381.88 L157.61,421.64 L165.48,421.64 L165.48,398.89 C165.48,391.89 169.62,388.54 175.42,388.54 C181.22,388.54 184.53,392.27 184.53,398.89 L184.53,421.67 L192.4,421.67 L192.4,398.89 C192.4,391.89 196.54,388.54 202.34,388.54 C208.14,388.54 211.45,392.27 211.45,398.89 L211.45,421.67 L220.13,421.67 Z M349.35,382.32 L334.85,382.32 L334.85,370.32 L327,370.32 L327,382.32 L318.72,382.32 L318.72,389.32 L327,389.32 L327,408 C327,417.11 330.31,422.5 340.25,422.5 C344.015784,422.421483 347.705651,421.426077 351,419.6 L348.51,412.6 C346.275685,413.996557 343.684475,414.715565 341.05,414.67 C336.91,414.67 334.84,412.18 334.84,408.04 L334.84,389 L349.34,389 L349.34,382.37 L349.35,382.32 Z M423.07,381.08 C418.709355,380.982846 414.618836,383.185726 412.3,386.88 L412.3,381.88 L404.43,381.88 L404.43,421.64 L412.3,421.64 L412.3,399.31 C412.3,392.68 415.61,388.54 421,388.54 C422.818809,388.613783 424.62352,388.892205 426.38,389.37 L428.87,381.91 C426.971013,381.43126 425.02704,381.153071 423.07,381.08 Z M311.66,385.22 C307.52,382.32 301.72,381.08 295.51,381.08 C285.57,381.08 279.36,385.64 279.36,393.51 C279.36,400.14 283.92,403.86 292.61,405.11 L296.75,405.52 C301.31,406.35 304.21,408.01 304.21,410.08 C304.21,412.98 300.9,415.08 294.68,415.08 C289.930627,415.177716 285.278889,413.724267 281.43,410.94 L277.29,417.15 C283.09,421.29 290.13,422.15 294.29,422.15 C305.89,422.15 312.1,416.77 312.1,409.31 C312.1,402.31 307.1,398.96 298.43,397.71 L294.29,397.3 C290.56,396.89 287.29,395.64 287.29,393.16 C287.29,390.26 290.6,388.16 295.16,388.16 C300.16,388.16 305.1,390.23 307.59,391.47 L311.66,385.22 Z M431.77,401.79 C431.77,413.79 439.64,422.5 452.48,422.5 C458.28,422.5 462.42,421.26 466.56,417.94 L462.42,411.73 C459.488758,414.10388 455.841703,415.41823 452.07,415.46 C445.07,415.46 439.64,410.08 439.64,402.21 C439.64,394.34 445,389 452.07,389 C455.841703,389.04177 459.488758,390.35612 462.42,392.73 L466.56,386.52 C462.42,383.21 458.28,381.96 452.48,381.96 C440.05,381.13 431.77,389.83 431.77,401.84 L431.77,401.79 Z M376.27,381.08 C364.67,381.08 356.8,389.36 356.8,401.79 C356.8,414.22 365.08,422.5 377.09,422.5 C382.932775,422.623408 388.638486,420.722682 393.24,417.12 L389.1,411.32 C385.772132,413.898743 381.708598,415.349004 377.5,415.46 C372.12,415.46 366.32,412.15 365.5,405.11 L394.91,405.11 L394.91,401.8 C394.91,389.37 387.45,381.09 376.27,381.09 L376.27,381.08 Z M375.86,388.54 C381.66,388.54 385.8,392.27 386.21,398.48 L364.68,398.48 C365.92,392.68 369.68,388.54 375.86,388.54 Z M268.59,401.79 L268.59,381.91 L260.72,381.91 L260.72,386.91 C257.82,383.18 253.72,381.11 247.88,381.11 C236.7,381.11 228.41,389.81 228.41,401.82 C228.41,413.83 236.69,422.53 247.88,422.53 C253.68,422.53 257.82,420.46 260.72,416.73 L260.72,421.73 L268.59,421.73 L268.59,401.79 Z M236.7,401.79 C236.7,394.33 241.26,388.54 249.13,388.54 C256.59,388.54 261.13,394.34 261.13,401.79 C261.13,409.66 256.13,415.04 249.13,415.04 C241.26,415.45 236.7,409.24 236.7,401.79 Z M542.78,381.08 C538.419355,380.982846 534.328836,383.185726 532.01,386.88 L532.01,381.88 L524.14,381.88 L524.14,421.64 L532,421.64 L532,399.31 C532,392.68 535.31,388.54 540.7,388.54 C542.518809,388.613783 544.32352,388.892205 546.08,389.37 L548.57,381.91 C546.671013,381.43126 544.72704,381.153071 542.77,381.08 L542.78,381.08 Z M512.13,401.79 L512.13,381.91 L504.26,381.91 L504.26,386.91 C501.36,383.18 497.26,381.11 491.42,381.11 C480.24,381.11 471.95,389.81 471.95,401.82 C471.95,413.83 480.23,422.53 491.42,422.53 C497.22,422.53 501.36,420.46 504.26,416.73 L504.26,421.73 L512.13,421.73 L512.13,401.79 Z M480.24,401.79 C480.24,394.33 484.8,388.54 492.67,388.54 C500.13,388.54 504.67,394.34 504.67,401.79 C504.67,409.66 499.67,415.04 492.67,415.04 C484.8,415.45 480.24,409.24 480.24,401.79 Z M592.07,401.79 L592.07,366.17 L584.2,366.17 L584.2,386.88 C581.3,383.15 577.2,381.08 571.36,381.08 C560.18,381.08 551.89,389.78 551.89,401.79 C551.89,413.8 560.17,422.5 571.36,422.5 C577.16,422.5 581.3,420.43 584.2,416.7 L584.2,421.7 L592.07,421.7 L592.07,401.79 Z M560.18,401.79 C560.18,394.33 564.74,388.54 572.61,388.54 C580.07,388.54 584.61,394.34 584.61,401.79 C584.61,409.66 579.61,415.04 572.61,415.04 C564.73,415.46 560.17,409.25 560.17,401.79 L560.18,401.79 Z M566.83,92.14 C515.376033,40.6576527 434.245413,33.916152 375,76.2 C329.562623,43.8263966 269.846691,39.5488337 220.258937,65.1156108 C170.671183,90.6823879 139.521038,141.809274 139.54,197.6 C139.521038,253.390726 170.671183,304.517612 220.258937,330.084389 C269.846691,355.651166 329.562623,351.373603 375,319 C420.437377,351.373603 480.153309,355.651166 529.741063,330.084389 C579.328817,304.517612 610.478962,253.390726 610.46,197.6 C610.578631,158.032709 594.864646,120.062047 566.82,92.15 L566.83,92.14 Z M375,295.4 C347.010011,270.608528 330.986328,235.010594 330.986328,197.62 C330.986328,160.229406 347.010011,124.631472 375,99.84 C402.97232,124.641702 418.983207,160.235844 418.983207,197.62 C418.983207,235.004156 402.97232,270.598298 375,295.4 Z M288.64,328 C216.64416,328 158.28,269.63584 158.28,197.64 C158.28,125.64416 216.64416,67.28 288.64,67.28 C313.888918,67.1940155 338.603928,74.5466092 359.7,88.42 C329.437944,116.667594 312.256855,156.207916 312.256855,197.605 C312.256855,239.002084 329.437944,278.542406 359.7,306.79 C338.611679,320.688097 313.89609,328.06521 288.64,328 Z M461.36,328 C436.131498,328.074194 411.439021,320.722096 390.36,306.86 C420.607306,278.597977 437.777346,239.056152 437.777346,197.66 C437.777346,156.263848 420.607306,116.722023 390.36,88.46 C411.451644,74.5724922 436.166984,67.2058877 461.42,67.28 C533.41584,67.28 591.78,125.64416 591.78,197.64 C591.78,269.63584 533.41584,328 461.42,328 L461.36,328 Z" id="Shape"></path>
        </g>
    </g>
</svg>
