<svg height="471" viewBox="0 0 750 471" width="750" xmlns="http://www.w3.org/2000/svg"><path d="m0 40.004771c0-22.094025 17.914349-40.004771 39.991937-40.004771h670.016123c22.08694 0 39.99194 17.906466 39.99194 40.004771v390.990459c0 22.09402-17.91435 40.00477-39.99194 40.00477h-670.016123c-22.086937 0-39.991937-17.90647-39.991937-40.00477zm703.97468 195.475619c0 112.36221-91.6058 203.80556-204.19747 203.80556-46.96116 0-90.25335-15.94211-124.79115-42.60197-34.51495 26.65986-77.80667 42.60197-124.77013 42.60197-112.58892 0-204.190614-91.44335-204.190614-203.80556 0-112.36631 91.601694-203.766344 204.190614-203.766344 46.96346 0 90.25518 15.882374 124.77013 42.580996 34.5378-26.698622 77.82999-42.580996 124.79115-42.580996 112.59167 0 204.19747 91.400034 204.19747 203.766344zm-204.19747-185.544706c-41.41885 0-79.65762 13.54311-110.54927 36.397678 28.01769 26.023748 48.73854 59.817678 58.63977 97.902548h-18.92519c-9.69562-33.67082-28.64823-63.39726-53.95646-86.274626-25.2808 22.877366-44.24712 52.603806-53.90619 86.274626h-18.95261c9.92408-38.08487 30.64493-71.8788 58.66262-97.902548-30.90993-22.854568-69.13453-36.397678-110.57395-36.397678-102.66759 0-185.896411 83.059846-185.896411 185.544706 0 102.45842 83.228821 185.54425 185.896411 185.54425 41.43942 0 79.66402-13.54265 110.57395-36.39585-26.36368-24.50436-46.25296-55.89884-56.76645-91.23861h19.13538c10.16624 30.9435 28.21417 58.25544 51.82725 79.60704 23.64051-21.3516 41.71128-48.66354 51.87752-79.60704h19.13081c-10.53177 35.33977-30.41648 66.73425-56.76645 91.23861 30.89165 22.8532 69.13042 36.39585 110.54927 36.39585 102.66759 0 185.89824-83.08583 185.89824-185.54425 0-102.48486-83.23065-185.544706-185.89824-185.544706zm-324.80332 141.318476h-29.76721l-18.60261 55.34845-.77492-55.34845h-27.58592l-14.974299 89.42693h17.951519l11.52966-68.32111 1.61015 68.32111h13.07904l24.51045-68.72923-10.98182 68.72923h19.17239zm35.65494 57.0174c-2.0168-.2052-2.89498-.28499-4.27988-.28499-10.88038 0-16.36147 3.71728-16.36147 11.04014 0 4.53671 2.68983 7.42226 6.84679 7.42226 7.82458 0 13.44639-7.42226 13.79456-18.17741zm13.93391 32.40953h-15.89177l.36918-7.54356c-4.85101 5.95806-11.30988 8.80804-20.08757 8.80804-10.41251 0-17.50192-8.11355-17.50192-19.84818 0-17.73235 12.36488-28.04016 33.63631-28.04016 2.17946 0 4.97072.20291 7.82275.56817.59261-2.42089.73562-3.43594.73562-4.73827 0-4.79845-3.32356-6.60831-12.28858-6.60831-9.3703-.12266-17.11264 2.21752-20.29136 3.27406.20516-1.22024 2.67018-16.3484 2.67018-16.3484 9.53616-2.80529 15.84883-3.86321 22.94006-3.86321 16.46291 0 25.18349 7.35979 25.16384 21.31057.0196 3.74054-.59261 8.35568-1.54938 14.43868-1.67046 10.50937-5.23664 33.08122-5.72736 38.59057zm250.44541-91.62347c-25.40875 0-43.17796 22.32607-43.17796 54.29419 0 23.74741 12.862 38.59376 33.50061 38.59376 5.29558 0 9.87838-.69448 16.9285-2.64478l3.36286-20.35616c-6.33734 3.11354-11.55068 4.59553-16.28426 4.59553-11.14403 0-17.86974-8.21524-17.86974-21.77932 0-19.70226 10.01089-33.51031 24.33044-33.51031 5.31843 0 10.2896 1.38395 17.13411 4.84132l3.13897-19.39765c-2.81-1.09713-12.69295-4.63658-21.06353-4.63658zm55.25407 59.21394c-1.99669-.2052-2.89223-.28499-4.29952-.28499-10.86074 0-16.36193 3.71728-16.36193 11.04014 0 4.53671 2.6912 7.42226 6.8902 7.42226 7.80401 0 13.44685-7.42226 13.77125-18.17741zm13.93575 32.40953h-15.86848l.36553-7.54356c-4.87065 5.95806-11.34963 8.80804-20.11316 8.80804-10.39012 0-17.52248-8.11355-17.52248-19.84818 0-17.73235 12.40966-28.04016 33.66053-28.04016 2.17946 0 4.97118.20291 7.82686.56817.58484-2.42089.73106-3.43594.73106-4.73827 0-4.79845-3.32174-6.60831-12.26803-6.60831-9.38949-.12266-17.11126 2.21752-20.29135 3.27406.18276-1.22024 2.65007-16.3484 2.65007-16.3484 9.55398-2.80529 15.86847-3.86321 22.91859-3.86321 16.4853 0 25.2077 7.35979 25.18486 21.31057.0411 3.74054-.58942 8.35568-1.54893 14.43868-1.64944 10.50937-5.23161 33.08122-5.72507 38.59057zm-225.40265-17.2034c-1.28391.45098-2.97448.6913-5.15394.6913-4.56453 0-6.5795-1.62472-6.5795-5.38806.0411-2.31601 3.19837-19.51896 5.40067-33.327h9.83727l2.60895-17.4884h-9.80071l2.22058-10.97584h-19.05176s-7.21049 42.80124-8.29017 49.57188c-1.22269 7.7483-2.77024 16.18607-2.65053 19.39766 0 10.3525 5.3399 15.98634 15.13833 15.98634 4.44573 0 8.53507-.73552 13.79867-2.35978zm58.63978 15.5381c-6.56122 1.99499-12.88028 2.92978-19.5603 2.92978-21.35596-.0442-32.47713-11.16463-32.47713-32.45422 0-24.85001 14.15962-43.15008 33.37267-43.15008 15.70856 0 25.756 10.22756 25.756 26.332 0 5.32742-.71278 10.51256-2.3668 17.89606h-37.9372c-1.28392 10.50936 5.48292 14.90335 16.56754 14.90335 6.82166 0 12.95796-1.38395 19.80247-4.5545zm-10.7191-43.12774c.12337-1.50479 2.01497-13.01689-8.86405-13.01689-6.07232 0-10.43124 4.65756-12.18121 13.01689zm-127.41975-4.94255c0 9.21251 4.4407 15.53582 14.58729 20.31467 7.76381 3.65892 8.96503 4.71501 8.96503 8.03375 0 4.50981-3.42317 6.54401-11.02295 6.54401-5.70406 0-11.04259-.85499-17.17706-2.84451 0 0-2.52351 16.02237-2.64687 16.79711 4.38176.93525 8.25133 1.82581 19.96695 2.15504 20.23058 0 29.56342-7.70908 29.56342-24.30145 0-10.02281-3.89287-15.83859-13.51128-20.25447-8.02424-3.6995-8.96136-4.51346-8.96136-7.90835 0-3.94575 3.19836-5.93891 9.41142-5.93891 3.74803 0 8.90243.40812 13.75161 1.09895l2.73278-16.8769c-4.97255-.77337-12.49009-1.42317-16.87185-1.42317-21.45328 0-28.86892 11.16281-28.78713 24.60423zm412.88316 49.73559h-18.14845l.91382-6.76882c-5.2773 5.59326-10.67341 8.0333-17.6824 8.0333-13.94031 0-23.14704-11.97858-23.14704-30.15599 0-24.22165 14.27843-44.59514 31.18865-44.59514 7.42021 0 13.08132 3.01004 18.32207 9.90335l4.23556-25.84363h18.91148zm-28.29641-16.79346c8.92345 0 15.21966-10.10854 15.21966-24.50482 0-9.25172-3.5639-14.25492-10.17081-14.25492-8.69956 0-14.87241 10.10672-14.87241 24.40268 0 9.53535 3.30346 14.35706 9.82356 14.35706zm-59.14695-55.9221c-2.40334 22.4916-6.66174 45.28461-9.98347 67.81724l-.87727 4.89832h19.15365c6.86735-44.46882 8.53507-53.15237 19.27245-52.05479 1.70884-9.13088 4.88893-17.07845 7.29228-21.10445-8.04161-1.67077-12.52847 2.88601-18.37234 11.48748.46605-3.74237 1.30219-7.34247 1.11943-11.0438zm-167.57616 0c-2.40792 22.4916-6.68459 45.28461-10.00632 67.81724l-.87727 4.89832h19.17193c6.86735-44.46882 8.51679-53.15237 19.25417-52.05479 1.73168-9.13088 4.93005-17.07845 7.29684-21.10445-8.00962-1.67077-12.52846 2.88601-18.38147 11.48748.47062-3.74237 1.30219-7.34247 1.14227-11.0438z" fill="#393939" fill-rule="evenodd"/></svg>