<svg height="471" viewBox="0 0 750 471" width="750" xmlns="http://www.w3.org/2000/svg"><path d="m697.115385 0c29.158653 0 52.884615 23.1955749 52.884615 51.7065868v367.5868262c0 28.511012-23.725962 51.706587-52.884615 51.706587h-644.2307696c-29.1605769 0-52.8846154-23.195575-52.8846154-51.706587v-367.5868262c0-28.5110119 23.7240385-51.7065868 52.8846154-51.7065868zm-579.236504 242.191381c17.916337 0 31.979267-5.048403 42.189745-15.155716 10.205702-10.103492 15.314285-24.112929 15.314285-42.034043 0-12.290974-4.013887-21.19756-12.033062-26.721668-8.023951-5.515512-18.492342-8.279954-31.408038-8.279954h-50.0035461c-3.9584827 0-6.1459647 1.980197-6.5614907 5.936769l-20.3130152 127.506319c-.2111063 1.25231.1022099 2.397633.9370829 3.438837.8310522 1.044069 1.8741658 1.56276 3.1245649 1.56276h23.7508962c4.1657682 0 6.45546-1.976376 6.8757622-5.937724l5.6244079-34.374035c.2053749-1.665925.9380381-3.020445 2.1884372-4.063558 1.2484886-1.041204 2.8122037-1.723239 4.6873247-2.034645 1.875121-.309495 3.643256-.465198 5.313002-.465198 1.66497 0 3.644212.105075 5.93868.312361 2.289692.20824 3.750242.309495 4.374964.309495zm124.227007-17.96983c3.851496 3.438836 5.781066 8.179654 5.781066 14.221498 0 7.708725-2.656501 14.117379-7.969504 19.216409-5.313957 5.111448-11.828641 7.658097-19.531635 7.658097-6.045665 0-10.890603-1.664015-14.532904-4.999686-3.648988-3.328029-5.470616-7.912189-5.470616-13.751524 0-7.702993 2.603964-14.218633 7.814756-19.53068 5.204106-5.313002 11.664342-7.969503 19.374977-7.969503 5.831693 0 10.675676 1.719418 14.53386 5.155389zm42.655899-23.282833c.205374-1.250399-.106031-2.394767-.936128-3.436926-.834873-1.040248-1.875121-1.56276-3.12361-1.56276h-23.750896c-2.9211 0-4.68828 3.438837-5.313957 10.314599-5.625363-8.330581-15.522525-12.502081-29.689576-12.502081-15.000968 0-27.762872 5.626319-38.2838 16.877045-10.52284 11.250726-15.781394 24.483559-15.781394 39.690858 0 12.294795 3.59454 22.085926 10.782663 29.375304 7.188123 7.296064 16.821641 10.938365 28.90724 10.938365 5.830738 0 11.876403-1.25231 18.125533-3.750242 6.250085-2.499843 11.250726-5.832649 15.000968-10.000327-.835828 2.498888-1.250399 4.687325-1.250399 6.560535 0 3.337582 1.353565 4.999686 4.062603 4.999686h21.563415c3.954661 0 6.250085-1.976375 6.874807-5.937724zm40.942212 119.693475c2.290647 0 4.163857-1.038338 5.626318-3.122655l79.692166-115.009015c.414571-.413615.622812-1.139592.622812-2.187482 0-1.039293-.420303-2.030824-1.247534-2.966951-.835828-.937083-1.774822-1.408013-2.813159-1.408013h-24.064212c-2.296379 0-4.170545 1.046935-5.625364 3.124565l-33.126501 48.755057-13.751524-46.878025c-1.045024-3.330896-3.335671-5.001597-6.873852-5.001597h-23.442356c-1.044069 0-1.981152.469974-2.809338 1.408013-.835829.936127-1.250399 1.928614-1.250399 2.966951 0 .420302 2.031779 6.563401 6.093426 18.438849 4.061648 11.877359 8.436612 24.6918 13.123937 38.443325 4.68828 13.747703 7.13463 21.044723 7.343826 21.871954-17.085285 23.337281-25.625062 35.837451-25.625062 37.501465 0 2.71095 1.352609 4.063559 4.062603 4.063559zm147.191747-78.440812c17.919203 0 31.979267-5.048403 42.191656-15.155716 10.207612-10.103492 15.313329-24.112929 15.313329-42.034043.000955-12.290974-4.011976-21.19756-12.032106-26.721668-8.022041-5.515512-18.489477-8.279954-31.407084-8.279954h-49.690229c-4.169589 0-6.462147 1.980197-6.875762 5.936769l-20.31206 127.506319c-.212062 1.25231.100299 2.397633.936127 3.438837.827232 1.044069 1.873211 1.56276 3.124565 1.56276h25.625062c2.498888 0 4.164813-1.352609 4.999686-4.061648l5.627274-36.250111c.20633-1.665925.935172-3.020445 2.187482-4.063558 1.249444-1.041204 2.810293-1.723239 4.687325-2.034645 1.874165-.309495 3.643256-.465198 5.313957-.465198 1.66497 0 3.643256.105075 5.935814.312361 2.290647.20824 3.754063.309495 4.374964.309495zm124.228917-17.96983c3.851497 3.438836 5.782021 8.179654 5.782976 14.221498-.000955 7.499529-2.657456 13.8566-7.970458 19.061661-5.312047 5.208882-11.717835 7.812845-19.219274 7.812845-6.04471 0-10.936455-1.664015-14.688607-4.999686-3.751198-3.328029-5.626319-7.912189-5.626319-13.751524 0-7.702993 2.603964-14.218633 7.813801-19.53068 5.20315-5.313002 11.667207-7.969503 19.376887-7.969503 5.827872 0 10.672811 1.719418 14.530994 5.155389zm42.658765-23.282833c.205375-1.250399-.106986-2.394767-.939949-3.436926-.835828-1.040248-1.874166-1.56276-3.124565-1.56276h-23.752807c-2.918234 0-4.685414 3.438837-5.309181 10.314599-5.423809-8.330581-15.313329-12.502081-29.691486-12.502081-15.000968 0-27.764782 5.626319-38.282845 16.877045-10.522839 11.250726-15.781393 24.483559-15.781393 39.690858 0 12.294795 3.593584 22.085926 10.779797 29.375304 7.189078 7.296064 16.824506 10.938365 28.911061 10.938365 6.039934 0 12.186854-1.25231 18.436939-3.750242 6.25104-2.499843 11.142784-5.832649 14.690517-10.000327 0 .20824-.212061 1.144368-.625677 2.810293-.420302 1.669746-.625677 2.923011-.625677 3.750242 0 3.337582 1.350698 4.999686 4.063558 4.999686h21.565325c3.952751 0 6.248174-1.976375 6.871941-5.937724zm55.316548-46.253304h-.000956v-.309495c-.000955-2.916324-1.359295-4.374964-4.065468-4.374964h-23.124264c-2.297334 0-3.649943 1.146279-4.063558 3.438837l-20.314926 130.006162-.313316.624722c0 1.045979.418392 2.031779 1.253265 2.968862.829141.937083 1.875121 1.406102 3.123609 1.406102h20.628242c3.953707 0 6.142144-1.976376 6.563401-5.937724zm-205.638592 27.657797c2.501754 2.187482 3.749287 5.366495 3.750242 9.532263 0 8.751839-2.293512 14.687652-6.874807 17.815083-4.585115 3.124565-11.459922 4.686369-20.626331 4.686369l-10.001282.312361 5.313957-33.439817c.412661-2.289692 1.766225-3.435971 4.061648-3.435971h5.623453c4.582249 0 8.228371.208241 10.941231.623767 2.704262.419347 5.312046 1.718463 7.811889 3.905945zm-355.641587-.936128c3.748332 2.397633 4.998731 7.451767 3.747377 15.158582-1.045024 7.293198-3.750242 12.082733-8.125206 14.375291-4.375919 2.295423-10.626004 3.436926-18.750255 3.436926l-10.313644.312361 5.313958-33.439818c.415526-2.289692 1.76909-3.435971 4.061648-3.435971h5.940589c8.329626 0 14.375291 1.200727 18.125533 3.592629z" fill="#393939"/></svg>