<svg width="750" height="471" viewBox="0 0 750 471" version="1.1" xmlns="http://www.w3.org/2000/svg" xmlns:xlink="http://www.w3.org/1999/xlink">
    <!-- Generator: Sketch 48.2 (47327) - http://www.bohemiancoding.com/sketch -->
    <desc>Created with Sketch.</desc>
    <defs></defs>
    <g id="Page-1" stroke="none" stroke-width="1" fill="none" fill-rule="evenodd">
        <g id="paypal">
            <path d="M697.115385,0 L52.8846154,0 C23.7240385,0 0,23.1955749 0,51.7065868 L0,419.293413 C0,447.804425 23.7240385,471 52.8846154,471 L697.115385,471 C726.274038,471 750,447.804425 750,419.293413 L750,51.7065868 C750,23.1955749 726.274038,0 697.115385,0 Z" id="Path" fill="#393939"></path>
            <path d="M597.124663,224.221551 C593.26648,220.78558 588.421541,219.066162 582.593669,219.066162 C574.883989,219.066162 568.419932,221.722663 563.216782,227.035665 C558.006945,232.347712 555.402981,238.863352 555.402981,246.566345 C555.402981,252.40568 557.278102,256.98984 561.0293,260.317869 C564.781452,263.65354 569.673197,265.317555 575.717907,265.317555 C583.219346,265.317555 589.625134,262.713592 594.937181,257.50471 C600.250183,252.299649 602.906684,245.942578 602.907639,238.443049 C602.906684,232.401205 600.97616,227.660387 597.124663,224.221551 Z M242.105888,224.221551 C238.247704,220.78558 233.403721,219.066162 227.572028,219.066162 C219.861393,219.066162 213.401157,221.722663 208.197051,227.035665 C202.986259,232.347712 200.382295,238.863352 200.382295,246.566345 C200.382295,252.40568 202.203923,256.98984 205.852911,260.317869 C209.495212,263.65354 214.34015,265.317555 220.385815,265.317555 C228.088809,265.317555 234.603493,262.770906 239.91745,257.659458 C245.230453,252.560428 247.886954,246.151774 247.886954,238.443049 C247.886954,232.401205 245.957384,227.660387 242.105888,224.221551 Z M117.878881,242.191381 C117.254159,242.191381 115.793609,242.090126 113.503917,241.881886 C111.209449,241.6746 109.230207,241.569525 107.565237,241.569525 C105.895491,241.569525 104.127356,241.725228 102.252235,242.034723 C100.377114,242.346129 98.8133989,243.028164 97.5649103,244.069368 C96.3145112,245.112481 95.581848,246.467001 95.3764731,248.132926 L89.7520652,282.506961 C89.331763,286.468309 87.0420712,288.444685 82.876303,288.444685 L59.1254068,288.444685 C57.8750077,288.444685 56.8318941,287.925994 56.0008419,286.881925 C55.1659689,285.840721 54.8526527,284.695398 55.063759,283.443088 L75.3767742,155.936769 C75.7923002,151.980197 77.9797822,150 81.9382649,150 L131.941811,150 C144.857507,150 155.325898,152.764442 163.349849,158.279954 C171.369024,163.804062 175.382911,172.710648 175.382911,185.001622 C175.382911,202.922736 170.274328,216.932173 160.068626,227.035665 C149.858148,237.142978 135.795218,242.191381 117.878881,242.191381 Z M284.761787,200.938718 L271.949256,282.50505 C271.324534,286.466399 269.02911,288.442774 265.074449,288.442774 L243.511034,288.442774 C240.801996,288.442774 239.448431,286.78067 239.448431,283.443088 C239.448431,281.569878 239.863002,279.381441 240.69883,276.882553 C236.948588,281.050231 231.947947,284.383037 225.697862,286.88288 C219.448732,289.380812 213.403067,290.633122 207.572329,290.633122 C195.48673,290.633122 185.853212,286.990821 178.665089,279.694757 C171.476966,272.405379 167.882426,262.614248 167.882426,250.319453 C167.882426,235.112154 173.14098,221.879321 183.66382,210.628595 C194.184748,199.377869 206.946652,193.75155 221.94762,193.75155 C236.114671,193.75155 246.011833,197.92305 251.637196,206.253631 C252.262873,199.377869 254.030053,195.939032 256.951153,195.939032 L280.702049,195.939032 C281.950538,195.939032 282.990786,196.461544 283.825659,197.501792 C284.655756,198.543951 284.967161,199.688319 284.761787,200.938718 Z M325.703999,320.632193 L301.639786,320.632193 C298.929792,320.632193 297.577183,319.279584 297.577183,316.568634 C297.577183,314.90462 306.11696,302.40445 323.202245,279.067169 C322.993049,278.239938 320.546699,270.942918 315.858419,257.195215 C311.171094,243.44369 306.79613,230.629249 302.734482,218.75189 C298.672835,206.876442 296.641056,200.733343 296.641056,200.313041 C296.641056,199.274704 297.055626,198.282217 297.891455,197.34609 C298.719641,196.408051 299.656724,195.938077 300.700793,195.938077 L324.143149,195.938077 C327.68133,195.938077 329.971977,197.608778 331.017001,200.939674 L344.768525,247.817699 L377.895026,199.062642 C379.349845,196.985012 381.224011,195.938077 383.52039,195.938077 L407.584602,195.938077 C408.622939,195.938077 409.561933,196.409007 410.397761,197.34609 C411.224992,198.282217 411.645295,199.273748 411.645295,200.313041 C411.645295,201.360931 411.437054,202.086908 411.022483,202.500523 L331.330317,317.509538 C329.867856,319.593855 327.994646,320.632193 325.703999,320.632193 Z M472.895746,242.191381 C472.274845,242.191381 470.811429,242.090126 468.520782,241.881886 C466.228224,241.6746 464.249938,241.569525 462.584968,241.569525 C460.914267,241.569525 459.145176,241.725228 457.271011,242.034723 C455.393979,242.346129 453.83313,243.028164 452.583686,244.069368 C451.331376,245.112481 450.602534,246.467001 450.396204,248.132926 L444.76893,284.383037 C443.934057,287.092076 442.268132,288.444685 439.769244,288.444685 L414.144182,288.444685 C412.892828,288.444685 411.846849,287.925994 411.019617,286.881925 C410.183789,285.840721 409.871428,284.695398 410.08349,283.443088 L430.39555,155.936769 C430.809165,151.980197 433.101723,150 437.271312,150 L486.961541,150 C499.879148,150 510.346584,152.764442 518.368625,158.279954 C526.388755,163.804062 530.401686,172.710648 530.400731,185.001622 C530.400731,202.922736 525.295014,216.932173 515.087402,227.035665 C504.875013,237.142978 490.814949,242.191381 472.895746,242.191381 Z M639.783428,200.938718 L626.968986,282.50505 C626.345219,286.466399 624.049796,288.442774 620.097045,288.442774 L598.53172,288.442774 C595.81886,288.442774 594.468162,286.78067 594.468162,283.443088 C594.468162,282.615857 594.673537,281.362592 595.093839,279.692846 C595.507455,278.026921 595.719516,277.090793 595.719516,276.882553 C592.171783,281.050231 587.280039,284.383037 581.028999,286.88288 C574.778914,289.380812 568.631994,290.633122 562.59206,290.633122 C550.505505,290.633122 540.870077,286.990821 533.680999,279.694757 C526.494786,272.405379 522.901202,262.614248 522.901202,250.319453 C522.901202,235.112154 528.159756,221.879321 538.682595,210.628595 C549.200658,199.377869 561.964472,193.75155 576.96544,193.75155 C591.343597,193.75155 601.233117,197.92305 606.656926,206.253631 C607.280693,199.377869 609.047873,195.939032 611.966107,195.939032 L635.718914,195.939032 C636.969313,195.939032 638.007651,196.461544 638.843479,197.501792 C639.676442,198.543951 639.988803,199.688319 639.783428,200.938718 Z M695.099976,154.685414 L674.786005,282.507916 C674.364748,286.469264 672.176311,288.44564 668.222604,288.44564 L647.594362,288.44564 C646.345874,288.44564 645.299894,287.976621 644.470753,287.039538 C643.63588,286.102455 643.217488,285.116655 643.217488,284.070676 L643.530804,283.445954 L663.84573,153.439792 C664.259345,151.147234 665.611954,150.000955 667.909288,150.000955 L691.033552,150.000955 C693.739725,150.000955 695.098065,151.459595 695.09902,154.375919 L695.09902,154.685414 L695.099976,154.685414 Z M489.461384,182.343211 C486.961541,180.155729 484.353757,178.856613 481.649495,178.437266 C478.936635,178.02174 475.290513,177.813499 470.708264,177.813499 L465.084811,177.813499 C462.789388,177.813499 461.435824,178.959778 461.023163,181.24947 L455.709206,214.689287 L465.710488,214.376926 C474.876897,214.376926 481.751704,212.815122 486.336819,209.690557 C490.918114,206.563126 493.211626,200.627313 493.211626,191.875474 C493.210671,187.709706 491.963138,184.530693 489.461384,182.343211 Z M133.819797,181.407083 C130.069555,179.015181 124.02389,177.814454 115.694264,177.814454 L109.753675,177.814454 C107.461117,177.814454 106.107553,178.960733 105.692027,181.250425 L100.378069,214.690243 L110.691713,214.377882 C118.815964,214.377882 125.066049,213.236379 129.441968,210.940956 C133.816932,208.648398 136.52215,203.858863 137.567174,196.565665 C138.818528,188.85885 137.568129,183.804716 133.819797,181.407083 Z" id="Shape" fill="#FFFFFF" fill-rule="nonzero"></path>
        </g>
    </g>
</svg>
