<?xml version="1.0" encoding="utf-8"?>
<!-- Generator: Adobe Illustrator 16.0.0, SVG Export Plug-In . SVG Version: 6.00 Build 0)  -->
<!DOCTYPE svg PUBLIC "-//W3C//DTD SVG 1.1//EN" "http://www.w3.org/Graphics/SVG/1.1/DTD/svg11.dtd">
<svg version="1.1" id="Layer_1" xmlns:sketch="http://www.bohemiancoding.com/sketch/ns"
	 xmlns="http://www.w3.org/2000/svg" xmlns:xlink="http://www.w3.org/1999/xlink" x="0px" y="0px" width="780px" height="501px"
	 viewBox="0 0 780 501" enable-background="new 0 0 780 501" xml:space="preserve">
<title>amex-outline</title>
<desc>Created with Sketch.</desc>
<path fill="#393939" d="M215.212,266.507c0,8.494,8.494,9.475,15.355,9.475c18.622,0,24.829-12.414,25.81-28.75l-0.98-0.98
	C242.002,246.251,215.212,248.211,215.212,266.507z"/>
<path fill="#393939" d="M579.817,266.507c0,8.494,8.493,9.802,15.354,9.802c18.622,0,24.83-12.415,25.811-29.077l-0.98-0.98
	C606.607,246.251,579.817,248.211,579.817,266.507z"/>
<path fill="#393939" d="M492.586,182.544c-6.86,0-11.762,0.327-14.049,7.514c-2.287,6.861-6.208,21.236-6.208,27.77
	c0,3.594,2.615,6.208,6.208,6.208h4.9c16.661,0,34.304-5.88,34.304-25.483C517.741,183.851,503.694,182.544,492.586,182.544z"/>
<path fill="#393939" d="M725,0H55C24.673,0,0,24.673,0,55v391c0,30.327,24.673,55,55,55h670c30.327,0,55-24.673,55-55V55
	C780,24.673,755.327,0,725,0z M108.054,249.846c-19.277,0-6.861,45.084-26.138,45.084H61.66c-3.267,0-6.207-2.613-6.207-5.88
	c0-4.248,27.116-121.862,28.423-124.802c2.287-4.247,3.92-7.841,9.802-7.841h41.818c26.79,0,55.866,4.9,55.866,38.225
	C191.363,240.044,144.318,249.846,108.054,249.846z M294.602,224.036l-14.701,63.38c-0.98,5.228-4.574,5.882-8.822,7.842h-18.295
	c-3.267,0-5.881-2.94-5.881-6.207c0-1.635,0.327-3.268,0.98-4.901c-13.396,8.494-21.563,14.048-38.224,14.048
	c-16.01,0-29.404-9.475-29.404-26.463c0-33.977,32.344-39.857,59.46-42.798c5.881-0.653,12.742-0.326,18.623-1.959
	c3.267-0.98,3.267-1.635,3.267-4.574c0-11.762-16.009-11.762-24.176-11.762c-6.535,0-12.742,0.98-18.949,2.614
	c-3.268,0.653-10.455,3.594-13.395,3.594c-1.961,0-2.94-1.634-2.94-3.268c0-4.247,1.634-8.494,2.94-12.742
	c3.266-9.801,10.454-9.801,19.275-11.107c7.841-1.307,16.009-1.96,24.176-1.96c17.97,0,47.372,1.96,47.372,26.463
	C295.908,217.502,295.582,220.769,294.602,224.036z M315.512,344.59c-2.614,0-13.069,0-13.069-4.247
	c0-10.781,19.93-27.117,19.93-39.205c0-2.613-0.327-5.227-0.653-7.84c-3.921-32.345-13.396-63.708-16.336-96.052l-0.326-1.633
	c0-6.208,7.841-6.861,12.414-6.861c8.168,0,19.93-0.98,22.869,8.494c4.574,15.029,8.822,38.551,8.822,54.232l1.633,1.308
	c2.613-0.98,28.75-48.679,33.324-55.867c2.94-3.92,7.514-7.514,12.742-7.514h24.176c1.634,0,2.614,1.307,2.614,2.94
	c0,2.94-1.961,5.881-3.267,8.494L340.34,336.422C335.114,344.917,324.332,344.59,315.512,344.59z M472.656,250.172
	c-4.573,0-8.821,3.266-9.802,7.84l-6.86,29.729c-1.96,9.149-14.701,8.169-21.889,8.169c-4.574,0-14.049,0-14.049-6.534
	c0-5.228,25.81-118.921,28.424-124.802c1.961-4.247,4.247-7.514,9.474-7.514h42.145c26.792,0,55.867,4.9,55.867,38.225
	C555.966,240.699,508.921,250.172,472.656,250.172z M659.532,224.363l-14.701,63.379c-1.635,7.188-9.475,8.169-15.683,8.169
	c-4.9,0-17.643,0.98-17.643-6.534c0-1.961,0.654-3.594,0.98-5.228c-13.395,8.821-21.563,14.048-38.225,14.048
	c-15.682,0-29.402-9.475-29.402-26.136c0-33.978,32.343-39.858,59.459-42.798c5.882-0.653,12.742-0.653,18.623-2.286
	c3.267-0.654,3.267-1.635,3.267-4.574c0-11.762-16.008-11.762-24.177-11.762c-6.207,0-12.741,0.98-18.947,2.614
	c-3.268,0.98-10.455,3.92-13.396,3.92c-1.96,0-2.613-1.634-2.613-3.267c0-4.574,1.308-8.821,2.613-12.742
	c3.269-9.801,10.455-10.128,19.276-11.435c7.841-0.98,16.008-1.96,24.177-1.96c18.295,0,47.371,1.96,47.371,26.463
	C660.512,217.502,660.187,221.095,659.532,224.363z M724.547,165.555l-27.116,122.187c-0.98,4.248-5.229,7.516-9.476,7.516h-18.948
	c-2.939-0.327-5.229-2.94-5.229-5.881v-1.635c9.476-38.876,16.99-78.082,25.812-116.632c1.307-6.208,2.939-13.068,10.781-13.068
	h17.969c3.267,0,6.207,2.613,6.207,5.88l-0.327,1.633H724.547z"/>
<path fill="#393939" d="M127.982,181.891c-6.861,0-11.762,0.653-14.048,7.841c-2.287,6.861-6.208,20.909-6.208,27.77
	c0,3.593,2.94,5.88,6.208,5.88h4.901c16.661,0,34.303-5.88,34.303-25.483C153.138,183.197,139.09,181.891,127.982,181.891z"/>
</svg>
