<svg width="750" height="471" viewBox="0 0 750 471" version="1.1" xmlns="http://www.w3.org/2000/svg" xmlns:xlink="http://www.w3.org/1999/xlink">
    <!-- Generator: Sketch 48.2 (47327) - http://www.bohemiancoding.com/sketch -->
    <desc>Created with Sketch.</desc>
    <defs></defs>
    <g id="Page-1" stroke="none" stroke-width="1" fill="none" fill-rule="evenodd">
        <g id="security-code" fill-rule="nonzero">
            <rect id="Rectangle-1" fill="#393939" transform="translate(375.000000, 235.500000) scale(-1, 1) translate(-375.000000, -235.500000) " x="0" y="0" width="750" height="471" rx="40"></rect>
            <g id="text4185" transform="translate(374.948150, 300.000000) scale(-1, 1) translate(-374.948150, -300.000000) translate(50.948150, 279.000000)" fill="#FFFFFF" fill-opacity="0.19607843">
                <polygon id="path4219" points="27.102474 31.37012 27.102474 27.57512 21.984974 27.57512 21.984974 16.30512 17.787474 16.30512 17.384974 27.57512 5.942474 27.57512 16.522474 2.50512 12.554974 0.78012 0.882474 27.92012 0.882474 31.37012 17.327474 31.37012 17.327474 41.03012 21.984974 41.03012 21.984974 31.37012"></polygon>
                <path d="M46.687513,0.78012 C42.662513,0.78012 38.810013,2.16012 35.475013,5.38012 L38.062513,8.31262 C40.707513,5.84012 43.065013,4.63262 46.457513,4.63262 C50.65501,4.63262 53.99001,6.99012 53.99001,11.36012 C53.99001,16.13262 50.25251,18.31762 46.457513,18.31762 L44.100013,18.31762 L43.525013,22.11262 L46.860013,22.11262 C51.51751,22.11262 55.08251,23.95262 55.08251,29.64512 C55.08251,34.59012 51.80501,37.75262 46.227513,37.75262 C43.007513,37.75262 39.672513,36.43012 37.430013,33.78512 L34.210013,36.43012 C37.200013,40.11012 41.915013,41.66262 46.342513,41.66262 C54.50751,41.66262 60.08501,36.48762 60.08501,29.64512 C60.08501,23.49262 55.71501,20.27262 51.05751,19.92762 C55.25501,19.12262 58.82001,15.50012 58.82001,10.72762 C58.82001,5.32262 54.10501,0.78012 46.687513,0.78012 Z" id="path4221"></path>
                <path d="M81.16505,0.78012 C75.81755,0.78012 72.25255,2.67762 69.09005,6.47262 L72.42505,9.00262 C74.95505,6.07012 77.08255,4.80512 80.99255,4.80512 C85.42005,4.80512 88.06505,7.56512 88.06505,11.99262 C88.06505,18.49012 84.84505,22.80262 69.89505,37.12012 L69.89505,41.03012 L93.41255,41.03012 L93.98755,36.94762 L75.35755,36.94762 C88.41005,25.04512 93.06755,19.12262 93.06755,11.87762 C93.06755,5.55262 88.64005,0.78012 81.16505,0.78012 Z" id="path4223"></path>
                <polygon id="path4225" points="129.90259 37.12012 121.62259 37.12012 121.62259 1.47012 117.42509 1.47012 105.69509 8.71512 107.76509 12.10762 116.85009 6.64512 116.85009 37.12012 107.07509 37.12012 107.07509 41.03012 129.90259 41.03012"></polygon>
                <polygon id="path4227" points="199.49017 31.37012 199.49017 27.57512 194.37267 27.57512 194.37267 16.30512 190.17517 16.30512 189.77267 27.57512 178.33017 27.57512 188.91017 2.50512 184.94267 0.78012 173.27017 27.92012 173.27017 31.37012 189.71517 31.37012 189.71517 41.03012 194.37267 41.03012 194.37267 31.37012"></polygon>
                <path d="M219.07521,0.78012 C215.05021,0.78012 211.19771,2.16012 207.86271,5.38012 L210.45021,8.31262 C213.09521,5.84012 215.45271,4.63262 218.84521,4.63262 C223.04271,4.63262 226.37771,6.99012 226.37771,11.36012 C226.37771,16.13262 222.64021,18.31762 218.84521,18.31762 L216.48771,18.31762 L215.91271,22.11262 L219.24771,22.11262 C223.90521,22.11262 227.47021,23.95262 227.47021,29.64512 C227.47021,34.59012 224.19271,37.75262 218.61521,37.75262 C215.39521,37.75262 212.06021,36.43012 209.81771,33.78512 L206.59771,36.43012 C209.58771,40.11012 214.30271,41.66262 218.73021,41.66262 C226.89521,41.66262 232.47271,36.48762 232.47271,29.64512 C232.47271,23.49262 228.10271,20.27262 223.44521,19.92762 C227.64271,19.12262 231.20771,15.50012 231.20771,10.72762 C231.20771,5.32262 226.49271,0.78012 219.07521,0.78012 Z" id="path4229"></path>
                <path d="M253.55275,0.78012 C248.20525,0.78012 244.64025,2.67762 241.47775,6.47262 L244.81275,9.00262 C247.34275,6.07012 249.47025,4.80512 253.38025,4.80512 C257.80775,4.80512 260.45275,7.56512 260.45275,11.99262 C260.45275,18.49012 257.23275,22.80262 242.28275,37.12012 L242.28275,41.03012 L265.80025,41.03012 L266.37525,36.94762 L247.74525,36.94762 C260.79775,25.04512 265.45525,19.12262 265.45525,11.87762 C265.45525,5.55262 261.02775,0.78012 253.55275,0.78012 Z" id="path4231"></path>
                <polygon id="path4233" points="302.29029 37.12012 294.01029 37.12012 294.01029 1.47012 289.81279 1.47012 278.08279 8.71512 280.15279 12.10762 289.23779 6.64512 289.23779 37.12012 279.46279 37.12012 279.46279 41.03012 302.29029 41.03012"></polygon>
                <polygon id="path4235" points="371.87786 31.37012 371.87786 27.57512 366.76036 27.57512 366.76036 16.30512 362.56286 16.30512 362.16036 27.57512 350.71786 27.57512 361.29786 2.50512 357.33036 0.78012 345.65786 27.92012 345.65786 31.37012 362.10286 31.37012 362.10286 41.03012 366.76036 41.03012 366.76036 31.37012"></polygon>
                <path d="M391.4629,0.78012 C387.4379,0.78012 383.5854,2.16012 380.2504,5.38012 L382.8379,8.31262 C385.4829,5.84012 387.8404,4.63262 391.2329,4.63262 C395.4304,4.63262 398.7654,6.99012 398.7654,11.36012 C398.7654,16.13262 395.0279,18.31762 391.2329,18.31762 L388.8754,18.31762 L388.3004,22.11262 L391.6354,22.11262 C396.2929,22.11262 399.8579,23.95262 399.8579,29.64512 C399.8579,34.59012 396.5804,37.75262 391.0029,37.75262 C387.7829,37.75262 384.4479,36.43012 382.2054,33.78512 L378.9854,36.43012 C381.9754,40.11012 386.6904,41.66262 391.1179,41.66262 C399.2829,41.66262 404.8604,36.48762 404.8604,29.64512 C404.8604,23.49262 400.4904,20.27262 395.8329,19.92762 C400.0304,19.12262 403.5954,15.50012 403.5954,10.72762 C403.5954,5.32262 398.8804,0.78012 391.4629,0.78012 Z" id="path4237"></path>
                <path d="M425.94044,0.78012 C420.59294,0.78012 417.02794,2.67762 413.86544,6.47262 L417.20044,9.00262 C419.73044,6.07012 421.85794,4.80512 425.76794,4.80512 C430.19544,4.80512 432.84044,7.56512 432.84044,11.99262 C432.84044,18.49012 429.62044,22.80262 414.67044,37.12012 L414.67044,41.03012 L438.18794,41.03012 L438.76294,36.94762 L420.13294,36.94762 C433.18544,25.04512 437.84294,19.12262 437.84294,11.87762 C437.84294,5.55262 433.41544,0.78012 425.94044,0.78012 Z" id="path4239"></path>
                <polygon id="path4241" points="474.67798 37.12012 466.39798 37.12012 466.39798 1.47012 462.20048 1.47012 450.47048 8.71512 452.54048 12.10762 461.62548 6.64512 461.62548 37.12012 451.85048 37.12012 451.85048 41.03012 474.67798 41.03012"></polygon>
                <polygon id="path4243" points="544.26556 31.37012 544.26556 27.57512 539.14806 27.57512 539.14806 16.30512 534.95056 16.30512 534.54806 27.57512 523.10556 27.57512 533.68556 2.50512 529.71806 0.78012 518.04556 27.92012 518.04556 31.37012 534.49056 31.37012 534.49056 41.03012 539.14806 41.03012 539.14806 31.37012"></polygon>
                <path d="M563.8506,0.78012 C559.8256,0.78012 555.9731,2.16012 552.6381,5.38012 L555.2256,8.31262 C557.8706,5.84012 560.2281,4.63262 563.6206,4.63262 C567.8181,4.63262 571.1531,6.99012 571.1531,11.36012 C571.1531,16.13262 567.4156,18.31762 563.6206,18.31762 L561.2631,18.31762 L560.6881,22.11262 L564.0231,22.11262 C568.6806,22.11262 572.2456,23.95262 572.2456,29.64512 C572.2456,34.59012 568.9681,37.75262 563.3906,37.75262 C560.1706,37.75262 556.8356,36.43012 554.5931,33.78512 L551.3731,36.43012 C554.3631,40.11012 559.0781,41.66262 563.5056,41.66262 C571.6706,41.66262 577.2481,36.48762 577.2481,29.64512 C577.2481,23.49262 572.8781,20.27262 568.2206,19.92762 C572.4181,19.12262 575.9831,15.50012 575.9831,10.72762 C575.9831,5.32262 571.2681,0.78012 563.8506,0.78012 Z" id="path4245"></path>
                <path d="M598.32814,0.78012 C592.98064,0.78012 589.41564,2.67762 586.25314,6.47262 L589.58814,9.00262 C592.11814,6.07012 594.24564,4.80512 598.15564,4.80512 C602.58314,4.80512 605.22814,7.56512 605.22814,11.99262 C605.22814,18.49012 602.00814,22.80262 587.05814,37.12012 L587.05814,41.03012 L610.57564,41.03012 L611.15064,36.94762 L592.52064,36.94762 C605.57314,25.04512 610.23064,19.12262 610.23064,11.87762 C610.23064,5.55262 605.80314,0.78012 598.32814,0.78012 Z" id="path4247"></path>
                <polygon id="path4249" points="647.06568 37.12012 638.78568 37.12012 638.78568 1.47012 634.58818 1.47012 622.85818 8.71512 624.92818 12.10762 634.01318 6.64512 634.01318 37.12012 624.23818 37.12012 624.23818 41.03012 647.06568 41.03012"></polygon>
            </g>
            <g id="text4189" transform="translate(623.354250, 397.741180) scale(-1, 1) translate(-623.354250, -397.741180) translate(547.354250, 382.741180)" fill="#FFFFFF" fill-opacity="0.19607843">
                <g id="tspan4191">
                    <path d="M0.828125,9.195312 L0.828125,6.5 C3.36718747,6.252604 5.1380208,5.84244767 6.140625,5.269531 C7.143229,4.68359367 7.891927,3.309896 8.386719,1.148438 L11.160156,1.148438 L11.160156,29 L7.410156,29 L7.410156,9.195312 L0.828125,9.195312 Z" id="path4989"></path>
                    <path d="M23.09375,9.195312 L23.09375,6.5 C25.6328127,6.252604 27.403646,5.84244767 28.40625,5.269531 C29.408854,4.68359367 30.157552,3.309896 30.652344,1.148438 L33.425781,1.148438 L33.425781,29 L29.675781,29 L29.675781,9.195312 L23.09375,9.195312 Z" id="path4991"></path>
                    <path d="M53.875,29 C54.005208,26.591146 54.4999997,24.4947917 55.359375,22.710937 C56.231771,20.927083 57.9244793,19.3059893 60.4375,17.847656 L64.1875,15.679687 C65.8671873,14.703125 67.0455727,13.8697917 67.722656,13.179687 C68.7903647,12.0989583 69.324219,10.8619793 69.324219,9.46875 C69.324219,7.841146 68.8359377,6.55208367 67.859375,5.601563 C66.8828123,4.638021 65.580729,4.15625 63.953125,4.15625 C61.544271,4.15625 59.8776043,5.06770833 58.953125,6.890625 C58.458333,7.86718767 58.1848953,9.22135433 58.132812,10.953125 L54.558594,10.953125 C54.597654,8.518229 55.0468727,6.532552 55.90625,4.996094 C57.4296873,2.28776067 60.1184893,0.933594 63.972656,0.933594 C67.1757813,0.933594 69.513021,1.79947933 70.984375,3.53125 C72.4687497,5.26302067 73.210937,7.190104 73.210937,9.3125 C73.210937,11.5520833 72.4231767,13.4661457 70.847656,15.054687 C69.936198,15.9791663 68.3020833,17.098958 65.945312,18.414062 L63.269531,19.898437 C61.9934897,20.6015623 60.9908857,21.2721353 60.261719,21.910156 C58.9596357,23.0429687 58.139323,24.299479 57.800781,25.679687 L73.074219,25.679687 L73.074219,29 L53.875,29 Z" id="path4993"></path>
                    <path d="M85.28125,29.761719 C81.973958,29.761719 79.5716143,28.856771 78.074219,27.046875 C76.5898437,25.2239583 75.847656,23.0104167 75.847656,20.40625 L79.519531,20.40625 C79.675781,22.216146 80.0143227,23.53125 80.535156,24.351562 C81.4466147,25.8229167 83.09375,26.558594 85.476562,26.558594 C87.3255207,26.558594 88.8098957,26.0638023 89.929687,25.074219 C91.049479,24.0846357 91.609375,22.808594 91.609375,21.246094 C91.609375,19.3190107 91.016927,17.9713543 89.832031,17.203125 C88.6601563,16.4348957 87.0260417,16.050781 84.929687,16.050781 C84.6953123,16.050781 84.454427,16.057291 84.207031,16.070311 C83.9726563,16.070311 83.731771,16.076821 83.484375,16.089841 L83.484375,12.984372 C83.8489583,13.023432 84.154948,13.0494753 84.402344,13.062502 C84.6497393,13.075522 84.9166663,13.082032 85.203125,13.082032 C86.518229,13.082032 87.598958,12.8736987 88.445312,12.457032 C89.9296873,11.7278653 90.671875,10.425782 90.671875,8.550782 C90.671875,7.15755267 90.1770833,6.083334 89.1875,5.328126 C88.1979167,4.572918 87.045573,4.195314 85.730469,4.195314 C83.386719,4.195314 81.765625,4.97656367 80.867187,6.539063 C80.3723957,7.39843833 80.092448,8.62239667 80.027344,10.210938 L76.550781,10.210938 C76.550781,8.12760467 76.9674477,6.35677167 77.800781,4.898439 C79.233073,2.29427233 81.7526043,0.992189 85.359375,0.992189 C88.2109377,0.992189 90.417969,1.63020967 91.980469,2.906251 C93.542969,4.16927167 94.324219,6.005209 94.324219,8.414063 C94.324219,10.132813 93.8619793,11.5260423 92.9375,12.593751 C92.3645833,13.2578137 91.6223957,13.778647 90.710937,14.156251 C92.1822917,14.559897 93.328125,15.341147 94.148437,16.500001 C94.9817703,17.6458343 95.398437,19.0520843 95.398437,20.718751 C95.398437,23.3880217 94.519531,25.5625007 92.761719,27.242188 C91.0039063,28.921876 88.5104167,29.76172 85.28125,29.76172 L85.28125,29.761719 Z" id="path4995"></path>
                    <path d="M113.19141,21.871094 C113.425783,23.876302 114.356773,25.2630207 115.98438,26.03125 C116.817713,26.4218747 117.781253,26.617187 118.875,26.617187 C120.958333,26.617187 122.501303,25.9531247 123.50391,24.625 C124.50651,23.2968747 125.00781,21.8255203 125.00781,20.210937 C125.00781,18.2578123 124.408853,16.7473957 123.21094,15.679687 C122.02604,14.611979 120.600257,14.078125 118.93359,14.078125 C117.722657,14.078125 116.68099,14.3125 115.80859,14.78125 C114.949217,15.25 114.21354,15.9010417 113.60156,16.734375 L110.55469,16.558594 L112.68359,1.5 L127.21484,1.5 L127.21484,4.898438 L115.32031,4.898438 L114.12891,12.671875 C114.77995,12.177083 115.39844,11.8059893 115.98438,11.558594 C117.026047,11.128906 118.230473,10.914062 119.59766,10.914062 C122.16276,10.914062 124.337237,11.740885 126.12109,13.394531 C127.904943,15.048177 128.79687,17.1445313 128.79687,19.683594 C128.79687,22.3268227 127.97656,24.6575517 126.33594,26.675781 C124.708333,28.6940103 122.104167,29.703125 118.52344,29.703125 C116.244793,29.703125 114.226563,29.065104 112.46875,27.789062 C110.723957,26.5 109.747393,24.527344 109.53906,21.871094 L113.19141,21.871094 Z" id="path4997"></path>
                    <path d="M141.39453,12.75 C142.94401,12.75 144.154947,12.3203123 145.02734,11.460937 C145.89974,10.5885417 146.33594,9.55338567 146.33594,8.355469 C146.33594,7.31380233 145.919273,6.356771 145.08594,5.484375 C144.252607,4.611979 142.983073,4.175781 141.27734,4.175781 C139.584633,4.175781 138.360677,4.611979 137.60547,5.484375 C136.850263,6.356771 136.47266,7.37890633 136.47266,8.550781 C136.47266,9.865885 136.96094,10.894531 137.9375,11.636719 C138.91406,12.3789063 140.066403,12.75 141.39453,12.75 Z M141.60937,26.597656 C143.236977,26.597656 144.584633,26.161458 145.65234,25.289062 C146.733073,24.4036453 147.27344,23.0885413 147.27344,21.34375 C147.27344,19.533854 146.720053,18.160156 145.61328,17.222656 C144.506507,16.285156 143.087237,15.816406 141.35547,15.816406 C139.675783,15.816406 138.302083,16.298177 137.23437,17.261719 C136.179683,18.2122397 135.65234,19.533854 135.65234,21.226562 C135.65234,22.6848953 136.134113,23.9479163 137.09766,25.015625 C138.07422,26.0703123 139.578123,26.597656 141.60937,26.597656 Z M136.60937,14.097656 C135.63281,13.6809893 134.871093,13.192708 134.32422,12.632812 C133.295573,11.5911453 132.78125,10.2369787 132.78125,8.570312 C132.78125,6.48697933 133.536457,4.696615 135.04687,3.199219 C136.55729,1.701823 138.69922,0.953125 141.47266,0.953125 C144.154947,0.953125 146.25781,1.66276033 147.78125,3.082031 C149.30469,4.488281 150.06641,6.13541633 150.06641,8.023437 C150.06641,9.768229 149.6237,11.1809897 148.73828,12.261719 C148.243487,12.8736977 147.475257,13.472656 146.43359,14.058594 C147.592443,14.592448 148.503903,15.204427 149.16797,15.894531 C150.40495,17.1966143 151.02344,18.8893227 151.02344,20.972656 C151.02344,23.4335933 150.196617,25.523437 148.54297,27.242187 C146.889323,28.9479163 144.552083,29.800781 141.53125,29.800781 C138.809897,29.800781 136.50521,29.065104 134.61719,27.59375 C132.74219,26.1093747 131.80469,23.960937 131.80469,21.148437 C131.80469,19.4947917 132.208333,18.0690107 133.01562,16.871094 C133.822913,15.660156 135.02083,14.7356767 136.60937,14.097656 Z" id="path4999"></path>
                </g>
            </g>
            <g id="text4214" transform="translate(419.624760, 398.773440) scale(-1, 1) translate(-419.624760, -398.773440) translate(327.124760, 383.773440)" fill="#FFFFFF" fill-opacity="0.19607843">
                <g id="tspan4216">
                    <path d="M0.828125,9.195312 L0.828125,6.5 C3.36718747,6.252604 5.1380208,5.84244767 6.140625,5.269531 C7.143229,4.68359367 7.891927,3.309896 8.386719,1.148438 L11.160156,1.148438 L11.160156,29 L7.410156,29 L7.410156,9.195312 L0.828125,9.195312 Z" id="path4972"></path>
                    <path d="M29.65625,29.761719 C26.348958,29.761719 23.9466143,28.856771 22.449219,27.046875 C20.9648437,25.2239583 20.222656,23.0104167 20.222656,20.40625 L23.894531,20.40625 C24.050781,22.216146 24.3893227,23.53125 24.910156,24.351562 C25.8216147,25.8229167 27.46875,26.558594 29.851562,26.558594 C31.7005207,26.558594 33.1848957,26.0638023 34.304687,25.074219 C35.424479,24.0846357 35.984375,22.808594 35.984375,21.246094 C35.984375,19.3190107 35.391927,17.9713543 34.207031,17.203125 C33.0351563,16.4348957 31.4010417,16.050781 29.304687,16.050781 C29.0703123,16.050781 28.829427,16.057291 28.582031,16.070311 C28.3476563,16.070311 28.106771,16.076821 27.859375,16.089841 L27.859375,12.984372 C28.2239583,13.023432 28.529948,13.0494753 28.777344,13.062502 C29.0247393,13.075522 29.2916663,13.082032 29.578125,13.082032 C30.893229,13.082032 31.973958,12.8736987 32.820312,12.457032 C34.3046873,11.7278653 35.046875,10.425782 35.046875,8.550782 C35.046875,7.15755267 34.5520833,6.083334 33.5625,5.328126 C32.5729167,4.572918 31.420573,4.195314 30.105469,4.195314 C27.761719,4.195314 26.140625,4.97656367 25.242187,6.539063 C24.7473957,7.39843767 24.467448,8.62239567 24.402344,10.210937 L20.925781,10.210937 C20.925781,8.12760367 21.3424477,6.35677067 22.175781,4.898438 C23.608073,2.29427133 26.1276043,0.992188 29.734375,0.992188 C32.5859377,0.992188 34.792969,1.63020867 36.355469,2.90625 C37.917969,4.16927067 38.699219,6.005208 38.699219,8.414062 C38.699219,10.132812 38.2369793,11.5260413 37.3125,12.59375 C36.7395833,13.2578127 35.9973957,13.778646 35.085937,14.15625 C36.5572917,14.559896 37.703125,15.341146 38.523437,16.5 C39.3567703,17.6458333 39.773437,19.0520833 39.773437,20.71875 C39.773437,23.3880207 38.894531,25.5624997 37.136719,27.242187 C35.3789063,28.921875 32.8854167,29.761719 29.65625,29.761719 Z" id="path4974"></path>
                    <path d="M42.78125,29 C42.911458,26.591146 43.4062497,24.4947917 44.265625,22.710937 C45.138021,20.927083 46.8307293,19.3059893 49.34375,17.847656 L53.09375,15.679687 C54.7734373,14.703125 55.9518227,13.8697917 56.628906,13.179687 C57.6966147,12.0989583 58.230469,10.8619793 58.230469,9.46875 C58.230469,7.841146 57.7421877,6.55208367 56.765625,5.601563 C55.7890623,4.638021 54.486979,4.15625 52.859375,4.15625 C50.450521,4.15625 48.7838543,5.06770833 47.859375,6.890625 C47.364583,7.86718767 47.0911453,9.22135433 47.039062,10.953125 L43.464844,10.953125 C43.503904,8.518229 43.9531227,6.532552 44.8125,4.996094 C46.3359373,2.28776067 49.0247393,0.933594 52.878906,0.933594 C56.0820313,0.933594 58.419271,1.79947933 59.890625,3.53125 C61.3749997,5.26302067 62.117187,7.190104 62.117187,9.3125 C62.117187,11.5520833 61.3294267,13.4661457 59.753906,15.054687 C58.842448,15.9791663 57.2083333,17.098958 54.851562,18.414062 L52.175781,19.898437 C50.8997397,20.6015623 49.8971357,21.2721353 49.167969,21.910156 C47.8658857,23.0429687 47.045573,24.299479 46.707031,25.679687 L61.980469,25.679687 L61.980469,29 L42.78125,29 Z" id="path4976"></path>
                    <path d="M67.625,9.195312 L67.625,6.5 C70.1640627,6.252604 71.934896,5.84244767 72.9375,5.269531 C73.940104,4.68359367 74.688802,3.309896 75.183594,1.148438 L77.957031,1.148438 L77.957031,29 L74.207031,29 L74.207031,9.195312 L67.625,9.195312 Z" id="path4978"></path>
                    <path d="M107.54688,29.761719 C104.239587,29.761719 101.83724,28.856771 100.33984,27.046875 C98.8554667,25.2239583 98.11328,23.0104167 98.11328,20.40625 L101.78516,20.40625 C101.941407,22.216146 102.279947,23.53125 102.80078,24.351562 C103.71224,25.8229167 105.359377,26.558594 107.74219,26.558594 C109.59115,26.558594 111.075523,26.0638023 112.19531,25.074219 C113.315103,24.0846357 113.875,22.808594 113.875,21.246094 C113.875,19.3190107 113.282553,17.9713543 112.09766,17.203125 C110.92578,16.4348957 109.291663,16.050781 107.19531,16.050781 C106.960937,16.050781 106.720053,16.057291 106.47266,16.070311 C106.23828,16.070311 105.997393,16.076821 105.75,16.089841 L105.75,12.984372 C106.114587,13.023432 106.420577,13.0494753 106.66797,13.062502 C106.915363,13.075522 107.18229,13.082032 107.46875,13.082032 C108.783857,13.082032 109.864587,12.8736987 110.71094,12.457032 C112.195313,11.7278653 112.9375,10.425782 112.9375,8.550782 C112.9375,7.15755267 112.44271,6.083334 111.45313,5.328126 C110.463543,4.572918 109.311197,4.195314 107.99609,4.195314 C105.652343,4.195314 104.03125,4.97656367 103.13281,6.539063 C102.638023,7.39843833 102.358077,8.62239667 102.29297,10.210938 L98.81641,10.210938 C98.81641,8.12760467 99.2330767,6.35677167 100.06641,4.898439 C101.498697,2.29427233 104.018227,0.992189 107.625,0.992189 C110.47656,0.992189 112.68359,1.63020967 114.24609,2.906251 C115.80859,4.16927167 116.58984,6.005209 116.58984,8.414063 C116.58984,10.132813 116.127603,11.5260423 115.20313,12.593751 C114.63021,13.2578137 113.88802,13.778647 112.97656,14.156251 C114.447913,14.559897 115.593747,15.341147 116.41406,16.500001 C117.247393,17.6458343 117.66406,19.0520843 117.66406,20.718751 C117.66406,23.3880217 116.785153,25.5625007 115.02734,27.242188 C113.269533,28.921876 110.776047,29.76172 107.54688,29.76172 L107.54688,29.761719 Z" id="path4980"></path>
                    <path d="M132.64453,19.097656 L132.64453,6.421875 L123.67969,19.097656 L132.64453,19.097656 Z M132.70312,29 L132.70312,22.164062 L120.4375,22.164062 L120.4375,18.726562 L133.25,0.953125 L136.21875,0.953125 L136.21875,19.097656 L140.33984,19.097656 L140.33984,22.164062 L136.21875,22.164062 L136.21875,29 L132.70312,29 Z" id="path4982"></path>
                    <path d="M146.62891,21.871094 C146.863283,23.876302 147.79427,25.2630207 149.42187,26.03125 C150.255203,26.4218747 151.218747,26.617187 152.3125,26.617187 C154.395833,26.617187 155.938803,25.9531247 156.94141,24.625 C157.94401,23.2968747 158.44531,21.8255203 158.44531,20.210937 C158.44531,18.2578123 157.846353,16.7473957 156.64844,15.679687 C155.46354,14.611979 154.037757,14.078125 152.37109,14.078125 C151.160157,14.078125 150.11849,14.3125 149.24609,14.78125 C148.386717,15.25 147.65104,15.9010417 147.03906,16.734375 L143.99219,16.558594 L146.12109,1.5 L160.65234,1.5 L160.65234,4.898438 L148.75781,4.898438 L147.56641,12.671875 C148.21745,12.177083 148.835937,11.8059893 149.42187,11.558594 C150.463537,11.128906 151.667967,10.914062 153.03516,10.914062 C155.60026,10.914062 157.774737,11.740885 159.55859,13.394531 C161.342443,15.048177 162.23437,17.1445313 162.23437,19.683594 C162.23437,22.3268227 161.41406,24.6575517 159.77344,26.675781 C158.145833,28.6940103 155.541667,29.703125 151.96094,29.703125 C149.682293,29.703125 147.664063,29.065104 145.90625,27.789062 C144.161457,26.5 143.184893,24.527344 142.97656,21.871094 L146.62891,21.871094 Z" id="path4984"></path>
                    <path d="M168.89453,21.871094 C169.128903,23.876302 170.059893,25.2630207 171.6875,26.03125 C172.520833,26.4218747 173.484373,26.617187 174.57812,26.617187 C176.661453,26.617187 178.204423,25.9531247 179.20703,24.625 C180.209637,23.2968747 180.71094,21.8255203 180.71094,20.210937 C180.71094,18.2578123 180.11198,16.7473957 178.91406,15.679687 C177.729167,14.611979 176.303387,14.078125 174.63672,14.078125 C173.42578,14.078125 172.384113,14.3125 171.51172,14.78125 C170.652347,15.25 169.91667,15.9010417 169.30469,16.734375 L166.25781,16.558594 L168.38672,1.5 L182.91797,1.5 L182.91797,4.898438 L171.02344,4.898438 L169.83203,12.671875 C170.48307,12.177083 171.10156,11.8059893 171.6875,11.558594 C172.729167,11.128906 173.933593,10.914062 175.30078,10.914062 C177.865887,10.914062 180.040367,11.740885 181.82422,13.394531 C183.608073,15.048177 184.5,17.1445313 184.5,19.683594 C184.5,22.3268227 183.679687,24.6575517 182.03906,26.675781 C180.41146,28.6940103 177.807293,29.703125 174.22656,29.703125 C171.947913,29.703125 169.929683,29.065104 168.17187,27.789062 C166.427083,26.5 165.450523,24.527344 165.24219,21.871094 L168.89453,21.871094 Z" id="path4986"></path>
                </g>
            </g>
            <rect id="rect4300" fill="#000000" transform="translate(375.000000, 103.000000) scale(-1, 1) rotate(-180.000000) translate(-375.000000, -103.000000) " x="0" y="52" width="750" height="102"></rect>
            <rect id="rect4322" fill="#FFFFFF" x="16" y="177" width="562" height="80"></rect>
            <g id="text4324" transform="translate(477.000000, 199.000000)" fill="#000000">
                <polygon id="path4331" points="21.85 31.6 14.65 31.6 14.65 0.6 11 0.6 0.8 6.9 2.6 9.85 10.5 5.1 10.5 31.6 2 31.6 2 35 21.85 35"></polygon>
                <path d="M39.43047,0 C34.78047,0 31.68047,1.65 28.93047,4.95 L31.83047,7.15 C34.03047,4.6 35.88047,3.5 39.28047,3.5 C43.13047,3.5 45.43047,5.9 45.43047,9.75 C45.43047,15.4 42.63047,19.15 29.63047,31.6 L29.63047,35 L50.08047,35 L50.58047,31.45 L34.38047,31.45 C45.73047,21.1 49.78047,15.95 49.78047,9.65 C49.78047,4.15 45.93047,-5.68434189e-14 39.43047,-5.68434189e-14 Z" id="path4333"></path>
                <path d="M69.41094,0 C65.91094,0 62.56094,1.2 59.66094,4 L61.91094,6.55 C64.21094,4.4 66.26094,3.35 69.21094,3.35 C72.86094,3.35 75.76094,5.4 75.76094,9.2 C75.76094,13.35 72.51094,15.25 69.21094,15.25 L67.16094,15.25 L66.66094,18.55 L69.56094,18.55 C73.61094,18.55 76.71094,20.15 76.71094,25.1 C76.71094,29.4 73.86094,32.15 69.01094,32.15 C66.21094,32.15 63.31094,31 61.36094,28.7 L58.56094,31 C61.16094,34.2 65.26094,35.55 69.11094,35.55 C76.21094,35.55 81.06094,31.05 81.06094,25.1 C81.06094,19.75 77.26094,16.95 73.21094,16.65 C76.86094,15.95 79.96094,12.8 79.96094,8.65 C79.96094,3.95 75.86094,1.13686838e-13 69.41094,1.13686838e-13 Z" id="path4335"></path>
            </g>
            <rect id="rect4328" fill-opacity="0.5" fill="#FFFFFF" x="16" y="310" width="133" height="95" rx="25"></rect>
        </g>
    </g>
</svg>
