<?xml version="1.0" encoding="UTF-8" standalone="no"?>
<svg
   xmlns:dc="http://purl.org/dc/elements/1.1/"
   xmlns:cc="http://creativecommons.org/ns#"
   xmlns:rdf="http://www.w3.org/1999/02/22-rdf-syntax-ns#"
   xmlns:svg="http://www.w3.org/2000/svg"
   xmlns="http://www.w3.org/2000/svg"
   xmlns:sodipodi="http://sodipodi.sourceforge.net/DTD/sodipodi-0.dtd"
   xmlns:inkscape="http://www.inkscape.org/namespaces/inkscape"
   width="750px"
   height="471px"
   viewBox="0 0 750 471"
   version="1.1"
   id="svg4380"
   inkscape:version="0.91 r13725"
   sodipodi:docname="security-code.svg">
  <metadata
     id="metadata4429">
    <rdf:RDF>
      <cc:Work
         rdf:about="">
        <dc:format>image/svg+xml</dc:format>
        <dc:type
           rdf:resource="http://purl.org/dc/dcmitype/StillImage" />
      </cc:Work>
    </rdf:RDF>
  </metadata>
  <sodipodi:namedview
     pagecolor="#ffffff"
     bordercolor="#666666"
     borderopacity="1"
     objecttolerance="10"
     gridtolerance="10"
     guidetolerance="10"
     inkscape:pageopacity="0"
     inkscape:pageshadow="2"
     inkscape:window-width="1440"
     inkscape:window-height="851"
     id="namedview4427"
     showgrid="false"
     inkscape:zoom="1.0333187"
     inkscape:cx="425.2085"
     inkscape:cy="157.0196"
     inkscape:window-x="0"
     inkscape:window-y="301"
     inkscape:window-maximized="1"
     inkscape:current-layer="text4189" />
  <!-- Generator: Sketch 39.1 (31720) - http://www.bohemiancoding.com/sketch -->
  <title
     id="title4382">security-code</title>
  <desc
     id="desc4384">Created with Sketch.</desc>
  <defs
     id="defs4386" />
  <g
     id="Page-1"
     stroke="none"
     stroke-width="1"
     fill="none"
     fill-rule="evenodd">
    <g
       id="security-code">
      <g
         id="g4390">
        <g
           id="g4392">
          <rect
             id="Rectangle-1"
             fill="#393939"
             transform="translate(375.000000, 235.500000) scale(-1, 1) translate(-375.000000, -235.500000) "
             x="0"
             y="0"
             width="750"
             height="471"
             rx="40" />
          <g
             id="text4185"
             transform="translate(374.948150, 300.000000) scale(-1, 1) translate(-374.948150, -300.000000) translate(50.948150, 279.000000)"
             fill-opacity="0.19607843"
             fill="#FFFFFF">
            <polygon
               id="path4219"
               points="27.102474 31.37012 27.102474 27.57512 21.984974 27.57512 21.984974 16.30512 17.787474 16.30512 17.384974 27.57512 5.942474 27.57512 16.522474 2.50512 12.554974 0.78012 0.882474 27.92012 0.882474 31.37012 17.327474 31.37012 17.327474 41.03012 21.984974 41.03012 21.984974 31.37012 27.102474 31.37012" />
            <path
               d="M46.687513,0.78012 C42.662513,0.78012 38.810013,2.16012 35.475013,5.38012 L38.062513,8.31262 C40.707513,5.84012 43.065013,4.63262 46.457513,4.63262 C50.65501,4.63262 53.99001,6.99012 53.99001,11.36012 C53.99001,16.13262 50.25251,18.31762 46.457513,18.31762 L44.100013,18.31762 L43.525013,22.11262 L46.860013,22.11262 C51.51751,22.11262 55.08251,23.95262 55.08251,29.64512 C55.08251,34.59012 51.80501,37.75262 46.227513,37.75262 C43.007513,37.75262 39.672513,36.43012 37.430013,33.78512 L34.210013,36.43012 C37.200013,40.11012 41.915013,41.66262 46.342513,41.66262 C54.50751,41.66262 60.08501,36.48762 60.08501,29.64512 C60.08501,23.49262 55.71501,20.27262 51.05751,19.92762 C55.25501,19.12262 58.82001,15.50012 58.82001,10.72762 C58.82001,5.32262 54.10501,0.78012 46.687513,0.78012 L46.687513,0.78012 Z"
               id="path4221" />
            <path
               d="M81.16505,0.78012 C75.81755,0.78012 72.25255,2.67762 69.09005,6.47262 L72.42505,9.00262 C74.95505,6.07012 77.08255,4.80512 80.99255,4.80512 C85.42005,4.80512 88.06505,7.56512 88.06505,11.99262 C88.06505,18.49012 84.84505,22.80262 69.89505,37.12012 L69.89505,41.03012 L93.41255,41.03012 L93.98755,36.94762 L75.35755,36.94762 C88.41005,25.04512 93.06755,19.12262 93.06755,11.87762 C93.06755,5.55262 88.64005,0.78012 81.16505,0.78012 L81.16505,0.78012 Z"
               id="path4223" />
            <polygon
               id="path4225"
               points="129.90259 37.12012 121.62259 37.12012 121.62259 1.47012 117.42509 1.47012 105.69509 8.71512 107.76509 12.10762 116.85009 6.64512 116.85009 37.12012 107.07509 37.12012 107.07509 41.03012 129.90259 41.03012 129.90259 37.12012" />
            <polygon
               id="path4227"
               points="199.49017 31.37012 199.49017 27.57512 194.37267 27.57512 194.37267 16.30512 190.17517 16.30512 189.77267 27.57512 178.33017 27.57512 188.91017 2.50512 184.94267 0.78012 173.27017 27.92012 173.27017 31.37012 189.71517 31.37012 189.71517 41.03012 194.37267 41.03012 194.37267 31.37012 199.49017 31.37012" />
            <path
               d="M219.07521,0.78012 C215.05021,0.78012 211.19771,2.16012 207.86271,5.38012 L210.45021,8.31262 C213.09521,5.84012 215.45271,4.63262 218.84521,4.63262 C223.04271,4.63262 226.37771,6.99012 226.37771,11.36012 C226.37771,16.13262 222.64021,18.31762 218.84521,18.31762 L216.48771,18.31762 L215.91271,22.11262 L219.24771,22.11262 C223.90521,22.11262 227.47021,23.95262 227.47021,29.64512 C227.47021,34.59012 224.19271,37.75262 218.61521,37.75262 C215.39521,37.75262 212.06021,36.43012 209.81771,33.78512 L206.59771,36.43012 C209.58771,40.11012 214.30271,41.66262 218.73021,41.66262 C226.89521,41.66262 232.47271,36.48762 232.47271,29.64512 C232.47271,23.49262 228.10271,20.27262 223.44521,19.92762 C227.64271,19.12262 231.20771,15.50012 231.20771,10.72762 C231.20771,5.32262 226.49271,0.78012 219.07521,0.78012 L219.07521,0.78012 Z"
               id="path4229" />
            <path
               d="M253.55275,0.78012 C248.20525,0.78012 244.64025,2.67762 241.47775,6.47262 L244.81275,9.00262 C247.34275,6.07012 249.47025,4.80512 253.38025,4.80512 C257.80775,4.80512 260.45275,7.56512 260.45275,11.99262 C260.45275,18.49012 257.23275,22.80262 242.28275,37.12012 L242.28275,41.03012 L265.80025,41.03012 L266.37525,36.94762 L247.74525,36.94762 C260.79775,25.04512 265.45525,19.12262 265.45525,11.87762 C265.45525,5.55262 261.02775,0.78012 253.55275,0.78012 L253.55275,0.78012 Z"
               id="path4231" />
            <polygon
               id="path4233"
               points="302.29029 37.12012 294.01029 37.12012 294.01029 1.47012 289.81279 1.47012 278.08279 8.71512 280.15279 12.10762 289.23779 6.64512 289.23779 37.12012 279.46279 37.12012 279.46279 41.03012 302.29029 41.03012 302.29029 37.12012" />
            <polygon
               id="path4235"
               points="371.87786 31.37012 371.87786 27.57512 366.76036 27.57512 366.76036 16.30512 362.56286 16.30512 362.16036 27.57512 350.71786 27.57512 361.29786 2.50512 357.33036 0.78012 345.65786 27.92012 345.65786 31.37012 362.10286 31.37012 362.10286 41.03012 366.76036 41.03012 366.76036 31.37012 371.87786 31.37012" />
            <path
               d="M391.4629,0.78012 C387.4379,0.78012 383.5854,2.16012 380.2504,5.38012 L382.8379,8.31262 C385.4829,5.84012 387.8404,4.63262 391.2329,4.63262 C395.4304,4.63262 398.7654,6.99012 398.7654,11.36012 C398.7654,16.13262 395.0279,18.31762 391.2329,18.31762 L388.8754,18.31762 L388.3004,22.11262 L391.6354,22.11262 C396.2929,22.11262 399.8579,23.95262 399.8579,29.64512 C399.8579,34.59012 396.5804,37.75262 391.0029,37.75262 C387.7829,37.75262 384.4479,36.43012 382.2054,33.78512 L378.9854,36.43012 C381.9754,40.11012 386.6904,41.66262 391.1179,41.66262 C399.2829,41.66262 404.8604,36.48762 404.8604,29.64512 C404.8604,23.49262 400.4904,20.27262 395.8329,19.92762 C400.0304,19.12262 403.5954,15.50012 403.5954,10.72762 C403.5954,5.32262 398.8804,0.78012 391.4629,0.78012 L391.4629,0.78012 Z"
               id="path4237" />
            <path
               d="M425.94044,0.78012 C420.59294,0.78012 417.02794,2.67762 413.86544,6.47262 L417.20044,9.00262 C419.73044,6.07012 421.85794,4.80512 425.76794,4.80512 C430.19544,4.80512 432.84044,7.56512 432.84044,11.99262 C432.84044,18.49012 429.62044,22.80262 414.67044,37.12012 L414.67044,41.03012 L438.18794,41.03012 L438.76294,36.94762 L420.13294,36.94762 C433.18544,25.04512 437.84294,19.12262 437.84294,11.87762 C437.84294,5.55262 433.41544,0.78012 425.94044,0.78012 L425.94044,0.78012 Z"
               id="path4239" />
            <polygon
               id="path4241"
               points="474.67798 37.12012 466.39798 37.12012 466.39798 1.47012 462.20048 1.47012 450.47048 8.71512 452.54048 12.10762 461.62548 6.64512 461.62548 37.12012 451.85048 37.12012 451.85048 41.03012 474.67798 41.03012 474.67798 37.12012" />
            <polygon
               id="path4243"
               points="544.26556 31.37012 544.26556 27.57512 539.14806 27.57512 539.14806 16.30512 534.95056 16.30512 534.54806 27.57512 523.10556 27.57512 533.68556 2.50512 529.71806 0.78012 518.04556 27.92012 518.04556 31.37012 534.49056 31.37012 534.49056 41.03012 539.14806 41.03012 539.14806 31.37012 544.26556 31.37012" />
            <path
               d="M563.8506,0.78012 C559.8256,0.78012 555.9731,2.16012 552.6381,5.38012 L555.2256,8.31262 C557.8706,5.84012 560.2281,4.63262 563.6206,4.63262 C567.8181,4.63262 571.1531,6.99012 571.1531,11.36012 C571.1531,16.13262 567.4156,18.31762 563.6206,18.31762 L561.2631,18.31762 L560.6881,22.11262 L564.0231,22.11262 C568.6806,22.11262 572.2456,23.95262 572.2456,29.64512 C572.2456,34.59012 568.9681,37.75262 563.3906,37.75262 C560.1706,37.75262 556.8356,36.43012 554.5931,33.78512 L551.3731,36.43012 C554.3631,40.11012 559.0781,41.66262 563.5056,41.66262 C571.6706,41.66262 577.2481,36.48762 577.2481,29.64512 C577.2481,23.49262 572.8781,20.27262 568.2206,19.92762 C572.4181,19.12262 575.9831,15.50012 575.9831,10.72762 C575.9831,5.32262 571.2681,0.78012 563.8506,0.78012 L563.8506,0.78012 Z"
               id="path4245" />
            <path
               d="M598.32814,0.78012 C592.98064,0.78012 589.41564,2.67762 586.25314,6.47262 L589.58814,9.00262 C592.11814,6.07012 594.24564,4.80512 598.15564,4.80512 C602.58314,4.80512 605.22814,7.56512 605.22814,11.99262 C605.22814,18.49012 602.00814,22.80262 587.05814,37.12012 L587.05814,41.03012 L610.57564,41.03012 L611.15064,36.94762 L592.52064,36.94762 C605.57314,25.04512 610.23064,19.12262 610.23064,11.87762 C610.23064,5.55262 605.80314,0.78012 598.32814,0.78012 L598.32814,0.78012 Z"
               id="path4247" />
            <polygon
               id="path4249"
               points="647.06568 37.12012 638.78568 37.12012 638.78568 1.47012 634.58818 1.47012 622.85818 8.71512 624.92818 12.10762 634.01318 6.64512 634.01318 37.12012 624.23818 37.12012 624.23818 41.03012 647.06568 41.03012 647.06568 37.12012" />
          </g>
          <g
             id="text4189"
             transform="translate(625.854250, 396.741180) scale(-1, 1) translate(-625.854250, -396.741180) translate(549.354250, 372.741180)"
             fill-opacity="0.19607843"
             fill="#FFFFFF">
            <g
               style=""
               id="tspan4191">
              <path
                 d="m 3.828125,19.195312 0,-2.695312 q 3.8085937,-0.371094 5.3125,-1.230469 1.503906,-0.878906 2.246094,-4.121093 l 2.773437,0 0,27.851562 -3.75,0 0,-19.804688 -6.582031,0 z"
                 style=""
                 id="path4989" />
              <path
                 d="m 26.09375,19.195312 0,-2.695312 q 3.808594,-0.371094 5.3125,-1.230469 1.503906,-0.878906 2.246094,-4.121093 l 2.773437,0 0,27.851562 -3.75,0 0,-19.804688 -6.582031,0 z"
                 style=""
                 id="path4991" />
              <path
                 d="m 56.875,39 q 0.195312,-3.613281 1.484375,-6.289063 1.308594,-2.675781 5.078125,-4.863281 l 3.75,-2.167969 q 2.519531,-1.464843 3.535156,-2.5 1.601563,-1.621093 1.601563,-3.710937 0,-2.441406 -1.464844,-3.867187 -1.464844,-1.445313 -3.90625,-1.445313 -3.613281,0 -5,2.734375 -0.742188,1.464844 -0.820313,4.0625 l -3.574218,0 q 0.05859,-3.652344 1.347656,-5.957031 2.285156,-4.0625 8.066406,-4.0625 4.804688,0 7.011719,2.597656 2.226562,2.597656 2.226562,5.78125 0,3.359375 -2.363281,5.742187 -1.367187,1.386719 -4.902344,3.359375 l -2.675781,1.484375 q -1.914062,1.054688 -3.007812,2.011719 -1.953125,1.699219 -2.460938,3.769531 l 15.273438,0 0,3.320313 L 56.875,39 Z"
                 style=""
                 id="path4993" />
              <path
                 d="m 88.28125,39.761719 q -4.960938,0 -7.207031,-2.714844 Q 78.847656,34.3125 78.847656,30.40625 l 3.671875,0 q 0.234375,2.714844 1.015625,3.945312 1.367188,2.207032 4.941406,2.207032 2.773438,0 4.453125,-1.484375 1.679688,-1.484375 1.679688,-3.828125 0,-2.890625 -1.777344,-4.042969 -1.757812,-1.152344 -4.902344,-1.152344 -0.351562,0 -0.722656,0.01953 -0.351562,0 -0.722656,0.01953 l 0,-3.105469 q 0.546875,0.05859 0.917969,0.07813 0.371093,0.01953 0.800781,0.01953 1.972656,0 3.242187,-0.625 2.226563,-1.09375 2.226563,-3.90625 0,-2.089844 -1.484375,-3.222656 -1.484375,-1.132812 -3.457031,-1.132812 -3.515625,0 -4.863282,2.343749 -0.742187,1.289063 -0.839843,3.671875 l -3.476563,0 q 0,-3.125 1.25,-5.312499 2.148438,-3.90625 7.558594,-3.90625 4.277344,0 6.621094,1.914062 2.34375,1.894531 2.34375,5.507812 0,2.578125 -1.386719,4.179688 -0.859375,0.996094 -2.226563,1.5625 2.207032,0.605469 3.4375,2.34375 1.25,1.71875 1.25,4.21875 0,4.003906 -2.636718,6.523437 -2.636719,2.519532 -7.480469,2.519532 z"
                 style=""
                 id="path4995" />
              <path
                 d="m 116.19141,31.871094 q 0.35156,3.007812 2.79297,4.160156 1.25,0.585937 2.89062,0.585937 3.125,0 4.62891,-1.992187 1.5039,-1.992188 1.5039,-4.414063 0,-2.929687 -1.79687,-4.53125 -1.77735,-1.601562 -4.27735,-1.601562 -1.8164,0 -3.125,0.703125 -1.28906,0.703125 -2.20703,1.953125 l -3.04687,-0.175781 2.1289,-15.058594 14.53125,0 0,3.398438 -11.89453,0 -1.1914,7.773437 q 0.97656,-0.742188 1.85547,-1.113281 1.5625,-0.644532 3.61328,-0.644532 3.84765,0 6.52343,2.480469 2.67578,2.480469 2.67578,6.289063 0,3.964843 -2.46093,6.992187 -2.44141,3.027344 -7.8125,3.027344 -3.41797,0 -6.05469,-1.914063 -2.61719,-1.933593 -2.92969,-5.917968 l 3.65235,0 z"
                 style=""
                 id="path4997" />
              <path
                 d="m 144.39453,22.75 q 2.32422,0 3.63281,-1.289063 1.3086,-1.308593 1.3086,-3.105468 0,-1.5625 -1.25,-2.871094 -1.25,-1.308594 -3.8086,-1.308594 -2.53906,0 -3.67187,1.308594 -1.13281,1.308594 -1.13281,3.066406 0,1.972656 1.46484,3.085938 1.46484,1.113281 3.45703,1.113281 z m 0.21484,13.847656 q 2.44141,0 4.04297,-1.308594 1.6211,-1.328125 1.6211,-3.945312 0,-2.714844 -1.66016,-4.121094 -1.66016,-1.40625 -4.25781,-1.40625 -2.51953,0 -4.1211,1.445313 -1.58203,1.425781 -1.58203,3.964843 0,2.1875 1.44532,3.789063 1.46484,1.582031 4.51171,1.582031 z m -5,-12.5 q -1.46484,-0.625 -2.28515,-1.464844 -1.54297,-1.5625 -1.54297,-4.0625 0,-3.124999 2.26562,-5.371093 2.26563,-2.246094 6.42579,-2.246094 4.02343,0 6.30859,2.128906 2.28516,2.109375 2.28516,4.941406 0,2.617188 -1.32813,4.238282 -0.74219,0.917968 -2.30469,1.796875 1.73828,0.800781 2.73438,1.835937 1.85547,1.953125 1.85547,5.078125 0,3.691406 -2.48047,6.269531 -2.48047,2.558594 -7.01172,2.558594 -4.08203,0 -6.91406,-2.207031 -2.8125,-2.226563 -2.8125,-6.445313 0,-2.480468 1.21093,-4.277343 1.21094,-1.816407 3.59375,-2.773438 z"
                 style=""
                 id="path4999" />
            </g>
          </g>
          <g
             id="text4214"
             transform="translate(420.124760, 397.773440) scale(-1, 1) translate(-420.124760, -397.773440) translate(325.124760, 373.773440)"
             fill-opacity="0.19607843"
             fill="#FFFFFF">
            <g
               style=""
               id="tspan4216">
              <path
                 d="m 3.828125,19.195312 0,-2.695312 q 3.8085937,-0.371094 5.3125,-1.230469 1.503906,-0.878906 2.246094,-4.121093 l 2.773437,0 0,27.851562 -3.75,0 0,-19.804688 -6.582031,0 z"
                 style=""
                 id="path4972" />
              <path
                 d="m 32.65625,39.761719 q -4.960938,0 -7.207031,-2.714844 Q 23.222656,34.3125 23.222656,30.40625 l 3.671875,0 q 0.234375,2.714844 1.015625,3.945312 1.367188,2.207032 4.941406,2.207032 2.773438,0 4.453125,-1.484375 1.679688,-1.484375 1.679688,-3.828125 0,-2.890625 -1.777344,-4.042969 -1.757812,-1.152344 -4.902344,-1.152344 -0.351562,0 -0.722656,0.01953 -0.351562,0 -0.722656,0.01953 l 0,-3.105469 q 0.546875,0.05859 0.917969,0.07813 0.371093,0.01953 0.800781,0.01953 1.972656,0 3.242187,-0.625 2.226563,-1.09375 2.226563,-3.90625 0,-2.089844 -1.484375,-3.222656 -1.484375,-1.132812 -3.457031,-1.132812 -3.515625,0 -4.863282,2.343749 Q 27.5,17.828125 27.402344,20.210937 l -3.476563,0 q 0,-3.125 1.25,-5.312499 2.148438,-3.90625 7.558594,-3.90625 4.277344,0 6.621094,1.914062 2.34375,1.894531 2.34375,5.507812 0,2.578125 -1.386719,4.179688 -0.859375,0.996094 -2.226563,1.5625 2.207032,0.605469 3.4375,2.34375 1.25,1.71875 1.25,4.21875 0,4.003906 -2.636718,6.523437 Q 37.5,39.761719 32.65625,39.761719 Z"
                 style=""
                 id="path4974" />
              <path
                 d="m 45.78125,39 q 0.195312,-3.613281 1.484375,-6.289063 1.308594,-2.675781 5.078125,-4.863281 l 3.75,-2.167969 q 2.519531,-1.464843 3.535156,-2.5 1.601563,-1.621093 1.601563,-3.710937 0,-2.441406 -1.464844,-3.867187 -1.464844,-1.445313 -3.90625,-1.445313 -3.613281,0 -5,2.734375 -0.742188,1.464844 -0.820313,4.0625 l -3.574218,0 q 0.05859,-3.652344 1.347656,-5.957031 2.285156,-4.0625 8.066406,-4.0625 4.804688,0 7.011719,2.597656 2.226562,2.597656 2.226562,5.78125 0,3.359375 -2.363281,5.742187 -1.367187,1.386719 -4.902344,3.359375 l -2.675781,1.484375 q -1.914062,1.054688 -3.007812,2.011719 -1.953125,1.699219 -2.460938,3.769531 l 15.273438,0 0,3.320313 -19.199219,0 z"
                 style=""
                 id="path4976" />
              <path
                 d="m 70.625,19.195312 0,-2.695312 q 3.808594,-0.371094 5.3125,-1.230469 1.503906,-0.878906 2.246094,-4.121093 l 2.773437,0 0,27.851562 -3.75,0 0,-19.804688 -6.582031,0 z"
                 style=""
                 id="path4978" />
              <path
                 d="m 110.54688,39.761719 q -4.96094,0 -7.20704,-2.714844 -2.22656,-2.734375 -2.22656,-6.640625 l 3.67188,0 q 0.23437,2.714844 1.01562,3.945312 1.36719,2.207032 4.94141,2.207032 2.77344,0 4.45312,-1.484375 1.67969,-1.484375 1.67969,-3.828125 0,-2.890625 -1.77734,-4.042969 -1.75782,-1.152344 -4.90235,-1.152344 -0.35156,0 -0.72265,0.01953 -0.35157,0 -0.72266,0.01953 l 0,-3.105469 q 0.54688,0.05859 0.91797,0.07813 0.37109,0.01953 0.80078,0.01953 1.97266,0 3.24219,-0.625 2.22656,-1.09375 2.22656,-3.90625 0,-2.089844 -1.48437,-3.222656 -1.48438,-1.132812 -3.45704,-1.132812 -3.51562,0 -4.86328,2.343749 -0.74218,1.289063 -0.83984,3.671875 l -3.47656,0 q 0,-3.125 1.25,-5.312499 2.14843,-3.90625 7.55859,-3.90625 4.27734,0 6.62109,1.914062 2.34375,1.894531 2.34375,5.507812 0,2.578125 -1.38671,4.179688 -0.85938,0.996094 -2.22657,1.5625 2.20703,0.605469 3.4375,2.34375 1.25,1.71875 1.25,4.21875 0,4.003906 -2.63672,6.523437 -2.63671,2.519532 -7.48046,2.519532 z"
                 style=""
                 id="path4980" />
              <path
                 d="m 135.64453,29.097656 0,-12.675781 -8.96484,12.675781 8.96484,0 z M 135.70312,39 l 0,-6.835938 -12.26562,0 0,-3.4375 12.8125,-17.773437 2.96875,0 0,18.144531 4.12109,0 0,3.066406 -4.12109,0 0,6.835938 -3.51563,0 z"
                 style=""
                 id="path4982" />
              <path
                 d="m 149.62891,31.871094 q 0.35156,3.007812 2.79296,4.160156 1.25,0.585937 2.89063,0.585937 3.125,0 4.62891,-1.992187 1.5039,-1.992188 1.5039,-4.414063 0,-2.929687 -1.79687,-4.53125 -1.77735,-1.601562 -4.27735,-1.601562 -1.8164,0 -3.125,0.703125 -1.28906,0.703125 -2.20703,1.953125 l -3.04687,-0.175781 2.1289,-15.058594 14.53125,0 0,3.398438 -11.89453,0 -1.1914,7.773437 q 0.97656,-0.742188 1.85546,-1.113281 1.5625,-0.644532 3.61329,-0.644532 3.84765,0 6.52343,2.480469 2.67578,2.480469 2.67578,6.289063 0,3.964843 -2.46093,6.992187 -2.44141,3.027344 -7.8125,3.027344 -3.41797,0 -6.05469,-1.914063 -2.61719,-1.933593 -2.92969,-5.917968 l 3.65235,0 z"
                 style=""
                 id="path4984" />
              <path
                 d="m 171.89453,31.871094 q 0.35156,3.007812 2.79297,4.160156 1.25,0.585937 2.89062,0.585937 3.125,0 4.62891,-1.992187 1.50391,-1.992188 1.50391,-4.414063 0,-2.929687 -1.79688,-4.53125 -1.77734,-1.601562 -4.27734,-1.601562 -1.81641,0 -3.125,0.703125 -1.28906,0.703125 -2.20703,1.953125 L 169.25781,26.558594 171.38672,11.5 l 14.53125,0 0,3.398438 -11.89453,0 -1.19141,7.773437 q 0.97656,-0.742188 1.85547,-1.113281 1.5625,-0.644532 3.61328,-0.644532 3.84766,0 6.52344,2.480469 Q 187.5,25.875 187.5,29.683594 q 0,3.964843 -2.46094,6.992187 -2.4414,3.027344 -7.8125,3.027344 -3.41797,0 -6.05469,-1.914063 -2.61718,-1.933593 -2.92968,-5.917968 l 3.65234,0 z"
                 style=""
                 id="path4986" />
            </g>
          </g>
          <rect
             id="rect4300"
             fill="#000000"
             transform="translate(375.000000, 103.000000) scale(1, -1) translate(-375.000000, -103.000000) "
             x="0"
             y="52"
             width="750"
             height="102" />
          <rect
             id="rect4322"
             fill="#FFFFFF"
             x="16"
             y="177"
             width="562"
             height="80" />
          <g
             id="text4324"
             transform="translate(477.000000, 199.000000)"
             fill="#000000">
            <polygon
               id="path4331"
               points="21.85 31.6 14.65 31.6 14.65 0.6 11 0.6 0.8 6.9 2.6 9.85 10.5 5.1 10.5 31.6 2 31.6 2 35 21.85 35 21.85 31.6" />
            <path
               d="M39.43047,0 C34.78047,0 31.68047,1.65 28.93047,4.95 L31.83047,7.15 C34.03047,4.6 35.88047,3.5 39.28047,3.5 C43.13047,3.5 45.43047,5.9 45.43047,9.75 C45.43047,15.4 42.63047,19.15 29.63047,31.6 L29.63047,35 L50.08047,35 L50.58047,31.45 L34.38047,31.45 C45.73047,21.1 49.78047,15.95 49.78047,9.65 C49.78047,4.15 45.93047,-5.68434189e-14 39.43047,-5.68434189e-14 L39.43047,0 Z"
               id="path4333" />
            <path
               d="M69.41094,0 C65.91094,0 62.56094,1.2 59.66094,4 L61.91094,6.55 C64.21094,4.4 66.26094,3.35 69.21094,3.35 C72.86094,3.35 75.76094,5.4 75.76094,9.2 C75.76094,13.35 72.51094,15.25 69.21094,15.25 L67.16094,15.25 L66.66094,18.55 L69.56094,18.55 C73.61094,18.55 76.71094,20.15 76.71094,25.1 C76.71094,29.4 73.86094,32.15 69.01094,32.15 C66.21094,32.15 63.31094,31 61.36094,28.7 L58.56094,31 C61.16094,34.2 65.26094,35.55 69.11094,35.55 C76.21094,35.55 81.06094,31.05 81.06094,25.1 C81.06094,19.75 77.26094,16.95 73.21094,16.65 C76.86094,15.95 79.96094,12.8 79.96094,8.65 C79.96094,3.95 75.86094,1.13686838e-13 69.41094,1.13686838e-13 L69.41094,0 Z"
               id="path4335" />
          </g>
          <rect
             id="rect4328"
             fill-opacity="0.5"
             fill="#FFFFFF"
             x="16"
             y="310"
             width="133"
             height="95"
             rx="25" />
        </g>
      </g>
    </g>
  </g>
</svg>
