<svg height="471" viewBox="0 0 750 471" width="750" xmlns="http://www.w3.org/2000/svg"><path d="m269.059229 191.663172c-10.98058-52.22062-57.309641-91.426642-112.795759-91.426642-63.6582567 0-115.26347 51.605213-115.26347 115.26347s51.6052133 115.26347 115.26347 115.26347c37.270711 0 70.409781-17.689659 91.479246-45.131012 11.713781 19.330989 33.090728 26.962452 55.994154 26.962452 24.0583 0 41.24194-6.87394 41.24194-6.87394l-3.43733-27.4942s-17.18365 5.16013-34.36743 5.16013c-34.36866 0-36.08666-25.78124-36.08666-25.78124h77.32874c3.43587-20.62097 0-72.17346-51.55249-72.17346-10.322343 0-19.714631 2.170094-27.804411 6.230972zm-229.059229-191.663172h670c22.09139 0 40 17.90861 40 40v391c0 22.09139-17.90861 40-40 40h-670c-22.09139 0-40-17.90861-40-40v-391c0-22.09139 17.90861-40 40-40zm116.26347 264.87251c25.77978-58.44077 44.6849-113.0323 44.6849-113.0323h39.52474s-24.05687 70.07163-68.74177 157.70044h-30.93573c-44.6849-87.62881-68.74177-157.70044-68.74177-157.70044h39.52473s18.90512 54.59153 44.6849 113.0323zm551.78168-7.26685c3.43733-20.62097 0-72.17346-51.55255-72.17346-34.36885 0-58.42572 24.05758-58.42572 61.86305 0 48.11516 30.93157 65.29966 65.299 65.29966 24.0583 0 41.24337-6.87394 41.24337-6.87394l-3.43733-27.4942s-17.18507 5.16013-34.36885 5.16013c-34.36866 0-36.08666-25.78124-36.08666-25.78124zm-53.27044-48.11588c22.33892 0 24.05687 24.05758 24.05687 24.05758h-48.11517s1.71795-24.05758 24.0583-24.05758zm-212.44101 7.25845 5.15514-27.49491s-39.81248-12.0813-72.17346 10.31056v109.97679h34.37014l-.00271-89.35582c13.74644-10.31042 32.65089-3.43662 32.65089-3.43662zm-147.18944-7.25845c-22.33892 0-24.05687 24.05758-24.05687 24.05758h48.11517s-1.71796-24.05758-24.0583-24.05758zm230.65929 58.83395c-10.68307-25.981877-19.301841-52.7653-25.77626-80.1015l-34.366.00454s17.18371 66.34494 46.39864 121.31943h27.48724c29.21495-54.97449 46.39864-121.3072 46.39864-121.3072h-34.366c-6.475853 27.330341-15.0946 54.10808-25.77626 80.08473z" fill="#393939"/></svg>