<svg width="750" height="471" viewBox="0 0 750 471" version="1.1" xmlns="http://www.w3.org/2000/svg" xmlns:xlink="http://www.w3.org/1999/xlink">
    <!-- Generator: Sketch 48.2 (47327) - http://www.bohemiancoding.com/sketch -->
    <desc>Created with Sketch.</desc>
    <defs></defs>
    <g id="Page-1" stroke="none" stroke-width="1" fill="none" fill-rule="evenodd">
        <path d="M269.059229,191.663172 C258.078649,139.442552 211.749588,100.23653 156.26347,100.23653 C92.6052133,100.23653 41,151.841743 41,215.5 C41,279.158257 92.6052133,330.76347 156.26347,330.76347 C193.534181,330.76347 226.673251,313.073811 247.742716,285.632458 C259.456497,304.963447 280.833444,312.59491 303.73687,312.59491 C327.79517,312.59491 344.97881,305.72097 344.97881,305.72097 L341.54148,278.22677 C341.54148,278.22677 324.35783,283.3869 307.17405,283.3869 C272.80539,283.3869 271.08739,257.60566 271.08739,257.60566 L348.41613,257.60566 C351.852,236.98469 348.41613,185.4322 296.86364,185.4322 C286.541297,185.4322 277.149009,187.602294 269.059229,191.663172 Z M40,-1.42108547e-14 L710,-1.42108547e-14 C732.09139,-1.82689772e-14 750,17.90861 750,40 L750,431 C750,453.09139 732.09139,471 710,471 L40,471 C17.90861,471 -1.15054397e-14,453.09139 -1.42108547e-14,431 L-1.42108547e-14,40 C-1.69162697e-14,17.90861 17.90861,-1.01527322e-14 40,-1.42108547e-14 Z M156.26347,264.87251 C182.04325,206.43174 200.94837,151.84021 200.94837,151.84021 L240.47311,151.84021 C240.47311,151.84021 216.41624,221.91184 171.73134,309.54065 L140.79561,309.54065 C96.11071,221.91184 72.05384,151.84021 72.05384,151.84021 L111.57857,151.84021 C111.57857,151.84021 130.48369,206.43174 156.26347,264.87251 Z M708.04515,257.60566 C711.48248,236.98469 708.04515,185.4322 656.4926,185.4322 C622.12375,185.4322 598.06688,209.48978 598.06688,247.29525 C598.06688,295.41041 628.99845,312.59491 663.36588,312.59491 C687.42418,312.59491 704.60925,305.72097 704.60925,305.72097 L701.17192,278.22677 C701.17192,278.22677 683.98685,283.3869 666.80307,283.3869 C632.43441,283.3869 630.71641,257.60566 630.71641,257.60566 L708.04515,257.60566 Z M654.77471,209.48978 C677.11363,209.48978 678.83158,233.54736 678.83158,233.54736 L630.71641,233.54736 C630.71641,233.54736 632.43436,209.48978 654.77471,209.48978 Z M442.3337,216.74823 L447.48884,189.25332 C447.48884,189.25332 407.67636,177.17202 375.31538,199.56388 L375.31538,309.54067 L409.68552,309.54067 L409.68281,220.18485 C423.42925,209.87443 442.3337,216.74823 442.3337,216.74823 Z M295.14426,209.48978 C272.80534,209.48978 271.08739,233.54736 271.08739,233.54736 L319.20256,233.54736 C319.20256,233.54736 317.4846,209.48978 295.14426,209.48978 Z M525.80355,268.32373 C515.12048,242.341853 506.501709,215.55843 500.02729,188.22223 L465.66129,188.22677 C465.66129,188.22677 482.845,254.57171 512.05993,309.5462 L539.54717,309.5462 C568.76212,254.57171 585.94581,188.239 585.94581,188.239 L551.57981,188.239 C545.103957,215.569341 536.48521,242.34708 525.80355,268.32373 Z" id="Combined-Shape" fill="#393939" fill-rule="nonzero"></path>
    </g>
</svg>
