<svg height="471" viewBox="0 0 750 471" width="750" xmlns="http://www.w3.org/2000/svg"><path d="m0 40.0047706c0-22.0940247 17.9143492-40.0047706 39.9919369-40.0047706h670.0161261c22.086937 0 39.991937 17.9064659 39.991937 40.0047706v390.9904584c0 22.094025-17.914349 40.004771-39.991937 40.004771h-670.0161261c-22.0869369 0-39.9919369-17.906466-39.9919369-40.004771zm524.5125 102.6827294c-10.572-3.966-27.136-8.222-47.823-8.222-52.724 0-89.864 26.551-90.18 64.604-.297 28.129 26.514 43.821 46.754 53.185 20.769 9.595 27.752 15.715 27.653 24.283-.132 13.122-16.586 19.117-31.923 19.117-21.357 0-32.703-2.967-50.226-10.276l-6.876-3.112-7.489 43.824c12.463 5.464 35.509 10.199 59.438 10.444 56.089 0 92.501-26.247 92.915-66.882.201-22.269-14.015-39.217-44.799-53.188-18.651-9.056-30.073-15.099-29.952-24.269 0-8.137 9.668-16.838 30.557-16.838 17.449-.271 30.088 3.534 39.936 7.5l4.782 2.259zm136.827-4.633h-41.231c-12.773 0-22.331 3.486-27.941 16.234l-79.245 179.403h56.031s9.162-24.122 11.234-29.418c6.123 0 60.554.084 68.336.084 1.596 6.853 6.492 29.334 6.492 29.334h49.512zm-65.797 126.178c4.413-11.279 21.259-54.723 21.259-54.723-.315.521 4.38-11.334 7.075-18.684l3.607 16.878s10.217 46.729 12.352 56.528h-44.293zm-317.892 69.397h53.336l33.384-195.762h-53.359zm-102.562018-89.262704-18.706982-89.950296c-3.23-12.396-12.598-16.095-24.187-16.527h-86.041l-.681 4.073c20.9299534 5.066538 39.6459477 12.377243 56.048301 21.471671l47.438699 170.026329 56.455-.065 84.004-195.385h-56.521l-52.24 133.495-5.566-27.129c-.001006-.003234-.002012-.006469-.003018-.009703z" fill="#393939"/></svg>