<svg width="750" height="471" viewBox="0 0 750 471" version="1.1" xmlns="http://www.w3.org/2000/svg" xmlns:xlink="http://www.w3.org/1999/xlink">
    <!-- Generator: Sketch 48.2 (47327) - http://www.bohemiancoding.com/sketch -->
    <desc>Created with Sketch.</desc>
    <defs></defs>
    <g id="Page-1" stroke="none" stroke-width="1" fill="none" fill-rule="evenodd">
        <g id="visa">
            <path d="M0,40.0047706 C0,17.9107459 17.9143492,0 39.9919369,0 L710.008063,0 C732.095,0 750,17.9064659 750,40.0047706 L750,430.995229 C750,453.089254 732.085651,471 710.008063,471 L39.9919369,471 C17.905,471 0,453.093534 0,430.995229 L0,40.0047706 Z" id="Path" fill="#393939"></path>
            <g id="Group" transform="translate(45.000000, 134.000000)">
                <path d="M479.5125,8.6875 C468.9405,4.7215 452.3765,0.4655 431.6895,0.4655 C378.9655,0.4655 341.8255,27.0165 341.5095,65.0695 C341.2125,93.1985 368.0235,108.8905 388.2635,118.2545 C409.0325,127.8495 416.0155,133.9695 415.9165,142.5375 C415.7845,155.6595 399.3305,161.6545 383.9935,161.6545 C362.6365,161.6545 351.2905,158.6875 333.7675,151.3785 L326.8915,148.2665 L319.4025,192.0905 C331.8655,197.5545 354.9115,202.2895 378.8405,202.5345 C434.9295,202.5345 471.3415,176.2875 471.7555,135.6525 C471.9565,113.3835 457.7405,96.4355 426.9565,82.4645 C408.3055,73.4085 396.8835,67.3655 397.0045,58.1955 C397.0045,50.0585 406.6725,41.3575 427.5615,41.3575 C445.0105,41.0865 457.6495,44.8915 467.4975,48.8575 L472.2795,51.1165 L479.5125,8.6875 Z" id="Rectangle-1-path" fill="#FFFFFF"></path>
                <path d="M616.3395,4.0545 L575.1085,4.0545 C562.3355,4.0545 552.7775,7.5405 547.1675,20.2885 L467.9225,199.6915 L523.9535,199.6915 C523.9535,199.6915 533.1155,175.5695 535.1875,170.2735 C541.3105,170.2735 595.7415,170.3575 603.5235,170.3575 C605.1195,177.2105 610.0155,199.6915 610.0155,199.6915 L659.5275,199.6915 L616.3395,4.0545 Z" id="Rectangle-1-path" fill="#FFFFFF"></path>
                <path d="M550.5425,130.2325 C554.9555,118.9535 571.8015,75.5095 571.8015,75.5095 C571.4865,76.0305 576.1815,64.1755 578.8765,56.8255 L582.4835,73.7035 C582.4835,73.7035 592.7005,120.4325 594.8355,130.2315 L550.5425,130.2315 L550.5425,130.2325 Z" id="Rectangle-1-path" fill="#393939"></path>
                <polygon id="Rectangle-1" fill="#FFFFFF" fill-rule="nonzero" points="232.6505 199.6295 266.0115 3.8675 319.3705 3.8675 285.9865 199.6295"></polygon>
                <path d="M130.088482,110.366797 C130.089488,110.370031 130.090494,110.373266 130.0915,110.3765 L135.6575,137.5055 L187.8975,4.0105 L244.4185,4.0105 L160.4145,199.3955 L103.9595,199.4605 L56.520801,29.434171 C40.1184477,20.339743 21.4024534,13.029038 0.4725,7.9625 L1.1535,3.8895 L87.1945,3.8895 C98.7835,4.3215 108.1515,8.0205 111.3815,20.4165 L130.088482,110.366796 L130.088482,110.366797 Z" id="Rectangle-1-path" fill="#FFFFFF"></path>
            </g>
        </g>
    </g>
</svg>
