<svg xmlns="http://www.w3.org/2000/svg" width="750" height="471" viewBox="0 0 750 471"><g fill="none" fill-rule="evenodd"><rect width="750" height="471" fill="#FFF" rx="40"/><path fill="#2BA6DF" d="M99.46 243.35c-4.8.6-13.203 2.4-18.004 6.6-14.403 12.599-6.001 34.798 23.406 34.798 16.803 0 33.607-10.8 46.81-27.599-19.204-9-34.808-15.6-52.212-13.8z"/><path fill="#2BA6DF" d="M207.034 258.797c27.006 9 33.007 9.6 33.007 9.6v-95.998c0-16.2-13.203-29.399-30.006-29.399H84.007C67.803 143 54 156.2 54 172.4v125.996c0 16.199 13.203 29.399 30.007 29.399h126.028c16.203 0 30.006-13.2 30.006-29.4v-1.2s-48.01-19.799-72.616-31.799c-16.203 19.8-37.208 32.4-59.413 32.4-37.208 0-49.811-32.4-31.807-53.399 3.6-4.8 10.202-9 20.404-11.4 15.604-3.6 40.81 2.4 64.215 10.2 4.2-7.8 7.801-16.2 10.202-25.2H98.41v-7.199h37.208v-14.4h-45.61v-7.2h45.61V170.6s0-3 3-3h18.005v22.2h45.01v6.6h-45.01v13.2h36.608c-3.6 14.399-9.002 27.598-15.604 38.998 12.003 4.2 22.205 7.8 29.407 10.2z"/><path fill="#3F3A39" d="M325.689 186.613l39.609 85.797h-21.005l-10.802-22.8h-32.408l-10.802 22.8h-13.803l40.209-83.398s1.2-2.4 3.6-2.4h5.402zm-21.005 55.198h25.206l-12.603-27-12.603 27zm87.448 31.282h-19.204v-81.598c0-2.4 1.2-3.6 4.2-3.6h15.004v85.198zm36.008-.559h-19.204v-61.798c0-2.4 1.2-3.6 4.2-3.6h15.004v65.398zm23.482-64.115h12.603v6c2.4-1.8 4.8-3.6 7.801-4.2 3.001-1.2 6.002-1.8 10.203-1.8 4.2 0 7.801.6 10.802 2.4 3.6 1.8 6.001 3.6 8.402 6.6 2.4 3 4.2 6 5.401 9.6 1.2 3.6 1.8 7.2 1.8 11.399 0 5.4-.6 10.2-2.4 14.4-1.8 4.2-3.6 8.4-6.601 11.4s-6.002 5.999-10.203 7.799c-4.2 1.8-8.402 2.4-13.203 2.4h-6.601c-1.8 0-3.6-.6-5.401-1.2v21.6H445.02v-78.598c-.6-7.8 2.401-7.8 6.602-7.8zm12.603 46.798c0 1.8 0 3 .6 4.2.6 1.2 1.2 2.4 2.4 3.6 1.2 1.2 2.4 1.8 3.601 2.4 1.2.6 3 .6 4.801.6 1.8 0 3-.6 4.801-1.8 1.2-1.2 3.001-2.4 3.601-4.8.6-2.4 1.8-4.2 2.4-7.2.6-3 1.2-5.4 1.2-9 0-4.2 0-7.799-.6-10.799-.6-3-1.2-5.4-2.4-7.8-1.2-1.8-2.4-3.6-3.6-4.8-1.2-1.2-3.001-1.8-4.802-1.8-1.2 0-2.4 0-3.6.6-1.2.6-2.4 1.2-3.001 1.8-1.2.6-1.8 1.8-3 2.4-1.201 1.2-1.801 1.8-2.401 3v29.4zm81.027-46.798c4.801 0 8.402.6 12.003 1.2 3 .6 6.001 1.8 8.402 3.6 2.4 1.8 3.6 3.6 4.8 5.4 1.2 2.4 1.801 4.8 1.801 7.2v47.398h-19.204v-4.8c-1.2 1.2-2.4 1.8-3 2.4l-3.602 1.8c-1.2.6-2.4 1.2-4.2 1.2-1.801.6-3.601.6-5.402.6-3 0-5.401-.6-7.802-1.2-2.4-.6-4.2-1.8-6-3.6-1.801-1.2-3.002-3-3.602-5.4-.6-1.8-1.2-4.2-1.2-6.6 0-2.4.6-4.8 1.2-6.6.6-1.8 2.4-3.6 3.601-5.4 1.2-1.8 3.6-3 5.401-4.2 2.4-1.2 4.201-2.4 7.202-3.6 2.4-1.199 4.8-1.799 7.802-2.999 2.4-.6 5.4-1.8 7.801-2.4l2.4-.6v-6.6c0-1.8 0-3.6-.6-5.4l-1.8-3.6c-.6-.6-1.8-1.8-2.4-1.8-1.2-.6-2.4-.6-3.601-.6 0 0-10.202 0-19.204 7.8l-4.201-6.6c-1.8 1.2 9.002-6.6 23.405-6.6zm6.601 31.799c-1.8.6-3.6 1.8-5.4 3l-5.402 3.6c-1.8 1.2-3 2.4-3.6 4.2-1.201 1.2-1.201 3-1.201 4.2 0 1.2 0 2.4.6 3.6.6 1.2.6 1.8 1.2 3s1.2 1.2 1.8 1.8c.6.6 1.201.6 2.401.6 1.8 0 3.001-.6 4.801-1.2l5.402-3.6v-19.2h-.6zm46.554 53.998h-12.603l-.6-11.4s15.603.6 20.404-5.4c1.8-2.4 3-8.999 3-8.999l-31.206-59.998h21.005l19.804 38.999 17.404-39h13.803l-31.807 70.799c-1.2 2.4-6.001 15-19.204 15z"/><ellipse cx="418.602" cy="189.5" fill="#2BA6DF" rx="9.602" ry="8.5"/><path fill="#3F3A39" d="M668.879 158.31h-6.601v-1.2h14.403v1.2h-6.601v18.599h-1.801V158.31zM679.596 157.11h2.4l4.202 11.4 1.8 4.2c.6-1.2 1.2-3 1.8-4.2l4.201-11.4h2.4v20.4H694v-18l-1.8 4.8-4.201 12h-1.2l-4.201-12-1.8-4.8v18h-1.801v-20.4h.6z"/></g></svg>