<svg width="750" height="471" viewBox="0 0 750 471" xmlns="http://www.w3.org/2000/svg"><g fill-rule="nonzero" fill="none"><rect fill="#2557D6" width="750" height="471" rx="40"/><path d="M.003 221.185h36.024l8.123-19.51h18.185l8.101 19.51h70.88V206.27l6.327 14.98h36.796l6.327-15.202v15.138h176.151l-.082-32.026h3.408c2.386.083 3.083.302 3.083 4.226v27.8h91.106v-7.455c7.349 3.92 18.779 7.455 33.819 7.455h38.328l8.203-19.51h18.185l8.021 19.51h73.86v-18.532l11.186 18.532h59.187V98.678h-58.576v14.468l-8.202-14.468h-60.105v14.468l-7.532-14.468h-81.188c-13.59 0-25.536 1.889-35.186 7.153v-7.153h-56.026v7.153c-6.14-5.426-14.508-7.153-23.812-7.153H179.908l-13.734 31.641-14.104-31.641H87.6v14.468l-7.083-14.468H25.534L0 156.924v64.261h.003zm227.397-17.67h-21.615l-.08-68.794-30.573 68.793H156.62l-30.652-68.854v68.854H83.084l-8.101-19.592h-43.9L22.9 203.514H0l37.756-87.837h31.326l35.859 83.164v-83.164h34.412l27.593 59.587 25.347-59.587h35.104v87.837h.003zM67.777 165.692l-14.43-35.017-14.35 35.017h28.78zm245.642 37.821h-70.433v-87.837h70.433v18.291h-49.348v15.833h48.165v18.005H264.07v17.542h49.348v18.166zm99.256-64.18c0 14.004-9.386 21.24-14.856 23.412 4.613 1.748 8.553 4.838 10.43 7.397 2.976 4.369 3.49 8.271 3.49 16.116v17.255h-21.266l-.08-11.077c0-5.285.508-12.886-3.328-17.112-3.081-3.09-7.777-3.76-15.368-3.76h-22.633v31.95H327.98v-87.838h48.495c10.775 0 18.714.283 25.53 4.207 6.67 3.924 10.67 9.652 10.67 19.45zm-26.652 13.042c-2.898 1.752-6.324 1.81-10.43 1.81H349.98v-19.51h25.962c3.674 0 7.508.164 9.998 1.584 2.735 1.28 4.427 4.003 4.427 7.765 0 3.84-1.61 6.929-4.344 8.351zm60.466 51.138h-21.513v-87.837h21.513v87.837zm249.74 0H666.35l-39.964-65.927v65.927h-42.94l-8.204-19.592h-43.799l-7.96 19.592H498.81c-10.248 0-23.224-2.257-30.572-9.715-7.41-7.458-11.265-17.56-11.265-33.533 0-13.027 2.304-24.936 11.366-34.347 6.816-7.01 17.49-10.242 32.02-10.242h20.412v18.821h-19.984c-7.694 0-12.039 1.14-16.224 5.203-3.594 3.699-6.06 10.69-6.06 19.897 0 9.41 1.878 16.196 5.797 20.628 3.245 3.476 9.144 4.53 14.694 4.53h9.469l29.716-69.076h31.592l35.696 83.081V115.68h32.103l37.062 61.174V115.68h21.596v87.834zM568.07 165.693l-14.591-35.017-14.51 35.017h29.1zM749.956 343.767c-5.121 7.458-15.101 11.239-28.611 11.239h-40.718v-18.84h40.553c4.022 0 6.837-.527 8.532-2.175a7.71 7.71 0 002.493-5.73c0-2.56-1.024-4.592-2.575-5.81-1.53-1.341-3.757-1.95-7.429-1.95-19.797-.67-44.495.609-44.495-27.194 0-12.743 8.125-26.157 30.25-26.157h41.998l.002-17.48h-39.022c-11.776 0-20.33 2.808-26.388 7.174v-7.175H626.83c-9.23 0-20.063 2.279-25.187 7.175v-7.175H498.578v7.175c-8.203-5.892-22.043-7.175-28.431-7.175h-67.983v7.175c-6.49-6.258-20.92-7.175-29.716-7.175h-76.085l-17.41 18.763-16.307-18.763H148.99v122.592h111.516l17.94-19.06 16.9 19.06 68.739.061v-28.838h6.757c9.12.14 19.878-.226 29.368-4.31v33.085h56.697v-31.952h2.735c3.49 0 3.834.143 3.834 3.616v28.333H635.71c10.935 0 22.365-2.787 28.695-7.845v7.845h54.632c11.369 0 22.471-1.587 30.918-5.651v-22.838zm-341.503-47.154c0 24.406-18.286 29.445-36.716 29.445H345.43v29.469h-40.98l-25.962-29.085-26.981 29.085H167.99v-87.859h84.8l25.941 28.799 26.819-28.799h67.371c16.732 0 35.532 4.613 35.532 28.945zm-167.625 40.434h-51.839v-17.481h46.289V301.64h-46.289v-15.973h52.86l23.062 25.604-24.083 25.776zm83.526 10.06l-32.37-35.788 32.37-34.651v70.439zm47.873-39.066H344.98v-22.374h27.492c7.612 0 12.896 3.09 12.896 10.773 0 7.598-5.04 11.601-13.14 11.601zm142.744-40.373h70.369v18.17h-49.372v15.973h48.167v17.925h-48.167v17.481l49.372.08v18.23h-70.37v-87.859zm-27.054 47.03c4.693 1.724 8.53 4.816 10.329 7.375 2.977 4.29 3.408 8.293 3.493 16.037v17.417H480.57v-10.992c0-5.286.511-13.112-3.408-17.198-3.08-3.147-7.777-3.9-15.468-3.9h-22.533v32.09h-21.186v-87.859h48.678c10.674 0 18.448.47 25.369 4.146 6.654 4.004 10.839 9.488 10.839 19.51-.003 14.024-9.395 21.18-14.945 23.373zM476 303.59c-2.82 1.667-6.308 1.81-10.41 1.81h-25.614v-19.733h25.962c3.754 0 7.51.08 10.062 1.587 2.732 1.423 4.366 4.144 4.366 7.903 0 3.76-1.634 6.788-4.366 8.433zm190.336 5.597c4.106 4.23 6.306 9.572 6.306 18.614 0 18.9-11.858 27.723-33.122 27.723h-41.065v-18.84h40.9c4 0 6.836-.527 8.613-2.175 1.45-1.359 2.49-3.333 2.49-5.73 0-2.56-1.125-4.592-2.573-5.81-1.612-1.34-3.836-1.95-7.508-1.95-19.717-.67-44.41.61-44.41-27.193 0-12.744 8.04-26.158 30.144-26.158h42.269v18.7h-38.677c-3.834 0-6.327.143-8.447 1.587-2.31 1.422-3.166 3.534-3.166 6.32 0 3.315 1.96 5.57 4.613 6.545 2.224.77 4.613.996 8.205.996l11.35.305c11.446.278 19.303 2.249 24.078 7.066zM750 285.667h-38.427c-3.836 0-6.385.143-8.532 1.587-2.224 1.423-3.081 3.534-3.081 6.322 0 3.314 1.878 5.569 4.61 6.544 2.225.77 4.614.996 8.126.996l11.427.304c11.531.284 19.228 2.258 23.921 7.072.855.67 1.368 1.422 1.956 2.175v-25z" fill="#FFF"/></g></svg>