<svg width="752" height="471" viewBox="0 0 752 471" xmlns="http://www.w3.org/2000/svg"><title>Slice 1</title><g fill="none" fill-rule="evenodd"><rect fill="#2557D6" x="1" width="750" height="471" rx="40"/><path d="M1.003 221.185h36.024l8.123-19.51h18.185l8.1 19.51h70.88V206.27l6.328 14.98h36.796l6.326-15.203v15.138h176.15l-.08-32.026h3.407c2.386.082 3.083.3 3.083 4.225v27.8h91.106v-7.455c7.35 3.92 18.78 7.455 33.82 7.455h38.327l8.202-19.51h18.185l8.02 19.51h73.86v-18.532l11.187 18.532h59.187V98.678h-58.575v14.468l-8.202-14.468h-60.105v14.468l-7.532-14.468h-81.188c-13.59 0-25.536 1.89-35.186 7.153V98.68h-56.026v7.153c-6.14-5.425-14.508-7.152-23.812-7.152H180.908l-13.734 31.64-14.104-31.64H88.6v14.468l-7.083-14.468H26.534L1 156.924v64.26h.003zm227.396-17.67h-21.615l-.08-68.794-30.573 68.794H157.62l-30.652-68.854v68.854H84.084l-8.1-19.592h-43.9L23.9 203.514H1l37.756-87.837h31.326l35.86 83.164v-83.163h34.41l27.594 59.587 25.347-59.587h35.104v87.837h.003zM68.776 165.692l-14.43-35.017-14.35 35.017h28.78zm245.642 37.82h-70.434v-87.836h70.433v18.29h-49.35v15.834h48.166v18.006H265.07v17.542h49.35v18.166zm99.255-64.18c0 14.005-9.386 21.24-14.856 23.413 4.612 1.748 8.552 4.838 10.428 7.397 2.977 4.37 3.49 8.27 3.49 16.116v17.254h-21.265l-.08-11.077c0-5.285.508-12.886-3.328-17.112-3.08-3.09-7.777-3.76-15.368-3.76h-22.633v31.95H328.98v-87.838h48.496c10.775 0 18.714.283 25.53 4.207 6.67 3.924 10.67 9.652 10.67 19.45zm-26.652 13.043c-2.898 1.752-6.324 1.81-10.43 1.81H350.98v-19.51h25.962c3.674 0 7.508.164 9.998 1.584 2.735 1.28 4.427 4.003 4.427 7.765 0 3.84-1.61 6.93-4.344 8.35zm60.466 51.138h-21.514v-87.837h21.513v87.837zm249.74 0h-29.88l-39.964-65.927v65.927h-42.94l-8.204-19.592h-43.8l-7.96 19.592h-24.67c-10.25 0-23.225-2.257-30.573-9.715-7.41-7.46-11.266-17.56-11.266-33.534 0-13.027 2.304-24.936 11.366-34.347 6.816-7.01 17.49-10.243 32.02-10.243h20.412v18.82h-19.984c-7.694 0-12.04 1.14-16.224 5.204-3.594 3.7-6.06 10.692-6.06 19.898 0 9.41 1.878 16.196 5.797 20.628 3.246 3.476 9.145 4.53 14.695 4.53h9.47l29.715-69.076h31.592l35.696 83.08v-83.08h32.103l37.063 61.174V115.68h21.596v87.834zm-128.16-37.82l-14.59-35.018-14.51 35.017h29.1zM750.956 343.767c-5.12 7.458-15.1 11.24-28.61 11.24h-40.72v-18.84h40.554c4.022 0 6.837-.528 8.532-2.176 1.47-1.358 2.493-3.332 2.493-5.73 0-2.56-1.024-4.59-2.575-5.81-1.53-1.34-3.757-1.95-7.43-1.95-19.796-.67-44.494.61-44.494-27.193 0-12.743 8.125-26.157 30.25-26.157h41.998v-17.48h-39.02c-11.776 0-20.33 2.808-26.388 7.174v-7.175H627.83c-9.23 0-20.063 2.278-25.187 7.174v-7.175H499.578v7.174c-8.203-5.892-22.043-7.175-28.43-7.175h-67.984v7.174c-6.49-6.258-20.92-7.175-29.716-7.175h-76.085l-17.41 18.762-16.307-18.763H149.99v122.59h111.517l17.94-19.058 16.9 19.06 68.74.06v-28.838h6.756c9.12.14 19.878-.226 29.368-4.31v33.085h56.698v-31.953h2.735c3.49 0 3.834.143 3.834 3.616v28.333H636.71c10.936 0 22.366-2.787 28.696-7.845v7.846h54.632c11.37 0 22.47-1.587 30.918-5.65v-22.84zm-341.503-47.154c0 24.406-18.286 29.445-36.716 29.445H346.43v29.47h-40.98l-25.963-29.086-26.98 29.085H168.99v-87.86h84.8l25.94 28.8 26.82-28.8h67.37c16.733 0 35.533 4.614 35.533 28.946zm-167.625 40.434h-51.84v-17.48h46.29V301.64h-46.29v-15.973h52.86l23.063 25.604-24.082 25.777zm83.526 10.06l-32.37-35.788 32.37-34.652v70.44zm47.873-39.066H345.98v-22.373h27.492c7.612 0 12.896 3.09 12.896 10.773 0 7.598-5.04 11.6-13.14 11.6zM515.97 267.67h70.37v18.17h-49.372v15.973h48.167v17.926h-48.167v17.48l49.372.08v18.23h-70.37V267.67zm-27.053 47.03c4.693 1.724 8.53 4.816 10.33 7.375 2.976 4.29 3.407 8.293 3.492 16.037v17.417h-21.17v-10.992c0-5.286.512-13.112-3.407-17.198-3.08-3.147-7.777-3.9-15.468-3.9h-22.533v32.09h-21.186v-87.86h48.678c10.674 0 18.448.47 25.37 4.147 6.653 4.004 10.838 9.488 10.838 19.51-.003 14.024-9.395 21.18-14.945 23.373zM477 303.59c-2.82 1.667-6.31 1.81-10.412 1.81h-25.613v-19.733h25.962c3.754 0 7.51.08 10.062 1.587 2.73 1.423 4.365 4.144 4.365 7.903 0 3.76-1.634 6.788-4.366 8.433zm190.335 5.597c4.106 4.23 6.306 9.572 6.306 18.614 0 18.902-11.857 27.724-33.12 27.724h-41.066v-18.84h40.9c4 0 6.836-.527 8.613-2.175 1.45-1.36 2.49-3.334 2.49-5.73 0-2.56-1.125-4.593-2.573-5.81-1.612-1.342-3.836-1.95-7.508-1.95-19.717-.672-44.41.608-44.41-27.194 0-12.744 8.04-26.158 30.144-26.158h42.27v18.7H630.7c-3.834 0-6.327.143-8.447 1.587-2.31 1.422-3.166 3.534-3.166 6.32 0 3.315 1.96 5.57 4.612 6.545 2.224.77 4.613.996 8.205.996l11.35.305c11.446.28 19.303 2.25 24.078 7.067zM751 285.667h-38.427c-3.836 0-6.385.143-8.532 1.587-2.223 1.423-3.08 3.534-3.08 6.322 0 3.314 1.878 5.57 4.61 6.544 2.225.77 4.614.996 8.126.996l11.427.304c11.53.284 19.228 2.258 23.92 7.072.856.67 1.37 1.422 1.957 2.175v-25z" fill="#FFF"/></g></svg>