<svg width="750" height="471" viewBox="0 0 750 471" xmlns="http://www.w3.org/2000/svg"><g fill-rule="nonzero" fill="none"><rect fill="#000C9D" width="750" height="471" rx="40"/><rect fill="#9D9400" x="48.71" y="153.576" width="110.324" height="99.679" rx="20.323"/><g fill="#FFF"><path d="M78.102 310.37v-3.795h-5.117v-11.27h-4.198l-.402 11.27H56.942l10.58-25.07-3.967-1.725-11.673 27.14v3.45h16.445v9.66h4.658v-9.66h5.117zM97.688 279.78c-4.025 0-7.878 1.38-11.213 4.6l2.588 2.933c2.645-2.473 5.002-3.68 8.395-3.68 4.197 0 7.532 2.357 7.532 6.727 0 4.773-3.737 6.958-7.532 6.958H95.1l-.575 3.795h3.335c4.658 0 8.223 1.84 8.223 7.532 0 4.945-3.278 8.108-8.855 8.108-3.22 0-6.555-1.323-8.798-3.968l-3.22 2.645c2.99 3.68 7.705 5.233 12.133 5.233 8.165 0 13.742-5.175 13.742-12.018 0-6.152-4.37-9.372-9.027-9.717 4.197-.805 7.762-4.428 7.762-9.2 0-5.405-4.715-9.948-12.132-9.948zM132.165 279.78c-5.347 0-8.912 1.898-12.075 5.693l3.335 2.53c2.53-2.933 4.658-4.198 8.568-4.198 4.427 0 7.072 2.76 7.072 7.188 0 6.497-3.22 10.81-18.17 25.127v3.91h23.518l.575-4.082h-18.63c13.052-11.903 17.71-17.825 17.71-25.07 0-6.325-4.428-11.098-11.903-11.098zM180.903 316.12h-8.28v-35.65h-4.198l-11.73 7.245 2.07 3.393 9.085-5.463v30.475h-9.775v3.91h22.828v-3.91zM250.49 310.37v-3.795h-5.117v-11.27h-4.198l-.402 11.27H229.33l10.58-25.07-3.967-1.725-11.673 27.14v3.45h16.445v9.66h4.658v-9.66h5.117zM270.075 279.78c-4.025 0-7.877 1.38-11.212 4.6l2.587 2.933c2.645-2.473 5.003-3.68 8.395-3.68 4.198 0 7.533 2.357 7.533 6.727 0 4.773-3.738 6.958-7.533 6.958h-2.357l-.575 3.795h3.335c4.657 0 8.222 1.84 8.222 7.532 0 4.945-3.277 8.108-8.855 8.108-3.22 0-6.555-1.323-8.797-3.968l-3.22 2.645c2.99 3.68 7.705 5.233 12.132 5.233 8.165 0 13.743-5.175 13.743-12.018 0-6.152-4.37-9.372-9.028-9.717 4.198-.805 7.763-4.428 7.763-9.2 0-5.405-4.715-9.948-12.133-9.948zM304.553 279.78c-5.348 0-8.913 1.898-12.075 5.693l3.335 2.53c2.53-2.933 4.657-4.198 8.567-4.198 4.428 0 7.073 2.76 7.073 7.188 0 6.497-3.22 10.81-18.17 25.127v3.91H316.8l.575-4.082h-18.63c13.053-11.903 17.71-17.825 17.71-25.07 0-6.325-4.427-11.098-11.902-11.098zM353.29 316.12h-8.28v-35.65h-4.197l-11.73 7.245 2.07 3.393 9.085-5.463v30.475h-9.775v3.91h22.827v-3.91zM422.878 310.37v-3.795h-5.118v-11.27h-4.197l-.403 11.27h-11.442l10.58-25.07-3.968-1.725-11.672 27.14v3.45h16.445v9.66h4.657v-9.66h5.118zM442.463 279.78c-4.025 0-7.878 1.38-11.213 4.6l2.588 2.933c2.645-2.473 5.002-3.68 8.395-3.68 4.197 0 7.532 2.357 7.532 6.727 0 4.773-3.737 6.958-7.532 6.958h-2.358l-.575 3.795h3.335c4.658 0 8.223 1.84 8.223 7.532 0 4.945-3.278 8.108-8.855 8.108-3.22 0-6.555-1.323-8.798-3.968l-3.22 2.645c2.99 3.68 7.705 5.233 12.133 5.233 8.165 0 13.742-5.175 13.742-12.018 0-6.152-4.37-9.372-9.027-9.717 4.197-.805 7.762-4.428 7.762-9.2 0-5.405-4.715-9.948-12.132-9.948zM476.94 279.78c-5.347 0-8.912 1.898-12.075 5.693l3.335 2.53c2.53-2.933 4.658-4.198 8.568-4.198 4.427 0 7.072 2.76 7.072 7.188 0 6.497-3.22 10.81-18.17 25.127v3.91h23.518l.575-4.082h-18.63c13.052-11.903 17.71-17.825 17.71-25.07 0-6.325-4.428-11.098-11.903-11.098zM525.678 316.12h-8.28v-35.65H513.2l-11.73 7.245 2.07 3.393 9.085-5.463v30.475h-9.775v3.91h22.828v-3.91zM595.266 310.37v-3.795h-5.118v-11.27h-4.197l-.403 11.27h-11.442l10.58-25.07-3.968-1.725-11.672 27.14v3.45h16.445v9.66h4.657v-9.66h5.118zM614.85 279.78c-4.024 0-7.877 1.38-11.212 4.6l2.588 2.933c2.645-2.473 5.002-3.68 8.395-3.68 4.197 0 7.532 2.357 7.532 6.727 0 4.773-3.737 6.958-7.532 6.958h-2.358l-.575 3.795h3.335c4.658 0 8.223 1.84 8.223 7.532 0 4.945-3.278 8.108-8.855 8.108-3.22 0-6.555-1.323-8.798-3.968l-3.22 2.645c2.99 3.68 7.705 5.233 12.133 5.233 8.165 0 13.742-5.175 13.742-12.018 0-6.152-4.37-9.372-9.027-9.717 4.197-.805 7.762-4.428 7.762-9.2 0-5.405-4.715-9.948-12.132-9.948zM649.328 279.78c-5.347 0-8.912 1.898-12.075 5.693l3.335 2.53c2.53-2.933 4.658-4.198 8.568-4.198 4.427 0 7.072 2.76 7.072 7.188 0 6.497-3.22 10.81-18.17 25.127v3.91h23.518l.575-4.082h-18.63c13.052-11.903 17.71-17.825 17.71-25.07 0-6.325-4.428-11.098-11.903-11.098zM698.066 316.12h-8.28v-35.65h-4.198l-11.73 7.245 2.07 3.393 9.085-5.463v30.475h-9.775v3.91h22.828v-3.91z"/></g><g fill="#FFF" fill-opacity=".784"><path d="M55.607 415.42h6.445v-22.245l-7.012 1.406v-3.594l6.973-1.406h3.945v25.84h6.446v3.32H55.607zM81.075 415.42h6.446v-22.245l-7.012 1.406v-3.594l6.973-1.406h3.945v25.84h6.445v3.32H81.075zM121.993 415.42h13.77v3.321h-18.516v-3.32a762.619 762.619 0 016.114-6.23c2.59-2.618 4.218-4.304 4.882-5.06 1.263-1.418 2.142-2.616 2.637-3.593.508-.99.762-1.96.762-2.91 0-1.55-.547-2.813-1.64-3.79-1.082-.976-2.494-1.464-4.24-1.464-1.236 0-2.545.215-3.925.645-1.367.43-2.832 1.08-4.394 1.953v-3.985c1.588-.638 3.073-1.12 4.453-1.445 1.38-.326 2.643-.488 3.789-.488 3.02 0 5.43.755 7.226 2.265 1.797 1.51 2.696 3.529 2.696 6.055a8.707 8.707 0 01-.684 3.418c-.443 1.068-1.256 2.33-2.441 3.789-.326.378-1.361 1.471-3.106 3.281a2473.283 2473.283 0 01-7.383 7.559zM156.017 403.019c1.888.403 3.36 1.243 4.414 2.52 1.068 1.275 1.601 2.85 1.601 4.726 0 2.877-.99 5.104-2.968 6.68-1.98 1.575-4.792 2.363-8.438 2.363-1.224 0-2.487-.124-3.789-.372a26.623 26.623 0 01-4.004-1.074v-3.808a13.669 13.669 0 003.594 1.445 16.77 16.77 0 004.082.488c2.474 0 4.355-.488 5.645-1.465 1.302-.976 1.953-2.395 1.953-4.257 0-1.72-.606-3.06-1.817-4.024-1.198-.976-2.87-1.465-5.02-1.465h-3.398v-3.242h3.555c1.94 0 3.424-.384 4.453-1.152 1.029-.781 1.543-1.901 1.543-3.36 0-1.497-.534-2.643-1.601-3.437-1.055-.807-2.572-1.211-4.551-1.211-1.081 0-2.24.117-3.477.352-1.237.234-2.597.599-4.082 1.093v-3.515a38.347 38.347 0 014.2-.938 23.777 23.777 0 013.71-.312c2.995 0 5.365.683 7.11 2.05 1.744 1.355 2.617 3.19 2.617 5.508 0 1.615-.462 2.982-1.387 4.102-.924 1.107-2.24 1.875-3.945 2.305zM182.306 389.581h15.488v3.32H185.92v7.149a10.371 10.371 0 011.719-.43 9.59 9.59 0 011.719-.156c3.255 0 5.833.892 7.734 2.676 1.901 1.783 2.852 4.199 2.852 7.246 0 3.138-.977 5.58-2.93 7.324-1.953 1.732-4.707 2.598-8.262 2.598-1.224 0-2.474-.105-3.75-.313a29.94 29.94 0 01-3.926-.937v-3.965a15.373 15.373 0 003.633 1.426c1.25.312 2.572.468 3.965.468 2.253 0 4.037-.592 5.352-1.777 1.315-1.185 1.972-2.793 1.972-4.824 0-2.032-.657-3.64-1.972-4.825-1.315-1.184-3.1-1.777-5.352-1.777-1.055 0-2.11.117-3.164.352a16.66 16.66 0 00-3.203 1.093v-14.648zM216.173 404.894c-1.875 0-3.353.5-4.434 1.503-1.067 1.003-1.601 2.383-1.601 4.141s.534 3.138 1.601 4.14c1.081 1.003 2.56 1.505 4.434 1.505 1.875 0 3.353-.502 4.434-1.504 1.08-1.016 1.62-2.396 1.62-4.14 0-1.759-.54-3.139-1.62-4.142-1.068-1.002-2.546-1.503-4.434-1.503zm-3.945-1.68c-1.693-.417-3.015-1.205-3.965-2.363-.938-1.16-1.406-2.572-1.406-4.239 0-2.33.827-4.173 2.48-5.527 1.667-1.354 3.945-2.031 6.836-2.031 2.904 0 5.182.677 6.836 2.03 1.654 1.355 2.48 3.198 2.48 5.528 0 1.667-.475 3.08-1.425 4.239-.938 1.158-2.246 1.946-3.926 2.363 1.901.443 3.379 1.308 4.434 2.597 1.067 1.29 1.601 2.865 1.601 4.727 0 2.826-.866 4.994-2.598 6.504-1.718 1.51-4.186 2.266-7.402 2.266s-5.69-.756-7.422-2.266c-1.719-1.51-2.578-3.678-2.578-6.504 0-1.862.534-3.437 1.602-4.727 1.067-1.289 2.552-2.154 4.453-2.597zm-1.446-6.23c0 1.51.47 2.688 1.407 3.535.95.846 2.278 1.27 3.984 1.27 1.693 0 3.014-.424 3.965-1.27.963-.847 1.445-2.025 1.445-3.536 0-1.51-.482-2.688-1.445-3.535-.95-.846-2.272-1.27-3.965-1.27-1.706 0-3.034.424-3.984 1.27-.938.847-1.407 2.025-1.407 3.535z"/></g><g fill="#FFF" fill-opacity=".784"><path d="M308.836 414.453h6.445v-22.246l-7.011 1.406v-3.593l6.972-1.407h3.946v25.84h6.445v3.32h-16.797zM345.574 402.05c1.888.404 3.36 1.244 4.415 2.52 1.067 1.276 1.601 2.852 1.601 4.727 0 2.877-.99 5.104-2.969 6.68-1.979 1.575-4.791 2.363-8.437 2.363-1.224 0-2.487-.124-3.79-.371a26.623 26.623 0 01-4.003-1.074v-3.81a13.669 13.669 0 003.594 1.446 16.77 16.77 0 004.082.489c2.474 0 4.355-.489 5.644-1.465 1.302-.977 1.953-2.396 1.953-4.258 0-1.719-.605-3.06-1.816-4.024-1.198-.976-2.871-1.464-5.02-1.464h-3.398v-3.243h3.555c1.94 0 3.424-.384 4.453-1.152 1.028-.781 1.543-1.901 1.543-3.36 0-1.497-.534-2.643-1.602-3.437-1.055-.807-2.571-1.21-4.55-1.21-1.081 0-2.24.116-3.477.35-1.237.235-2.598.6-4.082 1.095v-3.516a38.348 38.348 0 014.199-.938 23.777 23.777 0 013.71-.312c2.996 0 5.366.684 7.11 2.05 1.745 1.355 2.617 3.19 2.617 5.509 0 1.614-.462 2.981-1.386 4.101-.925 1.107-2.24 1.875-3.946 2.305zM362.489 414.453h13.77v3.32h-18.517v-3.32a762.755 762.755 0 016.114-6.23c2.59-2.618 4.218-4.304 4.883-5.059 1.263-1.42 2.141-2.617 2.636-3.594.508-.99.762-1.96.762-2.91 0-1.55-.547-2.812-1.64-3.789-1.081-.976-2.494-1.465-4.239-1.465-1.237 0-2.546.215-3.926.645-1.367.43-2.832 1.08-4.394 1.953v-3.984c1.588-.638 3.073-1.12 4.453-1.446 1.38-.325 2.643-.488 3.789-.488 3.02 0 5.43.755 7.226 2.266 1.797 1.51 2.696 3.528 2.696 6.054a8.707 8.707 0 01-.684 3.418c-.442 1.068-1.256 2.33-2.441 3.79-.326.377-1.36 1.47-3.106 3.28a2474.291 2474.291 0 01-7.382 7.56zM385.242 414.453h6.446v-22.246l-7.012 1.406v-3.593l6.973-1.407h3.945v25.84h6.445v3.32h-16.797zM434.715 402.05c1.888.404 3.36 1.244 4.414 2.52 1.068 1.276 1.602 2.852 1.602 4.727 0 2.877-.99 5.104-2.969 6.68-1.98 1.575-4.792 2.363-8.438 2.363-1.223 0-2.487-.124-3.789-.371a26.623 26.623 0 01-4.004-1.074v-3.81a13.669 13.669 0 003.594 1.446 16.77 16.77 0 004.082.489c2.474 0 4.356-.489 5.645-1.465 1.302-.977 1.953-2.396 1.953-4.258 0-1.719-.606-3.06-1.816-4.024-1.198-.976-2.872-1.464-5.02-1.464h-3.398v-3.243h3.554c1.94 0 3.425-.384 4.453-1.152 1.029-.781 1.543-1.901 1.543-3.36 0-1.497-.534-2.643-1.601-3.437-1.055-.807-2.572-1.21-4.551-1.21-1.08 0-2.24.116-3.477.35-1.237.235-2.597.6-4.082 1.095v-3.516a38.347 38.347 0 014.2-.938 23.777 23.777 0 013.71-.312c2.995 0 5.365.684 7.11 2.05 1.745 1.355 2.617 3.19 2.617 5.509 0 1.614-.462 2.981-1.387 4.101-.924 1.107-2.24 1.875-3.945 2.305zM459.07 392.05l-9.96 15.567h9.96v-15.566zm-1.035-3.437h4.961v19.004h4.16v3.281h-4.16v6.875h-3.925v-6.875h-13.165v-3.808l12.13-18.477zM473.739 388.613h15.488v3.32h-11.875v7.149a10.37 10.37 0 011.719-.43 9.59 9.59 0 011.718-.156c3.256 0 5.834.892 7.735 2.676 1.9 1.784 2.851 4.2 2.851 7.246 0 3.138-.976 5.58-2.93 7.324-1.953 1.732-4.706 2.598-8.261 2.598-1.224 0-2.474-.104-3.75-.313a29.94 29.94 0 01-3.926-.937v-3.965a15.373 15.373 0 003.633 1.426c1.25.312 2.571.469 3.965.469 2.252 0 4.036-.593 5.351-1.778 1.315-1.185 1.973-2.793 1.973-4.824 0-2.031-.658-3.64-1.973-4.824-1.315-1.185-3.099-1.778-5.351-1.778-1.055 0-2.11.118-3.164.352a16.66 16.66 0 00-3.203 1.094v-14.649zM499.207 388.613h15.489v3.32H502.82v7.149a10.37 10.37 0 011.718-.43 9.59 9.59 0 011.72-.156c3.254 0 5.832.892 7.733 2.676 1.901 1.784 2.852 4.2 2.852 7.246 0 3.138-.977 5.58-2.93 7.324-1.953 1.732-4.707 2.598-8.261 2.598-1.224 0-2.474-.104-3.75-.313a29.94 29.94 0 01-3.926-.937v-3.965a15.373 15.373 0 003.633 1.426c1.25.312 2.571.469 3.964.469 2.253 0 4.037-.593 5.352-1.778 1.315-1.185 1.973-2.793 1.973-4.824 0-2.031-.658-3.64-1.973-4.824-1.315-1.185-3.099-1.778-5.352-1.778-1.054 0-2.109.118-3.164.352a16.66 16.66 0 00-3.203 1.094v-14.649z"/></g></g></svg>