<svg xmlns="http://www.w3.org/2000/svg" width="750" height="471" viewBox="0 0 750 471"><rect fill="#000c9d" width="750" height="471" rx="40"/><rect width="110.324" height="99.679" x="48.71" y="153.576" rx="20.323" ry="0" fill="#9d9400"/><g fill="#fff"><path d="M78.102 310.37v-3.795h-5.117v-11.27h-4.198l-.402 11.27H56.942l10.58-25.07-3.967-1.725-11.673 27.14v3.45h16.445v9.66h4.658v-9.66h5.117zM97.688 279.78c-4.025 0-7.878 1.38-11.213 4.6l2.588 2.933c2.645-2.473 5.002-3.68 8.395-3.68 4.197 0 7.532 2.357 7.532 6.727 0 4.773-3.737 6.958-7.532 6.958H95.1l-.575 3.795h3.335c4.658 0 8.223 1.84 8.223 7.532 0 4.945-3.278 8.108-8.855 8.108-3.22 0-6.555-1.323-8.798-3.968l-3.22 2.645c2.99 3.68 7.705 5.233 12.133 5.233 8.165 0 13.742-5.175 13.742-12.018 0-6.152-4.37-9.372-9.027-9.717 4.197-.805 7.762-4.428 7.762-9.2 0-5.405-4.715-9.948-12.132-9.948zM132.165 279.78c-5.347 0-8.912 1.898-12.075 5.693l3.335 2.53c2.53-2.933 4.658-4.198 8.568-4.198 4.427 0 7.072 2.76 7.072 7.188 0 6.497-3.22 10.81-18.17 25.127v3.91h23.518l.575-4.082h-18.63c13.052-11.903 17.71-17.825 17.71-25.07 0-6.325-4.428-11.098-11.903-11.098zM180.903 316.12h-8.28v-35.65h-4.198l-11.73 7.245 2.07 3.393 9.085-5.463v30.475h-9.775v3.91h22.828v-3.91zM250.49 310.37v-3.795h-5.117v-11.27h-4.198l-.402 11.27H229.33l10.58-25.07-3.967-1.725-11.673 27.14v3.45h16.445v9.66h4.658v-9.66h5.117zM270.075 279.78c-4.025 0-7.877 1.38-11.212 4.6l2.587 2.933c2.645-2.473 5.003-3.68 8.395-3.68 4.198 0 7.533 2.357 7.533 6.727 0 4.773-3.738 6.958-7.533 6.958h-2.357l-.575 3.795h3.335c4.657 0 8.222 1.84 8.222 7.532 0 4.945-3.277 8.108-8.855 8.108-3.22 0-6.555-1.323-8.797-3.968l-3.22 2.645c2.99 3.68 7.705 5.233 12.132 5.233 8.165 0 13.743-5.175 13.743-12.018 0-6.152-4.37-9.372-9.028-9.717 4.198-.805 7.763-4.428 7.763-9.2 0-5.405-4.715-9.948-12.133-9.948zM304.553 279.78c-5.348 0-8.913 1.898-12.075 5.693l3.335 2.53c2.53-2.933 4.657-4.198 8.567-4.198 4.428 0 7.073 2.76 7.073 7.188 0 6.497-3.22 10.81-18.17 25.127v3.91H316.8l.575-4.082h-18.63c13.053-11.903 17.71-17.825 17.71-25.07 0-6.325-4.427-11.098-11.902-11.098zM353.29 316.12h-8.28v-35.65h-4.197l-11.73 7.245 2.07 3.393 9.085-5.463v30.475h-9.775v3.91h22.827v-3.91zM422.878 310.37v-3.795h-5.118v-11.27h-4.197l-.403 11.27h-11.442l10.58-25.07-3.968-1.725-11.672 27.14v3.45h16.445v9.66h4.657v-9.66h5.118zM442.463 279.78c-4.025 0-7.878 1.38-11.213 4.6l2.588 2.933c2.645-2.473 5.002-3.68 8.395-3.68 4.197 0 7.532 2.357 7.532 6.727 0 4.773-3.737 6.958-7.532 6.958h-2.358l-.575 3.795h3.335c4.658 0 8.223 1.84 8.223 7.532 0 4.945-3.278 8.108-8.855 8.108-3.22 0-6.555-1.323-8.798-3.968l-3.22 2.645c2.99 3.68 7.705 5.233 12.133 5.233 8.165 0 13.742-5.175 13.742-12.018 0-6.152-4.37-9.372-9.027-9.717 4.197-.805 7.762-4.428 7.762-9.2 0-5.405-4.715-9.948-12.132-9.948zM476.94 279.78c-5.347 0-8.912 1.898-12.075 5.693l3.335 2.53c2.53-2.933 4.658-4.198 8.568-4.198 4.427 0 7.072 2.76 7.072 7.188 0 6.497-3.22 10.81-18.17 25.127v3.91h23.518l.575-4.082h-18.63c13.052-11.903 17.71-17.825 17.71-25.07 0-6.325-4.428-11.098-11.903-11.098zM525.678 316.12h-8.28v-35.65H513.2l-11.73 7.245 2.07 3.393 9.085-5.463v30.475h-9.775v3.91h22.828v-3.91zM595.266 310.37v-3.795h-5.118v-11.27h-4.197l-.403 11.27h-11.442l10.58-25.07-3.968-1.725-11.672 27.14v3.45h16.445v9.66h4.657v-9.66h5.118zM614.85 279.78c-4.024 0-7.877 1.38-11.212 4.6l2.588 2.933c2.645-2.473 5.002-3.68 8.395-3.68 4.197 0 7.532 2.357 7.532 6.727 0 4.773-3.737 6.958-7.532 6.958h-2.358l-.575 3.795h3.335c4.658 0 8.223 1.84 8.223 7.532 0 4.945-3.278 8.108-8.855 8.108-3.22 0-6.555-1.323-8.798-3.968l-3.22 2.645c2.99 3.68 7.705 5.233 12.133 5.233 8.165 0 13.742-5.175 13.742-12.018 0-6.152-4.37-9.372-9.027-9.717 4.197-.805 7.762-4.428 7.762-9.2 0-5.405-4.715-9.948-12.132-9.948zM649.328 279.78c-5.347 0-8.912 1.898-12.075 5.693l3.335 2.53c2.53-2.933 4.658-4.198 8.568-4.198 4.427 0 7.072 2.76 7.072 7.188 0 6.497-3.22 10.81-18.17 25.127v3.91h23.518l.575-4.082h-18.63c13.052-11.903 17.71-17.825 17.71-25.07 0-6.325-4.428-11.098-11.903-11.098zM698.066 316.12h-8.28v-35.65h-4.198l-11.73 7.245 2.07 3.393 9.085-5.463v30.475h-9.775v3.91h22.828v-3.91z"/></g><g fill="#fff" fill-opacity=".784"><path d="M55.607 415.42h6.445v-22.245l-7.012 1.406v-3.594l6.973-1.406h3.945v25.84h6.446v3.32H55.607v-3.32zM81.075 415.42h6.446v-22.245l-7.012 1.406v-3.594l6.973-1.406h3.945v25.84h6.445v3.32H81.075v-3.32zM121.993 415.42h13.77v3.321h-18.516v-3.32q2.246-2.324 6.114-6.23 3.886-3.926 4.882-5.06 1.895-2.128 2.637-3.593.762-1.484.762-2.91 0-2.324-1.64-3.79-1.622-1.464-4.24-1.464-1.855 0-3.925.645-2.05.644-4.394 1.953v-3.985q2.382-.957 4.453-1.445 2.07-.488 3.789-.488 4.531 0 7.226 2.265 2.696 2.266 2.696 6.055 0 1.797-.684 3.418-.664 1.602-2.441 3.789-.489.566-3.106 3.281-2.617 2.696-7.383 7.559zM156.017 403.019q2.832.605 4.414 2.52 1.601 1.913 1.601 4.726 0 4.316-2.968 6.68-2.969 2.363-8.438 2.363-1.836 0-3.789-.372-1.933-.351-4.004-1.074v-3.808q1.64.957 3.594 1.445 1.953.488 4.082.488 3.711 0 5.645-1.465 1.953-1.464 1.953-4.257 0-2.579-1.817-4.024-1.797-1.465-5.02-1.465h-3.398v-3.242h3.555q2.91 0 4.453-1.152 1.543-1.172 1.543-3.36 0-2.246-1.601-3.437-1.583-1.211-4.551-1.211-1.621 0-3.477.352-1.855.351-4.082 1.093v-3.515q2.246-.625 4.2-.938 1.972-.312 3.71-.312 4.492 0 7.11 2.05 2.617 2.032 2.617 5.508 0 2.422-1.387 4.102-1.387 1.66-3.945 2.305zM182.306 389.581h15.488v3.32H185.92v7.149q.86-.293 1.719-.43.86-.156 1.719-.156 4.882 0 7.734 2.676 2.852 2.675 2.852 7.246 0 4.707-2.93 7.324-2.93 2.598-8.262 2.598-1.836 0-3.75-.313-1.894-.312-3.926-.937v-3.965q1.758.957 3.633 1.426 1.875.468 3.965.468 3.379 0 5.352-1.777 1.972-1.777 1.972-4.824 0-3.047-1.972-4.825-1.973-1.777-5.352-1.777-1.582 0-3.164.352-1.562.351-3.203 1.093v-14.648zM216.173 404.894q-2.812 0-4.434 1.503-1.601 1.504-1.601 4.141t1.601 4.14q1.622 1.505 4.434 1.505 2.813 0 4.434-1.504 1.62-1.524 1.62-4.14 0-2.638-1.62-4.142-1.602-1.503-4.434-1.503zm-3.945-1.68q-2.54-.625-3.965-2.363-1.406-1.739-1.406-4.239 0-3.496 2.48-5.527 2.5-2.031 6.836-2.031 4.356 0 6.836 2.03 2.48 2.032 2.48 5.528 0 2.5-1.425 4.239-1.407 1.738-3.926 2.363 2.851.664 4.434 2.597 1.601 1.934 1.601 4.727 0 4.238-2.598 6.504-2.578 2.266-7.402 2.266t-7.422-2.266q-2.578-2.266-2.578-6.504 0-2.793 1.602-4.727 1.601-1.933 4.453-2.597zm-1.446-6.23q0 2.265 1.407 3.535 1.425 1.27 3.984 1.27 2.54 0 3.965-1.27 1.445-1.27 1.445-3.536 0-2.265-1.445-3.535-1.426-1.27-3.965-1.27-2.559 0-3.984 1.27-1.407 1.27-1.407 3.535z"/></g><g fill="#fff" fill-opacity=".784"><path d="M308.836 414.453h6.445v-22.246l-7.011 1.406v-3.593l6.972-1.407h3.946v25.84h6.445v3.32h-16.797v-3.32zM345.574 402.05q2.832.606 4.415 2.52 1.601 1.914 1.601 4.727 0 4.316-2.969 6.68-2.968 2.363-8.437 2.363-1.836 0-3.79-.371-1.933-.352-4.003-1.074v-3.81q1.64.958 3.594 1.446 1.953.489 4.082.489 3.71 0 5.644-1.465 1.953-1.465 1.953-4.258 0-2.578-1.816-4.024-1.797-1.464-5.02-1.464h-3.398v-3.243h3.555q2.91 0 4.453-1.152 1.543-1.172 1.543-3.36 0-2.245-1.602-3.437-1.582-1.21-4.55-1.21-1.622 0-3.477.35-1.856.352-4.082 1.095v-3.516q2.246-.625 4.199-.938 1.973-.312 3.71-.312 4.493 0 7.11 2.05 2.617 2.032 2.617 5.509 0 2.421-1.386 4.101-1.387 1.66-3.946 2.305zM362.489 414.453h13.77v3.32h-18.517v-3.32q2.247-2.324 6.114-6.23 3.886-3.926 4.883-5.059 1.894-2.129 2.636-3.594.762-1.484.762-2.91 0-2.324-1.64-3.789-1.622-1.465-4.239-1.465-1.855 0-3.926.645-2.05.644-4.394 1.953v-3.984q2.383-.957 4.453-1.446 2.07-.488 3.789-.488 4.531 0 7.226 2.266 2.696 2.265 2.696 6.054 0 1.797-.684 3.418-.664 1.602-2.441 3.79-.488.566-3.106 3.28-2.617 2.696-7.382 7.56zM385.242 414.453h6.446v-22.246l-7.012 1.406v-3.593l6.973-1.407h3.945v25.84h6.445v3.32h-16.797v-3.32zM434.715 402.05q2.832.606 4.414 2.52 1.602 1.914 1.602 4.727 0 4.316-2.969 6.68-2.969 2.363-8.438 2.363-1.835 0-3.789-.371-1.933-.352-4.004-1.074v-3.81q1.641.958 3.594 1.446 1.953.489 4.082.489 3.711 0 5.645-1.465 1.953-1.465 1.953-4.258 0-2.578-1.816-4.024-1.797-1.464-5.02-1.464h-3.398v-3.243h3.554q2.91 0 4.453-1.152 1.543-1.172 1.543-3.36 0-2.245-1.601-3.437-1.582-1.21-4.551-1.21-1.621 0-3.477.35-1.855.352-4.082 1.095v-3.516q2.246-.625 4.2-.938 1.972-.312 3.71-.312 4.493 0 7.11 2.05 2.617 2.032 2.617 5.509 0 2.421-1.387 4.101-1.386 1.66-3.945 2.305zM459.07 392.05l-9.96 15.567h9.96v-15.566zm-1.035-3.437h4.961v19.004h4.16v3.281h-4.16v6.875h-3.925v-6.875h-13.165v-3.808l12.13-18.477zM473.739 388.613h15.488v3.32h-11.875v7.149q.86-.293 1.719-.43.859-.156 1.718-.156 4.883 0 7.735 2.676 2.851 2.676 2.851 7.246 0 4.707-2.93 7.324-2.93 2.598-8.261 2.598-1.836 0-3.75-.313-1.895-.312-3.926-.937v-3.965q1.758.957 3.633 1.426t3.965.469q3.379 0 5.351-1.778 1.973-1.777 1.973-4.824 0-3.047-1.973-4.824-1.972-1.778-5.351-1.778-1.582 0-3.164.352-1.563.352-3.203 1.094v-14.649zM499.207 388.613h15.489v3.32H502.82v7.149q.859-.293 1.718-.43.86-.156 1.72-.156 4.882 0 7.733 2.676 2.852 2.676 2.852 7.246 0 4.707-2.93 7.324-2.93 2.598-8.261 2.598-1.836 0-3.75-.313-1.895-.312-3.926-.937v-3.965q1.758.957 3.633 1.426t3.964.469q3.38 0 5.352-1.778 1.973-1.777 1.973-4.824 0-3.047-1.973-4.824-1.973-1.778-5.352-1.778-1.582 0-3.164.352-1.562.352-3.203 1.094v-14.649z"/></g></svg>