<svg width="750" height="471" viewBox="0 0 750 471" xmlns="http://www.w3.org/2000/svg"><title>Rectangle-1</title><path d="M0 40.005C0 17.91 17.914 0 39.992 0h670.016C732.095 0 750 17.906 750 40.005v390.99C750 453.09 732.086 471 710.008 471H39.992C17.905 471 0 453.094 0 430.995V40.005zm584.934 197.942c0-99.415-82.98-168.133-173.895-168.1h-78.243c-92.003-.033-167.73 68.705-167.73 168.1 0 90.93 75.727 165.64 167.73 165.204h78.242c90.913.437 173.894-74.292 173.894-165.203zM333.28 83.93c-84.07.027-152.194 68.308-152.214 152.58.02 84.258 68.144 152.533 152.214 152.56 84.09-.027 152.228-68.302 152.24-152.56-.012-84.272-68.15-152.553-152.24-152.58zM237.066 236.1c.08-41.18 25.746-76.296 61.94-90.25v180.48c-36.194-13.947-61.86-49.044-61.94-90.23zm131 90.275V145.847c36.207 13.92 61.914 49.057 61.98 90.257-.066 41.212-25.773 76.322-61.98 90.27z" fill="#0079BE" fill-rule="evenodd"/></svg>