<svg xmlns="http://www.w3.org/2000/svg" width="780" height="501" viewBox="0 0 780 501"><g fill="none" fill-rule="evenodd"><path fill="#4D4D4D" d="M54.992 0C24.627 0 0 24.63 0 55.004v390.992C0 476.376 24.62 501 54.992 501h670.016C755.373 501 780 476.37 780 445.996V55.004C780 24.624 755.38 0 725.008 0H54.992z"/><path fill="#FFF" d="M327.152 161.893c8.837 0 16.248 1.784 25.268 6.09v22.75c-8.544-7.862-15.955-11.153-25.756-11.153-19.264 0-34.414 15.015-34.414 34.05 0 20.075 14.68 34.196 35.37 34.196 9.312 0 16.586-3.12 24.8-10.857v22.762c-9.34 4.14-16.91 5.776-25.756 5.776-31.278 0-55.582-22.596-55.582-51.737 0-28.825 24.95-51.877 56.07-51.877zm-97.113.627c11.545 0 22.11 3.72 30.942 10.994l-10.748 13.248c-5.35-5.646-10.41-8.028-16.564-8.028-8.853 0-15.3 4.745-15.3 10.99 0 5.353 3.62 8.187 15.944 12.48 23.365 8.045 30.29 15.177 30.29 30.927 0 19.194-14.976 32.554-36.32 32.554-15.63 0-26.994-5.795-36.458-18.872l13.268-12.03c4.73 8.61 12.622 13.222 22.42 13.222 9.163 0 15.947-5.952 15.947-13.984 0-4.164-2.054-7.734-6.157-10.258-2.066-1.195-6.158-2.977-14.2-5.647-19.29-6.538-25.91-13.527-25.91-27.185 0-16.225 14.214-28.41 32.846-28.41zm234.722 1.728H487.2l28.083 66.592 28.446-66.592h22.266l-45.494 101.686H509.45L464.76 164.248zm-397.348.152h30.15c33.312 0 56.534 20.382 56.534 49.64 0 14.59-7.104 28.697-19.118 38.058-10.108 7.9-21.626 11.445-37.574 11.445H67.414V164.4zm96.135 0h20.54v99.143h-20.54V164.4zm411.733 0h58.252v16.8H595.81v22.005h36.335v16.79H595.81v26.763h37.725v16.785h-58.252V164.4zm71.858 0h30.456c23.69 0 37.265 10.71 37.265 29.272 0 15.18-8.513 25.14-23.985 28.105l33.148 41.766h-25.26l-28.43-39.828h-2.677v39.828H647.14V164.4zm20.516 15.616v30.025h6.002c13.117 0 20.07-5.36 20.07-15.327 0-9.648-6.955-14.697-19.746-14.697h-6.326zM87.94 181.2v65.558h5.51c13.274 0 21.657-2.394 28.11-7.88 7.104-5.955 11.377-15.465 11.377-24.98 0-9.5-4.273-18.725-11.376-24.68-6.784-5.78-14.836-8.02-28.11-8.02h-5.51z"/><path fill="#F47216" d="M415.13 161.213c30.94 0 56.022 23.58 56.022 52.71v.032c0 29.13-25.08 52.742-56.02 52.742-30.94 0-56.023-23.613-56.023-52.742v-.033c0-29.13 25.08-52.71 56.02-52.71zM779.983 288.36c-26.05 18.332-221.077 149.34-558.754 212.624H724.99c30.365 0 54.992-24.63 54.992-55.004V288.36z"/></g></svg>