<svg width="750" height="471" viewBox="0 0 750 471" xmlns="http://www.w3.org/2000/svg"><title>Slice 1</title><defs><linearGradient x1=".032%" y1="50%" x2="99.974%" y2="50%" id="a"><stop stop-color="#007B40" offset="0%"/><stop stop-color="#55B330" offset="100%"/></linearGradient><linearGradient x1=".472%" y1="50%" x2="99.986%" y2="50%" id="b"><stop stop-color="#1D2970" offset="0%"/><stop stop-color="#006DBA" offset="100%"/></linearGradient><linearGradient x1=".114%" y1="50.001%" x2="99.986%" y2="50.001%" id="c"><stop stop-color="#6E2B2F" offset="0%"/><stop stop-color="#E30138" offset="100%"/></linearGradient></defs><g fill="none" fill-rule="evenodd"><rect fill="#0E4C96" width="750" height="471" rx="40"/><path d="M617.243 346.766c0 41.615-33.728 75.36-75.36 75.36H132.757v-297.88c0-41.627 33.733-75.372 75.365-75.372h409.12v297.892z" fill="#FFF"/><path d="M483.86 242.045c11.683.253 23.436-.516 35.076.4 11.787 2.2 14.628 20.043 4.156 25.888-7.14 3.85-15.633 1.432-23.38 2.113H483.86v-28.4zM525.69 209.9c2.596 9.165-6.238 17.392-15.066 16.13H483.86c.184-8.642-.37-18.02.27-26.208 10.725.3 21.55-.616 32.21.48 4.582 1.15 8.414 4.916 9.352 9.598zM590.12 73.997c.498 17.5.07 35.927.214 53.783-.035 72.596.072 145.194-.055 217.79-.47 27.207-24.583 50.844-51.6 51.387-27.047.11-54.096.016-81.143.047v-109.75c29.47-.154 58.96.307 88.417-.232 13.667-.86 28.632-9.876 29.27-24.915 1.61-15.102-12.632-25.55-26.153-27.2-5.197-.136-5.043-1.516 0-2.118 12.893-2.788 23.02-16.134 19.227-29.5-3.236-14.058-18.773-19.5-31.697-19.472-26.35-.18-52.71-.026-79.063-.077.172-20.488-.354-41 .286-61.473 2.087-26.716 26.806-48.747 53.447-48.27h78.85z" fill="url(#a)"/><path d="M159.74 125.04c.674-27.163 24.89-50.61 51.875-51.007 26.944-.083 53.89-.012 80.837-.036-.074 90.885.148 181.777-.112 272.658-1.038 26.834-24.99 49.834-51.68 50.307-26.995.1-53.994.014-80.99.042V283.55c26.222 6.195 53.72 8.833 80.472 4.722 15.993-2.575 33.488-10.424 38.902-27.014 3.986-14.192 1.742-29.126 2.334-43.692v-33.824H235.08c-.207 22.37.427 44.78-.334 67.125-1.248 13.734-14.846 22.46-27.8 21.995-16.066.17-47.898-11.64-47.898-11.64-.08-41.917.466-94.408.692-136.182z" fill="url(#b)"/><path d="M309.72 197.39c-2.434.517-.49-8.3-1.114-11.646.166-21.15-.346-42.323.284-63.458 2.083-26.83 26.99-48.916 53.74-48.288h78.765c-.074 90.884.147 181.775-.112 272.656-1.04 26.834-24.992 49.833-51.68 50.308-26.998.1-53.998.015-80.997.043V272.708c18.44 15.128 43.5 17.484 66.472 17.525 17.317-.006 34.534-2.675 51.35-6.67V260.79c-18.953 9.447-41.233 15.446-62.243 10.018-14.656-3.65-25.294-17.81-25.056-32.936-1.7-15.728 7.523-32.335 22.98-37.01 19.19-6.01 40.108-1.414 58.096 6.397 3.855 2.017 7.765 4.52 6.222-1.922v-17.9c-30.084-7.157-62.1-9.792-92.33-2.004-8.747 2.468-17.27 6.21-24.378 11.956z" fill="url(#c)"/></g></svg>