<svg width="750" height="471" viewBox="0 0 750 471" xmlns="http://www.w3.org/2000/svg"><g fill-rule="nonzero" fill="none"><rect fill="#000" width="750" height="471" rx="40"/><path d="M279.8 421.77V397c0-9.35-6-15.64-15.55-15.72-5-.08-10.26 1.49-13.9 7-2.73-4.38-7-7-13.07-7a13.08 13.08 0 0 0-11.58 5.87v-4.88h-8.61v39.55h8.69v-21.97c0-6.87 3.81-10.51 9.68-10.51 5.71 0 8.61 3.72 8.61 10.42v22h8.69v-21.91c0-6.87 4-10.51 9.68-10.51 5.87 0 8.69 3.72 8.69 10.42v22l8.67.01zM328.28 402v-19.77h-8.61V387c-2.73-3.56-6.87-5.79-12.49-5.79-11.09 0-19.77 8.69-19.77 20.77s8.69 20.77 19.77 20.77c5.63 0 9.76-2.23 12.49-5.79v4.8h8.61V402zm-32 0c0-6.95 4.55-12.66 12-12.66 7.12 0 11.91 5.46 11.91 12.66s-4.8 12.66-11.91 12.66c-7.47 0-12.02-5.71-12.02-12.66h.02zm216.12-20.81a22.29 22.29 0 0 1 8.49 1.59 20.71 20.71 0 0 1 6.75 4.38 20 20 0 0 1 4.46 6.59 22 22 0 0 1 0 16.52 20 20 0 0 1-4.46 6.59 20.69 20.69 0 0 1-6.75 4.38 23.43 23.43 0 0 1-17 0 20.47 20.47 0 0 1-6.73-4.38 20.21 20.21 0 0 1-4.44-6.59 22 22 0 0 1 0-16.52 20.23 20.23 0 0 1 4.44-6.59 20.48 20.48 0 0 1 6.73-4.38 22.29 22.29 0 0 1 8.51-1.59zm0 8.14a12.84 12.84 0 0 0-4.91.93 11.62 11.62 0 0 0-3.92 2.6 12.13 12.13 0 0 0-2.6 4 14.39 14.39 0 0 0 0 10.28 12.11 12.11 0 0 0 2.6 4 11.62 11.62 0 0 0 3.92 2.6 13.46 13.46 0 0 0 9.83 0 11.86 11.86 0 0 0 3.94-2.6 12 12 0 0 0 2.62-4 14.39 14.39 0 0 0 0-10.28 12 12 0 0 0-2.62-4 11.86 11.86 0 0 0-3.94-2.6 12.84 12.84 0 0 0-4.92-.94v.01zM375.1 402c-.08-12.33-7.69-20.77-18.78-20.77-11.58 0-19.69 8.44-19.69 20.77 0 12.58 8.44 20.77 20.27 20.77 6 0 11.42-1.49 16.22-5.54l-4.22-6.37a18.84 18.84 0 0 1-11.5 4.14c-5.54 0-10.59-2.56-11.83-9.68h29.37c.06-1.09.16-2.16.16-3.32zm-29.45-3.47c.91-5.71 4.38-9.6 10.51-9.6 5.54 0 9.1 3.47 10 9.6h-20.51zm65.69-6.2a25.49 25.49 0 0 0-12.34-3.4c-4.72 0-7.53 1.74-7.53 4.63 0 2.65 3 3.39 6.7 3.89l4.05.58c8.61 1.24 13.82 4.88 13.82 11.83 0 7.53-6.62 12.91-18 12.91-6.45 0-12.41-1.66-17.13-5.13l4.05-6.7a21.07 21.07 0 0 0 13.16 4.14c5.87 0 9-1.74 9-4.8 0-2.23-2.23-3.47-6.95-4.14l-4.05-.58c-8.85-1.24-13.65-5.21-13.65-11.67 0-7.86 6.45-12.66 16.46-12.66 6.29 0 12 1.41 16.13 4.14l-3.72 6.96zm41.35-2.23h-14.07V408c0 4 1.41 6.62 5.71 6.62a15.89 15.89 0 0 0 7.61-2.23l2.48 7.36a20.22 20.22 0 0 1-10.76 3.06c-10.18 0-13.73-5.46-13.73-14.65v-18h-8v-7.86h8v-12h8.69v12h14.06l.01 7.8zm29.78-8.85a18.38 18.38 0 0 1 6.12 1.08l-2.65 8.11a14 14 0 0 0-5.38-1c-5.63 0-8.44 3.64-8.44 10.18v22.17h-8.6v-39.56H472V387a11.66 11.66 0 0 1 10.42-5.79l.05.04z" fill="#FFF"/><path fill="#7673C0" d="M309.95 80.39h130.5V314.9h-130.5z"/><path d="M318.24 197.64a148.88 148.88 0 0 1 57-117.26c-61.147-48.062-148.962-41.066-201.728 16.071-52.766 57.137-52.766 145.23 0 202.368 52.766 57.137 140.581 64.133 201.728 16.071a148.88 148.88 0 0 1-57-117.25z" fill="#EB001B"/><path d="M616.5 197.64c.001 57.099-32.598 109.186-83.954 134.143-51.356 24.956-112.454 18.4-157.346-16.883a149.16 149.16 0 0 0 0-234.51c44.89-35.283 105.986-41.839 157.341-16.885 51.355 24.954 83.956 77.038 83.959 134.135z" fill="#00A1DF"/></g></svg>