<svg width="750" height="471" viewBox="0 0 750 471" xmlns="http://www.w3.org/2000/svg"><title>Slice 1</title><g fill="none" fill-rule="evenodd"><rect fill="#000" width="750" height="471" rx="40"/><path d="M434.008 235.5c0 99.142-80.37 179.504-179.508 179.504S75 334.642 75 235.5c0-99.133 80.362-179.504 179.5-179.504 99.137 0 179.508 80.37 179.508 179.504" fill="#D9222A"/><path d="M495.492 55.996c-46.38 0-88.642 17.596-120.5 46.466-6.488 5.884-12.546 12.238-18.125 18.996h36.266c4.96 6.03 9.525 12.37 13.684 19.013h-63.634c-3.812 6.105-7.275 12.447-10.34 19.01h84.31c2.88 6.157 5.422 12.495 7.6 19.003h-99.51c-2.076 6.192-3.822 12.53-5.218 19.01h109.942c2.637 12.25 4.04 24.965 4.04 38.007 0 19.933-3.253 39.113-9.253 57.02h-99.512c2.175 6.513 4.716 12.855 7.595 19.01h84.317c-3.075 6.562-6.53 12.903-10.346 19.012h-63.625c4.154 6.63 8.73 12.98 13.684 18.996h36.258c-5.57 6.77-11.633 13.133-18.13 19.012 31.86 28.867 74.118 46.454 120.497 46.454C594.63 415.004 675 334.642 675 235.5c0-99.13-80.37-179.504-179.508-179.504" fill="#EE9F2D"/><path d="M651.075 335.558c0-3.2 2.592-5.8 5.796-5.8 3.205 0 5.797 2.6 5.797 5.8 0 3.2-2.592 5.8-5.796 5.8-3.203 0-5.795-2.6-5.795-5.8zm5.796 4.41c2.434 0 4.41-1.976 4.41-4.41 0-2.437-1.976-4.404-4.41-4.404-2.437 0-4.403 1.967-4.403 4.404 0 2.434 1.966 4.41 4.404 4.41zm-.782-1.86H654.9v-5.095h2.15c.45 0 .908 0 1.304.254.413.28.646.77.646 1.28 0 .57-.337 1.103-.883 1.31l.937 2.25h-1.316l-.78-2.015h-.87v2.016zm0-2.89h.658c.246 0 .504.02.725-.1.197-.126.297-.36.297-.585 0-.195-.12-.42-.288-.516-.21-.13-.538-.1-.76-.1h-.632v1.3zM212.587 255.154c-2.045-.237-2.945-.3-4.35-.3-11.045 0-16.637 3.788-16.637 11.267 0 4.613 2.73 7.547 6.987 7.547 7.938 0 13.66-7.56 14-18.513zm14.17 32.996h-16.145l.37-7.675c-4.924 6.067-11.495 8.95-20.424 8.95-10.562 0-17.804-8.25-17.804-20.23 0-18.024 12.596-28.54 34.217-28.54 2.21 0 5.042.2 7.942.57.605-2.442.763-3.487.763-4.8 0-4.908-3.396-6.738-12.5-6.738-9.533-.108-17.396 2.27-20.625 3.334.204-1.228 2.7-16.657 2.7-16.657 9.712-2.846 16.117-3.917 23.325-3.917 16.733 0 25.596 7.512 25.58 21.712.032 3.805-.597 8.5-1.58 14.67-1.692 10.73-5.32 33.718-5.817 39.322zM164.6 288.15h-19.488l11.163-69.996-24.925 69.996h-13.28l-1.64-69.596-11.734 69.596H86.454l15.238-91.054h28.02l1.7 50.967 17.092-50.967h31.167L164.6 288.15M519.575 255.154c-2.037-.237-2.942-.3-4.342-.3-11.04 0-16.633 3.788-16.633 11.267 0 4.613 2.725 7.547 6.983 7.547 7.938 0 13.663-7.56 13.992-18.513zm14.183 32.996h-16.145l.366-7.675c-4.926 6.067-11.5 8.95-20.422 8.95-10.566 0-17.8-8.25-17.8-20.23 0-18.024 12.588-28.54 34.213-28.54 2.21 0 5.038.2 7.934.57.604-2.442.763-3.487.763-4.8 0-4.908-3.392-6.738-12.496-6.738-9.532-.108-17.387 2.27-20.628 3.334.204-1.228 2.708-16.657 2.708-16.657 9.713-2.846 16.113-3.917 23.313-3.917 16.74 0 25.604 7.512 25.587 21.712.033 3.805-.596 8.5-1.58 14.67-1.682 10.73-5.32 33.718-5.812 39.322zM313.367 287.025c-5.334 1.68-9.492 2.4-14 2.4-9.963 0-15.4-5.725-15.4-16.267-.142-3.27 1.433-11.88 2.67-19.737 1.125-6.916 8.45-50.528 8.45-50.528h19.37l-2.26 11.208h11.7l-2.643 17.796h-11.742c-2.25 14.083-5.454 31.625-5.49 33.95 0 3.817 2.036 5.483 6.67 5.483 2.22 0 3.94-.226 5.254-.7l-2.58 16.395M372.758 286.425c-6.654 2.033-13.075 3.017-19.88 3-21.682-.02-32.986-11.346-32.986-33.033 0-25.313 14.38-43.946 33.9-43.946 15.97 0 26.17 10.433 26.17 26.796 0 5.43-.7 10.73-2.387 18.212H339c-1.304 10.742 5.57 15.217 16.837 15.217 6.934 0 13.188-1.428 20.142-4.662l-3.222 18.417zm-10.887-43.9c.11-1.542 2.055-13.217-9.012-13.217-6.17 0-10.583 4.704-12.38 13.217h21.393zM238.446 237.508c0 9.367 4.54 15.825 14.84 20.675 7.893 3.71 9.114 4.81 9.114 8.17 0 4.618-3.48 6.7-11.192 6.7-5.812 0-11.22-.907-17.458-2.92 0 0-2.563 16.32-2.68 17.1 4.43.967 8.38 1.863 20.28 2.192 20.562 0 30.058-7.83 30.058-24.75 0-10.175-3.975-16.146-13.737-20.633-8.17-3.75-9.108-4.588-9.108-8.046 0-4.004 3.238-6.046 9.538-6.046 3.825 0 9.05.408 14 1.113l2.775-17.175c-5.046-.8-12.696-1.442-17.15-1.442-21.8 0-29.346 11.387-29.28 25.062M467.533 214.392c5.413 0 10.46 1.42 17.413 4.92l3.187-19.762c-2.854-1.12-12.904-7.7-21.416-7.7-13.042 0-24.067 6.47-31.82 17.15-11.31-3.746-15.96 3.825-21.66 11.367l-5.062 1.18c.383-2.484.73-4.95.613-7.447h-17.896c-2.446 22.917-6.78 46.13-10.17 69.075l-.885 4.975h19.496c3.254-21.142 5.038-34.68 6.12-43.842l7.343-4.083c1.096-4.08 4.53-5.458 11.416-5.292-.9 4.834-1.383 9.917-1.383 15.184 0 24.225 13.07 39.308 34.05 39.308 5.403 0 10.04-.712 17.22-2.658l3.43-20.76c-6.46 3.18-11.76 4.676-16.56 4.676-11.328 0-18.183-8.362-18.183-22.183 0-20.05 10.196-34.108 24.746-34.108" fill="#000"/><path d="M170.208 282.742h-19.49l11.17-69.988-24.926 69.988H123.68l-1.643-69.588-11.733 69.588H92.062L107.3 191.7h28.02l.788 56.363 18.904-56.363h30.267l-15.072 91.042" fill="#FFF"/><path d="M632.52 197.096l-4.32 26.308c-5.33-7.012-11.054-12.087-18.612-12.087-9.834 0-18.784 7.454-24.642 18.425-8.158-1.692-16.596-4.563-16.596-4.563l-.004.066c.658-6.133.92-9.875.862-11.146h-17.9c-2.437 22.917-6.77 46.13-10.158 69.075l-.892 4.975h19.492c2.633-17.096 4.65-31.292 6.133-42.55 6.66-6.017 9.992-11.267 16.72-10.917-2.978 7.205-4.724 15.505-4.724 24.017 0 18.513 9.366 30.725 23.533 30.725 7.14 0 12.62-2.462 17.966-8.17l-.913 6.883H636.9l14.842-91.042h-19.22zm-24.37 73.942c-6.633 0-9.983-4.91-9.983-14.596 0-14.554 6.27-24.875 15.112-24.875 6.695 0 10.32 5.104 10.32 14.508 0 14.68-6.37 24.963-15.45 24.963z" fill="#000"/><path d="M218.192 249.758c-2.042-.237-2.946-.3-4.346-.3-11.046 0-16.634 3.788-16.634 11.267 0 4.604 2.73 7.546 6.98 7.546 7.945 0 13.666-7.557 14-18.512zm14.18 32.984h-16.147l.367-7.663c-4.92 6.053-11.5 8.95-20.42 8.95-10.568 0-17.805-8.25-17.805-20.23 0-18.033 12.59-28.542 34.216-28.542 2.21 0 5.042.2 7.938.57.605-2.44.763-3.486.763-4.807 0-4.907-3.39-6.728-12.496-6.728-9.537-.11-17.395 2.27-20.63 3.32.205-1.225 2.7-16.637 2.7-16.637 9.71-2.858 16.122-3.93 23.322-3.93 16.737 0 25.603 7.518 25.587 21.705.03 3.82-.605 8.512-1.584 14.675-1.687 10.725-5.32 33.725-5.812 39.317zM493.746 194.15l-3.192 19.767c-6.95-3.496-12-4.92-17.408-4.92-14.55 0-24.75 14.057-24.75 34.107 0 13.82 6.858 22.18 18.183 22.18 4.8 0 10.095-1.492 16.553-4.676l-3.42 20.75c-7.184 1.96-11.817 2.67-17.226 2.67-20.975 0-34.05-15.082-34.05-39.307 0-32.55 18.06-55.3 43.888-55.3 8.508 0 18.563 3.61 21.42 4.73M525.188 249.758c-2.042-.237-2.942-.3-4.346-.3-11.042 0-16.634 3.788-16.634 11.267 0 4.604 2.73 7.546 6.984 7.546 7.937 0 13.662-7.557 13.996-18.512zm14.18 32.984h-16.15l.37-7.663c-4.925 6.053-11.5 8.95-20.42 8.95-10.564 0-17.805-8.25-17.805-20.23 0-18.033 12.595-28.542 34.212-28.542 2.213 0 5.042.2 7.942.57.6-2.44.762-3.486.762-4.807 0-4.907-3.392-6.728-12.497-6.728-9.533-.11-17.395 2.27-20.63 3.32.205-1.225 2.705-16.637 2.705-16.637 9.71-2.858 16.117-3.93 23.317-3.93 16.742 0 25.604 7.518 25.583 21.705.034 3.82-.595 8.512-1.58 14.675-1.682 10.725-5.324 33.725-5.81 39.317zM318.975 281.62c-5.338 1.68-9.496 2.41-14 2.41-9.963 0-15.4-5.726-15.4-16.267-.138-3.28 1.437-11.88 2.675-19.738 1.12-6.925 8.446-50.533 8.446-50.533h19.366l-2.258 11.212h9.942l-2.646 17.788h-9.975c-2.25 14.09-5.463 31.62-5.496 33.95 0 3.83 2.04 5.483 6.67 5.483 2.22 0 3.937-.217 5.254-.692l-2.58 16.388M378.367 281.03c-6.65 2.033-13.08 3.012-19.88 3-21.683-.022-32.987-11.347-32.987-33.034 0-25.32 14.38-43.95 33.9-43.95 15.97 0 26.17 10.43 26.17 26.8 0 5.433-.7 10.733-2.382 18.212h-38.575c-1.305 10.742 5.57 15.22 16.837 15.22 6.93 0 13.188-1.432 20.137-4.674l-3.22 18.425zm-10.892-43.913c.117-1.538 2.058-13.217-9.013-13.217-6.166 0-10.58 4.717-12.375 13.217h21.388zM244.054 232.113c0 9.366 4.542 15.816 14.842 20.675 7.89 3.708 9.112 4.812 9.112 8.17 0 4.617-3.483 6.7-11.187 6.7-5.816 0-11.224-.908-17.466-2.92 0 0-2.554 16.32-2.67 17.1 4.42.966 8.374 1.85 20.274 2.19 20.567 0 30.06-7.828 30.06-24.745 0-10.18-3.972-16.15-13.74-20.637-8.166-3.758-9.11-4.583-9.11-8.046 0-4 3.244-6.058 9.54-6.058 3.82 0 9.046.42 14.004 1.125l2.77-17.18c-5.04-.8-12.69-1.44-17.145-1.44-21.804 0-29.345 11.378-29.283 25.066M642.508 282.742H624.07l.918-6.892c-5.346 5.717-10.825 8.18-17.967 8.18-14.166 0-23.528-12.213-23.528-30.726 0-24.63 14.52-45.392 31.708-45.392 7.558 0 13.28 3.088 18.604 10.096l4.325-26.308h19.22l-14.842 91.042zm-28.745-17.11c9.075 0 15.45-10.282 15.45-24.953 0-9.405-3.63-14.51-10.325-14.51-8.838 0-15.117 10.318-15.117 24.876 0 9.687 3.36 14.587 9.993 14.587zM556.92 208.704c-2.44 22.917-6.774 46.13-10.162 69.063l-.89 4.975h19.49c6.97-45.275 8.66-54.117 19.588-53.01 1.742-9.265 4.983-17.382 7.4-21.478-8.163-1.7-12.72 2.913-18.688 11.675.47-3.788 1.334-7.468 1.163-11.226h-17.9M396.5 208.704c-2.446 22.917-6.78 46.13-10.167 69.063l-.887 4.975h19.5c6.962-45.275 8.646-54.117 19.57-53.01 1.75-9.265 4.992-17.382 7.4-21.478-8.154-1.7-12.716 2.913-18.678 11.675.47-3.788 1.325-7.468 1.162-11.226h-17.9M651.067 276.946c0-3.213 2.596-5.8 5.796-5.8 3.204 0 5.795 2.587 5.795 5.8 0 3.196-2.59 5.796-5.795 5.796-3.2 0-5.796-2.6-5.796-5.796zm5.796 4.404c2.437 0 4.404-1.975 4.404-4.404 0-2.433-1.967-4.408-4.404-4.408-2.434 0-4.41 1.975-4.41 4.408 0 2.43 1.976 4.404 4.41 4.404zm-.784-1.87h-1.188v-5.084h2.154c.446 0 .908.008 1.296.254.416.283.654.767.654 1.275 0 .575-.338 1.113-.888 1.317l.942 2.237h-1.32l-.78-2.01h-.87v2.01zm0-2.88h.653c.246 0 .513.017.73-.1.195-.125.295-.362.295-.587 0-.188-.116-.413-.287-.525-.203-.117-.54-.084-.762-.084h-.63v1.296z" fill="#FFF"/></g></svg>