<svg width="750" height="471" viewBox="0 0 750 471" xmlns="http://www.w3.org/2000/svg"><g fill-rule="nonzero" fill="none"><rect fill="#000" width="750" height="471" rx="40"/><path d="M221.13 421.67v-24.85c0-9.53-5.8-15.74-15.32-15.74-5 0-10.35 1.66-14.08 7-2.9-4.56-7-7-13.25-7a14.07 14.07 0 00-12 5.8v-5h-7.87v39.76h7.87v-22.75c0-7 4.14-10.35 9.94-10.35s9.11 3.73 9.11 10.35v22.78h7.87v-22.78c0-7 4.14-10.35 9.94-10.35s9.11 3.73 9.11 10.35v22.78h8.68zm129.22-39.35h-14.5v-12H328v12h-8.28v7H328V408c0 9.11 3.31 14.5 13.25 14.5a23.17 23.17 0 0010.75-2.9l-2.49-7a13.63 13.63 0 01-7.46 2.07c-4.14 0-6.21-2.49-6.21-6.63V389h14.5v-6.63l.01-.05zm73.72-1.24a12.39 12.39 0 00-10.77 5.8v-5h-7.87v39.76h7.87v-22.33c0-6.63 3.31-10.77 8.7-10.77a24.24 24.24 0 015.38.83l2.49-7.46a28 28 0 00-5.8-.83zm-111.41 4.14c-4.14-2.9-9.94-4.14-16.15-4.14-9.94 0-16.15 4.56-16.15 12.43 0 6.63 4.56 10.35 13.25 11.6l4.14.41c4.56.83 7.46 2.49 7.46 4.56 0 2.9-3.31 5-9.53 5a21.84 21.84 0 01-13.25-4.14l-4.14 6.21c5.8 4.14 12.84 5 17 5 11.6 0 17.81-5.38 17.81-12.84 0-7-5-10.35-13.67-11.6l-4.14-.41c-3.73-.41-7-1.66-7-4.14 0-2.9 3.31-5 7.87-5 5 0 9.94 2.07 12.43 3.31l4.07-6.25zm120.11 16.57c0 12 7.87 20.71 20.71 20.71 5.8 0 9.94-1.24 14.08-4.56l-4.14-6.21a16.74 16.74 0 01-10.35 3.73c-7 0-12.43-5.38-12.43-13.25S446 389 453.07 389a16.74 16.74 0 0110.35 3.73l4.14-6.21c-4.14-3.31-8.28-4.56-14.08-4.56-12.43-.83-20.71 7.87-20.71 19.88v-.05zm-55.5-20.71c-11.6 0-19.47 8.28-19.47 20.71 0 12.43 8.28 20.71 20.29 20.71a25.33 25.33 0 0016.15-5.38l-4.14-5.8a19.79 19.79 0 01-11.6 4.14c-5.38 0-11.18-3.31-12-10.35h29.41v-3.31c0-12.43-7.46-20.71-18.64-20.71v-.01zm-.41 7.46c5.8 0 9.94 3.73 10.35 9.94h-21.53c1.24-5.8 5-9.94 11.18-9.94zm-107.27 13.25v-19.88h-7.87v5c-2.9-3.73-7-5.8-12.84-5.8-11.18 0-19.47 8.7-19.47 20.71 0 12.01 8.28 20.71 19.47 20.71 5.8 0 9.94-2.07 12.84-5.8v5h7.87v-19.94zm-31.89 0c0-7.46 4.56-13.25 12.43-13.25 7.46 0 12 5.8 12 13.25 0 7.87-5 13.25-12 13.25-7.87.41-12.43-5.8-12.43-13.25zm306.08-20.71a12.39 12.39 0 00-10.77 5.8v-5h-7.87v39.76H533v-22.33c0-6.63 3.31-10.77 8.7-10.77a24.24 24.24 0 015.38.83l2.49-7.46a28 28 0 00-5.8-.83h.01zm-30.65 20.71v-19.88h-7.87v5c-2.9-3.73-7-5.8-12.84-5.8-11.18 0-19.47 8.7-19.47 20.71 0 12.01 8.28 20.71 19.47 20.71 5.8 0 9.94-2.07 12.84-5.8v5h7.87v-19.94zm-31.89 0c0-7.46 4.56-13.25 12.43-13.25 7.46 0 12 5.8 12 13.25 0 7.87-5 13.25-12 13.25-7.87.41-12.43-5.8-12.43-13.25zm111.83 0v-35.62h-7.87v20.71c-2.9-3.73-7-5.8-12.84-5.8-11.18 0-19.47 8.7-19.47 20.71 0 12.01 8.28 20.71 19.47 20.71 5.8 0 9.94-2.07 12.84-5.8v5h7.87v-19.91zm-31.89 0c0-7.46 4.56-13.25 12.43-13.25 7.46 0 12 5.8 12 13.25 0 7.87-5 13.25-12 13.25-7.88.42-12.44-5.79-12.44-13.25h.01z" fill="#FFF"/><path fill="#FF5F00" d="M303.55 80.39h143.72v234.42H303.55z"/><path d="M318.05 197.6a149.5 149.5 0 0156.74-117.21c-61.128-48.061-148.928-41.075-201.687 16.048-52.758 57.123-52.758 145.2 0 202.324 52.759 57.123 140.559 64.11 201.687 16.048a149.5 149.5 0 01-56.74-117.21z" fill="#EB001B"/><path d="M616.26 197.6c.041 57.047-32.503 109.106-83.804 134.056-51.302 24.95-112.347 18.408-157.196-16.846a149.43 149.43 0 000-234.42c44.85-35.254 105.894-41.797 157.196-16.846 51.3 24.95 83.845 77.01 83.804 134.056z" fill="#F79E1B"/></g></svg>