<svg width="750" height="471" viewBox="0 0 750 471" xmlns="http://www.w3.org/2000/svg"><g fill-rule="nonzero" fill="none"><path d="M697.115 0H52.885C23.724 0 0 23.196 0 51.707v367.586C0 447.804 23.724 471 52.885 471h644.23C726.274 471 750 447.804 750 419.293V51.707C750 23.196 726.274 0 697.115 0z" fill="#FFF"/><path d="M163.273 158.458c-8.024-5.516-18.495-8.281-31.412-8.281H81.85c-3.96 0-6.147 1.98-6.563 5.936L54.973 283.638c-.212 1.253.102 2.398.937 3.44.83 1.043 1.874 1.562 3.125 1.562h23.754c4.166 0 6.456-1.976 6.876-5.938l5.626-34.38c.205-1.666.938-3.02 2.188-4.064 1.25-1.04 2.813-1.722 4.688-2.035 1.876-.309 3.644-.465 5.314-.465 1.665 0 3.644.105 5.94.313 2.29.208 3.75.31 4.375.31 17.919 0 31.983-5.05 42.195-15.159 10.207-10.104 15.316-24.117 15.316-42.04 0-12.292-4.014-21.2-12.034-26.724zm-25.785 38.29c-1.045 7.295-3.751 12.085-8.127 14.378-4.376 2.295-10.627 3.436-18.752 3.436l-10.315.313 5.314-33.444c.415-2.29 1.769-3.436 4.063-3.436h5.94c8.33 0 14.377 1.2 18.128 3.593 3.749 2.398 5 7.454 3.749 15.16z" fill="#003087"/><path d="M691.026 150.177H667.9c-2.298 0-3.65 1.146-4.063 3.438l-20.318 130.023-.313.625c0 1.047.418 2.032 1.253 2.97.829.936 1.875 1.406 3.124 1.406h20.63c3.954 0 6.142-1.976 6.565-5.938l20.315-127.838v-.31c0-2.917-1.36-4.376-4.066-4.376z" fill="#009CDE"/><path d="M411.6 200.497c0-1.04-.42-2.03-1.248-2.967-.836-.937-1.775-1.408-2.813-1.408H383.47c-2.297 0-4.17 1.047-5.626 3.125l-33.13 48.761-13.752-46.884c-1.046-3.332-3.337-5.002-6.877-5.002h-23.444c-1.045 0-1.983.47-2.811 1.408-.836.936-1.25 1.929-1.25 2.967 0 .42 2.032 6.565 6.094 18.442 4.062 11.878 8.438 24.694 13.127 38.448 4.69 13.75 7.135 21.047 7.345 21.876-17.087 23.34-25.63 35.842-25.63 37.506 0 2.711 1.354 4.064 4.064 4.064h24.067c2.292 0 4.166-1.04 5.626-3.124l79.703-115.024c.414-.415.623-1.14.623-2.188z" fill="#003087"/><path d="M635.705 196.122h-23.756c-2.919 0-4.685 3.438-5.31 10.315-5.424-8.33-15.316-12.504-29.696-12.504-15.003 0-27.768 5.627-38.287 16.88-10.525 11.252-15.784 24.486-15.784 39.695 0 12.297 3.593 22.09 10.781 29.38 7.19 7.297 16.826 10.94 28.915 10.94 6.04 0 12.188-1.253 18.439-3.751 6.251-2.5 11.144-5.833 14.692-10.002 0 .21-.212 1.145-.626 2.812-.42 1.67-.626 2.922-.626 3.75 0 3.338 1.351 5 4.065 5h21.568c3.953 0 6.249-1.975 6.873-5.937l12.816-81.577c.205-1.25-.107-2.395-.939-3.438-.835-1.04-1.875-1.563-3.125-1.563zm-40.788 61.574c-5.314 5.21-11.72 7.813-19.222 7.813-6.046 0-10.938-1.664-14.69-5-3.752-3.328-5.628-7.913-5.628-13.752 0-7.705 2.604-14.22 7.815-19.535 5.204-5.313 11.669-7.97 19.38-7.97 5.828 0 10.674 1.72 14.532 5.157 3.852 3.438 5.784 8.18 5.784 14.223 0 7.5-2.659 13.858-7.971 19.064z" fill="#009CDE"/><path d="M280.64 196.122h-23.755c-2.921 0-4.689 3.438-5.314 10.315-5.626-8.33-15.525-12.504-29.694-12.504-15.003 0-27.767 5.627-38.289 16.88-10.524 11.252-15.783 24.486-15.783 39.695 0 12.297 3.595 22.09 10.784 29.38 7.19 7.297 16.824 10.94 28.911 10.94 5.832 0 11.878-1.253 18.128-3.751 6.25-2.5 11.252-5.833 15.003-10.002-.836 2.5-1.25 4.689-1.25 6.562 0 3.338 1.353 5 4.062 5h21.567c3.956 0 6.25-1.975 6.876-5.937l12.815-81.577c.205-1.25-.107-2.395-.938-3.438-.834-1.04-1.874-1.563-3.124-1.563zm-40.79 61.73c-5.314 5.11-11.829 7.657-19.534 7.657-6.046 0-10.89-1.664-14.535-5-3.648-3.328-5.47-7.913-5.47-13.752 0-7.705 2.603-14.22 7.815-19.535 5.206-5.313 11.666-7.97 19.378-7.97 5.832 0 10.676 1.72 14.535 5.157 3.852 3.438 5.782 8.18 5.782 14.223 0 7.71-2.657 14.12-7.97 19.22z" fill="#003087"/><path d="M518.338 158.458c-8.023-5.516-18.492-8.281-31.411-8.281H437.23c-4.17 0-6.463 1.98-6.877 5.936l-20.315 127.524c-.211 1.253.101 2.398.937 3.44.827 1.043 1.874 1.562 3.125 1.562h25.628c2.5 0 4.167-1.353 5.002-4.063l5.627-36.254c.206-1.667.936-3.021 2.187-4.065 1.251-1.04 2.812-1.722 4.69-2.034 1.874-.31 3.642-.466 5.313-.466 1.665 0 3.644.105 5.937.313 2.292.208 3.754.31 4.375.31 17.922 0 31.985-5.05 42.196-15.158 10.21-10.105 15.316-24.118 15.316-42.04 0-12.292-4.013-21.2-12.033-26.724zm-32.037 51.417c-4.585 3.125-11.461 4.687-20.628 4.687l-10.003.313 5.315-33.444c.413-2.29 1.766-3.436 4.062-3.436h5.624c4.583 0 8.23.208 10.943.624 2.705.42 5.313 1.718 7.813 3.906 2.502 2.189 3.75 5.367 3.75 9.535 0 8.75-2.294 14.688-6.876 17.815z" fill="#009CDE"/></g></svg>