<svg xmlns="http://www.w3.org/2000/svg" width="750" height="471" viewBox="0 0 750 471"><rect x="-750" width="750" height="471" rx="40" transform="scale(-1 1)" fill="#000c9d"/><g fill="#fff" fill-opacity=".196"><path d="M671.846 310.37v-3.795h5.117v-11.27h4.198l.403 11.27h11.443l-10.58-25.07 3.967-1.725 11.673 27.14v3.45H681.62v9.66h-4.657v-9.66h-5.117zM652.26 279.78c4.026 0 7.878 1.38 11.213 4.6l-2.587 2.933c-2.645-2.473-5.003-3.68-8.395-3.68-4.197 0-7.532 2.357-7.532 6.727 0 4.773 3.738 6.958 7.533 6.958h2.358l.575 3.795h-3.335c-4.657 0-8.222 1.84-8.222 7.532 0 4.945 3.277 8.108 8.855 8.108 3.22 0 6.556-1.323 8.798-3.968l3.22 2.645c-2.99 3.68-7.705 5.233-12.132 5.233-8.165 0-13.743-5.175-13.743-12.018 0-6.152 4.37-9.372 9.028-9.717-4.197-.805-7.762-4.428-7.762-9.2 0-5.405 4.715-9.948 12.133-9.948zM617.783 279.78c5.348 0 8.913 1.898 12.075 5.693l-3.335 2.53c-2.53-2.933-4.657-4.198-8.567-4.198-4.428 0-7.073 2.76-7.073 7.188 0 6.497 3.22 10.81 18.17 25.127v3.91h-23.517l-.575-4.082h18.63c-13.052-11.903-17.71-17.825-17.71-25.07 0-6.325 4.428-11.098 11.903-11.098zM569.046 316.12h8.28v-35.65h4.197l11.73 7.245-2.07 3.393-9.085-5.463v30.475h9.775v3.91h-22.827v-3.91zM499.458 310.37v-3.795h5.117v-11.27h4.198l.402 11.27h11.443l-10.58-25.07 3.967-1.725 11.673 27.14v3.45h-16.445v9.66h-4.658v-9.66h-5.117zM479.873 279.78c4.025 0 7.877 1.38 11.212 4.6l-2.587 2.933c-2.645-2.473-5.003-3.68-8.395-3.68-4.198 0-7.533 2.357-7.533 6.727 0 4.773 3.738 6.958 7.533 6.958h2.357l.575 3.795H479.7c-4.657 0-8.222 1.84-8.222 7.532 0 4.945 3.277 8.108 8.855 8.108 3.22 0 6.555-1.323 8.797-3.968l3.22 2.645c-2.99 3.68-7.705 5.233-12.132 5.233-8.165 0-13.743-5.175-13.743-12.018 0-6.152 4.37-9.372 9.028-9.717-4.198-.805-7.763-4.428-7.763-9.2 0-5.405 4.715-9.948 12.133-9.948zM445.395 279.78c5.348 0 8.913 1.898 12.075 5.693l-3.335 2.53c-2.53-2.933-4.657-4.198-8.567-4.198-4.428 0-7.073 2.76-7.073 7.188 0 6.497 3.22 10.81 18.17 25.127v3.91h-23.517l-.575-4.082h18.63c-13.053-11.903-17.71-17.825-17.71-25.07 0-6.325 4.427-11.098 11.902-11.098zM396.658 316.12h8.28v-35.65h4.197l11.73 7.245-2.07 3.393-9.085-5.463v30.475h9.775v3.91h-22.827v-3.91zM327.07 310.37v-3.795h5.118v-11.27h4.197l.403 11.27h11.442l-10.58-25.07 3.968-1.725 11.672 27.14v3.45h-16.445v9.66h-4.657v-9.66h-5.118zM307.485 279.78c4.025 0 7.878 1.38 11.213 4.6l-2.588 2.933c-2.645-2.473-5.002-3.68-8.395-3.68-4.197 0-7.532 2.357-7.532 6.727 0 4.773 3.737 6.958 7.532 6.958h2.358l.575 3.795h-3.335c-4.658 0-8.223 1.84-8.223 7.532 0 4.945 3.278 8.108 8.855 8.108 3.22 0 6.555-1.323 8.798-3.968l3.22 2.645c-2.99 3.68-7.705 5.233-12.133 5.233-8.165 0-13.742-5.175-13.742-12.018 0-6.152 4.37-9.372 9.027-9.717-4.197-.805-7.762-4.428-7.762-9.2 0-5.405 4.715-9.948 12.132-9.948zM273.008 279.78c5.347 0 8.912 1.898 12.075 5.693l-3.335 2.53c-2.53-2.933-4.658-4.198-8.568-4.198-4.427 0-7.072 2.76-7.072 7.188 0 6.497 3.22 10.81 18.17 25.127v3.91H260.76l-.575-4.082h18.63c-13.052-11.903-17.71-17.825-17.71-25.07 0-6.325 4.428-11.098 11.903-11.098zM224.27 316.12h8.28v-35.65h4.198l11.73 7.245-2.07 3.393-9.085-5.463v30.475h9.775v3.91H224.27v-3.91zM154.683 310.37v-3.795h5.117v-11.27h4.198l.402 11.27h11.443l-10.58-25.07 3.967-1.725 11.673 27.14v3.45h-16.445v9.66H159.8v-9.66h-5.117zM135.098 279.78c4.025 0 7.877 1.38 11.212 4.6l-2.587 2.933c-2.645-2.473-5.003-3.68-8.395-3.68-4.198 0-7.533 2.357-7.533 6.727 0 4.773 3.738 6.958 7.533 6.958h2.357l.575 3.795h-3.335c-4.657 0-8.222 1.84-8.222 7.532 0 4.945 3.277 8.108 8.855 8.108 3.22 0 6.555-1.323 8.797-3.968l3.22 2.645c-2.99 3.68-7.705 5.233-12.132 5.233-8.165 0-13.743-5.175-13.743-12.018 0-6.152 4.37-9.372 9.028-9.717-4.198-.805-7.763-4.428-7.763-9.2 0-5.405 4.715-9.948 12.133-9.948zM100.62 279.78c5.348 0 8.913 1.898 12.075 5.693l-3.335 2.53c-2.53-2.933-4.657-4.198-8.567-4.198-4.428 0-7.073 2.76-7.073 7.188 0 6.497 3.22 10.81 18.17 25.127v3.91H88.373l-.575-4.082h18.63c-13.053-11.903-17.71-17.825-17.71-25.07 0-6.325 4.427-11.098 11.902-11.098zM51.882 316.12h8.28v-35.65h4.198l11.73 7.245-2.07 3.393-9.085-5.463v30.475h9.775v3.91H51.882v-3.91z"/></g><g fill="#fff" fill-opacity=".196"><path d="M694.393 415.42h-6.445v-22.245l7.012 1.406v-3.593l-6.973-1.406h-3.945v25.84h-6.446v3.32h16.797v-3.32zM668.925 415.42h-6.446v-22.245l7.01 1.406v-3.593l-6.972-1.406h-3.945v25.84h-6.445v3.32h16.797v-3.32zM628.007 415.42h-13.77v3.32h18.516v-3.32q-2.246-2.323-6.114-6.23-3.887-3.925-4.883-5.058-1.895-2.13-2.637-3.594-.762-1.484-.762-2.91 0-2.324 1.64-3.79 1.622-1.464 4.24-1.464 1.855 0 3.925.645 2.05.643 4.394 1.952v-3.985q-2.382-.957-4.453-1.445-2.07-.488-3.79-.488-4.53 0-7.225 2.265-2.697 2.265-2.697 6.054 0 1.797.684 3.418.664 1.602 2.44 3.79.49.565 3.107 3.28 2.617 2.696 7.383 7.56zM593.983 403.02q-2.832.604-4.414 2.518-1.602 1.914-1.602 4.727 0 4.316 2.968 6.68 2.97 2.363 8.438 2.363 1.836 0 3.79-.372 1.932-.35 4.003-1.074v-3.808q-1.64.957-3.594 1.445-1.953.487-4.082.487-3.71 0-5.644-1.465-1.953-1.464-1.953-4.257 0-2.58 1.817-4.024 1.797-1.464 5.02-1.464h3.398v-3.242h-3.555q-2.91 0-4.453-1.152-1.543-1.172-1.543-3.36 0-2.246 1.6-3.437 1.584-1.21 4.552-1.21 1.62 0 3.476.35 1.855.352 4.082 1.094v-3.516q-2.246-.625-4.2-.938-1.972-.312-3.71-.312-4.492 0-7.11 2.05-2.617 2.032-2.617 5.508 0 2.422 1.388 4.102 1.387 1.66 3.945 2.305zM567.694 389.58h-15.488v3.32h11.875v7.15q-.86-.293-1.718-.43-.86-.156-1.72-.156-4.882 0-7.733 2.676-2.853 2.675-2.853 7.246 0 4.707 2.93 7.324 2.93 2.598 8.262 2.598 1.835 0 3.75-.313 1.893-.312 3.925-.937v-3.965q-1.758.957-3.633 1.426-1.875.467-3.965.467-3.38 0-5.352-1.777-1.972-1.777-1.972-4.824 0-3.047 1.972-4.825 1.973-1.776 5.352-1.776 1.582 0 3.164.352 1.563.35 3.204 1.093v-14.65zM533.827 404.894q2.812 0 4.434 1.503 1.602 1.504 1.602 4.14 0 2.638-1.602 4.142-1.62 1.503-4.433 1.503-2.813 0-4.434-1.504-1.62-1.525-1.62-4.142 0-2.637 1.62-4.14 1.602-1.504 4.434-1.504zm3.945-1.68q2.54-.625 3.965-2.363 1.406-1.738 1.406-4.238 0-3.496-2.48-5.527-2.5-2.03-6.836-2.03-4.356 0-6.836 2.03-2.48 2.03-2.48 5.527 0 2.5 1.426 4.24 1.407 1.737 3.926 2.362-2.85.664-4.434 2.597-1.6 1.935-1.6 4.728 0 4.238 2.597 6.504 2.578 2.266 7.402 2.266t7.422-2.266q2.577-2.266 2.577-6.504 0-2.793-1.602-4.727-1.6-1.932-4.453-2.596zm1.446-6.23q0 2.265-1.407 3.535-1.424 1.268-3.983 1.268-2.54 0-3.965-1.27-1.445-1.27-1.445-3.535t1.445-3.535q1.426-1.27 3.965-1.27 2.56 0 3.984 1.27 1.408 1.27 1.408 3.535z"/></g><g fill="#fff" fill-opacity=".196"><path d="M441.164 414.453h-6.445v-22.246l7.01 1.406v-3.593l-6.972-1.407h-3.946v25.84h-6.445v3.32h16.797v-3.32zM404.426 402.05q-2.832.606-4.415 2.52-1.6 1.914-1.6 4.727 0 4.316 2.97 6.68 2.967 2.363 8.436 2.363 1.836 0 3.79-.37 1.933-.353 4.003-1.075v-3.81q-1.64.958-3.595 1.446-1.953.49-4.082.49-3.71 0-5.644-1.465-1.954-1.465-1.954-4.258 0-2.578 1.816-4.024 1.797-1.464 5.02-1.464h3.398v-3.244h-3.555q-2.91 0-4.453-1.152-1.543-1.172-1.543-3.36 0-2.245 1.6-3.437 1.583-1.21 4.552-1.21 1.62 0 3.476.35 1.856.352 4.082 1.095v-3.516q-2.246-.625-4.2-.938-1.972-.312-3.71-.312-4.492 0-7.11 2.05-2.616 2.032-2.616 5.51 0 2.42 1.386 4.1 1.387 1.66 3.946 2.305zM387.51 414.453h-13.768v3.32h18.516v-3.32q-2.247-2.324-6.114-6.23-3.886-3.926-4.883-5.06-1.893-2.128-2.635-3.593-.762-1.484-.762-2.91 0-2.324 1.64-3.79 1.622-1.464 4.24-1.464 1.854 0 3.925.645 2.05.645 4.394 1.954v-3.984q-2.383-.957-4.453-1.446-2.07-.488-3.79-.488-4.53 0-7.226 2.266-2.696 2.265-2.696 6.054 0 1.797.684 3.418.664 1.602 2.44 3.79.49.566 3.107 3.28 2.616 2.696 7.38 7.56zM364.758 414.453h-6.446v-22.246l7.012 1.406v-3.593l-6.973-1.407h-3.944v25.84h-6.445v3.32h16.798v-3.32zM315.285 402.05q-2.832.606-4.414 2.52-1.6 1.914-1.6 4.727 0 4.316 2.968 6.68 2.97 2.363 8.438 2.363 1.835 0 3.79-.37 1.932-.353 4.003-1.075v-3.81q-1.642.958-3.595 1.446-1.953.49-4.082.49-3.71 0-5.645-1.465-1.953-1.465-1.953-4.258 0-2.578 1.816-4.024 1.798-1.464 5.02-1.464h3.4v-3.244h-3.555q-2.91 0-4.453-1.152-1.543-1.172-1.543-3.36 0-2.245 1.6-3.437 1.582-1.21 4.55-1.21 1.622 0 3.478.35 1.855.352 4.082 1.095v-3.516q-2.246-.625-4.2-.938-1.972-.312-3.71-.312-4.493 0-7.11 2.05-2.617 2.032-2.617 5.51 0 2.42 1.387 4.1 1.386 1.66 3.945 2.305zM290.93 392.05l9.96 15.567h-9.96V392.05zm1.035-3.437h-4.96v19.004h-4.16v3.28h4.16v6.876h3.924v-6.875h13.164v-3.808l-12.13-18.477zM276.26 388.613h-15.487v3.32h11.875v7.15q-.86-.294-1.72-.43-.858-.157-1.717-.157-4.882 0-7.734 2.676-2.85 2.676-2.85 7.246 0 4.707 2.928 7.324 2.93 2.598 8.262 2.598 1.836 0 3.75-.313 1.895-.312 3.926-.937v-3.965q-1.758.957-3.633 1.426-1.876.47-3.966.47-3.38 0-5.35-1.778-1.974-1.777-1.974-4.824 0-3.047 1.973-4.824 1.972-1.778 5.35-1.778 1.583 0 3.165.352 1.563.352 3.203 1.094v-14.65zM250.793 388.613h-15.49v3.32h11.876v7.15q-.86-.294-1.72-.43-.86-.157-1.718-.157-4.883 0-7.734 2.676-2.852 2.676-2.852 7.246 0 4.707 2.93 7.324 2.93 2.598 8.26 2.598 1.837 0 3.75-.313 1.896-.312 3.927-.937v-3.965q-1.758.957-3.633 1.426-1.875.47-3.964.47-3.38 0-5.352-1.778-1.973-1.777-1.973-4.824 0-3.047 1.974-4.824 1.973-1.778 5.352-1.778 1.582 0 3.164.352 1.562.352 3.203 1.094v-14.65z"/></g><rect width="750" height="102" y="-154" rx="0" transform="scale(1 -1)" fill="#333"/><path fill="#fff" d="M16 177h562v80H16z"/><path d="M498.85 230.6h-7.2v-31H488l-10.2 6.3 1.8 2.95 7.9-4.75v26.5H479v3.4h19.85v-3.4zM516.43 199c-4.65 0-7.75 1.65-10.5 4.95l2.9 2.2c2.2-2.55 4.05-3.65 7.45-3.65 3.85 0 6.15 2.4 6.15 6.25 0 5.65-2.8 9.4-15.8 21.85v3.4h20.45l.5-3.55h-16.2c11.35-10.35 15.4-15.5 15.4-21.8 0-5.5-3.85-9.65-10.35-9.65zM546.41 199c-3.5 0-6.85 1.2-9.75 4l2.25 2.55c2.3-2.15 4.35-3.2 7.3-3.2 3.65 0 6.55 2.05 6.55 5.85 0 4.15-3.25 6.05-6.55 6.05h-2.05l-.5 3.3h2.9c4.05 0 7.15 1.6 7.15 6.55 0 4.3-2.85 7.05-7.7 7.05-2.8 0-5.7-1.15-7.65-3.45l-2.8 2.3c2.6 3.2 6.7 4.55 10.55 4.55 7.1 0 11.95-4.5 11.95-10.45 0-5.35-3.8-8.15-7.85-8.45 3.65-.7 6.75-3.85 6.75-8 0-4.7-4.1-8.65-10.55-8.65z"/><rect width="133" height="95" x="16" y="310" rx="25" fill="#a5a5a5"/></svg>