<svg xmlns="http://www.w3.org/2000/svg" width="750" height="471" viewBox="0 0 750 471">
    <title>Verve Logo White on Blue</title>
    <rect width="750" height="471" rx="40" ry="40" style="fill:#00425f"/>
    <circle cx="156.26347" cy="215.5" r="115.26347" style="fill:#ee312a"/>
    <path d="M156.26347,264.87251c-25.77978-58.44077-44.6849-113.0323-44.6849-113.0323H72.05384s24.05687,70.07163,68.74177,157.70044h30.93573c44.6849-87.62881,68.74177-157.70044,68.74177-157.70044H200.94837S182.04325,206.43174,156.26347,264.87251Z" style="fill:#fff"/>
    <path d="M708.04515,257.60566H630.71641s1.718,25.78124,36.08666,25.78124c17.18378,0,34.36885-5.16013,34.36885-5.16013l3.43733,27.4942s-17.18507,6.87394-41.24337,6.87394c-34.36743,0-65.299-17.1845-65.299-65.29966,0-37.80547,24.05687-61.86305,58.42572-61.86305C708.04515,185.4322,711.48248,236.98469,708.04515,257.60566Zm-53.27044-48.11588c-22.34035,0-24.0583,24.05758-24.0583,24.05758h48.11517S677.11363,209.48978,654.77471,209.48978Z"
          style="fill:#fff"/>
    <path d="M442.3337,216.74823l5.15514-27.49491s-39.81248-12.0813-72.17346,10.31056V309.54067h34.37014l-.00271-89.35582C423.42925,209.87443,442.3337,216.74823,442.3337,216.74823Z" style="fill:#fff"/>
    <path d="M348.41613,257.60566H271.08739s1.718,25.78124,36.08666,25.78124c17.18378,0,34.36743-5.16013,34.36743-5.16013l3.43733,27.4942s-17.18364,6.87394-41.24194,6.87394c-34.36885,0-65.30038-17.1845-65.30038-65.29966,0-37.80547,24.0583-61.86305,58.42715-61.86305C348.41613,185.4322,351.852,236.98469,348.41613,257.60566Zm-53.27187-48.11588c-22.33892,0-24.05687,24.05758-24.05687,24.05758h48.11517S317.4846,209.48978,295.14426,209.48978Z"
          style="fill:#fff"/>
    <path d="M525.80355,268.32373a534.672,534.672,0,0,1-25.77626-80.1015l-34.366.00454S482.845,254.57171,512.05993,309.5462h27.48724C568.76212,254.57171,585.94581,188.239,585.94581,188.239h-34.366A534.81923,534.81923,0,0,1,525.80355,268.32373Z" style="fill:#fff"/>
</svg>