<?xml version="1.0" encoding="utf-8"?>
<!-- Generator: Adobe Illustrator 24.0.0, SVG Export Plug-In . SVG Version: 6.00 Build 0)  -->
<svg version="1.1" id="Camada_1" xmlns="http://www.w3.org/2000/svg" xmlns:xlink="http://www.w3.org/1999/xlink" x="0px" y="0px"
	 viewBox="0 0 750 471" style="enable-background:new 0 0 750 471;" xml:space="preserve">
<style type="text/css">
	.st0{fill:#007853;}
	.st1{fill:#007853;stroke:#FFFFFF;stroke-width:5;stroke-miterlimit:10;}
	.st2{fill:#FFFFFF;}
	.st3{fill:#C2D500;}
</style>
<desc>Created with Sketch.</desc>
<g id="Page-1">
	<g id="elo">
		<path id="Rectangle-1" class="st0" d="M40,0h670c22.1,0,40,17.9,40,40v391c0,22.1-17.9,40-40,40H40c-22.1,0-40-17.9-40-40V40
			C0,17.9,17.9,0,40,0z"/>
	</g>
</g>
<g>
	<path class="st1" d="M461.6,72.1c-33.7,0-65,10.2-91,27.7c-1.9,1.3-14.6,10.4-15.2,10.8c-21.2,16-35.5,18.8-55,13.8
		c-1.2-0.3-6.8-2.2-8.5-2.9c-13.3-5-27.8-7.8-42.9-7.8c-67.2,0-121.6,54.5-121.6,121.7c0,67.2,54.5,121.7,121.6,121.7
		c13.5,0,26.4-2.2,38.5-6.2c29.1-8.7,44.9-6.3,63.1,6.6c3.7,2.6,12.5,8.2,14.3,9.6c27.1,20,60.5,31.8,96.8,31.8
		c90.2,0,163.3-73.1,163.3-163.3C624.9,145.2,551.8,72.1,461.6,72.1z"/>
	<g>
		<g>
			<g>
				<path class="st2" d="M402.7,260.7c-5.3,5.2-12.7,8.4-20.7,8.3c-5.5-0.1-10.7-1.7-15-4.5l-10.8,17.2c7.4,4.7,16.1,7.4,25.5,7.6
					c13.7,0.2,26.1-5.2,35.2-14L402.7,260.7z"/>
				<path class="st2" d="M383.2,190.6c-27.2-0.4-49.7,21.3-50.1,48.6c-0.2,10.2,2.8,19.7,8,27.7l89.4-38.2
					C425.4,207.1,406.3,191,383.2,190.6z M353.5,243c-0.1-1.2-0.2-2.3-0.2-3.5c0.2-16,13.4-28.8,29.5-28.6
					c8.7,0.1,16.5,4.1,21.7,10.3L353.5,243z"/>
			</g>
			<g>
				<g>
					<path class="st2" d="M458.4,168.4v95.2l16.5,6.8l-7.8,18.8l-16.4-6.8c-3.7-1.6-6.2-4-8-6.8l0,0c-1.8-2.8-3.2-6.6-3.2-11.8
						v-95.5H458.4z"/>
				</g>
			</g>
			<g>
				<g>
					<path class="st2" d="M314.6,168.4v95.2l16.5,6.8l-7.8,18.8l-16.3-6.8c-3.7-1.6-6.2-4-8.1-6.8l0,0c-1.8-2.8-3.2-6.6-3.2-11.8
						v-95.5H314.6z"/>
				</g>
			</g>
			<path class="st3" d="M539.8,213.7c14.5,7,20.6,24.3,13.6,38.8l0,0l18.3,8.8l0,0c11.8-24.6,1.5-54-23.1-65.8
				c-18.7-9-40.2-5.1-54.6,8l13.7,15C516.1,210.7,528.8,208.4,539.8,213.7z"/>
			<path class="st2" d="M514.6,266.1c-14.4-7-20.5-24.3-13.6-38.8v0l-18.3-8.8l0,0c-11.8,24.6-1.5,54,23.1,65.8
				c18.7,9,40.2,5.1,54.6-8l-13.7-15C538.2,269.1,525.6,271.4,514.6,266.1z"/>
			<path class="st2" d="M277.2,267.5V240c0,0,0-0.1,0-0.1c0-22-14.4-40.6-34.3-46.9c-4.7-1.5-9.7-2.3-14.9-2.3
				c-5.1,0-10,0.8-14.6,2.2c-7.7,2.4-14.6,6.6-20.2,12.2c-8.9,8.9-14.4,21.2-14.4,34.8c0,27.2,22.1,49.2,49.2,49.2l0,0h0
				c7.9,0,15.3-1.9,22-5.2l-8-18.6c-4.2,2.3-8.9,3.6-14,3.6c-16.1,0-29.1-13-29.1-29.1l0,0h0c0-4.9,1.3-9.6,3.4-13.6
				c3.9-7.3,10.8-12.7,19.1-14.7c2.1-0.5,4.3-0.8,6.6-0.8c4.3,0,8.4,1,12,2.6c10,4.6,17,14.7,17.1,26.5h0c0,0.8,0,27.3,0,27.3
				c0,5.2,1.4,9,3.2,11.8c1.9,2.7,4.3,5.2,8.1,6.8l9.2,3.7l7.8-18.8L277.2,267.5z"/>
		</g>
	</g>
</g>
</svg>
