<svg height="471" viewBox="0 0 750 471" width="750" xmlns="http://www.w3.org/2000/svg"><g fill="none" fill-rule="evenodd"><rect fill="#fff" height="471" rx="40" width="750"/><path d="m99.460353 243.349396c-4.8010666.599983-13.2029333 2.399931-18.004 6.59981-14.4032 12.599635-6.0013333 34.798994 23.4052 34.798994 16.803733 0 33.607467-10.799688 46.8104-27.599203-19.204267-8.999739-34.807733-15.599549-52.2116-13.799601z" fill="#2ba6df"/><path d="m207.034 258.796653c27.006 8.99974 33.007333 9.599722 33.007333 9.599722v-95.997225c0-16.199532-13.202933-29.39915-30.006666-29.39915h-126.0280003c-16.2036 0-30.0066667 13.199618-30.0066667 29.39915v125.996358c0 16.199532 13.2029333 29.39915 30.0066667 29.39915h126.0280003c16.2036 0 30.006666-13.199618 30.006666-29.39915v-1.199965s-48.010666-19.799428-72.616133-31.799081c-16.2036 19.799428-37.208267 32.399063-59.4132 32.399063-37.2082667 0-49.8110667-32.399063-31.8070667-53.398456 3.6008-4.799861 10.2022667-8.99974 20.4045334-11.39967 15.6034663-3.599896 40.8090663 2.39993 64.2142663 10.199705 4.200934-7.799775 7.801734-16.199532 10.202267-25.199272h-72.6161333v-7.199792h37.2082663v-14.399584h-45.610133v-7.199791h45.610133v-18.599463s0-2.999913 3.000667-2.999913h18.004v22.199358h45.01v6.599809h-45.01v13.199619h36.608133c-3.6008 14.399584-9.002 27.599202-15.603466 38.998873 12.002666 4.199878 22.204933 7.799774 29.406533 10.199705z" fill="#2ba6df"/><path d="m325.688933 186.612532 39.6088 85.79752h-21.004666l-10.8024-22.799341h-32.4072l-10.8024 22.799341h-13.803067l40.208933-83.397589s1.200267-2.399931 3.6008-2.399931zm-21.004666 55.198405h25.2056l-12.6028-26.99922zm87.448 31.281854h-19.204267v-81.597641c0-2.399931 1.200267-3.599896 4.200933-3.599896h15.003334zm36.008-.558604h-19.204267v-61.798214c0-2.399931 1.200267-3.599896 4.200933-3.599896h15.003334zm23.481667-64.115388h12.6028v5.999826c2.400533-1.799948 4.801067-3.599896 7.801733-4.199878 3.000667-1.199966 6.001334-1.799948 10.202267-1.799948s7.801733.599982 10.8024 2.39993c3.6008 1.799948 6.001333 3.599896 8.401867 6.59981 2.400533 2.999913 4.200933 5.999826 5.4012 9.599722 1.200266 3.599896 1.8004 7.199792 1.8004 11.399671 0 5.399843-.600134 10.199705-2.400534 14.399583-1.8004 4.199879-3.6008 8.399757-6.601466 11.399671-3.000667 2.999913-6.001334 5.999826-10.202267 7.799774s-8.401867 2.399931-13.202933 2.399931h-6.601467c-1.8004 0-3.6008-.599983-5.4012-1.199965v21.599375h-19.204267v-78.597728c-.600133-7.799774 2.400534-7.799774 6.601467-7.799774zm12.6028 46.798647c0 1.799948 0 2.999913.600133 4.199879.600134 1.199965 1.200267 2.39993 2.400534 3.599895 1.200266 1.199966 2.400533 1.799948 3.6008 2.399931 1.200266.599983 3.000666.599983 4.801066.599983s3.000667-.599983 4.801067-1.799948c1.200267-1.199966 3.000667-2.399931 3.6008-4.799861.600133-2.399931 1.8004-4.199879 2.400533-7.199792.600134-2.999914 1.200267-5.399844 1.200267-8.99974 0-4.199879 0-7.799775-.600133-10.799688-.600134-2.999913-1.200267-5.399844-2.400534-7.799775-1.200266-1.799948-2.400533-3.599896-3.6008-4.799861-1.200266-1.199965-3.000666-1.799948-4.801066-1.799948-1.200267 0-2.400534 0-3.6008.599983-1.200267.599982-2.400534 1.199965-3.000667 1.799948-1.200267.599982-1.8004 1.799948-3.000667 2.39993-1.200266 1.199966-1.8004 1.799948-2.400533 2.999914zm81.027266-46.798647c4.801067 0 8.401867.599982 12.002667 1.199965 3.000666.599983 6.001333 1.799948 8.401866 3.599896 2.400534 1.799948 3.6008 3.599896 4.801067 5.399844 1.200267 2.39993 1.8004 4.799861 1.8004 7.199792v47.39863h-19.204267v-4.799862c-1.200266 1.199966-2.400533 1.799948-3.000666 2.399931-1.200267.599983-2.400534 1.199965-3.6008 1.799948-1.200267.599983-2.400534 1.199965-4.200934 1.199965-1.8004.599983-3.6008.599983-5.4012.599983-3.000666 0-5.4012-.599983-7.801733-1.199965-2.400533-.599983-4.200933-1.799948-6.001333-3.599896-1.8004-1.199966-3.000667-2.999914-3.6008-5.399844-.600134-1.799948-1.200267-4.199879-1.200267-6.599809 0-2.399931.600133-4.799862 1.200267-6.59981.600133-1.799948 2.400533-3.599896 3.6008-5.399844 1.200266-1.799948 3.6008-2.999913 5.4012-4.199878 2.400533-1.199966 4.200933-2.399931 7.2016-3.599896 2.400533-1.199965 4.801066-1.799948 7.801733-2.999913 2.400533-.599983 5.4012-1.799948 7.801733-2.399931l2.400534-.599983v-6.599809c0-1.799948 0-3.599896-.600134-5.399844-.600133-1.199965-1.200266-2.39993-1.8004-3.599896-.600133-.599982-1.8004-1.799948-2.400533-1.799948-1.200267-.599982-2.400533-.599982-3.6008-.599982 0 0-10.202267 0-19.204267 7.799774l-4.200933-6.599809c-1.8004 1.199965 9.002-6.599809 23.4052-6.599809zm6.601467 31.79908c-1.8004.599983-3.6008 1.799948-5.4012 2.999914-1.8004 1.199965-3.6008 2.39993-5.4012 3.599896-1.8004 1.199965-3.000667 2.39993-3.6008 4.199878-1.200267 1.199966-1.200267 2.999914-1.200267 4.199879s0 2.399931.600133 3.599896c.600134 1.199965.600134 1.799948 1.200267 2.999913s1.200267 1.199965 1.8004 1.799948 1.200267.599983 2.400533.599983c1.8004 0 3.000667-.599983 4.801067-1.199966 1.8004-1.199965 3.6008-2.39993 5.4012-3.599895v-19.199446zm46.5532 53.99844h-12.6028l-.600134-11.399671s15.603467.599983 20.404534-5.399844c1.8004-2.39993 3.000666-8.99974 3.000666-8.99974l-31.206933-59.998265h21.004667l19.8044 38.998872 17.403866-38.998872h13.803067l-31.807067 70.797953c-1.200266 2.399931-6.001333 14.999567-19.204266 14.999567z" fill="#3f3a39"/><ellipse cx="418.602" cy="189.5" fill="#2ba6df" rx="9.602" ry="8.5"/><g fill="#3f3a39"><path d="m668.879 158.31h-6.601v-1.2h14.403v1.2h-6.601v18.599h-1.801v-18.599z"/><path d="m679.596133 157.109937h2.400534l4.200933 11.39967 1.8004 4.199879c.600133-1.199965 1.200267-2.999913 1.8004-4.199879l4.200933-11.39967h2.400534v20.39941h-2.400534v-12.599635-5.399844l-1.8004 4.799861-4.200933 11.999653h-1.200267l-4.200933-11.999653-1.8004-4.799861v5.399844 12.599635h-1.8004v-20.39941z"/></g></g></svg>