<svg height="471" viewBox="0 0 750 471" width="750" xmlns="http://www.w3.org/2000/svg"><g fill="none"><rect fill="#2557d6" height="471" rx="40" width="750"/><g fill="#fff"><path d="m.002688 221.18508h36.024161l8.12273-19.51002h18.185017l8.101446 19.51002h70.880328v-14.91599l6.32685 14.97957h36.79572l6.32685-15.20212v15.13854h176.15122l-.0825-32.02567h3.40819c2.38654.0822 3.0836.30203 3.0836 4.22575v27.79992h91.10602v-7.45535c7.3485 3.92107 18.77832 7.45535 33.81854 7.45535h38.32822l8.20255-19.51002h18.18501l8.02164 19.51002h73.86016v-18.53239l11.18506 18.53239h59.18711v-122.50719h-58.57518v14.46825l-8.20255-14.46825h-60.10501v14.46825l-7.53208-14.46825h-81.1874c-13.59021 0-25.53618 1.88901-35.18607 7.15332v-7.15332h-56.02636v7.15332c-6.1406-5.42592-14.5081-7.15332-23.81213-7.15332h-204.68587l-13.73389 31.64151-14.1037-31.64151h-64.471v14.46825l-7.082446-14.46825h-54.983406l-25.533521 58.24656v64.26063h.0026zm227.396882-17.67072h-21.61485l-.0798-68.79372-30.57264 68.79372h-18.51228l-30.65246-68.85466v68.85466h-42.883113l-8.101446-19.59214h-43.899457l-8.183924 19.59214h-22.899553l37.756194-87.83744h31.325589l35.8592 83.16394v-83.16394h34.41186l27.5928 59.58714 25.34728-59.58714h35.1036v87.83744zm-159.622356-37.82149-14.430949-35.01681-14.348471 35.01681zm245.642256 37.82149h-70.43336v-87.83744h70.43336v18.29129h-49.34831v15.83269h48.16435v18.00516h-48.16435v17.54153h49.34831zm99.25581-64.18115c0 14.00461-9.38651 21.24005-14.85665 23.41254 4.61343 1.74859 8.55374 4.83776 10.42945 7.39706 2.97717 4.36883 3.49067 8.27135 3.49067 16.11616v17.25539h-21.26597l-.0798-11.07704c0-5.28552.50817-12.88658-3.32838-17.11233-3.08094-3.08918-7.77686-3.75947-15.36746-3.75947h-22.63351v31.94884h-21.08238v-87.83744h48.49427c10.77532 0 18.71447.28348 25.53087 4.20721 6.67005 3.92373 10.6689 9.65168 10.6689 19.44908zm-26.65251 13.04311c-2.89737 1.75124-6.32418 1.80952-10.42944 1.80952h-25.61335v-19.51001h25.96188c3.67425 0 7.50813.16427 9.99843 1.58433 2.73507 1.27965 4.4272 4.00321 4.4272 7.76532 0 3.83895-1.60965 6.92813-4.34472 8.35084zm60.46631 51.13804h-21.51339v-87.83744h21.51339zm249.73948 0h-29.87824l-39.96447-65.92709v65.92709h-42.93898l-8.20521-19.59214h-43.79835l-7.96044 19.59214h-24.6715c-10.24853 0-23.22415-2.25727-30.57265-9.71527-7.40969-7.45799-11.26486-17.56006-11.26486-33.53316 0-13.02698 2.30405-24.93593 11.36597-34.34652 6.81638-7.01025 17.49061-10.24249 32.01999-10.24249h20.41192v18.82117h-19.98356c-7.69438 0-12.03909 1.13924-16.22418 5.20338-3.59443 3.69853-6.06078 10.69024-6.06078 19.89682 0 9.41058 1.87836 16.19564 5.79739 20.62804 3.24589 3.47599 9.14439 4.53044 14.69434 4.53044h9.46898l29.71594-69.0772h31.59165l35.69691 83.08181v-83.08181h32.10247l37.0618 61.17411v-61.17411h21.59586zm-128.15805-37.82149-14.59058-35.01681-14.51077 35.01681z"/><path d="m749.95644 343.76716c-5.12159 7.458-15.1014 11.23866-28.6118 11.23866h-40.71741v-18.83972h40.55246c4.02279 0 6.83767-.52723 8.53246-2.17514 1.46864-1.35913 2.49295-3.33292 2.49295-5.7306 0-2.55929-1.02431-4.59137-2.57543-5.81008-1.52983-1.34059-3.75673-1.94995-7.42832-1.94995-19.79733-.67028-44.49543.60936-44.49543-27.19319 0-12.74351 8.12539-26.15731 30.25072-26.15731h41.99715l.00265-17.48058h-39.02262c-11.7757 0-20.32944 2.80834-26.38756 7.1745v-7.1745h-57.71582c-9.22953 0-20.06338 2.27846-25.18765 7.1745v-7.1745h-103.06528v7.1745c-8.20255-5.89221-22.04285-7.1745-28.43088-7.1745h-67.98297v7.1745c-6.48914-6.25782-20.92009-7.1745-29.71594-7.1745h-76.08442l-17.41078 18.76288-16.30666-18.76288h-113.65437v122.59196h111.51527l17.94024-19.05962 16.89997 19.05962 68.73857.0609v-28.83847h6.75785c9.12045.14041 19.87715-.22519 29.3674-4.31053v33.08541h56.69683v-31.95148h2.73506c3.49068 0 3.83389.14307 3.83389 3.6164v28.33243h172.23487c10.93495 0 22.36477-2.78714 28.69427-7.8448v7.8448h54.63221c11.36864 0 22.47121-1.58698 30.91852-5.65112v-22.83763zm-341.50343-47.1545c0 24.40606-18.28612 29.44518-36.71591 29.44518h-26.30775v29.46901h-40.9808l-25.96188-29.08486-26.98087 29.08486h-83.5154v-87.85863h84.80046l25.94058 28.79872 26.81858-28.79872h67.37104c16.73234 0 35.53195 4.61256 35.53195 28.94444zm-167.6252 40.43389h-51.83861v-17.48059h46.28865v-17.92568h-46.28865v-15.9731h52.86027l23.06185 25.60359zm83.52669 10.06013-32.3712-35.78778 32.3712-34.6512zm47.8727-39.06551h-27.24693v-22.37399h27.4917c7.61191 0 12.8958 3.08918 12.8958 10.77238 0 7.5984-5.03912 11.60161-13.14057 11.60161zm142.74333-40.37302h70.36951v18.16949h-49.37226v15.9731h48.16702v17.92568h-48.16702v17.48059l49.37226.0794v18.23037h-70.36951zm-27.05329 47.02915c4.69325 1.72475 8.52979 4.81657 10.32835 7.37587 2.97717 4.28934 3.40819 8.29254 3.49332 16.03668v17.417h-21.16751v-10.99227c0-5.2855.51083-13.11176-3.4082-17.1971-3.08094-3.14746-7.77685-3.89988-15.46857-3.89988h-22.5324v32.08925h-21.18614v-87.85863h48.67784c10.67423 0 18.44843.46894 25.36858 4.14627 6.65409 4.00321 10.83917 9.48742 10.83917 19.51001-.003 14.02315-9.39449 21.17912-14.94444 23.3728zm-11.91825-11.10708c-2.8202 1.66646-6.30822 1.80953-10.41082 1.80953h-25.61334v-19.73257h25.96187c3.75407 0 7.5108.0794 10.06229 1.58698 2.73241 1.42271 4.366 4.14363 4.366 7.90309 0 3.75947-1.63359 6.78771-4.366 8.43297zm190.3364 5.59638c4.10528 4.23106 6.30556 9.5722 6.30556 18.61452 0 18.90066-11.85817 27.72308-33.12147 27.72308h-41.06595v-18.83971h40.901c3.99884 0 6.83501-.52723 8.61227-2.17515 1.45001-1.35913 2.49029-3.33291 2.49029-5.73059 0-2.55931-1.12542-4.59137-2.57276-5.81009-1.61232-1.34059-3.83655-1.94994-7.50814-1.94994-19.71751-.67029-44.41029.60935-44.41029-27.19321 0-12.7435 8.04025-26.15729 30.14429-26.15729h42.26853v18.6993h-38.67676c-3.83387 0-6.32684.14307-8.44732 1.58698-2.30937 1.42271-3.16608 3.53426-3.16608 6.3214 0 3.31438 1.96085 5.569 4.61344 6.54397 2.22424.77097 4.61343.99616 8.2052.99616l11.35002.30468c11.44578.27818 19.30245 2.24932 24.07817 7.06589zm83.66461-23.51942h-38.42665c-3.83655 0-6.38538.14307-8.53247 1.58698-2.22423 1.42271-3.08093 3.53427-3.08093 6.32142 0 3.31436 1.87836 5.56898 4.61076 6.54395 2.22424.77097 4.61344.99617 8.12539.99617l11.42717.30468c11.53092.28349 19.22796 2.25727 23.92121 7.07119.85404.67029 1.36754 1.42271 1.95552 2.17513z"/></g></g></svg>