<?xml version="1.0" encoding="UTF-8" standalone="no"?>
<svg
   xmlns:sketch="http://www.bohemiancoding.com/sketch/ns"
   xmlns:dc="http://purl.org/dc/elements/1.1/"
   xmlns:cc="http://creativecommons.org/ns#"
   xmlns:rdf="http://www.w3.org/1999/02/22-rdf-syntax-ns#"
   xmlns:svg="http://www.w3.org/2000/svg"
   xmlns="http://www.w3.org/2000/svg"
   xmlns:sodipodi="http://sodipodi.sourceforge.net/DTD/sodipodi-0.dtd"
   xmlns:inkscape="http://www.inkscape.org/namespaces/inkscape"
   width="750px"
   height="471px"
   viewBox="0 0 750 471"
   version="1.1"
   id="svg2"
   inkscape:version="0.91 r13725"
   sodipodi:docname="default.svg">
  <metadata
     id="metadata20">
    <rdf:RDF>
      <cc:Work
         rdf:about="">
        <dc:format>image/svg+xml</dc:format>
        <dc:type
           rdf:resource="http://purl.org/dc/dcmitype/StillImage" />
        <dc:title></dc:title>
      </cc:Work>
    </rdf:RDF>
  </metadata>
  <sodipodi:namedview
     pagecolor="#ffffff"
     bordercolor="#666666"
     borderopacity="1"
     objecttolerance="10"
     gridtolerance="10"
     guidetolerance="10"
     inkscape:pageopacity="0"
     inkscape:pageshadow="2"
     inkscape:window-width="1440"
     inkscape:window-height="851"
     id="namedview18"
     showgrid="false"
     inkscape:zoom="1"
     inkscape:cx="565.81572"
     inkscape:cy="198.79508"
     inkscape:window-x="0"
     inkscape:window-y="1"
     inkscape:window-maximized="1"
     inkscape:current-layer="svg2" />
  <defs
     id="defs8" />
  <g
     id="visa"
     sketch:type="MSLayerGroup">
    <rect
       id="Rectangle-1"
       fill="#0E4595"
       sketch:type="MSShapeGroup"
       x="0"
       y="0"
       width="750"
       height="471"
       rx="40"
       style="fill:#000c9d;fill-opacity:1" />
    <rect
       style="opacity:1;fill:#9d9400;fill-opacity:1;fill-rule:nonzero;stroke:none;stroke-width:10;stroke-linecap:round;stroke-miterlimit:4;stroke-dasharray:none;stroke-opacity:1"
       id="rect4183"
       width="110.32414"
       height="99.678818"
       x="48.710224"
       y="153.57616"
       rx="20.322868"
       ry="0" />
    <g
       id="text4185">
      <path
         d="m 78.102474,310.37012 0,-3.795 -5.1175,0 0,-11.27 -4.1975,0 -0.4025,11.27 -11.4425,0 10.58,-25.07 -3.9675,-1.725 -11.6725,27.14 0,3.45 16.445,0 0,9.66 4.6575,0 0,-9.66 5.1175,0 z"
         style="fill:#ffffff;fill-opacity:1"
         id="path4219"
         inkscape:connector-curvature="0" />
      <path
         d="m 97.687513,279.78012 c -4.025,0 -7.8775,1.38 -11.2125,4.6 l 2.5875,2.9325 c 2.645,-2.4725 5.0025,-3.68 8.395,-3.68 4.197497,0 7.532497,2.3575 7.532497,6.7275 0,4.7725 -3.7375,6.9575 -7.532497,6.9575 l -2.3575,0 -0.575,3.795 3.335,0 c 4.657497,0 8.222497,1.84 8.222497,7.5325 0,4.945 -3.2775,8.1075 -8.854997,8.1075 -3.22,0 -6.555,-1.3225 -8.7975,-3.9675 l -3.22,2.645 c 2.99,3.68 7.705,5.2325 12.1325,5.2325 8.164997,0 13.742497,-5.175 13.742497,-12.0175 0,-6.1525 -4.37,-9.3725 -9.0275,-9.7175 4.1975,-0.805 7.7625,-4.4275 7.7625,-9.2 0,-5.405 -4.715,-9.9475 -12.132497,-9.9475 z"
         style="fill:#ffffff;fill-opacity:1"
         id="path4221"
         inkscape:connector-curvature="0" />
      <path
         d="m 132.16505,279.78012 c -5.3475,0 -8.9125,1.8975 -12.075,5.6925 l 3.335,2.53 c 2.53,-2.9325 4.6575,-4.1975 8.5675,-4.1975 4.4275,0 7.0725,2.76 7.0725,7.1875 0,6.4975 -3.22,10.81 -18.17,25.1275 l 0,3.91 23.5175,0 0.575,-4.0825 -18.63,0 c 13.0525,-11.9025 17.71,-17.825 17.71,-25.07 0,-6.325 -4.4275,-11.0975 -11.9025,-11.0975 z"
         style="fill:#ffffff;fill-opacity:1"
         id="path4223"
         inkscape:connector-curvature="0" />
      <path
         d="m 180.90259,316.12012 -8.28,0 0,-35.65 -4.1975,0 -11.73,7.245 2.07,3.3925 9.085,-5.4625 0,30.475 -9.775,0 0,3.91 22.8275,0 0,-3.91 z"
         style="fill:#ffffff;fill-opacity:1"
         id="path4225"
         inkscape:connector-curvature="0" />
      <path
         d="m 250.49017,310.37012 0,-3.795 -5.1175,0 0,-11.27 -4.1975,0 -0.4025,11.27 -11.4425,0 10.58,-25.07 -3.9675,-1.725 -11.6725,27.14 0,3.45 16.445,0 0,9.66 4.6575,0 0,-9.66 5.1175,0 z"
         style="fill:#ffffff;fill-opacity:1"
         id="path4227"
         inkscape:connector-curvature="0" />
      <path
         d="m 270.07521,279.78012 c -4.025,0 -7.8775,1.38 -11.2125,4.6 l 2.5875,2.9325 c 2.645,-2.4725 5.0025,-3.68 8.395,-3.68 4.1975,0 7.5325,2.3575 7.5325,6.7275 0,4.7725 -3.7375,6.9575 -7.5325,6.9575 l -2.3575,0 -0.575,3.795 3.335,0 c 4.6575,0 8.2225,1.84 8.2225,7.5325 0,4.945 -3.2775,8.1075 -8.855,8.1075 -3.22,0 -6.555,-1.3225 -8.7975,-3.9675 l -3.22,2.645 c 2.99,3.68 7.705,5.2325 12.1325,5.2325 8.165,0 13.7425,-5.175 13.7425,-12.0175 0,-6.1525 -4.37,-9.3725 -9.0275,-9.7175 4.1975,-0.805 7.7625,-4.4275 7.7625,-9.2 0,-5.405 -4.715,-9.9475 -12.1325,-9.9475 z"
         style="fill:#ffffff;fill-opacity:1"
         id="path4229"
         inkscape:connector-curvature="0" />
      <path
         d="m 304.55275,279.78012 c -5.3475,0 -8.9125,1.8975 -12.075,5.6925 l 3.335,2.53 c 2.53,-2.9325 4.6575,-4.1975 8.5675,-4.1975 4.4275,0 7.0725,2.76 7.0725,7.1875 0,6.4975 -3.22,10.81 -18.17,25.1275 l 0,3.91 23.5175,0 0.575,-4.0825 -18.63,0 c 13.0525,-11.9025 17.71,-17.825 17.71,-25.07 0,-6.325 -4.4275,-11.0975 -11.9025,-11.0975 z"
         style="fill:#ffffff;fill-opacity:1"
         id="path4231"
         inkscape:connector-curvature="0" />
      <path
         d="m 353.29029,316.12012 -8.28,0 0,-35.65 -4.1975,0 -11.73,7.245 2.07,3.3925 9.085,-5.4625 0,30.475 -9.775,0 0,3.91 22.8275,0 0,-3.91 z"
         style="fill:#ffffff;fill-opacity:1"
         id="path4233"
         inkscape:connector-curvature="0" />
      <path
         d="m 422.87786,310.37012 0,-3.795 -5.1175,0 0,-11.27 -4.1975,0 -0.4025,11.27 -11.4425,0 10.58,-25.07 -3.9675,-1.725 -11.6725,27.14 0,3.45 16.445,0 0,9.66 4.6575,0 0,-9.66 5.1175,0 z"
         style="fill:#ffffff;fill-opacity:1"
         id="path4235"
         inkscape:connector-curvature="0" />
      <path
         d="m 442.4629,279.78012 c -4.025,0 -7.8775,1.38 -11.2125,4.6 l 2.5875,2.9325 c 2.645,-2.4725 5.0025,-3.68 8.395,-3.68 4.1975,0 7.5325,2.3575 7.5325,6.7275 0,4.7725 -3.7375,6.9575 -7.5325,6.9575 l -2.3575,0 -0.575,3.795 3.335,0 c 4.6575,0 8.2225,1.84 8.2225,7.5325 0,4.945 -3.2775,8.1075 -8.855,8.1075 -3.22,0 -6.555,-1.3225 -8.7975,-3.9675 l -3.22,2.645 c 2.99,3.68 7.705,5.2325 12.1325,5.2325 8.165,0 13.7425,-5.175 13.7425,-12.0175 0,-6.1525 -4.37,-9.3725 -9.0275,-9.7175 4.1975,-0.805 7.7625,-4.4275 7.7625,-9.2 0,-5.405 -4.715,-9.9475 -12.1325,-9.9475 z"
         style="fill:#ffffff;fill-opacity:1"
         id="path4237"
         inkscape:connector-curvature="0" />
      <path
         d="m 476.94044,279.78012 c -5.3475,0 -8.9125,1.8975 -12.075,5.6925 l 3.335,2.53 c 2.53,-2.9325 4.6575,-4.1975 8.5675,-4.1975 4.4275,0 7.0725,2.76 7.0725,7.1875 0,6.4975 -3.22,10.81 -18.17,25.1275 l 0,3.91 23.5175,0 0.575,-4.0825 -18.63,0 c 13.0525,-11.9025 17.71,-17.825 17.71,-25.07 0,-6.325 -4.4275,-11.0975 -11.9025,-11.0975 z"
         style="fill:#ffffff;fill-opacity:1"
         id="path4239"
         inkscape:connector-curvature="0" />
      <path
         d="m 525.67798,316.12012 -8.28,0 0,-35.65 -4.1975,0 -11.73,7.245 2.07,3.3925 9.085,-5.4625 0,30.475 -9.775,0 0,3.91 22.8275,0 0,-3.91 z"
         style="fill:#ffffff;fill-opacity:1"
         id="path4241"
         inkscape:connector-curvature="0" />
      <path
         d="m 595.26556,310.37012 0,-3.795 -5.1175,0 0,-11.27 -4.1975,0 -0.4025,11.27 -11.4425,0 10.58,-25.07 -3.9675,-1.725 -11.6725,27.14 0,3.45 16.445,0 0,9.66 4.6575,0 0,-9.66 5.1175,0 z"
         style="fill:#ffffff;fill-opacity:1"
         id="path4243"
         inkscape:connector-curvature="0" />
      <path
         d="m 614.8506,279.78012 c -4.025,0 -7.8775,1.38 -11.2125,4.6 l 2.5875,2.9325 c 2.645,-2.4725 5.0025,-3.68 8.395,-3.68 4.1975,0 7.5325,2.3575 7.5325,6.7275 0,4.7725 -3.7375,6.9575 -7.5325,6.9575 l -2.3575,0 -0.575,3.795 3.335,0 c 4.6575,0 8.2225,1.84 8.2225,7.5325 0,4.945 -3.2775,8.1075 -8.855,8.1075 -3.22,0 -6.555,-1.3225 -8.7975,-3.9675 l -3.22,2.645 c 2.99,3.68 7.705,5.2325 12.1325,5.2325 8.165,0 13.7425,-5.175 13.7425,-12.0175 0,-6.1525 -4.37,-9.3725 -9.0275,-9.7175 4.1975,-0.805 7.7625,-4.4275 7.7625,-9.2 0,-5.405 -4.715,-9.9475 -12.1325,-9.9475 z"
         style="fill:#ffffff;fill-opacity:1"
         id="path4245"
         inkscape:connector-curvature="0" />
      <path
         d="m 649.32814,279.78012 c -5.3475,0 -8.9125,1.8975 -12.075,5.6925 l 3.335,2.53 c 2.53,-2.9325 4.6575,-4.1975 8.5675,-4.1975 4.4275,0 7.0725,2.76 7.0725,7.1875 0,6.4975 -3.22,10.81 -18.17,25.1275 l 0,3.91 23.5175,0 0.575,-4.0825 -18.63,0 c 13.0525,-11.9025 17.71,-17.825 17.71,-25.07 0,-6.325 -4.4275,-11.0975 -11.9025,-11.0975 z"
         style="fill:#ffffff;fill-opacity:1"
         id="path4247"
         inkscape:connector-curvature="0" />
      <path
         d="m 698.06568,316.12012 -8.28,0 0,-35.65 -4.1975,0 -11.73,7.245 2.07,3.3925 9.085,-5.4625 0,30.475 -9.775,0 0,3.91 22.8275,0 0,-3.91 z"
         style="fill:#ffffff;fill-opacity:1"
         id="path4249"
         inkscape:connector-curvature="0" />
    </g>
    <g
       id="text4189">
      <path
         d="m 55.606678,415.42087 6.445313,0 0,-22.2461 -7.011719,1.40625 0,-3.59375 6.972656,-1.40625 3.945313,0 0,25.83985 6.445312,0 0,3.32031 -16.796875,0 0,-3.32031 z"
         style="fill:#ffffff;fill-opacity:0.78431373"
         id="path4269"
         inkscape:connector-curvature="0" />
      <path
         d="m 81.075428,415.42087 6.445313,0 0,-22.2461 -7.011719,1.40625 0,-3.59375 6.972656,-1.40625 3.945313,0 0,25.83985 6.445312,0 0,3.32031 -16.796875,0 0,-3.32031 z"
         style="fill:#ffffff;fill-opacity:0.78431373"
         id="path4271"
         inkscape:connector-curvature="0" />
      <path
         d="m 121.9934,415.42087 13.76953,0 0,3.32031 -18.51563,0 0,-3.32031 q 2.2461,-2.32422 6.11328,-6.23047 3.88672,-3.92578 4.88282,-5.05859 1.89453,-2.12891 2.63672,-3.59375 0.76171,-1.48438 0.76171,-2.91016 0,-2.32422 -1.64062,-3.78906 -1.62109,-1.46485 -4.23828,-1.46485 -1.85547,0 -3.92578,0.64453 -2.05078,0.64454 -4.39453,1.95313 l 0,-3.98438 q 2.38281,-0.95703 4.45312,-1.44531 2.07031,-0.48828 3.78906,-0.48828 4.53125,0 7.22657,2.26563 2.69531,2.26562 2.69531,6.05468 0,1.79688 -0.6836,3.41797 -0.66406,1.60156 -2.4414,3.78906 -0.48828,0.56641 -3.10547,3.28125 -2.61719,2.69532 -7.38281,7.5586 z"
         style="fill:#ffffff;fill-opacity:0.78431373"
         id="path4273"
         inkscape:connector-curvature="0" />
      <path
         d="m 156.01683,403.01852 q 2.83204,0.60547 4.41407,2.51954 1.60156,1.91406 1.60156,4.72656 0,4.3164 -2.96875,6.67969 -2.96875,2.36328 -8.4375,2.36328 -1.83594,0 -3.78906,-0.3711 -1.9336,-0.35156 -4.00391,-1.07422 l 0,-3.80859 q 1.64063,0.95703 3.59375,1.44531 1.95313,0.48828 4.08203,0.48828 3.71094,0 5.64453,-1.46484 1.95313,-1.46484 1.95313,-4.25781 0,-2.57813 -1.81641,-4.02344 -1.79687,-1.46484 -5.01953,-1.46484 l -3.39844,0 0,-3.24219 3.55469,0 q 2.91016,0 4.45313,-1.15234 1.54296,-1.17188 1.54296,-3.35938 0,-2.24609 -1.60156,-3.4375 -1.58203,-1.21094 -4.55078,-1.21094 -1.62109,0 -3.47656,0.35157 -1.85547,0.35156 -4.08203,1.09375 l 0,-3.51563 q 2.24609,-0.625 4.19922,-0.9375 1.97265,-0.3125 3.71093,-0.3125 4.49219,0 7.10938,2.05078 2.61719,2.03125 2.61719,5.50781 0,2.42188 -1.38672,4.10157 -1.38672,1.66015 -3.94532,2.30468 z"
         style="fill:#ffffff;fill-opacity:0.78431373"
         id="path4275"
         inkscape:connector-curvature="0" />
      <path
         d="m 182.3059,389.58102 15.48828,0 0,3.32032 -11.875,0 0,7.14843 q 0.85937,-0.29296 1.71875,-0.42968 0.85937,-0.15625 1.71875,-0.15625 4.88281,0 7.73437,2.67578 2.85157,2.67578 2.85157,7.24609 0,4.70703 -2.92969,7.32422 -2.92969,2.59766 -8.26172,2.59766 -1.83594,0 -3.75,-0.3125 -1.89453,-0.3125 -3.92578,-0.9375 l 0,-3.96485 q 1.75781,0.95703 3.63281,1.42578 1.875,0.46875 3.96484,0.46875 3.37891,0 5.35157,-1.77734 1.97265,-1.77734 1.97265,-4.82422 0,-3.04687 -1.97265,-4.82422 -1.97266,-1.77734 -5.35157,-1.77734 -1.58203,0 -3.16406,0.35156 -1.5625,0.35156 -3.20312,1.09375 l 0,-14.64844 z"
         style="fill:#ffffff;fill-opacity:0.78431373"
         id="path4277"
         inkscape:connector-curvature="0" />
      <path
         d="m 216.17308,404.89352 q -2.8125,0 -4.43359,1.50391 -1.60156,1.50391 -1.60156,4.14063 0,2.63671 1.60156,4.14062 1.62109,1.50391 4.43359,1.50391 2.8125,0 4.4336,-1.50391 1.62109,-1.52344 1.62109,-4.14062 0,-2.63672 -1.62109,-4.14063 -1.60156,-1.50391 -4.4336,-1.50391 z m -3.94531,-1.67968 q -2.53906,-0.625 -3.96484,-2.36328 -1.40625,-1.73829 -1.40625,-4.23829 0,-3.49609 2.48047,-5.52734 2.5,-2.03125 6.83593,-2.03125 4.35547,0 6.83594,2.03125 2.48047,2.03125 2.48047,5.52734 0,2.5 -1.42578,4.23829 -1.40625,1.73828 -3.92578,2.36328 2.85156,0.66406 4.43359,2.59765 1.60156,1.9336 1.60156,4.72657 0,4.23828 -2.59765,6.5039 -2.57813,2.26563 -7.40235,2.26563 -4.82421,0 -7.42187,-2.26563 -2.57813,-2.26562 -2.57813,-6.5039 0,-2.79297 1.60157,-4.72657 1.60156,-1.93359 4.45312,-2.59765 z m -1.44531,-6.23047 q 0,2.26562 1.40625,3.53515 1.42578,1.26954 3.98437,1.26954 2.53907,0 3.96485,-1.26954 1.44531,-1.26953 1.44531,-3.53515 0,-2.26563 -1.44531,-3.53516 -1.42578,-1.26953 -3.96485,-1.26953 -2.55859,0 -3.98437,1.26953 -1.40625,1.26953 -1.40625,3.53516 z"
         style="fill:#ffffff;fill-opacity:0.78431373"
         id="path4279"
         inkscape:connector-curvature="0" />
    </g>
    <g
       id="text4214">
      <path
         d="m 308.83618,414.45312 6.44531,0 0,-22.24609 -7.01171,1.40625 0,-3.59375 6.97265,-1.40625 3.94531,0 0,25.83984 6.44532,0 0,3.32032 -16.79688,0 0,-3.32032 z"
         style="fill:#ffffff;fill-opacity:0.78431373"
         id="path4252"
         inkscape:connector-curvature="0" />
      <path
         d="m 345.57446,402.05078 q 2.83203,0.60547 4.41407,2.51953 1.60156,1.91406 1.60156,4.72656 0,4.31641 -2.96875,6.67969 -2.96875,2.36328 -8.4375,2.36328 -1.83594,0 -3.78906,-0.37109 -1.9336,-0.35156 -4.00391,-1.07422 l 0,-3.80859 q 1.64062,0.95703 3.59375,1.44531 1.95312,0.48828 4.08203,0.48828 3.71094,0 5.64453,-1.46484 1.95313,-1.46485 1.95313,-4.25782 0,-2.57812 -1.81641,-4.02343 -1.79687,-1.46485 -5.01953,-1.46485 l -3.39844,0 0,-3.24218 3.55469,0 q 2.91016,0 4.45312,-1.15235 1.54297,-1.17187 1.54297,-3.35937 0,-2.2461 -1.60156,-3.4375 -1.58203,-1.21094 -4.55078,-1.21094 -1.62109,0 -3.47656,0.35156 -1.85547,0.35156 -4.08203,1.09375 l 0,-3.51562 q 2.24609,-0.625 4.19921,-0.9375 1.97266,-0.3125 3.71094,-0.3125 4.49219,0 7.10938,2.05078 2.61718,2.03125 2.61718,5.50781 0,2.42188 -1.38671,4.10156 -1.38672,1.66016 -3.94532,2.30469 z"
         style="fill:#ffffff;fill-opacity:0.78431373"
         id="path4254"
         inkscape:connector-curvature="0" />
      <path
         d="m 362.48853,414.45312 13.76953,0 0,3.32032 -18.51563,0 0,-3.32032 q 2.2461,-2.32421 6.11328,-6.23046 3.88672,-3.92579 4.88282,-5.0586 1.89453,-2.1289 2.63671,-3.59375 0.76172,-1.48437 0.76172,-2.91015 0,-2.32422 -1.64062,-3.78907 -1.6211,-1.46484 -4.23828,-1.46484 -1.85547,0 -3.92578,0.64453 -2.05079,0.64453 -4.39454,1.95313 l 0,-3.98438 q 2.38282,-0.95703 4.45313,-1.44531 2.07031,-0.48828 3.78906,-0.48828 4.53125,0 7.22656,2.26562 2.69532,2.26563 2.69532,6.05469 0,1.79687 -0.6836,3.41797 -0.66406,1.60156 -2.4414,3.78906 -0.48828,0.56641 -3.10547,3.28125 -2.61719,2.69531 -7.38281,7.55859 z"
         style="fill:#ffffff;fill-opacity:0.78431373"
         id="path4256"
         inkscape:connector-curvature="0" />
      <path
         d="m 385.24243,414.45312 6.44531,0 0,-22.24609 -7.01171,1.40625 0,-3.59375 6.97265,-1.40625 3.94531,0 0,25.83984 6.44532,0 0,3.32032 -16.79688,0 0,-3.32032 z"
         style="fill:#ffffff;fill-opacity:0.78431373"
         id="path4258"
         inkscape:connector-curvature="0" />
      <path
         d="m 434.71509,402.05078 q 2.83203,0.60547 4.41406,2.51953 1.60156,1.91406 1.60156,4.72656 0,4.31641 -2.96875,6.67969 -2.96875,2.36328 -8.4375,2.36328 -1.83593,0 -3.78906,-0.37109 -1.93359,-0.35156 -4.00391,-1.07422 l 0,-3.80859 q 1.64063,0.95703 3.59375,1.44531 1.95313,0.48828 4.08204,0.48828 3.71093,0 5.64453,-1.46484 1.95312,-1.46485 1.95312,-4.25782 0,-2.57812 -1.8164,-4.02343 -1.79688,-1.46485 -5.01954,-1.46485 l -3.39843,0 0,-3.24218 3.55468,0 q 2.91016,0 4.45313,-1.15235 1.54297,-1.17187 1.54297,-3.35937 0,-2.2461 -1.60156,-3.4375 -1.58204,-1.21094 -4.55079,-1.21094 -1.62109,0 -3.47656,0.35156 -1.85547,0.35156 -4.08203,1.09375 l 0,-3.51562 q 2.24609,-0.625 4.19922,-0.9375 1.97266,-0.3125 3.71094,-0.3125 4.49218,0 7.10937,2.05078 2.61719,2.03125 2.61719,5.50781 0,2.42188 -1.38672,4.10156 -1.38672,1.66016 -3.94531,2.30469 z"
         style="fill:#ffffff;fill-opacity:0.78431373"
         id="path4260"
         inkscape:connector-curvature="0" />
      <path
         d="m 459.07056,392.05078 -9.96094,15.56641 9.96094,0 0,-15.56641 z m -1.03516,-3.4375 4.96094,0 0,19.00391 4.16015,0 0,3.28125 -4.16015,0 0,6.875 -3.92578,0 0,-6.875 -13.16407,0 0,-3.8086 12.12891,-18.47656 z"
         style="fill:#ffffff;fill-opacity:0.78431373"
         id="path4262"
         inkscape:connector-curvature="0" />
      <path
         d="m 473.73853,388.61328 15.48828,0 0,3.32031 -11.875,0 0,7.14844 q 0.85937,-0.29297 1.71875,-0.42969 0.85937,-0.15625 1.71875,-0.15625 4.88281,0 7.73437,2.67578 2.85156,2.67579 2.85156,7.2461 0,4.70703 -2.92968,7.32422 -2.92969,2.59765 -8.26172,2.59765 -1.83594,0 -3.75,-0.3125 -1.89453,-0.3125 -3.92578,-0.9375 l 0,-3.96484 q 1.75781,0.95703 3.63281,1.42578 1.875,0.46875 3.96484,0.46875 3.37891,0 5.35157,-1.77734 1.97265,-1.77735 1.97265,-4.82422 0,-3.04688 -1.97265,-4.82422 -1.97266,-1.77734 -5.35157,-1.77734 -1.58203,0 -3.16406,0.35156 -1.5625,0.35156 -3.20312,1.09375 l 0,-14.64844 z"
         style="fill:#ffffff;fill-opacity:0.78431373"
         id="path4264"
         inkscape:connector-curvature="0" />
      <path
         d="m 499.20728,388.61328 15.48828,0 0,3.32031 -11.875,0 0,7.14844 q 0.85937,-0.29297 1.71875,-0.42969 0.85937,-0.15625 1.71875,-0.15625 4.88281,0 7.73437,2.67578 2.85156,2.67579 2.85156,7.2461 0,4.70703 -2.92968,7.32422 -2.92969,2.59765 -8.26172,2.59765 -1.83594,0 -3.75,-0.3125 -1.89453,-0.3125 -3.92578,-0.9375 l 0,-3.96484 q 1.75781,0.95703 3.63281,1.42578 1.875,0.46875 3.96484,0.46875 3.37891,0 5.35157,-1.77734 1.97265,-1.77735 1.97265,-4.82422 0,-3.04688 -1.97265,-4.82422 -1.97266,-1.77734 -5.35157,-1.77734 -1.58203,0 -3.16406,0.35156 -1.5625,0.35156 -3.20312,1.09375 l 0,-14.64844 z"
         style="fill:#ffffff;fill-opacity:0.78431373"
         id="path4266"
         inkscape:connector-curvature="0" />
    </g>
  </g>
</svg>
