<svg width="750" height="471" viewBox="0 0 750 471" version="1.1" xmlns="http://www.w3.org/2000/svg" xmlns:xlink="http://www.w3.org/1999/xlink">
    <!-- Generator: Sketch 48.2 (47327) - http://www.bohemiancoding.com/sketch -->
    <desc>Created with Sketch.</desc>
    <defs></defs>
    <g id="Page-1" stroke="none" stroke-width="1" fill="none" fill-rule="evenodd">
        <g id="default" fill-rule="nonzero">
            <rect id="Rectangle-1" fill="#000C9D" x="0" y="0" width="750" height="471" rx="40"></rect>
            <rect id="rect4183" fill="#9D9400" x="48.710224" y="153.57616" width="110.32414" height="99.678818" rx="20.322868"></rect>
            <g id="text4185" transform="translate(51.000000, 279.000000)" fill="#FFFFFF">
                <polygon id="path4219" points="27.102474 31.37012 27.102474 27.57512 21.984974 27.57512 21.984974 16.30512 17.787474 16.30512 17.384974 27.57512 5.942474 27.57512 16.522474 2.50512 12.554974 0.78012 0.882474 27.92012 0.882474 31.37012 17.327474 31.37012 17.327474 41.03012 21.984974 41.03012 21.984974 31.37012 27.102474 31.37012"></polygon>
                <path d="M46.687513,0.78012 C42.662513,0.78012 38.810013,2.16012 35.475013,5.38012 L38.062513,8.31262 C40.707513,5.84012 43.065013,4.63262 46.457513,4.63262 C50.65501,4.63262 53.99001,6.99012 53.99001,11.36012 C53.99001,16.13262 50.25251,18.31762 46.457513,18.31762 L44.100013,18.31762 L43.525013,22.11262 L46.860013,22.11262 C51.51751,22.11262 55.08251,23.95262 55.08251,29.64512 C55.08251,34.59012 51.80501,37.75262 46.227513,37.75262 C43.007513,37.75262 39.672513,36.43012 37.430013,33.78512 L34.210013,36.43012 C37.200013,40.11012 41.915013,41.66262 46.342513,41.66262 C54.50751,41.66262 60.08501,36.48762 60.08501,29.64512 C60.08501,23.49262 55.71501,20.27262 51.05751,19.92762 C55.25501,19.12262 58.82001,15.50012 58.82001,10.72762 C58.82001,5.32262 54.10501,0.78012 46.687513,0.78012 Z" id="path4221"></path>
                <path d="M81.16505,0.78012 C75.81755,0.78012 72.25255,2.67762 69.09005,6.47262 L72.42505,9.00262 C74.95505,6.07012 77.08255,4.80512 80.99255,4.80512 C85.42005,4.80512 88.06505,7.56512 88.06505,11.99262 C88.06505,18.49012 84.84505,22.80262 69.89505,37.12012 L69.89505,41.03012 L93.41255,41.03012 L93.98755,36.94762 L75.35755,36.94762 C88.41005,25.04512 93.06755,19.12262 93.06755,11.87762 C93.06755,5.55262 88.64005,0.78012 81.16505,0.78012 Z" id="path4223"></path>
                <polygon id="path4225" points="129.90259 37.12012 121.62259 37.12012 121.62259 1.47012 117.42509 1.47012 105.69509 8.71512 107.76509 12.10762 116.85009 6.64512 116.85009 37.12012 107.07509 37.12012 107.07509 41.03012 129.90259 41.03012 129.90259 37.12012"></polygon>
                <polygon id="path4227" points="199.49017 31.37012 199.49017 27.57512 194.37267 27.57512 194.37267 16.30512 190.17517 16.30512 189.77267 27.57512 178.33017 27.57512 188.91017 2.50512 184.94267 0.78012 173.27017 27.92012 173.27017 31.37012 189.71517 31.37012 189.71517 41.03012 194.37267 41.03012 194.37267 31.37012 199.49017 31.37012"></polygon>
                <path d="M219.07521,0.78012 C215.05021,0.78012 211.19771,2.16012 207.86271,5.38012 L210.45021,8.31262 C213.09521,5.84012 215.45271,4.63262 218.84521,4.63262 C223.04271,4.63262 226.37771,6.99012 226.37771,11.36012 C226.37771,16.13262 222.64021,18.31762 218.84521,18.31762 L216.48771,18.31762 L215.91271,22.11262 L219.24771,22.11262 C223.90521,22.11262 227.47021,23.95262 227.47021,29.64512 C227.47021,34.59012 224.19271,37.75262 218.61521,37.75262 C215.39521,37.75262 212.06021,36.43012 209.81771,33.78512 L206.59771,36.43012 C209.58771,40.11012 214.30271,41.66262 218.73021,41.66262 C226.89521,41.66262 232.47271,36.48762 232.47271,29.64512 C232.47271,23.49262 228.10271,20.27262 223.44521,19.92762 C227.64271,19.12262 231.20771,15.50012 231.20771,10.72762 C231.20771,5.32262 226.49271,0.78012 219.07521,0.78012 Z" id="path4229"></path>
                <path d="M253.55275,0.78012 C248.20525,0.78012 244.64025,2.67762 241.47775,6.47262 L244.81275,9.00262 C247.34275,6.07012 249.47025,4.80512 253.38025,4.80512 C257.80775,4.80512 260.45275,7.56512 260.45275,11.99262 C260.45275,18.49012 257.23275,22.80262 242.28275,37.12012 L242.28275,41.03012 L265.80025,41.03012 L266.37525,36.94762 L247.74525,36.94762 C260.79775,25.04512 265.45525,19.12262 265.45525,11.87762 C265.45525,5.55262 261.02775,0.78012 253.55275,0.78012 Z" id="path4231"></path>
                <polygon id="path4233" points="302.29029 37.12012 294.01029 37.12012 294.01029 1.47012 289.81279 1.47012 278.08279 8.71512 280.15279 12.10762 289.23779 6.64512 289.23779 37.12012 279.46279 37.12012 279.46279 41.03012 302.29029 41.03012 302.29029 37.12012"></polygon>
                <polygon id="path4235" points="371.87786 31.37012 371.87786 27.57512 366.76036 27.57512 366.76036 16.30512 362.56286 16.30512 362.16036 27.57512 350.71786 27.57512 361.29786 2.50512 357.33036 0.78012 345.65786 27.92012 345.65786 31.37012 362.10286 31.37012 362.10286 41.03012 366.76036 41.03012 366.76036 31.37012 371.87786 31.37012"></polygon>
                <path d="M391.4629,0.78012 C387.4379,0.78012 383.5854,2.16012 380.2504,5.38012 L382.8379,8.31262 C385.4829,5.84012 387.8404,4.63262 391.2329,4.63262 C395.4304,4.63262 398.7654,6.99012 398.7654,11.36012 C398.7654,16.13262 395.0279,18.31762 391.2329,18.31762 L388.8754,18.31762 L388.3004,22.11262 L391.6354,22.11262 C396.2929,22.11262 399.8579,23.95262 399.8579,29.64512 C399.8579,34.59012 396.5804,37.75262 391.0029,37.75262 C387.7829,37.75262 384.4479,36.43012 382.2054,33.78512 L378.9854,36.43012 C381.9754,40.11012 386.6904,41.66262 391.1179,41.66262 C399.2829,41.66262 404.8604,36.48762 404.8604,29.64512 C404.8604,23.49262 400.4904,20.27262 395.8329,19.92762 C400.0304,19.12262 403.5954,15.50012 403.5954,10.72762 C403.5954,5.32262 398.8804,0.78012 391.4629,0.78012 Z" id="path4237"></path>
                <path d="M425.94044,0.78012 C420.59294,0.78012 417.02794,2.67762 413.86544,6.47262 L417.20044,9.00262 C419.73044,6.07012 421.85794,4.80512 425.76794,4.80512 C430.19544,4.80512 432.84044,7.56512 432.84044,11.99262 C432.84044,18.49012 429.62044,22.80262 414.67044,37.12012 L414.67044,41.03012 L438.18794,41.03012 L438.76294,36.94762 L420.13294,36.94762 C433.18544,25.04512 437.84294,19.12262 437.84294,11.87762 C437.84294,5.55262 433.41544,0.78012 425.94044,0.78012 Z" id="path4239"></path>
                <polygon id="path4241" points="474.67798 37.12012 466.39798 37.12012 466.39798 1.47012 462.20048 1.47012 450.47048 8.71512 452.54048 12.10762 461.62548 6.64512 461.62548 37.12012 451.85048 37.12012 451.85048 41.03012 474.67798 41.03012 474.67798 37.12012"></polygon>
                <polygon id="path4243" points="544.26556 31.37012 544.26556 27.57512 539.14806 27.57512 539.14806 16.30512 534.95056 16.30512 534.54806 27.57512 523.10556 27.57512 533.68556 2.50512 529.71806 0.78012 518.04556 27.92012 518.04556 31.37012 534.49056 31.37012 534.49056 41.03012 539.14806 41.03012 539.14806 31.37012 544.26556 31.37012"></polygon>
                <path d="M563.8506,0.78012 C559.8256,0.78012 555.9731,2.16012 552.6381,5.38012 L555.2256,8.31262 C557.8706,5.84012 560.2281,4.63262 563.6206,4.63262 C567.8181,4.63262 571.1531,6.99012 571.1531,11.36012 C571.1531,16.13262 567.4156,18.31762 563.6206,18.31762 L561.2631,18.31762 L560.6881,22.11262 L564.0231,22.11262 C568.6806,22.11262 572.2456,23.95262 572.2456,29.64512 C572.2456,34.59012 568.9681,37.75262 563.3906,37.75262 C560.1706,37.75262 556.8356,36.43012 554.5931,33.78512 L551.3731,36.43012 C554.3631,40.11012 559.0781,41.66262 563.5056,41.66262 C571.6706,41.66262 577.2481,36.48762 577.2481,29.64512 C577.2481,23.49262 572.8781,20.27262 568.2206,19.92762 C572.4181,19.12262 575.9831,15.50012 575.9831,10.72762 C575.9831,5.32262 571.2681,0.78012 563.8506,0.78012 Z" id="path4245"></path>
                <path d="M598.32814,0.78012 C592.98064,0.78012 589.41564,2.67762 586.25314,6.47262 L589.58814,9.00262 C592.11814,6.07012 594.24564,4.80512 598.15564,4.80512 C602.58314,4.80512 605.22814,7.56512 605.22814,11.99262 C605.22814,18.49012 602.00814,22.80262 587.05814,37.12012 L587.05814,41.03012 L610.57564,41.03012 L611.15064,36.94762 L592.52064,36.94762 C605.57314,25.04512 610.23064,19.12262 610.23064,11.87762 C610.23064,5.55262 605.80314,0.78012 598.32814,0.78012 Z" id="path4247"></path>
                <polygon id="path4249" points="647.06568 37.12012 638.78568 37.12012 638.78568 1.47012 634.58818 1.47012 622.85818 8.71512 624.92818 12.10762 634.01318 6.64512 634.01318 37.12012 624.23818 37.12012 624.23818 41.03012 647.06568 41.03012 647.06568 37.12012"></polygon>
            </g>
            <g id="text4189" transform="translate(55.000000, 389.000000)" fill="#FFFFFF" fill-opacity="0.78431373">
                <polygon id="path4269" points="0.606678 26.42087 7.051991 26.42087 7.051991 4.17477 0.040272 5.58102 0.040272 1.98727 7.012928 0.58102 10.958241 0.58102 10.958241 26.42087 17.403553 26.42087 17.403553 29.74118 0.606678 29.74118"></polygon>
                <polygon id="path4271" points="26.075428 26.42087 32.520741 26.42087 32.520741 4.17477 25.509022 5.58102 25.509022 1.98727 32.481678 0.58102 36.426991 0.58102 36.426991 26.42087 42.872303 26.42087 42.872303 29.74118 26.075428 29.74118"></polygon>
                <path d="M66.9934,26.42087 L80.76293,26.42087 L80.76293,29.74118 L62.2473,29.74118 L62.2473,26.42087 C63.7447,24.87139 65.78246,22.7945667 68.36058,20.1904 C70.9517267,17.5732133 72.5793333,15.8870167 73.2434,15.13181 C74.50642,13.7125367 75.3853267,12.51462 75.88012,11.53806 C76.3879267,10.5484733 76.64183,9.57842 76.64183,8.6279 C76.64183,7.07842 76.0949567,5.8154 75.00121,4.83884 C73.9204833,3.86227333 72.5077233,3.37399 70.76293,3.37399 C69.52595,3.37399 68.2173567,3.58883333 66.83715,4.01852 C65.4699633,4.44821333 64.00512,5.09925667 62.44262,5.97165 L62.44262,1.98727 C64.03116,1.34925 65.5155333,0.86748 66.89574,0.54196 C68.2759467,0.21644 69.5389667,0.05368 70.6848,0.05368 C73.7056333,0.05368 76.11449,0.80889 77.91137,2.31931 C79.7082433,3.82972333 80.60668,5.84795 80.60668,8.37399 C80.60668,9.57191 80.3788133,10.7112333 79.92308,11.79196 C79.4803733,12.8596667 78.6665733,14.1226867 77.48168,15.58102 C77.15616,15.9586267 76.1210033,17.0523767 74.37621,18.86227 C72.6314167,20.65915 70.17048,23.1786833 66.9934,26.42087 Z" id="path4273"></path>
                <path d="M101.01683,14.01852 C102.904857,14.4221667 104.376213,15.2620133 105.4309,16.53806 C106.498607,17.8141 107.03246,19.38962 107.03246,21.26462 C107.03246,24.14222 106.042877,26.3687833 104.06371,27.94431 C102.084543,29.51983 99.2720433,30.30759 95.62621,30.30759 C94.40225,30.30759 93.13923,30.18389 91.83715,29.93649 C90.5480833,29.7021167 89.2134467,29.3440433 87.83324,28.86227 L87.83324,25.05368 C88.9269933,25.6917 90.12491,26.17347 91.42699,26.49899 C92.7290767,26.82451 94.0897533,26.98727 95.50902,26.98727 C97.98298,26.98727 99.86449,26.49899 101.15355,25.52243 C102.455637,24.54587 103.10668,23.1266 103.10668,21.26462 C103.10668,19.5458667 102.50121,18.20472 101.29027,17.24118 C100.092357,16.26462 98.41918,15.77634 96.27074,15.77634 L92.8723,15.77634 L92.8723,12.53415 L96.42699,12.53415 C98.3670967,12.53415 99.8514733,12.1500367 100.88012,11.38181 C101.90876,10.6005567 102.42308,9.48076333 102.42308,8.02243 C102.42308,6.52503667 101.889227,5.37920333 100.82152,4.58493 C99.7668333,3.77763667 98.2499067,3.37399 96.27074,3.37399 C95.1900133,3.37399 94.03116,3.49118 92.79418,3.72556 C91.5572,3.95993333 90.1965233,4.32451667 88.71215,4.81931 L88.71215,1.30368 C90.2095433,0.887013333 91.6092833,0.574513333 92.91137,0.36618 C94.22647,0.157846667 95.4634467,0.05368 96.6223,0.05368 C99.6170933,0.05368 101.986887,0.737273333 103.73168,2.10446 C105.476473,3.45862667 106.34887,5.29456333 106.34887,7.61227 C106.34887,9.22685667 105.88663,10.5940467 104.96215,11.71384 C104.03767,12.8206067 102.722563,13.5888333 101.01683,14.01852 Z" id="path4275"></path>
                <path d="M127.3059,0.58102 L142.79418,0.58102 L142.79418,3.90134 L130.91918,3.90134 L130.91918,11.04977 C131.492093,10.8544633 132.06501,10.7112367 132.63793,10.62009 C133.210843,10.5159233 133.78376,10.46384 134.35668,10.46384 C137.611887,10.46384 140.19001,11.3557667 142.09105,13.13962 C143.992097,14.9234733 144.94262,17.3388367 144.94262,20.38571 C144.94262,23.52373 143.966057,25.9651367 142.01293,27.70993 C140.059803,29.4417033 137.305897,30.30759 133.75121,30.30759 C132.52725,30.30759 131.27725,30.2034233 130.00121,29.99509 C128.73819,29.7867567 127.429597,29.4742567 126.07543,29.05759 L126.07543,25.09274 C127.247303,25.73076 128.45824,26.20602 129.70824,26.51852 C130.95824,26.83102 132.279853,26.98727 133.67308,26.98727 C135.925687,26.98727 137.709543,26.3948233 139.02465,25.20993 C140.33975,24.0250367 140.9973,22.4169633 140.9973,20.38571 C140.9973,18.3544633 140.33975,16.74639 139.02465,15.56149 C137.709543,14.3765967 135.925687,13.78415 133.67308,13.78415 C132.618393,13.78415 131.563707,13.9013367 130.50902,14.13571 C129.467353,14.3700833 128.399647,14.7346667 127.3059,15.22946 L127.3059,0.58102 Z" id="path4277"></path>
                <path d="M161.17308,15.89352 C159.29808,15.89352 157.820217,16.3948233 156.73949,17.39743 C155.671783,18.4000367 155.13793,19.7802467 155.13793,21.53806 C155.13793,23.2958667 155.671783,24.6760733 156.73949,25.67868 C157.820217,26.6812867 159.29808,27.18259 161.17308,27.18259 C163.04808,27.18259 164.525947,26.6812867 165.60668,25.67868 C166.687407,24.6630533 167.22777,23.2828467 167.22777,21.53806 C167.22777,19.7802467 166.687407,18.4000367 165.60668,17.39743 C164.538973,16.3948233 163.061107,15.89352 161.17308,15.89352 Z M157.22777,14.21384 C155.535063,13.7971733 154.21345,13.0094133 153.26293,11.85056 C152.32543,10.6917 151.85668,9.27893667 151.85668,7.61227 C151.85668,5.28154333 152.683503,3.43909667 154.33715,2.08493 C156.003817,0.730763333 158.28246,0.05368 161.17308,0.05368 C164.076727,0.05368 166.355373,0.730763333 168.00902,2.08493 C169.662667,3.43909667 170.48949,5.28154333 170.48949,7.61227 C170.48949,9.27893667 170.01423,10.6917 169.06371,11.85056 C168.12621,13.0094133 166.817617,13.7971733 165.13793,14.21384 C167.03897,14.6565467 168.516833,15.52243 169.57152,16.81149 C170.639227,18.1005567 171.17308,19.67608 171.17308,21.53806 C171.17308,24.36358 170.307197,26.5315467 168.57543,28.04196 C166.856677,29.55238 164.389227,30.30759 161.17308,30.30759 C157.95694,30.30759 155.482983,29.55238 153.75121,28.04196 C152.032457,26.5315467 151.17308,24.36358 151.17308,21.53806 C151.17308,19.67608 151.706937,18.1005567 152.77465,16.81149 C153.842357,15.52243 155.32673,14.6565467 157.22777,14.21384 Z M155.78246,7.98337 C155.78246,9.49378333 156.25121,10.6721667 157.18871,11.51852 C158.13923,12.36488 159.467353,12.78806 161.17308,12.78806 C162.865793,12.78806 164.18741,12.36488 165.13793,11.51852 C166.10147,10.6721667 166.58324,9.49378333 166.58324,7.98337 C166.58324,6.47295 166.10147,5.29456333 165.13793,4.44821 C164.18741,3.60185667 162.865793,3.17868 161.17308,3.17868 C159.467353,3.17868 158.13923,3.60185667 157.18871,4.44821 C156.25121,5.29456333 155.78246,6.47295 155.78246,7.98337 Z" id="path4279"></path>
            </g>
            <g id="text4214" transform="translate(308.000000, 388.000000)" fill="#FFFFFF" fill-opacity="0.78431373">
                <polygon id="path4252" points="0.83618 26.45312 7.28149 26.45312 7.28149 4.20703 0.26978 5.61328 0.26978 2.01953 7.24243 0.61328 11.18774 0.61328 11.18774 26.45312 17.63306 26.45312 17.63306 29.77344 0.83618 29.77344"></polygon>
                <path d="M37.57446,14.05078 C39.46248,14.4544267 40.9338367,15.29427 41.98853,16.57031 C43.0562367,17.84635 43.59009,19.42187 43.59009,21.29687 C43.59009,24.1744767 42.6005067,26.40104 40.62134,27.97656 C38.6421733,29.55208 35.8296733,30.33984 32.18384,30.33984 C30.95988,30.33984 29.69686,30.2161433 28.39478,29.96875 C27.1057133,29.7343767 25.7710767,29.3763033 24.39087,28.89453 L24.39087,25.08594 C25.4846167,25.72396 26.6825333,26.20573 27.98462,26.53125 C29.2867,26.85677 30.6473767,27.01953 32.06665,27.01953 C34.54061,27.01953 36.42212,26.53125 37.71118,25.55469 C39.0132667,24.5781233 39.66431,23.15885 39.66431,21.29687 C39.66431,19.5781233 39.05884,18.23698 37.8479,17.27344 C36.6499867,16.2968733 34.97681,15.80859 32.82837,15.80859 L29.42993,15.80859 L29.42993,12.56641 L32.98462,12.56641 C34.9247267,12.56641 36.4091,12.1822933 37.43774,11.41406 C38.4663867,10.6328133 38.98071,9.51302333 38.98071,8.05469 C38.98071,6.55729 38.4468567,5.41145667 37.37915,4.61719 C36.3244633,3.80989667 34.8075367,3.40625 32.82837,3.40625 C31.7476433,3.40625 30.58879,3.52343667 29.35181,3.75781 C28.11483,3.99218333 26.7541533,4.35676667 25.26978,4.85156 L25.26978,1.33594 C26.7671733,0.919273333 28.16691,0.606773333 29.46899,0.39844 C30.7840967,0.190106667 32.0210767,0.08594 33.17993,0.08594 C36.1747233,0.08594 38.5445167,0.769533333 40.28931,2.13672 C42.0340967,3.49088667 42.90649,5.32682333 42.90649,7.64453 C42.90649,9.25911667 42.4442533,10.6263033 41.51978,11.74609 C40.5953,12.8528633 39.2801933,13.6210933 37.57446,14.05078 Z" id="path4254"></path>
                <path d="M54.48853,26.45312 L68.25806,26.45312 L68.25806,29.77344 L49.74243,29.77344 L49.74243,26.45312 C51.23983,24.9036467 53.27759,22.8268267 55.85571,20.22266 C58.4468567,17.6054667 60.0744633,15.9192667 60.73853,15.16406 C62.00155,13.7447933 62.8804533,12.5468767 63.37524,11.57031 C63.8830533,10.58073 64.13696,9.61068 64.13696,8.66016 C64.13696,7.11068 63.5900867,5.84765667 62.49634,4.87109 C61.4156067,3.89453 60.0028467,3.40625 58.25806,3.40625 C57.02108,3.40625 55.7124867,3.62109333 54.33228,4.05078 C52.9650867,4.48046667 51.50024,5.13151 49.93774,6.00391 L49.93774,2.01953 C51.5262867,1.38151 53.0106633,0.89974 54.39087,0.57422 C55.7710767,0.2487 57.0340967,0.08594 58.17993,0.08594 C61.2007633,0.08594 63.6096167,0.841146667 65.40649,2.35156 C67.20337,3.86198 68.10181,5.88021 68.10181,8.40625 C68.10181,9.60416333 67.8739433,10.7434867 67.41821,11.82422 C66.9755033,12.8919267 66.1617033,14.1549467 64.97681,15.61328 C64.65129,15.9908867 63.6161333,17.0846367 61.87134,18.89453 C60.1265467,20.6914033 57.66561,23.2109333 54.48853,26.45312 Z" id="path4256"></path>
                <polygon id="path4258" points="77.24243 26.45312 83.68774 26.45312 83.68774 4.20703 76.67603 5.61328 76.67603 2.01953 83.64868 0.61328 87.59399 0.61328 87.59399 26.45312 94.03931 26.45312 94.03931 29.77344 77.24243 29.77344"></polygon>
                <path d="M126.71509,14.05078 C128.60311,14.4544267 130.074463,15.29427 131.12915,16.57031 C132.196857,17.84635 132.73071,19.42187 132.73071,21.29687 C132.73071,24.1744767 131.741127,26.40104 129.76196,27.97656 C127.782793,29.55208 124.970293,30.33984 121.32446,30.33984 C120.100507,30.33984 118.837487,30.2161433 117.5354,29.96875 C116.24634,29.7343767 114.911703,29.3763033 113.53149,28.89453 L113.53149,25.08594 C114.625243,25.72396 115.82316,26.20573 117.12524,26.53125 C118.427327,26.85677 119.788007,27.01953 121.20728,27.01953 C123.681233,27.01953 125.562743,26.53125 126.85181,25.55469 C128.15389,24.5781233 128.80493,23.15885 128.80493,21.29687 C128.80493,19.5781233 128.199463,18.23698 126.98853,17.27344 C125.79061,16.2968733 124.11743,15.80859 121.96899,15.80859 L118.57056,15.80859 L118.57056,12.56641 L122.12524,12.56641 C124.065347,12.56641 125.549723,12.1822933 126.57837,11.41406 C127.607017,10.6328133 128.12134,9.51302333 128.12134,8.05469 C128.12134,6.55729 127.587487,5.41145667 126.51978,4.61719 C125.465087,3.80989667 123.948157,3.40625 121.96899,3.40625 C120.888263,3.40625 119.72941,3.52343667 118.49243,3.75781 C117.25545,3.99218333 115.894773,4.35676667 114.4104,4.85156 L114.4104,1.33594 C115.907793,0.919273333 117.307533,0.606773333 118.60962,0.39844 C119.924727,0.190106667 121.161707,0.08594 122.32056,0.08594 C125.315347,0.08594 127.685137,0.769533333 129.42993,2.13672 C131.174723,3.49088667 132.04712,5.32682333 132.04712,7.64453 C132.04712,9.25911667 131.58488,10.6263033 130.6604,11.74609 C129.73592,12.8528633 128.420817,13.6210933 126.71509,14.05078 Z" id="path4260"></path>
                <path d="M151.07056,4.05078 L141.10962,19.61719 L151.07056,19.61719 L151.07056,4.05078 Z M150.0354,0.61328 L154.99634,0.61328 L154.99634,19.61719 L159.15649,19.61719 L159.15649,22.89844 L154.99634,22.89844 L154.99634,29.77344 L151.07056,29.77344 L151.07056,22.89844 L137.90649,22.89844 L137.90649,19.08984 L150.0354,0.61328 Z" id="path4262"></path>
                <path d="M165.73853,0.61328 L181.22681,0.61328 L181.22681,3.93359 L169.35181,3.93359 L169.35181,11.08203 C169.924723,10.8867167 170.49764,10.7434867 171.07056,10.65234 C171.643473,10.5481733 172.21639,10.49609 172.78931,10.49609 C176.044517,10.49609 178.62264,11.3880167 180.52368,13.17187 C182.42472,14.95573 183.37524,17.3710967 183.37524,20.41797 C183.37524,23.55599 182.39868,25.9973967 180.44556,27.74219 C178.492433,29.4739567 175.738527,30.33984 172.18384,30.33984 C170.95988,30.33984 169.70988,30.2356733 168.43384,30.02734 C167.17082,29.8190067 165.862227,29.5065067 164.50806,29.08984 L164.50806,25.125 C165.679933,25.76302 166.89087,26.23828 168.14087,26.55078 C169.39087,26.86328 170.712483,27.01953 172.10571,27.01953 C174.358317,27.01953 176.142173,26.4270833 177.45728,25.24219 C178.77238,24.05729 179.42993,22.4492167 179.42993,20.41797 C179.42993,18.3867167 178.77238,16.7786433 177.45728,15.59375 C176.142173,14.4088567 174.358317,13.81641 172.10571,13.81641 C171.051023,13.81641 169.996337,13.9335967 168.94165,14.16797 C167.899983,14.4023433 166.832277,14.7669267 165.73853,15.26172 L165.73853,0.61328 Z" id="path4264"></path>
                <path d="M191.20728,0.61328 L206.69556,0.61328 L206.69556,3.93359 L194.82056,3.93359 L194.82056,11.08203 C195.393473,10.8867167 195.96639,10.7434867 196.53931,10.65234 C197.112223,10.5481733 197.68514,10.49609 198.25806,10.49609 C201.513267,10.49609 204.09139,11.3880167 205.99243,13.17187 C207.89347,14.95573 208.84399,17.3710967 208.84399,20.41797 C208.84399,23.55599 207.86743,25.9973967 205.91431,27.74219 C203.961183,29.4739567 201.207277,30.33984 197.65259,30.33984 C196.42863,30.33984 195.17863,30.2356733 193.90259,30.02734 C192.63957,29.8190067 191.330977,29.5065067 189.97681,29.08984 L189.97681,25.125 C191.148683,25.76302 192.35962,26.23828 193.60962,26.55078 C194.85962,26.86328 196.181233,27.01953 197.57446,27.01953 C199.827067,27.01953 201.610923,26.4270833 202.92603,25.24219 C204.24113,24.05729 204.89868,22.4492167 204.89868,20.41797 C204.89868,18.3867167 204.24113,16.7786433 202.92603,15.59375 C201.610923,14.4088567 199.827067,13.81641 197.57446,13.81641 C196.519773,13.81641 195.465087,13.9335967 194.4104,14.16797 C193.368733,14.4023433 192.301027,14.7669267 191.20728,15.26172 L191.20728,0.61328 Z" id="path4266"></path>
            </g>
        </g>
    </g>
</svg>
