<svg height="471" viewBox="0 0 750 471" width="750" xmlns="http://www.w3.org/2000/svg"><g fill="none"><rect fill="#0079be" height="471" rx="40" width="750"/><path d="m584.933911 237.947339c0-99.415799-82.980935-168.1332584-173.894987-168.1001926h-78.242184c-92.003041-.0330658-167.730651 68.7048946-167.730651 168.1001926 0 90.930439 75.72761 165.640093 167.730651 165.203624h78.242184c90.914052.435808 173.894987-74.293024 173.894987-165.203624z" fill="#fff"/><path d="m333.280302 83.9308394c-84.069924.0264527-152.194413 68.3074426-152.214213 152.5797416.0198 84.25775 68.14363 152.532127 152.214213 152.55858 84.089723-.026453 152.228073-68.30083 152.239952-152.55858-.012539-84.272299-68.150229-152.5532889-152.239952-152.5797416z" fill="#0079be"/><path d="m237.066089 236.09774c.079199-41.180216 25.746332-76.296153 61.940354-90.250606v180.480049c-36.194022-13.946516-61.861815-49.043276-61.940354-90.229443zm131 90.275074v-180.52568c36.207223 13.920725 61.913954 49.056503 61.979954 90.256558-.066 41.21262-25.772731 76.321944-61.979954 90.269122z" fill="#fff"/></g></svg>