<svg height="471" viewBox="0 0 750 471" width="750" xmlns="http://www.w3.org/2000/svg"><g fill="none"><path d="m52.8771038 0c-29.1977144 0-52.8771038 23.1545612-52.8771038 51.7102589v367.5794781c0 28.561092 23.671801 51.710263 52.8771038 51.710263h644.2457902c29.197721 0 52.877106-23.154567 52.877106-51.710263v-166.814333-200.7651451c0-28.5610912-23.671798-51.7102589-52.877106-51.7102589z" fill="#4d4d4d"/><path d="m314.569558 152.198414c8.496692 0 15.623019 1.732486 24.29575 5.91184v22.086944c-8.215039-7.633649-15.341433-10.828272-24.76525-10.828272-18.522943 0-33.090443 14.575613-33.090443 33.055512 0 19.487559 14.116664 33.195816 34.008789 33.195816 8.954394 0 15.948731-3.029126 23.846904-10.540068v22.098311c-8.98177 4.019468-16.260731 5.606582-24.76525 5.606582-30.074856 0-53.44426-21.935378-53.44426-50.224132 0-27.983844 23.991471-50.362533 53.91376-50.362533zm-93.378154.608624c11.101644 0 21.260058 3.611764 29.753231 10.672793l-10.334654 12.860824c-5.144962-5.48076-10.010587-7.79271-15.927366-7.79271-8.51273-.000009-14.712288 4.60629-14.712288 10.667104 0 5.198169 3.480471 7.949373 15.332029 12.117572 22.466173 7.808407 29.124106 14.732247 29.124106 30.021852 0 18.632348-14.399481 31.601248-34.923385 31.601248-15.028817 0-25.954923-5.625269-35.054837-18.319508l12.757289-11.679589c4.549173 8.358717 12.136923 12.836175 21.557615 12.836175 8.810827 0 15.333914-5.778378 15.333914-13.575631 0-4.041776-1.975789-7.507632-5.921356-9.957985-1.986471-1.16011-5.921183-2.889801-13.653087-5.481449-18.549557-6.347114-24.913615-13.131513-24.913615-26.390935 0-15.750673 13.666981-27.579761 31.582404-27.579761zm225.694865 1.677998h21.574519l27.003827 64.645381 27.35127-64.645381h21.411125l-43.744366 98.713378h-10.627625zm-382.0650555.147887h28.9907605c32.03042 0 54.358853 19.785673 54.358853 48.189686 0 14.162958-6.830789 27.85678-18.381914 36.944284-9.719951 7.670829-20.794721 11.110776-36.1290572 11.110776h-28.8386423zm92.4372765 0h19.750972v96.244746h-19.750972zm395.898433 0h56.0115v16.307818h-36.275548v21.362651h34.938404v16.300227h-34.938404v25.979503h36.275548v16.294547h-56.0115zm69.093673 0h29.283731c22.779125 0 35.832336 10.397084 35.832336 28.415915 0 14.735576-8.18674 24.406009-23.063778 27.283967l31.8735 40.544864h-24.288241l-27.33624-38.663996h-2.574741v38.663996h-19.726567zm19.726567 15.158813v29.147789h5.771106c12.612039 0 19.2965-5.205119 19.2965-14.880105 0-9.366368-6.685663-14.267684-18.98475-14.267684zm-557.4199967 1.149005v63.642381h5.2997299c12.7626418 0 20.8227668-2.324017 27.0282478-7.648608 6.830606-5.781942 10.939375-15.014091 10.939375-24.250317 0-9.221364-4.108769-18.17828-10.939375-23.960222-6.523529-5.610901-14.265606-7.783234-27.0282478-7.783234z" fill="#fff"/><path d="m399.164288 151.559424c29.750164 0 53.866808 22.168005 53.866808 49.552763v.031212c0 27.384748-24.116644 49.583975-53.866808 49.583975-29.750163 0-53.866807-22.199227-53.866807-49.583975v-.031212c0-27.384758 24.116644-49.552763 53.866807-49.552763zm350.818324 119.534515c-25.047961 17.233194-212.574048 140.397024-537.263375 199.891132h484.38627c29.197721 0 52.877105-23.154567 52.877105-51.710264z" fill="#f47216"/></g></svg>