<svg height="471" viewBox="0 0 750 471" width="750" xmlns="http://www.w3.org/2000/svg"><g fill="none"><path d="m40 0h670c22.1 0 40 17.9 40 40v391c0 22.1-17.9 40-40 40h-670c-22.1 0-40-17.9-40-40v-391c0-22.1 17.9-40 40-40z" fill="#000"/><path d="m150.7 170.6c6.8-2.3 14.1-3.5 21.7-3.5 33.2 0 60.9 23.6 67.2 54.9l47-9.6c-10.8-53.2-57.8-93.3-114.2-93.3-12.9 0-25.3 2.1-36.9 6z" fill="#fff100"/><path d="m95.2 323 31.8-36c-14.2-12.6-23.1-30.9-23.1-51.4 0-20.4 8.9-38.8 23.1-51.3l-31.8-35.9c-24.1 21.4-39.3 52.5-39.3 87.3 0 34.7 15.2 65.9 39.3 87.3z" fill="#00a3df"/><path d="m239.6 249.4c-6.4 31.3-34 54.8-67.2 54.8-7.6 0-14.9-1.2-21.8-3.5l-15.2 45.5c11.6 3.9 24.1 6 37 6 56.4 0 103.4-40 114.2-93.2z" fill="#ee4023"/><g fill="#fff" transform="translate(342 148)"><path d="m101.2 133.6c-7.8 7.6-18.3 12.2-29.9 12-8-.1-15.4-2.5-21.6-6.5l-15.6 24.8c10.7 6.7 23.2 10.7 36.8 10.9 19.7.3 37.7-7.5 50.8-20.2zm-28.2-101.1c-39.2-.6-71.6 30.8-72.2 70-.2 14.7 4 28.5 11.5 39.9l128.8-55.1c-7.2-30.9-34.8-54.2-68.1-54.8zm-42.7 75.6c-.2-1.6-.3-3.3-.3-5 .4-23.1 19.4-41.6 42.5-41.2 12.6.2 23.8 5.9 31.3 14.9zm151.3-107.6v137.3l23.8 9.9-11.3 27.1-23.6-9.8c-5.3-2.3-8.9-5.8-11.6-9.8-2.6-4-4.6-9.6-4.6-17v-137.7z"/><path d="m267.5 64c4.2-1.4 8.6-2.1 13.3-2.1 20.3 0 37.1 14.4 41 33.5l28.7-5.9c-6.6-32.5-35.3-56.9-69.7-56.9-7.9 0-15.5 1.3-22.5 3.6zm-33.9 92.9 19.4-21.9c-8.7-7.7-14.1-18.9-14.1-31.4s5.5-23.7 14.1-31.3l-19.4-21.9c-14.7 13-24 32.1-24 53.3s9.3 40.2 24 53.2zm88.2-44.8c-3.9 19.1-20.8 33.5-41 33.5-4.6 0-9.1-.8-13.3-2.2l-9.3 27.8c7.1 2.4 14.7 3.7 22.6 3.7 34.4 0 63.1-24.4 69.7-56.9z"/></g></g></svg>