<?xml version="1.0" encoding="utf-8"?>
<svg id="Layer_1" x="0px" y="0px" width="780px" height="501px" viewBox="0 0 780 501" xmlns="http://www.w3.org/2000/svg">
  <title>amex-outline</title>
  <desc>Created with Sketch.</desc>
  <path d="M725,0H55C24.673,0,0,24.673,0,55v391c0,30.327,24.673,55,55,55h670c30.325,0,55-24.673,55-55V55&#10;&#9;C780,24.673,755.325,0,725,0z" style="fill: rgb(255, 255, 255);"/>
  <path id="path2997" d="M 339.927 390.424 L 53.393 390.527 L 53.393 389.837 C 53.393 389.458 53.85 386.999 54.408 384.372 C 54.967 381.746 55.835 377.568 56.339 375.089 C 56.841 372.609 57.701 368.396 58.248 365.725 C 58.796 363.056 59.707 358.608 60.272 355.842 C 60.836 353.077 61.72 348.707 62.237 346.133 C 62.754 343.557 63.615 339.343 64.153 336.769 C 64.69 334.194 65.607 329.747 66.19 326.886 C 66.772 324.025 67.657 319.655 68.157 317.175 C 68.657 314.695 69.451 310.872 69.922 308.68 C 70.392 306.486 70.993 303.521 71.255 302.09 C 71.518 300.66 72.369 296.446 73.146 292.727 C 73.923 289.008 74.779 284.794 75.051 283.364 C 75.322 281.933 76.183 277.719 76.965 274 C 77.746 270.282 78.604 266.068 78.872 264.637 C 79.14 263.207 80.003 258.993 80.789 255.274 C 81.577 251.554 82.427 247.419 82.677 246.084 C 82.929 244.749 83.617 241.316 84.207 238.455 C 84.796 235.594 85.912 230.21 86.686 226.491 C 87.461 222.771 88.785 216.295 89.628 212.098 C 90.473 207.902 91.482 202.909 91.871 201.002 C 92.259 199.095 92.962 195.661 93.433 193.372 C 93.904 191.083 94.758 186.948 95.332 184.183 C 95.906 181.416 96.839 176.891 97.406 174.125 C 97.974 171.36 98.848 167.068 99.349 164.589 C 99.85 162.109 100.705 157.974 101.249 155.399 C 101.793 152.824 102.729 148.298 103.329 145.342 C 103.929 142.385 104.934 137.86 105.562 135.285 C 106.19 132.71 107.078 129.589 107.536 128.35 C 107.993 127.109 109.256 124.423 110.342 122.377 L 112.317 118.66 L 114.112 116.308 C 115.098 115.016 116.861 112.973 118.028 111.769 C 119.195 110.565 121.163 108.753 122.404 107.743 C 123.643 106.732 125.438 105.368 126.391 104.712 C 127.345 104.056 129.218 102.907 130.553 102.159 C 131.888 101.411 133.762 100.432 134.715 99.983 C 135.669 99.534 137.62 98.713 139.05 98.16 C 140.48 97.608 143.211 96.681 145.118 96.102 C 147.025 95.522 150.606 94.648 153.075 94.161 C 155.544 93.673 159.444 93.021 161.745 92.712 L 165.926 92.15 L 452.633 92.042 L 739.339 91.931 L 739.339 92.621 C 739.339 93 738.879 95.459 738.318 98.085 C 737.755 100.711 736.816 105.201 736.23 108.062 C 735.643 110.923 734.789 115.059 734.329 117.252 C 733.87 119.446 733 123.659 732.396 126.615 C 731.793 129.572 730.864 134.098 730.333 136.672 C 729.802 139.247 728.941 143.461 728.421 146.035 C 727.901 148.611 727.035 152.824 726.498 155.399 C 725.959 157.974 725.127 162.032 724.645 164.416 C 724.163 166.8 723.292 171.091 722.709 173.952 C 722.125 176.813 721.188 181.339 720.626 184.009 C 720.063 186.679 719.208 190.815 718.724 193.199 C 718.238 195.583 717.367 199.874 716.786 202.735 C 716.204 205.596 715.269 210.122 714.707 212.793 C 714.145 215.463 713.308 219.52 712.846 221.809 C 712.385 224.097 711.516 228.389 710.916 231.345 C 710.315 234.301 709.442 238.593 708.972 240.883 C 708.502 243.171 707.665 247.229 707.111 249.898 C 706.555 252.569 705.606 257.173 705.003 260.129 C 704.397 263.086 703.532 267.298 703.08 269.493 C 702.626 271.685 701.779 275.821 701.195 278.681 C 700.612 281.544 699.684 286.068 699.132 288.739 C 698.581 291.409 697.717 295.623 697.211 298.103 C 696.707 300.582 695.828 304.874 695.261 307.639 C 694.692 310.404 693.764 314.93 693.198 317.695 C 692.632 320.461 691.784 324.597 691.313 326.886 C 690.842 329.174 689.982 333.388 689.401 336.249 C 688.82 339.11 687.874 343.619 687.3 346.268 L 686.256 351.085 L 685.012 354.417 C 684.328 356.25 683.299 358.686 682.725 359.831 C 682.153 360.974 680.986 362.994 680.133 364.318 C 679.279 365.641 678.089 367.336 677.489 368.085 C 676.889 368.834 675.082 370.768 673.472 372.384 L 670.549 375.319 L 667.734 377.319 C 666.186 378.419 664.518 379.538 664.029 379.805 C 663.539 380.072 661.674 381.025 659.884 381.92 C 658.095 382.817 655.566 383.957 654.267 384.454 C 652.967 384.953 650.392 385.8 648.545 386.337 C 646.698 386.876 644.718 387.406 644.146 387.515 C 643.573 387.625 641.588 388.035 639.732 388.429 C 637.877 388.822 634.132 389.409 631.41 389.733 L 626.46 390.322 L 339.927 390.424 Z M 237.983 316.309 L 245.439 316.309 L 245.649 315.76 C 245.766 315.458 245.86 314.749 245.86 314.184 C 245.86 313.618 246.106 311.564 246.407 309.618 C 246.707 307.67 247.411 303.191 247.973 299.663 C 248.534 296.134 249.374 290.828 249.84 287.872 C 250.306 284.915 250.875 281.131 251.105 279.462 C 251.334 277.793 251.613 276.428 251.726 276.428 C 251.838 276.428 252.32 277.165 252.797 278.067 L 253.663 279.705 L 255.585 281.643 L 257.508 283.579 L 259.874 284.527 L 262.241 285.474 L 265.061 285.84 L 267.882 286.205 L 271.461 285.986 L 275.041 285.766 L 278.917 284.763 L 282.794 283.759 L 284.874 282.811 C 286.019 282.288 288.047 281.149 289.382 280.279 L 291.81 278.698 L 294.073 276.435 C 295.318 275.193 297.074 273.197 297.974 272.002 C 298.876 270.808 299.613 269.744 299.613 269.638 C 299.613 269.531 300.056 268.792 300.597 267.994 C 301.138 267.197 302.244 264.983 303.056 263.076 C 303.869 261.169 305.137 257.736 305.877 255.447 L 307.221 251.285 L 307.916 247.681 C 308.298 245.699 308.79 242.422 309.009 240.398 L 309.406 236.721 L 309.176 233.6 L 308.947 230.479 L 308.223 227.357 L 307.5 224.236 L 306.328 221.9 L 305.157 219.563 L 302.894 217.164 L 300.632 214.765 L 297.955 213.382 L 295.278 211.999 L 292.33 211.292 L 289.382 210.587 L 286.434 210.371 L 283.487 210.155 L 280.204 210.532 L 276.919 210.909 L 274.24 211.594 L 271.56 212.277 L 269.231 213.356 C 267.951 213.947 266.087 214.954 265.091 215.592 C 264.094 216.23 263.065 216.963 262.805 217.222 C 262.546 217.481 261.923 217.962 261.423 218.288 L 260.512 218.885 L 261.148 215.838 C 261.499 214.163 261.791 212.598 261.799 212.358 L 261.813 211.925 L 255.454 211.925 L 249.097 211.925 L 247.983 218.948 C 247.369 222.811 246.401 228.779 245.831 232.213 C 245.261 235.646 244.4 240.795 243.92 243.656 C 243.44 246.517 242.583 251.589 242.015 254.927 C 241.448 258.264 240.511 263.571 239.932 266.718 C 239.353 269.865 238.506 274.469 238.048 276.949 C 237.591 279.428 236.729 284.109 236.135 287.351 C 235.541 290.595 234.585 295.744 234.011 298.796 C 233.437 301.847 232.504 306.685 231.937 309.546 C 231.369 312.407 230.821 315.1 230.716 315.528 L 230.527 316.309 L 237.983 316.309 Z M 270.083 276.214 L 267.188 276.388 L 265.296 276.053 L 263.403 275.719 L 261.481 274.842 L 259.558 273.964 L 258.216 272.681 L 256.873 271.4 L 256.098 269.666 C 255.671 268.712 255.124 267.092 254.881 266.065 L 254.439 264.199 L 254.616 261.21 L 254.794 258.222 L 255.687 253.54 C 256.178 250.965 257.06 246.127 257.647 242.79 C 258.234 239.452 259.124 234.56 259.623 231.921 L 260.53 227.121 L 262.518 225.467 C 263.612 224.558 265.344 223.338 266.368 222.758 L 268.228 221.702 L 270.655 220.951 L 273.083 220.199 L 276.204 220.016 L 279.325 219.833 L 281.867 220.375 L 284.408 220.916 L 286.202 221.742 L 287.995 222.568 L 289.499 224.08 L 291.004 225.592 L 291.814 227.193 C 292.261 228.074 292.888 229.797 293.207 231.023 L 293.788 233.252 L 293.61 239.842 L 293.432 246.431 L 292.542 250.326 C 292.052 252.468 291.12 255.745 290.47 257.608 L 289.289 260.996 L 287.841 263.738 C 287.045 265.247 285.818 267.285 285.114 268.268 C 284.41 269.25 283.287 270.525 282.619 271.097 C 281.953 271.671 280.834 272.568 280.135 273.089 L 278.864 274.038 L 275.921 275.039 L 272.978 276.04 L 270.083 276.214 Z M 342.094 285.747 L 345.909 285.791 L 349.723 285.443 C 351.822 285.252 355.255 284.853 357.352 284.557 C 359.451 284.262 363.075 283.6 365.407 283.088 L 369.646 282.155 L 369.858 280.591 C 369.974 279.732 370.45 277.174 370.916 274.906 L 371.763 270.781 L 371.575 270.595 L 371.389 270.409 L 370.093 271.034 C 369.38 271.378 367.159 272.2 365.159 272.859 L 361.521 274.057 L 357.703 274.798 L 353.885 275.537 L 347.816 275.55 L 341.747 275.56 L 339.666 274.896 C 338.522 274.531 336.839 273.863 335.926 273.41 L 334.267 272.589 L 332.897 271.351 L 331.527 270.113 L 330.458 268.246 L 329.389 266.377 L 328.719 264.035 L 328.049 261.692 L 328.045 257.356 L 328.04 253.019 L 328.634 249.152 L 329.23 245.283 L 334.448 245.039 L 339.666 244.795 L 358.957 244.92 L 378.247 245.043 L 378.829 242.573 C 379.15 241.214 379.64 238.405 379.918 236.331 L 380.424 232.559 L 380.435 229.387 L 380.446 226.214 L 379.897 223.845 L 379.347 221.477 L 378.438 219.909 C 377.94 219.047 377.059 217.797 376.483 217.131 C 375.907 216.466 374.878 215.528 374.197 215.047 C 373.515 214.566 372.178 213.757 371.224 213.25 L 369.49 212.328 L 366.461 211.598 L 363.431 210.869 L 359.699 210.512 L 355.965 210.155 L 352.498 210.381 L 349.03 210.606 L 344.868 211.405 L 340.707 212.205 L 338.105 213.244 C 336.675 213.815 334.49 214.859 333.251 215.562 C 332.011 216.265 330.295 217.409 329.437 218.104 C 328.577 218.8 327.091 220.152 326.134 221.109 C 325.176 222.067 323.758 223.785 322.985 224.93 C 322.211 226.075 321.025 228.103 320.348 229.438 C 319.672 230.774 318.791 232.646 318.39 233.6 C 317.99 234.553 317.261 236.504 316.772 237.934 C 316.282 239.365 315.513 242.096 315.063 244.004 C 314.612 245.911 313.995 249.05 313.69 250.98 L 313.137 254.49 L 313.143 259.65 L 313.148 264.81 L 313.675 267.065 C 313.964 268.304 314.519 270.178 314.906 271.226 C 315.293 272.275 316.011 273.836 316.499 274.694 C 316.987 275.552 318.031 276.934 318.817 277.765 C 319.603 278.596 321.027 279.857 321.981 280.566 C 322.934 281.276 324.632 282.275 325.753 282.785 L 327.792 283.713 L 330.635 284.401 C 332.198 284.778 334.558 285.226 335.879 285.396 C 337.199 285.565 339.996 285.724 342.094 285.747 Z M 348.625 236.894 C 339.025 236.894 331.17 236.826 331.17 236.741 C 331.17 236.658 331.58 235.448 332.081 234.053 C 332.581 232.659 333.461 230.585 334.034 229.443 L 335.079 227.366 L 337.372 225.085 L 339.666 222.802 L 341.921 221.725 C 343.16 221.132 344.799 220.486 345.561 220.29 C 346.325 220.094 348.509 219.834 350.416 219.713 L 353.885 219.49 L 356.549 219.833 L 359.211 220.175 L 361.146 221.061 L 363.082 221.947 L 364.144 223.092 C 364.727 223.721 365.423 224.648 365.69 225.151 L 366.174 226.067 L 366.494 228.099 L 366.815 230.131 L 366.448 233.512 L 366.082 236.894 L 348.625 236.894 Z M 452.375 285.749 L 456.192 285.791 L 460.524 285.278 C 462.907 284.995 466.079 284.528 467.574 284.237 C 469.067 283.948 471.486 283.373 472.949 282.961 C 474.411 282.547 475.734 282.1 475.889 281.968 C 476.044 281.835 476.456 280.261 476.807 278.47 C 477.157 276.68 477.599 274.278 477.788 273.134 C 477.976 271.989 478.074 270.992 478.005 270.917 C 477.935 270.842 477.68 270.939 477.437 271.131 C 477.193 271.325 475.492 272.041 473.655 272.723 L 470.316 273.963 L 465.561 274.884 L 460.805 275.805 L 456.763 275.668 L 452.72 275.53 L 450.423 274.733 L 448.126 273.936 L 446.352 272.385 L 444.578 270.832 L 443.4 268.688 L 442.224 266.545 L 441.662 263.676 L 441.102 260.808 L 441.106 257.088 L 441.109 253.367 L 441.79 248.859 L 442.472 244.35 L 443.192 241.922 C 443.589 240.587 444.038 239.027 444.189 238.455 C 444.342 237.882 444.977 236.244 445.603 234.813 C 446.228 233.383 447.344 231.172 448.082 229.9 L 449.424 227.589 L 451.073 225.88 L 452.722 224.171 L 454.467 223.089 L 456.214 222.006 L 458.456 221.315 C 459.689 220.935 461.869 220.442 463.299 220.22 L 465.9 219.814 L 469.714 220.006 L 473.529 220.197 L 478.037 221.1 L 482.546 222.001 L 484.379 222.685 C 485.387 223.061 486.256 223.37 486.311 223.37 C 486.364 223.37 486.606 222.082 486.848 220.508 C 487.09 218.935 487.52 216.346 487.804 214.756 C 488.089 213.164 488.253 211.794 488.168 211.711 C 488.085 211.627 486.73 211.412 485.158 211.233 C 483.585 211.054 479.311 210.736 475.66 210.525 L 469.021 210.144 L 464.339 210.503 L 459.658 210.863 L 456.189 211.591 L 452.722 212.32 L 450.488 213.213 C 449.26 213.704 447.461 214.591 446.49 215.183 C 445.519 215.776 444.285 216.572 443.745 216.953 C 443.205 217.335 441.569 218.823 440.107 220.261 L 437.452 222.875 L 435.968 225.047 C 435.153 226.242 433.743 228.732 432.834 230.583 L 431.182 233.947 L 429.915 237.587 C 429.219 239.59 428.246 242.867 427.755 244.87 L 426.86 248.512 L 426.535 251.806 L 426.211 255.101 L 426.214 259.436 L 426.218 263.77 L 426.545 266.292 L 426.872 268.814 L 427.911 271.408 L 428.949 274.002 L 430.15 275.877 L 431.349 277.752 L 433.256 279.63 L 435.165 281.507 L 437.182 282.575 L 439.201 283.641 L 441.852 284.378 C 443.309 284.782 445.416 285.247 446.533 285.41 C 447.65 285.573 450.281 285.726 452.381 285.749 Z M 509.419 285.621 L 514.1 285.486 L 517.048 284.732 L 519.996 283.977 L 521.904 283.076 C 522.953 282.581 524.669 281.602 525.718 280.901 C 526.767 280.2 528.392 278.868 529.327 277.941 C 530.262 277.013 531.649 275.431 532.409 274.425 C 533.169 273.418 533.837 272.64 533.893 272.697 C 533.95 272.753 533.774 274.356 533.504 276.26 C 533.235 278.165 533.011 280.698 533.007 281.89 L 533.001 284.057 L 539.365 284.057 L 545.73 284.057 L 545.925 279.116 L 546.119 274.174 L 547.027 267.758 C 547.527 264.229 548.334 259.001 548.821 256.141 C 549.307 253.28 550.152 248.443 550.7 245.39 C 551.247 242.338 552.114 237.579 552.625 234.813 L 553.557 229.785 L 553.589 225.442 L 553.619 221.098 L 552.638 219.091 L 551.655 217.083 L 550.324 215.805 L 548.991 214.526 L 546.806 213.419 L 544.619 212.31 L 541.36 211.585 L 538.101 210.86 L 533.615 210.519 L 529.128 210.178 L 523.349 210.536 C 520.169 210.732 515.697 211.12 513.408 211.399 L 509.246 211.903 L 506.41 211.914 L 503.574 211.925 L 503.161 213.92 C 502.934 215.016 502.303 217.621 501.76 219.71 C 501.215 221.798 500.821 223.556 500.883 223.618 C 500.944 223.68 502.461 223.335 504.253 222.853 C 506.045 222.37 509.853 221.578 512.715 221.09 L 517.916 220.204 L 522.597 220.012 L 527.279 219.818 L 530.295 220.347 L 533.311 220.876 L 535.323 221.869 L 537.336 222.863 L 538.463 224.543 L 539.591 226.222 L 539.575 228.87 L 539.558 231.519 L 538.961 234.425 L 538.363 237.332 L 525.885 237.377 L 513.407 237.421 L 509.324 238.541 C 507.078 239.157 504.591 239.975 503.797 240.358 C 503.003 240.742 502.209 241.056 502.032 241.056 C 501.856 241.056 500.52 241.796 499.063 242.703 L 496.415 244.348 L 494.33 246.43 C 493.182 247.575 491.717 249.292 491.073 250.246 C 490.429 251.199 489.382 253.191 488.748 254.673 L 487.594 257.366 L 487.064 260.394 L 486.534 263.423 L 486.534 266.6 L 486.534 269.778 L 487.039 272.424 L 487.546 275.069 L 488.484 276.794 C 489.001 277.742 489.95 279.133 490.591 279.883 L 491.759 281.247 L 493.832 282.507 L 495.906 283.767 L 498.281 284.438 C 499.587 284.807 501.574 285.255 502.698 285.433 L 504.74 285.755 L 509.422 285.621 Z M 513.754 275.923 L 510.979 276.069 L 509.142 275.6 C 508.132 275.343 506.598 274.769 505.734 274.325 L 504.165 273.518 L 503.307 272.499 C 502.836 271.938 502.116 270.838 501.707 270.053 L 500.964 268.625 L 500.819 265.292 L 500.672 261.958 L 501.26 259.936 C 501.583 258.824 502.342 256.893 502.946 255.647 L 504.044 253.38 L 506.147 251.293 L 508.249 249.205 L 510.481 248.13 L 512.713 247.056 L 515.487 246.396 L 518.262 245.737 L 526.932 245.737 L 535.602 245.737 L 536.15 245.964 L 536.698 246.19 L 536.237 248.912 C 535.983 250.408 535.378 253.115 534.891 254.927 C 534.405 256.74 533.547 259.403 532.984 260.846 C 532.421 262.29 531.96 263.566 531.96 263.682 C 531.96 263.799 531.39 264.85 530.693 266.019 L 529.427 268.146 L 527.348 270.207 C 526.205 271.339 525.142 272.266 524.988 272.266 C 524.835 272.266 524.134 272.657 523.431 273.134 L 522.153 274 L 519.34 274.89 L 516.528 275.779 L 513.754 275.923 Z M 626.633 285.744 L 629.927 285.786 L 633.049 285.279 C 634.766 285.001 636.95 284.552 637.904 284.282 C 638.857 284.012 640.575 283.312 641.718 282.726 L 643.8 281.66 L 645.59 280.084 L 647.379 278.508 L 649.265 275.995 C 650.302 274.612 651.24 273.247 651.351 272.96 L 651.552 272.439 L 651.377 274.174 C 651.281 275.127 651.066 276.688 650.897 277.642 C 650.729 278.596 650.49 280.429 650.364 281.717 L 650.134 284.057 L 656.938 284.057 L 663.74 284.057 L 663.74 281.717 L 663.74 279.376 L 664.776 270.532 C 665.346 265.668 666.189 259.193 666.649 256.141 C 667.109 253.088 667.82 248.72 668.229 246.431 C 668.636 244.142 669.359 240.006 669.833 237.241 C 670.309 234.476 671.167 229.637 671.741 226.491 C 672.314 223.343 673.233 218.35 673.782 215.394 C 674.33 212.437 675.184 207.833 675.677 205.163 C 676.17 202.493 677.054 197.811 677.641 194.76 C 678.23 191.708 679.086 187.416 679.547 185.222 C 680.009 183.03 680.386 181.117 680.385 180.975 L 680.385 180.714 L 672.963 180.714 L 665.541 180.714 L 665.322 182.882 C 665.202 184.074 664.633 188.014 664.06 191.639 C 663.486 195.262 662.55 201.036 661.98 204.469 C 661.41 207.902 660.862 211.232 660.761 211.868 L 660.575 213.024 L 659.99 212.775 C 659.668 212.638 657.921 212.153 656.11 211.698 L 652.816 210.871 L 648.308 210.52 L 643.799 210.169 L 639.984 210.524 L 636.17 210.88 L 632.702 211.757 L 629.234 212.633 L 625.94 214.24 L 622.644 215.847 L 620.217 217.643 L 617.79 219.44 L 615.693 221.689 C 614.54 222.925 612.875 224.97 611.991 226.233 L 610.387 228.529 L 608.501 232.451 C 607.465 234.609 606.203 237.466 605.698 238.801 C 605.192 240.137 604.302 243.096 603.717 245.378 L 602.656 249.528 L 602.133 254.916 L 601.61 260.302 L 602.002 264.637 L 602.396 268.972 L 602.859 270.532 C 603.116 271.391 603.653 272.92 604.056 273.93 L 604.788 275.769 L 606.123 277.575 L 607.459 279.383 L 608.983 280.631 L 610.507 281.88 L 612.588 282.914 C 613.733 283.481 615.652 284.216 616.854 284.545 C 618.055 284.874 620.006 285.27 621.189 285.423 C 622.371 285.577 624.82 285.722 626.633 285.744 Z M 632.546 275.907 L 629.927 276.044 L 628.161 275.726 C 627.189 275.552 625.634 275.082 624.704 274.684 L 623.015 273.961 L 621.593 272.795 L 620.172 271.631 L 619.116 269.608 L 618.06 267.585 L 617.577 265.331 L 617.097 263.076 L 617.138 258.568 L 617.178 254.06 L 617.737 250.071 L 618.296 246.084 L 619.165 243.31 C 619.643 241.784 620.037 240.344 620.039 240.11 C 620.043 239.877 620.513 238.629 621.088 237.337 C 621.662 236.044 622.62 234.051 623.218 232.906 C 623.816 231.761 624.934 229.978 625.701 228.942 C 626.47 227.906 627.839 226.345 628.743 225.473 C 629.647 224.603 631.084 223.459 631.939 222.934 L 633.491 221.979 L 636.218 221.035 L 638.944 220.091 L 644.666 220.088 L 650.388 220.088 L 653.682 221.003 C 655.495 221.505 657.419 222.088 657.958 222.298 L 658.939 222.679 L 658.748 223.631 C 658.643 224.155 658.23 226.456 657.832 228.744 C 657.434 231.033 656.648 235.403 656.087 238.455 C 655.526 241.507 654.664 246.111 654.171 248.685 C 653.679 251.26 652.966 254.537 652.586 255.967 C 652.207 257.398 651.671 259.379 651.396 260.37 C 651.121 261.361 650.467 263.079 649.942 264.185 C 649.417 265.292 648.498 266.9 647.9 267.758 C 647.302 268.616 646.292 269.806 645.654 270.4 C 645.015 270.996 643.635 272.052 642.586 272.749 L 640.679 274.017 L 637.922 274.892 L 635.165 275.767 L 632.546 275.907 Z M 122.161 284.057 L 130.586 284.057 L 131.191 280.33 C 131.523 278.279 132.173 274.338 132.634 271.573 C 133.095 268.808 133.954 263.657 134.541 260.129 C 135.129 256.6 136.011 251.372 136.5 248.512 C 136.989 245.651 137.767 241.213 138.227 238.65 C 138.688 236.085 139.153 233.901 139.259 233.794 L 139.454 233.6 L 162.111 233.6 L 184.767 233.6 L 185.019 233.851 L 185.271 234.103 L 184.877 236.105 C 184.662 237.207 184.023 240.604 183.458 243.656 C 182.893 246.708 181.943 251.858 181.346 255.101 C 180.751 258.343 179.889 262.947 179.432 265.331 C 178.974 267.715 178.048 272.708 177.374 276.428 C 176.701 280.147 176.151 283.385 176.153 283.624 L 176.157 284.057 L 184.617 284.057 L 193.078 284.057 L 193.452 281.89 C 193.659 280.698 193.989 278.552 194.189 277.122 C 194.387 275.691 194.868 272.647 195.255 270.359 C 195.642 268.071 196.415 263.544 196.974 260.302 C 197.532 257.06 198.468 251.52 199.052 247.991 C 199.636 244.462 200.502 239.313 200.978 236.548 C 201.452 233.781 202.299 229.1 202.858 226.144 C 203.417 223.187 204.349 218.194 204.929 215.046 C 205.509 211.9 206.376 207.14 206.858 204.469 C 207.34 201.799 208.218 196.961 208.81 193.719 C 209.402 190.477 210.149 186.693 210.47 185.309 L 211.054 182.795 L 202.488 182.795 L 193.921 182.795 L 193.688 184.443 C 193.561 185.348 193.147 187.885 192.769 190.078 C 192.39 192.272 191.704 196.172 191.242 198.747 C 190.78 201.323 189.936 206.238 189.366 209.672 C 188.796 213.104 188.07 217.649 187.752 219.771 L 187.174 223.628 L 174.599 223.883 L 162.023 224.137 L 151.491 223.887 C 145.698 223.75 140.926 223.609 140.886 223.577 C 140.847 223.543 141.044 222.196 141.324 220.582 C 141.605 218.968 142.135 216.164 142.503 214.353 C 142.871 212.541 143.569 208.952 144.053 206.376 C 144.538 203.802 145.086 200.603 145.273 199.268 C 145.459 197.933 145.85 195.709 146.141 194.325 C 146.432 192.943 146.984 190.03 147.368 187.853 C 147.751 185.676 148.16 183.647 148.277 183.345 L 148.487 182.795 L 139.99 182.795 L 131.492 182.795 L 130.949 185.83 C 130.649 187.499 130.25 189.878 130.062 191.118 C 129.873 192.358 129.24 196.337 128.655 199.961 C 128.07 203.585 127.206 208.969 126.735 211.925 C 126.264 214.882 125.408 220.266 124.832 223.889 C 124.254 227.514 123.303 233.131 122.716 236.373 C 122.13 239.617 121.281 244.22 120.829 246.604 C 120.378 248.988 119.519 253.514 118.919 256.661 C 118.32 259.809 117.443 264.256 116.974 266.545 C 116.504 268.833 115.985 271.486 115.821 272.439 C 115.655 273.393 115.119 276.144 114.627 278.552 C 114.136 280.96 113.734 283.183 113.734 283.494 L 113.734 284.057 L 122.161 284.057 Z M 215.439 284.057 L 222.898 284.057 L 223.108 283.509 C 223.225 283.206 223.319 282.415 223.319 281.751 C 223.319 281.085 223.789 277.625 224.361 274.062 C 224.935 270.499 225.882 264.698 226.467 261.169 C 227.051 257.641 227.914 252.491 228.385 249.725 C 228.856 246.96 229.692 242.357 230.244 239.494 C 230.796 236.634 231.644 232.186 232.128 229.612 C 232.611 227.037 233.563 222.138 234.242 218.725 C 234.921 215.312 235.561 212.384 235.664 212.217 L 235.853 211.912 L 228.31 212.005 L 220.767 212.098 L 220.137 216.607 C 219.793 219.087 219.037 224.003 218.459 227.53 C 217.882 231.059 217.008 236.444 216.517 239.494 C 216.026 242.547 215.172 247.462 214.617 250.419 C 214.062 253.375 213.212 257.9 212.727 260.475 C 212.243 263.051 211.374 267.576 210.796 270.532 C 210.218 273.489 209.443 277.39 209.073 279.202 C 208.702 281.015 208.305 282.848 208.189 283.277 L 207.98 284.057 L 215.439 284.057 Z M 389.899 284.057 L 397.303 284.057 L 397.525 280.924 C 397.648 279.202 398.066 275.729 398.456 273.208 C 398.846 270.687 399.645 265.66 400.23 262.037 C 400.816 258.412 401.904 252.38 402.648 248.631 C 403.394 244.883 404.235 241.157 404.519 240.352 C 404.804 239.546 405.036 238.674 405.036 238.413 C 405.036 238.151 405.593 236.727 406.273 235.248 C 406.953 233.769 408.221 231.505 409.091 230.216 L 410.672 227.872 L 412.787 225.912 L 414.903 223.954 L 417.512 222.708 L 420.121 221.461 L 424.11 221.483 L 428.097 221.504 L 430.058 222.089 C 431.136 222.411 432.111 222.675 432.225 222.675 C 432.339 222.675 432.432 222.307 432.432 221.856 C 432.432 221.406 432.822 219.122 433.299 216.78 C 433.775 214.439 434.166 212.425 434.166 212.304 C 434.166 212.183 433.035 211.74 431.652 211.32 C 430.269 210.9 428.357 210.46 427.404 210.341 L 425.67 210.127 L 423.416 210.526 C 422.176 210.745 420.333 211.229 419.32 211.602 C 418.306 211.974 416.633 212.818 415.601 213.478 C 414.57 214.139 412.965 215.425 412.036 216.336 C 411.105 217.248 409.541 219.087 408.56 220.422 C 407.578 221.757 406.552 223.162 406.279 223.543 L 405.783 224.236 L 406.084 222.85 C 406.25 222.086 406.712 219.589 407.11 217.301 C 407.508 215.012 407.919 212.865 408.019 212.533 L 408.204 211.925 L 401.592 211.925 L 394.979 211.925 L 394.979 212.761 C 394.979 213.221 394.588 215.99 394.112 218.916 C 393.635 221.843 392.848 226.733 392.364 229.785 C 391.88 232.837 391.02 238.143 390.454 241.576 C 389.888 245.009 389.028 249.925 388.543 252.499 C 388.058 255.074 387.198 259.6 386.63 262.557 C 386.064 265.512 385.121 270.351 384.538 273.307 C 383.954 276.264 383.255 279.754 382.986 281.066 C 382.715 282.376 382.495 283.585 382.495 283.752 L 382.495 284.057 L 389.899 284.057 Z M 565.658 284.057 L 573.228 284.057 L 573.228 281.741 L 573.228 279.423 L 574.1 273.677 C 574.581 270.518 575.372 265.512 575.86 262.557 C 576.348 259.6 576.955 255.855 577.21 254.233 C 577.466 252.612 578.142 249.101 578.713 246.431 C 579.286 243.76 579.999 240.874 580.3 240.015 C 580.601 239.157 580.849 238.256 580.852 238.014 C 580.856 237.772 581.501 236.214 582.286 234.552 L 583.715 231.529 L 585.601 229.024 L 587.486 226.52 L 589.549 224.969 C 590.683 224.115 592.508 222.984 593.604 222.453 L 595.596 221.488 L 599.93 221.518 L 604.265 221.549 L 605.972 222.096 L 607.678 222.644 L 607.966 222.466 L 608.253 222.288 L 608.269 221.182 C 608.276 220.573 608.647 218.309 609.093 216.149 L 609.904 212.223 L 608.992 211.866 C 608.491 211.67 607.301 211.264 606.347 210.964 L 604.613 210.417 L 601.492 210.426 L 598.371 210.433 L 595.827 211.329 L 593.283 212.223 L 591.373 213.375 L 589.464 214.527 L 586.98 217.128 L 584.497 219.728 L 583.163 221.746 C 582.43 222.856 581.784 223.714 581.728 223.653 C 581.672 223.593 582.071 221.28 582.614 218.515 C 583.157 215.749 583.609 213.135 583.617 212.706 L 583.632 211.925 L 577.216 211.925 L 570.801 211.925 L 570.801 212.147 C 570.801 212.268 570.481 214.492 570.09 217.088 C 569.699 219.685 568.913 224.696 568.346 228.225 C 567.777 231.753 566.845 237.449 566.273 240.883 C 565.702 244.316 564.84 249.232 564.358 251.807 C 563.877 254.381 563.022 258.907 562.458 261.863 C 561.894 264.82 560.968 269.58 560.4 272.441 C 559.832 275.301 559.078 279.086 558.727 280.85 L 558.087 284.057 L 565.658 284.057 Z M 230.107 199.434 L 232.211 199.441 L 233.885 198.871 L 235.56 198.301 L 237.041 196.798 L 238.523 195.296 L 239.302 193.293 L 240.083 191.291 L 240.11 188.343 L 240.138 185.397 L 239.445 184.245 L 238.751 183.094 L 237.544 182.347 L 236.336 181.599 L 233.729 181.599 L 231.122 181.599 L 229.347 182.394 L 227.572 183.188 L 226.542 184.292 L 225.512 185.397 L 224.702 187.304 L 223.893 189.211 L 223.74 192.182 L 223.588 195.153 L 224.34 196.63 L 225.094 198.106 L 226.548 198.766 L 228.001 199.425 L 230.107 199.434 Z" style="fill: rgb(179, 19, 27);"/>
</svg>