<svg width="750" height="471" viewBox="0 0 750 471" version="1.1" xmlns="http://www.w3.org/2000/svg" xmlns:xlink="http://www.w3.org/1999/xlink">
    <!-- Generator: Sketch 48.2 (47327) - http://www.bohemiancoding.com/sketch -->
    <desc>Created with Sketch.</desc>
    <defs></defs>
    <g id="Page-1" stroke="none" stroke-width="1" fill="none" fill-rule="evenodd">
        <g id="hipercard" fill-rule="nonzero">
            <path d="M697.115385,0 L52.8846154,0 C23.7240385,0 0,23.1955749 0,51.7065868 L0,419.293413 C0,447.804425 23.7240385,471 52.8846154,471 L697.115385,471 C726.274038,471 750,447.804425 750,419.293413 L750,51.7065868 C750,23.1955749 726.274038,0 697.115385,0 Z" id="Shape" fill="#FFFFFF"></path>
            <path d="M321.004048,378.440089 L47,378.538584 L47,377.878758 C47,377.516331 47.4370157,375.164862 47.9706147,372.652739 C48.50517,370.141572 49.3352129,366.146273 49.8171733,363.775678 C50.2972211,361.404127 51.1196139,357.375359 51.6426939,354.82116 C52.1667302,352.268874 53.0378927,348.015382 53.5781857,345.370338 C54.1175223,342.726249 54.9628655,338.547347 55.4572574,336.085906 C55.9516493,333.622553 56.7749984,329.592829 57.289472,327.131388 C57.8029893,324.668991 58.6798895,320.416456 59.2373952,317.680565 C59.7939447,314.944675 60.6402442,310.765772 61.1183796,308.394221 C61.5965149,306.02267 62.3557937,302.366848 62.8061972,300.270702 C63.2556444,298.172645 63.8303631,295.337302 64.080906,293.968879 C64.3324051,292.601412 65.1461914,288.571687 65.8892137,285.015317 C66.632236,281.458947 67.4508037,277.429222 67.7109093,276.061755 C67.9700586,274.693332 68.7934076,270.663607 69.5412112,267.107237 C70.2880586,263.551823 71.1085388,259.522098 71.3648193,258.153675 C71.6210999,256.786208 72.4463614,252.756484 73.1979901,249.200113 C73.9515314,245.642786 74.7643614,241.688607 75.0034291,240.411986 C75.2444093,239.135365 75.9023235,235.852488 76.4665231,233.116597 C77.0297665,230.380707 78.0969646,225.232146 78.837118,221.675776 C79.5782278,218.118449 80.8443301,211.92564 81.6504662,207.912173 C82.4585149,203.899661 83.423392,199.125002 83.7953812,197.301394 C84.1664142,195.477786 84.8386725,192.193952 85.2890759,190.005049 C85.7394794,187.816145 86.5561345,183.861966 87.1050339,181.217878 C87.6539332,178.571877 88.5461337,174.244753 89.0883392,171.599708 C89.6315009,168.95562 90.4672814,164.851306 90.946373,162.480711 C91.4254646,160.10916 92.243076,156.154981 92.7632872,153.692584 C93.2834984,151.230187 94.1785677,146.902106 94.7523301,144.075371 C95.3260925,141.247678 96.2871444,136.920554 96.8876824,134.458157 C97.4882203,131.99576 98.3373887,129.011239 98.7753606,127.82642 C99.2123763,126.639688 100.420146,124.071145 101.458656,122.114616 L103.34729,118.560158 L105.063796,116.311009 C106.006679,115.075507 107.692584,113.121847 108.808552,111.970497 C109.92452,110.819147 111.80646,109.086385 112.993192,108.120551 C114.178012,107.153762 115.894517,105.849408 116.805843,105.222095 C117.718125,104.594781 119.50922,103.496026 120.785842,102.780736 C122.062463,102.065446 123.854514,101.129257 124.76584,100.699891 C125.678122,100.270526 127.543806,99.4854274 128.911273,98.9566097 C130.27874,98.4287484 132.890315,97.5422855 134.713923,96.9886048 C136.537531,96.4339678 139.961937,95.5981873 142.322969,95.1324835 C144.684001,94.6658234 148.413456,94.042335 150.613835,93.7468474 L154.612003,93.2094233 L428.781486,93.106146 L702.950012,93 L702.950012,93.6598267 C702.950012,94.0222533 702.510128,96.3737228 701.97366,98.8848894 C701.43528,101.396056 700.537341,105.689711 699.976967,108.425602 C699.415636,111.161492 698.598981,115.116627 698.159096,117.213729 C697.720168,119.311786 696.888213,123.340554 696.310625,126.16729 C695.733994,128.994983 694.845619,133.323064 694.337839,135.784504 C693.830059,138.246901 693.00671,142.276625 692.509449,144.738066 C692.012189,147.201419 691.184058,151.230187 690.670541,153.692584 C690.155111,156.154981 689.359494,160.035527 688.898572,162.315276 C688.437649,164.595026 687.604737,168.698383 687.047232,171.434273 C686.48877,174.170163 685.592744,178.498244 685.05532,181.051487 C684.51694,183.604729 683.699328,187.559865 683.236493,189.839614 C682.771746,192.119363 681.938834,196.22272 681.383241,198.958611 C680.826691,201.694501 679.932578,206.022582 679.395154,208.576781 C678.85773,211.130023 678.057331,215.009613 677.615534,217.198517 C677.174694,219.386464 676.343695,223.490777 675.769932,226.317513 C675.195213,229.144249 674.360389,233.248563 673.910942,235.438423 C673.461495,237.62637 672.661096,241.506916 672.131322,244.059202 C671.599636,246.613401 670.692135,251.016071 670.115504,253.842807 C669.536004,256.670499 668.70883,260.698311 668.276596,262.797325 C667.842449,264.89347 667.032487,268.848606 666.474025,271.58354 C665.91652,274.321343 665.0291,278.647511 664.501239,281.20171 C663.974334,283.754952 663.148116,287.784677 662.664243,290.156228 C662.182283,292.526823 661.341721,296.631136 660.799515,299.275225 C660.255397,301.919313 659.367978,306.247394 658.826729,308.891482 C658.28548,311.536527 657.474562,315.491662 657.024159,317.680565 C656.573756,319.868513 655.751363,323.898237 655.19577,326.634127 C654.640176,329.370018 653.735544,333.681842 653.186645,336.215003 L652.188298,340.821358 L650.998698,344.007652 C650.344609,345.760496 649.360606,348.089971 648.811707,349.184901 C648.26472,350.277919 647.148752,352.209585 646.333053,353.475688 C645.516398,354.740834 644.378436,356.361712 643.804674,357.077959 C643.230911,357.794206 641.50293,359.643633 639.963335,361.188966 L637.168156,363.995621 L634.476254,365.908162 C632.995947,366.96006 631.400888,368.030127 630.933271,368.285451 C630.464699,368.540775 628.681254,369.452101 626.969529,370.307963 C625.258761,371.165738 622.840353,372.255886 621.598157,372.731153 C620.355006,373.208332 617.892609,374.018293 616.126377,374.531811 C614.360145,375.04724 612.466729,375.554064 611.919742,375.658297 C611.371799,375.763487 609.473602,376.155558 607.698764,376.532329 C605.924882,376.908143 602.343648,377.469474 599.74068,377.779306 L595.00714,378.342549 L321.004048,378.440089 Z M223.517995,307.566091 L230.647949,307.566091 L230.848766,307.041098 C230.96065,306.752305 231.050539,306.074309 231.050539,305.534016 C231.050539,304.992767 231.285782,303.028587 231.573619,301.167684 C231.8605,299.304869 232.533715,295.021733 233.071139,291.64801 C233.607607,288.273331 234.410874,283.199359 234.856496,280.372623 C235.302118,277.544931 235.846236,273.926403 236.066178,272.330387 C236.285164,270.734371 236.551964,269.429062 236.660022,269.429062 C236.767125,269.429062 237.228047,270.133834 237.684188,270.99639 L238.512319,272.562761 L240.350271,274.416013 L242.189179,276.267353 L244.451716,277.173898 L246.715208,278.079486 L249.411891,278.429481 L252.109531,278.77852 L255.532023,278.569097 L258.955472,278.358717 L262.661977,277.399578 L266.369438,276.439482 L268.358481,275.532937 C269.453411,275.032808 271.392728,273.943616 272.669349,273.11166 L274.991174,271.599796 L277.155215,269.435756 C278.345772,268.248068 280.024983,266.339352 280.885626,265.196608 C281.748183,264.054821 282.452954,263.037349 282.452954,262.935984 C282.452954,262.833664 282.876582,262.12698 283.393924,261.363876 C283.911267,260.601728 284.968902,258.484545 285.745394,256.660937 C286.522842,254.837329 287.735393,251.554451 288.443033,249.365548 L289.728261,245.38555 L290.392869,241.93915 C290.758164,240.043822 291.22865,236.910123 291.438073,234.974631 L291.817712,231.458424 L291.59777,228.473904 L291.378784,225.489383 L290.686444,222.503906 L289.99506,219.519385 L288.874311,217.285537 L287.754518,215.050733 L285.590478,212.75664 L283.427394,210.462546 L280.867457,209.140024 L278.307521,207.817502 L275.488435,207.141418 L272.669349,206.467248 L269.850263,206.260693 L267.032134,206.054139 L263.892697,206.414653 L260.751348,206.775167 L258.189499,207.430212 L255.626694,208.083345 L253.39954,209.115161 C252.175513,209.680317 250.393025,210.643281 249.440579,211.253382 C248.487178,211.863483 247.503175,212.564429 247.254545,212.812103 C247.006871,213.059777 246.411114,213.519744 245.932979,213.831488 L245.061816,214.402381 L245.670004,211.488625 C246.005655,209.886871 246.284886,208.390308 246.292537,208.160803 L246.305924,207.746738 L240.224999,207.746738 L234.145987,207.746738 L233.080702,214.462626 C232.493551,218.1567 231.567881,223.863723 231.022807,227.147556 C230.477733,230.430433 229.654384,235.354271 229.195374,238.090161 C228.736364,240.826051 227.91684,245.676256 227.373678,248.868287 C226.831473,252.059362 225.935447,257.134291 225.381767,260.143674 C224.828086,263.153058 224.018125,267.555728 223.580153,269.927279 C223.143137,272.297874 222.318832,276.774177 221.750807,279.874406 C221.182782,282.976548 220.268588,287.900386 219.719688,290.818923 C219.170789,293.736505 218.278588,298.362942 217.736383,301.098833 C217.193221,303.834723 216.669185,306.40996 216.568777,306.819244 L216.388041,307.566091 L223.517995,307.566091 Z M254.214282,269.22442 L251.445879,269.390811 L249.636615,269.070461 L247.826395,268.751066 L245.988442,267.912417 L244.149534,267.072811 L242.866219,265.845916 L241.581947,264.620933 L240.840838,262.96276 C240.43251,262.050478 239.90943,260.501319 239.677056,259.51923 L239.254385,257.734829 L239.423645,254.876536 L239.593861,252.019199 L240.44781,247.54194 C240.917339,245.079543 241.76077,240.453106 242.322101,237.262031 C242.883432,234.069999 243.734513,229.391923 244.211692,226.868325 L245.079029,222.278226 L246.980095,220.696555 C248.026255,219.827305 249.682516,218.660654 250.661737,218.106017 L252.4404,217.096196 L254.761269,216.378036 L257.083094,215.658921 L260.067615,215.483923 L263.052136,215.308926 L265.482975,215.827225 L267.912859,216.344567 L269.628409,217.134446 L271.343002,217.924326 L272.781233,219.370207 L274.22042,220.816088 L274.994999,222.347078 C275.422452,223.189552 276.022034,224.837206 276.327084,226.009594 L276.882678,228.141121 L276.712461,234.442945 L276.542245,240.743812 L275.691164,244.468486 C275.222592,246.516818 274.331348,249.650517 273.709772,251.432049 L272.580416,254.671894 L271.195736,257.293988 C270.434545,258.737 269.261201,260.68588 268.587986,261.625894 C267.914772,262.564951 266.84088,263.784197 266.202091,264.331183 C265.565215,264.880083 264.495148,265.737857 263.826715,266.236074 L262.611295,267.143575 L259.79699,268.100802 L256.982686,269.058029 L254.214282,269.22442 Z M323.076287,278.340548 L326.724459,278.382624 L330.371675,278.049842 C332.378887,277.867194 335.661764,277.485642 337.667064,277.202586 C339.674276,276.920486 343.139801,276.287435 345.369824,275.797824 L349.423455,274.905624 L349.626184,273.410017 C349.737112,272.58858 350.192297,270.14244 350.637919,267.973618 L351.44788,264.029002 L351.268101,263.851135 L351.090235,263.673269 L349.850908,264.270938 C349.169087,264.599895 347.04521,265.38595 345.132669,266.016132 L341.653756,267.161744 L338.002715,267.870341 L334.351674,268.577025 L328.548067,268.589456 L322.744461,268.599019 L320.754461,267.964055 C319.660488,267.615017 318.051084,266.976228 317.178009,266.543037 L315.591556,265.757939 L314.281466,264.574076 L312.971375,263.390213 L311.949122,261.604856 L310.926868,259.817586 L310.286167,257.578 L309.645466,255.337458 L309.641641,251.191069 L309.636859,247.043723 L310.204884,243.345824 L310.774821,239.646013 L315.764641,239.412683 L320.754461,239.179353 L339.201878,239.298887 L357.648339,239.416508 L358.204888,237.05452 C358.511851,235.754948 358.980424,233.068784 359.246267,231.085479 L359.73014,227.478426 L359.740659,224.445135 L359.751178,221.410889 L359.226185,219.145484 L358.700236,216.881035 L357.830986,215.381602 C357.354764,214.557297 356.512289,213.361959 355.961477,212.725083 C355.410665,212.089163 354.426663,211.192181 353.775443,210.732215 C353.123266,210.272248 351.844732,209.498626 350.93245,209.013796 L349.274277,208.132115 L346.377733,207.434037 L343.480233,206.736916 L339.911431,206.395527 L336.340716,206.054139 L333.025326,206.270256 L329.70898,206.485417 L325.728981,207.249477 L321.749939,208.014494 L319.261723,209.008059 C317.894256,209.554089 315.804805,210.552436 314.619985,211.224694 C313.43421,211.896952 311.793249,212.990926 310.972769,213.655534 C310.150377,214.321098 308.729358,215.613976 307.814207,216.529127 C306.8981,217.445234 305.542108,219.088107 304.802911,220.183037 C304.062758,221.277967 302.928621,223.217284 302.281226,224.493905 C301.634787,225.771483 300.792312,227.561621 300.408848,228.473904 C300.026339,229.38523 299.329218,231.250914 298.861602,232.618381 C298.393029,233.986804 297.657657,236.598379 297.227335,238.422943 C296.796057,240.246551 296.206038,243.248285 295.914376,245.093887 L295.385558,248.450397 L295.391296,253.384753 L295.396077,258.31911 L295.900032,260.4755 C296.176394,261.660319 296.707124,263.452371 297.077201,264.454542 C297.447277,265.45767 298.13388,266.950409 298.60054,267.770889 C299.0672,268.591369 300.065546,269.912935 300.817175,270.707596 C301.568804,271.502257 302.930533,272.708114 303.842815,273.38611 C304.754141,274.065062 306.377889,275.020376 307.449868,275.508074 L309.399704,276.395494 L312.118381,277.053408 C313.613032,277.413922 315.869831,277.842331 317.133065,278.004897 C318.395342,278.166507 321.070031,278.318554 323.076287,278.340548 Z M329.32169,231.623859 C320.141492,231.623859 312.629986,231.558833 312.629986,231.47755 C312.629986,231.398179 313.022057,230.241092 313.501149,228.907094 C313.979284,227.574053 314.820802,225.590748 315.368745,224.498687 L316.368048,222.512513 L318.560777,220.331259 L320.754461,218.148093 L322.910852,217.11819 C324.095671,216.551121 325.662999,215.933371 326.391677,215.745942 C327.122268,215.558512 329.210763,215.309882 331.034371,215.194173 L334.351674,214.980925 L336.899179,215.308926 L339.444771,215.63597 L341.295155,216.483226 L343.146495,217.330482 L344.162054,218.425412 C344.71956,219.026906 345.385124,219.913369 345.640448,220.394373 L346.103283,221.270317 L346.40929,223.213459 L346.716253,225.156601 L346.365301,228.389752 L346.015306,231.623859 L329.32169,231.623859 Z M428.534768,278.342461 L432.184853,278.382624 L436.327417,277.892057 C438.60621,277.621433 441.6395,277.174854 443.069125,276.896579 C444.496837,276.620217 446.810056,276.070362 448.20908,275.676378 C449.607147,275.280482 450.872293,274.853029 451.020515,274.726801 C451.168737,274.599617 451.562721,273.094447 451.898372,271.381767 C452.233066,269.670042 452.655738,267.37308 452.836473,266.279107 C453.016252,265.184177 453.109967,264.230775 453.043984,264.159055 C452.977045,264.087334 452.733196,264.180093 452.500822,264.363697 C452.267492,264.549213 450.640876,265.233903 448.884207,265.886079 L445.691219,267.071855 L441.144152,267.95258 L436.596129,268.833305 L432.730883,268.702296 L428.864681,268.570331 L426.668127,267.808183 L424.471574,267.046036 L422.77515,265.56286 L421.078726,264.077772 L419.952239,262.027527 L418.827665,259.978239 L418.29024,257.234699 L417.754729,254.492115 L417.758554,250.934788 L417.761423,247.376505 L418.412643,243.065637 L419.06482,238.753813 L419.753335,236.431988 C420.132974,235.155366 420.562339,233.663584 420.706736,233.116597 C420.853046,232.568654 421.460278,231.002283 422.058903,229.63386 C422.656572,228.266393 423.72377,226.152079 424.429498,224.935702 L425.712813,222.725761 L427.289703,221.091494 L428.866594,219.457228 L430.535286,218.422543 L432.205891,217.386902 L434.349849,216.726119 C435.528931,216.362736 437.613601,215.891295 438.981068,215.679003 L441.468328,215.290757 L445.115544,215.474361 L448.763717,215.657008 L453.074585,216.520521 L457.386409,217.382121 L459.139253,218.03621 C460.103174,218.395767 460.934173,218.691255 460.986768,218.691255 C461.03745,218.691255 461.268868,217.459579 461.500285,215.954409 C461.731703,214.450195 462.142899,211.97441 462.41448,210.45394 C462.687017,208.931557 462.843845,207.621466 462.762562,207.542096 C462.683192,207.461769 461.387445,207.256171 459.884188,207.084998 C458.379974,206.913826 454.292873,206.609732 450.801529,206.407959 L444.452849,206.04362 L439.97559,206.386921 L435.499287,206.731178 L432.181984,207.427343 L428.866594,208.124465 L426.730285,208.978414 C425.555985,209.447943 423.835654,210.296155 422.907115,210.862267 C421.978576,211.429336 420.798538,212.190527 420.282152,212.554866 C419.765766,212.920162 418.201307,214.343093 416.80324,215.71821 L414.264341,218.217901 L412.845236,220.294921 C412.065875,221.437664 410.717533,223.818778 409.848283,225.588835 L408.268524,228.80573 L407.056929,232.286555 C406.391365,234.201965 405.460914,237.335664 404.991385,239.251074 L404.135523,242.733811 L403.824735,245.883767 L403.514903,249.034678 L403.517772,253.180112 L403.521597,257.324588 L403.834297,259.736303 L404.146998,262.148017 L405.140563,264.628584 L406.133172,267.10915 L407.281653,268.902157 L408.428221,270.695164 L410.25183,272.491041 L412.07735,274.285961 L414.006148,275.307258 L415.936858,276.326642 L418.471932,277.031414 C419.865218,277.417747 421.88008,277.862413 422.948235,278.018285 C424.016389,278.174157 426.532337,278.320466 428.540505,278.342461 L428.534768,278.342461 Z M483.084269,278.220058 L487.560572,278.090961 L490.379658,277.369933 L493.198744,276.647949 L495.023308,275.786349 C496.026436,275.312995 497.667396,274.376806 498.670524,273.706461 C499.673652,273.036115 501.227592,271.762362 502.121705,270.8759 C503.015818,269.98848 504.342165,268.47566 505.068931,267.513652 C505.795697,266.550687 506.434486,265.806709 506.488037,265.861216 C506.542544,265.914767 506.374241,267.447669 506.116047,269.268409 C505.858811,271.090104 505.644606,273.512338 505.640781,274.652212 L505.635043,276.724451 L511.72075,276.724451 L517.807412,276.724451 L517.993885,271.999518 L518.179401,267.273628 L519.047695,261.138196 C519.525831,257.763517 520.297541,252.764134 520.763245,250.0292 C521.227992,247.29331 522.036041,242.667829 522.560077,239.748334 C523.083157,236.829796 523.912244,232.278904 524.400898,229.63386 L525.292142,224.825731 L525.322743,220.672648 L525.351431,216.518608 L524.41333,214.599373 L523.473316,212.679182 L522.200519,211.457068 L520.925811,210.233998 L518.836359,209.175406 L516.744996,208.114902 L513.62851,207.421606 L510.512024,206.72831 L506.222194,206.402221 L501.931407,206.076133 L496.405119,206.418478 C493.364179,206.605907 489.087736,206.97694 486.898833,207.243739 L482.918835,207.7257 L480.206851,207.736219 L477.494868,207.746738 L477.099928,209.654498 C476.882854,210.70257 476.279448,213.193655 475.760193,215.191305 C475.239025,217.187998 474.862255,218.869121 474.921543,218.92841 C474.979876,218.987699 476.430538,218.657786 478.144175,218.196863 C479.857812,217.734984 483.499291,216.977618 486.236137,216.510958 L491.209701,215.663702 L495.686004,215.480098 L500.163263,215.294582 L503.047375,215.800449 L505.931487,216.306316 L507.855504,217.255893 L509.780477,218.206426 L510.858194,219.812961 L511.936867,221.418539 L511.921566,223.950744 L511.90531,226.483904 L511.334416,229.262827 L510.762566,232.042706 L498.830222,232.085738 L486.897877,232.127814 L482.993424,233.198837 C480.84564,233.787899 478.467395,234.570129 477.708116,234.936381 C476.948837,235.303588 476.189558,235.603857 476.020298,235.603857 C475.851995,235.603857 474.574417,236.311498 473.181131,237.178835 L470.648926,238.7519 L468.655102,240.742856 C467.557303,241.837786 466.156367,243.479702 465.540528,244.391984 C464.92469,245.30331 463.923475,247.208201 463.317199,248.625395 L462.213663,251.200631 L461.70684,254.096219 L461.200016,256.992763 L461.200016,260.030834 L461.200016,263.069862 L461.682933,265.600154 L462.167762,268.12949 L463.064744,269.779057 C463.559136,270.685602 464.466637,272.015774 465.079606,272.732977 L466.19653,274.03733 L468.178879,275.242231 L470.162184,276.447132 L472.433327,277.08879 C473.682217,277.441654 475.582326,277.870063 476.657175,278.040279 L478.609879,278.348198 L483.087138,278.220058 L483.084269,278.220058 Z M487.229703,268.946145 L484.576052,269.085761 L482.819382,268.63727 C481.853549,268.391508 480.38663,267.842609 479.560412,267.418025 L478.060024,266.646315 L477.239543,265.671875 C476.78914,265.135407 476.100625,264.083509 475.70951,263.332837 L474.999001,261.967282 L474.860342,258.780032 L474.71977,255.591826 L475.282057,253.658247 C475.590933,252.594874 476.316742,250.748315 476.89433,249.556802 L477.944315,247.388937 L479.955352,245.3932 L481.965433,243.396507 L484.099829,242.368516 L486.234225,241.341481 L488.88692,240.710343 L491.540571,240.08016 L499.831437,240.08016 L508.122303,240.08016 L508.64634,240.297234 L509.170376,240.513351 L508.729535,243.116319 C508.486642,244.5469 507.908099,247.135525 507.442395,248.868287 C506.977647,250.602006 506.157167,253.148555 505.618787,254.528453 C505.080406,255.909308 504.639566,257.129509 504.639566,257.240437 C504.639566,257.35232 504.094491,258.357361 503.427971,259.475241 L502.217332,261.509229 L500.229246,263.480102 C499.136228,264.562601 498.119712,265.449064 497.972447,265.449064 C497.826137,265.449064 497.155792,265.822966 496.483533,266.279107 L495.26142,267.107237 L492.57143,267.958318 L489.882397,268.808442 L487.229703,268.946145 Z M595.172575,278.337679 L598.32253,278.377843 L601.308007,277.893013 C602.949924,277.62717 605.038419,277.197805 605.950701,276.939612 C606.862027,276.681419 608.5049,276.012029 609.597917,275.451654 L611.588873,274.43227 L613.300597,272.925187 L615.011365,271.418105 L616.814892,269.014997 C617.806544,267.692475 618.703526,266.387165 618.809672,266.112716 L619.001883,265.614499 L618.834535,267.273628 C618.742733,268.184954 618.537135,269.677692 618.375525,270.589975 C618.214872,271.502257 617.986323,273.255101 617.865833,274.486777 L617.645891,276.724451 L624.152356,276.724451 L630.656909,276.724451 L630.656909,274.486777 L630.656909,272.248148 L631.647605,263.79089 C632.19268,259.13959 632.998816,252.947738 633.4387,250.0292 C633.878585,247.109706 634.558493,242.932715 634.949608,240.743812 C635.33881,238.554909 636.030194,234.599773 636.483466,231.955685 C636.938651,229.311597 637.759131,224.684203 638.30803,221.675776 C638.855973,218.665436 639.734786,213.890777 640.259779,211.064041 C640.783815,208.236348 641.60047,203.833678 642.071911,201.280436 C642.543353,198.727193 643.388696,194.249934 643.950027,191.332352 C644.51327,188.413814 645.331838,184.309501 645.772679,182.211443 C646.214476,180.115298 646.57499,178.285952 646.574034,178.150162 L646.574036,177.900575 L639.476593,177.900575 L632.379152,177.900575 L632.169729,179.97377 C632.054977,181.113644 631.510859,184.881351 630.962916,188.347832 C630.414016,191.8124 629.518947,197.333907 628.973873,200.616784 C628.428798,203.899661 627.904762,207.084042 627.808179,207.69223 L627.630312,208.797679 L627.070894,208.559568 C626.762975,208.428559 625.09237,207.964767 623.360564,207.529664 L620.210609,206.738828 L615.899741,206.403178 L611.587916,206.067527 L607.939744,206.407003 L604.292528,206.747435 L600.976181,207.586084 L597.659835,208.423777 L594.509879,209.960504 L591.358011,211.497231 L589.037142,213.214693 L586.716274,214.933112 L584.710974,217.083764 C583.608394,218.265715 582.016204,220.221288 581.17086,221.429058 L579.637002,223.624655 L577.833476,227.375149 C576.842779,229.438781 575.635966,232.170846 575.153049,233.447467 C574.669176,234.725045 573.818095,237.554649 573.258677,239.736859 L572.244074,243.705382 L571.743944,248.857768 L571.243815,254.008242 L571.618673,258.153675 L571.995444,262.299108 L572.438197,263.79089 C572.683958,264.612327 573.197476,266.074465 573.582853,267.040298 L574.282843,268.79888 L575.559464,270.525904 L576.837042,272.254842 L578.294398,273.448268 L579.751755,274.64265 L581.741754,275.631433 C582.836684,276.173639 584.671767,276.876498 585.821204,277.191111 C586.969685,277.505724 588.835369,277.884407 589.966638,278.030716 C591.096949,278.177982 593.438856,278.316641 595.172575,278.337679 Z M600.827003,268.930845 L598.32253,269.061854 L596.633756,268.75776 C595.704261,268.591369 594.21726,268.141922 593.327929,267.761326 L591.712788,267.069942 L590.352971,265.954931 L588.99411,264.841832 L587.984288,262.907296 L586.974467,260.972761 L586.512588,258.817327 L586.053578,256.660937 L586.092785,252.350069 L586.131036,248.039201 L586.665591,244.224637 L587.200147,240.411986 L588.031146,237.759291 C588.488243,236.300022 588.865014,234.922993 588.866926,234.699225 C588.870751,234.476414 589.320199,233.282989 589.870054,232.047487 C590.418954,230.811029 591.335061,228.905182 591.906911,227.810252 C592.47876,226.715322 593.547871,225.010291 594.281331,224.019595 C595.016703,223.028899 596.325837,221.53616 597.190306,220.702292 C598.054774,219.870337 599.428935,218.776363 600.246547,218.274321 L601.730679,217.361083 L604.338429,216.458363 L606.945223,215.555644 L612.417003,215.552775 L617.888784,215.552775 L621.038739,216.427762 C622.772458,216.90781 624.612322,217.465316 625.127752,217.666133 L626.065854,218.030472 L625.883206,218.940842 C625.782798,219.441928 625.387858,221.642306 625.007262,223.830253 C624.626666,226.019157 623.875038,230.19806 623.33857,233.116597 C622.802102,236.035135 621.977797,240.437805 621.506355,242.899246 C621.03587,245.361643 620.354049,248.495342 619.990666,249.862809 C619.62824,251.231232 619.115679,253.125604 618.852704,254.073268 C618.58973,255.020933 617.964329,256.663805 617.462287,257.721441 C616.960245,258.780032 616.081432,260.317716 615.509582,261.138196 C614.937732,261.958676 613.971899,263.096638 613.361798,263.664663 C612.750741,264.2346 611.431088,265.244422 610.42796,265.910942 L608.604352,267.123494 L605.967914,267.96023 L603.331476,268.796967 L600.827003,268.930845 Z M112.760819,276.724451 L120.817399,276.724451 L121.395942,273.16043 C121.713424,271.199119 122.335,267.430456 122.775841,264.786368 C123.216682,262.14228 124.038118,257.21653 124.599449,253.842807 C125.161736,250.468128 126.005167,245.468745 126.472783,242.733811 C126.940399,239.997921 127.684378,235.753992 128.124262,233.30307 C128.565103,230.850236 129.009769,228.761741 129.111134,228.65942 L129.297607,228.473904 L150.96383,228.473904 L172.629097,228.473904 L172.870078,228.713928 L173.111058,228.954908 L172.734287,230.869362 C172.528689,231.923172 171.917632,235.171623 171.377339,238.090161 C170.837046,241.008699 169.928589,245.933493 169.357696,249.034678 C168.788715,252.134908 167.964409,256.537578 167.527394,258.817327 C167.089422,261.097076 166.203915,265.871735 165.559389,269.429062 C164.915819,272.985433 164.38987,276.081837 164.391782,276.310385 L164.395607,276.724451 L172.485657,276.724451 L180.576663,276.724451 L180.934308,274.652212 C181.132256,273.512338 181.447825,271.460181 181.639079,270.092714 C181.828421,268.724291 182.288387,265.813403 182.658464,263.625456 C183.028541,261.437508 183.767738,257.108471 184.302293,254.008242 C184.835892,250.908013 185.730961,245.610273 186.289423,242.235594 C186.847885,238.860915 187.676016,233.937078 188.131201,231.292989 C188.584473,228.646989 189.394434,224.170686 189.928989,221.34395 C190.463545,218.516258 191.354789,213.741598 191.909426,210.731258 C192.464063,207.722831 193.293149,203.170983 193.754072,200.616784 C194.214994,198.063541 195.0546,193.437104 195.620712,190.336875 C196.186824,187.236645 196.901159,183.618117 197.208121,182.294639 L197.766583,179.890574 L189.575169,179.890574 L181.382799,179.890574 L181.159988,181.466508 C181.038541,182.331933 180.642645,184.757992 180.281175,186.855093 C179.918748,188.953151 179.262747,192.682607 178.82095,195.145003 C178.379153,197.608357 177.57206,202.308427 177.026986,205.59226 C176.481912,208.874181 175.787659,213.220431 175.483565,215.249637 L174.930841,218.937973 L162.905738,219.181822 L150.879678,219.424715 L140.808236,219.185647 C135.26856,219.054638 130.705237,218.919804 130.666986,218.889203 C130.629692,218.85669 130.818077,217.568593 131.085833,216.025173 C131.354545,214.481752 131.861368,211.800369 132.213276,210.068563 C132.565183,208.3358 133.23266,204.903745 133.695495,202.440392 C134.159286,199.978951 134.683323,196.919842 134.862145,195.64322 C135.040012,194.366599 135.413913,192.239853 135.692188,190.916375 C135.970463,189.594809 136.498324,186.809192 136.865532,184.727391 C137.231784,182.64559 137.622899,180.705317 137.734782,180.416523 L137.935599,179.890574 L129.810168,179.890574 L121.68378,179.890574 L121.164525,182.792856 C120.877644,184.388871 120.496092,186.663839 120.316313,187.849615 C120.135578,189.03539 119.530258,192.840391 118.97084,196.305916 C118.411422,199.771441 117.585204,204.920002 117.1348,207.746738 C116.684397,210.57443 115.865829,215.722991 115.315017,219.18756 C114.762293,222.654041 113.85288,228.025413 113.291549,231.125642 C112.731174,234.227784 111.9193,238.629498 111.487066,240.909247 C111.055788,243.188996 110.234352,247.517077 109.660589,250.526461 C109.087783,253.5368 108.249134,257.789336 107.800643,259.978239 C107.351196,262.166187 106.854891,264.703173 106.698063,265.614499 C106.539322,266.526781 106.026761,269.157481 105.556276,271.460181 C105.086747,273.762881 104.702326,275.88867 104.702326,276.18607 L104.702326,276.724451 L112.760819,276.724451 Z M201.95983,276.724451 L209.092653,276.724451 L209.29347,276.200414 C209.405353,275.910664 209.495243,275.154254 209.495243,274.519291 C209.495243,273.882414 209.94469,270.573718 210.491677,267.166526 C211.040576,263.759334 211.946164,258.212008 212.505583,254.837329 C213.064045,251.463606 213.889306,246.538812 214.33971,243.893767 C214.790113,241.249679 215.589555,236.847965 216.117417,234.110163 C216.645278,231.375229 217.456196,227.121737 217.919031,224.660296 C218.380909,222.197899 219.291279,217.51313 219.940587,214.249378 C220.589895,210.985626 221.201908,208.185666 221.300404,208.025969 L221.481139,207.734306 L214.267989,207.823239 L207.05484,207.912173 L206.45239,212.223997 C206.123433,214.595548 205.400492,219.296574 204.847767,222.669341 C204.295999,226.04402 203.460219,231.193537 202.99069,234.110163 C202.521161,237.029657 201.704506,241.729727 201.173776,244.557419 C200.643046,247.384155 199.830215,251.71128 199.366424,254.173677 C198.903589,256.63703 198.07259,260.964154 197.519866,263.79089 C196.967141,266.618583 196.226032,270.348994 195.872211,272.081757 C195.517435,273.815475 195.137796,275.568319 195.026868,275.97856 L194.827008,276.724451 L201.95983,276.724451 Z M368.790804,276.724451 L375.871032,276.724451 L376.083324,273.728455 C376.200945,272.081757 376.600666,268.760629 376.973612,266.349871 C377.346557,263.939112 378.110617,259.13194 378.670036,255.667371 C379.23041,252.20089 380.270833,246.432666 380.982298,242.847607 C381.695676,239.263505 382.4999,235.700441 382.771481,234.930643 C383.044018,234.159889 383.265872,233.326021 383.265872,233.076434 C383.265872,232.825891 383.798515,231.464162 384.448779,230.049838 C385.099043,228.635513 386.311594,226.470517 387.14355,225.237884 L388.655414,222.996385 L390.677926,221.122095 L392.701395,219.249717 L395.196305,218.058204 L397.691215,216.865734 L401.505778,216.886772 L405.318429,216.906854 L407.193676,217.466272 C408.224536,217.774192 409.1569,218.026647 409.265915,218.026647 C409.374929,218.026647 409.463863,217.674739 409.463863,217.243461 C409.463863,216.81314 409.836808,214.629017 410.292949,212.389432 C410.748134,210.150802 411.122036,208.224873 411.122036,208.109164 C411.122036,207.993456 410.040494,207.569828 408.717971,207.168194 C407.395449,206.76656 405.56706,206.345801 404.655734,206.232005 L402.997561,206.027363 L400.842127,206.408915 C399.656351,206.618338 397.893944,207.081173 396.925242,207.437862 C395.955584,207.793595 394.355743,208.600687 393.368872,209.231826 C392.382957,209.863921 390.848142,211.093685 389.959767,211.964847 C389.069479,212.836966 387.573872,214.595548 386.63577,215.872169 C385.696712,217.148791 384.715579,218.492351 384.454517,218.85669 L383.980207,219.519385 L384.268044,218.193994 C384.426785,217.463404 384.868582,215.075596 385.249178,212.887649 C385.629773,210.698745 386.022801,208.645632 386.118428,208.32815 L386.295338,207.746738 L379.972476,207.746738 L373.648659,207.746738 L373.648659,208.54618 C373.648659,208.986064 373.274757,211.633978 372.819572,214.432026 C372.363431,217.23103 371.610846,221.907193 371.148011,224.825731 C370.685176,227.744269 369.862783,232.818241 369.321534,236.101118 C368.780285,239.383995 367.957892,244.085022 367.494101,246.546462 C367.03031,249.008859 366.207917,253.33694 365.664755,256.164632 C365.123506,258.990412 364.221743,263.617805 363.664237,266.444541 C363.105775,269.272234 362.437342,272.609618 362.180105,273.864245 C361.920956,275.11696 361.710576,276.273091 361.710576,276.432788 L361.710576,276.724451 L368.790804,276.724451 Z M536.863973,276.724451 L544.102942,276.724451 L544.102942,274.509728 L544.102942,272.293093 L544.93681,266.798362 C545.396776,263.777503 546.153186,258.990412 546.619846,256.164632 C547.086506,253.33694 547.666963,249.755706 547.910812,248.204635 C548.155617,246.654521 548.802056,243.297055 549.348086,240.743812 C549.896029,238.189613 550.57785,235.429816 550.865688,234.60838 C551.153525,233.787899 551.39068,232.9263 551.393549,232.694882 C551.397374,232.463465 552.014169,230.973595 552.764841,229.384273 L554.131352,226.493467 L555.934878,224.098009 L557.737449,221.703508 L559.710235,220.220332 C560.794646,219.403677 562.53984,218.322135 563.587912,217.814355 L565.492803,216.891554 L569.63728,216.920242 L573.782713,216.949886 L575.415067,217.472966 L577.046465,217.997003 L577.321871,217.826786 L577.596321,217.65657 L577.611621,216.598935 C577.618315,216.016566 577.973091,213.851569 578.399588,211.786025 L579.175123,208.031706 L578.303005,207.690318 C577.823913,207.502889 576.685951,207.114643 575.773669,206.827762 L574.115496,206.304682 L571.130975,206.313288 L568.146454,206.319982 L565.713702,207.1768 L563.280949,208.031706 L561.454472,209.13333 L559.628952,210.234954 L557.253576,212.722214 L554.879156,215.208517 L553.603491,217.138272 C552.902544,218.199732 552.284793,219.020212 552.231242,218.96188 C552.177691,218.904503 552.559243,216.692649 553.078498,214.048561 C553.597753,211.403517 554.029987,208.903825 554.037637,208.493585 L554.051982,207.746738 L547.916549,207.746738 L541.782073,207.746738 L541.782073,207.95903 C541.782073,208.074739 541.476067,210.201484 541.102165,212.683963 C540.728263,215.167398 539.976634,219.95927 539.434429,223.333949 C538.890311,226.707672 537.999066,232.154589 537.45208,235.438423 C536.906049,238.7213 536.081744,243.422326 535.620821,245.884723 C535.160855,248.346164 534.343244,252.674244 533.803907,255.50098 C533.264571,258.328673 532.379064,262.880521 531.835902,265.616411 C531.292741,268.351345 530.571713,271.970829 530.236062,273.657691 L529.624048,276.724451 L536.863973,276.724451 Z M215.986408,195.801961 L217.998401,195.808655 L219.599198,195.263581 L221.200951,194.718507 L222.617188,193.281232 L224.034381,191.844913 L224.779316,189.929503 L225.526164,188.01505 L225.551983,185.195964 L225.578758,182.378791 L224.916063,181.277167 L224.252411,180.176499 L223.098192,179.462165 L221.943018,178.746875 L219.45002,178.746875 L216.957022,178.746875 L215.259642,179.50711 L213.562262,180.266389 L212.577303,181.322111 L211.592344,182.378791 L210.817765,184.202399 L210.044142,186.026007 L209.897833,188.867087 L209.75248,191.708167 L210.471595,193.120578 L211.192623,194.532034 L212.583041,195.163173 L213.972502,195.793355 L215.986408,195.801961 Z" id="path2997" fill="#B3131B"></path>
        </g>
    </g>
</svg>
