<svg height="471" viewBox="0 0 750 471" width="750" xmlns="http://www.w3.org/2000/svg" xmlns:xlink="http://www.w3.org/1999/xlink"><linearGradient id="a" x1=".031608%" x2="99.974315%" y1="49.999857%" y2="49.999857%"><stop offset="0" stop-color="#007b40"/><stop offset="1" stop-color="#55b330"/></linearGradient><linearGradient id="b" x1=".471693%" x2="99.986009%" y1="49.999826%" y2="49.999826%"><stop offset="0" stop-color="#1d2970"/><stop offset="1" stop-color="#006dba"/></linearGradient><linearGradient id="c" x1=".113881%" x2="99.986%" y1="50.000896%" y2="50.000896%"><stop offset="0" stop-color="#6e2b2f"/><stop offset="1" stop-color="#e30138"/></linearGradient><g fill="none"><rect fill="#0e4c96" height="471" rx="40" width="750"/><path d="m617.243183 346.766281c0 41.614606-33.728291 75.359693-75.359693 75.359693h-409.126667v-297.881058c0-41.6262334 33.733028-75.3704593 75.36486-75.3704593l409.1215-.0004307-.000431 297.892255z" fill="#fff"/><path d="m483.858874 242.044797c11.683825.253488 23.437314-.515991 35.07713.400086 11.78724 2.200795 14.627911 20.042991 4.156336 25.887628-7.141594 3.849604-15.632844 1.432185-23.379012 2.113697h-15.854454zm41.832952-32.14431c2.596665 9.164192-6.237923 17.391631-15.065909 16.130079h-26.767043c.184884-8.642125-.367529-18.021593.272179-26.208903 10.723889.301723 21.548523-.615814 32.209341.48019 4.581405 1.149705 8.413541 4.915859 9.351432 9.598634zm64.428586-135.9032616c.49746 17.5012286.071059 35.9264246.213178 53.7829666-.034453 72.596166.072352 145.193982-.054694 217.789111-.468476 27.207289-24.582372 50.844375-51.600147 51.387391-27.045829.111757-54.094452.015934-81.141353.047803v-109.751206c29.469604-.153488 58.958644.307709 88.416125-.231697 13.667199-.858825 28.632506-9.875899 29.269759-24.91422 1.610381-15.101891-12.631152-25.550189-26.152184-27.20169-5.198323-.135142-5.043964-1.514838 0-2.116712 12.891974-2.786489 23.019579-16.133185 19.22569-29.498743-3.236266-14.057855-18.772947-19.498809-31.69642-19.472461-26.351818-.179156-52.709067-.025409-79.06297-.076658.171189-20.488702-.35448-41.000457.285314-61.473746 2.087651-26.7159874 26.805893-48.7478321 53.447049-48.269708 26.283407-.0002868 52.567978.0005741 78.850653-.0004306z" fill="url(#a)"/><path d="m159.740429 125.040498c.67326-27.1638388 24.88819-50.6114681 51.874368-51.0079582 26.944696-.0825712 53.891407-.0116279 80.836874-.0353144-.074031 90.8852626.148234 181.7764466-.11137 272.6579966-1.038003 26.83358-24.989753 49.833439-51.678945 50.30707-26.996341.098665-53.995081.013782-80.992344.042205v-113.453622c26.222611 6.194616 53.722126 8.831643 80.473394 4.721367 15.992103-2.574874 33.487529-10.424216 38.901855-27.014675 3.985861-14.1913 1.741462-29.125965 2.333766-43.691102v-33.824924h-46.296781c-.20814 22.370604.426012 44.780906-.3351 67.125566-1.248296 13.734107-14.845999 22.459889-27.799718 21.994694-16.066681.168734-47.898878-11.640005-47.898878-11.640005-.080058-41.916996.466764-94.407411.692879-136.181298z" fill="url(#b)"/><path d="m309.719995 197.390136c-2.434207.517244-.490854-8.300677-1.113697-11.646172.165935-21.150327-.346253-42.323013.28342-63.458137 2.082823-26.8287443 26.991544-48.9157165 53.73903-48.288171h78.765812c-.073902 90.88469.147933 181.775284-.111154 272.656278-1.038994 26.834093-24.992062 49.833168-51.681319 50.308358-26.997482.099699-53.99738.014212-80.995789.042636v-124.297304c18.440112 15.128222 43.49944 17.484624 66.471655 17.52586 17.317057-.006029 34.533908-2.675619 51.35019-6.67055v-22.772637c-18.953485 9.446312-41.233335 15.445518-62.243398 10.017669-14.655694-3.650599-25.293855-17.811283-25.056232-32.935762-1.698503-15.72852 7.524118-32.335319 22.981724-37.011349 19.190686-6.00831 40.10755-1.412401 58.096107 6.39794 3.854182 2.018155 7.764316 4.521547 6.221799-1.920751v-17.899686c-30.084562-7.157407-62.101499-9.791953-92.328705-2.004739-8.748245 2.468155-17.271248 6.211028-24.379443 11.956517z" fill="url(#c)"/></g></svg>