<svg height="471" viewBox="0 0 750 471" width="750" xmlns="http://www.w3.org/2000/svg"><g fill="none"><rect fill="#000" height="471" rx="40" width="750"/><g transform="translate(133 48)"><path d="m146.8 373.77v-24.77c0-9.35-6-15.64-15.55-15.72-5-.08-10.26 1.49-13.9 7-2.73-4.38-7-7-13.07-7-4.6271851-.232271-9.0320026 2.000568-11.58 5.87v-4.88h-8.61v39.55h8.69v-21.97c0-6.87 3.81-10.51 9.68-10.51 5.71 0 8.61 3.72 8.61 10.42v22h8.69v-21.91c0-6.87 4-10.51 9.68-10.51 5.87 0 8.69 3.72 8.69 10.42v22zm48.48-19.77v-19.77h-8.61v4.77c-2.73-3.56-6.87-5.79-12.49-5.79-11.09 0-19.77 8.69-19.77 20.77s8.69 20.77 19.77 20.77c5.63 0 9.76-2.23 12.49-5.79v4.8h8.61zm-32 0c0-6.95 4.55-12.66 12-12.66 7.12 0 11.91 5.46 11.91 12.66s-4.8 12.66-11.91 12.66c-7.47 0-12.02-5.71-12.02-12.66zm216.12-20.81c2.906602-.028642 5.790743.511498 8.49 1.59 2.514719 1.004654 4.807997 2.492736 6.75 4.38 1.913063 1.875758 3.429744 4.116773 4.46 6.59 2.146003 5.297587 2.146003 11.222413 0 16.52-1.030256 2.473227-2.546937 4.714242-4.46 6.59-1.941678 1.887671-4.235042 3.375809-6.75 4.38-5.466835 2.128264-11.533165 2.128264-17 0-2.510499-1.00137-4.797832-2.490006-6.73-4.38-1.901515-1.881202-3.410681-4.121157-4.44-6.59-2.146003-5.297587-2.146003-11.222413 0-16.52 1.029788-2.46859 2.538895-4.708458 4.44-6.59 1.932334-1.889787 4.219623-3.378394 6.73-4.38 2.705493-1.08107 5.596681-1.621257 8.51-1.59zm0 8.14c-1.681779-.014559-3.350036.301425-4.91.93-1.470254.590363-2.804249 1.475156-3.92 2.6-1.122908 1.148077-2.006664 2.507702-2.6 4-1.265729 3.309784-1.265729 6.970216 0 10.28.592861 1.492544 1.476675 2.852258 2.6 4 1.115751 1.124844 2.449746 2.009637 3.92 2.6 3.159488 1.239283 6.670512 1.239283 9.83 0 1.474284-.593902 2.814154-1.47808 3.94-2.6 1.132829-1.144071 2.023848-2.504406 2.62-4 1.265729-3.309784 1.265729-6.970216 0-10.28-.596152-1.495594-1.487171-2.855929-2.62-4-1.125846-1.12192-2.465716-2.006098-3.94-2.6-1.562387-.633286-3.234193-.952696-4.92-.94zm-137.3 12.67c-.08-12.33-7.69-20.77-18.78-20.77-11.58 0-19.69 8.44-19.69 20.77 0 12.58 8.44 20.77 20.27 20.77 6 0 11.42-1.49 16.22-5.54l-4.22-6.37c-3.266738 2.619648-7.313106 4.076341-11.5 4.14-5.54 0-10.59-2.56-11.83-9.68h29.37c.06-1.09.16-2.16.16-3.32zm-29.45-3.47c.91-5.71 4.38-9.6 10.51-9.6 5.54 0 9.1 3.47 10 9.6zm65.69-6.2c-3.757197-2.164453-8.004435-3.334681-12.34-3.4-4.72 0-7.53 1.74-7.53 4.63 0 2.65 3 3.39 6.7 3.89l4.05.58c8.61 1.24 13.82 4.88 13.82 11.83 0 7.53-6.62 12.91-18 12.91-6.45 0-12.41-1.66-17.13-5.13l4.05-6.7c3.797785 2.817702 8.43304 4.275905 13.16 4.14 5.87 0 9-1.74 9-4.8 0-2.23-2.23-3.47-6.95-4.14l-4.05-.58c-8.85-1.24-13.65-5.21-13.65-11.67 0-7.86 6.45-12.66 16.46-12.66 6.29 0 12 1.41 16.13 4.14zm41.35-2.23h-14.07v17.9c0 4 1.41 6.62 5.71 6.62 2.684365-.088246 5.302562-.85547 7.61-2.23l2.48 7.36c-3.227525 2.011602-6.956934 3.072196-10.76 3.06-10.18 0-13.73-5.46-13.73-14.65v-18h-8v-7.86h8v-12h8.69v12h14.06zm29.78-8.85c2.086514.010012 4.15609.375232 6.12 1.08l-2.65 8.11c-1.710096-.683978-3.538347-1.023802-5.38-1-5.63 0-8.44 3.64-8.44 10.18v22.17h-8.6v-39.56h8.48v4.77c2.149726-3.693802 6.148028-5.915508 10.42-5.79z" fill="#fff"/><path d="m176.95 32.39h130.5v234.51h-130.5z" fill="#7673c0"/><path d="m185.24 149.64c-.03486-45.77046 20.985386-89.0131626 57-117.26-61.147032-48.0618249-148.9622811-41.06578574-201.7283628 16.0712353-52.7660817 57.1370207-52.7660817 145.2305087 0 202.3675297s140.5813308 64.13306 201.7283628 16.071235c-36.011849-28.244672-57.031785-71.483049-57-117.25z" fill="#eb001b"/><path d="m483.5 149.64c.001034 57.09874-32.59844 109.186356-83.954442 134.142862s-112.453215 18.400897-157.345558-16.882862c35.966584-28.279813 56.964715-71.501935 56.964715-117.255s-20.998131-88.975187-56.964715-117.255c44.890924-35.28264477 105.985845-41.83904288 157.341061-16.8850475 51.355216 24.9539954 83.956145 77.0381115 83.958939 134.1350475z" fill="#00a1df"/></g></g></svg>