<svg height="471" viewBox="0 0 750 471" width="750" xmlns="http://www.w3.org/2000/svg"><g fill="none"><rect fill="#000" height="471" rx="40" width="750"/><path d="m675.000003 235.50625c0 99.133334-80.350001 179.495835-179.483335 179.495835-99.120834 0-179.479168-80.362501-179.479168-179.495835 0-99.141668 80.358334-179.508335 179.479168-179.508335 99.133334 0 179.483335 80.366667 179.483335 179.508335" fill="#d9222a"/><path d="m356.870834 349.489584c-4.958334-6.0125-9.525-12.358333-13.675-19.008333h63.6125c3.816667-6.095834 7.2625-12.441667 10.341667-19.012501h-84.291668c-2.870833-6.15-5.425-12.491666-7.595833-19h99.475001c5.9875-17.904167 9.229167-37.05 9.229167-56.9625 0-13.045834-1.391667-25.7625-4.029167-38.012501h-109.862501c1.391667-6.479166 3.141667-12.816666 5.208333-19.008333h99.441668c-2.183334-6.508333-4.720834-12.85-7.591667-19.004167h-84.254167c3.075-6.5625 6.529166-12.904167 10.3375-19.008333h63.570834c-4.145834-6.629167-8.725-12.975-13.670834-18.991667h-36.225c5.570833-6.766667 11.629167-13.116667 18.1125-19-31.854167-28.8833338-74.1375-46.483334-120.516668-46.483334-99.129167 0-179.487501 80.366667-179.487501 179.508335 0 99.133334 80.358334 179.495835 179.487501 179.495835 46.387501 0 88.666668-17.595834 120.516668-46.475001 6.495833-5.891667 12.558334-12.258333 18.133334-19.0375z" fill="#0097d0"/><path d="m651.075003 335.543751c0-3.2 2.595833-5.795834 5.8-5.795834 3.2 0 5.791666 2.595834 5.791666 5.795834 0 3.204166-2.591666 5.8-5.791666 5.8-3.204167 0-5.8-2.595834-5.8-5.8zm5.8 4.408333c2.433333 0 4.404166-1.966667 4.404166-4.408333 0-2.433334-1.970833-4.395834-4.404166-4.395834-2.433334 0-4.408334 1.9625-4.408334 4.395834 0 2.441666 1.975 4.408333 4.408334 4.408333zm-.7875-1.8625h-1.183334v-5.091667h2.15c.445834 0 .904167.004167 1.3.258334.416667.283333.645834.775.645834 1.270833 0 .583333-.3375 1.1125-.879167 1.316667l.933333 2.245833h-1.316666l-.775-2.008333h-.875zm0-2.879167h.658333c.245833 0 .504167.016667.725-.1.195833-.129166.3-.366666.3-.591666 0-.1875-.125-.416667-.2875-.5125-.2125-.125-.541667-.1-.7625-.1h-.633333z" fill="#000"/><path d="m372.445834 284.00625c-7.670834 2.033334-15.0875 3.025-22.929167 3.008334-25.016667-.025-38.045834-11.416667-38.045834-33.200001 0-25.458333 16.5875-44.183333 39.100001-44.183333 18.416666 0 30.175 10.5 30.175 26.945833 0 5.458334-.795834 10.770834-2.745834 18.295834h-44.4875c-1.583333 10.633333 6.1875 15.304166 19.4125 15.304166 7.925 0 15.091667-1.425 23.025-4.6125zm-11.9625-44.15c0-1.608334 2.475-13.033334-10.4-13.283334-7.108334 0-12.208334 4.725-14.270834 13.283334z" fill="#000"/><path d="m387.516667 234.864583c0 9.404167 5.295834 15.9 17.329167 20.7375 9.2 3.770834 10.65 4.858334 10.65 8.220834 0 4.6625-4.066667 6.804166-13.091667 6.745833-6.779166-.05-12.9625-.870833-20.2625-2.895833l-3.229167 17.154167c6.487501 1.504166 15.587501 2 23.650001 2.1875 24.025 0 35.116667-7.866667 35.116667-24.866667 0-10.216667-4.625-16.233334-16.033334-20.7125-9.5375-3.808334-10.658333-4.637501-10.658333-8.083334 0-4.05 3.779166-6.1 11.15-6.1 4.4625 0 10.579167.4125 16.379167 1.108333l3.258333-17.241666c-5.9125-.825-14.883333-1.483334-20.075-1.483334-25.45 0-34.258334 11.458334-34.183334 25.229167" fill="#000"/><path d="m299.275 285.785417h-18.6625l.445833-7.820834c-5.691667 6.170834-13.270833 9.041667-23.558334 9.041667-12.175 0-20.516666-8.325-20.516666-20.295833 0-18.195834 14.5-28.691667 39.429167-28.691667 2.5625 0 5.820833.191666 9.166666.5625.691667-2.433334.879167-3.479167.879167-4.808334 0-4.979166-3.920833-6.8125-14.4125-6.8125-10.341667.041667-17.320834 1.570834-23.795834 3.3125l3.1875-16.7c11.195834-2.845833 18.529167-3.941666 26.825001-3.941666 19.304166 0 29.5 7.566666 29.5 21.795833.166667 3.795833-1.158333 11.4125-1.820833 14.745834-.758334 4.854166-6.108334 32.975-6.666667 39.6125zm-16.379167-33.191667c-2.366667-.241667-3.395833-.3125-5.0125-.3125-12.729167 0-19.183333 3.7875-19.183333 11.266667 0 4.691666 3.15 7.633333 8.058333 7.633333 9.145833 0 15.75-7.65 16.1375-18.5875z" fill="#000"/><path d="m477.004168 284.60625c-6.125 1.679167-10.895834 2.408334-16.058334 2.408334-11.433333 0-17.675-5.841667-17.675-16.250001-.358333-2.858333 2.433334-16.058333 3.066667-19.7375.633333-3.691666 10.5375-57.491667 10.5375-57.491667h22.2125l-3.3625 17.8h11.391667l-3.095833 18.170834h-11.441667s-6.279167 31.529167-6.279167 33.933333c0 3.825 2.316667 5.4875 7.633334 5.4875 2.545833 0 4.508333-.2375 6.029166-.691666z" fill="#000"/><path d="m576.250002 209.63125c-16.279167 0-29 6.7-36.3875 17.891666l6.4125-16.595833c-11.816667-4.3375-19.433334 1.85-26.325 10.65 0 0-1.154167 1.4625-2.3 2.8v-13.05h-20.858334c-2.825 23.029167-7.820833 46.379167-11.729167 69.445834l-.941666 5.020833h22.4375c2.125-11.708333 3.875-21.2125 5.616667-28.7875 4.766666-20.7875 12.7875-27.141667 24.829166-24.333334-2.779166 5.979167-4.304166 12.891667-4.304166 20.554167 0 18.579167 10.091666 33.787501 35.15 33.787501 25.2875 0 43.595834-13.508334 43.595834-44.308334 0-18.579167-12.2-33.075-35.195834-33.075zm-6.529167 59.316667c-7.925.125-12.729166-6.525-12.729166-16.470834 0-11.791666 7.0125-25.1125 18.275-25.1125 9.0875 0 12.2 7.204167 12.2 14.879167 0 16.779167-6.875 26.704167-17.745834 26.704167z" fill="#000"/><path d="m226.529166 285.79375h-22.341667l13.279167-69.954167-30.570834 69.954167h-20.366667l-3.725-69.55-13.320833 69.55h-20.270834l17.266667-90.995834h34.912501l2.9125 50.725001 22.116666-50.725001h37.720834z" fill="#000"/><g fill="#fff"><path d="m613.150002 274.385417c0-3.195834 2.595834-5.795834 5.795834-5.795834 3.204166 0 5.795833 2.6 5.795833 5.795834 0 3.208333-2.591667 5.804166-5.795833 5.804166-3.2 0-5.795834-2.595833-5.795834-5.804166zm5.795834 4.4125c2.433333 0 4.408333-1.979167 4.408333-4.4125 0-2.433334-1.975-4.404167-4.408333-4.404167-2.433334 0-4.408334 1.970833-4.408334 4.404167 0 2.433333 1.975 4.4125 4.408334 4.4125zm-.783334-1.866667h-1.1875v-5.083333h2.15c.45 0 .908334 0 1.304167.25.408333.279166.645833.766666.645833 1.270833 0 .579167-.3375 1.116667-.883333 1.316667l.933333 2.245833h-1.316666l-.770834-2.008333h-.875zm0-2.8875h.658334c.241666 0 .504166.016667.725-.095833.195833-.133334.295833-.358334.295833-.5875 0-.195834-.120833-.416667-.283333-.5125-.2125-.129167-.541667-.095834-.7625-.095834h-.633334z"/><path d="m378.054167 278.397917c-7.666667 2.033333-15.0875 3.029167-22.925 3.0125-25.016667-.025-38.045834-11.420834-38.045834-33.208334 0-25.45 16.579167-44.179167 39.095834-44.179167 18.420833 0 30.175 10.495834 30.175 26.941667 0 5.466667-.8 10.770834-2.741666 18.3h-44.487501c-1.583333 10.629167 6.179167 15.308334 19.408334 15.308334 7.925 0 15.0875-1.425 23.029166-4.616667zm-11.9625-44.150001c0-1.604166 2.470833-13.033333-10.4-13.279166-7.108333 0-12.204167 4.729166-14.270834 13.279166z"/><path d="m393.129167 229.252083c0 9.408333 5.2875 15.9 17.325 20.745834 9.204167 3.766666 10.65 4.858333 10.65 8.2125 0 4.666666-4.066666 6.808333-13.0875 6.75-6.783333-.045834-12.966666-.870834-20.2625-2.895834l-3.2375 17.145834c6.491667 1.516666 15.595834 2.0125 23.654167 2.2 24.025 0 35.120834-7.870834 35.120834-24.870834 0-10.216666-4.629167-16.2375-16.041667-20.7125-9.5375-3.808333-10.654167-4.6375-10.654167-8.083333 0-4.05 3.783333-6.1 11.145834-6.1 4.470833 0 10.583333.416666 16.3875 1.1125l3.25-17.245834c-5.9125-.825-14.879167-1.483333-20.066667-1.483333-25.458334 0-34.2625 11.454167-34.183334 25.225"/><path d="m304.8875 280.18125h-18.666667l.45-7.820833c-5.695833 6.158333-13.275 9.033333-23.558333 9.033333-12.175001 0-20.520834-8.325-20.520834-20.2875 0-18.204167 14.495833-28.695834 39.429167-28.695834 2.5625 0 5.816667.191667 9.170833.5625.691667-2.433333.875-3.475.875-4.808333 0-4.983333-3.916666-6.8125-14.408333-6.8125-10.341667.041667-17.320833 1.575-23.795834 3.3125l3.183334-16.695833c11.2-2.85 18.529167-3.945834 26.829167-3.945834 19.304167 0 29.495833 7.566667 29.495833 21.791667.166667 3.8-1.158333 11.4125-1.816666 14.754167-.7625 4.85-6.1125 32.970833-6.666667 39.6125zm-16.3875-33.195833c-2.358334-.245834-3.391667-.3125-5.0125-.3125-12.720834 0-19.179167 3.7875-19.179167 11.266666 0 4.695834 3.154167 7.633334 8.054167 7.633334 9.154166 0 15.758333-7.654167 16.1375-18.5875z"/><path d="m482.608335 279.002083c-6.120834 1.675-10.895834 2.408334-16.054167 2.408334-11.433334 0-17.670834-5.845834-17.670834-16.254167-.3625-2.854167 2.433334-16.058333 3.0625-19.7375.633334-3.691667 10.5375-57.491667 10.5375-57.491667h22.208334l-3.354167 17.8h11.391667l-3.095833 18.170833h-11.441667s-6.283333 31.529167-6.283333 33.933334c0 3.825 2.320833 5.479167 7.633333 5.479167 2.541667 0 4.508333-.229167 6.029167-.691667z"/><path d="m593.079169 236.635416c0 16.775001-6.879167 26.708334-17.754167 26.708334-7.920833.1125-12.725-6.525-12.725-16.475 0-11.791667 7.008333-25.1125 18.270833-25.1125 9.091667 0 12.208334 7.2125 12.208334 14.879166zm23.979167.466667c0-18.579167-12.208334-33.079167-35.195834-33.079167-26.45 0-43.55 17.625-43.55 43.595834 0 18.579167 10.083333 33.791667 35.15 33.791667 25.2875 0 43.595834-13.5125 43.595834-44.308334z"/><path d="m502.395835 205.71875c-2.820834 23.029166-7.816667 46.375-11.720834 69.45l-.945833 5.020833h22.433334c8.0875-44.558333 10.8-57.254167 27.741666-52.783333l8.15-21.0875c-11.816666-4.3375-19.425 1.854166-26.308333 10.658333.620833-3.9625 1.791667-7.783333 1.508333-11.258333z"/><path d="m232.137499 280.189583h-22.3375l13.275-69.958333-30.575 69.958333h-20.3625l-3.725-69.554167-13.320834 69.554167h-20.270833l17.2625-91h34.920834l1.845833 56.333334 24.575-56.333334h36.325z"/></g></g></svg>