<svg
	xmlns="http://www.w3.org/2000/svg"
	version="1.1"
	viewBox="0 0 168.3 106.4">
	<style
		type="text/css">
		.st0{fill:#FFFFFF;}
		.st1{fill:#FF5F00;}
		.st2{fill:#EB001B;}
		.st3{fill:#F79E1B;}
	</style>
	<g
		transform="translate(-311.79999,-252.8)">
		<g>
			<g>
				<rect
					x="311.79999"
					y="252.8"
					width="168.3"
					height="106.4"
					id="rect3213" />
			</g>
		</g>
		<g>
			<path
				class="st0"
				d="m 358.8,350.3 v -6 c 0,-2.3 -1.4,-3.8 -3.7,-3.8 -1.2,0 -2.5,0.4 -3.4,1.7 -0.7,-1.1 -1.7,-1.7 -3.2,-1.7 -1,0 -2.1,0.3 -2.9,1.4 v -1.2 h -1.9 v 9.6 h 1.9 v -5.5 c 0,-1.7 1,-2.5 2.4,-2.5 1.4,0 2.2,0.9 2.2,2.5 v 5.5 h 1.9 v -5.5 c 0,-1.7 1,-2.5 2.4,-2.5 1.4,0 2.2,0.9 2.2,2.5 v 5.5 h 2.1 z m 31.2,-9.5 h -3.5 v -2.9 h -1.9 v 2.9 h -2 v 1.7 h 2 v 4.5 c 0,2.2 0.8,3.5 3.2,3.5 0.9,0 1.9,-0.3 2.6,-0.7 l -0.6,-1.7 c -0.6,0.4 -1.3,0.5 -1.8,0.5 -1,0 -1.5,-0.6 -1.5,-1.6 v -4.6 h 3.5 v -1.6 z m 17.8,-0.3 c -1.2,0 -2.1,0.6 -2.6,1.4 v -1.2 h -1.9 v 9.6 h 1.9 v -5.4 c 0,-1.6 0.8,-2.6 2.1,-2.6 0.4,0 0.9,0.1 1.3,0.2 l 0.6,-1.8 c -0.4,-0.1 -1,-0.2 -1.4,-0.2 l 0,0 z m -26.9,1 c -1,-0.7 -2.4,-1 -3.9,-1 -2.4,0 -3.9,1.1 -3.9,3 0,1.6 1.1,2.5 3.2,2.8 l 1,0.1 c 1.1,0.2 1.8,0.6 1.8,1.1 0,0.7 -0.8,1.2 -2.3,1.2 -1.5,0 -2.5,-0.5 -3.2,-1 l -1,1.5 c 1.4,1 3.1,1.2 4.1,1.2 2.8,0 4.3,-1.3 4.3,-3.1 0,-1.7 -1.2,-2.5 -3.3,-2.8 l -1,-0.1 c -0.9,-0.1 -1.7,-0.4 -1.7,-1 0,-0.7 0.8,-1.2 1.9,-1.2 1.2,0 2.4,0.5 3,0.8 l 1,-1.5 z m 29,4 c 0,2.9 1.9,5 5,5 1.4,0 2.4,-0.3 3.4,-1.1 l -1,-1.5 c -0.8,0.6 -1.6,0.9 -2.5,0.9 -1.7,0 -3,-1.3 -3,-3.2 0,-1.9 1.3,-3.2 3,-3.2 0.9,0 1.7,0.3 2.5,0.9 l 1,-1.5 c -1,-0.8 -2,-1.1 -3.4,-1.1 -3,-0.2 -5,1.9 -5,4.8 l 0,0 z m -13.4,-5 c -2.8,0 -4.7,2 -4.7,5 0,3 2,5 4.9,5 1.4,0 2.8,-0.4 3.9,-1.3 l -1,-1.4 c -0.8,0.6 -1.8,1 -2.8,1 -1.3,0 -2.7,-0.8 -2.9,-2.5 h 7.1 c 0,-0.3 0,-0.5 0,-0.8 0,-3 -1.8,-5 -4.5,-5 l 0,0 z m -0.1,1.8 c 1.4,0 2.4,0.9 2.5,2.4 h -5.2 c 0.3,-1.4 1.2,-2.4 2.7,-2.4 l 0,0 z m -25.9,3.2 v -4.8 h -1.9 v 1.2 c -0.7,-0.9 -1.7,-1.4 -3.1,-1.4 -2.7,0 -4.7,2.1 -4.7,5 0,2.9 2,5 4.7,5 1.4,0 2.4,-0.5 3.1,-1.4 v 1.2 h 1.9 v -4.8 z m -7.7,0 c 0,-1.8 1.1,-3.2 3,-3.2 1.8,0 2.9,1.4 2.9,3.2 0,1.9 -1.2,3.2 -2.9,3.2 -1.9,0.1 -3,-1.4 -3,-3.2 l 0,0 z m 73.9,-5 c -1.2,0 -2.1,0.6 -2.6,1.4 v -1.2 h -1.9 v 9.6 h 1.9 v -5.4 c 0,-1.6 0.8,-2.6 2.1,-2.6 0.4,0 0.9,0.1 1.3,0.2 l 0.6,-1.8 c -0.4,-0.1 -1,-0.2 -1.4,-0.2 l 0,0 z m -7.4,5 v -4.8 h -1.9 v 1.2 c -0.7,-0.9 -1.7,-1.4 -3.1,-1.4 -2.7,0 -4.7,2.1 -4.7,5 0,2.9 2,5 4.7,5 1.4,0 2.4,-0.5 3.1,-1.4 v 1.2 h 1.9 v -4.8 z m -7.7,0 c 0,-1.8 1.1,-3.2 3,-3.2 1.8,0 2.9,1.4 2.9,3.2 0,1.9 -1.2,3.2 -2.9,3.2 -1.9,0.1 -3,-1.4 -3,-3.2 l 0,0 z m 27,0 v -8.6 h -1.9 v 5 c -0.7,-0.9 -1.7,-1.4 -3.1,-1.4 -2.7,0 -4.7,2.1 -4.7,5 0,2.9 2,5 4.7,5 1.4,0 2.4,-0.5 3.1,-1.4 v 1.2 h 1.9 v -4.8 z m -7.7,0 c 0,-1.8 1.1,-3.2 3,-3.2 1.8,0 2.9,1.4 2.9,3.2 0,1.9 -1.2,3.2 -2.9,3.2 -1.9,0.1 -3,-1.4 -3,-3.2 z"
				style="fill:#ffffff" />
			<g>
				<rect
					x="378.70001"
					y="267.89999"
					class="st1"
					width="34.700001"
					height="56.599998"
					style="fill:#ff5f00" />
				<path
					class="st2"
					d="m 382.2,296.2 c 0,-11.5 5.4,-21.7 13.7,-28.3 -6.1,-4.8 -13.8,-7.7 -22.2,-7.7 -19.9,0 -36,16.1 -36,36 0,19.9 16.1,36 36,36 8.4,0 16.1,-2.9 22.2,-7.7 -8.3,-6.6 -13.7,-16.8 -13.7,-28.3 z"
					style="fill:#eb001b" />
				<path
					class="st3"
					d="m 454.2,296.2 c 0,19.9 -16.1,36 -36,36 -8.4,0 -16.1,-2.9 -22.2,-7.7 8.4,-6.6 13.7,-16.8 13.7,-28.3 0,-11.5 -5.4,-21.7 -13.7,-28.3 6.1,-4.8 13.8,-7.7 22.2,-7.7 19.9,0 36,16.1 36,36 z"
					style="fill:#f79e1b" />
			</g>
		</g>
	</g>
</svg>
