<svg height="471" viewBox="0 0 750 471" width="750" xmlns="http://www.w3.org/2000/svg"><g fill="none"><rect fill="#000" height="471" rx="40" width="750"/><g transform="translate(133 48)"><path d="m88.13 373.67v-24.85c0-9.53-5.8-15.74-15.32-15.74-5 0-10.35 1.66-14.08 7-2.9-4.56-7-7-13.25-7-4.7200851-.203992-9.2274663 1.974575-12 5.8v-5h-7.87v39.76h7.87v-22.75c0-7 4.14-10.35 9.94-10.35s9.11 3.73 9.11 10.35v22.78h7.87v-22.78c0-7 4.14-10.35 9.94-10.35s9.11 3.73 9.11 10.35v22.78zm129.22-39.35h-14.5v-12h-7.85v12h-8.28v7h8.28v18.68c0 9.11 3.31 14.5 13.25 14.5 3.765784-.078517 7.455651-1.073923 10.75-2.9l-2.49-7c-2.234315 1.396557-4.825525 2.115565-7.46 2.07-4.14 0-6.21-2.49-6.21-6.63v-19.04h14.5v-6.63zm73.72-1.24c-4.360645-.097154-8.451164 2.105726-10.77 5.8v-5h-7.87v39.76h7.87v-22.33c0-6.63 3.31-10.77 8.7-10.77 1.818809.073783 3.62352.352205 5.38.83l2.49-7.46c-1.898987-.47874-3.84296-.756929-5.8-.83zm-111.41 4.14c-4.14-2.9-9.94-4.14-16.15-4.14-9.94 0-16.15 4.56-16.15 12.43 0 6.63 4.56 10.35 13.25 11.6l4.14.41c4.56.83 7.46 2.49 7.46 4.56 0 2.9-3.31 5-9.53 5-4.749373.097716-9.401111-1.355733-13.25-4.14l-4.14 6.21c5.8 4.14 12.84 5 17 5 11.6 0 17.81-5.38 17.81-12.84 0-7-5-10.35-13.67-11.6l-4.14-.41c-3.73-.41-7-1.66-7-4.14 0-2.9 3.31-5 7.87-5 5 0 9.94 2.07 12.43 3.31zm120.11 16.57c0 12 7.87 20.71 20.71 20.71 5.8 0 9.94-1.24 14.08-4.56l-4.14-6.21c-2.931242 2.37388-6.578297 3.68823-10.35 3.73-7 0-12.43-5.38-12.43-13.25s5.36-13.21 12.43-13.21c3.771703.04177 7.418758 1.35612 10.35 3.73l4.14-6.21c-4.14-3.31-8.28-4.56-14.08-4.56-12.43-.83-20.71 7.87-20.71 19.88zm-55.5-20.71c-11.6 0-19.47 8.28-19.47 20.71s8.28 20.71 20.29 20.71c5.842775.123408 11.548486-1.777318 16.15-5.38l-4.14-5.8c-3.327868 2.578743-7.391402 4.029004-11.6 4.14-5.38 0-11.18-3.31-12-10.35h29.41v-3.31c0-12.43-7.46-20.71-18.64-20.71zm-.41 7.46c5.8 0 9.94 3.73 10.35 9.94h-21.53c1.24-5.8 5-9.94 11.18-9.94zm-107.27 13.25v-19.88h-7.87v5c-2.9-3.73-7-5.8-12.84-5.8-11.18 0-19.47 8.7-19.47 20.71s8.28 20.71 19.47 20.71c5.8 0 9.94-2.07 12.84-5.8v5h7.87zm-31.89 0c0-7.46 4.56-13.25 12.43-13.25 7.46 0 12 5.8 12 13.25 0 7.87-5 13.25-12 13.25-7.87.41-12.43-5.8-12.43-13.25zm306.08-20.71c-4.360645-.097154-8.451164 2.105726-10.77 5.8v-5h-7.87v39.76h7.86v-22.33c0-6.63 3.31-10.77 8.7-10.77 1.818809.073783 3.62352.352205 5.38.83l2.49-7.46c-1.898987-.47874-3.84296-.756929-5.8-.83zm-30.65 20.71v-19.88h-7.87v5c-2.9-3.73-7-5.8-12.84-5.8-11.18 0-19.47 8.7-19.47 20.71s8.28 20.71 19.47 20.71c5.8 0 9.94-2.07 12.84-5.8v5h7.87zm-31.89 0c0-7.46 4.56-13.25 12.43-13.25 7.46 0 12 5.8 12 13.25 0 7.87-5 13.25-12 13.25-7.87.41-12.43-5.8-12.43-13.25zm111.83 0v-35.62h-7.87v20.71c-2.9-3.73-7-5.8-12.84-5.8-11.18 0-19.47 8.7-19.47 20.71s8.28 20.71 19.47 20.71c5.8 0 9.94-2.07 12.84-5.8v5h7.87zm-31.89 0c0-7.46 4.56-13.25 12.43-13.25 7.46 0 12 5.8 12 13.25 0 7.87-5 13.25-12 13.25-7.88.42-12.44-5.79-12.44-13.25z" fill="#fff"/><path d="m170.55 32.39h143.72v234.42h-143.72z" fill="#ff5f00"/><path d="m185.05 149.6c.00997-45.687446 20.91046-88.8623915 56.74-117.21-61.127982-48.0613968-148.9279963-41.07523415-201.686538 16.0480037-52.7585416 57.1232373-52.7585416 145.2007553 0 202.3239923 52.7585417 57.123238 140.558556 64.109401 201.686538 16.048004-35.82954-28.347609-56.73003-71.522554-56.74-117.21z" fill="#eb001b"/><path d="m483.26 149.6c.04134 57.046679-32.503211 109.106022-83.804383 134.056273-51.301172 24.95025-112.346436 18.408178-157.195617-16.846273 35.838424-28.34064 56.741593-71.519908 56.741593-117.21s-20.903169-88.8693598-56.741593-117.21c44.849181-35.25445052 105.894445-41.79652324 157.195617-16.8462726 51.301172 24.9502506 83.845723 77.0095937 83.804383 134.0562726z" fill="#f79e1b"/></g></g></svg>