<svg width="750" height="471" viewBox="0 0 750 471" version="1.1" xmlns="http://www.w3.org/2000/svg" xmlns:xlink="http://www.w3.org/1999/xlink">
    <!-- Generator: Sketch 48.2 (47327) - http://www.bohemiancoding.com/sketch -->
    <desc>Created with Sketch.</desc>
    <defs></defs>
    <g id="Page-1" stroke="none" stroke-width="1" fill="none" fill-rule="evenodd">
        <g id="mastercard" fill-rule="nonzero">
            <rect id="Rectangle-1" fill="#000000" x="0" y="0" width="750" height="471" rx="40"></rect>
            <g id="Group" transform="translate(133.000000, 48.000000)">
                <path d="M88.13,373.67 L88.13,348.82 C88.13,339.29 82.33,333.08 72.81,333.08 C67.81,333.08 62.46,334.74 58.73,340.08 C55.83,335.52 51.73,333.08 45.48,333.08 C40.7599149,332.876008 36.2525337,335.054575 33.48,338.88 L33.48,333.88 L25.61,333.88 L25.61,373.64 L33.48,373.64 L33.48,350.89 C33.48,343.89 37.62,340.54 43.42,340.54 C49.22,340.54 52.53,344.27 52.53,350.89 L52.53,373.67 L60.4,373.67 L60.4,350.89 C60.4,343.89 64.54,340.54 70.34,340.54 C76.14,340.54 79.45,344.27 79.45,350.89 L79.45,373.67 L88.13,373.67 Z M217.35,334.32 L202.85,334.32 L202.85,322.32 L195,322.32 L195,334.32 L186.72,334.32 L186.72,341.32 L195,341.32 L195,360 C195,369.11 198.31,374.5 208.25,374.5 C212.015784,374.421483 215.705651,373.426077 219,371.6 L216.51,364.6 C214.275685,365.996557 211.684475,366.715565 209.05,366.67 C204.91,366.67 202.84,364.18 202.84,360.04 L202.84,341 L217.34,341 L217.34,334.37 L217.35,334.32 Z M291.07,333.08 C286.709355,332.982846 282.618836,335.185726 280.3,338.88 L280.3,333.88 L272.43,333.88 L272.43,373.64 L280.3,373.64 L280.3,351.31 C280.3,344.68 283.61,340.54 289,340.54 C290.818809,340.613783 292.62352,340.892205 294.38,341.37 L296.87,333.91 C294.971013,333.43126 293.02704,333.153071 291.07,333.08 Z M179.66,337.22 C175.52,334.32 169.72,333.08 163.51,333.08 C153.57,333.08 147.36,337.64 147.36,345.51 C147.36,352.14 151.92,355.86 160.61,357.11 L164.75,357.52 C169.31,358.35 172.21,360.01 172.21,362.08 C172.21,364.98 168.9,367.08 162.68,367.08 C157.930627,367.177716 153.278889,365.724267 149.43,362.94 L145.29,369.15 C151.09,373.29 158.13,374.15 162.29,374.15 C173.89,374.15 180.1,368.77 180.1,361.31 C180.1,354.31 175.1,350.96 166.43,349.71 L162.29,349.3 C158.56,348.89 155.29,347.64 155.29,345.16 C155.29,342.26 158.6,340.16 163.16,340.16 C168.16,340.16 173.1,342.23 175.59,343.47 L179.66,337.22 Z M299.77,353.79 C299.77,365.79 307.64,374.5 320.48,374.5 C326.28,374.5 330.42,373.26 334.56,369.94 L330.42,363.73 C327.488758,366.10388 323.841703,367.41823 320.07,367.46 C313.07,367.46 307.64,362.08 307.64,354.21 C307.64,346.34 313,341 320.07,341 C323.841703,341.04177 327.488758,342.35612 330.42,344.73 L334.56,338.52 C330.42,335.21 326.28,333.96 320.48,333.96 C308.05,333.13 299.77,341.83 299.77,353.84 L299.77,353.79 Z M244.27,333.08 C232.67,333.08 224.8,341.36 224.8,353.79 C224.8,366.22 233.08,374.5 245.09,374.5 C250.932775,374.623408 256.638486,372.722682 261.24,369.12 L257.1,363.32 C253.772132,365.898743 249.708598,367.349004 245.5,367.46 C240.12,367.46 234.32,364.15 233.5,357.11 L262.91,357.11 L262.91,353.8 C262.91,341.37 255.45,333.09 244.27,333.09 L244.27,333.08 Z M243.86,340.54 C249.66,340.54 253.8,344.27 254.21,350.48 L232.68,350.48 C233.92,344.68 237.68,340.54 243.86,340.54 Z M136.59,353.79 L136.59,333.91 L128.72,333.91 L128.72,338.91 C125.82,335.18 121.72,333.11 115.88,333.11 C104.7,333.11 96.41,341.81 96.41,353.82 C96.41,365.83 104.69,374.53 115.88,374.53 C121.68,374.53 125.82,372.46 128.72,368.73 L128.72,373.73 L136.59,373.73 L136.59,353.79 Z M104.7,353.79 C104.7,346.33 109.26,340.54 117.13,340.54 C124.59,340.54 129.13,346.34 129.13,353.79 C129.13,361.66 124.13,367.04 117.13,367.04 C109.26,367.45 104.7,361.24 104.7,353.79 Z M410.78,333.08 C406.419355,332.982846 402.328836,335.185726 400.01,338.88 L400.01,333.88 L392.14,333.88 L392.14,373.64 L400,373.64 L400,351.31 C400,344.68 403.31,340.54 408.7,340.54 C410.518809,340.613783 412.32352,340.892205 414.08,341.37 L416.57,333.91 C414.671013,333.43126 412.72704,333.153071 410.77,333.08 L410.78,333.08 Z M380.13,353.79 L380.13,333.91 L372.26,333.91 L372.26,338.91 C369.36,335.18 365.26,333.11 359.42,333.11 C348.24,333.11 339.95,341.81 339.95,353.82 C339.95,365.83 348.23,374.53 359.42,374.53 C365.22,374.53 369.36,372.46 372.26,368.73 L372.26,373.73 L380.13,373.73 L380.13,353.79 Z M348.24,353.79 C348.24,346.33 352.8,340.54 360.67,340.54 C368.13,340.54 372.67,346.34 372.67,353.79 C372.67,361.66 367.67,367.04 360.67,367.04 C352.8,367.45 348.24,361.24 348.24,353.79 Z M460.07,353.79 L460.07,318.17 L452.2,318.17 L452.2,338.88 C449.3,335.15 445.2,333.08 439.36,333.08 C428.18,333.08 419.89,341.78 419.89,353.79 C419.89,365.8 428.17,374.5 439.36,374.5 C445.16,374.5 449.3,372.43 452.2,368.7 L452.2,373.7 L460.07,373.7 L460.07,353.79 Z M428.18,353.79 C428.18,346.33 432.74,340.54 440.61,340.54 C448.07,340.54 452.61,346.34 452.61,353.79 C452.61,361.66 447.61,367.04 440.61,367.04 C432.73,367.46 428.17,361.25 428.17,353.79 L428.18,353.79 Z" id="Shape" fill="#FFFFFF"></path>
                <g>
                    <rect id="Rectangle-path" fill="#FF5F00" x="170.55" y="32.39" width="143.72" height="234.42"></rect>
                    <path d="M185.05,149.6 C185.05997,103.912554 205.96046,60.7376085 241.79,32.39 C180.662018,-15.6713968 92.8620037,-8.68523415 40.103462,48.4380037 C-12.6550796,105.561241 -12.6550796,193.638759 40.103462,250.761996 C92.8620037,307.885234 180.662018,314.871397 241.79,266.81 C205.96046,238.462391 185.05997,195.287446 185.05,149.6 Z" id="Shape" fill="#EB001B"></path>
                    <path d="M483.26,149.6 C483.30134,206.646679 450.756789,258.706022 399.455617,283.656273 C348.154445,308.606523 287.109181,302.064451 242.26,266.81 C278.098424,238.46936 299.001593,195.290092 299.001593,149.6 C299.001593,103.909908 278.098424,60.7306402 242.26,32.39 C287.109181,-2.86445052 348.154445,-9.40652324 399.455617,15.5437274 C450.756789,40.493978 483.30134,92.5533211 483.26,149.6 Z" id="Shape" fill="#F79E1B"></path>
                </g>
            </g>
        </g>
    </g>
</svg>
