<svg height="471" viewBox="0 0 750 471" width="750" xmlns="http://www.w3.org/2000/svg"><g fill="none"><rect fill="#000" height="471" rx="40" width="750"/><path d="m434.008334 235.5c0 99.141668-80.370834 179.504169-179.508335 179.504169s-179.5000017-80.362501-179.5000017-179.504169c0-99.133334 80.3625007-179.5041676 179.5000017-179.5041676s179.508335 80.3708336 179.508335 179.5041676" fill="#d9222a"/><path d="m495.491667 55.9958324c-46.379167 0-88.641667 17.5958334-120.500001 46.4666666-6.4875 5.883334-12.545833 12.237501-18.125 18.995834h36.266667c4.958334 6.029167 9.525 12.370833 13.683334 19.0125h-63.633334c-3.8125 6.104167-7.275 12.445833-10.341667 19.008334h84.312501c2.879166 6.158333 5.420833 12.495833 7.6 19.004166h-99.512501c-2.075 6.191667-3.820833 12.529167-5.216667 19.008334h109.941668c2.6375 12.25 4.041667 24.966667 4.041667 38.008333 0 19.933334-3.254167 39.112501-9.254167 57.020834h-99.512501c2.175 6.5125 4.716667 12.854167 7.595833 19.008334h84.316668c-3.075 6.5625-6.529167 12.904167-10.345834 19.0125h-63.625c4.154167 6.629167 8.729167 12.979167 13.683333 18.995833h36.258334c-5.570833 6.770834-11.633334 13.133334-18.129167 19.012501 31.858334 28.866666 74.116667 46.454167 120.495834 46.454167 99.137501 0 179.508335-80.362501 179.508335-179.504169 0-99.129167-80.370834-179.5041676-179.508335-179.5041676" fill="#ee9f2d"/><path d="m651.075002 335.558335c0-3.2 2.591667-5.8 5.795833-5.8 3.204167 0 5.795834 2.6 5.795834 5.8s-2.591667 5.8-5.795834 5.8c-3.204166 0-5.795833-2.6-5.795833-5.8zm5.795833 4.408333c2.433334 0 4.408334-1.975 4.408334-4.408333 0-2.4375-1.975-4.404167-4.408334-4.404167-2.4375 0-4.404166 1.966667-4.404166 4.404167 0 2.433333 1.966666 4.408333 4.404166 4.408333zm-.783333-1.858333h-1.1875v-5.095834h2.15c.45 0 .908333 0 1.304167.254167.4125.279167.645833.770833.645833 1.279167 0 .570833-.3375 1.104166-.883333 1.3125l.9375 2.25h-1.316667l-.779167-2.016667h-.870833zm0-2.891667h.658333c.245834 0 .504167.020833.725-.1.195834-.125.295834-.358333.295834-.583333 0-.195834-.120834-.420834-.2875-.516667-.208334-.129167-.5375-.1-.758334-.1h-.633333z" fill="#000"/><path d="m212.587498 255.154167c-2.045833-.2375-2.945833-.3-4.35-.3-11.045833 0-16.6375 3.7875-16.6375 11.266667 0 4.6125 2.729167 7.545833 6.9875 7.545833 7.9375 0 13.658334-7.558333 14-18.5125zm14.170834 32.995834h-16.145834l.370834-7.675c-4.925 6.066667-11.495834 8.95-20.425 8.95-10.5625 0-17.804167-8.25-17.804167-20.229167 0-18.025 12.595833-28.541667 34.216667-28.541667 2.208333 0 5.041666.2 7.941666.570834.604167-2.441667.7625-3.487501.7625-4.800001 0-4.908333-3.395833-6.7375-12.5-6.7375-9.533333-.108333-17.395833 2.270834-20.625 3.333334.204167-1.229167 2.7-16.658334 2.7-16.658334 9.7125-2.845833 16.116667-3.916666 23.325-3.916666 16.733334 0 25.595834 7.5125 25.579167 21.7125.033334 3.804166-.595833 8.5-1.579166 14.670833-1.691667 10.729167-5.320834 33.716667-5.816667 39.320834z" fill="#000"/><path d="m164.599998 288.150001h-19.4875l11.1625-69.995834-24.925 69.995834h-13.279167l-1.641667-69.595834-11.733333 69.595834h-18.2416669l15.2374999-91.054168h28.020834l1.7 50.966668 17.091667-50.966668h31.166667z" fill="#000"/><path d="m519.575001 255.154167c-2.0375-.2375-2.941667-.3-4.341667-.3-11.041667 0-16.633333 3.7875-16.633333 11.266667 0 4.6125 2.725 7.545833 6.983333 7.545833 7.9375 0 13.6625-7.558333 13.991667-18.5125zm14.183333 32.995834h-16.145833l.366667-7.675c-4.925 6.066667-11.500001 8.95-20.420834 8.95-10.566667 0-17.8-8.25-17.8-20.229167 0-18.025 12.5875-28.541667 34.2125-28.541667 2.208334 0 5.0375.2 7.933334.570834.604166-2.441667.7625-3.487501.7625-4.800001 0-4.908333-3.391667-6.7375-12.495834-6.7375-9.533333-.108333-17.3875 2.270834-20.629167 3.333334.204167-1.229167 2.708334-16.658334 2.708334-16.658334 9.7125-2.845833 16.1125-3.916666 23.3125-3.916666 16.741667 0 25.604167 7.5125 25.5875 21.7125.033333 3.804166-.595833 8.5-1.579167 14.670833-1.683333 10.729167-5.320833 33.716667-5.8125 39.320834z" fill="#000"/><path d="m313.366666 287.025001c-5.333333 1.679167-9.491667 2.4-14 2.4-9.9625 0-15.4-5.725-15.4-16.266667-.141667-3.270833 1.433333-11.879167 2.670833-19.7375 1.125-6.916667 8.45-50.529167 8.45-50.529167h19.370834l-2.2625 11.208333h11.7l-2.641667 17.795834h-11.741667c-2.25 14.083333-5.454166 31.625-5.491666 33.95 0 3.816667 2.0375 5.483333 6.670833 5.483333 2.220833 0 3.941667-.225 5.254167-.7z" fill="#000"/><path d="m372.758333 286.425001c-6.654167 2.033333-13.075 3.016667-19.879167 3-21.683333-.020833-32.9875-11.345834-32.9875-33.033334 0-25.3125 14.379167-43.945833 33.9-43.945833 15.970834 0 26.170834 10.433333 26.170834 26.795833 0 5.429167-.7 10.729167-2.3875 18.2125h-38.575001c-1.304166 10.741667 5.570834 15.216667 16.837501 15.216667 6.933333 0 13.1875-1.429167 20.141666-4.6625zm-10.8875-43.9c.108333-1.541667 2.054167-13.216667-9.0125-13.216667-6.170833 0-10.583334 4.704166-12.379167 13.216667z" fill="#000"/><path d="m238.445832 237.508334c0 9.366667 4.541667 15.825 14.841667 20.675 7.891667 3.708333 9.1125 4.808333 9.1125 8.170833 0 4.616667-3.479167 6.7-11.191667 6.7-5.8125 0-11.220833-.908333-17.458333-2.920833 0 0-2.5625 16.320834-2.679167 17.1 4.429167.966667 8.379167 1.8625 20.279167 2.191667 20.5625 0 30.058333-7.829167 30.058333-24.75 0-10.175-3.975-16.145834-13.7375-20.633334-8.170833-3.75-9.108333-4.5875-9.108333-8.045833 0-4.004167 3.2375-6.045834 9.5375-6.045834 3.825 0 9.05.408334 14 1.1125l2.775-17.175c-5.045833-.8-12.695833-1.441666-17.15-1.441666-21.8 0-29.345834 11.3875-29.279167 25.0625" fill="#000"/><path d="m467.533334 214.391667c5.4125 0 10.458333 1.420833 17.4125 4.920833l3.1875-19.7625c-2.854167-1.120833-12.904167-7.7-21.416667-7.7-13.041667 0-24.066667 6.470834-31.820833 17.15-11.308334-3.745833-15.958334 3.825-21.658334 11.366667l-5.0625 1.179167c.383333-2.483334.729167-4.95.6125-7.445834h-17.895833c-2.445834 22.916667-6.779167 46.129167-10.170834 69.075001l-.883333 4.975h19.495833c3.254167-21.141667 5.0375-34.679167 6.120834-43.841667l7.341666-4.083333c1.095834-4.079167 4.529167-5.458334 11.416667-5.291667-.9 4.833333-1.383333 9.916667-1.383333 15.183333 0 24.225 13.070833 39.308334 34.05 39.308334 5.404167 0 10.041667-.7125 17.220834-2.658333l3.429166-20.758334c-6.458333 3.179167-11.758333 4.675-16.558333 4.675-11.329167 0-18.183334-8.3625-18.183334-22.183333 0-20.050001 10.195834-34.108334 24.745834-34.108334" fill="#000"/><path d="m170.208331 282.741668h-19.491666l11.170833-69.987501-24.925 69.987501h-13.283334l-1.641666-69.587501-11.733334 69.587501h-18.2416665l15.2375005-91.041668h28.020833l.7875 56.362501 18.904167-56.362501h30.266667z" fill="#fff"/><path d="m632.520835 197.095833-4.320833 26.308334c-5.329167-7.0125-11.054167-12.0875-18.6125-12.0875-9.833334 0-18.783334 7.454167-24.641667 18.425-8.158334-1.691667-16.595834-4.5625-16.595834-4.5625l-.004166.066667c.658333-6.133334.920833-9.875.8625-11.145834h-17.900001c-2.4375 22.916667-6.770833 46.129167-10.158333 69.075001l-.891667 4.975h19.491667c2.633334-17.095834 4.65-31.291667 6.133334-42.55 6.658333-6.016667 9.991666-11.266667 16.720833-10.916667-2.979167 7.204167-4.725 15.504167-4.725 24.016667 0 18.5125 9.366667 30.725 23.533334 30.725 7.141666 0 12.620833-2.4625 17.966666-8.170833l-.9125 6.883333h18.433334l14.841667-91.041668zm-24.370833 73.941668c-6.633334 0-9.983334-4.908334-9.983334-14.595834 0-14.554166 6.270834-24.875 15.1125-24.875 6.695834 0 10.320834 5.104167 10.320834 14.508334 0 14.679166-6.370834 24.9625-15.45 24.9625z" fill="#000"/><g fill="#fff"><path d="m218.191665 249.758334c-2.041667-.2375-2.945833-.3-4.345833-.3-11.045834 0-16.633334 3.7875-16.633334 11.266667 0 4.604166 2.729167 7.545833 6.979167 7.545833 7.945833 0 13.666667-7.558333 14-18.5125zm14.179167 32.983334h-16.145834l.366667-7.662501c-4.920833 6.054167-11.5 8.950001-20.420833 8.950001-10.566667 0-17.804167-8.250001-17.804167-20.229167 0-18.033334 12.591667-28.541667 34.216667-28.541667 2.208333 0 5.041666.2 7.9375.570833.604167-2.441667.7625-3.4875.7625-4.808333 0-4.908334-3.391667-6.729167-12.495834-6.729167-9.5375-.108333-17.395833 2.270833-20.629166 3.320833.204166-1.225 2.7-16.6375 2.7-16.6375 9.708333-2.858333 16.120833-3.929166 23.320833-3.929166 16.7375 0 25.604167 7.516666 25.5875 21.704166.029167 3.820834-.604166 8.5125-1.583333 14.675001-1.6875 10.725-5.320833 33.725-5.8125 39.316667z"/><path d="m493.745834 194.15-3.191667 19.766667c-6.95-3.495833-12-4.920833-17.408333-4.920833-14.55 0-24.75 14.058333-24.75 34.108333 0 13.820834 6.858333 22.179167 18.183333 22.179167 4.8 0 10.095834-1.491667 16.554167-4.675l-3.420833 20.75c-7.183334 1.958334-11.816667 2.670834-17.225001 2.670834-20.975 0-34.05-15.083334-34.05-39.308334 0-32.55 18.058334-55.300001 43.887501-55.300001 8.508333 0 18.5625 3.608334 21.420833 4.729167"/><path d="m525.187501 249.758334c-2.041667-.2375-2.941667-.3-4.345833-.3-11.041667 0-16.633334 3.7875-16.633334 11.266667 0 4.604166 2.729167 7.545833 6.983334 7.545833 7.9375 0 13.6625-7.558333 13.995833-18.5125zm14.179167 32.983334h-16.15l.370833-7.662501c-4.925 6.054167-11.5 8.950001-20.420834 8.950001-10.5625 0-17.804166-8.250001-17.804166-20.229167 0-18.033334 12.595833-28.541667 34.2125-28.541667 2.2125 0 5.041667.2 7.941667.570833.6-2.441667.7625-3.4875.7625-4.808333 0-4.908334-3.391667-6.729167-12.495834-6.729167-9.533333-.108333-17.395833 2.270833-20.629167 3.320833.204167-1.225 2.704167-16.6375 2.704167-16.6375 9.708333-2.858333 16.116667-3.929166 23.316667-3.929166 16.741667 0 25.604167 7.516666 25.583333 21.704166.033334 3.820834-.595833 8.5125-1.579166 14.675001-1.683334 10.725-5.325 33.725-5.8125 39.316667z"/><path d="m318.974999 281.620834c-5.3375 1.679167-9.495833 2.408334-14 2.408334-9.9625 0-15.4-5.725001-15.4-16.266667-.1375-3.279167 1.4375-11.879167 2.675-19.7375 1.120833-6.925 8.445833-50.533334 8.445833-50.533334h19.366667l-2.258333 11.2125h9.941667l-2.645834 17.7875h-9.975c-2.25 14.091667-5.4625 31.620834-5.495833 33.95 0 3.829167 2.041667 5.483334 6.670833 5.483334 2.220834 0 3.9375-.216667 5.254167-.691667z"/><path d="m378.366666 281.029167c-6.65 2.033334-13.079166 3.012501-19.879166 3.000001-21.683334-.020834-32.987501-11.345834-32.987501-33.033334 0-25.320834 14.379167-43.95 33.900001-43.95 15.970833 0 26.170833 10.429166 26.170833 26.8 0 5.433333-.7 10.733333-2.383333 18.2125h-38.575c-1.304167 10.741667 5.570833 15.220833 16.8375 15.220833 6.929166 0 13.1875-1.433333 20.1375-4.675zm-10.891666-43.9125c.116666-1.5375 2.058333-13.216667-9.0125-13.216667-6.166667 0-10.579167 4.716667-12.375 13.216667z"/><path d="m244.054165 232.1125c0 9.366667 4.541667 15.816667 14.841667 20.675001 7.891667 3.708333 9.1125 4.8125 9.1125 8.170833 0 4.616667-3.483333 6.7-11.1875 6.7-5.816667 0-11.225-.908333-17.466667-2.920833 0 0-2.554166 16.320833-2.670833 17.1 4.420833.966667 8.375 1.85 20.275 2.191667 20.566667 0 30.058334-7.829167 30.058334-24.745834 0-10.179167-3.970834-16.15-13.7375-20.6375-8.166667-3.758334-9.1125-4.583334-9.1125-8.045834 0-4 3.245833-6.058333 9.541666-6.058333 3.820834 0 9.045834.420833 14.004167 1.125l2.770833-17.179167c-5.041666-.8-12.691666-1.441666-17.145833-1.441666-21.804167 0-29.345834 11.379166-29.283334 25.066666"/><path d="m642.508335 282.741668h-18.4375l.916667-6.891667c-5.345834 5.716667-10.825 8.179167-17.966667 8.179167-14.166667 0-23.529167-12.212501-23.529167-30.725001 0-24.629167 14.520834-45.391667 31.708334-45.391667 7.558333 0 13.279166 3.0875 18.604166 10.095834l4.325001-26.308334h19.220833zm-28.745833-17.108334c9.075 0 15.45-10.283333 15.45-24.954167 0-9.404167-3.629167-14.508333-10.325-14.508333-8.8375 0-15.116667 10.316666-15.116667 24.875 0 9.6875 3.358333 14.5875 9.991667 14.5875z"/><path d="m556.920835 208.704167c-2.441667 22.916667-6.775001 46.129167-10.162501 69.0625l-.891666 4.975001h19.491667c6.970833-45.275001 8.658333-54.116668 19.5875-53.008334 1.741666-9.266667 4.983333-17.383334 7.4-21.479167-8.1625-1.7-12.720834 2.9125-18.6875 11.675.470833-3.7875 1.333333-7.466667 1.1625-11.225z"/><path d="m396.5 208.704167c-2.445833 22.916667-6.779167 46.129167-10.166667 69.0625l-.8875 4.975001h19.5c6.9625-45.275001 8.645834-54.116668 19.570834-53.008334 1.75-9.266667 4.991667-17.383334 7.4-21.479167-8.154167-1.7-12.716667 2.9125-18.679167 11.675.470833-3.7875 1.325-7.466667 1.1625-11.225z"/><path d="m651.066669 276.945834c0-3.2125 2.595833-5.8 5.795833-5.8 3.204167 0 5.795833 2.5875 5.795833 5.8 0 3.195833-2.591666 5.795834-5.795833 5.795834-3.2 0-5.795833-2.600001-5.795833-5.795834zm5.795833 4.404167c2.4375 0 4.404167-1.975 4.404167-4.404167 0-2.433333-1.966667-4.408333-4.404167-4.408333-2.433333 0-4.408333 1.975-4.408333 4.408333 0 2.429167 1.975 4.404167 4.408333 4.404167zm-.783333-1.870834h-1.1875v-5.083333h2.154166c.445834 0 .908334.008333 1.295834.254167.416666.283333.654166.766666.654166 1.275 0 .575-.3375 1.1125-.8875 1.316666l.941667 2.2375h-1.320833l-.779167-2.008333h-.870833zm0-2.879166h.654166c.245834 0 .5125.016666.729167-.1.195833-.125.295833-.3625.295833-.5875 0-.1875-.116666-.4125-.2875-.525-.204166-.116667-.541666-.083334-.7625-.083334h-.629166z"/></g></g></svg>