<svg height="471" viewBox="0 0 750 471" width="750" xmlns="http://www.w3.org/2000/svg"><g fill="none"><path d="m697.115385 0h-644.2307696c-29.1605769 0-52.8846154 23.1955749-52.8846154 51.7065868v367.5868262c0 28.511012 23.7240385 51.706587 52.8846154 51.706587h644.2307696c29.158653 0 52.884615-23.195575 52.884615-51.706587v-367.5868262c0-28.5110119-23.725962-51.7065868-52.884615-51.7065868z" fill="#fff"/><g transform="translate(54 150)"><path d="m109.272795 8.45777679c-8.024045-5.51623215-18.4947593-8.28103572-31.4121432-8.28103572h-50.009125c-3.9599554 0-6.1477232 1.98045536-6.5633036 5.93658929l-20.31566963 127.52489264c-.21113393 1.252473.10222322 2.397947.93720536 3.439286.83020536 1.04325 1.87441071 1.562009 3.12497321 1.562009h23.75399996c4.1663125 0 6.4563036-1.975679 6.8766608-5.937545l5.6251428-34.3794819c.2054018-1.6661429.9381607-3.0208393 2.1887232-4.0640893 1.2496072-1.0413393 2.8125715-1.7225089 4.6879375-2.0349107 1.8753661-.3095357 3.6437322-.465259 5.3136965-.465259 1.6651875 0 3.6437321.1050893 5.9394553.3124018 2.2899911.2082679 3.7497768.3095357 4.3755357.3095357 17.9186786 0 31.9834465-5.0490625 42.1952591-15.1576964 10.207036-10.1048125 15.316286-24.1170357 15.316286-42.0395357 0-12.2925804-4.014411-21.2003304-12.034634-26.72516071zm-25.7850896 38.29071431c-1.0451608 7.2941518-3.7507322 12.0843125-8.1262679 14.3771696-4.3764911 2.2957232-10.6273929 3.4364197-18.7527054 3.4364197l-10.314991.3133571 5.3146518-33.4441875c.414625-2.2899911 1.768366-3.4364196 4.0621785-3.4364196h5.9404107c8.3307143 0 14.3771697 1.2008839 18.1279018 3.5930982 3.7488215 2.3979464 4.999384 7.4536964 3.7488215 15.1605625z" fill="#003087"/><path d="m637.026411.17674107h-23.127286c-2.297634 0-3.65042 1.14642857-4.063134 3.43833036l-20.31758 130.02315157-.313357.624804c0 1.047071.417491 2.032044 1.252473 2.970205.82925.93625 1.875366 1.40533 3.124018 1.40533h20.630937c3.953268 0 6.141991-1.975678 6.564259-5.937544l20.31567-127.83825014v-.31049107c-.000956-2.91670536-1.359473-4.37553572-4.066-4.37553572z" fill="#009cde"/><path d="m357.599732 50.4973125c0-1.0394286-.419402-2.0310893-1.247696-2.9673393-.835938-.9372053-1.775054-1.4081964-2.813527-1.4081964h-24.067357c-2.296679 0-4.171089 1.0470714-5.626098 3.1249732l-33.130831 48.7614286-13.751411-46.8841518c-1.046116-3.3322857-3.337062-5.00225-6.87666-5.00225h-23.444465c-1.044205 0-1.982366.4700357-2.81066 1.4081964-.835938.93625-1.250563 1.9288661-1.250563 2.9673393 0 .4203571 2.032045 6.5642589 6.094223 18.4412589 4.062179 11.8789107 8.43867 24.6940715 13.127563 38.4483486 4.688893 13.750455 7.134607 21.047473 7.344786 21.875768-17.087518 23.339375-25.629366 35.842133-25.629366 37.506366 0 2.711303 1.353741 4.064089 4.063134 4.064089h24.067357c2.291901 0 4.166312-1.039429 5.626098-3.124018l79.70258-115.0240446c.414625-.414625.622893-1.1406965.622893-2.1877679z" fill="#003087"/><path d="m581.704545 46.1217768h-23.755911c-2.918616 0-4.685072 3.4383303-5.309875 10.3149911-5.423563-8.3307143-15.31533-12.5037143-29.695366-12.5037143-15.002929 0-27.768411 5.6270535-38.287848 16.87925-10.524215 11.2531518-15.783456 24.4867589-15.783456 39.6960444 0 12.296402 3.593098 22.088813 10.781206 29.379143 7.189062 7.297973 16.82575 10.939795 28.914839 10.939795 6.040723 0 12.187491-1.252473 18.438393-3.750732 6.251857-2.50017 11.144241-5.832456 14.692437-10.001634 0 .209223-.212089 1.145473-.625759 2.811616-.420357 1.669964-.625759 2.922437-.625759 3.750732 0 3.338018 1.350875 5.000339 4.06409 5.000339h21.568143c3.953267 0 6.248991-1.975678 6.872839-5.937544l12.816116-81.5769916c.205402-1.2505625-.107-2.3950803-.938161-3.4383303-.835937-1.040384-1.875366-1.5629643-3.125928-1.5629643zm-40.788018 61.5746782c-5.313697 5.209563-11.720322 7.812911-19.221786 7.812911-6.0455 0-10.937884-1.664232-14.690527-5.000339-3.751687-3.328464-5.627053-7.913223-5.627053-13.7523663 0-7.7049553 2.604303-14.2204911 7.814821-19.5341875 5.20383-5.3136964 11.668732-7.9705446 19.37942-7.9705446 5.828634 0 10.674205 1.7196428 14.532893 5.1570178 3.852 3.4383304 5.783732 8.1807232 5.783732 14.2233572-.000956 7.5005089-2.658759 13.8574554-7.9715 19.0641514z" fill="#009cde"/><path d="m226.639375 46.1217768h-23.754c-2.921482 0-4.688893 3.4383303-5.314652 10.3149911-5.626098-8.3307143-15.524553-12.5037143-29.693455-12.5037143-15.002929 0-27.767455 5.6270535-38.288804 16.87925-10.524214 11.2531518-15.783455 24.4867589-15.783455 39.6960444 0 12.296402 3.595009 22.088813 10.784071 29.379143 7.189063 7.297973 16.82384 10.939795 28.911018 10.939795 5.8315 0 11.877956-1.252473 18.127902-3.750732 6.250902-2.50017 11.252196-5.832456 15.002929-10.001634-.835938 2.500169-1.250563 4.688893-1.250563 6.562348 0 3.338018 1.353741 5.000339 4.063134 5.000339h21.566232c3.956134 0 6.250902-1.975678 6.876661-5.937544l12.814205-81.5769916c.205402-1.2505625-.107-2.3950803-.937205-3.4383303-.834027-1.040384-1.874411-1.5629643-3.124018-1.5629643zm-40.788973 61.7294462c-5.314652 5.111161-11.829232 7.658143-19.534188 7.658143-6.046455 0-10.891071-1.664232-14.534803-5.000339-3.648509-3.328464-5.470375-7.913223-5.470375-13.7523663 0-7.7049553 2.603348-14.2204911 7.814821-19.5341875 5.205741-5.3136964 11.665866-7.9705446 19.378464-7.9705446 5.8315 0 10.676116 1.7196428 14.534804 5.1570178 3.852 3.4383304 5.781821 8.1807232 5.781821 14.2233572 0 7.7097321-2.656848 14.1192234-7.970544 19.2189194z" fill="#003087"/><path d="m464.337964 8.45777679c-8.023089-5.51623215-18.491893-8.28103572-31.411187-8.28103572h-49.696723c-4.170134 0-6.462992 1.98045536-6.876661 5.93658929l-20.31567 127.52393764c-.211134 1.252473.101268 2.397946.937206 3.439286.827339 1.04325 1.87441 1.562009 3.124973 1.562009h25.62841c2.50017 0 4.166313-1.352786 5.001295-4.062179l5.627054-36.2548483c.206357-1.6661428.93625-3.0208393 2.187768-4.0640893 1.250562-1.0413393 2.811616-1.7225089 4.688892-2.0349107 1.874411-.3095357 3.642777-.4652589 5.313697-.4652589 1.665187 0 3.643732.1050893 5.936589.3124018 2.291902.2082678 3.754554.3095357 4.375536.3095357 17.921544 0 31.984402-5.0490625 42.196214-15.1576964 10.209902-10.1048125 15.31533-24.1170358 15.31533-42.0395358.000956-12.291625-4.0125-21.199375-12.032723-26.72420531zm-32.036946 51.41732141c-4.584759 3.1249732-11.46142 4.6869822-20.628072 4.6869822l-10.002589.3133571 5.314652-33.4441875c.412714-2.2899911 1.766455-3.4364196 4.062178-3.4364196h5.624188c4.582848 0 8.229446.2082678 10.942661.6238482 2.704616.4203571 5.312741 1.7186875 7.81291 3.9064553 2.502081 2.1887232 3.750733 5.3671965 3.750733 9.5344643 0 8.7510714-2.294768 14.6886161-6.876661 17.8155z" fill="#009cde"/></g></g></svg>