<svg height="471" viewBox="0 0 750 471" width="750" xmlns="http://www.w3.org/2000/svg"><g fill="none"><rect fill="#000c9d" height="471" rx="40" transform="matrix(-1 0 0 1 750 0)" width="750"/><g fill="#fff" fill-opacity=".196078"><g transform="matrix(-1 0 0 1 698.94815 279)"><path d="m27.102474 31.37012v-3.795h-5.1175v-11.27h-4.1975l-.4025 11.27h-11.4425l10.58-25.07-3.9675-1.725-11.6725 27.14v3.45h16.445v9.66h4.6575v-9.66z"/><path d="m46.687513.78012c-4.025 0-7.8775 1.38-11.2125 4.6l2.5875 2.9325c2.645-2.4725 5.0025-3.68 8.395-3.68 4.197497 0 7.532497 2.3575 7.532497 6.7275 0 4.7725-3.7375 6.9575-7.532497 6.9575h-2.3575l-.575 3.795h3.335c4.657497 0 8.222497 1.84 8.222497 7.5325 0 4.945-3.2775 8.1075-8.854997 8.1075-3.22 0-6.555-1.3225-8.7975-3.9675l-3.22 2.645c2.99 3.68 7.705 5.2325 12.1325 5.2325 8.164997 0 13.742497-5.175 13.742497-12.0175 0-6.1525-4.37-9.3725-9.0275-9.7175 4.1975-.805 7.7625-4.4275 7.7625-9.2 0-5.405-4.715-9.9475-12.132497-9.9475z"/><path d="m81.16505.78012c-5.3475 0-8.9125 1.8975-12.075 5.6925l3.335 2.53c2.53-2.9325 4.6575-4.1975 8.5675-4.1975 4.4275 0 7.0725 2.76 7.0725 7.1875 0 6.4975-3.22 10.81-18.17 25.1275v3.91h23.5175l.575-4.0825h-18.63c13.0525-11.9025 17.71-17.825 17.71-25.07 0-6.325-4.4275-11.0975-11.9025-11.0975z"/><path d="m129.90259 37.12012h-8.28v-35.65h-4.1975l-11.73 7.245 2.07 3.3925 9.085-5.4625v30.475h-9.775v3.91h22.8275z"/><path d="m199.49017 31.37012v-3.795h-5.1175v-11.27h-4.1975l-.4025 11.27h-11.4425l10.58-25.07-3.9675-1.725-11.6725 27.14v3.45h16.445v9.66h4.6575v-9.66z"/><path d="m219.07521.78012c-4.025 0-7.8775 1.38-11.2125 4.6l2.5875 2.9325c2.645-2.4725 5.0025-3.68 8.395-3.68 4.1975 0 7.5325 2.3575 7.5325 6.7275 0 4.7725-3.7375 6.9575-7.5325 6.9575h-2.3575l-.575 3.795h3.335c4.6575 0 8.2225 1.84 8.2225 7.5325 0 4.945-3.2775 8.1075-8.855 8.1075-3.22 0-6.555-1.3225-8.7975-3.9675l-3.22 2.645c2.99 3.68 7.705 5.2325 12.1325 5.2325 8.165 0 13.7425-5.175 13.7425-12.0175 0-6.1525-4.37-9.3725-9.0275-9.7175 4.1975-.805 7.7625-4.4275 7.7625-9.2 0-5.405-4.715-9.9475-12.1325-9.9475z"/><path d="m253.55275.78012c-5.3475 0-8.9125 1.8975-12.075 5.6925l3.335 2.53c2.53-2.9325 4.6575-4.1975 8.5675-4.1975 4.4275 0 7.0725 2.76 7.0725 7.1875 0 6.4975-3.22 10.81-18.17 25.1275v3.91h23.5175l.575-4.0825h-18.63c13.0525-11.9025 17.71-17.825 17.71-25.07 0-6.325-4.4275-11.0975-11.9025-11.0975z"/><path d="m302.29029 37.12012h-8.28v-35.65h-4.1975l-11.73 7.245 2.07 3.3925 9.085-5.4625v30.475h-9.775v3.91h22.8275z"/><path d="m371.87786 31.37012v-3.795h-5.1175v-11.27h-4.1975l-.4025 11.27h-11.4425l10.58-25.07-3.9675-1.725-11.6725 27.14v3.45h16.445v9.66h4.6575v-9.66z"/><path d="m391.4629.78012c-4.025 0-7.8775 1.38-11.2125 4.6l2.5875 2.9325c2.645-2.4725 5.0025-3.68 8.395-3.68 4.1975 0 7.5325 2.3575 7.5325 6.7275 0 4.7725-3.7375 6.9575-7.5325 6.9575h-2.3575l-.575 3.795h3.335c4.6575 0 8.2225 1.84 8.2225 7.5325 0 4.945-3.2775 8.1075-8.855 8.1075-3.22 0-6.555-1.3225-8.7975-3.9675l-3.22 2.645c2.99 3.68 7.705 5.2325 12.1325 5.2325 8.165 0 13.7425-5.175 13.7425-12.0175 0-6.1525-4.37-9.3725-9.0275-9.7175 4.1975-.805 7.7625-4.4275 7.7625-9.2 0-5.405-4.715-9.9475-12.1325-9.9475z"/><path d="m425.94044.78012c-5.3475 0-8.9125 1.8975-12.075 5.6925l3.335 2.53c2.53-2.9325 4.6575-4.1975 8.5675-4.1975 4.4275 0 7.0725 2.76 7.0725 7.1875 0 6.4975-3.22 10.81-18.17 25.1275v3.91h23.5175l.575-4.0825h-18.63c13.0525-11.9025 17.71-17.825 17.71-25.07 0-6.325-4.4275-11.0975-11.9025-11.0975z"/><path d="m474.67798 37.12012h-8.28v-35.65h-4.1975l-11.73 7.245 2.07 3.3925 9.085-5.4625v30.475h-9.775v3.91h22.8275z"/><path d="m544.26556 31.37012v-3.795h-5.1175v-11.27h-4.1975l-.4025 11.27h-11.4425l10.58-25.07-3.9675-1.725-11.6725 27.14v3.45h16.445v9.66h4.6575v-9.66z"/><path d="m563.8506.78012c-4.025 0-7.8775 1.38-11.2125 4.6l2.5875 2.9325c2.645-2.4725 5.0025-3.68 8.395-3.68 4.1975 0 7.5325 2.3575 7.5325 6.7275 0 4.7725-3.7375 6.9575-7.5325 6.9575h-2.3575l-.575 3.795h3.335c4.6575 0 8.2225 1.84 8.2225 7.5325 0 4.945-3.2775 8.1075-8.855 8.1075-3.22 0-6.555-1.3225-8.7975-3.9675l-3.22 2.645c2.99 3.68 7.705 5.2325 12.1325 5.2325 8.165 0 13.7425-5.175 13.7425-12.0175 0-6.1525-4.37-9.3725-9.0275-9.7175 4.1975-.805 7.7625-4.4275 7.7625-9.2 0-5.405-4.715-9.9475-12.1325-9.9475z"/><path d="m598.32814.78012c-5.3475 0-8.9125 1.8975-12.075 5.6925l3.335 2.53c2.53-2.9325 4.6575-4.1975 8.5675-4.1975 4.4275 0 7.0725 2.76 7.0725 7.1875 0 6.4975-3.22 10.81-18.17 25.1275v3.91h23.5175l.575-4.0825h-18.63c13.0525-11.9025 17.71-17.825 17.71-25.07 0-6.325-4.4275-11.0975-11.9025-11.0975z"/><path d="m647.06568 37.12012h-8.28v-35.65h-4.1975l-11.73 7.245 2.07 3.3925 9.085-5.4625v30.475h-9.775v3.91h22.8275z"/></g><g transform="matrix(-1 0 0 1 695 389)"><path d="m.60669 26.42087h6.44531v-22.2461l-7.01172 1.40625v-3.59375l6.97266-1.40625h3.94531v25.83985h6.44531v3.32031h-16.79687z"/><path d="m26.07544 26.42087h6.44531v-22.2461l-7.01172 1.40625v-3.59375l6.97266-1.40625h3.94531v25.83985h6.44531v3.32031h-16.79687z"/><path d="m66.99341 26.42087h13.76953v3.32031h-18.51563v-3.32031c1.4974-1.54948 3.5351633-3.6263033 6.11329-6.23047 2.59114-2.6171867 4.2187433-4.3033833 4.88281-5.05859 1.26302-1.4192733 2.1419267-2.61719 2.63672-3.59375.5078133-.9895867.76172-1.95964.76172-2.91016 0-1.54948-.5468767-2.8125-1.64063-3.78906-1.0807267-.97656667-2.4934867-1.46485-4.23828-1.46485-1.23698 0-2.5455733.21484333-3.92578.64453-1.3671867.42969333-2.83203 1.08073667-4.39453 1.95313v-3.98438c1.58854-.63802 3.0729133-1.11979 4.45312-1.44531s2.6432267-.48828 3.78906-.48828c3.0208333 0 5.42969.75521 7.22657 2.26563 1.7968733 1.51041333 2.69531 3.52864 2.69531 6.05468 0 1.19792-.2278633 2.3372433-.68359 3.41797-.4427133 1.0677067-1.2565167 2.3307267-2.44141 3.78906-.32552.3776067-1.3606767 1.4713567-3.10547 3.28125-1.7447933 1.79688-4.20573 4.3164133-7.38281 7.5586z"/><path d="m101.01685 14.01852c1.88802.4036467 3.359373 1.2434933 4.41406 2.51954 1.067707 1.27604 1.60156 2.85156 1.60156 4.72656 0 2.8776-.989583 5.1041633-2.96875 6.67969-1.979167 1.57552-4.7916667 2.36328-8.4375 2.36328-1.22396 0-2.48698-.1237-3.78906-.3711-1.2890667-.2343733-2.6237033-.5924467-4.00391-1.07422v-3.80859c1.0937533.63802 2.29167 1.11979 3.59375 1.44531 1.3020867.32552 2.6627633.48828 4.08203.48828 2.47396 0 4.35547-.48828 5.64453-1.46484 1.302087-.97656 1.95313-2.39583 1.95313-4.25781 0-1.7187533-.60547-3.0599-1.81641-4.02344-1.197913-.97656-2.87109-1.46484-5.01953-1.46484h-3.39844v-3.24219h3.55469c1.9401067 0 3.4244833-.3841133 4.45313-1.15234 1.028647-.7812533 1.54297-1.90104667 1.54297-3.35938 0-1.49739333-.533857-2.64322667-1.60157-3.4375-1.0546867-.80729333-2.5716133-1.21094-4.55078-1.21094-1.0807267 0-2.23958.11719-3.47656.35157-1.23698.23437333-2.5976567.59895667-4.08203 1.09375v-3.51563c1.4973933-.41666667 2.8971333-.72916667 4.19922-.9375 1.3151-.20833333 2.5520767-.3125 3.71093-.3125 2.9947933 0 5.364587.68359333 7.10938 2.05078 1.744793 1.35416667 2.61719 3.19010333 2.61719 5.50781 0 1.61458667-.46224 2.9817767-1.38672 4.10157-.92448 1.1067667-2.239583 1.8749933-3.94531 2.30468z"/><path d="m127.30591.58102h15.48828v3.32032h-11.875v7.14843c.572913-.1953067 1.14583-.3385333 1.71875-.42968.572913-.1041667 1.14583-.15625 1.71875-.15625 3.255207 0 5.83333.8919267 7.73437 2.67578 1.901047 1.7838533 2.85157 4.1992167 2.85157 7.24609 0 3.13802-.976563 5.5794267-2.92969 7.32422-1.953127 1.7317733-4.707033 2.59766-8.26172 2.59766-1.22396 0-2.47396-.1041667-3.75-.3125-1.26302-.2083333-2.571613-.5208333-3.92578-.9375v-3.96485c1.171873.63802 2.38281 1.11328 3.63281 1.42578s2.571617.46875 3.96485.46875c2.2526 0 4.036453-.5924467 5.35156-1.77734 1.3151-1.1848933 1.97265-2.7929667 1.97265-4.82422 0-2.0312467-.65755-3.63932-1.97265-4.82422-1.315107-1.1848933-3.09896-1.77734-5.35156-1.77734-1.054693 0-2.109383.1171867-3.16407.35156-1.041667.2343733-2.109373.5989567-3.20312 1.09375z"/><path d="m161.1731 15.89352c-1.875 0-3.352867.5013033-4.4336 1.50391-1.067707 1.0026067-1.60156 2.3828167-1.60156 4.14063 0 1.7578067.533853 3.1380133 1.60156 4.14062 1.080733 1.0026067 2.5586 1.50391 4.4336 1.50391s3.352863-.5013033 4.43359-1.50391c1.080727-1.0156267 1.62109-2.3958333 1.62109-4.14062 0-1.7578133-.540363-3.1380233-1.62109-4.14063-1.067707-1.0026067-2.54557-1.50391-4.43359-1.50391zm-3.94532-1.67968c-1.692707-.4166667-3.01432-1.2044267-3.96484-2.36328-.9375-1.15886-1.40625-2.57162333-1.40625-4.23829 0-2.33072667.826823-4.17317333 2.48047-5.52734 1.666667-1.35416667 3.945313-2.03125 6.83594-2.03125 2.90364 0 5.182283.67708333 6.83593 2.03125s2.48047 3.19661333 2.48047 5.52734c0 1.66666667-.47526 3.07943-1.42578 4.23829-.9375 1.1588533-2.246093 1.9466133-3.92578 2.36328 1.90104.4427067 3.378903 1.30859 4.43359 2.59765 1.067713 1.2890667 1.60157 2.86459 1.60157 4.72657 0 2.82552-.865887 4.9934867-2.59766 6.5039-1.718753 1.51042-4.1862 2.26563-7.40234 2.26563-3.216147 0-5.690107-.75521-7.42188-2.26563-1.718747-1.5104133-2.57812-3.67838-2.57812-6.5039 0-1.86198.533853-3.4375033 1.60156-4.72657 1.067707-1.28906 2.55208-2.1549433 4.45312-2.59765zm-1.44531-6.23047c0 1.51041333.46875 2.6887967 1.40625 3.53515.95052.84636 2.278647 1.26954 3.98438 1.26954 1.692707 0 3.01432-.42318 3.96484-1.26954.96354-.8463533 1.44531-2.02473667 1.44531-3.53515 0-1.51042-.48177-2.68880667-1.44531-3.53516-.95052-.84635333-2.272133-1.26953-3.96484-1.26953-1.705733 0-3.03386.42317667-3.98438 1.26953-.9375.84635333-1.40625 2.02474-1.40625 3.53516z"/></g><g transform="matrix(-1 0 0 1 442 388)"><path d="m.83618 26.45312h6.44531v-22.24609l-7.01171 1.40625v-3.59375l6.97265-1.40625h3.94531v25.83984h6.44532v3.32032h-16.79688z"/><path d="m37.57446 14.05078c1.88802.4036467 3.3593767 1.24349 4.41407 2.51953 1.0677067 1.27604 1.60156 2.85156 1.60156 4.72656 0 2.8776067-.9895833 5.10417-2.96875 6.67969s-4.7916667 2.36328-8.4375 2.36328c-1.22396 0-2.48698-.1236967-3.78906-.37109-1.2890667-.2343733-2.6237033-.5924467-4.00391-1.07422v-3.80859c1.0937467.63802 2.2916633 1.11979 3.59375 1.44531 1.30208.32552 2.6627567.48828 4.08203.48828 2.47396 0 4.35547-.48828 5.64453-1.46484 1.3020867-.9765667 1.95313-2.39584 1.95313-4.25782 0-1.7187467-.60547-3.05989-1.81641-4.02343-1.1979133-.9765667-2.87109-1.46485-5.01953-1.46485h-3.39844v-3.24218h3.55469c1.9401067 0 3.42448-.3841167 4.45312-1.15235 1.0286467-.7812467 1.54297-1.90103667 1.54297-3.35937 0-1.4974-.5338533-2.64323333-1.60156-3.4375-1.0546867-.80729333-2.5716133-1.21094-4.55078-1.21094-1.0807267 0-2.23958.11718667-3.47656.35156s-2.5976567.59895667-4.08203 1.09375v-3.51562c1.4973933-.41666667 2.89713-.72916667 4.19921-.9375 1.3151067-.20833333 2.5520867-.3125 3.71094-.3125 2.9947933 0 5.3645867.68359333 7.10938 2.05078 1.7447867 1.35416667 2.61718 3.19010333 2.61718 5.50781 0 1.61458667-.4622367 2.9817733-1.38671 4.10156-.92448 1.1067733-2.2395867 1.8750033-3.94532 2.30469z"/><path d="m54.48853 26.45312h13.76953v3.32032h-18.51563v-3.32032c1.4974-1.5494733 3.53516-3.6262933 6.11328-6.23046 2.5911467-2.6171933 4.2187533-4.3033933 4.88282-5.0586 1.26302-1.4192667 2.1419233-2.6171833 2.63671-3.59375.5078133-.98958.76172-1.95963.76172-2.91015 0-1.54948-.5468733-2.81250333-1.64062-3.78907-1.0807333-.97656-2.4934933-1.46484-4.23828-1.46484-1.23698 0-2.5455733.21484333-3.92578.64453-1.3671933.42968667-2.83204 1.08073-4.39454 1.95313v-3.98438c1.5885467-.63802 3.0729233-1.11979 4.45313-1.44531s2.6432267-.48828 3.78906-.48828c3.0208333 0 5.4296867.75520667 7.22656 2.26562 1.79688 1.51042 2.69532 3.52865 2.69532 6.05469 0 1.19791333-.2278667 2.3372367-.6836 3.41797-.4427067 1.0677067-1.2565067 2.3307267-2.4414 3.78906-.32552.3776067-1.3606767 1.4713567-3.10547 3.28125-1.7447933 1.7968733-4.20573 4.3164033-7.38281 7.55859z"/><path d="m77.24243 26.45312h6.44531v-22.24609l-7.01171 1.40625v-3.59375l6.97265-1.40625h3.94531v25.83984h6.44532v3.32032h-16.79688z"/><path d="m126.71509 14.05078c1.88802.4036467 3.359373 1.24349 4.41406 2.51953 1.067707 1.27604 1.60156 2.85156 1.60156 4.72656 0 2.8776067-.989583 5.10417-2.96875 6.67969s-4.791667 2.36328-8.4375 2.36328c-1.223953 0-2.486973-.1236967-3.78906-.37109-1.28906-.2343733-2.623697-.5924467-4.00391-1.07422v-3.80859c1.093753.63802 2.29167 1.11979 3.59375 1.44531 1.302087.32552 2.662767.48828 4.08204.48828 2.473953 0 4.355463-.48828 5.64453-1.46484 1.30208-.9765667 1.95312-2.39584 1.95312-4.25782 0-1.7187467-.605467-3.05989-1.8164-4.02343-1.19792-.9765667-2.8711-1.46485-5.01954-1.46485h-3.39843v-3.24218h3.55468c1.940107 0 3.424483-.3841167 4.45313-1.15235 1.028647-.7812467 1.54297-1.90103667 1.54297-3.35937 0-1.4974-.533853-2.64323333-1.60156-3.4375-1.054693-.80729333-2.571623-1.21094-4.55079-1.21094-1.080727 0-2.23958.11718667-3.47656.35156s-2.597657.59895667-4.08203 1.09375v-3.51562c1.497393-.41666667 2.897133-.72916667 4.19922-.9375 1.315107-.20833333 2.552087-.3125 3.71094-.3125 2.994787 0 5.364577.68359333 7.10937 2.05078 1.744793 1.35416667 2.61719 3.19010333 2.61719 5.50781 0 1.61458667-.46224 2.9817733-1.38672 4.10156-.92448 1.1067733-2.239583 1.8750033-3.94531 2.30469z"/><path d="m151.07056 4.05078-9.96094 15.56641h9.96094zm-1.03516-3.4375h4.96094v19.00391h4.16015v3.28125h-4.16015v6.875h-3.92578v-6.875h-13.16407v-3.8086z"/><path d="m165.73853.61328h15.48828v3.32031h-11.875v7.14844c.572913-.1953133 1.14583-.3385433 1.71875-.42969.572913-.1041667 1.14583-.15625 1.71875-.15625 3.255207 0 5.83333.8919267 7.73437 2.67578 1.90104 1.78386 2.85156 4.1992267 2.85156 7.2461 0 3.13802-.97656 5.5794267-2.92968 7.32422-1.953127 1.7317667-4.707033 2.59765-8.26172 2.59765-1.22396 0-2.47396-.1041667-3.75-.3125-1.26302-.2083333-2.571613-.5208333-3.92578-.9375v-3.96484c1.171873.63802 2.38281 1.11328 3.63281 1.42578s2.571613.46875 3.96484.46875c2.252607 0 4.036463-.5924467 5.35157-1.77734 1.3151-1.1849 1.97265-2.7929733 1.97265-4.82422 0-2.0312533-.65755-3.6393267-1.97265-4.82422-1.315107-1.1848933-3.098963-1.77734-5.35157-1.77734-1.054687 0-2.109373.1171867-3.16406.35156-1.041667.2343733-2.109373.5989567-3.20312 1.09375z"/><path d="m191.20728.61328h15.48828v3.32031h-11.875v7.14844c.572913-.1953133 1.14583-.3385433 1.71875-.42969.572913-.1041667 1.14583-.15625 1.71875-.15625 3.255207 0 5.83333.8919267 7.73437 2.67578 1.90104 1.78386 2.85156 4.1992267 2.85156 7.2461 0 3.13802-.97656 5.5794267-2.92968 7.32422-1.953127 1.7317667-4.707033 2.59765-8.26172 2.59765-1.22396 0-2.47396-.1041667-3.75-.3125-1.26302-.2083333-2.571613-.5208333-3.92578-.9375v-3.96484c1.171873.63802 2.38281 1.11328 3.63281 1.42578s2.571613.46875 3.96484.46875c2.252607 0 4.036463-.5924467 5.35157-1.77734 1.3151-1.1849 1.97265-2.7929733 1.97265-4.82422 0-2.0312533-.65755-3.6393267-1.97265-4.82422-1.315107-1.1848933-3.098963-1.77734-5.35157-1.77734-1.054687 0-2.109373.1171867-3.16406.35156-1.041667.2343733-2.109373.5989567-3.20312 1.09375z"/></g></g><path d="m0 52h750v102h-750z" fill="#333" transform="matrix(1 0 0 -1 0 206)"/><path d="m16 177h562v80h-562z" fill="#fff"/><g fill="#000" transform="translate(477 199)"><path d="m21.85 31.6h-7.2v-31h-3.65l-10.2 6.3 1.8 2.95 7.9-4.75v26.5h-8.5v3.4h19.85z"/><path d="m39.43047 0c-4.65 0-7.75 1.65-10.5 4.95l2.9 2.2c2.2-2.55 4.05-3.65 7.45-3.65 3.85 0 6.15 2.4 6.15 6.25 0 5.65-2.8 9.4-15.8 21.85v3.4h20.45l.5-3.55h-16.2c11.35-10.35 15.4-15.5 15.4-21.8 0-5.5-3.85-9.65-10.35-9.65z"/><path d="m69.41094 0c-3.5 0-6.85 1.2-9.75 4l2.25 2.55c2.3-2.15 4.35-3.2 7.3-3.2 3.65 0 6.55 2.05 6.55 5.85 0 4.15-3.25 6.05-6.55 6.05h-2.05l-.5 3.3h2.9c4.05 0 7.15 1.6 7.15 6.55 0 4.3-2.85 7.05-7.7 7.05-2.8 0-5.7-1.15-7.65-3.45l-2.8 2.3c2.6 3.2 6.7 4.55 10.55 4.55 7.1 0 11.95-4.5 11.95-10.45 0-5.35-3.8-8.15-7.85-8.45 3.65-.7 6.75-3.85 6.75-8 0-4.7-4.1-8.65-10.55-8.65z"/></g><rect fill="#a5a5a5" height="95" rx="25" width="133" x="16" y="310"/></g></svg>