<svg height="471" viewBox="0 0 750 471" width="750" xmlns="http://www.w3.org/2000/svg"><g fill="none"><rect fill="#fff" height="471" rx="40" width="750"/><path d="m201.809581 55h142.393685c19.868886 0 32.28694 16.4063861 27.63017 36.4702467l-66.333105 287.4775033c-4.65677 20.063861-24.62914 36.470247-44.498026 36.470247h-142.393685c-19.8688861 0-32.28694-16.406386-27.6301698-36.470247l66.3331048-287.4775033c4.65677-20.1683599 24.525656-36.4702467 44.394542-36.4702467z" fill="#d10429"/><path d="m331.750074 55h163.814828c19.868886 0 10.865797 16.4063861 6.209027 36.4702467l-66.333105 287.4775033c-4.65677 20.063861-3.207997 36.470247-23.076883 36.470247h-163.814828c-19.97237 0-32.28694-16.406386-27.526686-36.470247l66.333104-287.4775033c4.656771-20.1683599 24.525657-36.4702467 44.498027-36.4702467z" fill="#022e64"/><path d="m489.814981 55h142.393685c19.868886 0 32.28694 16.4063861 27.63017 36.4702467l-66.333105 287.4775033c-4.65677 20.063861-24.62914 36.470247-44.498026 36.470247h-142.393685c-19.97237 0-32.28694-16.406386-27.63017-36.470247l66.333105-287.4775033c4.65677-20.1683599 24.525656-36.4702467 44.394543-36.4702467z" fill="#076f74"/><g fill="#fefefe"><path d="m465.904754 326.014514h13.452891l3.8289-13.06241h-13.349408zm10.762313-35.947751-4.65677 15.465893s5.070705-2.612482 7.864767-3.448476c2.794062-.626996 6.933414-1.149492 6.933414-1.149492l3.207997-10.763425h-13.452892zm6.726446-22.153846-4.449803 14.838897s4.967222-2.298984 7.761284-3.030479 6.933413-.940493 6.933413-.940493l3.207998-10.763425h-13.349408zm29.699846 0-17.385276 57.997098h4.65677l-3.621932 12.017416h-4.65677l-1.138322 3.657475h-16.557405l1.138321-3.657475h-33.528745l3.311481-11.076923h3.414965l17.592243-58.937591 3.518448-11.912917h16.867857l-1.759224 5.956459s4.449802-3.239478 8.796121-4.38897c4.242835-1.149492 28.665008-1.567489 28.665008-1.567489l-3.621932 11.808418h-5.795092z"/><path d="m520 256h18.006178l.206968 6.792453c-.103484 1.149492.82787 1.671988 3.001029 1.671988h3.621933l-3.311481 11.181423h-9.727476c-8.382186.626995-11.590183-3.030479-11.383216-7.105951l-.310451-12.435414zm2.216235 53.20029h-17.178308l2.897546-9.927431h19.661918l2.794063-9.091437h-19.351468l3.311481-11.181422h53.811567l-3.311481 11.181422h-18.109662l-2.794062 9.091437h18.109662l-3.00103 9.927431h-19.558435l-3.518448 4.179971h7.968251l1.966192 12.539913c.206968 1.253991.206968 2.089986.620903 2.612482.413935.417997 2.794062.626996 4.139351.626996h2.380127l-3.725416 12.226415h-6.105543c-.931354 0-2.380127-.1045-4.346319-.1045-1.862708-.208998-3.104514-1.253991-4.346319-1.880986-1.138322-.522497-2.794062-1.880987-3.207997-4.284471l-1.862708-12.539913-8.899606 12.330915c-2.794062 3.866473-6.622962 6.896952-13.14244 6.896952h-12.418054l3.311481-10.867925h4.760254c1.345289 0 2.587095-.522496 3.518449-1.044992.931354-.417998 1.759224-.835995 2.587094-2.194485zm-187.902695-27.20029h45.429381l-3.311481 10.972424h-18.109662l-2.794062 9.300435h18.627081l-3.414965 11.285922h-18.523597l-4.553287 15.152395c-.517419 1.671988 4.449803 1.880987 6.209027 1.880987l9.313541-1.253992-3.725416 12.539913h-20.903725c-1.65574 0-2.897545-.208998-4.760253-.626995-1.759225-.417998-2.587095-1.253992-3.311482-2.403484-.724386-1.253991-1.966191-2.194485-1.138321-4.911466l6.002059-20.06386h-10.348378l3.414965-11.494921h10.348378l2.794062-9.300435h-10.348378l3.311481-10.972424zm31.387335-19.834543h18.627081l-3.414965 11.390421h-25.45701l-2.794062 2.403483c-1.241806 1.149492-1.552257.731495-3.104514 1.56749-1.448773.731494-4.449802 2.194484-8.382186 2.194484h-8.175219l3.311481-10.972424h2.483611c2.069675 0 3.518448-.208998 4.242835-.626995.82787-.522497 1.759224-1.671989 2.690578-3.552976l4.65677-8.56894h18.523597l-3.207997 6.269956zm35.107851 18.80987s5.070705-4.702468 13.763343-6.165458c1.966192-.417997 14.384245-.208998 14.384245-.208998l1.862709-6.269957h-26.181397l-3.8289 12.748912zm24.62914 4.806966h-25.97443l-1.552256 5.329463h22.559464c2.690579-.313498 3.207998.104499 3.414965-.104499l1.655741-5.224964zm-33.735713-29.677794h15.833018l-2.276643 8.046444s4.967222-4.075471 8.48567-5.538461c3.518449-1.253991 11.383216-2.507983 11.383216-2.507983l25.663979-.104499-8.796122 29.468795c-1.448773 5.015966-3.207997 8.255443-4.242835 9.822932-.931354 1.46299-2.069676 2.821481-4.346319 4.075472-2.173159 1.149492-4.139351 1.880987-6.002059 1.985486-1.655741.104499-4.346319.208999-7.864768.208999h-24.732624l-6.933413 23.303338c-.620903 2.298984-.931354 3.448476-.517419 4.075471.310451.522497 1.241805 1.149492 2.380127 1.149492l10.865797-1.044992-3.725416 12.748911h-12.211086c-3.932384 0-6.726446-.104499-8.692638-.208998-1.862708-.208999-3.8289 0-5.174189-1.044993-1.138322-1.044993-2.897546-2.403483-2.794062-3.761974.103483-1.253991.620902-3.343977 1.448773-6.269956z"/><path d="m437.840227 303-1.448773 7.105951c-.620903 2.194484-1.138322 3.866473-2.794063 5.329463-1.759224 1.462989-3.725416 3.030479-8.48567 3.030479l-8.796121.417997-.103484 7.941945c-.103484 2.194484.517419 1.985486.82787 2.403483.413935.417997.724387.522496 1.138322.731495l2.794062-.208999 8.382186-.417997-3.518448 11.703919h-9.623992c-6.726446 0-11.797151-.208999-13.349408-1.46299-1.65574-1.044993-1.862708-2.298984-1.862708-4.597968l.620903-31.140784h15.419083l-.206967 6.374456h3.725416c1.241805 0 2.173159-.104499 2.690578-.417997s.82787-.835994 1.034838-1.567489l1.552257-5.015965h12.107602zm-219.369831-156c-.517418 2.507983-10.451862 48.592163-10.451862 48.592163-2.173159 9.300435-3.725416 15.988389-8.899605 20.272859-3.00103 2.507982-6.519478 3.657474-10.555346 3.657474-6.519478 0-10.244894-3.239477-10.865797-9.404934l-.103484-2.089986s1.966192-12.435413 1.966192-12.539913c0 0 10.348378-42.008708 12.211087-47.54717.103483-.313497.103483-.522496.103483-.626995-20.179337.208998-23.80127 0-24.008237-.313498-.103484.417997-.620903 3.030479-.620903 3.030479l-10.555346 47.338171-.931354 3.970973-1.759224 13.166908c0 3.866473.724386 7.105951 2.276643 9.718433 4.863738 8.56894 18.627081 9.822932 26.388365 9.822932 10.037927 0 19.454951-2.194485 25.767462-6.060958 11.072764-6.583455 13.97031-16.928883 16.453921-26.02032l1.241805-4.702467s10.65883-43.576197 12.521538-49.219158c.103484-.313498.103484-.522497.206968-.626996-14.694698.104499-18.937533 0-20.386306-.313498zm59.02866 86.622642c-7.140381-.1045-9.727475-.1045-18.109662.313497l-.310451-.626995c.724386-3.239478 1.552257-6.374456 2.173159-9.613934l1.034838-4.388969c1.552257-6.792453 3.00103-14.838897 3.207997-17.24238.206968-1.46299.620903-5.120465-3.518448-5.120465-1.759225 0-3.518449.835994-5.381157 1.671989-1.034838 3.657474-3.00103 13.898403-4.035867 18.496371-2.069676 9.822932-2.17316 10.972424-3.104514 15.779391l-.620903.626995c-7.347348-.104499-9.934443-.104499-18.420113.313498l-.413935-.731495c1.448773-5.851959 2.794062-11.703919 4.139351-17.555878 3.518449-15.77939 4.449803-21.840348 5.381157-29.886792l.724386-.417997c8.278703-1.149493 10.244895-1.46299 19.247984-3.239478l.724386.835994-1.345289 5.015965c1.552257-.940493 3.00103-1.880987 4.553287-2.612481 4.242835-2.089986 8.899605-2.716982 11.4867-2.716982 3.932383 0 8.278702 1.149492 10.037926 5.74746 1.655741 4.075472.620903 9.091437-1.65574 19.018868l-1.138322 5.015966c-2.276643 11.076923-2.690578 13.062409-3.932383 20.586357l-.827871.626995zm29.059379.027576c-4.346319 0-7.140381-.1045-9.830959 0-2.690579 0-5.277673.208998-9.313541.313498l-.206967-.313498-.206968-.417997c1.138322-4.179971 1.655741-5.642961 2.276643-7.105951.517419-1.46299 1.034838-2.92598 2.069676-7.21045 1.241805-5.538462 2.069676-9.404935 2.587094-12.853411.620903-3.239477.931354-6.060958 1.34529-9.300435l.310451-.208999.310451-.313497c4.346319-.626996 7.036897-1.044993 9.83096-1.46299 2.794062-.417997 5.691608-.940494 10.14141-1.776488l.206968.417997.103484.417997c-.827871 3.448476-1.655741 6.896952-2.483611 10.345428s-1.655741 6.896952-2.380127 10.345429c-1.552257 7.314949-2.276643 10.03193-2.587095 12.017416-.413935 1.880987-.517419 2.82148-1.138321 6.583454l-.413935.313498-.413936.313498zm45.940884-25.674891c-.310451 1.880986-1.966192 8.882438-4.139351 11.808418-1.552257 2.194484-3.311481 3.552975-5.381157 3.552975-.620902 0-4.139351 0-4.242835-5.329463 0-2.612482.517419-5.329463 1.138322-8.255443 1.862708-8.464441 4.139351-15.465892 9.830959-15.465892 4.449803 0 4.760254 5.224963 2.794062 13.689405zm18.730565.835994c2.483611-11.076923.517419-16.301887-1.862708-19.436865-3.725416-4.806967-10.348378-6.374456-17.178308-6.374456-4.139351 0-13.866827.417997-21.524627 7.523948-5.48464 5.120464-8.071735 12.121916-9.520508 18.809869-1.552257 6.792453-3.311481 19.018868 7.864768 23.616836 3.414965 1.46299 8.382186 1.880987 11.590183 1.880987 8.175219 0 16.557405-2.298984 22.869916-8.986938 4.863738-5.433962 7.036897-13.584905 7.864768-17.033381zm174.432035 26.079826c-8.692638-.1045-11.176249-.1045-19.1445.313497l-.517419-.626995c2.173159-8.255443 4.346319-16.615385 6.312511-24.975327 2.483611-10.867924 3.104513-15.465892 3.932383-21.840348l.620903-.522496c8.589154-1.253992 10.969281-1.56749 19.97237-3.239478l.206968.731495c-1.655741 6.896952-3.207998 13.689405-4.863738 20.481858-3.311481 14.3164-4.449803 21.631349-5.691608 29.155297l-.82787.626996z"/><path d="m533.159909 209.373777c-.413935 1.776488-2.069676 8.882439-4.242835 11.808418-1.448773 2.089986-4.967222 3.448477-6.933413 3.448477-.620903 0-4.035868 0-4.242835-5.224964 0-2.612482.517418-5.329463 1.138321-8.255443 1.862708-8.255443 4.139351-15.256894 9.830959-15.256894 4.449803 0 6.415995 5.120465 4.449803 13.584906zm17.074824.835995c2.483611-11.076923-7.6578-.940494-9.210056-4.597968-2.483611-5.74746-.931355-17.242381-10.865798-21.108854-3.8289-1.567489-12.831989.417997-20.489789 7.523948-5.381156 5.015965-8.071735 12.017417-9.520508 18.70537-1.552256 6.687954-3.311481 19.018868 7.761284 23.303338 3.518449 1.567489 6.726446 1.985486 9.934443 1.776488 11.176249-.626996 19.661919-17.660377 25.97443-24.348331 4.863737-5.329463 5.691608 1.985486 6.415994-1.253991zm-129.942644 23.41287c-7.140381-.1045-9.623992-.1045-18.006179.313497l-.310451-.626995c.724387-3.239478 1.552257-6.374456 2.276643-9.613934l.931354-4.388969c1.552257-6.792453 3.104514-14.838897 3.207998-17.24238.206967-1.46299.620902-5.120465-3.414965-5.120465-1.759225 0-3.621933.835994-5.381157 1.671989-.931354 3.657474-3.00103 13.898403-4.035867 18.496371-1.966192 9.822932-2.17316 10.972424-3.104514 15.779391l-.620903.626995c-7.347348-.104499-9.934443-.104499-18.420113.313498l-.413935-.731495c1.448773-5.851959 2.794062-11.703919 4.139351-17.555878 3.518449-15.77939 4.346319-21.840348 5.381157-29.886792l.620903-.417997c8.278702-1.149493 10.348378-1.46299 19.247983-3.239478l.724387.835994-1.241806 5.015965c1.448773-.940493 3.00103-1.880987 4.449803-2.612481 4.242835-2.089986 8.899605-2.716982 11.4867-2.716982 3.932384 0 8.175219 1.149492 10.037927 5.74746 1.65574 4.075472.517419 9.091437-1.759225 19.018868l-1.138321 5.015966c-2.380127 11.076923-2.690579 13.062409-3.932384 20.586357l-.82787.626995zm62.001029-86.518143-6.002059.1045c-15.522567.208998-21.731594.104499-24.215205-.208999-.206968 1.149492-.620903 3.134978-.620903 3.134978s-5.588124 25.91582-5.588124 26.02032c0 0-13.245924 55.175616-13.866827 57.788098 13.556375-.208998 19.041016-.208998 21.421143.1045.517419-2.612482 3.621932-17.973876 3.725416-17.973876 0 0 2.690578-11.285921 2.794062-11.703918 0 0 .827871-1.149492 1.655741-1.671989h1.241805c11.693668 0 24.836108 0 35.184486-7.628447 7.036897-5.224964 11.797151-13.062409 13.970311-22.467344.517419-2.298984.931354-5.015965.931354-7.837445 0-3.657475-.724387-7.21045-2.794062-10.031931-5.277673-7.419448-15.729535-7.523947-27.837138-7.628447zm7.761284 27.065312c-1.241805 5.74746-4.967222 10.658926-9.727476 12.95791-3.932383 1.985487-8.692637 2.194485-13.659859 2.194485h-3.207997l.206967-1.253991s5.898576-25.91582 5.898576-25.811321l.206968-1.358491.103483-1.044992 2.380127.208998s12.211087 1.044993 12.418054 1.044993c4.760254 1.880987 6.82993 6.687954 5.381157 13.062409zm127.206967 8.666183-.724386-.835994c-8.796121 1.776488-10.451862 2.089985-18.523597 3.239478l-.620903.626995c0 .104499-.103484.208999-.103484.417997v-.104499c-6.002059 14.107402-5.898575 11.076923-10.762313 22.153846 0-.522496 0-.835994-.103484-1.35849l-1.241805-24.034834-.724387-.835994c-9.31354 1.776488-9.520508 2.089986-18.006178 3.239478l-.620902.626995c-.103484.313498-.103484.626996-.103484.940494l.103484.104499c1.034837 5.538462.82787 4.28447 1.862708 12.95791.517419 4.28447 1.138321 8.568941 1.65574 12.748912.82787 7.10595 1.345289 10.554426 2.380127 21.317852-5.795092 9.613933-7.140381 13.271407-12.728505 21.735849l.310451.835994c8.382187-.313498 10.244895-.313498 16.453922-.313498l1.345289-1.567489c4.65677-10.13643 40.255191-71.791002 40.255191-71.791002zm-302.717761 6.922376c4.760254-3.343976 5.381157-7.941945 1.345289-10.345428-4.035867-2.403483-11.176248-1.671988-15.936502 1.671989-4.760254 3.239477-5.277673 7.837445-1.241805 10.345428 3.932383 2.298984 11.072764 1.671988 15.833018-1.671989z"/><path d="m575.734683 256.104499-6.933413 12.017417c-2.173159 4.075472-6.312511 7.21045-12.728505 7.21045l-11.072765-.208999 3.207997-10.867924h2.17316c1.138321 0 1.966192-.1045 2.587094-.417997.620903-.208999.931354-.626996 1.448773-1.253992l4.139351-6.583454h17.281792z"/></g></g></svg>