<svg xmlns="http://www.w3.org/2000/svg" width="752" height="471" viewBox="0 0 752 471"><title>Slice 1</title><g fill="#2557D6"><path d="M1.002 221.185h36.024l8.123-19.51h18.184l8.102 19.51h70.88V206.27l6.327 14.978h36.796l6.326-15.202v15.14h176.15l-.082-32.027h3.408c2.387.082 3.084.3 3.084 4.225v27.8h91.105v-7.456c7.35 3.92 18.78 7.455 33.82 7.455h38.327l8.203-19.51h18.185l8.022 19.51h73.86v-18.532l11.185 18.532h59.187V98.678h-58.576v14.468l-8.202-14.468h-60.104v14.468l-7.532-14.468h-81.188c-13.59 0-25.536 1.89-35.187 7.153V98.68h-56.025v7.153c-6.14-5.425-14.508-7.152-23.812-7.152H180.907l-13.733 31.642-14.104-31.642H88.6v14.468l-7.083-14.468H26.533L1 156.924v64.26h.002zm227.398-17.67h-21.615l-.08-68.794-30.572 68.794H157.62l-30.652-68.854v68.854H84.084l-8.102-19.592h-43.9L23.9 203.514H1l37.756-87.837h31.326l35.858 83.164v-83.163h34.412l27.593 59.587 25.348-59.587h35.104v87.837h.003zM68.778 165.692l-14.432-35.017-14.35 35.017H68.78zm245.64 37.82h-70.432v-87.836h70.433v18.292h-49.35V149.8h48.165v18.005H265.07v17.542h49.35v18.164zm99.257-64.18c0 14.005-9.387 21.24-14.856 23.413 4.612 1.75 8.553 4.838 10.43 7.397 2.976 4.37 3.49 8.27 3.49 16.116v17.254h-21.267l-.08-11.077c0-5.286.508-12.887-3.328-17.112-3.08-3.09-7.777-3.76-15.368-3.76h-22.633v31.95H328.98v-87.838h48.495c10.775 0 18.715.284 25.53 4.208 6.67 3.923 10.67 9.65 10.67 19.448zm-26.652 13.043c-2.897 1.75-6.324 1.81-10.43 1.81H350.98v-19.51h25.962c3.674 0 7.508.164 9.998 1.584 2.735 1.28 4.428 4.003 4.428 7.765 0 3.84-1.61 6.93-4.345 8.35zm60.466 51.138h-21.514v-87.837h21.513v87.837zm249.74 0h-29.88l-39.964-65.927v65.927h-42.94l-8.204-19.592h-43.8l-7.96 19.592h-24.67c-10.25 0-23.225-2.257-30.573-9.715-7.41-7.46-11.266-17.56-11.266-33.534 0-13.027 2.304-24.936 11.366-34.347 6.815-7.01 17.49-10.244 32.02-10.244h20.412v18.82H501.79c-7.695 0-12.04 1.14-16.226 5.205-3.595 3.7-6.06 10.69-6.06 19.897 0 9.41 1.877 16.196 5.796 20.628 3.246 3.476 9.145 4.53 14.694 4.53h9.47l29.716-69.077h31.592l35.696 83.082v-83.08h32.103l37.063 61.174V115.68h21.597v87.834zm-128.16-37.82l-14.59-35.018-14.51 35.017h29.1zM750.956 343.768c-5.122 7.457-15.102 11.238-28.612 11.238h-40.717v-18.84h40.553c4.022 0 6.837-.527 8.532-2.175 1.47-1.358 2.493-3.332 2.493-5.73 0-2.56-1.024-4.59-2.576-5.81-1.53-1.34-3.758-1.95-7.43-1.95-19.797-.67-44.495.61-44.495-27.193 0-12.743 8.126-26.156 30.25-26.156h41.998v-17.48h-39.02c-11.776 0-20.33 2.81-26.388 7.175v-7.174H627.83c-9.23 0-20.063 2.278-25.188 7.175v-7.174H499.577v7.175c-8.203-5.893-22.043-7.174-28.43-7.174h-67.984v7.175c-6.49-6.258-20.92-7.174-29.716-7.174h-76.084l-17.41 18.763-16.308-18.762H149.99v122.593h111.517l17.94-19.06 16.9 19.06 68.737.06v-28.838h6.758c9.12.14 19.877-.226 29.367-4.31v33.084h56.696v-31.952h2.735c3.49 0 3.835.144 3.835 3.617v28.332H636.71c10.934 0 22.364-2.787 28.693-7.845v7.845h54.632c11.37 0 22.472-1.587 30.92-5.65v-22.84zm-341.504-47.155c0 24.405-18.286 29.444-36.716 29.444h-26.308v29.47h-40.98l-25.962-29.086-26.98 29.087H168.99v-87.86h84.8l25.94 28.8 26.82-28.8h67.37c16.734 0 35.532 4.614 35.532 28.946zm-167.625 40.434H189.99v-17.48h46.288V301.64H189.99v-15.973h52.86l23.062 25.604-24.085 25.777zm83.527 10.06l-32.37-35.79 32.37-34.65v70.44zm47.873-39.066H345.98v-22.373h27.492c7.61 0 12.896 3.09 12.896 10.772 0 7.598-5.04 11.6-13.14 11.6zM515.97 267.67h70.37v18.17h-49.373v15.973h48.168v17.927h-48.168v17.48l49.373.08v18.23h-70.37v-87.86zm-27.053 47.03c4.693 1.724 8.53 4.815 10.328 7.375 2.978 4.29 3.408 8.292 3.493 16.036v17.417H481.57v-10.992c0-5.286.512-13.112-3.407-17.197-3.08-3.148-7.777-3.9-15.47-3.9h-22.53v32.09h-21.188v-87.86h48.678c10.675 0 18.448.47 25.37 4.147 6.652 4.004 10.838 9.487 10.838 19.51 0 14.023-9.393 21.18-14.943 23.372zm-11.92-11.108c-2.818 1.667-6.307 1.81-10.41 1.81h-25.612V285.67h25.962c3.754 0 7.51.08 10.062 1.587 2.73 1.423 4.365 4.145 4.365 7.903s-1.634 6.787-4.367 8.432zm190.338 5.597c4.105 4.23 6.306 9.572 6.306 18.614 0 18.9-11.857 27.725-33.12 27.725h-41.066v-18.84h40.9c4 0 6.836-.527 8.613-2.175 1.45-1.36 2.49-3.334 2.49-5.73 0-2.56-1.126-4.592-2.573-5.81-1.612-1.342-3.837-1.95-7.508-1.95-19.718-.67-44.41.608-44.41-27.193 0-12.744 8.04-26.158 30.144-26.158h42.27v18.698H630.7c-3.834 0-6.326.144-8.447 1.588-2.31 1.422-3.166 3.533-3.166 6.32 0 3.314 1.96 5.57 4.612 6.545 2.225.772 4.613.997 8.205.997l11.35.305c11.445.276 19.303 2.248 24.078 7.065zM751 285.667h-38.427c-3.837 0-6.386.144-8.533 1.587-2.224 1.423-3.08 3.535-3.08 6.322 0 3.314 1.878 5.568 4.61 6.543 2.225.77 4.613.995 8.125.995l11.428.305c11.53.284 19.228 2.258 23.92 7.072.855.67 1.368 1.422 1.957 2.174v-25z"/></g></svg>