<svg width="638" height="234" viewBox="0 0 638 234" xmlns="http://www.w3.org/2000/svg"><g fill-rule="nonzero" fill="none"><path d="M95.7 51.6c6.8-2.3 14.1-3.5 21.7-3.5 33.2 0 60.9 23.6 67.2 54.9l47-9.6C220.8 40.2 173.8.1 117.4.1c-12.9 0-25.3 2.1-36.9 6l15.2 45.5z" fill="#FFF100"/><path d="M40.2 204L72 168c-14.2-12.6-23.1-30.9-23.1-51.4 0-20.4 8.9-38.8 23.1-51.3L40.2 29.4C16.1 50.8.9 81.9.9 116.7c0 34.7 15.2 65.9 39.3 87.3z" fill="#00A3DF"/><path d="M184.6 130.4c-6.4 31.3-34 54.8-67.2 54.8-7.6 0-14.9-1.2-21.8-3.5l-15.2 45.5c11.6 3.9 24.1 6 37 6 56.4 0 103.4-40 114.2-93.2l-47-9.6z" fill="#EE4023"/><g fill="#000"><path d="M388.2 162.6c-7.8 7.6-18.3 12.2-29.9 12-8-.1-15.4-2.5-21.6-6.5l-15.6 24.8c10.7 6.7 23.2 10.7 36.8 10.9 19.7.3 37.7-7.5 50.8-20.2l-20.5-21zM360 61.5c-39.2-.6-71.6 30.8-72.2 70-.2 14.7 4 28.5 11.5 39.9l128.8-55.1c-7.2-30.9-34.8-54.2-68.1-54.8zm-42.7 75.6c-.2-1.6-.3-3.3-.3-5 .4-23.1 19.4-41.6 42.5-41.2 12.6.2 23.8 5.9 31.3 14.9l-73.5 31.3zM468.6 29.5v137.3l23.8 9.9-11.3 27.1-23.6-9.8c-5.3-2.3-8.9-5.8-11.6-9.8-2.6-4-4.6-9.6-4.6-17V29.5h27.3zM554.5 93c4.2-1.4 8.6-2.1 13.3-2.1 20.3 0 37.1 14.4 41 33.5l28.7-5.9c-6.6-32.5-35.3-56.9-69.7-56.9-7.9 0-15.5 1.3-22.5 3.6l9.2 27.8zm-33.9 92.9L540 164c-8.7-7.7-14.1-18.9-14.1-31.4s5.5-23.7 14.1-31.3l-19.4-21.9c-14.7 13-24 32.1-24 53.3 0 21.2 9.3 40.2 24 53.2zm88.2-44.8c-3.9 19.1-20.8 33.5-41 33.5-4.6 0-9.1-.8-13.3-2.2l-9.3 27.8c7.1 2.4 14.7 3.7 22.6 3.7 34.4 0 63.1-24.4 69.7-56.9l-28.7-5.9z"/></g></g></svg>