<svg xmlns="http://www.w3.org/2000/svg" width="750" height="471" viewBox="0 0 750 471"><path fill="#D9222A" d="M675 235.506c0 99.133-80.351 179.496-179.483 179.496-99.121 0-179.479-80.362-179.479-179.496 0-99.142 80.358-179.508 179.479-179.508C594.65 55.998 675 136.365 675 235.506"/><path fill="#0097D0" d="M356.87 349.49a178.255 178.255 0 01-13.675-19.009h63.612a178.664 178.664 0 0010.342-19.013h-84.292a178.63 178.63 0 01-7.596-19h99.476c5.987-17.904 9.229-37.05 9.229-56.962 0-13.046-1.392-25.763-4.028-38.013H320.074a178.271 178.271 0 015.209-19.008h99.441a181.602 181.602 0 00-7.592-19.004h-84.254a181.055 181.055 0 0110.337-19.009h63.571a181.365 181.365 0 00-13.671-18.991H356.89a180.976 180.976 0 0118.112-19c-31.854-28.884-74.138-46.483-120.517-46.483C155.359 55.998 75 136.365 75 235.506c0 99.133 80.358 179.496 179.487 179.496 46.388 0 88.666-17.596 120.517-46.475a180.525 180.525 0 0018.133-19.037H356.87"/><path d="M651.074 335.544c0-3.2 2.596-5.796 5.801-5.796a5.794 5.794 0 015.791 5.796c0 3.204-2.592 5.8-5.791 5.8a5.8 5.8 0 01-5.801-5.8zm5.801 4.408a4.4 4.4 0 004.403-4.408 4.395 4.395 0 00-4.403-4.396 4.4 4.4 0 00-4.409 4.396 4.406 4.406 0 004.409 4.408zm-.788-1.862h-1.184v-5.092h2.15c.446 0 .904.004 1.3.258.417.283.646.775.646 1.271 0 .583-.338 1.112-.88 1.316l.934 2.246h-1.316l-.775-2.009h-.875v2.01zm0-2.879h.658c.246 0 .505.016.726-.101a.715.715 0 00.3-.592.651.651 0 00-.288-.513c-.212-.125-.541-.1-.762-.1h-.634v1.306zM372.446 284.006c-7.671 2.033-15.088 3.025-22.929 3.009-25.017-.024-38.046-11.417-38.046-33.2 0-25.458 16.587-44.183 39.1-44.183 18.417 0 30.175 10.5 30.175 26.946 0 5.458-.796 10.771-2.745 18.296h-44.488c-1.583 10.633 6.188 15.305 19.413 15.305 7.925 0 15.092-1.426 23.024-4.613l-3.504 18.44zm-11.963-44.15c0-1.608 2.476-13.034-10.399-13.284-7.108 0-12.208 4.725-14.271 13.284h24.67zM387.517 234.865c0 9.404 5.296 15.9 17.329 20.737 9.199 3.771 10.649 4.859 10.649 8.221 0 4.663-4.066 6.805-13.092 6.746-6.778-.05-12.962-.871-20.262-2.896l-3.229 17.154c6.487 1.504 15.588 2 23.65 2.188 24.024 0 35.116-7.866 35.116-24.866 0-10.217-4.625-16.234-16.033-20.713-9.538-3.809-10.658-4.638-10.658-8.083 0-4.05 3.779-6.1 11.149-6.1 4.463 0 10.579.413 16.38 1.108l3.258-17.242c-5.912-.825-14.883-1.483-20.075-1.483-25.449-.001-34.257 11.458-34.182 25.229M299.275 285.785h-18.662l.445-7.82c-5.691 6.17-13.271 9.041-23.558 9.041-12.175 0-20.517-8.324-20.517-20.295 0-18.196 14.5-28.692 39.429-28.692 2.563 0 5.821.192 9.167.563.691-2.433.879-3.479.879-4.808 0-4.979-3.921-6.813-14.412-6.813-10.342.042-17.321 1.571-23.796 3.313l3.188-16.7c11.195-2.846 18.529-3.941 26.825-3.941 19.304 0 29.499 7.566 29.499 21.796.167 3.795-1.158 11.413-1.82 14.746-.759 4.852-6.109 32.973-6.667 39.61zm-16.379-33.191c-2.366-.242-3.396-.313-5.013-.313-12.729 0-19.183 3.787-19.183 11.267 0 4.692 3.149 7.634 8.058 7.634 9.147 0 15.75-7.651 16.138-18.588zM477.004 284.606c-6.125 1.679-10.896 2.408-16.059 2.408-11.434 0-17.675-5.842-17.675-16.25-.358-2.858 2.434-16.059 3.066-19.737.634-3.691 10.538-57.492 10.538-57.492h22.212l-3.362 17.8h11.392l-3.096 18.171h-11.441s-6.279 31.529-6.279 33.933c0 3.825 2.316 5.488 7.633 5.488 2.546 0 4.509-.238 6.029-.692l-2.958 16.371M576.25 209.631c-16.279 0-29 6.7-36.388 17.892l6.412-16.596c-11.816-4.337-19.434 1.85-26.325 10.65 0 0-1.154 1.462-2.3 2.8v-13.05h-20.858c-2.825 23.029-7.82 46.379-11.729 69.446l-.942 5.021h22.438c2.125-11.708 3.875-21.213 5.617-28.788 4.767-20.787 12.787-27.141 24.829-24.333-2.779 5.979-4.305 12.892-4.305 20.554 0 18.58 10.092 33.788 35.15 33.788 25.287 0 43.596-13.509 43.596-44.309.001-18.579-12.2-33.075-35.195-33.075zm-6.529 59.316c-7.926.125-12.729-6.524-12.729-16.471 0-11.791 7.013-25.112 18.275-25.112 9.087 0 12.199 7.204 12.199 14.879 0 16.78-6.875 26.704-17.745 26.704zM226.53 285.794h-22.342l13.279-69.954-30.571 69.954H166.53l-3.726-69.55-13.32 69.55h-20.271l17.267-90.996h34.913l2.912 50.726 22.117-50.726h37.721l-17.613 90.996"/><path fill="#FFF" d="M613.15 274.385a5.8 5.8 0 015.796-5.795c3.204 0 5.796 2.6 5.796 5.795a5.797 5.797 0 11-11.592 0zm5.796 4.413a4.413 4.413 0 004.408-4.413c0-2.433-1.975-4.403-4.408-4.403s-4.408 1.971-4.408 4.403a4.413 4.413 0 004.408 4.413zm-.784-1.866h-1.188v-5.084h2.15c.449 0 .908 0 1.304.25.408.279.646.768.646 1.271 0 .578-.337 1.116-.883 1.316l.934 2.246h-1.317l-.771-2.009h-.875v2.01zm0-2.888h.658c.242 0 .504.017.725-.097a.7.7 0 00.296-.587.635.635 0 00-.283-.513c-.212-.129-.541-.096-.763-.096h-.633v1.293zM378.054 278.398c-7.667 2.033-15.088 3.029-22.925 3.012-25.017-.025-38.046-11.42-38.046-33.208 0-25.45 16.579-44.179 39.096-44.179 18.421 0 30.175 10.496 30.175 26.942 0 5.467-.8 10.771-2.741 18.3h-44.487c-1.584 10.629 6.179 15.308 19.408 15.308 7.925 0 15.087-1.424 23.029-4.616l-3.509 18.441zm-11.963-44.15c0-1.604 2.472-13.033-10.399-13.279-7.108 0-12.204 4.729-14.271 13.279h24.67zM393.129 229.252c0 9.408 5.287 15.9 17.325 20.746 9.204 3.767 10.649 4.858 10.649 8.213 0 4.666-4.066 6.808-13.087 6.75-6.784-.047-12.967-.871-20.263-2.896l-3.237 17.146c6.491 1.516 15.596 2.012 23.653 2.199 24.025 0 35.121-7.871 35.121-24.871 0-10.217-4.629-16.236-16.041-20.712-9.538-3.809-10.654-4.638-10.654-8.083 0-4.05 3.783-6.1 11.146-6.1 4.471 0 10.583.417 16.388 1.113l3.25-17.246c-5.913-.825-14.879-1.483-20.066-1.483-25.459-.001-34.263 11.453-34.184 25.224M304.887 280.182h-18.666l.45-7.821c-5.696 6.158-13.275 9.033-23.559 9.033-12.175 0-20.521-8.325-20.521-20.287 0-18.204 14.495-28.696 39.429-28.696 2.563 0 5.816.192 9.171.563.691-2.433.875-3.475.875-4.808 0-4.983-3.917-6.813-14.408-6.813-10.342.042-17.321 1.575-23.796 3.313l3.184-16.696c11.199-2.85 18.529-3.946 26.829-3.946 19.304 0 29.495 7.567 29.495 21.792.167 3.8-1.158 11.412-1.816 14.754-.763 4.849-6.112 32.969-6.667 39.612zM288.5 246.985c-2.358-.245-3.392-.313-5.013-.313-12.721 0-19.18 3.788-19.18 11.267 0 4.695 3.154 7.633 8.055 7.633 9.155 0 15.758-7.653 16.138-18.587zM482.608 279.002c-6.12 1.676-10.896 2.408-16.054 2.408-11.434 0-17.671-5.846-17.671-16.254-.362-2.854 2.434-16.059 3.063-19.737.634-3.692 10.537-57.492 10.537-57.492h22.209l-3.354 17.8h11.392l-3.096 18.171h-11.441s-6.283 31.53-6.283 33.933c0 3.825 2.32 5.479 7.633 5.479 2.542 0 4.509-.229 6.029-.691l-2.964 16.383M593.079 236.635c0 16.775-6.88 26.709-17.755 26.709-7.921.112-12.725-6.525-12.725-16.475 0-11.792 7.008-25.113 18.271-25.113 9.092 0 12.209 7.213 12.209 14.879zm23.979.467c0-18.579-12.208-33.079-35.195-33.079-26.45 0-43.55 17.625-43.55 43.596 0 18.578 10.083 33.791 35.149 33.791 25.288 0 43.596-13.512 43.596-44.308zM502.396 205.719c-2.821 23.029-7.816 46.375-11.721 69.45l-.946 5.021h22.434c8.088-44.558 10.8-57.254 27.741-52.783l8.15-21.087c-11.816-4.337-19.425 1.854-26.309 10.658.621-3.962 1.792-7.783 1.509-11.258h-20.858M232.138 280.189H209.8l13.275-69.958-30.575 69.958h-20.362l-3.726-69.554-13.32 69.554h-20.271l17.263-91h34.921l1.846 56.334 24.575-56.334h36.325l-17.613 91"/></svg>