<svg xmlns="http://www.w3.org/2000/svg" width="750" height="471" viewBox="0 0 750 471"><path fill="#D9222A" d="M434.008 235.5c0 99.142-80.371 179.504-179.508 179.504-99.137 0-179.5-80.362-179.5-179.504 0-99.133 80.362-179.504 179.5-179.504 99.137 0 179.508 80.371 179.508 179.504"/><path fill="#EE9F2D" d="M495.491 55.996c-46.379 0-88.642 17.596-120.5 46.467a182.467 182.467 0 00-18.125 18.996h36.267a182 182 0 0113.684 19.012h-63.634a178.896 178.896 0 00-10.342 19.008h84.313a179.278 179.278 0 017.601 19.004h-99.513a177.296 177.296 0 00-5.217 19.008h109.941a180.397 180.397 0 014.042 38.008c0 19.934-3.254 39.112-9.254 57.021h-99.513a177.71 177.71 0 007.596 19.008h84.316a179.46 179.46 0 01-10.346 19.012h-63.625a181.294 181.294 0 0013.684 18.996h36.259a179.278 179.278 0 01-18.13 19.013c31.858 28.866 74.117 46.454 120.496 46.454C594.629 415.004 675 334.642 675 235.5c0-99.129-80.371-179.504-179.509-179.504"/><path d="M651.074 335.559c0-3.2 2.592-5.801 5.796-5.801s5.796 2.601 5.796 5.801c0 3.199-2.592 5.8-5.796 5.8s-5.796-2.601-5.796-5.8zm5.796 4.408a4.41 4.41 0 004.408-4.408 4.403 4.403 0 00-4.408-4.404 4.397 4.397 0 00-4.404 4.404 4.404 4.404 0 004.404 4.408zm-.783-1.859H654.9v-5.096h2.15c.45 0 .908 0 1.304.254.413.279.646.771.646 1.279 0 .571-.338 1.104-.884 1.313l.938 2.25h-1.316l-.779-2.017h-.871v2.017h-.001zm0-2.891h.658c.246 0 .505.021.726-.1.195-.125.296-.359.296-.584a.638.638 0 00-.288-.517c-.208-.129-.537-.101-.758-.101h-.634v1.302zM212.587 255.154c-2.046-.238-2.945-.301-4.35-.301-11.046 0-16.638 3.788-16.638 11.268 0 4.612 2.729 7.545 6.987 7.545 7.939 0 13.659-7.558 14.001-18.512zm14.171 32.996h-16.146l.371-7.676c-4.926 6.066-11.496 8.95-20.426 8.95-10.563 0-17.804-8.25-17.804-20.229 0-18.024 12.596-28.541 34.217-28.541 2.208 0 5.042.199 7.941.57.604-2.441.763-3.487.763-4.8 0-4.908-3.396-6.737-12.5-6.737-9.533-.108-17.396 2.271-20.625 3.333.204-1.229 2.7-16.659 2.7-16.659 9.712-2.846 16.116-3.917 23.325-3.917 16.732 0 25.596 7.513 25.579 21.712.033 3.805-.597 8.5-1.579 14.671-1.691 10.732-5.32 33.719-5.816 39.323zM164.6 288.15h-19.487l11.162-69.996-24.925 69.996h-13.279l-1.642-69.596-11.733 69.596H86.454l15.237-91.055h28.021l1.7 50.967 17.092-50.967h31.167L164.6 288.15M519.574 255.154c-2.037-.238-2.941-.301-4.342-.301-11.041 0-16.633 3.788-16.633 11.268 0 4.612 2.725 7.545 6.983 7.545 7.939 0 13.663-7.558 13.992-18.512zm14.184 32.996h-16.146l.366-7.676c-4.925 6.066-11.5 8.95-20.421 8.95-10.566 0-17.8-8.25-17.8-20.229 0-18.024 12.588-28.541 34.213-28.541 2.208 0 5.037.199 7.933.57.604-2.441.763-3.487.763-4.8 0-4.908-3.392-6.737-12.496-6.737-9.533-.108-17.387 2.271-20.629 3.333.204-1.229 2.709-16.659 2.709-16.659 9.712-2.846 16.112-3.917 23.313-3.917 16.741 0 25.604 7.513 25.587 21.712.033 3.805-.596 8.5-1.579 14.671-1.684 10.732-5.321 33.719-5.813 39.323zM313.366 287.025c-5.333 1.679-9.491 2.399-14 2.399-9.962 0-15.399-5.725-15.399-16.267-.142-3.271 1.433-11.879 2.671-19.737 1.125-6.917 8.449-50.529 8.449-50.529h19.371l-2.263 11.208h11.7l-2.642 17.796h-11.742c-2.25 14.083-5.454 31.625-5.491 33.95 0 3.816 2.037 5.483 6.671 5.483 2.221 0 3.941-.226 5.254-.7l-2.579 16.397M372.758 286.425c-6.654 2.034-13.075 3.017-19.879 3-21.684-.021-32.987-11.346-32.987-33.033 0-25.313 14.379-43.946 33.899-43.946 15.971 0 26.171 10.433 26.171 26.796 0 5.429-.7 10.729-2.388 18.212H339c-1.305 10.741 5.57 15.217 16.837 15.217 6.934 0 13.188-1.429 20.142-4.663l-3.221 18.417zm-10.888-43.9c.108-1.542 2.055-13.217-9.013-13.217-6.17 0-10.583 4.704-12.379 13.217h21.392zM238.446 237.508c0 9.367 4.542 15.826 14.842 20.676 7.892 3.708 9.112 4.809 9.112 8.17 0 4.617-3.479 6.701-11.191 6.701-5.813 0-11.221-.908-17.458-2.922 0 0-2.563 16.321-2.68 17.101 4.43.967 8.38 1.862 20.279 2.191 20.563 0 30.059-7.829 30.059-24.75 0-10.175-3.976-16.146-13.737-20.634-8.171-3.75-9.108-4.587-9.108-8.045 0-4.004 3.237-6.046 9.537-6.046 3.825 0 9.05.408 14 1.112l2.775-17.175c-5.046-.8-12.696-1.442-17.15-1.442-21.801.001-29.347 11.388-29.28 25.063M467.533 214.392c5.412 0 10.458 1.421 17.412 4.921l3.188-19.763c-2.854-1.121-12.904-7.7-21.417-7.7-13.041 0-24.066 6.471-31.82 17.15-11.309-3.746-15.958 3.825-21.658 11.367l-5.063 1.179c.383-2.483.729-4.95.612-7.446h-17.896c-2.446 22.917-6.779 46.128-10.171 69.075l-.884 4.976h19.496c3.254-21.143 5.037-34.68 6.121-43.842l7.341-4.084c1.097-4.078 4.529-5.458 11.417-5.291a83.048 83.048 0 00-1.383 15.184c0 24.225 13.07 39.308 34.05 39.308 5.404 0 10.041-.712 17.221-2.658l3.429-20.759c-6.458 3.18-11.758 4.676-16.558 4.676-11.329 0-18.184-8.363-18.184-22.184.001-20.051 10.197-34.109 24.747-34.109"/><path fill="#FFF" d="M170.208 282.742h-19.491l11.171-69.988-24.926 69.988h-13.283l-1.642-69.588-11.733 69.588H92.063L107.3 191.7h28.021l.788 56.362 18.904-56.362h30.267l-15.072 91.042"/><path d="M632.521 197.096l-4.321 26.309c-5.329-7.013-11.054-12.088-18.612-12.088-9.833 0-18.783 7.455-24.642 18.425-8.158-1.692-16.596-4.563-16.596-4.563l-.004.067c.658-6.134.921-9.875.862-11.146h-17.9c-2.438 22.917-6.771 46.128-10.158 69.075l-.892 4.976h19.492c2.633-17.096 4.649-31.292 6.133-42.551 6.658-6.016 9.992-11.266 16.721-10.916-2.979 7.204-4.725 15.504-4.725 24.017 0 18.513 9.366 30.725 23.533 30.725 7.142 0 12.621-2.462 17.967-8.171l-.913 6.884H636.9l14.842-91.042h-19.221v-.001zm-24.371 73.941c-6.633 0-9.983-4.908-9.983-14.596 0-14.554 6.271-24.875 15.112-24.875 6.696 0 10.321 5.104 10.321 14.509 0 14.679-6.371 24.962-15.45 24.962z"/><path fill="#FFF" d="M218.192 249.758c-2.042-.236-2.946-.299-4.346-.299-11.046 0-16.634 3.787-16.634 11.266 0 4.604 2.729 7.547 6.979 7.547 7.947-.001 13.668-7.559 14.001-18.514zm14.178 32.984h-16.146l.367-7.663c-4.921 6.054-11.5 8.95-20.421 8.95-10.567 0-17.805-8.25-17.805-20.229 0-18.033 12.592-28.542 34.217-28.542 2.208 0 5.042.2 7.938.571.604-2.441.763-3.487.763-4.808 0-4.909-3.392-6.729-12.496-6.729-9.537-.108-17.396 2.271-20.629 3.321.204-1.225 2.7-16.637 2.7-16.637 9.708-2.858 16.12-3.929 23.32-3.929 16.737 0 25.604 7.517 25.588 21.704.029 3.821-.604 8.513-1.584 14.675-1.687 10.724-5.319 33.724-5.812 39.316zM493.745 194.15l-3.191 19.767c-6.95-3.496-12-4.92-17.408-4.92-14.55 0-24.75 14.058-24.75 34.107 0 13.821 6.858 22.18 18.184 22.18 4.8 0 10.096-1.492 16.554-4.675l-3.421 20.75c-7.184 1.958-11.816 2.671-17.225 2.671-20.976 0-34.05-15.084-34.05-39.309 0-32.55 18.058-55.3 43.887-55.3 8.508 0 18.562 3.608 21.42 4.729M525.188 249.758c-2.042-.236-2.942-.299-4.347-.299-11.041 0-16.633 3.787-16.633 11.266 0 4.604 2.729 7.547 6.983 7.547 7.938-.001 13.663-7.559 13.997-18.514zm14.178 32.984h-16.15l.371-7.663c-4.925 6.054-11.5 8.95-20.421 8.95-10.563 0-17.804-8.25-17.804-20.229 0-18.033 12.596-28.542 34.212-28.542 2.213 0 5.042.2 7.942.571.6-2.441.762-3.487.762-4.808 0-4.909-3.392-6.729-12.495-6.729-9.533-.108-17.396 2.271-20.63 3.321.204-1.225 2.704-16.637 2.704-16.637 9.709-2.858 16.117-3.929 23.317-3.929 16.741 0 25.604 7.517 25.583 21.704.033 3.821-.596 8.513-1.579 14.675-1.683 10.724-5.324 33.724-5.812 39.316zM318.975 281.621c-5.338 1.679-9.496 2.408-14 2.408-9.962 0-15.399-5.725-15.399-16.267-.138-3.279 1.438-11.88 2.675-19.737 1.12-6.926 8.445-50.534 8.445-50.534h19.367l-2.259 11.212h9.941l-2.646 17.788h-9.975c-2.25 14.092-5.463 31.621-5.496 33.95 0 3.83 2.041 5.483 6.671 5.483 2.221 0 3.938-.216 5.254-.691l-2.578 16.388M378.366 281.029c-6.65 2.033-13.079 3.012-19.879 3-21.684-.021-32.987-11.346-32.987-33.033 0-25.321 14.379-43.95 33.899-43.95 15.971 0 26.171 10.429 26.171 26.8 0 5.434-.7 10.733-2.383 18.213h-38.575c-1.305 10.741 5.57 15.221 16.837 15.221 6.93 0 13.188-1.434 20.138-4.676l-3.221 18.425zm-10.891-43.912c.116-1.538 2.059-13.217-9.013-13.217-6.167 0-10.579 4.717-12.375 13.217h21.388zM244.054 232.112c0 9.366 4.542 15.817 14.842 20.675 7.892 3.709 9.112 4.813 9.112 8.172 0 4.616-3.483 6.699-11.188 6.699-5.816 0-11.225-.908-17.467-2.921 0 0-2.554 16.321-2.671 17.101 4.421.967 8.375 1.85 20.275 2.191 20.566 0 30.059-7.829 30.059-24.746 0-10.18-3.971-16.15-13.737-20.637-8.167-3.759-9.113-4.584-9.113-8.046 0-4 3.246-6.059 9.542-6.059 3.821 0 9.046.421 14.004 1.125l2.771-17.179c-5.042-.8-12.692-1.441-17.146-1.441-21.804 0-29.346 11.379-29.283 25.066M642.508 282.742H624.07l.917-6.893c-5.346 5.717-10.825 8.18-17.967 8.18-14.167 0-23.529-12.213-23.529-30.725 0-24.63 14.521-45.392 31.708-45.392 7.559 0 13.279 3.087 18.604 10.096l4.325-26.308h19.221l-14.841 91.042zm-28.746-17.109c9.075 0 15.45-10.283 15.45-24.953 0-9.405-3.629-14.509-10.325-14.509-8.837 0-15.116 10.316-15.116 24.875 0 9.687 3.358 14.587 9.991 14.587zM556.92 208.704c-2.441 22.917-6.774 46.13-10.162 69.063l-.892 4.976h19.491c6.972-45.275 8.659-54.117 19.588-53.009 1.742-9.267 4.983-17.383 7.4-21.479-8.163-1.7-12.721 2.913-18.688 11.675.471-3.788 1.333-7.467 1.162-11.225H556.92M396.5 208.704c-2.446 22.917-6.779 46.13-10.167 69.063l-.888 4.976h19.5c6.963-45.275 8.646-54.117 19.571-53.009 1.75-9.267 4.991-17.383 7.399-21.479-8.154-1.7-12.717 2.913-18.679 11.675.471-3.788 1.325-7.467 1.162-11.225H396.5M651.067 276.945a5.792 5.792 0 015.796-5.799 5.79 5.79 0 015.796 5.799 5.798 5.798 0 01-5.796 5.797 5.8 5.8 0 01-5.796-5.797zm5.796 4.405a4.402 4.402 0 004.404-4.404 4.404 4.404 0 00-4.404-4.408 4.41 4.41 0 00-4.408 4.408 4.408 4.408 0 004.408 4.404zm-.784-1.871h-1.188v-5.082h2.153c.446 0 .909.008 1.296.254.417.283.654.766.654 1.274 0 .575-.337 1.112-.888 1.317l.942 2.236h-1.321l-.779-2.008h-.87v2.009h.001zm0-2.879h.653c.246 0 .513.018.729-.1.196-.125.296-.362.296-.588a.673.673 0 00-.287-.524c-.204-.116-.542-.083-.763-.083h-.629v1.295h.001z"/></svg>