<svg xmlns="http://www.w3.org/2000/svg" width="780" height="501" viewBox="0 0 780 501"><title>amex-outline</title><path fill="#253B80" d="M248.536 193.772c-8.167 0-16.335.653-24.176 1.96-8.82 1.307-16.01 1.307-19.275 11.107-1.307 4.247-2.94 8.494-2.94 12.74 0 1.635.98 3.27 2.94 3.27 2.94 0 10.127-2.94 13.395-3.595 6.207-1.634 12.414-2.614 18.95-2.614 8.166 0 24.175 0 24.175 11.763 0 2.94 0 3.594-3.267 4.574-5.88 1.633-12.742 1.306-18.623 1.96-27.116 2.94-59.46 8.82-59.46 42.797 0 16.988 13.395 26.463 29.404 26.463 16.66 0 24.827-5.554 38.223-14.048-.653 1.633-.98 3.266-.98 4.9 0 3.267 2.614 6.207 5.88 6.207h18.296c4.247-1.96 7.84-2.614 8.82-7.842l14.702-63.38c.98-3.267 1.307-6.534 1.307-9.8-.002-24.503-29.404-26.463-47.374-26.463zm-17.968 88.21c-6.86 0-15.355-.98-15.355-9.476 0-18.296 26.79-20.255 40.185-20.255l.98.98c-.98 16.337-7.188 28.75-25.81 28.75zM135.496 162.408H93.678c-5.882 0-7.515 3.594-9.802 7.84-1.307 2.94-28.423 120.555-28.423 124.803 0 3.268 2.94 5.88 6.207 5.88h20.256c19.276 0 6.86-45.084 26.138-45.084 36.264 0 83.31-9.8 83.31-55.213 0-33.324-29.078-38.225-55.868-38.225zm-16.66 66.974h-4.902c-3.268 0-6.208-2.287-6.208-5.88 0-6.86 3.92-20.91 6.208-27.77 2.286-7.188 7.187-7.84 14.048-7.84 11.108 0 25.156 1.305 25.156 16.007 0 19.602-17.642 25.482-34.303 25.482z"/><path fill="#179BD7" d="M718.34 164.042h-17.97c-7.84 0-9.474 6.86-10.78 13.068-8.822 38.55-16.336 77.755-25.813 116.632v1.635c0 2.94 2.29 5.554 5.23 5.88h18.948c4.246 0 8.494-3.267 9.475-7.515l27.117-122.187h-.328l.327-1.633c0-3.267-2.94-5.88-6.207-5.88zM613.14 193.772c-8.17 0-16.335.98-24.177 1.96-8.82 1.307-16.008 1.634-19.275 11.435-1.307 3.92-2.613 8.167-2.613 12.742 0 1.632.652 3.266 2.613 3.266 2.94 0 10.13-2.94 13.396-3.92 6.205-1.634 12.74-2.614 18.947-2.614 8.17 0 24.177 0 24.177 11.762 0 2.94 0 3.92-3.266 4.574-5.88 1.633-12.74 1.633-18.622 2.286-27.117 2.94-59.46 8.82-59.46 42.798 0 16.66 13.722 26.136 29.403 26.136 16.663 0 24.83-5.227 38.226-14.048-.326 1.634-.98 3.267-.98 5.228 0 7.515 12.742 6.534 17.643 6.534 6.206 0 14.046-.98 15.68-8.17l14.702-63.378c.654-3.268.98-6.86.98-10.128 0-24.504-29.076-26.464-47.37-26.464zm-17.97 88.537c-6.86 0-15.354-1.31-15.354-9.803 0-18.296 26.79-20.255 40.184-20.255l.98.98c-.98 16.662-7.187 29.077-25.81 29.077zM500.098 163.06h-42.145c-5.227 0-7.512 3.268-9.473 7.515-2.615 5.88-28.424 119.574-28.424 124.802 0 6.534 9.475 6.534 14.05 6.534 7.187 0 19.927.98 21.888-8.168l6.86-29.73c.98-4.573 5.228-7.84 9.802-7.84 36.264 0 83.31-9.473 83.31-54.886 0-33.325-29.075-38.225-55.868-38.225zm-16.66 66.976h-4.9c-3.594 0-6.21-2.614-6.21-6.208 0-6.534 3.923-20.91 6.21-27.77 2.287-7.187 7.188-7.514 14.05-7.514 11.106 0 25.153 1.307 25.153 16.008 0 19.603-17.642 25.484-34.302 25.484z"/><path fill="#253B80" d="M423.65 198.345c0-1.633-.98-2.94-2.612-2.94h-24.176c-5.23 0-9.802 3.594-12.742 7.514-4.574 7.187-30.71 54.886-33.324 55.866l-1.633-1.308c0-15.68-4.248-39.204-8.822-54.232-2.938-9.474-14.7-8.494-22.868-8.494-4.573 0-12.414.653-12.414 6.86l.326 1.634c2.94 32.344 12.415 63.707 16.336 96.052.326 2.613.653 5.227.653 7.84 0 12.088-19.93 28.424-19.93 39.205 0 4.247 10.455 4.247 13.07 4.247 8.82 0 19.6.327 24.827-8.168l80.045-135.583c1.305-2.614 3.266-5.554 3.266-8.495z"/></svg>