<svg width="750" height="296" viewBox="0 0 750 296" xmlns="http://www.w3.org/2000/svg"><g fill-rule="nonzero" fill="none"><rect fill="#00425F" width="750" height="295.45" rx="20"/><g transform="translate(66 35)"><circle fill="#EE312A" cx="107.5" cy="107.5" r="107.5"/><path d="M107.5 153.363C83.468 98.887 65.845 48 65.845 48H29s22.426 65.317 64.08 147h28.84C163.573 113.317 186 48 186 48h-36.845S131.532 98.887 107.5 153.363zM621.113 146.54h-71.798s1.595 24.127 33.506 24.127c15.955 0 31.91-4.829 31.91-4.829l3.192 25.73S601.967 198 579.63 198C547.72 198 519 181.919 519 136.892 519 101.513 541.337 79 573.248 79c47.865 0 51.057 48.243 47.865 67.54zm-49.46-45.027c-20.743 0-22.338 22.514-22.338 22.514h44.674s-1.595-22.514-22.336-22.514zM373.214 108.623L378 83.03s-36.959-11.246-67 9.598V195h31.906l-.002-83.178c12.761-9.597 30.31-3.199 30.31-3.199zM286.114 146.54h-71.798s1.595 24.127 33.505 24.127c15.955 0 31.91-4.829 31.91-4.829l3.191 25.73S266.968 198 244.63 198c-31.91 0-60.63-16.081-60.63-61.108C184 101.513 206.338 79 238.248 79c47.866 0 51.056 48.243 47.866 67.54zm-49.462-45.027c-20.741 0-22.336 22.514-22.336 22.514h44.674s-1.595-22.514-22.338-22.514zM451 156.606A498.09 498.09 0 01427 82l-32 .004S411 143.797 438.203 195h25.594C491 143.797 507 82.016 507 82.016h-32a498.227 498.227 0 01-24 74.59z" fill="#FFF"/></g></g></svg>