<svg xmlns="http://www.w3.org/2000/svg" width="750" height="471"><path fill="#0E4595" d="M278.198 334.228l33.36-195.763h53.358l-33.384 195.763h-53.334zM524.307 142.687c-10.57-3.966-27.135-8.222-47.822-8.222-52.725 0-89.863 26.551-90.18 64.604-.297 28.129 26.514 43.821 46.754 53.185 20.77 9.597 27.752 15.716 27.652 24.283-.133 13.123-16.586 19.116-31.924 19.116-21.355 0-32.701-2.967-50.225-10.274l-6.877-3.112-7.488 43.823c12.463 5.466 35.508 10.199 59.438 10.445 56.09 0 92.502-26.248 92.916-66.884.199-22.27-14.016-39.216-44.801-53.188-18.65-9.056-30.072-15.099-29.951-24.269 0-8.137 9.668-16.838 30.559-16.838 17.447-.271 30.088 3.534 39.936 7.5l4.781 2.259 7.232-42.428M661.615 138.464h-41.23c-12.773 0-22.332 3.486-27.941 16.234L513.2 334.1h56.031s9.16-24.121 11.232-29.418c6.123 0 60.555.084 68.336.084 1.596 6.854 6.492 29.334 6.492 29.334h49.512l-43.188-195.636zm-65.417 126.408c4.414-11.279 21.26-54.724 21.26-54.724-.314.521 4.381-11.334 7.074-18.684l3.607 16.878s10.217 46.729 12.352 56.527h-44.293v.003zM232.903 138.464L180.664 271.96l-5.565-27.129c-9.726-31.274-40.025-65.157-73.898-82.12l47.767 171.204 56.455-.064 84.004-195.386-56.524-.001"/><path fill="#F2AE14" d="M131.92 138.464H45.879l-.682 4.073c66.939 16.204 111.232 55.363 129.618 102.415l-18.709-89.96c-3.229-12.396-12.597-16.096-24.186-16.528"/></svg>