<svg xmlns="http://www.w3.org/2000/svg" width="750" height="471" viewBox="0 0 750 471"><title>Slice 1</title><path fill="#0E4595" d="M278.198 334.228l33.36-195.762h53.36l-33.385 195.762h-53.335zM524.307 142.688c-10.57-3.966-27.136-8.222-47.822-8.222-52.725 0-89.864 26.55-90.18 64.604-.298 28.13 26.514 43.82 46.753 53.185 20.77 9.596 27.752 15.716 27.653 24.283-.13 13.123-16.585 19.117-31.922 19.117-21.357 0-32.703-2.967-50.226-10.275l-6.877-3.112-7.488 43.823c12.463 5.466 35.51 10.2 59.438 10.446 56.09 0 92.5-26.248 92.915-66.883.2-22.27-14.015-39.217-44.8-53.188-18.65-9.056-30.072-15.1-29.95-24.27 0-8.136 9.667-16.837 30.557-16.837 17.448-.27 30.088 3.534 39.936 7.5l4.782 2.26 7.232-42.43M661.615 138.465h-41.23c-12.773 0-22.332 3.486-27.94 16.234L513.198 334.1h56.03s9.16-24.122 11.233-29.418c6.123 0 60.554.084 68.336.084 1.595 6.853 6.49 29.334 6.49 29.334h49.513l-43.188-195.637zm-65.417 126.408c4.413-11.28 21.26-54.724 21.26-54.724-.316.52 4.38-11.335 7.074-18.685l3.606 16.878s10.218 46.73 12.353 56.527H596.2v.003zM232.903 138.465l-52.24 133.496-5.565-27.128c-9.726-31.274-40.025-65.157-73.9-82.12l47.768 171.204 56.455-.065 84.005-195.384h-56.522"/><path fill="#F2AE14" d="M131.92 138.465H45.877l-.68 4.073c66.938 16.204 111.23 55.363 129.617 102.415l-18.71-89.96c-3.23-12.396-12.597-16.096-24.186-16.528"/></svg>