<svg height="471" viewBox="0 0 750 471" width="750" xmlns="http://www.w3.org/2000/svg"><g fill="#393939"><path d="m52.8846154 28.2035928c-13.2760757 0-24.0384616 10.5226489-24.0384616 23.502994v367.5868262c0 12.980345 10.7623859 23.502994 24.0384616 23.502994h644.2307696c13.276075 0 24.038461-10.522649 24.038461-23.502994v-367.5868262c0-12.9803451-10.762386-23.502994-24.038461-23.502994zm0-28.2035928h644.2307696c29.207366 0 52.884615 23.1498275 52.884615 51.7065868v367.5868262c0 28.55676-23.677249 51.706587-52.884615 51.706587h-644.2307696c-29.2073666 0-52.8846154-23.149827-52.8846154-51.706587v-367.5868262c0-28.5567593 23.6772488-51.7065868 52.8846154-51.7065868z"/><g transform="translate(27 109)"><path d="m1.00185169 114.13736h33.33191811l7.5156827-18.0519432h16.8259719l7.495989 18.0519432h65.5831326v-13.801255l5.854011 13.860087h34.045822l5.85401-14.066002v14.00717h162.986679l-.076315-29.6322499h3.153486c2.208178.0759931 2.853153.2794573 2.853153 3.9099473v25.7223026h84.297257v-6.898176c6.799318 3.628038 17.37494 6.898176 31.291138 6.898176h35.463782l7.589536-18.0519432h16.825971l7.422138 18.0519432h68.340278v-17.1473849l10.349142 17.1473849h54.763799v-113.351688h-54.197599v13.3869715l-7.589535-13.3869715h-55.613099v13.3869715l-6.969178-13.3869715h-75.119901c-12.574553 0-23.627752 1.74783209-32.556472 6.61871863v-6.61871863h-51.839255v6.61871863c-5.681689-5.02041985-13.423852-6.61871863-22.032546-6.61871863h-189.388807l-12.707486 29.2767992-13.049668-29.2767992h-59.6528089v13.3869715l-6.5531434-13.3869715h-50.8742554l-23.6252893 53.8935308v59.4581572zm210.40219331-16.3501088h-19.999151l-.073851-63.6524642-28.28782 63.6524642h-17.128765l-28.361671-63.7088451v63.7088451h-39.678276l-7.4959891-18.127936h-40.6186594l-7.5723028 18.127936h-21.1881697l34.9345088-81.2729637h28.9844905l33.1792905 76.9487333v-76.9487333h31.8401052l25.530673 55.1339274 23.452969-55.1339274h32.480156v81.2729637zm-147.6927537-34.9949203-13.352461-32.3998537-13.2761473 32.3998537zm227.2843317 34.9949203h-65.169561v-81.2729637h65.169561v16.9243091h-45.660296v14.6494302h44.564823v16.6595603h-44.564823v16.2305696h45.660296zm91.837985-59.3846156c0 12.95798-8.685008 19.6526917-13.746339 21.6628207 4.268652 1.6179091 7.914484 4.4762156 9.650008 6.844246 2.754685 4.0423213 3.2298 7.6532 3.2298 14.9117282v15.9658207h-19.676664l-.073852-10.2492086c0-4.8904978.470192-11.9234995-3.079632-15.8334468-2.850692-2.8583056-7.195658-3.4785039-14.218993-3.4785039h-20.941997v29.5611593h-19.506803v-81.2729637h44.870079c9.970035 0 17.315858.262297 23.622828 3.892787 6.171575 3.63049 9.871565 8.9303671 9.871565 17.9955611zm-24.660643 12.0683434c-2.680832 1.6203609-5.851549 1.6742909-9.650009 1.6742909h-23.699142v-18.0519429h24.021629c3.399659 0 6.947022.1519861 9.251208 1.4659238 2.530666 1.1840157 4.09633 3.7040312 4.09633 7.184987 0 3.552046-1.489351 6.4103516-4.020016 7.7267412zm55.947402 47.3162722h-19.905605v-81.2729637h19.905605zm231.075355 0h-27.645306l-36.97775-61.0000737v61.0000737h-39.729972l-7.591997-18.127936h-40.525113l-7.365517 18.127936h-22.827686c-9.482612 0-21.488503-2.088574-28.28782-8.9892008-6.855937-6.9006269-10.422994-16.247729-10.422994-31.0270832 0-12.0534216 2.131865-23.0723628 10.516541-31.7796555 6.306969-6.4863437 16.183458-9.4770242 29.627003-9.4770242h18.886446v17.4145844h-18.490106c-7.119344 0-11.13936 1.0540916-15.011672 4.8145047-3.325807 3.422123-5.607836 9.8913073-5.607836 18.4098442 0 8.7072917 1.737986 14.9852693 5.364125 19.0864233 3.003318 3.2162069 8.460989 4.1918556 13.596172 4.1918556h8.761322l27.49514-63.9147613h29.230664l33.029124 76.8727412v-76.8727412h29.703318l34.291995 56.6023022v-56.6023022h19.981919zm-118.58024-34.9949203-13.500165-32.3998537-13.426313 32.3998537z"/><path d="m694.908287 227.558349c-4.738844 6.900628-13.972819 10.398743-26.473519 10.398743h-37.674422v-17.431744h37.521795c3.722146 0 6.326663-.487824 7.89479-2.012581 1.358879-1.257557 2.306647-3.083833 2.306647-5.302329 0-2.36803-.947768-4.248237-2.382961-5.37587-1.415499-1.240398-3.475973-1.804214-6.87317-1.804214-18.317784-.620198-41.170088.563816-41.170088-25.160937 0-11.791125 7.518144-24.202448 27.989948-24.202448h38.858518l.002462-16.174188h-36.106295c-10.895648 0-18.810132 2.59846-24.415507 6.63833v-6.63833h-53.40246c-8.539765 0-18.563957 2.108184-23.305263 6.63833v-6.63833h-95.362765v6.63833c-7.589535-5.451863-20.39549-6.63833-26.30612-6.63833h-62.902303v6.63833c-6.004176-5.790154-19.356637-6.63833-27.49514-6.63833h-70.39829l-16.109607 17.360654-15.087986-17.360654h-105.160477v113.430132h103.181241l16.599492-17.635209 15.636954 17.635209 63.601435.056381v-26.683242h6.252812c8.438833.129923 18.391636-.208367 27.172651-3.988391v30.6128h52.459614v-29.56361h2.530665c3.2298 0 3.547364.132374 3.547364 3.346129v26.21503h159.363001c10.117739 0 20.693361-2.578849 26.549833-7.258528v7.258528h50.549306c10.519002 0 20.79183-1.468375 28.607845-5.228788zm-315.98139-43.630443c0 22.582088-16.919518 27.244608-33.97197 27.244608h-24.341654v27.266669h-37.918134l-24.021629-26.91122-24.964475 26.91122h-77.273921v-81.292574h78.462941l24.001935 26.646471 24.814308-26.646471h62.336102c15.481864 0 32.876497 4.267848 32.876497 26.781297zm-155.097835 37.412091h-47.964483v-16.174188h42.829299v-16.586019h-42.829299v-14.779354h48.909789l21.338336 23.690111zm77.284372 9.308294-29.951953-33.113204 29.951953-32.061564zm44.294965-36.145974h-25.210648v-20.701881h25.437128c7.04303 0 11.932038 2.858306 11.932038 9.9673 0 7.03055-4.662529 10.734581-12.158518 10.734581zm132.075501-37.355708h65.11048v16.811545h-45.682452v14.779355h44.567285v16.586019h-44.567285v16.174186l45.682452.073542v16.867927h-65.11048zm-25.031485 43.514398c4.342503 1.595847 7.892328 4.456605 9.556462 6.824635 2.754684 3.96878 3.153485 7.672811 3.232261 14.838187v16.115354h-19.585579v-10.170764c0-4.890498.472654-12.131866-3.153485-15.911891-2.850692-2.912235-7.195657-3.608426-14.312539-3.608426h-20.84845v29.691081h-19.602811v-81.292574h45.039939c9.876489 0 17.069684.433893 23.472662 3.836405 6.156804 3.704031 10.029115 8.778382 10.029115 18.051943-.002461 12.97514-8.692393 19.59631-13.827575 21.62605zm-11.027545-10.277003c-2.609441 1.541916-5.836778 1.674291-9.632777 1.674291h-23.699141v-18.257859h24.021629c3.473511 0 6.949484.073542 9.310289 1.468376 2.528204 1.316389 4.03971 3.833954 4.03971 7.312458 0 3.478505-1.511506 6.280428-4.03971 7.802734zm176.111734 5.178138c3.79846 3.91485 5.834317 8.856827 5.834317 17.223378 0 17.488126-10.971962 25.651212-30.646163 25.651212h-37.99691v-17.431744h37.844283c3.69999 0 6.324202-.487824 7.968641-2.012581 1.341647-1.257556 2.304186-3.083833 2.304186-5.302329 0-2.368031-1.041315-4.248237-2.380499-5.375871-1.491813-1.240396-3.549825-1.804213-6.947022-1.804213-18.243932-.620199-41.091313.563817-41.091313-25.160937 0-11.791125 7.439369-24.202448 27.891479-24.202448h39.109615v17.301821h-35.78627c-3.547362 0-5.85401.132375-7.816014 1.468375-2.136788 1.31639-2.929467 3.270137-2.929467 5.848986 0 3.066673 1.8143 5.152795 4.268652 6.054902 2.058011.713351 4.268651.921718 7.591996.921718l10.50177.281909c10.590392.257394 17.859901 2.081219 22.278719 6.537822zm77.411983-21.761706h-35.554866c-3.549825 0-5.908169.132375-7.89479 1.468376-2.058013 1.316389-2.850692 3.270137-2.850692 5.848986 0 3.066672 1.737987 5.152795 4.26619 6.054902 2.058012.713351 4.268652.921718 7.518145.921718l10.57316.281908c10.669167.262297 17.790972 2.088573 22.133477 6.542725.790217.6202 1.265332 1.31639 1.809376 2.012581z"/></g></g></svg>