<svg height="471" viewBox="0 0 750 471" width="750" xmlns="http://www.w3.org/2000/svg"><g fill="none"><path d="m52.8846154 28.2035928c-13.2760757 0-24.0384616 10.5226489-24.0384616 23.502994v367.5868262c0 12.980345 10.7623859 23.502994 24.0384616 23.502994h644.2307696c13.276075 0 24.038461-10.522649 24.038461-23.502994v-367.5868262c0-12.9803451-10.762386-23.502994-24.038461-23.502994zm0-28.2035928h644.2307696c29.207366 0 52.884615 23.1498275 52.884615 51.7065868v367.5868262c0 28.55676-23.677249 51.706587-52.884615 51.706587h-644.2307696c-29.2073666 0-52.8846154-23.149827-52.8846154-51.706587v-367.5868262c0-28.5567593 23.6772488-51.7065868 52.8846154-51.7065868z" fill="#393939"/><g fill="#000"><rect fill-opacity=".196078" height="95.085324" rx="20.322868" width="105.240078" x="63.677495" y="168.549618"/><g fill-opacity=".784314"><g transform="translate(65.861751 288.193548)"><path d="m20.9718416 15.553732h-4.0040669l-.3839516 10.7506451h-10.91519583l10.09244243-23.91470042-3.7846659-1.64550691-11.1345968 25.88930873v3.2910139h15.6871659v9.2148387h4.4428687v-9.2148387h4.8816705v-3.6201153h-4.8816705z"/><path d="m44.5360147.74416977c-3.8395161 0-7.5144816 1.31640553-10.6957949 4.38801843l2.4682603 2.79736175c2.5231106-2.3585599 4.7719701-3.51041474 8.0081337-3.51041474 4.0040639 0 7.1853773 2.24885944 7.1853773 6.41747699 0 4.5525691-3.565265 6.6368778-7.1853773 6.6368778h-2.2488595l-.5485023 3.6201153h3.1813134c4.4428658 0 7.8435801 1.7552073 7.8435801 7.1853801 0 4.7171199-3.1264631 7.7338825-8.4469326 7.7338825-3.0716129 0-6.2529263-1.2615553-8.3920853-3.7846659l-3.0716129 2.5231106c2.852212 3.5104148 7.3499309 4.991371 11.5733986 4.991371 7.7887299 0 13.1092022-4.9365207 13.1092022-11.4636982 0-5.8689746-4.1686175-8.9405875-8.6114861-9.2696889 4.0040668-.7679032 7.4047811-4.2234677 7.4047811-8.7760369 0-5.15592163-4.4977189-9.48908983-11.5733958-9.48908983z"/><path d="m77.4247251.74416977c-5.1010714 0-8.5017857 1.8100576-11.5185484 5.43017281l3.1813134 2.41341014c2.4134101-2.79736175 4.4428687-4.00406682 8.1726843-4.00406682 4.2234678 0 6.7465784 2.63281106 6.7465784 6.8562788 0 6.198076-3.0716129 10.3118433-17.3326728 23.9695507v3.7298157h22.4337442l.5485023-3.8943664h-17.7714747c12.4510023-11.3539977 16.893871-17.0035714 16.893871-23.9147005 0-6.03352531-4.2234677-10.58609443-11.3539977-10.58609443z"/><path d="m112.013796 1.40237253-11.189447 6.91112904 1.974608 3.23616363 8.666336-5.21077193v29.07062213h-9.324539v3.7298157h21.775542v-3.7298157h-7.898434v-34.00714287z"/><path d="m185.415404 15.553732h-4.004067l-.383951 10.7506451h-10.915196l10.092442-23.91470042-3.784666-1.64550691-11.134596 25.88930873v3.2910139h15.687165v9.2148387h4.442869v-9.2148387h4.881671v-3.6201153h-4.881671z"/><path d="m208.979578.74416977c-3.839516 0-7.514481 1.31640553-10.695795 4.38801843l2.468261 2.79736175c2.52311-2.3585599 4.77197-3.51041474 8.008133-3.51041474 4.004067 0 7.18538 2.24885944 7.18538 6.41747699 0 4.5525691-3.565265 6.6368778-7.18538 6.6368778h-2.248859l-.548502 3.6201153h3.181313c4.442869 0 7.843583 1.7552073 7.843583 7.1853801 0 4.7171199-3.126463 7.7338825-8.446936 7.7338825-3.071613 0-6.252926-1.2615553-8.392085-3.7846659l-3.071613 2.5231106c2.852212 3.5104148 7.349931 4.991371 11.573399 4.991371 7.788733 0 13.109205-4.9365207 13.109205-11.4636982 0-5.8689746-4.168618-8.9405875-8.611486-9.2696889 4.004067-.7679032 7.404781-4.2234677 7.404781-8.7760369 0-5.15592163-4.497719-9.48908983-11.573399-9.48908983z"/><path d="m241.868291.74416977c-5.101071 0-8.501785 1.8100576-11.518548 5.43017281l3.181313 2.41341014c2.413411-2.79736175 4.442869-4.00406682 8.172685-4.00406682 4.223468 0 6.746578 2.63281106 6.746578 6.8562788 0 6.198076-3.071613 10.3118433-17.332673 23.9695507v3.7298157h22.433745l.548502-3.8943664h-17.771475c12.451003-11.3539977 16.893871-17.0035714 16.893871-23.9147005 0-6.03352531-4.223468-10.58609443-11.353998-10.58609443z"/><path d="m276.457362 1.40237253-11.189447 6.91112904 1.974608 3.23616363 8.666337-5.21077193v29.07062213h-9.32454v3.7298157h21.775542v-3.7298157h-7.898433v-34.00714287z"/><path d="m349.858961 15.553732h-4.004067l-.383952 10.7506451h-10.915195l10.092442-23.91470042-3.784666-1.64550691-11.134597 25.88930873v3.2910139h15.687166v9.2148387h4.442869v-9.2148387h4.88167v-3.6201153h-4.88167z"/><path d="m373.423135.74416977c-3.839516 0-7.514482 1.31640553-10.695795 4.38801843l2.46826 2.79736175c2.523111-2.3585599 4.771971-3.51041474 8.008134-3.51041474 4.004067 0 7.18538 2.24885944 7.18538 6.41747699 0 4.5525691-3.565265 6.6368778-7.18538 6.6368778h-2.248859l-.548503 3.6201153h3.181314c4.442868 0 7.843583 1.7552073 7.843583 7.1853801 0 4.7171199-3.126463 7.7338825-8.446936 7.7338825-3.071613 0-6.252926-1.2615553-8.392085-3.7846659l-3.071613 2.5231106c2.852212 3.5104148 7.349931 4.991371 11.573399 4.991371 7.788732 0 13.109205-4.9365207 13.109205-11.4636982 0-5.8689746-4.168618-8.9405875-8.611486-9.2696889 4.004066-.7679032 7.404781-4.2234677 7.404781-8.7760369 0-5.15592163-4.497719-9.48908983-11.573399-9.48908983z"/><path d="m406.311848.74416977c-5.101071 0-8.501785 1.8100576-11.518548 5.43017281l3.181313 2.41341014c2.41341-2.79736175 4.442869-4.00406682 8.172685-4.00406682 4.223467 0 6.746578 2.63281106 6.746578 6.8562788 0 6.198076-3.071613 10.3118433-17.332673 23.9695507v3.7298157h22.433744l.548503-3.8943664h-17.771475c12.451002-11.3539977 16.893871-17.0035714 16.893871-23.9147005 0-6.03352531-4.223468-10.58609443-11.353998-10.58609443z"/><path d="m440.900919 1.40237253-11.189447 6.91112904 1.974608 3.23616363 8.666336-5.21077193v29.07062213h-9.324539v3.7298157h21.775542v-3.7298157h-7.898433v-34.00714287z"/><path d="m514.302527 15.553732h-4.004067l-.383951 10.7506451h-10.915196l10.092442-23.91470042-3.784666-1.64550691-11.134596 25.88930873v3.2910139h15.687166v9.2148387h4.442868v-9.2148387h4.881671v-3.6201153h-4.881671z"/><path d="m537.866701.74416977c-3.839516 0-7.514481 1.31640553-10.695795 4.38801843l2.468261 2.79736175c2.52311-2.3585599 4.77197-3.51041474 8.008133-3.51041474 4.004067 0 7.185381 2.24885944 7.185381 6.41747699 0 4.5525691-3.565265 6.6368778-7.185381 6.6368778h-2.248859l-.548502 3.6201153h3.181313c4.442869 0 7.843583 1.7552073 7.843583 7.1853801 0 4.7171199-3.126463 7.7338825-8.446935 7.7338825-3.071613 0-6.252927-1.2615553-8.392086-3.7846659l-3.071613 2.5231106c2.852212 3.5104148 7.349931 4.991371 11.573399 4.991371 7.788733 0 13.109205-4.9365207 13.109205-11.4636982 0-5.8689746-4.168617-8.9405875-8.611486-9.2696889 4.004067-.7679032 7.404781-4.2234677 7.404781-8.7760369 0-5.15592163-4.497719-9.48908983-11.573399-9.48908983z"/><path d="m570.755415.74416977c-5.101072 0-8.501786 1.8100576-11.518549 5.43017281l3.181314 2.41341014c2.41341-2.79736175 4.442868-4.00406682 8.172684-4.00406682 4.223468 0 6.746578 2.63281106 6.746578 6.8562788 0 6.198076-3.071613 10.3118433-17.332673 23.9695507v3.7298157h22.433745l.548502-3.8943664h-17.771475c12.451003-11.3539977 16.893871-17.0035714 16.893871-23.9147005 0-6.03352531-4.223467-10.58609443-11.353997-10.58609443z"/><path d="m605.344485 1.40237253-11.189447 6.91112904 1.974608 3.23616363 8.666337-5.21077193v29.07062213h-9.324539v3.7298157h21.775541v-3.7298157h-7.898433v-34.00714287z"/></g><g transform="translate(69.677419 393.124424)"><path d="m.03841615 5.32383014v-3.4281394l6.65133544-1.34144585h3.76350131v24.64907351h6.148293v3.1673003h-16.02282541v-3.1673003h6.14829397v-21.22093411z"/><path d="m24.333491 5.32383014v-3.4281394l6.6513355-1.34144585h3.7635013v24.64907351h6.148293v3.1673003h-16.0228254v-3.1673003h6.1482939v-21.22093411z"/><path d="m63.9061465 25.2033184h13.1349895v3.1673003h-17.6623752v-3.1673003c1.4283954-1.4780754 3.3722494-3.4591923 5.8315621-5.9433516 2.4717393-2.4965793 4.0243404-4.1050704 4.6578052-4.8254752 1.2048163-1.3538687 2.0432207-2.4965822 2.5152122-3.4281394.4844057-.9439839.7266081-1.86933404.7266081-2.77605128 0-1.47807539-.5216714-2.6828917-1.5650154-3.61444894-1.0309239-.93156362-2.3785797-1.39734539-4.0429675-1.39734539-1.1799763 0-2.4282655.20494269-3.7448685.61482816-1.304183.40989176-2.7015217 1.03093316-4.1920171 1.86312401v-3.80076802c1.5153354-.60861816 2.9313041-1.06818678 4.2479071-1.37870586 1.316603-.31051907 2.5214193-.46577861 3.6144489-.46577861 2.8816242 0 5.1794739.72040769 6.8935484 2.16122308 1.7140678 1.44080901 2.5711022 3.36602987 2.5711022 5.77566249 0 1.14271632-.2173663 2.22953596-.6520977 3.26045986-.4223058 1.0185039-1.1986035 2.2233202-2.3288931 3.6144489-.3105191.3602058-1.297973 1.4035526-2.9623608 3.1300404-1.6643878 1.7140744-4.0119176 4.1174999-7.0425884 7.2102774z"/><path d="m96.3616765 13.3725053c1.8010241.3850457 3.2045699 1.1861891 4.2106565 2.4034321 1.018507 1.2172363 1.527756 2.7201517 1.527756 4.5087462 0 2.7449917-.943978 4.8689481-2.8319417 6.3718702-1.887964 1.5029154-4.5708528 2.2543731-8.0486751 2.2543731-1.1675563 0-2.3723726-.1179996-3.6144489-.3539987-1.229663-.2235724-2.5027951-.5651452-3.819398-1.0247167v-3.633079c1.0433496.6086182 2.186063 1.0681868 3.4281394 1.3787059 1.2420829.3105191 2.540055.4657786 3.893918.4657786 2.3599526 0 4.1547571-.4657786 5.3844134-1.3973358 1.2420858-.9315573 1.863124-2.2854231 1.863124-4.0615976 0-1.6395478-.5775682-2.9188908-1.7327045-3.838028-1.1427068-.9315573-2.7387817-1.3973359-4.7882152-1.3973359h-3.2418299v-3.0927803h3.3908794c1.8507012 0 3.2666727-.3664119 4.2479166-1.0992368.9812373-.7452505 1.4718559-1.81344083 1.4718559-3.20456984 0-1.428389-.5092486-2.52141901-1.5277554-3.27908986-1.0060839-.77009084-2.4531055-1.15513631-4.3410666-1.15513631-1.0309239 0-2.1363736.11178954-3.3163499.33536862-1.1799763.22357268-2.4779493.57135501-3.893918 1.04334677v-3.3536194c1.4283887-.39746544 2.7636246-.69556452 4.0057075-.89429723 1.2544964-.19873272 2.4344698-.29809908 3.5399194-.29809908 2.8567842 0 5.1173739.65209133 6.7817588 1.95627401 1.6643848 1.2917627 2.4965818 3.04309393 2.4965818 5.25399387 0 1.54018178-.440938 2.84436795-1.322815 3.91255755-.8818777 1.0557639-2.1363835 1.7885878-3.7635085 2.1984736z"/><path d="m121.439269.55424489h14.774534v3.16730986h-11.327765v6.81900925c.546509-.1863067 1.093027-.3229324 1.639545-.4098791.546509-.0993666 1.093027-.14904951 1.639545-.14904951 3.1052 0 5.564513.85082441 7.377947 2.55247221 1.813444 1.7016478 2.720162 4.0057047 2.720162 6.9121688 0 2.9934107-.931558 5.3223105-2.794682 6.9866983-1.863124 1.6519678-4.490116 2.4779522-7.880995 2.4779522-1.167557 0-2.359953-.0993667-3.577189-.2980991-1.204816-.1987324-2.453103-.4968315-3.744869-.8942972v-3.7821381c1.117867.6086182 2.273003 1.0619768 3.4654 1.3600759 1.192396.2980991 2.453102.4471486 3.782128.4471486 2.148803 0 3.850448-.5651453 5.104954-1.6954349 1.254496-1.1302897 1.881745-2.6642589 1.881745-4.6019057 0-1.9376412-.627249-3.4716094-1.881745-4.6019058-1.254506-1.1302896-2.956151-1.6954349-5.104954-1.6954349-1.006087 0-2.012164.1117867-3.018251.3353591-.993666.2235724-2.012164.5713553-3.05551 1.0433468z"/><path d="m153.745749 15.1610997c-1.788594 0-3.19835.4782015-4.229277 1.4346054-1.018507.9564039-1.527755 2.2730098-1.527755 3.9498176 0 1.676802.509248 2.9934041 1.527755 3.949808 1.030927.9564039 2.440683 1.4346054 4.229277 1.4346054 1.788595 0 3.19836-.4782015 4.229287-1.4346054 1.030927-.9688239 1.546385-2.285426 1.546385-3.949808 0-1.6768078-.515458-2.9934137-1.546385-3.9498176-1.018507-.9564039-2.428263-1.4346054-4.229287-1.4346054zm-3.763498-1.6022754c-1.614705-.3974657-2.875412-1.1489234-3.782129-2.2543731-.894297-1.1054563-1.341446-2.45311527-1.341446-4.04297705 0-2.22331994.788718-3.98086117 2.366163-5.27262387 1.589865-1.29176268 3.763498-1.93764401 6.52091-1.93764401 2.769841 0 4.943475.64588133 6.52092 1.93764401 1.577445 1.2917627 2.366162 3.04930393 2.366162 5.27262387 0 1.58986178-.453358 2.93752075-1.360075 4.04297705-.894298 1.1054497-2.142584 1.8569074-3.744869 2.2543731 1.813435.4223058 3.22319 1.2482863 4.229277 2.4779427 1.018507 1.2296629 1.527756 2.7325812 1.527756 4.5087557 0 2.6953117-.825978 4.7633724-2.477943 6.2041811-1.639545 1.4408154-3.993288 2.1612231-7.061228 2.1612231-3.067931 0-5.427883-.7204077-7.079848-2.1612231-1.639545-1.4408087-2.459322-3.5088694-2.459322-6.2041811 0-1.7761745.509258-3.2790928 1.527765-4.5087557 1.018506-1.2296564 2.434472-2.0556369 4.247907-2.4779427zm-1.378706-5.94335154c0 1.44080901.447148 2.56488934 1.341446 3.37223984.906717.8073573 2.173633 1.2110359 3.800758 1.2110359 1.614705 0 2.875421-.4036786 3.782138-1.2110359.919137-.8073505 1.378706-1.93143083 1.378706-3.37223984 0-1.44081539-.459569-2.56489855-1.378706-3.3722494-.906717-.80735084-2.167433-1.21102631-3.782138-1.21102631-1.627125 0-2.894041.40367547-3.800758 1.21102631-.894298.80735085-1.341446 1.93143401-1.341446 3.3722494z"/></g><g transform="translate(311.018433 392.170507)"><path d="m.25734774 5.3546035v-3.4281394l6.65132973-1.34144585h3.76349843v24.64906395h6.1483007v3.1673099h-16.02283024v-3.1673099h6.14829111v-21.22092455z"/><path d="m35.8429181 13.4032786c1.8010144.3850458 3.204567 1.1861863 4.2106566 2.4034226 1.0185039 1.2172364 1.5277554 2.7201517 1.5277554 4.5087462 0 2.7449984-.9439801 4.8689548-2.8319413 6.3718702-1.8879611 1.5029154-4.5708528 2.2543731-8.0486751 2.2543731-1.1675563 0-2.3723726-.1179967-3.6144489-.3539891-1.229663-.2235724-2.502795-.5651453-3.819398-1.0247168v-3.6330789c1.0433439.6086182 2.1860564 1.0681868 3.4281394 1.3787059 1.2420763.310519 2.5400493.4657786 3.893918.4657786 2.3599526 0 4.1547571-.4657786 5.3844134-1.3973359 1.242083-.9315639 1.863124-2.2854326 1.863124-4.0616071 0-1.639542-.5775681-2.9188812-1.7327045-3.8380185-1.1427096-.9315639-2.7387817-1.3973454-4.7882152-1.3973454h-3.2418299v-3.0927707h3.3908794c1.8507012 0 3.2666699-.3664158 4.2479071-1.0992463.9812439-.7452449 1.4718654-1.81343137 1.4718654-3.20456037 0-1.42839539-.5092515-2.52142531-1.5277554-3.27908986-1.0060839-.77009085-2.4531055-1.15513632-4.3410666-1.15513632-1.0309239 0-2.1363736.1117864-3.3163499.33535908-1.1799763.22357269-2.4779493.57135501-3.893918 1.04334678v-3.35360987c1.4283887-.39746544 2.7636217-.69556451 4.005698-.89429723 1.254503-.19873272 2.4344793-.29809908 3.539929-.29809908 2.8567841 0 5.117371.65209134 6.7817588 1.95627401 1.664382 1.29176271 2.4965726 3.04309393 2.4965726 5.25399387 0 1.54018178-.4409358 2.84436409-1.3228063 3.91254799-.8818773 1.0557697-2.1363802 1.7885974-3.763508 2.1984831z"/><path d="m51.9775378 25.2340822h13.1349895v3.1673099h-17.6623752v-3.1673099c1.4283954-1.4780687 3.3722494-3.4591827 5.831562-5.943342 2.4717394-2.496585 4.0243405-4.10508 4.6578053-4.8254848 1.2048163-1.353863 2.0432169-2.4965755 2.5152026-3.4281394.4844115-.9439772.7266177-1.86932448.7266177-2.77604171 0-1.4780754-.5216715-2.68289486-1.5650154-3.61445848-1.0309296-.93155724-2.3785855-1.39733586-4.0429675-1.39733586-1.1799763 0-2.4282655.20494269-3.7448685.61482816-1.3041887.40988547-2.7015312 1.03092677-4.1920266 1.86312401v-3.80076802c1.515342-.60861816 2.9313136-1.06818677 4.2479166-1.37870585s2.5214193-.46577862 3.6144489-.46577862c2.8816241 0 5.179471.72040452 6.8935388 2.16121355 1.7140745 1.44081539 2.5711117 3.3660394 2.5711117 5.77567203 0 1.14270992-.2173662 2.22953019-.6520977 3.26045989-.4223057 1.0185039-1.1986034 2.2233202-2.328893 3.6144489-.3105191.3602058-1.297973 1.4035525-2.9623608 3.1300403-1.6643878 1.7140678-4.0119176 4.1174905-7.0425884 7.2102679z"/><path d="m73.1425724 5.3546035v-3.4281394l6.6513297-1.34144585h3.7634985v24.64906395h6.1483006v3.1673099h-16.0228302v-3.1673099h6.1482911v-21.22092455z"/><path d="m120.875685 13.4032786c1.801014.3850458 3.20456 1.1861863 4.210647 2.4034226 1.018507 1.2172364 1.527755 2.7201517 1.527755 4.5087462 0 2.7449984-.943977 4.8689548-2.831941 6.3718702s-4.570856 2.2543731-8.048675 2.2543731c-1.167547 0-2.372363-.1179967-3.614449-.3539891-1.229656-.2235724-2.502792-.5651453-3.819398-1.0247168v-3.6330789c1.043347.6086182 2.186063 1.0681868 3.42814 1.3787059 1.242085.310519 2.540061.4657786 3.893927.4657786 2.359943 0 4.154748-.4657786 5.384413-1.3973359 1.242077-.9315639 1.863115-2.2854326 1.863115-4.0616071 0-1.639542-.577568-2.9188812-1.732695-3.8380185-1.142716-.9315639-2.738791-1.3973454-4.788225-1.3973454h-3.24182v-3.0927707h3.39087c1.850704 0 3.26667-.3664158 4.247916-1.0992463.981247-.7452449 1.471866-1.81343137 1.471866-3.20456037 0-1.42839539-.509249-2.52142531-1.527756-3.27908986-1.006086-.77009085-2.453112-1.15513632-4.341076-1.15513632-1.030927 0-2.136373.1117864-3.31635.33535908-1.179976.22357269-2.477952.57135501-3.893918 1.04334678v-3.35360987c1.428386-.39746544 2.763622-.69556451 4.005708-.89429723 1.254506-.19873272 2.434482-.29809908 3.539929-.29809908 2.856781 0 5.117364.65209134 6.781749 1.95627401 1.664385 1.29176271 2.496582 3.04309393 2.496582 5.25399387 0 1.54018178-.440938 2.84436409-1.322816 3.91254799-.881877 1.0557697-2.136373 1.7885974-3.763498 2.1984831z"/><path d="m144.108783 3.86410811-9.50191 14.84906389h9.50191zm-.987457-3.27908986h4.732326v18.12815375h3.968438v3.1300404h-3.968438v6.5581797h-3.744869v-6.5581797h-12.557431v-3.6330885z"/><path d="m158.10081.58501825h14.774534v3.16730032h-11.327765v6.81901883c.546509-.1863124 1.093027-.322942 1.639545-.4098886.546509-.0993667 1.093027-.1490496 1.639545-.1490496 3.1052 0 5.564513.8508244 7.377947 2.5524722 1.813435 1.7016545 2.720152 4.0057142 2.720152 6.9121783 0 2.9934108-.931557 5.3223106-2.794672 6.9866984-1.863124 1.651962-4.490116 2.4779426-7.880995 2.4779426-1.167556 0-2.359953-.0993667-3.577189-.2980991-1.204816-.1987324-2.453103-.4968315-3.744869-.8942972v-3.7821285c1.117867.6086182 2.273003 1.0619768 3.4654 1.3600759 1.192396.298099 2.453102.4471486 3.782128.4471486 2.148803 0 3.850448-.5651453 5.104954-1.695435 1.254496-1.1302963 1.881745-2.6642645 1.881745-4.6019057 0-1.9376468-.627249-3.4716161-1.881745-4.6019057-1.254506-1.1302896-2.956151-1.6954349-5.104954-1.6954349-1.006086 0-2.012164.1117867-3.01825.3353591-.993667.2235724-2.012165.5713553-3.055511 1.0433467z"/><path d="m182.395885.58501825h14.774534v3.16730032h-11.327765v6.81901883c.546509-.1863124 1.093027-.322942 1.639545-.4098886.546509-.0993667 1.093027-.1490496 1.639545-.1490496 3.1052 0 5.564513.8508244 7.377947 2.5524722 1.813435 1.7016545 2.720152 4.0057142 2.720152 6.9121783 0 2.9934108-.931557 5.3223106-2.794672 6.9866984-1.863124 1.651962-4.490116 2.4779426-7.880995 2.4779426-1.167557 0-2.359953-.0993667-3.577189-.2980991-1.204817-.1987324-2.453103-.4968315-3.744869-.8942972v-3.7821285c1.117867.6086182 2.273003 1.0619768 3.4654 1.3600759 1.192396.298099 2.453102.4471486 3.782128.4471486 2.148803 0 3.850448-.5651453 5.104954-1.695435 1.254496-1.1302963 1.881745-2.6642645 1.881745-4.6019057 0-1.9376468-.627249-3.4716161-1.881745-4.6019057-1.254506-1.1302896-2.956151-1.6954349-5.104954-1.6954349-1.006087 0-2.012164.1117867-3.018251.3353591-.993666.2235724-2.012164.5713553-3.05551 1.0433467z"/></g></g></g></g></svg>