<svg width="750" height="471" viewBox="0 0 750 471" version="1.1" xmlns="http://www.w3.org/2000/svg" xmlns:xlink="http://www.w3.org/1999/xlink">
    <!-- Generator: Sketch 48.2 (47327) - http://www.bohemiancoding.com/sketch -->
    <desc>Created with Sketch.</desc>
    <defs></defs>
    <g id="Page-1" stroke="none" stroke-width="1" fill="none" fill-rule="evenodd">
        <g id="default" fill-rule="nonzero">
            <path d="M52.8846154,28.2035928 C39.6085397,28.2035928 28.8461538,38.7262417 28.8461538,51.7065868 L28.8461538,419.293413 C28.8461538,432.273758 39.6085397,442.796407 52.8846154,442.796407 L697.115385,442.796407 C710.39146,442.796407 721.153846,432.273758 721.153846,419.293413 L721.153846,51.7065868 C721.153846,38.7262417 710.39146,28.2035928 697.115385,28.2035928 L52.8846154,28.2035928 Z M52.8846154,0 L697.115385,0 C726.322751,-5.0099645e-15 750,23.1498275 750,51.7065868 L750,419.293413 C750,447.850173 726.322751,471 697.115385,471 L52.8846154,471 C23.6772488,471 3.41607085e-15,447.850173 0,419.293413 L0,51.7065868 C-3.41607085e-15,23.1498275 23.6772488,5.0099645e-15 52.8846154,0 Z" id="Rectangle-1" fill="#393939"></path>
            <g id="Group" transform="translate(63.000000, 168.000000)" fill="#000000">
                <rect id="rect4183" fill-opacity="0.19607843" x="0.677494783" y="0.549618387" width="105.240078" height="95.0853241" rx="20.322868"></rect>
                <g id="text4185" transform="translate(2.861751, 120.193548)" fill-opacity="0.78431374">
                    <polygon id="path4219" points="20.9718416 15.553732 16.9677747 15.553732 16.5838231 26.3043771 5.66862727 26.3043771 15.7610697 2.38967668 11.9764038 0.74416977 0.841806995 26.6334785 0.841806995 29.9244924 16.5289729 29.9244924 16.5289729 39.1393311 20.9718416 39.1393311 20.9718416 29.9244924 25.8535121 29.9244924 25.8535121 29.9244924 25.8535121 26.3043771 20.9718416 26.3043771"></polygon>
                    <path d="M44.5360147,0.74416977 C40.6964986,0.74416977 37.0215331,2.0605753 33.8402198,5.1321882 L36.3084801,7.92954995 C38.8315907,5.57099005 41.0804502,4.41913521 44.3166138,4.41913521 C48.3206777,4.41913521 51.5019911,6.66799465 51.5019911,10.8366122 C51.5019911,15.3891813 47.9367261,17.47349 44.3166138,17.47349 L42.0677543,17.47349 L41.519252,21.0936053 L44.7005654,21.0936053 C49.1434312,21.0936053 52.5441455,22.8488126 52.5441455,28.2789854 C52.5441455,32.9961053 49.4176824,36.0128679 44.0972129,36.0128679 C41.0256,36.0128679 37.8442866,34.7513126 35.7051276,32.228202 L32.6335147,34.7513126 C35.4857267,38.2617274 39.9834456,39.7426836 44.2069133,39.7426836 C51.9956432,39.7426836 57.3161155,34.8061629 57.3161155,28.2789854 C57.3161155,22.4100108 53.147498,19.3383979 48.7046294,19.0092965 C52.7086962,18.2413933 56.1094105,14.7858288 56.1094105,10.2332596 C56.1094105,5.07733797 51.6116916,0.74416977 44.5360147,0.74416977 Z" id="path4221"></path>
                    <path d="M77.4247251,0.74416977 C72.3236537,0.74416977 68.9229394,2.55422737 65.9061767,6.17434258 L69.0874901,8.58775272 C71.5009002,5.79039097 73.5303588,4.5836859 77.2601744,4.5836859 C81.4836422,4.5836859 84.0067528,7.21649696 84.0067528,11.4399647 C84.0067528,17.6380407 80.9351399,21.751808 66.67408,35.4095154 L66.67408,39.1393311 L89.1078242,39.1393311 L89.6563265,35.2449647 L71.8848518,35.2449647 C84.3358541,23.890967 88.7787228,18.2413933 88.7787228,11.3302642 C88.7787228,5.29673889 84.5552551,0.74416977 77.4247251,0.74416977 Z" id="path4223"></path>
                    <polygon id="path4225" points="112.013796 1.40237253 100.824349 8.31350157 102.798957 11.5496652 111.465293 6.33889327 111.465293 35.4095154 102.140754 35.4095154 102.140754 39.1393311 123.916296 39.1393311 123.916296 35.4095154 123.916296 35.4095154 116.017862 35.4095154 116.017862 1.40237253"></polygon>
                    <polygon id="path4227" points="185.415404 15.553732 181.411337 15.553732 181.027386 26.3043771 170.11219 26.3043771 180.204632 2.38967668 176.419966 0.74416977 165.28537 26.6334785 165.28537 29.9244924 180.972535 29.9244924 180.972535 39.1393311 185.415404 39.1393311 185.415404 29.9244924 190.297075 29.9244924 190.297075 29.9244924 190.297075 26.3043771 185.415404 26.3043771"></polygon>
                    <path d="M208.979578,0.74416977 C205.140062,0.74416977 201.465097,2.0605753 198.283783,5.1321882 L200.752044,7.92954995 C203.275154,5.57099005 205.524014,4.41913521 208.760177,4.41913521 C212.764244,4.41913521 215.945557,6.66799465 215.945557,10.8366122 C215.945557,15.3891813 212.380292,17.47349 208.760177,17.47349 L206.511318,17.47349 L205.962816,21.0936053 L209.144129,21.0936053 C213.586998,21.0936053 216.987712,22.8488126 216.987712,28.2789854 C216.987712,32.9961053 213.861249,36.0128679 208.540776,36.0128679 C205.469163,36.0128679 202.28785,34.7513126 200.148691,32.228202 L197.077078,34.7513126 C199.92929,38.2617274 204.427009,39.7426836 208.650477,39.7426836 C216.43921,39.7426836 221.759682,34.8061629 221.759682,28.2789854 C221.759682,22.4100108 217.591064,19.3383979 213.148196,19.0092965 C217.152263,18.2413933 220.552977,14.7858288 220.552977,10.2332596 C220.552977,5.07733797 216.055258,0.74416977 208.979578,0.74416977 Z" id="path4229"></path>
                    <path d="M241.868291,0.74416977 C236.76722,0.74416977 233.366506,2.55422737 230.349743,6.17434258 L233.531056,8.58775272 C235.944467,5.79039097 237.973925,4.5836859 241.703741,4.5836859 C245.927209,4.5836859 248.450319,7.21649696 248.450319,11.4399647 C248.450319,17.6380407 245.378706,21.751808 231.117646,35.4095154 L231.117646,39.1393311 L253.551391,39.1393311 L254.099893,35.2449647 L236.328418,35.2449647 C248.779421,23.890967 253.222289,18.2413933 253.222289,11.3302642 C253.222289,5.29673889 248.998821,0.74416977 241.868291,0.74416977 Z" id="path4231"></path>
                    <polygon id="path4233" points="276.457362 1.40237253 265.267915 8.31350157 267.242523 11.5496652 275.90886 6.33889327 275.90886 35.4095154 266.58432 35.4095154 266.58432 39.1393311 288.359862 39.1393311 288.359862 35.4095154 288.359862 35.4095154 280.461429 35.4095154 280.461429 1.40237253"></polygon>
                    <polygon id="path4235" points="349.858961 15.553732 345.854894 15.553732 345.470942 26.3043771 334.555747 26.3043771 344.648189 2.38967668 340.863523 0.74416977 329.728926 26.6334785 329.728926 29.9244924 345.416092 29.9244924 345.416092 39.1393311 349.858961 39.1393311 349.858961 29.9244924 354.740631 29.9244924 354.740631 29.9244924 354.740631 26.3043771 349.858961 26.3043771"></polygon>
                    <path d="M373.423135,0.74416977 C369.583619,0.74416977 365.908653,2.0605753 362.72734,5.1321882 L365.1956,7.92954995 C367.718711,5.57099005 369.967571,4.41913521 373.203734,4.41913521 C377.207801,4.41913521 380.389114,6.66799465 380.389114,10.8366122 C380.389114,15.3891813 376.823849,17.47349 373.203734,17.47349 L370.954875,17.47349 L370.406372,21.0936053 L373.587686,21.0936053 C378.030554,21.0936053 381.431269,22.8488126 381.431269,28.2789854 C381.431269,32.9961053 378.304806,36.0128679 372.984333,36.0128679 C369.91272,36.0128679 366.731407,34.7513126 364.592248,32.228202 L361.520635,34.7513126 C364.372847,38.2617274 368.870566,39.7426836 373.094034,39.7426836 C380.882766,39.7426836 386.203239,34.8061629 386.203239,28.2789854 C386.203239,22.4100108 382.034621,19.3383979 377.591753,19.0092965 C381.595819,18.2413933 384.996534,14.7858288 384.996534,10.2332596 C384.996534,5.07733797 380.498815,0.74416977 373.423135,0.74416977 Z" id="path4237"></path>
                    <path d="M406.311848,0.74416977 C401.210777,0.74416977 397.810063,2.55422737 394.7933,6.17434258 L397.974613,8.58775272 C400.388023,5.79039097 402.417482,4.5836859 406.147298,4.5836859 C410.370765,4.5836859 412.893876,7.21649696 412.893876,11.4399647 C412.893876,17.6380407 409.822263,21.751808 395.561203,35.4095154 L395.561203,39.1393311 L417.994947,39.1393311 L418.54345,35.2449647 L400.771975,35.2449647 C413.222977,23.890967 417.665846,18.2413933 417.665846,11.3302642 C417.665846,5.29673889 413.442378,0.74416977 406.311848,0.74416977 Z" id="path4239"></path>
                    <polygon id="path4241" points="440.900919 1.40237253 429.711472 8.31350157 431.68608 11.5496652 440.352416 6.33889327 440.352416 35.4095154 431.027877 35.4095154 431.027877 39.1393311 452.803419 39.1393311 452.803419 35.4095154 452.803419 35.4095154 444.904986 35.4095154 444.904986 1.40237253"></polygon>
                    <polygon id="path4243" points="514.302527 15.553732 510.29846 15.553732 509.914509 26.3043771 498.999313 26.3043771 509.091755 2.38967668 505.307089 0.74416977 494.172493 26.6334785 494.172493 29.9244924 509.859659 29.9244924 509.859659 39.1393311 514.302527 39.1393311 514.302527 29.9244924 519.184198 29.9244924 519.184198 29.9244924 519.184198 26.3043771 514.302527 26.3043771"></polygon>
                    <path d="M537.866701,0.74416977 C534.027185,0.74416977 530.35222,2.0605753 527.170906,5.1321882 L529.639167,7.92954995 C532.162277,5.57099005 534.411137,4.41913521 537.6473,4.41913521 C541.651367,4.41913521 544.832681,6.66799465 544.832681,10.8366122 C544.832681,15.3891813 541.267416,17.47349 537.6473,17.47349 L535.398441,17.47349 L534.849939,21.0936053 L538.031252,21.0936053 C542.474121,21.0936053 545.874835,22.8488126 545.874835,28.2789854 C545.874835,32.9961053 542.748372,36.0128679 537.4279,36.0128679 C534.356287,36.0128679 531.174973,34.7513126 529.035814,32.228202 L525.964201,34.7513126 C528.816413,38.2617274 533.314132,39.7426836 537.5376,39.7426836 C545.326333,39.7426836 550.646805,34.8061629 550.646805,28.2789854 C550.646805,22.4100108 546.478188,19.3383979 542.035319,19.0092965 C546.039386,18.2413933 549.4401,14.7858288 549.4401,10.2332596 C549.4401,5.07733797 544.942381,0.74416977 537.866701,0.74416977 Z" id="path4245"></path>
                    <path d="M570.755415,0.74416977 C565.654343,0.74416977 562.253629,2.55422737 559.236866,6.17434258 L562.41818,8.58775272 C564.83159,5.79039097 566.861048,4.5836859 570.590864,4.5836859 C574.814332,4.5836859 577.337442,7.21649696 577.337442,11.4399647 C577.337442,17.6380407 574.265829,21.751808 560.004769,35.4095154 L560.004769,39.1393311 L582.438514,39.1393311 L582.987016,35.2449647 L565.215541,35.2449647 C577.666544,23.890967 582.109412,18.2413933 582.109412,11.3302642 C582.109412,5.29673889 577.885945,0.74416977 570.755415,0.74416977 Z" id="path4247"></path>
                    <polygon id="path4249" points="605.344485 1.40237253 594.155038 8.31350157 596.129646 11.5496652 604.795983 6.33889327 604.795983 35.4095154 595.471444 35.4095154 595.471444 39.1393311 617.246985 39.1393311 617.246985 35.4095154 617.246985 35.4095154 609.348552 35.4095154 609.348552 1.40237253"></polygon>
                </g>
                <g id="text4189" transform="translate(6.677419, 225.124424)" fill-opacity="0.78431374">
                    <polygon id="path4269" points="0.0384161475 5.32383014 0.0384161475 1.89569074 6.68975159 0.554244885 10.4532529 0.554244885 10.4532529 25.2033184 16.6015459 25.2033184 16.6015459 28.3706187 0.578720488 28.3706187 0.578720488 25.2033184 6.72701446 25.2033184 6.72701446 3.98238429"></polygon>
                    <polygon id="path4271" points="24.333491 5.32383014 24.333491 1.89569074 30.9848265 0.554244885 34.7483278 0.554244885 34.7483278 25.2033184 40.8966208 25.2033184 40.8966208 28.3706187 24.8737954 28.3706187 24.8737954 25.2033184 31.0220893 25.2033184 31.0220893 3.98238429"></polygon>
                    <path d="M63.9061465,25.2033184 L77.041136,25.2033184 L77.041136,28.3706187 L59.3787608,28.3706187 L59.3787608,25.2033184 C60.8071562,23.725243 62.7510102,21.7441261 65.2103229,19.2599668 C67.6820622,16.7633875 69.2346633,15.1548964 69.8681281,14.4344916 C71.0729444,13.0806229 71.9113488,11.9379094 72.3833403,11.0063522 C72.867746,10.0623683 73.1099484,9.13701816 73.1099484,8.23030092 C73.1099484,6.75222553 72.588277,5.54740922 71.544933,4.61585198 C70.5140091,3.68428836 69.1663533,3.21850659 67.5019655,3.21850659 C66.3219892,3.21850659 65.0737,3.42344928 63.757097,3.83333475 C62.452914,4.24322651 61.0555753,4.86426791 59.5650799,5.69645876 L59.5650799,1.89569074 C61.0804153,1.28707258 62.496384,0.827503963 63.812987,0.516984885 C65.12959,0.206465806 66.3344063,0.0512062673 67.4274359,0.0512062673 C70.3090601,0.0512062673 72.6069098,0.771613963 74.3209843,2.21242935 C76.0350521,3.65323836 76.8920865,5.57845922 76.8920865,7.98809184 C76.8920865,9.13080816 76.6747202,10.2176278 76.2399888,11.2485517 C75.817683,12.2670556 75.0413853,13.4718719 73.9110957,14.8630006 C73.6005766,15.2232064 72.6131227,16.2665532 70.9487349,17.993041 C69.2843471,19.7071154 66.9368173,22.1105409 63.9061465,25.2033184 Z" id="path4273"></path>
                    <path d="M96.3616765,13.3725053 C98.1627006,13.757551 99.5662464,14.5586944 100.572333,15.7759374 C101.59084,16.9931737 102.100089,18.4960891 102.100089,20.2846836 C102.100089,23.0296753 101.156111,25.1536317 99.2681473,26.6565538 C97.3801833,28.1594692 94.6972945,28.9109269 91.2194722,28.9109269 C90.0519159,28.9109269 88.8470996,28.7929273 87.6050233,28.5569282 C86.3753603,28.3333558 85.1022282,27.991783 83.7856253,27.5322115 L83.7856253,23.8991325 C84.8289749,24.5077507 85.9716883,24.9673193 87.2137647,25.2778384 C88.4558476,25.5883575 89.7538197,25.743617 91.1076827,25.743617 C93.4676353,25.743617 95.2624398,25.2778384 96.4920961,24.3462812 C97.7341819,23.4147239 98.3552201,22.0608581 98.3552201,20.2846836 C98.3552201,18.6451358 97.7776519,17.3657928 96.6225156,16.4466556 C95.4798088,15.5150983 93.8837339,15.0493197 91.8343004,15.0493197 L88.5924705,15.0493197 L88.5924705,11.9565394 L91.9833499,11.9565394 C93.8340511,11.9565394 95.2500226,11.5901275 96.2312665,10.8573026 C97.2125038,10.1120521 97.7031224,9.04386177 97.7031224,7.65273276 C97.7031224,6.22434376 97.1938738,5.13131375 96.175367,4.3736429 C95.1692831,3.60355206 93.7222615,3.21850659 91.8343004,3.21850659 C90.8033765,3.21850659 89.6979268,3.33029613 88.5179505,3.55387521 C87.3379742,3.77744789 86.0400012,4.12523022 84.6240325,4.59722198 L84.6240325,1.24360258 C86.0524212,0.84613714 87.3876571,0.548038061 88.62974,0.349305346 C89.8842364,0.15057263 91.0642098,0.0512062673 92.1696594,0.0512062673 C95.0264436,0.0512062673 97.2870333,0.703297601 98.9514182,2.00748028 C100.615803,3.29924298 101.448,5.05057421 101.448,7.26147415 C101.448,8.80165593 101.007062,10.1058421 100.125185,11.1740317 C99.2433073,12.2297956 97.9888015,12.9626195 96.3616765,13.3725053 Z" id="path4275"></path>
                    <path d="M121.439269,0.554244885 L136.213803,0.554244885 L136.213803,3.72155475 L124.886038,3.72155475 L124.886038,10.540564 C125.432547,10.3542573 125.979065,10.2176316 126.525583,10.1306849 C127.072092,10.0313183 127.61861,9.98163539 128.165128,9.98163539 C131.270328,9.98163539 133.729641,10.8324598 135.543075,12.5341076 C137.356519,14.2357554 138.263237,16.5398123 138.263237,19.4462764 C138.263237,22.4396871 137.331679,24.7685869 135.468555,26.4329747 C133.605431,28.0849425 130.978439,28.9109269 127.58756,28.9109269 C126.420003,28.9109269 125.227607,28.8115602 124.010371,28.6128278 C122.805555,28.4140954 121.557268,28.1159963 120.265502,27.7185306 L120.265502,23.9363925 C121.383369,24.5450107 122.538505,24.9983693 123.730902,25.2964684 C124.923298,25.5945675 126.184004,25.743617 127.51303,25.743617 C129.661833,25.743617 131.363478,25.1784717 132.617984,24.0481821 C133.87248,22.9178924 134.499729,21.3839232 134.499729,19.4462764 C134.499729,17.5086352 133.87248,15.974667 132.617984,14.8443706 C131.363478,13.714081 129.661833,13.1489357 127.51303,13.1489357 C126.506943,13.1489357 125.500866,13.2607224 124.494779,13.4842948 C123.501113,13.7078672 122.482615,14.0556501 121.439269,14.5276416 L121.439269,0.554244885 Z" id="path4277"></path>
                    <path d="M153.745749,15.1610997 C151.957155,15.1610997 150.547399,15.6393012 149.516472,16.5957051 C148.497965,17.552109 147.988717,18.8687149 147.988717,20.5455227 C147.988717,22.2223247 148.497965,23.5389268 149.516472,24.4953307 C150.547399,25.4517346 151.957155,25.9299361 153.745749,25.9299361 C155.534344,25.9299361 156.944109,25.4517346 157.975036,24.4953307 C159.005963,23.5265068 159.521421,22.2099047 159.521421,20.5455227 C159.521421,18.8687149 159.005963,17.552109 157.975036,16.5957051 C156.956529,15.6393012 155.546773,15.1610997 153.745749,15.1610997 Z M149.982251,13.5588243 C148.367546,13.1613586 147.106839,12.4099009 146.200122,11.3044512 C145.305825,10.1989949 144.858676,8.85133593 144.858676,7.26147415 C144.858676,5.03815421 145.647394,3.28061298 147.224839,1.98885028 C148.814704,0.697087601 150.988337,0.0512062673 153.745749,0.0512062673 C156.51559,0.0512062673 158.689224,0.697087601 160.266669,1.98885028 C161.844114,3.28061298 162.632831,5.03815421 162.632831,7.26147415 C162.632831,8.85133593 162.179473,10.1989949 161.272756,11.3044512 C160.378458,12.4099009 159.130172,13.1613586 157.527887,13.5588243 C159.341322,13.9811301 160.751077,14.8071106 161.757164,16.036767 C162.775671,17.2664299 163.28492,18.7693482 163.28492,20.5455227 C163.28492,23.2408344 162.458942,25.3088951 160.806977,26.7497038 C159.167432,28.1905192 156.813689,28.9109269 153.745749,28.9109269 C150.677818,28.9109269 148.317866,28.1905192 146.665901,26.7497038 C145.026356,25.3088951 144.206579,23.2408344 144.206579,20.5455227 C144.206579,18.7693482 144.715837,17.2664299 145.734344,16.036767 C146.75285,14.8071106 148.168816,13.9811301 149.982251,13.5588243 Z M148.603545,7.61547276 C148.603545,9.05628177 149.050693,10.1803621 149.944991,10.9877126 C150.851708,11.7950699 152.118624,12.1987485 153.745749,12.1987485 C155.360454,12.1987485 156.62117,11.7950699 157.527887,10.9877126 C158.447024,10.1803621 158.906593,9.05628177 158.906593,7.61547276 C158.906593,6.17465737 158.447024,5.05057421 157.527887,4.24322336 C156.62117,3.43587252 155.360454,3.03219705 153.745749,3.03219705 C152.118624,3.03219705 150.851708,3.43587252 149.944991,4.24322336 C149.050693,5.05057421 148.603545,6.17465737 148.603545,7.61547276 Z" id="path4279"></path>
                </g>
                <g id="text4214" transform="translate(248.018433, 224.170507)" fill-opacity="0.78431374">
                    <polygon id="path4252" points="0.257347742 5.3546035 0.257347742 1.9264641 6.90867747 0.585018249 10.6721759 0.585018249 10.6721759 25.2340822 16.8204766 25.2340822 16.8204766 28.4013921 0.797646359 28.4013921 0.797646359 25.2340822 6.94593747 25.2340822 6.94593747 4.01315765"></polygon>
                    <path d="M35.8429181,13.4032786 C37.6439325,13.7883244 39.0474851,14.5894649 40.0535747,15.8067012 C41.0720786,17.0239376 41.5813301,18.5268529 41.5813301,20.3154474 C41.5813301,23.0604458 40.63735,25.1844022 38.7493888,26.6873176 C36.8614277,28.190233 34.178536,28.9416907 30.7007137,28.9416907 C29.5331574,28.9416907 28.3283411,28.823694 27.0862648,28.5877016 C25.8566018,28.3641292 24.5834698,28.0225563 23.2668668,27.5629848 L23.2668668,23.9299059 C24.3102107,24.5385241 25.4529232,24.9980927 26.6950062,25.3086118 C27.9370825,25.6191308 29.2350555,25.7743904 30.5889242,25.7743904 C32.9488768,25.7743904 34.7436813,25.3086118 35.9733376,24.3770545 C37.2154206,23.4454906 37.8364616,22.0916219 37.8364616,20.3154474 C37.8364616,18.6759054 37.2588935,17.3965662 36.1037571,16.4774289 C34.9610475,15.545865 33.3649754,15.0800835 31.3155419,15.0800835 L28.073712,15.0800835 L28.073712,11.9873128 L31.4645914,11.9873128 C33.3152926,11.9873128 34.7312613,11.620897 35.7124985,10.8880665 C36.6937424,10.1428216 37.1843639,9.07463513 37.1843639,7.68350613 C37.1843639,6.25511074 36.6751124,5.16208082 35.6566085,4.40441627 C34.6505246,3.63432542 33.203503,3.24927995 31.3155419,3.24927995 C30.284618,3.24927995 29.1791683,3.36106635 27.999192,3.58463903 C26.8192157,3.80821172 25.5212427,4.15599404 24.105274,4.62798581 L24.105274,1.27437594 C25.5336627,0.876910504 26.8688957,0.578811425 28.110972,0.38007871 C29.365475,0.181345994 30.5454513,0.0819796313 31.650901,0.0819796313 C34.5076851,0.0819796313 36.768272,0.734070965 38.4326598,2.03825364 C40.0970418,3.33001635 40.9292324,5.08134757 40.9292324,7.29224751 C40.9292324,8.83242929 40.4882966,10.1366116 39.6064261,11.2047955 C38.7245488,12.2605652 37.4700459,12.9933929 35.8429181,13.4032786 Z" id="path4254"></path>
                    <path d="M51.9775378,25.2340822 L65.1125273,25.2340822 L65.1125273,28.4013921 L47.4501521,28.4013921 L47.4501521,25.2340822 C48.8785475,23.7560135 50.8224015,21.7748995 53.2817141,19.2907402 C55.7534535,16.7941552 57.3060546,15.1856602 57.9395194,14.4652554 C59.1443357,13.1113924 59.9827363,11.9686799 60.454722,11.037116 C60.9391335,10.0931388 61.1813397,9.16779152 61.1813397,8.26107429 C61.1813397,6.78299889 60.6596682,5.57817943 59.6163243,4.64661581 C58.5853947,3.71505857 57.2377388,3.24927995 55.5733568,3.24927995 C54.3933805,3.24927995 53.1450913,3.45422264 51.8284883,3.86410811 C50.5242996,4.27399358 49.1269571,4.89503488 47.6364617,5.72723212 L47.6364617,1.9264641 C49.1518037,1.31784594 50.5677753,0.858277327 51.8843783,0.547758249 C53.2009813,0.237239171 54.4057976,0.0819796313 55.4988272,0.0819796313 C58.3804513,0.0819796313 60.6782982,0.802384151 62.392366,2.24319318 C64.1064405,3.68400857 64.9634777,5.60923258 64.9634777,8.01886521 C64.9634777,9.16157513 64.7461115,10.2483954 64.31138,11.2793251 C63.8890743,12.297829 63.1127766,13.5026453 61.982487,14.893774 C61.6719679,15.2539798 60.684514,16.2973265 59.0201262,18.0238143 C57.3557384,19.7378821 55.0082086,22.1413048 51.9775378,25.2340822 Z" id="path4256"></path>
                    <polygon id="path4258" points="73.1425724 5.3546035 73.1425724 1.9264641 79.7939021 0.585018249 83.5574006 0.585018249 83.5574006 25.2340822 89.7057012 25.2340822 89.7057012 28.4013921 73.682871 28.4013921 73.682871 25.2340822 79.8311621 25.2340822 79.8311621 4.01315765"></polygon>
                    <path d="M120.875685,13.4032786 C122.676699,13.7883244 124.080245,14.5894649 125.086332,15.8067012 C126.104839,17.0239376 126.614087,18.5268529 126.614087,20.3154474 C126.614087,23.0604458 125.67011,25.1844022 123.782146,26.6873176 C121.894182,28.190233 119.21129,28.9416907 115.733471,28.9416907 C114.565924,28.9416907 113.361108,28.823694 112.119022,28.5877016 C110.889366,28.3641292 109.61623,28.0225563 108.299624,27.5629848 L108.299624,23.9299059 C109.342971,24.5385241 110.485687,24.9980927 111.727764,25.3086118 C112.969849,25.6191308 114.267825,25.7743904 115.621691,25.7743904 C117.981634,25.7743904 119.776439,25.3086118 121.006104,24.3770545 C122.248181,23.4454906 122.869219,22.0916219 122.869219,20.3154474 C122.869219,18.6759054 122.291651,17.3965662 121.136524,16.4774289 C119.993808,15.545865 118.397733,15.0800835 116.348299,15.0800835 L113.106479,15.0800835 L113.106479,11.9873128 L116.497349,11.9873128 C118.348053,11.9873128 119.764019,11.620897 120.745265,10.8880665 C121.726512,10.1428216 122.217131,9.07463513 122.217131,7.68350613 C122.217131,6.25511074 121.707882,5.16208082 120.689375,4.40441627 C119.683289,3.63432542 118.236263,3.24927995 116.348299,3.24927995 C115.317372,3.24927995 114.211926,3.36106635 113.031949,3.58463903 C111.851973,3.80821172 110.553997,4.15599404 109.138031,4.62798581 L109.138031,1.27437594 C110.566417,0.876910504 111.901653,0.578811425 113.143739,0.38007871 C114.398245,0.181345994 115.578221,0.0819796313 116.683668,0.0819796313 C119.540449,0.0819796313 121.801032,0.734070965 123.465417,2.03825364 C125.129802,3.33001635 125.961999,5.08134757 125.961999,7.29224751 C125.961999,8.83242929 125.521061,10.1366116 124.639183,11.2047955 C123.757306,12.2605652 122.50281,12.9933929 120.875685,13.4032786 Z" id="path4260"></path>
                    <path d="M144.108783,3.86410811 L134.606873,18.713172 L144.108783,18.713172 L144.108783,3.86410811 Z M143.121326,0.585018249 L147.853652,0.585018249 L147.853652,18.713172 L151.82209,18.713172 L151.82209,21.8432124 L147.853652,21.8432124 L147.853652,28.4013921 L144.108783,28.4013921 L144.108783,21.8432124 L131.551352,21.8432124 L131.551352,18.2101239 L143.121326,0.585018249 Z" id="path4262"></path>
                    <path d="M158.10081,0.585018249 L172.875344,0.585018249 L172.875344,3.75231857 L161.547579,3.75231857 L161.547579,10.5713374 C162.094088,10.385025 162.640606,10.2483954 163.187124,10.1614488 C163.733633,10.0620821 164.280151,10.0123992 164.826669,10.0123992 C167.931869,10.0123992 170.391182,10.8632236 172.204616,12.5648714 C174.018051,14.2665259 174.924768,16.5705856 174.924768,19.4770497 C174.924768,22.4704605 173.993211,24.7993603 172.130096,26.4637481 C170.266972,28.1157101 167.63998,28.9416907 164.249101,28.9416907 C163.081545,28.9416907 161.889148,28.842324 160.671912,28.6435916 C159.467096,28.4448592 158.218809,28.1467601 156.927043,27.7492944 L156.927043,23.9671659 C158.04491,24.5757841 159.200046,25.0291427 160.392443,25.3272418 C161.584839,25.6253408 162.845545,25.7743904 164.174571,25.7743904 C166.323374,25.7743904 168.025019,25.2092451 169.279525,24.0789554 C170.534021,22.9486591 171.16127,21.4146909 171.16127,19.4770497 C171.16127,17.5394029 170.534021,16.0054336 169.279525,14.875144 C168.025019,13.7448544 166.323374,13.1797091 164.174571,13.1797091 C163.168485,13.1797091 162.162407,13.2914958 161.156321,13.5150682 C160.162654,13.7386406 159.144156,14.0864235 158.10081,14.5584149 L158.10081,0.585018249 Z" id="path4264"></path>
                    <path d="M182.395885,0.585018249 L197.170419,0.585018249 L197.170419,3.75231857 L185.842654,3.75231857 L185.842654,10.5713374 C186.389163,10.385025 186.935681,10.2483954 187.482199,10.1614488 C188.028708,10.0620821 188.575226,10.0123992 189.121744,10.0123992 C192.226944,10.0123992 194.686257,10.8632236 196.499691,12.5648714 C198.313126,14.2665259 199.219843,16.5705856 199.219843,19.4770497 C199.219843,22.4704605 198.288286,24.7993603 196.425171,26.4637481 C194.562047,28.1157101 191.935055,28.9416907 188.544176,28.9416907 C187.376619,28.9416907 186.184223,28.842324 184.966987,28.6435916 C183.76217,28.4448592 182.513884,28.1467601 181.222118,27.7492944 L181.222118,23.9671659 C182.339985,24.5757841 183.495121,25.0291427 184.687518,25.3272418 C185.879914,25.6253408 187.14062,25.7743904 188.469646,25.7743904 C190.618449,25.7743904 192.320094,25.2092451 193.5746,24.0789554 C194.829096,22.9486591 195.456345,21.4146909 195.456345,19.4770497 C195.456345,17.5394029 194.829096,16.0054336 193.5746,14.875144 C192.320094,13.7448544 190.618449,13.1797091 188.469646,13.1797091 C187.463559,13.1797091 186.457482,13.2914958 185.451395,13.5150682 C184.457729,13.7386406 183.439231,14.0864235 182.395885,14.5584149 L182.395885,0.585018249 Z" id="path4266"></path>
                </g>
            </g>
        </g>
    </g>
</svg>
