<svg width="750" height="471" viewBox="0 0 750 471" version="1.1" xmlns="http://www.w3.org/2000/svg" xmlns:xlink="http://www.w3.org/1999/xlink">
    <!-- Generator: Sketch 48.2 (47327) - http://www.bohemiancoding.com/sketch -->
    <desc>Created with Sketch.</desc>
    <defs></defs>
    <g id="Page-1" stroke="none" stroke-width="1" fill="none" fill-rule="evenodd">
        <g id="diners" fill-rule="nonzero">
            <path d="M52.8846154,28.2035928 C39.6085397,28.2035928 28.8461538,38.7262417 28.8461538,51.7065868 L28.8461538,419.293413 C28.8461538,432.273758 39.6085397,442.796407 52.8846154,442.796407 L697.115385,442.796407 C710.39146,442.796407 721.153846,432.273758 721.153846,419.293413 L721.153846,51.7065868 C721.153846,38.7262417 710.39146,28.2035928 697.115385,28.2035928 L52.8846154,28.2035928 Z M52.8846154,0 L697.115385,0 C726.322751,-5.0099645e-15 750,23.1498275 750,51.7065868 L750,419.293413 C750,447.850173 726.322751,471 697.115385,471 L52.8846154,471 C23.6772488,471 3.41607085e-15,447.850173 0,419.293413 L0,51.7065868 C-3.41607085e-15,23.1498275 23.6772488,5.0099645e-15 52.8846154,0 Z" id="Rectangle-1" fill="#393939"></path>
            <path d="M584.867822,237.100205 C584.867822,137.684406 501.886887,68.9669461 410.972835,69.0000119 L332.730651,69.0000119 C240.72761,68.9669461 165,137.704907 165,237.100205 C165,328.030644 240.72761,402.740298 332.730651,402.303829 L410.972835,402.303829 C501.886887,402.739637 584.867822,328.010805 584.867822,237.100205 Z M333.214213,83.0837049 C417.303936,83.1101576 485.441626,151.391148 485.454165,235.663447 C485.442286,319.921197 417.303936,388.195574 333.214213,388.222027 C249.14363,388.195574 181.0198,319.921197 181,235.663447 C181.0198,151.391148 249.144289,83.1101576 333.214213,83.0837049 Z M237,235.250606 C237.078539,276.436773 262.746332,311.533533 298.940354,325.480049 L298.940354,145 C262.746332,158.954453 237.079199,194.07039 237,235.250606 Z M368,325.52568 C404.207223,311.578502 429.913954,276.469178 429.979954,235.256558 C429.913954,194.056503 404.207223,158.920725 368,145 L368,325.52568 Z" id="Shape" fill="#373737"></path>
        </g>
    </g>
</svg>
