<svg height="471" viewBox="0 0 750 471" width="750" xmlns="http://www.w3.org/2000/svg"><g fill="none"><path d="m52.8846154 28.2035928c-13.2760757 0-24.0384616 10.5226489-24.0384616 23.502994v367.5868262c0 12.980345 10.7623859 23.502994 24.0384616 23.502994h644.2307696c13.276075 0 24.038461-10.522649 24.038461-23.502994v-367.5868262c0-12.9803451-10.762386-23.502994-24.038461-23.502994zm0-28.2035928h644.2307696c29.207366 0 52.884615 23.1498275 52.884615 51.7065868v367.5868262c0 28.55676-23.677249 51.706587-52.884615 51.706587h-644.2307696c-29.2073666 0-52.8846154-23.149827-52.8846154-51.706587v-367.5868262c0-28.5567593 23.6772488-51.7065868 52.8846154-51.7065868z" fill="#393939"/><path d="m584.867822 237.100205c0-99.415799-82.980935-168.1332589-173.894987-168.1001931h-78.242184c-92.003041-.0330658-167.730651 68.7048951-167.730651 168.1001931 0 90.930439 75.72761 165.640093 167.730651 165.203624h78.242184c90.914052.435808 173.894987-74.293024 173.894987-165.203624zm-251.653609-154.0165001c84.089723.0264527 152.227413 68.3074431 152.239952 152.5797421-.011879 84.25775-68.150229 152.532127-152.239952 152.55858-84.070583-.026453-152.194413-68.30083-152.214213-152.55858.0198-84.272299 68.144289-152.5532894 152.214213-152.5797421zm-96.214213 152.1669011c.078539 41.186167 25.746332 76.282927 61.940354 90.229443v-180.480049c-36.194022 13.954453-61.861155 49.07039-61.940354 90.250606zm131 90.275074c36.207223-13.947178 61.913954-49.056502 61.979954-90.269122-.066-41.200055-25.772731-76.335833-61.979954-90.256558z" fill="#373737"/></g></svg>