<?xml version="1.0" encoding="UTF-8" standalone="no"?>
<svg width="780px" height="501px" viewBox="0 0 780 501" version="1.1" xmlns="http://www.w3.org/2000/svg" xmlns:xlink="http://www.w3.org/1999/xlink" xmlns:sketch="http://www.bohemiancoding.com/sketch/ns">
    <!-- Generator: Sketch 3.3.1 (12005) - http://www.bohemiancoding.com/sketch -->
    <title>diners-outline</title>
    <desc>Created with Sketch.</desc>
    <defs></defs>
    <g id="Page-1" stroke="none" stroke-width="1" fill="none" fill-rule="evenodd" sketch:type="MSPage">
        <rect id="Rectangle-1" stroke="#393939" stroke-width="30" sketch:type="MSShapeGroup" x="15" y="15" width="750" height="471" rx="40"></rect>
        <path d="M599.933911,252.947339 C599.933911,153.53154 516.952976,84.8140806 426.038924,84.8471464 L347.79674,84.8471464 C255.793699,84.8140806 180.066089,153.552041 180.066089,252.947339 C180.066089,343.877778 255.793699,418.587432 347.79674,418.150963 L426.038924,418.150963 C516.952976,418.586771 599.933911,343.857939 599.933911,252.947339 Z M348.280302,98.9308394 C264.210378,98.9572921 196.085889,167.238282 196.066089,251.510581 C196.085889,335.768331 264.209719,404.042708 348.280302,404.069161 C432.370025,404.042708 500.508375,335.768331 500.520254,251.510581 C500.507715,167.238282 432.370025,98.9572921 348.280302,98.9308394 Z" id="Shape" fill="#373737" sketch:type="MSShapeGroup"></path>
        <path d="M252.066089,251.09774 L252.066089,251.09774 C252.145288,209.917524 277.812421,174.801587 314.006443,160.847134 L314.006443,341.327183 C277.812421,327.380667 252.144628,292.283907 252.066089,251.09774 L252.066089,251.09774 Z" id="Path" fill="#393939" sketch:type="MSShapeGroup"></path>
        <path d="M383.066089,341.372814 L383.066089,341.372814 L383.066089,160.847134 C419.273312,174.767859 444.980043,209.903637 445.046043,251.103692 C444.980043,292.316312 419.273312,327.425636 383.066089,341.372814 L383.066089,341.372814 Z" id="Path" fill="#393939" sketch:type="MSShapeGroup"></path>
    </g>
</svg>