<?xml version="1.0" encoding="UTF-8" standalone="no"?>
<svg
   xmlns:sketch="http://www.bohemiancoding.com/sketch/ns"
   xmlns:dc="http://purl.org/dc/elements/1.1/"
   xmlns:cc="http://creativecommons.org/ns#"
   xmlns:rdf="http://www.w3.org/1999/02/22-rdf-syntax-ns#"
   xmlns:svg="http://www.w3.org/2000/svg"
   xmlns="http://www.w3.org/2000/svg"
   xmlns:sodipodi="http://sodipodi.sourceforge.net/DTD/sodipodi-0.dtd"
   xmlns:inkscape="http://www.inkscape.org/namespaces/inkscape"
   width="780px"
   height="501px"
   viewBox="0 0 780 501"
   version="1.1"
   id="svg2"
   inkscape:version="0.91 r13725"
   sodipodi:docname="discover.svg">
  <metadata
     id="metadata24">
    <rdf:RDF>
      <cc:Work
         rdf:about="">
        <dc:format>image/svg+xml</dc:format>
        <dc:type
           rdf:resource="http://purl.org/dc/dcmitype/StillImage" />
      </cc:Work>
    </rdf:RDF>
  </metadata>
  <sodipodi:namedview
     pagecolor="#ffffff"
     bordercolor="#666666"
     borderopacity="1"
     objecttolerance="10"
     gridtolerance="10"
     guidetolerance="10"
     inkscape:pageopacity="0"
     inkscape:pageshadow="2"
     inkscape:window-width="1440"
     inkscape:window-height="851"
     id="namedview22"
     showgrid="false"
     inkscape:zoom="1.0370192"
     inkscape:cx="390"
     inkscape:cy="250.5"
     inkscape:window-x="0"
     inkscape:window-y="300"
     inkscape:window-maximized="1"
     inkscape:current-layer="svg2" />
  <!-- Generator: Sketch 3.3.1 (12005) - http://www.bohemiancoding.com/sketch -->
  <title
     id="title4">discover-outline</title>
  <desc
     id="desc6">Created with Sketch.</desc>
  <defs
     id="defs8" />
  <g
     id="Page-1"
     stroke="none"
     stroke-width="1"
     fill="none"
     fill-rule="evenodd"
     sketch:type="MSPage">
    <path
       d="M54.9919369,30 L725.008063,30 C738.811377,30 750,41.1913862 750,55.0047706 L750,274.923828 C750,274.923828 674.398438,326.001953 586.806641,361.300781 C447.689453,425.611328 246.167104,471 232.371094,471 L54.9919369,471 C41.1886228,471 30,459.808614 30,445.995229 L30,55.0047706 C30,41.1977114 41.1959268,30 54.9919369,30 Z M0,55.0047706 L0,445.995229 C0,476.375498 24.6184216,501 54.9919369,501 L725.008063,501 C755.373686,501 780,476.369761 780,445.995229 L780,55.0047706 C780,24.624502 755.381578,0 725.008063,0 L54.9919369,0 C24.6263138,0 0,24.6302393 0,55.0047706 L0,55.0047706 Z"
       id="Shape"
       fill="#393939"
       sketch:type="MSShapeGroup" />
    <path
       d="M67.4148795,164.40018 L67.4148795,263.542203 L97.4067062,263.542203 C113.354421,263.542203 124.871651,259.999228 134.9804,252.097436 C146.993567,242.73632 154.097398,228.629534 154.097398,214.040136 C154.097398,184.780906 130.877014,164.40018 97.5653737,164.40018 L67.4148795,164.40018 Z M121.561195,238.879265 C115.107494,244.364174 106.724152,246.758076 93.4510023,246.758076 L87.9395429,246.758076 L87.9395429,181.199628 L93.4510023,181.199628 C106.724152,181.199628 114.776733,183.436491 121.561195,189.216328 C128.665025,195.172357 132.938471,204.399413 132.938471,213.898417 C132.938471,223.412742 128.665025,232.923237 121.561195,238.879265 L121.561195,238.879265 Z"
       id="path20-path"
       fill="#393939"
       sketch:type="MSShapeGroup" />
    <path
       d="M163.548287,164.40018 L184.08894,164.40018 L184.08894,263.542203 L163.548287,263.542203 L163.548287,164.40018 L163.548287,164.40018 Z"
       id="path22"
       fill="#393939"
       sketch:type="MSShapeGroup"
       transform="translate(173.818614, 213.971192) scale(1, -1) translate(-173.818614, -213.971192) " />
    <path
       d="M234.314417,225.998791 C221.988797,230.292494 218.368329,233.126874 218.368329,238.481554 C218.368329,244.724851 224.817555,249.470523 233.670797,249.470523 C239.824249,249.470523 244.882896,247.088111 250.233654,241.442332 L260.981549,254.691145 C252.148649,261.964777 241.583832,265.683943 230.038124,265.683943 C211.406079,265.683943 197.193536,253.499939 197.193536,237.275027 C197.193536,223.616379 203.811193,216.626185 223.102725,210.087959 C231.143914,207.418279 235.236316,205.637216 237.302249,204.44218 C241.405636,201.91805 243.460584,198.348263 243.460584,194.184788 C243.460584,186.152767 236.676123,180.200569 227.512869,180.200569 C217.715352,180.200569 209.824693,184.812182 205.093552,193.42257 L191.825284,181.391775 C201.289193,168.315323 212.65345,162.520165 228.283423,162.520165 C249.628276,162.520165 264.603644,175.880054 264.603644,195.073405 C264.603644,210.823366 257.67923,217.955279 234.314417,225.998791"
       id="path24"
       fill="#393939"
       sketch:type="MSShapeGroup"
       transform="translate(228.214464, 214.102054) scale(1, -1) translate(-228.214464, -214.102054) " />
    <path
       d="M271.082568,213.626869 C271.082568,184.486376 295.38596,161.89177 326.663808,161.89177 C335.508506,161.89177 343.079796,163.527284 352.420839,167.667777 L352.420839,190.430914 C344.206742,182.693822 336.932446,179.572174 327.619881,179.572174 C306.932075,179.572174 292.249225,193.694282 292.249225,213.768588 C292.249225,232.804898 307.399941,247.819453 326.663808,247.819453 C336.46458,247.819453 343.877202,244.529273 352.420839,236.665784 L352.420839,259.41743 C343.401199,263.722624 335.988577,265.507517 327.152016,265.507517 C296.032836,265.507517 271.082568,242.453282 271.082568,213.626869"
       id="path26"
       fill="#393939"
       sketch:type="MSShapeGroup"
       transform="translate(311.751704, 213.699644) scale(1, -1) translate(-311.751704, -213.699644) " />
    <path
       d="M515.282898,199.340675 L487.198743,265.933289 L464.761526,265.933289 L509.448814,164.247985 L520.502653,164.247985 L565.995485,265.933289 L543.72914,265.933289 L515.282898,199.340675"
       id="path28"
       fill="#393939"
       sketch:type="MSShapeGroup"
       transform="translate(515.378505, 215.090637) scale(1, -1) translate(-515.378505, -215.090637) " />
    <path
       d="M575.283638,164.40018 L633.534968,164.40018 L633.534968,181.184307 L595.808709,181.184307 L595.808709,207.946219 L632.143575,207.946219 L632.143575,224.738006 L595.808709,224.738006 L595.808709,246.742755 L633.534968,246.742755 L633.534968,263.542203 L575.283638,263.542203 L575.283638,164.40018"
       id="path30"
       fill="#393939"
       sketch:type="MSShapeGroup"
       transform="translate(604.409303, 213.971192) scale(1, -1) translate(-604.409303, -213.971192) " />
    <path
       d="M714.862253,193.670901 C714.862253,175.109541 701.286007,164.40018 677.595723,164.40018 L647.139692,164.40018 L647.139692,263.542203 L667.656626,263.542203 L667.656626,223.715331 L670.333632,223.715331 L698.7636,263.542203 L724.024286,263.542203 L690.874976,221.777228 C706.347095,218.812619 714.862253,208.850156 714.862253,193.670901 L714.862253,193.670901 Z M673.657513,210.041362 L667.656626,210.041362 L667.656626,180.016083 L673.982985,180.016083 C686.77403,180.016083 693.726923,185.064344 693.726923,194.712727 C693.726923,204.679021 686.77403,210.041362 673.657513,210.041362 L673.657513,210.041362 Z"
       id="path32-path"
       fill="#393939"
       sketch:type="MSShapeGroup" />
    <path
       d="M359.109286,213.955492 C359.109286,213.955492 359.109286,213.955492 359.109286,213.989964 C359.109286,243.118966 384.190962,266.697945 415.131133,266.697945 C446.071303,266.697945 471.15298,243.118966 471.15298,213.989964 L471.15298,213.955492 C471.15298,184.82649 446.071303,161.213039 415.131133,161.213039 C384.190962,161.213039 359.109286,184.82649 359.109286,213.955492"
       id="path44"
       fill="#393939"
       sketch:type="MSShapeGroup"
       transform="translate(415.131133, 213.955492) scale(1, -1) translate(-415.131133, -213.955492) " />
  </g>
</svg>
