<svg height="471" viewBox="0 0 750 471" width="750" xmlns="http://www.w3.org/2000/svg"><g fill="#393939"><path d="m52.8768624 28.2035928h644.2462746c13.272418 0 24.030709 10.5212433 24.030709 23.507479v206.7502512s-72.693809 48.019555-156.916691 81.204681c-133.766527 60.459616-327.538017 103.130403-340.803411 103.130403h-170.5568816c-13.2724174 0-24.0307086-10.521243-24.0307086-23.507479v-367.5778562c0-12.9802892 10.7653143-23.507479 24.0307086-23.507479zm-52.8768624 23.507479v367.5778562c0 28.561091 23.6715592 51.711072 52.8768624 51.711072h644.2462746c29.197715 0 52.876863-23.155374 52.876863-51.711072v-367.5778562c0-28.5610909-23.67156-51.7110718-52.876863-51.7110718h-644.2462746c-29.1977145 0-52.8768624 23.1553747-52.8768624 51.7110718z"/><g transform="translate(64.423077 151.359281)"><path d="m.3989226 3.23979415v94.46551245h28.8382949c15.3343412 0 26.4086008-3.3758535 36.1285517-10.9049195 11.5511221-8.9195539 18.3817289-22.3609255 18.3817289-36.2621443 0-27.8790776-22.3272923-47.29844865-54.3577157-47.29844865zm52.0637649 70.96592065c-6.2054817 5.2261868-14.2663875 7.5071689-27.0290314 7.5071689h-5.2994802v-62.4660683h5.2994802c12.7626439 0 20.5055102 2.1313506 27.0290314 7.6385537 6.8306058 5.6750843 10.9396885 14.4669018 10.9396885 23.5178396 0 9.065536-4.1090827 18.1274228-10.9396885 23.8025061z"/><path d="m92.8348913 3.2397951h19.7506277v94.4655125h-19.7506277z" transform="matrix(1 0 0 -1 0 100.945102)"/><path d="m160.879247 61.9328103c-11.851558 4.0911698-15.332777 6.7918527-15.332777 11.8939534 0 5.9488019 6.201179 10.4706214 14.713912 10.4706214 5.916781 0 10.780864-2.2700341 15.925824-7.6495027l10.334514 12.623869c-8.493173 6.9305361-18.651651 10.4742698-29.753293 10.4742698-17.915428 0-31.581335-11.6092869-31.581335-27.0688728 0-13.0143722 6.363132-19.6748401 24.912682-25.9046592 7.731913-2.5437517 11.666914-4.2408023 13.653388-5.3794686 3.945565-2.4050673 5.921476-5.8064681 5.921476-9.7735528 0-7.6531521-6.52352-13.324586-15.334341-13.324586-9.420689 0-17.007861 4.3940841-21.557035 12.5983217l-12.75795-11.4633047c9.099912-12.45963821 20.027082-17.9814397 35.055902-17.9814397 20.523898 0 34.92329 12.7297056 34.92329 31.0177098 0 15.0070383-6.658091 21.8025403-29.124257 29.4666414" transform="matrix(1 0 0 -1 0 101.19448)"/><path d="m196.233238 50.1444705c0-27.7659415 23.368647-49.29476417 53.4435-49.29476417 8.504518 0 15.784604 1.55836711 24.766376 5.50355384v21.68940413c-7.89817-7.3721348-14.892685-10.3465353-23.847075-10.3465353-19.892121 0-34.010246 13.4559708-34.010246 32.5833756 0 18.1383709 14.567996 32.4446921 33.090945 32.4446921 9.42382 0 16.551341-3.1349828 24.766376-10.6275525v21.6784551c-8.67273 4.1021189-15.800252 5.8028188-24.296945 5.8028188-29.922288 0-53.912931-21.9667711-53.912931-49.4334476" transform="matrix(1 0 0 -1 0 100.427624)"/><path d="m431.041248 36.5321526-27.003995 63.451453h-21.574247l42.968546-96.88882744h10.628691l43.743108 96.88882744h-21.409947z" transform="matrix(1 0 0 -1 0 103.078384)"/><path d="m488.734267 3.2397951h56.010895v15.9924229h-36.275249v25.4995577h34.937371v15.9997215h-34.937371v20.9667892h36.275249v16.0070212h-56.010895z" transform="matrix(1 0 0 -1 0 100.945102)"/><path d="m622.944474 31.1298208c0-17.6858242-13.054083-27.89002665-35.833202-27.89002665h-29.284645v94.46551245h19.727821v-37.9482459h2.574044l27.336508 37.9482459h24.289121l-31.874336-39.794929c14.877037-2.8247689 23.064689-12.3173044 23.064689-26.7805568zm-39.619942 15.5982694h-5.770084v-28.6089922h6.083038c12.299081 0 18.984555 4.8101354 18.984555 14.003406 0 9.4961858-6.685474 14.6055862-19.297509 14.6055862z"/><path d="m280.874313 50.4575914v.032846c0 27.7549925 24.116997 50.2217556 53.867161 50.2217556s53.867161-22.4667631 53.867161-50.2217556v-.032846c0-27.7549924-24.116997-50.25460141-53.867161-50.25460141s-53.867161 22.49960901-53.867161 50.25460141" transform="matrix(1 0 0 -1 0 100.915182)"/></g></g></svg>