<svg height="471" viewBox="0 0 750 471" width="750" xmlns="http://www.w3.org/2000/svg"><g fill="#393939"><path d="m52.8846154 28.2035928c-13.2843546 0-24.0384616 10.5145544-24.0384616 23.502994v367.5868262c0 12.98844 10.754107 23.502994 24.0384616 23.502994h644.2307696c13.284354 0 24.038461-10.514554 24.038461-23.502994v-367.5868262c0-12.9884396-10.754107-23.502994-24.038461-23.502994zm0-28.2035928h644.2307696c29.215645 0 52.884615 23.141733 52.884615 51.7065868v367.5868262c0 28.564854-23.66897 51.706587-52.884615 51.706587h-644.2307696c-29.2156454 0-52.8846154-23.141733-52.8846154-51.706587v-367.5868262c0-28.5648538 23.66897-51.7065868 52.8846154-51.7065868z"/><g transform="translate(77 126)"><path d="m89.0191693 48.1750799c6.3789138-2.0945687 13.2338657-3.3322684 20.3744407-3.3322684 31.0377 0 56.934186 22.0881789 62.837061 51.3169329l43.985942-8.9495208c-10.092012-49.7936102-54.077955-87.2102236-106.823003-87.2102236-12.0913736 0-23.706709 1.99936102-34.5603832 5.6172524zm-51.8881789 142.5258781 29.7047923-33.608306c-13.7662006-12.185322-21.6370562-29.695375-21.6121405-48.079872 0-19.1367417 8.3782747-36.2741219 21.6121405-47.984665l-29.7047923-33.6083067c-22.5642172 19.9936102-36.75015973 49.1271566-36.75015973 81.5929717 0 32.465814 14.18594253 61.694568 36.75015973 81.688178zm135.0044726-68.835143c-5.998083 29.228754-31.799361 51.221725-62.83706 51.221725-7.140576 0-13.9955276-1.142492-20.3744413-3.332268l-14.2811502 42.557827c10.8536741 3.617891 22.4690096 5.617252 34.5603835 5.617252 52.745048 0 96.635783-37.416613 106.823003-87.115016z"/><g transform="translate(268.485623 26.658147)"><path d="m94.0651757 125.293291c-7.2357827 7.045367-17.1373802 11.329712-27.9910543 11.234505-7.4261981-.095208-14.3763578-2.380192-20.1840256-6.093291l-14.5667731 23.230671c9.9968051 6.283706 21.7073482 9.996805 34.369968 10.18722 18.4702876.285623 35.2268373-6.95016 47.5086263-18.946326zm-26.3725239-94.4460067c-36.6549521-.571246-66.93099046 28.7527157-67.50223646 65.5028754-.19041534 13.8051123 3.8083067 26.6581473 10.75846646 37.3214053l120.4376992-51.5073477c-6.759744-29.0383387-32.5610219-50.8408946-63.6939292-51.316933zm-39.8920128 70.6440897c-.1904154-1.5233229-.285623-3.1418532-.1904154-4.7603836.3808307-21.6121406 18.1846646-38.9399361 39.7968052-38.5591054 11.8057508.1904153 22.1833865 5.5220447 29.3239616 13.9003195zm141.383387-100.63450499v128.43514399l22.278594 9.235144-10.568051 25.325239-21.992972-9.139936c-4.950798-2.189776-8.283067-5.426837-10.853674-9.139936-2.475399-3.808307-4.284345-8.949521-4.284345-15.899681v-128.81597399z"/><path d="m249.539297 60.171246c3.903515-1.3329073 8.092652-1.999361 12.376997-1.999361 18.946326 0 34.750799 13.4242811 38.36869 31.3233227l26.848562-5.4268371c-6.188498-30.371246-33.03706-53.2210863-65.217252-53.2210863-7.33099 0-14.471566 1.2376997-21.040895 3.4274761zm-31.608946 87.019808 18.184665-20.469648c-8.092652-7.140575-13.233866-17.613419-13.233866-29.3239619 0-11.7105431 5.141214-22.0881789 13.233866-29.3239617l-18.184665-20.4696485c-13.805111 12.1865814-22.469009 29.9904153-22.469009 49.7936102s8.663898 37.6070289 22.469009 49.7936099zm82.354633-41.986581c-3.617891 17.803834-19.422364 31.323323-38.36869 31.323323-4.379553 0-8.473482-.666454-12.376997-1.999361l-8.663898 25.991693c6.664537 2.189776 13.709905 3.427476 21.136103 3.427476 32.180191 0 59.028754-22.84984 65.217252-53.221086z"/></g></g></g></svg>