<?xml version="1.0" encoding="utf-8"?>
<svg id="Layer_1" x="0px" y="0px" width="780px" height="501px" viewBox="0 0 780 501" xmlns="http://www.w3.org/2000/svg">
  <title>amex-outline</title>
  <desc>Created with Sketch.</desc>
  <path d="M725,0H55C24.673,0,0,24.673,0,55v391c0,30.327,24.673,55,55,55h670c30.325,0,55-24.673,55-55V55&#10;&#9;C780,24.673,755.325,0,725,0z" style="fill: none;"/>
  <rect id="Rectangle-1" stroke="#393939" stroke-width="30" x="15" y="14.595" width="750" height="471" rx="40" style="fill: none;"/>
  <path id="path2997" d="M 333.561 399.695 L 47.027 399.798 L 47.027 399.108 C 47.027 398.729 47.484 396.27 48.042 393.643 C 48.601 391.017 49.469 386.839 49.973 384.36 C 50.475 381.88 51.335 377.667 51.882 374.996 C 52.43 372.327 53.341 367.879 53.906 365.113 C 54.47 362.348 55.354 357.978 55.871 355.404 C 56.388 352.828 57.249 348.614 57.787 346.04 C 58.324 343.465 59.241 339.018 59.824 336.157 C 60.406 333.296 61.291 328.926 61.791 326.446 C 62.291 323.966 63.085 320.143 63.556 317.951 C 64.026 315.757 64.627 312.792 64.889 311.361 C 65.152 309.931 66.003 305.717 66.78 301.998 C 67.557 298.279 68.413 294.065 68.685 292.635 C 68.956 291.204 69.817 286.99 70.599 283.271 C 71.38 279.553 72.238 275.339 72.506 273.908 C 72.774 272.478 73.637 268.264 74.423 264.545 C 75.211 260.825 76.061 256.69 76.311 255.355 C 76.563 254.02 77.251 250.587 77.841 247.726 C 78.43 244.865 79.546 239.481 80.32 235.762 C 81.095 232.042 82.419 225.566 83.262 221.369 C 84.107 217.173 85.116 212.18 85.505 210.273 C 85.893 208.366 86.596 204.932 87.067 202.643 C 87.538 200.354 88.392 196.219 88.966 193.454 C 89.54 190.687 90.473 186.162 91.04 183.396 C 91.608 180.631 92.482 176.339 92.983 173.86 C 93.484 171.38 94.339 167.245 94.883 164.67 C 95.427 162.095 96.363 157.569 96.963 154.613 C 97.563 151.656 98.568 147.131 99.196 144.556 C 99.824 141.981 100.712 138.86 101.17 137.621 C 101.627 136.38 102.89 133.694 103.976 131.648 L 105.951 127.931 L 107.746 125.579 C 108.732 124.287 110.495 122.244 111.662 121.04 C 112.829 119.836 114.797 118.024 116.038 117.014 C 117.277 116.003 119.072 114.639 120.025 113.983 C 120.979 113.327 122.852 112.178 124.187 111.43 C 125.522 110.682 127.396 109.703 128.349 109.254 C 129.303 108.805 131.254 107.984 132.684 107.431 C 134.114 106.879 136.845 105.952 138.752 105.373 C 140.659 104.793 144.24 103.919 146.709 103.432 C 149.178 102.944 153.078 102.292 155.379 101.983 L 159.56 101.421 L 446.267 101.313 L 732.973 101.202 L 732.973 101.892 C 732.973 102.271 732.513 104.73 731.952 107.356 C 731.389 109.982 730.45 114.472 729.864 117.333 C 729.277 120.194 728.423 124.33 727.963 126.523 C 727.504 128.717 726.634 132.93 726.03 135.886 C 725.427 138.843 724.498 143.369 723.967 145.943 C 723.436 148.518 722.575 152.732 722.055 155.306 C 721.535 157.882 720.669 162.095 720.132 164.67 C 719.593 167.245 718.761 171.303 718.279 173.687 C 717.797 176.071 716.926 180.362 716.343 183.223 C 715.759 186.084 714.822 190.61 714.26 193.28 C 713.697 195.95 712.842 200.086 712.358 202.47 C 711.872 204.854 711.001 209.145 710.42 212.006 C 709.838 214.867 708.903 219.393 708.341 222.064 C 707.779 224.734 706.942 228.791 706.48 231.08 C 706.019 233.368 705.15 237.66 704.55 240.616 C 703.949 243.572 703.076 247.864 702.606 250.154 C 702.136 252.442 701.299 256.5 700.745 259.169 C 700.189 261.84 699.24 266.444 698.637 269.4 C 698.031 272.357 697.166 276.569 696.714 278.764 C 696.26 280.956 695.413 285.092 694.829 287.952 C 694.246 290.815 693.318 295.339 692.766 298.01 C 692.215 300.68 691.351 304.894 690.845 307.374 C 690.341 309.853 689.462 314.145 688.895 316.91 C 688.326 319.675 687.398 324.201 686.832 326.966 C 686.266 329.732 685.418 333.868 684.947 336.157 C 684.476 338.445 683.616 342.659 683.035 345.52 C 682.454 348.381 681.508 352.89 680.934 355.539 L 679.89 360.356 L 678.646 363.688 C 677.962 365.521 676.933 367.957 676.359 369.102 C 675.787 370.245 674.62 372.265 673.767 373.589 C 672.913 374.912 671.723 376.607 671.123 377.356 C 670.523 378.105 668.716 380.039 667.106 381.655 L 664.183 384.59 L 661.368 386.59 C 659.82 387.69 658.152 388.809 657.663 389.076 C 657.173 389.343 655.308 390.296 653.518 391.191 C 651.729 392.088 649.2 393.228 647.901 393.725 C 646.601 394.224 644.026 395.071 642.179 395.608 C 640.332 396.147 638.352 396.677 637.78 396.786 C 637.207 396.896 635.222 397.306 633.366 397.7 C 631.511 398.093 627.766 398.68 625.044 399.004 L 620.094 399.593 L 333.561 399.695 Z M 231.617 325.58 L 239.073 325.58 L 239.283 325.031 C 239.4 324.729 239.494 324.02 239.494 323.455 C 239.494 322.889 239.74 320.835 240.041 318.889 C 240.341 316.941 241.045 312.462 241.607 308.934 C 242.168 305.405 243.008 300.099 243.474 297.143 C 243.94 294.186 244.509 290.402 244.739 288.733 C 244.968 287.064 245.247 285.699 245.36 285.699 C 245.472 285.699 245.954 286.436 246.431 287.338 L 247.297 288.976 L 249.219 290.914 L 251.142 292.85 L 253.508 293.798 L 255.875 294.745 L 258.695 295.111 L 261.516 295.476 L 265.095 295.257 L 268.675 295.037 L 272.551 294.034 L 276.428 293.03 L 278.508 292.082 C 279.653 291.559 281.681 290.42 283.016 289.55 L 285.444 287.969 L 287.707 285.706 C 288.952 284.464 290.708 282.468 291.608 281.273 C 292.51 280.079 293.247 279.015 293.247 278.909 C 293.247 278.802 293.69 278.063 294.231 277.265 C 294.772 276.468 295.878 274.254 296.69 272.347 C 297.503 270.44 298.771 267.007 299.511 264.718 L 300.855 260.556 L 301.55 256.952 C 301.932 254.97 302.424 251.693 302.643 249.669 L 303.04 245.992 L 302.81 242.871 L 302.581 239.75 L 301.857 236.628 L 301.134 233.507 L 299.962 231.171 L 298.791 228.834 L 296.528 226.435 L 294.266 224.036 L 291.589 222.653 L 288.912 221.27 L 285.964 220.563 L 283.016 219.858 L 280.068 219.642 L 277.121 219.426 L 273.838 219.803 L 270.553 220.18 L 267.874 220.865 L 265.194 221.548 L 262.865 222.627 C 261.585 223.218 259.721 224.225 258.725 224.863 C 257.728 225.501 256.699 226.234 256.439 226.493 C 256.18 226.752 255.557 227.233 255.057 227.559 L 254.146 228.156 L 254.782 225.109 C 255.133 223.434 255.425 221.869 255.433 221.629 L 255.447 221.196 L 249.088 221.196 L 242.731 221.196 L 241.617 228.219 C 241.003 232.082 240.035 238.05 239.465 241.484 C 238.895 244.917 238.034 250.066 237.554 252.927 C 237.074 255.788 236.217 260.86 235.649 264.198 C 235.082 267.535 234.145 272.842 233.566 275.989 C 232.987 279.136 232.14 283.74 231.682 286.22 C 231.225 288.699 230.363 293.38 229.769 296.622 C 229.175 299.866 228.219 305.015 227.645 308.067 C 227.071 311.118 226.138 315.956 225.571 318.817 C 225.003 321.678 224.455 324.371 224.35 324.799 L 224.161 325.58 L 231.617 325.58 Z M 263.717 285.485 L 260.822 285.659 L 258.93 285.324 L 257.037 284.99 L 255.115 284.113 L 253.192 283.235 L 251.85 281.952 L 250.507 280.671 L 249.732 278.937 C 249.305 277.983 248.758 276.363 248.515 275.336 L 248.073 273.47 L 248.25 270.481 L 248.428 267.493 L 249.321 262.811 C 249.812 260.236 250.694 255.398 251.281 252.061 C 251.868 248.723 252.758 243.831 253.257 241.192 L 254.164 236.392 L 256.152 234.738 C 257.246 233.829 258.978 232.609 260.002 232.029 L 261.862 230.973 L 264.289 230.222 L 266.717 229.47 L 269.838 229.287 L 272.959 229.104 L 275.501 229.646 L 278.042 230.187 L 279.836 231.013 L 281.629 231.839 L 283.133 233.351 L 284.638 234.863 L 285.448 236.464 C 285.895 237.345 286.522 239.068 286.841 240.294 L 287.422 242.523 L 287.244 249.113 L 287.066 255.702 L 286.176 259.597 C 285.686 261.739 284.754 265.016 284.104 266.879 L 282.923 270.267 L 281.475 273.009 C 280.679 274.518 279.452 276.556 278.748 277.539 C 278.044 278.521 276.921 279.796 276.253 280.368 C 275.587 280.942 274.468 281.839 273.769 282.36 L 272.498 283.309 L 269.555 284.31 L 266.612 285.311 L 263.717 285.485 Z M 335.728 295.018 L 339.543 295.062 L 343.357 294.714 C 345.456 294.523 348.889 294.124 350.986 293.828 C 353.085 293.533 356.709 292.871 359.041 292.359 L 363.28 291.426 L 363.492 289.862 C 363.608 289.003 364.084 286.445 364.55 284.177 L 365.397 280.052 L 365.209 279.866 L 365.023 279.68 L 363.727 280.305 C 363.014 280.649 360.793 281.471 358.793 282.13 L 355.155 283.328 L 351.337 284.069 L 347.519 284.808 L 341.45 284.821 L 335.381 284.831 L 333.3 284.167 C 332.156 283.802 330.473 283.134 329.56 282.681 L 327.901 281.86 L 326.531 280.622 L 325.161 279.384 L 324.092 277.517 L 323.023 275.648 L 322.353 273.306 L 321.683 270.963 L 321.679 266.627 L 321.674 262.29 L 322.268 258.423 L 322.864 254.554 L 328.082 254.31 L 333.3 254.066 L 352.591 254.191 L 371.881 254.314 L 372.463 251.844 C 372.784 250.485 373.274 247.676 373.552 245.602 L 374.058 241.83 L 374.069 238.658 L 374.08 235.485 L 373.531 233.116 L 372.981 230.748 L 372.072 229.18 C 371.574 228.318 370.693 227.068 370.117 226.402 C 369.541 225.737 368.512 224.799 367.831 224.318 C 367.149 223.837 365.812 223.028 364.858 222.521 L 363.124 221.599 L 360.095 220.869 L 357.065 220.14 L 353.333 219.783 L 349.599 219.426 L 346.132 219.652 L 342.664 219.877 L 338.502 220.676 L 334.341 221.476 L 331.739 222.515 C 330.309 223.086 328.124 224.13 326.885 224.833 C 325.645 225.536 323.929 226.68 323.071 227.375 C 322.211 228.071 320.725 229.423 319.768 230.38 C 318.81 231.338 317.392 233.056 316.619 234.201 C 315.845 235.346 314.659 237.374 313.982 238.709 C 313.306 240.045 312.425 241.917 312.024 242.871 C 311.624 243.824 310.895 245.775 310.406 247.205 C 309.916 248.636 309.147 251.367 308.697 253.275 C 308.246 255.182 307.629 258.321 307.324 260.251 L 306.771 263.761 L 306.777 268.921 L 306.782 274.081 L 307.309 276.336 C 307.598 277.575 308.153 279.449 308.54 280.497 C 308.927 281.546 309.645 283.107 310.133 283.965 C 310.621 284.823 311.665 286.205 312.451 287.036 C 313.237 287.867 314.661 289.128 315.615 289.837 C 316.568 290.547 318.266 291.546 319.387 292.056 L 321.426 292.984 L 324.269 293.672 C 325.832 294.049 328.192 294.497 329.513 294.667 C 330.833 294.836 333.63 294.995 335.728 295.018 Z M 342.259 246.165 C 332.659 246.165 324.804 246.097 324.804 246.012 C 324.804 245.929 325.214 244.719 325.715 243.324 C 326.215 241.93 327.095 239.856 327.668 238.714 L 328.713 236.637 L 331.006 234.356 L 333.3 232.073 L 335.555 230.996 C 336.794 230.403 338.433 229.757 339.195 229.561 C 339.959 229.365 342.143 229.105 344.05 228.984 L 347.519 228.761 L 350.183 229.104 L 352.845 229.446 L 354.78 230.332 L 356.716 231.218 L 357.778 232.363 C 358.361 232.992 359.057 233.919 359.324 234.422 L 359.808 235.338 L 360.128 237.37 L 360.449 239.402 L 360.082 242.783 L 359.716 246.165 L 342.259 246.165 Z M 446.009 295.02 L 449.826 295.062 L 454.158 294.549 C 456.541 294.266 459.713 293.799 461.208 293.508 C 462.701 293.219 465.12 292.644 466.583 292.232 C 468.045 291.818 469.368 291.371 469.523 291.239 C 469.678 291.106 470.09 289.532 470.441 287.741 C 470.791 285.951 471.233 283.549 471.422 282.405 C 471.61 281.26 471.708 280.263 471.639 280.188 C 471.569 280.113 471.314 280.21 471.071 280.402 C 470.827 280.596 469.126 281.312 467.289 281.994 L 463.95 283.234 L 459.195 284.155 L 454.439 285.076 L 450.397 284.939 L 446.354 284.801 L 444.057 284.004 L 441.76 283.207 L 439.986 281.656 L 438.212 280.103 L 437.034 277.959 L 435.858 275.816 L 435.296 272.947 L 434.736 270.079 L 434.74 266.359 L 434.743 262.638 L 435.424 258.13 L 436.106 253.621 L 436.826 251.193 C 437.223 249.858 437.672 248.298 437.823 247.726 C 437.976 247.153 438.611 245.515 439.237 244.084 C 439.862 242.654 440.978 240.443 441.716 239.171 L 443.058 236.86 L 444.707 235.151 L 446.356 233.442 L 448.101 232.36 L 449.848 231.277 L 452.09 230.586 C 453.323 230.206 455.503 229.713 456.933 229.491 L 459.534 229.085 L 463.348 229.277 L 467.163 229.468 L 471.671 230.371 L 476.18 231.272 L 478.013 231.956 C 479.021 232.332 479.89 232.641 479.945 232.641 C 479.998 232.641 480.24 231.353 480.482 229.779 C 480.724 228.206 481.154 225.617 481.438 224.027 C 481.723 222.435 481.887 221.065 481.802 220.982 C 481.719 220.898 480.364 220.683 478.792 220.504 C 477.219 220.325 472.945 220.007 469.294 219.796 L 462.655 219.415 L 457.973 219.774 L 453.292 220.134 L 449.823 220.862 L 446.356 221.591 L 444.122 222.484 C 442.894 222.975 441.095 223.862 440.124 224.454 C 439.153 225.047 437.919 225.843 437.379 226.224 C 436.839 226.606 435.203 228.094 433.741 229.532 L 431.086 232.146 L 429.602 234.318 C 428.787 235.513 427.377 238.003 426.468 239.854 L 424.816 243.218 L 423.549 246.858 C 422.853 248.861 421.88 252.138 421.389 254.141 L 420.494 257.783 L 420.169 261.077 L 419.845 264.372 L 419.848 268.707 L 419.852 273.041 L 420.179 275.563 L 420.506 278.085 L 421.545 280.679 L 422.583 283.273 L 423.784 285.148 L 424.983 287.023 L 426.89 288.901 L 428.799 290.778 L 430.816 291.846 L 432.835 292.912 L 435.486 293.649 C 436.943 294.053 439.05 294.518 440.167 294.681 C 441.284 294.844 443.915 294.997 446.015 295.02 Z M 503.053 294.892 L 507.734 294.757 L 510.682 294.003 L 513.63 293.248 L 515.538 292.347 C 516.587 291.852 518.303 290.873 519.352 290.172 C 520.401 289.471 522.026 288.139 522.961 287.212 C 523.896 286.284 525.283 284.702 526.043 283.696 C 526.803 282.689 527.471 281.911 527.527 281.968 C 527.584 282.024 527.408 283.627 527.138 285.531 C 526.869 287.436 526.645 289.969 526.641 291.161 L 526.635 293.328 L 532.999 293.328 L 539.364 293.328 L 539.559 288.387 L 539.753 283.445 L 540.661 277.029 C 541.161 273.5 541.968 268.272 542.455 265.412 C 542.941 262.551 543.786 257.714 544.334 254.661 C 544.881 251.609 545.748 246.85 546.259 244.084 L 547.191 239.056 L 547.223 234.713 L 547.253 230.369 L 546.272 228.362 L 545.289 226.354 L 543.958 225.076 L 542.625 223.797 L 540.44 222.69 L 538.253 221.581 L 534.994 220.856 L 531.735 220.131 L 527.249 219.79 L 522.762 219.449 L 516.983 219.807 C 513.803 220.003 509.331 220.391 507.042 220.67 L 502.88 221.174 L 500.044 221.185 L 497.208 221.196 L 496.795 223.191 C 496.568 224.287 495.937 226.892 495.394 228.981 C 494.849 231.069 494.455 232.827 494.517 232.889 C 494.578 232.951 496.095 232.606 497.887 232.124 C 499.679 231.641 503.487 230.849 506.349 230.361 L 511.55 229.475 L 516.231 229.283 L 520.913 229.089 L 523.929 229.618 L 526.945 230.147 L 528.957 231.14 L 530.97 232.134 L 532.097 233.814 L 533.225 235.493 L 533.209 238.141 L 533.192 240.79 L 532.595 243.696 L 531.997 246.603 L 519.519 246.648 L 507.041 246.692 L 502.958 247.812 C 500.712 248.428 498.225 249.246 497.431 249.629 C 496.637 250.013 495.843 250.327 495.666 250.327 C 495.49 250.327 494.154 251.067 492.697 251.974 L 490.049 253.619 L 487.964 255.701 C 486.816 256.846 485.351 258.563 484.707 259.517 C 484.063 260.47 483.016 262.462 482.382 263.944 L 481.228 266.637 L 480.698 269.665 L 480.168 272.694 L 480.168 275.871 L 480.168 279.049 L 480.673 281.695 L 481.18 284.34 L 482.118 286.065 C 482.635 287.013 483.584 288.404 484.225 289.154 L 485.393 290.518 L 487.466 291.778 L 489.54 293.038 L 491.915 293.709 C 493.221 294.078 495.208 294.526 496.332 294.704 L 498.374 295.026 L 503.056 294.892 Z M 507.388 285.194 L 504.613 285.34 L 502.776 284.871 C 501.766 284.614 500.232 284.04 499.368 283.596 L 497.799 282.789 L 496.941 281.77 C 496.47 281.209 495.75 280.109 495.341 279.324 L 494.598 277.896 L 494.453 274.563 L 494.306 271.229 L 494.894 269.207 C 495.217 268.095 495.976 266.164 496.58 264.918 L 497.678 262.651 L 499.781 260.564 L 501.883 258.476 L 504.115 257.401 L 506.347 256.327 L 509.121 255.667 L 511.896 255.008 L 520.566 255.008 L 529.236 255.008 L 529.784 255.235 L 530.332 255.461 L 529.871 258.183 C 529.617 259.679 529.012 262.386 528.525 264.198 C 528.039 266.011 527.181 268.674 526.618 270.117 C 526.055 271.561 525.594 272.837 525.594 272.953 C 525.594 273.07 525.024 274.121 524.327 275.29 L 523.061 277.417 L 520.982 279.478 C 519.839 280.61 518.776 281.537 518.622 281.537 C 518.469 281.537 517.768 281.928 517.065 282.405 L 515.787 283.271 L 512.974 284.161 L 510.162 285.05 L 507.388 285.194 Z M 620.267 295.015 L 623.561 295.057 L 626.683 294.55 C 628.4 294.272 630.584 293.823 631.538 293.553 C 632.491 293.283 634.209 292.583 635.352 291.997 L 637.434 290.931 L 639.224 289.355 L 641.013 287.779 L 642.899 285.266 C 643.936 283.883 644.874 282.518 644.985 282.231 L 645.186 281.71 L 645.011 283.445 C 644.915 284.398 644.7 285.959 644.531 286.913 C 644.363 287.867 644.124 289.7 643.998 290.988 L 643.768 293.328 L 650.572 293.328 L 657.374 293.328 L 657.374 290.988 L 657.374 288.647 L 658.41 279.803 C 658.98 274.939 659.823 268.464 660.283 265.412 C 660.743 262.359 661.454 257.991 661.863 255.702 C 662.27 253.413 662.993 249.277 663.467 246.512 C 663.943 243.747 664.801 238.908 665.375 235.762 C 665.948 232.614 666.867 227.621 667.416 224.665 C 667.964 221.708 668.818 217.104 669.311 214.434 C 669.804 211.764 670.688 207.082 671.275 204.031 C 671.864 200.979 672.72 196.687 673.181 194.493 C 673.643 192.301 674.02 190.388 674.019 190.246 L 674.019 189.985 L 666.597 189.985 L 659.175 189.985 L 658.956 192.153 C 658.836 193.345 658.267 197.285 657.694 200.91 C 657.12 204.533 656.184 210.307 655.614 213.74 C 655.044 217.173 654.496 220.503 654.395 221.139 L 654.209 222.295 L 653.624 222.046 C 653.302 221.909 651.555 221.424 649.744 220.969 L 646.45 220.142 L 641.942 219.791 L 637.433 219.44 L 633.618 219.795 L 629.804 220.151 L 626.336 221.028 L 622.868 221.904 L 619.574 223.511 L 616.278 225.118 L 613.851 226.914 L 611.424 228.711 L 609.327 230.96 C 608.174 232.196 606.509 234.241 605.625 235.504 L 604.021 237.8 L 602.135 241.722 C 601.099 243.88 599.837 246.737 599.332 248.072 C 598.826 249.408 597.936 252.367 597.351 254.649 L 596.29 258.799 L 595.767 264.187 L 595.244 269.573 L 595.636 273.908 L 596.03 278.243 L 596.493 279.803 C 596.75 280.662 597.287 282.191 597.69 283.201 L 598.422 285.04 L 599.757 286.846 L 601.093 288.654 L 602.617 289.902 L 604.141 291.151 L 606.222 292.185 C 607.367 292.752 609.286 293.487 610.488 293.816 C 611.689 294.145 613.64 294.541 614.823 294.694 C 616.005 294.848 618.454 294.993 620.267 295.015 Z M 626.18 285.178 L 623.561 285.315 L 621.795 284.997 C 620.823 284.823 619.268 284.353 618.338 283.955 L 616.649 283.232 L 615.227 282.066 L 613.806 280.902 L 612.75 278.879 L 611.694 276.856 L 611.211 274.602 L 610.731 272.347 L 610.772 267.839 L 610.812 263.331 L 611.371 259.342 L 611.93 255.355 L 612.799 252.581 C 613.277 251.055 613.671 249.615 613.673 249.381 C 613.677 249.148 614.147 247.9 614.722 246.608 C 615.296 245.315 616.254 243.322 616.852 242.177 C 617.45 241.032 618.568 239.249 619.335 238.213 C 620.104 237.177 621.473 235.616 622.377 234.744 C 623.281 233.874 624.718 232.73 625.573 232.205 L 627.125 231.25 L 629.852 230.306 L 632.578 229.362 L 638.3 229.359 L 644.022 229.359 L 647.316 230.274 C 649.129 230.776 651.053 231.359 651.592 231.569 L 652.573 231.95 L 652.382 232.902 C 652.277 233.426 651.864 235.727 651.466 238.015 C 651.068 240.304 650.282 244.674 649.721 247.726 C 649.16 250.778 648.298 255.382 647.805 257.956 C 647.313 260.531 646.6 263.808 646.22 265.238 C 645.841 266.669 645.305 268.65 645.03 269.641 C 644.755 270.632 644.101 272.35 643.576 273.456 C 643.051 274.563 642.132 276.171 641.534 277.029 C 640.936 277.887 639.926 279.077 639.288 279.671 C 638.649 280.267 637.269 281.323 636.22 282.02 L 634.313 283.288 L 631.556 284.163 L 628.799 285.038 L 626.18 285.178 Z M 115.795 293.328 L 124.22 293.328 L 124.825 289.601 C 125.157 287.55 125.807 283.609 126.268 280.844 C 126.729 278.079 127.588 272.928 128.175 269.4 C 128.763 265.871 129.645 260.643 130.134 257.783 C 130.623 254.922 131.401 250.484 131.861 247.921 C 132.322 245.356 132.787 243.172 132.893 243.065 L 133.088 242.871 L 155.745 242.871 L 178.401 242.871 L 178.653 243.122 L 178.905 243.374 L 178.511 245.376 C 178.296 246.478 177.657 249.875 177.092 252.927 C 176.527 255.979 175.577 261.129 174.98 264.372 C 174.385 267.614 173.523 272.218 173.066 274.602 C 172.608 276.986 171.682 281.979 171.008 285.699 C 170.335 289.418 169.785 292.656 169.787 292.895 L 169.791 293.328 L 178.251 293.328 L 186.712 293.328 L 187.086 291.161 C 187.293 289.969 187.623 287.823 187.823 286.393 C 188.021 284.962 188.502 281.918 188.889 279.63 C 189.276 277.342 190.049 272.815 190.608 269.573 C 191.166 266.331 192.102 260.791 192.686 257.262 C 193.27 253.733 194.136 248.584 194.612 245.819 C 195.086 243.052 195.933 238.371 196.492 235.415 C 197.051 232.458 197.983 227.465 198.563 224.317 C 199.143 221.171 200.01 216.411 200.492 213.74 C 200.974 211.07 201.852 206.232 202.444 202.99 C 203.036 199.748 203.783 195.964 204.104 194.58 L 204.688 192.066 L 196.122 192.066 L 187.555 192.066 L 187.322 193.714 C 187.195 194.619 186.781 197.156 186.403 199.349 C 186.024 201.543 185.338 205.443 184.876 208.018 C 184.414 210.594 183.57 215.509 183 218.943 C 182.43 222.375 181.704 226.92 181.386 229.042 L 180.808 232.899 L 168.233 233.154 L 155.657 233.408 L 145.125 233.158 C 139.332 233.021 134.56 232.88 134.52 232.848 C 134.481 232.814 134.678 231.467 134.958 229.853 C 135.239 228.239 135.769 225.435 136.137 223.624 C 136.505 221.812 137.203 218.223 137.687 215.647 C 138.172 213.073 138.72 209.874 138.907 208.539 C 139.093 207.204 139.484 204.98 139.775 203.596 C 140.066 202.214 140.618 199.301 141.002 197.124 C 141.385 194.947 141.794 192.918 141.911 192.616 L 142.121 192.066 L 133.624 192.066 L 125.126 192.066 L 124.583 195.101 C 124.283 196.77 123.884 199.149 123.696 200.389 C 123.507 201.629 122.874 205.608 122.289 209.232 C 121.704 212.856 120.84 218.24 120.369 221.196 C 119.898 224.153 119.042 229.537 118.466 233.16 C 117.888 236.785 116.937 242.402 116.35 245.644 C 115.764 248.888 114.915 253.491 114.463 255.875 C 114.012 258.259 113.153 262.785 112.553 265.932 C 111.954 269.08 111.077 273.527 110.608 275.816 C 110.138 278.104 109.619 280.757 109.455 281.71 C 109.289 282.664 108.753 285.415 108.261 287.823 C 107.77 290.231 107.368 292.454 107.368 292.765 L 107.368 293.328 L 115.795 293.328 Z M 209.073 293.328 L 216.532 293.328 L 216.742 292.78 C 216.859 292.477 216.953 291.686 216.953 291.022 C 216.953 290.356 217.423 286.896 217.995 283.333 C 218.569 279.77 219.516 273.969 220.101 270.44 C 220.685 266.912 221.548 261.762 222.019 258.996 C 222.49 256.231 223.326 251.628 223.878 248.765 C 224.43 245.905 225.278 241.457 225.762 238.883 C 226.245 236.308 227.197 231.409 227.876 227.996 C 228.555 224.583 229.195 221.655 229.298 221.488 L 229.487 221.183 L 221.944 221.276 L 214.401 221.369 L 213.771 225.878 C 213.427 228.358 212.671 233.274 212.093 236.801 C 211.516 240.33 210.642 245.715 210.151 248.765 C 209.66 251.818 208.806 256.733 208.251 259.69 C 207.696 262.646 206.846 267.171 206.361 269.746 C 205.877 272.322 205.008 276.847 204.43 279.803 C 203.852 282.76 203.077 286.661 202.707 288.473 C 202.336 290.286 201.939 292.119 201.823 292.548 L 201.614 293.328 L 209.073 293.328 Z M 383.533 293.328 L 390.937 293.328 L 391.159 290.195 C 391.282 288.473 391.7 285 392.09 282.479 C 392.48 279.958 393.279 274.931 393.864 271.308 C 394.45 267.683 395.538 261.651 396.282 257.902 C 397.028 254.154 397.869 250.428 398.153 249.623 C 398.438 248.817 398.67 247.945 398.67 247.684 C 398.67 247.422 399.227 245.998 399.907 244.519 C 400.587 243.04 401.855 240.776 402.725 239.487 L 404.306 237.143 L 406.421 235.183 L 408.537 233.225 L 411.146 231.979 L 413.755 230.732 L 417.744 230.754 L 421.731 230.775 L 423.692 231.36 C 424.77 231.682 425.745 231.946 425.859 231.946 C 425.973 231.946 426.066 231.578 426.066 231.127 C 426.066 230.677 426.456 228.393 426.933 226.051 C 427.409 223.71 427.8 221.696 427.8 221.575 C 427.8 221.454 426.669 221.011 425.286 220.591 C 423.903 220.171 421.991 219.731 421.038 219.612 L 419.304 219.398 L 417.05 219.797 C 415.81 220.016 413.967 220.5 412.954 220.873 C 411.94 221.245 410.267 222.089 409.235 222.749 C 408.204 223.41 406.599 224.696 405.67 225.607 C 404.739 226.519 403.175 228.358 402.194 229.693 C 401.212 231.028 400.186 232.433 399.913 232.814 L 399.417 233.507 L 399.718 232.121 C 399.884 231.357 400.346 228.86 400.744 226.572 C 401.142 224.283 401.553 222.136 401.653 221.804 L 401.838 221.196 L 395.226 221.196 L 388.613 221.196 L 388.613 222.032 C 388.613 222.492 388.222 225.261 387.746 228.187 C 387.269 231.114 386.482 236.004 385.998 239.056 C 385.514 242.108 384.654 247.414 384.088 250.847 C 383.522 254.28 382.662 259.196 382.177 261.77 C 381.692 264.345 380.832 268.871 380.264 271.828 C 379.698 274.783 378.755 279.622 378.172 282.578 C 377.588 285.535 376.889 289.025 376.62 290.337 C 376.349 291.647 376.129 292.856 376.129 293.023 L 376.129 293.328 L 383.533 293.328 Z M 559.292 293.328 L 566.862 293.328 L 566.862 291.012 L 566.862 288.694 L 567.734 282.948 C 568.215 279.789 569.006 274.783 569.494 271.828 C 569.982 268.871 570.589 265.126 570.844 263.504 C 571.1 261.883 571.776 258.372 572.347 255.702 C 572.92 253.031 573.633 250.145 573.934 249.286 C 574.235 248.428 574.483 247.527 574.486 247.285 C 574.49 247.043 575.135 245.485 575.92 243.823 L 577.349 240.8 L 579.235 238.295 L 581.12 235.791 L 583.183 234.24 C 584.317 233.386 586.142 232.255 587.238 231.724 L 589.23 230.759 L 593.564 230.789 L 597.899 230.82 L 599.606 231.367 L 601.312 231.915 L 601.6 231.737 L 601.887 231.559 L 601.903 230.453 C 601.91 229.844 602.281 227.58 602.727 225.42 L 603.538 221.494 L 602.626 221.137 C 602.125 220.941 600.935 220.535 599.981 220.235 L 598.247 219.688 L 595.126 219.697 L 592.005 219.704 L 589.461 220.6 L 586.917 221.494 L 585.007 222.646 L 583.098 223.798 L 580.614 226.399 L 578.131 228.999 L 576.797 231.017 C 576.064 232.127 575.418 232.985 575.362 232.924 C 575.306 232.864 575.705 230.551 576.248 227.786 C 576.791 225.02 577.243 222.406 577.251 221.977 L 577.266 221.196 L 570.85 221.196 L 564.435 221.196 L 564.435 221.418 C 564.435 221.539 564.115 223.763 563.724 226.359 C 563.333 228.956 562.547 233.967 561.98 237.496 C 561.411 241.024 560.479 246.72 559.907 250.154 C 559.336 253.587 558.474 258.503 557.992 261.078 C 557.511 263.652 556.656 268.178 556.092 271.134 C 555.528 274.091 554.602 278.851 554.034 281.712 C 553.466 284.572 552.712 288.357 552.361 290.121 L 551.721 293.328 L 559.292 293.328 Z M 223.741 208.705 L 225.845 208.712 L 227.519 208.142 L 229.194 207.572 L 230.675 206.069 L 232.157 204.567 L 232.936 202.564 L 233.717 200.562 L 233.744 197.614 L 233.772 194.668 L 233.079 193.516 L 232.385 192.365 L 231.178 191.618 L 229.97 190.87 L 227.363 190.87 L 224.756 190.87 L 222.981 191.665 L 221.206 192.459 L 220.176 193.563 L 219.146 194.668 L 218.336 196.575 L 217.527 198.482 L 217.374 201.453 L 217.222 204.424 L 217.974 205.901 L 218.728 207.377 L 220.182 208.037 L 221.635 208.696 L 223.741 208.705 Z" style="fill: rgb(57, 57, 57);"/>
</svg>