<svg width="750" height="471" viewBox="0 0 750 471" version="1.1" xmlns="http://www.w3.org/2000/svg" xmlns:xlink="http://www.w3.org/1999/xlink">
    <!-- Generator: Sketch 48.2 (47327) - http://www.bohemiancoding.com/sketch -->
    <desc>Created with Sketch.</desc>
    <defs></defs>
    <g id="Page-1" stroke="none" stroke-width="1" fill="none" fill-rule="evenodd">
        <g id="hipercard" fill="#393939" fill-rule="nonzero">
            <path d="M52.8846154,28.2035928 C39.6085397,28.2035928 28.8461538,38.7262417 28.8461538,51.7065868 L28.8461538,419.293413 C28.8461538,432.273758 39.6085397,442.796407 52.8846154,442.796407 L697.115385,442.796407 C710.39146,442.796407 721.153846,432.273758 721.153846,419.293413 L721.153846,51.7065868 C721.153846,38.7262417 710.39146,28.2035928 697.115385,28.2035928 L52.8846154,28.2035928 Z M52.8846154,0 L697.115385,0 C726.322751,-5.0099645e-15 750,23.1498275 750,51.7065868 L750,419.293413 C750,447.850173 726.322751,471 697.115385,471 L52.8846154,471 C23.6772488,471 3.41607085e-15,447.850173 0,419.293413 L0,51.7065868 C-3.41607085e-15,23.1498275 23.6772488,5.0099645e-15 52.8846154,0 Z" id="Rectangle-1"></path>
            <path d="M321.005415,378.441512 L47,378.540009 L47,377.880179 C47,377.51775 47.4370179,375.166269 47.9706195,372.654133 C48.5051775,370.142954 49.3352245,366.147636 49.8171873,363.777029 C50.2972376,361.405466 51.1196344,357.376678 51.6427171,354.822466 C52.166756,352.270167 53.0379229,348.016654 53.5782185,345.371596 C54.1175578,342.727495 54.9629052,338.548571 55.4572996,336.087119 C55.951694,333.623753 56.7750471,329.594009 57.2895233,327.132556 C57.8030432,324.670147 58.6799477,320.41759 59.2374563,317.681686 C59.7940085,314.945782 60.6403123,310.766859 61.11845,308.395296 C61.5965877,306.023733 62.3558703,302.367892 62.806276,300.271736 C63.2557255,298.173668 63.830447,295.338311 64.0809911,293.969881 C64.3324916,292.602407 65.1462819,288.572663 65.8893079,285.016275 C66.6323339,281.459886 67.4509056,277.430142 67.7110126,276.062668 C67.9701632,274.694238 68.7935163,270.664494 69.5413237,267.108105 C70.2881748,263.552673 71.108659,259.522929 71.3649408,258.154499 C71.6212227,256.787025 72.4464883,252.75728 73.1981208,249.200892 C73.9516658,245.643548 74.7644999,241.689349 75.0035687,240.412721 C75.2445501,239.136094 75.9024676,235.8532 76.4666701,233.117296 C77.0299163,230.381392 78.0971196,225.232806 78.8372768,221.676417 C79.5783902,218.119073 80.8444989,211.926234 81.650639,207.912746 C82.4586917,203.900214 83.4235736,199.125531 83.7955647,197.301914 C84.1665996,195.478297 84.8388612,192.194447 85.2892669,190.005533 C85.7396726,187.816618 86.5563318,183.862419 87.1052339,181.218318 C87.654136,178.572304 88.5463409,174.245158 89.0885491,171.6001 C89.6317135,168.955999 90.4674982,164.851665 90.9465922,162.481058 C91.4256861,160.109495 92.2433016,156.155296 92.7635154,153.692887 C93.2837292,151.230478 94.178803,146.902375 94.7525682,144.075625 C95.3263335,141.247919 96.2873903,136.920773 96.8879312,134.458364 C97.4884722,131.995954 98.3376447,129.011419 98.7756188,127.826594 C99.2126367,126.639856 100.420413,124.0713 101.458928,122.114761 L103.347572,118.560285 L105.064086,116.311125 C106.006973,115.075618 107.692887,113.121947 108.80886,111.970591 C109.924834,110.819236 111.806784,109.086465 112.993521,108.120627 C114.178347,107.153832 115.894861,105.849473 116.806191,105.222156 C117.718478,104.594839 119.509582,103.496079 120.78621,102.780785 C122.062837,102.065491 123.854897,101.129297 124.766228,100.699929 C125.678515,100.270562 127.544208,99.4854597 128.911682,98.9566395 C130.279156,98.4287754 132.890744,97.5423081 134.714361,96.9886247 C136.537978,96.433985 139.9624,95.5982003 142.323444,95.1324941 C144.684488,94.6658317 148.413962,94.0423402 150.614352,93.7468511 L154.612539,93.2094243 L428.78339,93.1061466 L702.953284,93 L702.953284,93.65983 C702.953284,94.0222584 702.513397,96.3737396 701.976927,98.8849188 C701.438543,101.396098 700.540601,105.689775 699.980223,108.425678 C699.41889,111.161582 698.602231,115.116737 698.162344,117.213849 C697.723414,119.311918 696.891454,123.340706 696.313864,126.167456 C695.73723,128.995162 694.84885,133.323265 694.341067,135.784718 C693.833285,138.247127 693.009932,142.276871 692.512669,144.738324 C692.015406,147.20169 691.187271,151.230478 690.673751,153.692887 C690.158319,156.155296 689.362698,160.035862 688.901773,162.315622 C688.440848,164.595383 687.607932,168.69876 687.050424,171.434664 C686.491959,174.170568 685.595929,178.498671 685.058502,181.051926 C684.520119,183.605181 683.702504,187.560336 683.239666,189.840097 C682.774917,192.119857 681.942001,196.223235 681.386405,198.959139 C680.829852,201.695043 679.935735,206.023145 679.398308,208.577357 C678.860881,211.130612 678.060479,215.010222 677.61868,217.199136 C677.177837,219.387094 676.346833,223.491428 675.773068,226.318178 C675.198347,229.144928 674.363518,233.249262 673.914069,235.439133 C673.464619,237.627091 672.664217,241.507657 672.13444,244.059956 C671.602751,246.614167 670.695246,251.016859 670.118612,253.843609 C669.539109,256.671316 668.711931,260.699148 668.279694,262.798172 C667.845545,264.894328 667.03558,268.849483 666.477115,271.58443 C665.919606,274.322247 665.032183,278.648437 664.504319,281.202648 C663.977411,283.755904 663.151189,287.785648 662.667314,290.157211 C662.185351,292.527818 661.344785,296.632152 660.802577,299.276253 C660.258456,301.920355 659.371032,306.248457 658.829781,308.892559 C658.288529,311.537617 657.477607,315.492772 657.027201,317.681686 C656.576796,319.869644 655.754399,323.899389 655.198803,326.635293 C654.643207,329.371196 653.73857,333.683042 653.189668,336.216216 L652.191317,340.822594 L651.00171,344.008904 C650.347618,345.761757 649.36361,348.091244 648.814708,349.186179 C648.267719,350.279202 647.151745,352.210878 646.336043,353.476987 C645.519383,354.742139 644.381416,356.363026 643.80765,357.079276 C643.233885,357.795526 641.505895,359.644963 639.966292,361.190304 L637.171099,363.996972 L634.479184,365.909523 C632.99887,366.961426 631.403802,368.031498 630.936184,368.286824 C630.467609,368.542149 628.684155,369.45348 626.972422,370.309346 C625.261645,371.167125 622.843225,372.257279 621.601023,372.732548 C620.357865,373.209729 617.895456,374.019695 616.129215,374.533215 C614.362975,375.048647 612.469549,375.555473 611.92256,375.659707 C611.374614,375.764897 609.476407,376.15697 607.70156,376.533743 C605.927669,376.909559 602.346418,377.470893 599.743436,377.780726 L595.009873,378.343972 L321.005415,378.441512 Z M223.518876,307.567161 L230.648865,307.567161 L230.849683,307.042166 C230.961567,306.753371 231.051457,306.075371 231.051457,305.535076 C231.051457,304.993824 231.286701,303.029634 231.57454,301.168722 C231.861422,299.305898 232.53464,295.02274 233.072067,291.649001 C233.608537,288.274305 234.411809,283.200308 234.857433,280.373558 C235.303057,277.545851 235.847178,273.927305 236.067121,272.331282 C236.286108,270.735258 236.552909,269.429942 236.660968,269.429942 C236.768071,269.429942 237.228996,270.134717 237.685139,270.997277 L238.513274,272.563656 L240.351235,274.416918 L242.190153,276.268267 L244.4527,277.174816 L246.716204,278.080409 L249.412901,278.430406 L252.110554,278.779447 L255.533063,278.570022 L258.956529,278.359642 L262.663053,277.400497 L266.370532,276.440397 L268.359585,275.533848 C269.454521,275.033716 271.393847,273.944518 272.670475,273.112559 L274.992311,271.600687 L277.156363,269.436636 C278.346926,268.248942 280.026145,266.340216 280.886793,265.197467 C281.749353,264.055674 282.454128,263.038197 282.454128,262.936832 C282.454128,262.834511 282.877758,262.127823 283.395103,261.364715 C283.912448,260.602564 284.970089,258.48537 285.746585,256.661753 C286.524036,254.838136 287.736594,251.555242 288.444237,249.366328 L289.729472,245.38631 L290.394083,241.939893 C290.75938,240.044555 291.229868,236.910841 291.439292,234.975339 L291.818933,231.459115 L291.59899,228.474579 L291.380003,225.490044 L290.68766,222.504552 L289.996272,219.520016 L288.875518,217.286157 L287.755719,215.051342 L285.591668,212.757237 L283.428573,210.463132 L280.868624,209.140603 L278.308674,207.818074 L275.489575,207.141988 L272.670475,206.467814 L269.851375,206.261258 L267.033231,206.054703 L263.893779,206.415218 L260.752414,206.775734 L258.190553,207.430783 L255.627735,208.083919 L253.400569,209.11574 C252.176537,209.680899 250.394039,210.643868 249.441589,211.253972 C248.488182,211.864076 247.504175,212.565025 247.255544,212.812701 C247.007868,213.060376 246.412109,213.520345 245.933971,213.83209 L245.062804,214.402987 L245.670995,211.489216 C246.006648,209.887454 246.28588,208.390883 246.29353,208.161377 L246.306918,207.74731 L240.225963,207.74731 L234.14692,207.74731 L233.08163,214.463232 C232.494476,218.157324 231.568802,223.864376 231.023725,227.148225 C230.478648,230.431119 229.655295,235.354981 229.196283,238.090885 C228.73727,240.826789 227.917742,245.677017 227.374578,248.869065 C226.83237,252.060156 225.93634,257.135109 225.382656,260.144508 C224.828973,263.153907 224.019008,267.556598 223.581033,269.928161 C223.144016,272.298768 222.319706,276.775093 221.751679,279.875338 C221.183651,282.977496 220.269452,287.901358 219.72055,290.81991 C219.171648,293.737506 218.279443,298.363967 217.737235,301.099871 C217.19407,303.835775 216.670031,306.411024 216.569622,306.82031 L216.388886,307.567161 L223.518876,307.567161 Z M254.215316,269.225299 L251.446899,269.391691 L249.637626,269.071339 L247.827396,268.751943 L245.989435,267.913289 L244.150517,267.073679 L242.867196,265.846778 L241.582918,264.621789 L240.841804,262.963608 C240.433475,262.051321 239.910392,260.502155 239.678017,259.52006 L239.255344,257.73565 L239.424604,254.877343 L239.594821,252.019992 L240.448775,247.542711 C240.918306,245.080302 241.761741,240.453841 242.323075,237.26275 C242.884409,234.070703 243.735494,229.392604 244.212675,226.868993 L245.080017,222.278871 L246.981092,220.697191 C248.027258,219.827937 249.683527,218.661281 250.662753,218.106641 L252.441425,217.096815 L254.762305,216.378652 L257.084142,215.659533 L260.068678,215.484534 L263.053213,215.309536 L265.484065,215.827837 L267.913961,216.345182 L269.629519,217.135066 L271.344121,217.924949 L272.782359,219.370837 L274.221553,220.816726 L274.996137,222.347723 C275.423592,223.190201 276.023176,224.837864 276.328228,226.010258 L276.883824,228.141795 L276.713607,234.44365 L276.54339,240.744549 L275.692305,244.469242 C275.22373,246.517583 274.332481,249.651298 273.710902,251.432839 L272.581541,254.6727 L271.196854,257.294807 C270.435659,258.737827 269.262309,260.686716 268.589091,261.626735 C267.915873,262.565797 266.841976,263.785048 266.203184,264.332038 C265.566305,264.88094 264.496233,265.738719 263.827796,266.236938 L262.61237,267.144444 L259.798052,268.101675 L256.983733,269.058907 L254.215316,269.225299 Z M323.077663,278.341472 L326.725854,278.383549 L330.373088,278.050765 C332.380311,277.868116 335.663204,277.486562 337.668514,277.203505 C339.675736,276.921403 343.141278,276.288349 345.371312,275.798736 L349.424963,274.906531 L349.627694,273.410916 C349.738622,272.589476 350.193809,270.143323 350.639433,267.974491 L351.449398,264.029855 L351.269618,263.851988 L351.091751,263.67412 L349.852418,264.271792 C349.170594,264.600751 347.046706,265.38681 345.134156,266.016995 L341.655226,267.162613 L338.004166,267.871213 L334.353107,268.577901 L328.549471,268.590332 L322.745836,268.599895 L320.755827,267.964928 C319.661848,267.615888 318.052436,266.977096 317.179357,266.543903 L315.592896,265.758801 L314.282799,264.574932 L312.972701,263.391063 L311.950443,261.605697 L310.928185,259.818418 L310.28748,257.578821 L309.646776,255.338268 L309.64295,251.191858 L309.638169,247.044491 L310.206197,243.346574 L310.776137,239.646745 L315.765982,239.413414 L320.755827,239.180082 L339.203336,239.299617 L357.649888,239.417239 L358.20644,237.055238 C358.513405,235.75566 358.98198,233.069483 359.247824,231.086167 L359.731699,227.479097 L359.742218,224.445791 L359.752738,221.411529 L359.227742,219.146113 L358.701791,216.881653 L357.832537,215.382213 C357.356311,214.557903 356.513833,213.362559 355.963018,212.72568 C355.412203,212.089757 354.428196,211.19277 353.776973,210.732802 C353.124793,210.272833 351.846253,209.499207 350.933966,209.014375 L349.275784,208.132689 L346.379226,207.434608 L343.481712,206.737483 L339.912892,206.396093 L336.34216,206.054703 L333.026753,206.270821 L329.71039,206.485983 L325.730371,207.250047 L321.75131,208.015067 L319.263081,209.008637 C317.895607,209.554671 315.806145,210.553022 314.62132,211.225284 C313.435539,211.897545 311.79457,212.991524 310.974086,213.656136 C310.151689,214.321703 308.730664,215.614588 307.815508,216.529743 C306.899396,217.445855 305.543398,219.088736 304.804197,220.183672 C304.06404,221.278607 302.929897,223.217933 302.282499,224.494561 C301.636057,225.772145 300.793578,227.562293 300.410111,228.474579 C300.027601,229.38591 299.330477,231.251603 298.862858,232.619077 C298.394283,233.987507 297.658907,236.599095 297.228583,238.423669 C296.797303,240.247286 296.207281,243.249034 295.915617,245.094646 L295.386797,248.451172 L295.392534,253.385553 L295.397316,258.319934 L295.901273,260.476335 C296.177637,261.661161 296.708369,263.453221 297.078448,264.455397 C297.448527,265.45853 298.135132,266.951276 298.601795,267.77176 C299.068457,268.592245 300.066809,269.913817 300.818441,270.708482 C301.570074,271.503147 302.93181,272.70901 303.844096,273.38701 C304.755427,274.065965 306.379182,275.021284 307.451167,275.508985 L309.401013,276.396408 L312.119704,277.054326 C313.614362,277.414842 315.871172,277.843253 317.134412,278.00582 C318.396695,278.16743 321.071398,278.319478 323.077663,278.341472 Z M329.323098,231.62455 C320.142854,231.62455 312.631311,231.559524 312.631311,231.47824 C312.631311,231.398869 313.023384,230.241776 313.502478,228.907772 C313.980616,227.574724 314.822138,225.591409 315.370084,224.499342 L316.369392,222.513158 L318.562131,220.331894 L320.755827,218.148718 L322.912228,217.118809 C324.097053,216.551738 325.664388,215.933984 326.39307,215.746554 C327.123665,215.559124 329.21217,215.310492 331.035787,215.194783 L334.353107,214.981533 L336.900624,215.309536 L339.446229,215.636582 L341.296622,216.483842 L343.147972,217.331102 L344.163536,218.426037 C344.721045,219.027535 345.386612,219.914002 345.641938,220.395008 L346.104775,221.270957 L346.410783,223.214108 L346.717748,225.15726 L346.366795,228.390427 L346.016798,231.62455 L329.323098,231.62455 Z M428.536671,278.343385 L432.186774,278.383549 L436.329359,277.892979 C438.608163,277.622353 441.641469,277.175773 443.0711,276.897497 C444.49882,276.621133 446.81205,276.071275 448.211081,275.677289 C449.609155,275.281391 450.874308,274.853936 451.02253,274.727708 C451.170753,274.600523 451.564738,273.095346 451.900391,271.382656 C452.235087,269.670923 452.657761,267.37395 452.838497,266.279971 C453.018277,265.185035 453.111992,264.231629 453.046009,264.159908 C452.97907,264.088188 452.73522,264.180946 452.502845,264.364551 C452.269513,264.550069 450.642889,265.234762 448.886211,265.886942 L445.693207,267.072723 L441.146118,267.953453 L436.598072,268.834182 L432.732807,268.703173 L428.866586,268.571207 L426.670021,267.809055 L424.473456,267.046904 L422.777024,265.563721 L421.080591,264.078625 L419.954099,262.02837 L418.829519,259.979072 L418.292092,257.235518 L417.756578,254.49292 L417.760403,250.935576 L417.763272,247.377275 L418.414496,243.066386 L419.066675,238.75454 L419.755194,236.432703 C420.134835,235.156075 420.564203,233.664286 420.7086,233.117296 C420.85491,232.569351 421.462145,231.002971 422.060774,229.634541 C422.658446,228.267068 423.725649,226.152743 424.43138,224.93636 L425.714702,222.726408 L427.2916,221.092133 L428.868498,219.457859 L430.537199,218.423169 L432.207812,217.387522 L434.351781,216.726736 C435.530869,216.363351 437.615549,215.891908 438.983023,215.679614 L441.470295,215.291367 L445.11753,215.474972 L448.76572,215.65762 L453.07661,216.521137 L457.388456,217.382741 L459.141308,218.036833 C460.105234,218.396393 460.936237,218.691882 460.988832,218.691882 C461.039515,218.691882 461.270934,217.460199 461.502352,215.955022 C461.733771,214.450801 462.144969,211.975004 462.416552,210.454526 C462.68909,208.932135 462.845919,207.622038 462.764636,207.542667 C462.685265,207.46234 461.389512,207.256741 459.886247,207.085567 C458.382026,206.914394 454.294905,206.610299 450.803543,206.408524 L444.454831,206.044184 L439.977549,206.387486 L435.501224,206.731746 L432.183905,207.427914 L428.868498,208.125039 L426.732179,208.978993 C425.557873,209.448524 423.837533,210.29674 422.90899,210.862855 C421.980446,211.429927 420.800403,212.191122 420.284014,212.555463 C419.767625,212.92076 418.203159,214.343698 416.805084,215.718822 L414.266173,218.218526 L412.84706,220.295556 C412.067696,221.438305 410.719347,223.819431 409.850093,225.589496 L408.270326,228.806407 L407.058725,232.287249 C406.393157,234.202669 405.462702,237.336383 404.99317,239.251803 L404.137304,242.734558 L403.826514,245.884529 L403.516681,249.035457 L403.51955,253.18091 L403.523375,257.325408 L403.836077,259.737135 L404.148779,262.148861 L405.142349,264.629439 L406.134963,267.110018 L407.28345,268.903034 L408.430024,270.696051 L410.253641,272.491936 L412.079171,274.286865 L414.007978,275.308167 L415.938698,276.327556 L418.473785,277.032331 C419.867078,277.418667 421.88195,277.863335 422.95011,278.019208 C424.018269,278.17508 426.53423,278.321391 428.542408,278.343385 L428.536671,278.343385 Z M483.086444,278.220982 L487.562769,278.091885 L490.381869,277.370853 L493.200969,276.648865 L495.025543,275.787261 C496.028676,275.313905 497.669644,274.377711 498.672777,273.707362 C499.67591,273.037013 501.229857,271.763254 502.123975,270.876787 C503.018092,269.989363 504.344446,268.476535 505.071216,267.514522 C505.797985,266.551553 506.436777,265.807571 506.490328,265.862078 C506.544836,265.91563 506.376532,267.448539 506.118337,269.269288 C505.861099,271.090992 505.646894,273.513238 505.643068,274.653118 L505.637331,276.725367 L511.723067,276.725367 L517.80976,276.725367 L517.996234,272.00041 L518.181751,267.274497 L519.050049,261.139034 C519.528187,257.764338 520.299901,252.764931 520.765608,250.029983 C521.230357,247.294079 522.03841,242.668575 522.562449,239.749066 C523.085532,236.830514 523.914622,232.279599 524.403279,229.634541 L525.294528,224.826389 L525.325129,220.673285 L525.353817,216.519224 L524.415711,214.59998 L523.475692,212.679779 L522.202889,211.457659 L520.928174,210.234582 L518.838713,209.175985 L516.747338,208.115476 L513.630837,207.422176 L510.514335,206.728877 L506.224484,206.402787 L501.933676,206.076697 L496.407361,206.419044 C493.366405,206.606473 489.089941,206.977508 486.901027,207.244309 L482.921009,207.726272 L480.209012,207.736791 L477.497015,207.74731 L477.102073,209.655079 C476.884998,210.703157 476.281589,213.194255 475.762331,215.191914 C475.241161,217.188617 474.864388,218.869749 474.923678,218.929038 C474.98201,218.988327 476.43268,218.658412 478.146326,218.197488 C479.859971,217.735607 483.501468,216.978236 486.238328,216.511574 L491.211916,215.664314 L495.688242,215.480709 L500.165523,215.295192 L503.04965,215.801061 L505.933776,216.306931 L507.857802,217.256513 L509.782785,218.20705 L510.860507,219.813593 L511.939186,221.419179 L511.923885,223.951397 L511.907629,226.48457 L511.336732,229.263506 L510.764879,232.043399 L498.832475,232.086431 L486.900071,232.128508 L482.995598,233.199536 C480.847804,233.788602 478.469547,234.570835 477.710264,234.937088 C476.950981,235.304298 476.191699,235.604569 476.022438,235.604569 C475.854134,235.604569 474.57655,236.312212 473.183256,237.179554 L470.651039,238.752627 L468.657205,240.743593 C467.559401,241.838528 466.158457,243.480453 465.542616,244.39274 C464.926775,245.30407 463.925554,247.208971 463.319276,248.626171 L462.215734,251.20142 L461.708908,254.097022 L461.202082,256.99358 L461.202082,260.031667 L461.202082,263.070711 L461.685001,265.601015 L462.169833,268.130364 L463.066819,269.779939 C463.561213,270.686488 464.468719,272.016667 465.081691,272.733873 L466.198621,274.038233 L468.18098,275.24314 L470.164295,276.448047 L472.435449,277.089708 C473.684345,277.442574 475.584464,277.870985 476.659317,278.041202 L478.612032,278.349123 L483.089313,278.220982 L483.086444,278.220982 Z M487.231898,268.947023 L484.578234,269.086639 L482.821556,268.638146 C481.855718,268.392383 480.388791,267.843481 479.56257,267.418895 L478.062173,266.647181 L477.241689,265.672736 C476.791283,265.136265 476.102765,264.084363 475.711648,263.333686 L475.001136,261.968125 L474.862476,258.780859 L474.721903,255.592637 L475.284193,253.659048 C475.59307,252.59567 476.318883,250.749102 476.896474,249.557583 L477.946464,247.389707 L479.957511,245.39396 L481.967602,243.397257 L484.102009,242.369261 L486.236416,241.342221 L488.889123,240.711079 L491.542788,240.080894 L499.833695,240.080894 L508.124603,240.080894 L508.648642,240.297968 L509.172681,240.514087 L508.731838,243.117068 C508.488944,244.547656 507.910397,247.136294 507.444691,248.869065 C506.979941,250.602792 506.159457,253.149353 505.621074,254.529259 C505.082691,255.91012 504.641848,257.130328 504.641848,257.241256 C504.641848,257.35314 504.096771,258.358185 503.430247,259.476071 L502.219602,261.510069 L500.231506,263.480953 C499.138483,264.563456 498.121962,265.449924 497.974696,265.449924 C497.828386,265.449924 497.158037,265.823827 496.485775,266.279971 L495.263655,267.108105 L492.573653,267.95919 L489.884606,268.809319 L487.231898,268.947023 Z M595.175309,278.338604 L598.32528,278.378767 L601.310772,277.893936 C602.952697,277.628091 605.041202,277.198723 605.953489,276.940529 C606.864819,276.682335 608.5077,276.012942 609.600723,275.452564 L611.591689,274.433175 L613.303421,272.926085 L615.014198,271.418995 L616.817734,269.015875 C617.809391,267.693346 618.706377,266.38803 618.812524,266.113579 L619.004735,265.615359 L618.837387,267.274497 C618.745585,268.185828 618.539986,269.678574 618.378375,270.59086 C618.217721,271.503147 617.989171,273.256 617.86868,274.487683 L617.648737,276.725367 L624.155235,276.725367 L630.65982,276.725367 L630.65982,274.487683 L630.65982,272.249042 L631.650521,263.791742 C632.195598,259.140419 633.001738,252.948536 633.441625,250.029983 C633.881512,247.110474 634.561424,242.933463 634.95254,240.744549 C635.341744,238.555635 636.033131,234.600479 636.486406,231.956378 C636.941593,229.312277 637.762077,224.68486 638.310979,221.676417 C638.858925,218.666063 639.737742,213.891379 640.262737,211.064629 C640.786776,208.236923 641.603436,203.834231 642.074879,201.280976 C642.546323,198.72772 643.391671,194.250439 643.953004,191.332843 C644.51625,188.41429 645.334822,184.309956 645.775665,182.211888 C646.217464,180.115732 646.57798,178.286378 646.577024,178.150586 L646.577026,177.900999 L639.479548,177.900999 L632.382072,177.900999 L632.172648,179.974204 C632.057895,181.114084 631.513774,184.881809 630.965828,188.348307 C630.416926,191.812893 629.521852,197.334427 628.976775,200.617321 C628.431698,203.900214 627.907659,207.084611 627.811076,207.692802 L627.633208,208.798257 L627.073787,208.560144 C626.765867,208.429134 625.095253,207.965341 623.363439,207.530236 L620.213468,206.739396 L615.902578,206.403743 L611.590732,206.06809 L607.942542,206.407568 L604.295307,206.748002 L600.978944,207.586656 L597.662581,208.424353 L594.51261,209.961088 L591.360726,211.497822 L589.039846,213.215293 L586.718965,214.93372 L584.713656,217.084383 C583.61107,218.266339 582.018872,220.221923 581.173524,221.429698 L579.639659,223.625307 L577.836123,227.375819 C576.845422,229.439461 575.638602,232.17154 575.155683,233.448168 C574.671808,234.725752 573.820723,237.55537 573.261302,239.737591 L572.246694,243.706134 L571.746562,248.858546 L571.24643,254.009045 L571.621289,258.154499 L571.998062,262.299953 L572.440817,263.791742 C572.68658,264.613183 573.2001,266.075328 573.585479,267.041166 L574.285473,268.799756 L575.5621,270.52679 L576.839684,272.255736 L578.297048,273.449167 L579.754412,274.643555 L581.744421,275.632344 C582.839356,276.174552 584.674449,276.877415 585.823892,277.192029 C586.972378,277.506644 588.838072,277.885329 589.969346,278.031639 C591.099663,278.178906 593.441581,278.317566 595.175309,278.338604 Z M600.829765,268.931723 L598.32528,269.062732 L596.636498,268.758637 C595.706998,268.592245 594.21999,268.142795 593.330654,267.762198 L591.715504,267.070811 L590.355681,265.955793 L588.996813,264.842689 L587.986987,262.908144 L586.97716,260.973599 L586.515279,258.818154 L586.056267,256.661753 L586.095474,252.350863 L586.133725,248.039974 L586.668283,244.225391 L587.202841,240.412721 L588.033844,237.760013 C588.490944,236.300737 588.867716,234.923701 588.869629,234.699932 C588.873454,234.47712 589.322903,233.283688 589.872762,232.04818 C590.421664,230.811716 591.337776,228.905859 591.909628,227.810924 C592.481481,226.715989 593.550597,225.01095 594.28406,224.020248 C595.019436,223.029547 596.328577,221.536801 597.19305,220.702929 C598.057523,219.87097 599.431691,218.77699 600.249306,218.274946 L601.733445,217.361703 L604.341208,216.458979 L606.948015,215.556255 L612.419823,215.553386 L617.891631,215.553386 L621.041602,216.428378 C622.775329,216.908428 624.615203,217.465937 625.130636,217.666755 L626.068742,218.031096 L625.886093,218.94147 C625.785684,219.442558 625.390743,221.642948 625.010145,223.830906 C624.629547,226.01982 623.877915,230.198744 623.341444,233.117296 C622.804974,236.035849 621.980664,240.438541 621.509221,242.899994 C621.038733,245.362403 620.356909,248.496117 619.993524,249.863591 C619.631096,251.232021 619.118532,253.126403 618.855556,254.074072 C618.592581,255.021741 617.967177,256.664622 617.465132,257.722262 C616.963087,258.780859 616.08427,260.31855 615.512418,261.139034 C614.940565,261.959519 613.974727,263.097486 613.364623,263.665514 C612.753563,264.235454 611.433903,265.245281 610.43077,265.911805 L608.607153,267.124362 L605.970702,267.961103 L603.33425,268.797844 L600.829765,268.931723 Z M112.761147,276.725367 L120.817767,276.725367 L121.396313,273.161329 C121.713797,271.200008 122.335376,267.431326 122.776219,264.787225 C123.217062,262.143123 124.038502,257.217349 124.599836,253.843609 C125.162126,250.468913 126.005561,245.469506 126.473179,242.734558 C126.940798,239.998654 127.68478,235.754704 128.124667,233.30377 C128.56551,230.850924 129.010178,228.762418 129.111543,228.660097 L129.298017,228.474579 L150.964349,228.474579 L172.629724,228.474579 L172.870705,228.714604 L173.111687,228.955586 L172.734914,230.870049 C172.529315,231.923865 171.918255,235.172332 171.37796,238.090885 C170.837664,241.009437 169.929202,245.934255 169.358306,249.035457 C168.789322,252.135701 167.965013,256.538393 167.527995,258.818154 C167.090021,261.097914 166.20451,265.872598 165.55998,269.429942 C164.916407,272.98633 164.390455,276.08275 164.392368,276.3113 L164.396193,276.725367 L172.486283,276.725367 L180.577329,276.725367 L180.934976,274.653118 C181.132925,273.513238 181.448496,271.461071 181.639751,270.093597 C181.829093,268.725167 182.289062,265.814265 182.65914,263.626307 C183.029219,261.438348 183.76842,257.10929 184.302978,254.009045 C184.836579,250.9088 185.731653,245.611034 186.290118,242.236339 C186.848583,238.861643 187.676717,233.937781 188.131905,231.293679 C188.585179,228.647665 189.395144,224.17134 189.929702,221.34459 C190.46426,218.516884 191.355509,213.7422 191.910149,210.731846 C192.464788,207.723403 193.293879,203.171532 193.754804,200.617321 C194.215729,198.064065 195.055338,193.437605 195.621453,190.33736 C196.187568,187.237115 196.901906,183.618569 197.208871,182.295084 L197.767335,179.891008 L189.57588,179.891008 L181.383469,179.891008 L181.160657,181.46695 C181.03921,182.332379 180.643312,184.758449 180.28184,186.855561 C179.919411,188.95363 179.263406,192.683104 178.821607,195.145513 C178.379808,197.608878 177.572712,202.308972 177.027635,205.592822 C176.482558,208.874759 175.788302,213.22103 175.484206,215.250247 L174.931479,218.938601 L162.906316,219.182451 L150.880196,219.425345 L140.808704,219.186276 C135.269001,219.055267 130.705654,218.920432 130.667403,218.889831 C130.630109,218.857318 130.818495,217.569215 131.086252,216.025786 C131.354965,214.482358 131.861791,211.800961 132.213701,210.069147 C132.56561,208.336376 133.23309,204.904303 133.695928,202.440938 C134.159721,199.979485 134.68376,196.92036 134.862584,195.643732 C135.040451,194.367105 135.414354,192.240348 135.692631,190.916863 C135.970907,189.59529 136.498771,186.80966 136.86598,184.727849 C137.232234,182.646037 137.623351,180.705754 137.735235,180.416959 L137.936053,179.891008 L129.810581,179.891008 L121.684152,179.891008 L121.164895,182.793304 C120.878012,184.389327 120.496458,186.664306 120.316678,187.850088 C120.135942,189.035869 119.53062,192.840889 118.971199,196.306431 C118.411778,199.771973 117.585556,204.92056 117.13515,207.74731 C116.684744,210.575016 115.866173,215.723603 115.315358,219.188189 C114.762631,222.654687 113.853213,228.026086 113.291879,231.126331 C112.731502,234.228488 111.919624,238.630224 111.487388,240.909985 C111.056107,243.189745 110.234667,247.517848 109.660902,250.527246 C109.088093,253.537601 108.249439,257.790158 107.800946,259.979072 C107.351497,262.16703 106.85519,264.704029 106.698361,265.615359 C106.539619,266.527646 106.027055,269.15836 105.556568,271.461071 C105.087036,273.763782 104.702614,275.889582 104.702614,276.186984 L104.702614,276.725367 L112.761147,276.725367 Z M201.960603,276.725367 L209.093461,276.725367 L209.294279,276.201328 C209.406163,275.911577 209.496053,275.155163 209.496053,274.520196 C209.496053,273.883317 209.945503,270.574604 210.492492,267.167394 C211.041394,263.760185 211.946987,258.212832 212.506408,254.838136 C213.064873,251.464396 213.890139,246.539578 214.340544,243.89452 C214.79095,241.250419 215.590396,236.848683 216.11826,234.110866 C216.646124,231.375919 217.457046,227.122406 217.919883,224.660953 C218.381764,222.198544 219.292138,217.513751 219.941449,214.249983 C220.59076,210.986215 221.202777,208.18624 221.301273,208.026542 L221.482009,207.734878 L214.268824,207.823812 L207.055638,207.912746 L206.453185,212.224591 C206.124226,214.596154 205.401282,219.297204 204.848555,222.669988 C204.296784,226.044683 203.460999,231.194226 202.991468,234.110866 C202.521937,237.030375 201.705278,241.730469 201.174545,244.558175 C200.643812,247.384925 199.830978,251.712071 199.367184,254.174481 C198.904347,256.637846 198.073344,260.964992 197.520616,263.791742 C196.967889,266.619449 196.226776,270.349879 195.872954,272.08265 C195.518176,273.816377 195.138534,275.56923 195.027606,275.979472 L194.827745,276.725367 L201.960603,276.725367 Z M368.792409,276.725367 L375.872672,276.725367 L376.084965,273.729356 C376.202587,272.08265 376.60231,268.761505 376.975257,266.350735 C377.348205,263.939965 378.112269,259.132769 378.67169,255.668183 C379.232067,252.201684 380.272495,246.433431 380.983964,242.848355 C381.697345,239.264235 382.501573,235.701152 382.773155,234.931351 C383.045694,234.160593 383.26755,233.326721 383.26755,233.077133 C383.26755,232.826589 383.800195,231.464852 384.450462,230.050521 C385.100729,228.63619 386.313287,226.471182 387.145246,225.238543 L388.657118,222.997034 L390.67964,221.122734 L392.703119,219.250347 L395.198041,218.058828 L397.692964,216.866352 L401.507546,216.88739 L405.320216,216.907472 L407.195473,217.466893 C408.226337,217.774814 409.158706,218.027271 409.267721,218.027271 C409.376737,218.027271 409.46567,217.675361 409.46567,217.244081 C409.46567,216.813757 409.838618,214.629624 410.294761,212.390027 C410.749948,210.151386 411.123852,208.225448 411.123852,208.109738 C411.123852,207.994029 410.042304,207.570399 408.719776,207.168763 C407.397247,206.767128 405.568848,206.346367 404.657518,206.23257 L402.999336,206.027927 L400.843891,206.409481 C399.65811,206.618905 397.895694,207.081742 396.926987,207.438433 C395.957324,207.794168 394.357475,208.601264 393.370599,209.232406 C392.384679,209.864504 390.849857,211.094274 389.961477,211.965441 C389.071185,212.837564 387.57557,214.596154 386.637464,215.872782 C385.698402,217.14941 384.717263,218.492977 384.4562,218.857318 L383.981887,219.520016 L384.269726,218.194619 C384.428468,217.464024 384.870267,215.076205 385.250865,212.888247 C385.631462,210.699332 386.024492,208.646209 386.120119,208.328725 L386.29703,207.74731 L379.974137,207.74731 L373.650288,207.74731 L373.650288,208.546756 C373.650288,208.986643 373.276384,211.63457 372.821197,214.432631 C372.365054,217.231649 371.612465,221.907836 371.149628,224.826389 C370.68679,227.744941 369.864394,232.818938 369.323142,236.101832 C368.78189,239.384725 367.959493,244.085775 367.495699,246.547228 C367.031906,249.009637 366.209509,253.33774 365.666345,256.165446 C365.125093,258.99124 364.223325,263.618656 363.665816,266.445406 C363.107352,269.273113 362.438915,272.610514 362.181677,273.865147 C361.922526,275.117868 361.712146,276.274005 361.712146,276.433703 L361.712146,276.725367 L368.792409,276.725367 Z M536.866416,276.725367 L544.105421,276.725367 L544.105421,274.510633 L544.105421,272.293987 L544.939293,266.799228 C545.399262,263.778354 546.155676,258.99124 546.622338,256.165446 C547.089,253.33774 547.66946,249.756488 547.91331,248.20541 C548.158116,246.655287 548.804558,243.297804 549.350592,240.744549 C549.898538,238.190337 550.580362,235.430527 550.868201,234.609086 C551.15604,233.788602 551.393196,232.926998 551.396065,232.695579 C551.39989,232.46416 552.016688,230.974283 552.767364,229.384953 L554.133881,226.494133 L555.937417,224.098663 L557.739996,221.704149 L559.712792,220.220966 C560.797208,219.404307 562.542411,218.32276 563.590489,217.814977 L565.495389,216.892172 L569.639887,216.92086 L573.785341,216.950504 L575.417703,217.473587 L577.049109,217.997626 L577.324516,217.827409 L577.598967,217.657192 L577.614267,216.599551 C577.620961,216.01718 577.975739,213.852172 578.402238,211.786617 L579.177778,208.03228 L578.305654,207.69089 C577.826561,207.50346 576.688593,207.115212 575.776306,206.828329 L574.118125,206.305247 L571.133589,206.313853 L568.149053,206.320547 L565.716289,207.17737 L563.283524,208.03228 L561.457038,209.133909 L559.631509,210.235539 L557.25612,212.722811 L554.881689,215.209127 L553.606017,217.138891 C552.905067,218.200356 552.287313,219.020841 552.233762,218.962508 C552.180211,218.905131 552.561765,216.693266 553.081022,214.049165 C553.60028,211.404107 554.032516,208.904403 554.040166,208.494161 L554.05451,207.74731 L547.919047,207.74731 L541.784541,207.74731 L541.784541,207.959603 C541.784541,208.075312 541.478533,210.202069 541.104629,212.68456 C540.730725,215.168007 539.979093,219.959903 539.436885,223.334599 C538.892764,226.708339 538.001515,232.155283 537.454526,235.439133 C536.908493,238.722026 536.084183,243.423076 535.623258,245.885485 C535.16329,248.346938 534.345674,252.675041 533.806335,255.501791 C533.266996,258.329497 532.381485,262.881368 531.83832,265.617272 C531.295156,268.35222 530.574124,271.971722 530.238472,273.658592 L529.626455,276.725367 L536.866416,276.725367 Z M215.987251,195.802474 L217.999254,195.809168 L219.600059,195.264091 L221.20182,194.719014 L222.618064,193.281732 L224.035264,191.845406 L224.780203,189.929987 L225.527054,188.015523 L225.552873,185.196424 L225.579649,182.379236 L224.91695,181.277607 L224.253295,180.176934 L223.099071,179.462596 L221.94389,178.747302 L219.45088,178.747302 L216.95787,178.747302 L215.260481,179.507541 L213.563092,180.266824 L212.578129,181.322552 L211.593165,182.379236 L210.818582,184.202853 L210.044955,186.026471 L209.898645,188.867565 L209.753291,191.708659 L210.47241,193.121078 L211.193442,194.53254 L212.583866,195.163682 L213.973335,195.793868 L215.987251,195.802474 Z" id="path2997"></path>
        </g>
    </g>
</svg>
