<svg enable-background="new 0 0 750 471" viewBox="0 0 750 471" xmlns="http://www.w3.org/2000/svg"><g fill="#393939"><path d="m52.9 28.2c-13.3 0-24 10.5-24 23.5v367.6c0 13 10.8 23.5 24 23.5h644.2c13.3 0 24-10.5 24-23.5v-367.6c0-13-10.8-23.5-24-23.5zm0-28.2h644.2c29.2 0 52.9 23.1 52.9 51.7v367.6c0 28.6-23.7 51.7-52.9 51.7h-644.2c-29.2 0-52.9-23.1-52.9-51.7v-367.6c0-28.6 23.7-51.7 52.9-51.7z"/><path d="m156.9 92.3c-30.2 1.4-54.9 13.6-62 38.7-3.7 13.1-36.5 180.8-50.7 248.4h532.2c41.1 0 69.4-8.7 77-41.3 3.5-15.2 36.8-179 50.4-245.8zm52.9 89.6c1.1-1.5 2.8-2.5 5.7-3 3.1-.5 5.3-.2 6.7 1 4.2 3.7.5 12.7-2.3 14.7-1.8 1.3-7.9 2.7-10.7 0-2.9-2.8-1.3-10.2.6-12.7zm-47.7 95.3c2.6-16.3 5.9-31.8 8.7-48-13.4-1.3-30.1-.7-44-.3-3.4 15.5-5.8 32-8.3 48.3h-16.3c6.4-31.8 11.6-64.8 17.3-97.3h16c-2.7 12.7-4.6 26.2-7.3 39 14.3 1.1 29.5.5 44.3.3 2.3-13 4.6-26 6.7-39.3h16.7c-6.6 31.6-12.1 64.3-17.3 97.3zm30.7 0c4.6-22.2 8.8-44.7 12-68.3 0-.5-.1-.9.3-1h14.3c-4.9 22.3-8.9 45.5-12.3 69.3zm75.9-2c-9 4.9-30.4 7.3-33.6-5.3-2.9 12-4.3 25.5-6.3 38.3h-14.3c6.4-32.9 12.5-66.1 17.7-100.3h12.3c-.1 2.2-.9 3.8-1 6v.1c6.4-5.2 21.2-10.6 33.3-6.1 24.8 9.4 10.5 57.2-8.1 67.3zm87.6-35.3c-15.5-.4-31.5-.5-47 0-2.4 10.2-2.4 22 5 26.6 9.7 6.2 26.2 1.2 35.6-2.3-.6 3.8-1.6 7.3-2 11.3-23 5.6-51.7 6.4-54.3-16.7-1.8-16.2 4.4-33.9 12-42 6.2-6.5 15-9.5 25.3-10.3 11.8-.9 23.4 1.5 26.6 11 2.6 7.2-.2 15.1-1.2 22.4zm25.7-7.3c-4.5 12.9-5.3 31.1-7.3 44.6h-14.3c4.3-22.8 8.9-45.3 12-69.3h12.7c-.8 3.8-1.3 8-2.3 11.7 4.6-8.1 14.6-16.8 27.3-11.7-.4 3.6-1.5 6.5-1.7 10.3-13.6-4.8-22.9 4-26.4 14.4zm68.2 42.6c-18.7 6.5-41.8 5.5-47-11.3-4.4-14.4 1.8-37.3 11.3-47.3 9.7-10.2 28-12.1 47.3-9-.5 3.8-1.3 7.4-1.7 11.3-11.8-4.1-26.5-5.3-34 2-5.4 5.3-8.9 17-9.7 26.6-.3 4.3 0 9.9 1.3 13.3 4.5 11.7 24.1 9 34.3 3.7-.5 3.5-.9 7.3-1.8 10.7zm70.6-30c-1.8 10.6-3.5 20.2-3.7 32h-12.3c-.2-4.1.4-7.4 1-10.7-5.9 9.5-23 16.3-37 10.3-7.3-3.1-11.1-14.3-7.7-25.6 5.1-17 24.5-20.9 48.3-18.7 1.1-2.9 2.5-6.9 1.7-10.7-2.5-11.3-28.9-4.8-37.3-2.7.9-3.8 2-7.4 2.7-11.3 17-.5 47.2-7 48.3 11.3.5 8.1-2.4 17.1-4 26.1zm26 7c-1.4 9-3.2 15.8-3.3 25h-14.7c4.8-22.4 8.9-45.5 12.3-69.3h12.7c-1.1 3.3-1.2 7.7-2.3 11 4.1-6.4 14.7-17 27.3-10.7-.9 3.1-1.3 6.7-2 10-22.4-6.3-26.9 14.8-30 34zm83.6 25h-13c.1-3.8.8-6.9 1.3-10.3-.3-.9-1.7 2.2-2.7 3.3-1.2 1.5-3.1 3.8-5 5-9.6 6.3-28.7 4.5-35.3-3-3.9-4.4-4.9-10.5-5-16.7-.4-31.9 21.2-57.7 56.3-46.6 2.1-9.9 3.8-20.2 5-31h14.3c-5.6 32.7-13.4 63.4-15.9 99.3zm-387-63.2c-.1.1-.2.2-.3.3.1-.1.3-.1.3-.3zm230.5 41.9c-2.1 17.3 18.6 15.2 26 8 5.6-5.5 7.1-15.5 8.3-23.3-16.9-2.1-32.6.9-34.3 15.3zm134.2-40.3c-15.4 1.7-23 21-22.6 38.3.2 9.9 5 15.9 14.7 15.7 22.6-.5 20.8-31.8 25.6-51.3-5.3-1.9-10.5-3.5-17.7-2.7zm-365 7c-1.1 5.5-1.9 11.4-3 17.7-1.1 6.1-3.3 12.4-2.7 18.3 1.5 13.7 20.3 13.8 28 5.7 6.3-6.7 11.6-23.3 9.7-36.6-2.3-15.5-24.5-14.3-32-5.1zm86.9-7.4c-11 .4-17.9 8.9-19 16.7h33.6c3.1-12.9-4.3-17.1-14.6-16.7z"/></g></svg>