<svg width="750" height="471" viewBox="0 0 750 471" version="1.1" xmlns="http://www.w3.org/2000/svg" xmlns:xlink="http://www.w3.org/1999/xlink">
    <!-- Generator: Sketch 48.2 (47327) - http://www.bohemiancoding.com/sketch -->
    <desc>Created with Sketch.</desc>
    <defs></defs>
    <g id="Page-1" stroke="none" stroke-width="1" fill="none" fill-rule="evenodd">
        <g id="jcb" fill="#393939" fill-rule="nonzero">
            <path d="M52.8846154,28.2035928 C39.6085397,28.2035928 28.8461538,38.7262417 28.8461538,51.7065868 L28.8461538,419.293413 C28.8461538,432.273758 39.6085397,442.796407 52.8846154,442.796407 L697.115385,442.796407 C710.39146,442.796407 721.153846,432.273758 721.153846,419.293413 L721.153846,51.7065868 C721.153846,38.7262417 710.39146,28.2035928 697.115385,28.2035928 L52.8846154,28.2035928 Z M52.8846154,0 L697.115385,0 C726.322751,-5.0099645e-15 750,23.1498275 750,51.7065868 L750,419.293413 C750,447.850173 726.322751,471 697.115385,471 L52.8846154,471 C23.6772488,471 3.41607085e-15,447.850173 0,419.293413 L0,51.7065868 C-3.41607085e-15,23.1498275 23.6772488,5.0099645e-15 52.8846154,0 Z" id="Rectangle-1"></path>
            <path d="M160,273 C153.284454,270.832645 139.148301,264.218733 139,264 L139,110 C139.004142,109.802246 138.253738,92.5516641 157,75 C175.65598,56.8671041 196.035859,58.0149157 196,58 L284,58 L284,355 C283.798177,354.87759 285.132054,376.972789 269,395 C251.116764,416.077857 225.634959,414.990403 226,415 L139,415 L139,290 L171,296 C171.349194,295.57805 183.740266,296.836706 196,297 C206.812935,297.318167 216.81919,296.357281 223,295 C236.159524,293.304956 242.720074,291.549443 255,284 C272.657024,270.995148 271.848629,250.601661 272,251 L271,179 L221,179 L221,250 C221.301463,249.656697 221.772275,262.821523 211,271 C206.996172,274.542154 200.437452,277.800725 188,278 C179.511634,277.800697 167.791729,275.210316 160,273 Z M303,198 L303,119 C303.008279,119.012386 302.116079,95.9876443 319,78 C335.59629,60.6858861 357.372514,60 357,60 L448,60 L448,359 C447.986169,358.661185 449.094247,380.604604 431,399 C413.918995,416.89394 394.534708,417 395,417 L303,417 L303,280 C303.008279,279.843861 315.123214,292.866647 349,298 C365.601054,300.105544 384.679151,299.757275 400,298 C418.08387,295.572845 431.474315,291.535087 431,292 L431,267 C431.110085,266.672958 424.750589,270.6234 405,277 C385.882978,282.637865 337.326797,285.36992 336,241 C334.625006,195.792983 375.988012,195.395409 395,198 C413.081407,200.126987 431.474317,210.305685 431,210 L431,186 C431.474317,185.996139 408.064059,180.611239 398,179 C385.774134,178.123674 368.423717,176.639058 342,181 C315.288738,184.60385 303.008279,197.761199 303,198 Z M464,294 L464,415 L555,415 C555.104464,415 576.013199,412.975098 588,401 C608.107819,385.283797 609,360.551319 609,361 L609,58 L522,58 C522.123299,58.0039986 498.953211,57.2730795 481,76 C463.244479,93.8776576 464.004681,115.199551 464,115 L464,179 L552,179 C552.378117,179.493996 560.497156,179.631375 569,183 C574.863376,185.394257 581.061997,189.99754 584,197 C589.722871,213.015846 580.652806,224.4734 576,228 C569.90445,232.979817 558.975343,234.619569 559,235 C558.975343,234.619569 574.792352,236.246558 584,244 C586.677135,247.170496 590.075787,251.641616 591,256 C593.252488,262.023832 592.534176,267.773287 593,268 C592.534176,267.773287 591.446378,277.900341 583,285 C579.551555,287.67805 574.718619,290.363539 570,292 C563.231812,293.761438 556.894519,293.947582 557,294 L464,294 Z M493,199 L493,228 L524,228 C524.322847,228 539,227.956651 539,213 C539,199 524.322847,199 524,199 L493,199 Z M526,245 L493,245 L493,276 L526,276 C526.585782,275.989497 543,276.950031 543,261 C543,244.049971 526.489738,245.010503 526,245 Z" id="Path-8"></path>
        </g>
    </g>
</svg>
