<svg height="471" viewBox="0 0 750 471" width="750" xmlns="http://www.w3.org/2000/svg"><g fill="#393939"><path d="m52.8846154 28.2035928c-13.2760757 0-24.0384616 10.5226489-24.0384616 23.502994v367.5868262c0 12.980345 10.7623859 23.502994 24.0384616 23.502994h644.2307696c13.276075 0 24.038461-10.522649 24.038461-23.502994v-367.5868262c0-12.9803451-10.762386-23.502994-24.038461-23.502994zm0-28.2035928h644.2307696c29.207366 0 52.884615 23.1498275 52.884615 51.7065868v367.5868262c0 28.55676-23.677249 51.706587-52.884615 51.706587h-644.2307696c-29.2073666 0-52.8846154-23.149827-52.8846154-51.706587v-367.5868262c0-28.5567593 23.6772488-51.7065868 52.8846154-51.7065868z"/><path d="m160 273c-6.715546-2.167355-20.851699-8.781267-21-9v-154c.004142-.197754-.746262-17.4483359 18-35 18.65598-18.1328959 39.035859-16.9850843 39-17h88v297c-.201823-.12241 1.132054 21.972789-15 40-17.883236 21.077857-43.365041 19.990403-43 20h-87v-125l32 6c.349194-.42195 12.740266.836706 25 1 10.812935.318167 20.81919-.642719 27-2 13.159524-1.695044 19.720074-3.450557 32-11 17.657024-13.004852 16.848629-33.398339 17-33l-1-72h-50v71c.301463-.343303.772275 12.821523-10 21-4.003828 3.542154-10.562548 6.800725-23 7-8.488366-.199303-20.208271-2.789684-28-5zm143-75v-79c.008279.012386-.883921-23.0123557 16-41 16.59629-17.3141139 38.372514-18 38-18h91v299c-.013831-.338815 1.094247 21.604604-17 40-17.081005 17.89394-36.465292 18-36 18h-92v-137c.008279-.156139 12.123214 12.866647 46 18 16.601054 2.105544 35.679151 1.757275 51 0 18.08387-2.427155 31.474315-6.464913 31-6v-25c.110085-.327042-6.249411 3.6234-26 10-19.117022 5.637865-67.673203 8.36992-69-36-1.374994-45.207017 39.988012-45.604591 59-43 18.081407 2.126987 36.474317 12.305685 36 12v-24c.474317-.003861-22.935941-5.388761-33-7-12.225866-.876326-29.576283-2.360942-56 2-26.711262 3.60385-38.991721 16.761199-39 17zm161 96v121h91c.104464 0 21.013199-2.024902 33-14 20.107819-15.716203 21-40.448681 21-40v-303h-87c.123299.0039986-23.046789-.7269205-41 18-17.755521 17.8776576-16.995319 39.199551-17 39v64h88c.378117.493996 8.497156.631375 17 4 5.863376 2.394257 12.061997 6.99754 15 14 5.722871 16.015846-3.347194 27.4734-8 31-6.09555 4.979817-17.024657 6.619569-17 7-.024657-.380431 15.792352 1.246558 25 9 2.677135 3.170496 6.075787 7.641616 7 12 2.252488 6.023832 1.534176 11.773287 2 12-.465824-.226713-1.553622 9.900341-10 17-3.448445 2.67805-8.281381 5.363539-13 7-6.768188 1.761438-13.105481 1.947582-13 2zm29-95v29h31c.322847 0 15-.043349 15-15 0-14-14.677153-14-15-14zm33 46h-33v31h33c.585782-.010503 17 .950031 17-15 0-16.950029-16.510262-15.989497-17-16z"/></g></svg>