<?xml version="1.0" encoding="UTF-8" standalone="no"?>
<svg width="780px" height="501px" viewBox="0 0 780 501" version="1.1" xmlns="http://www.w3.org/2000/svg" xmlns:xlink="http://www.w3.org/1999/xlink" xmlns:sketch="http://www.bohemiancoding.com/sketch/ns">
    <!-- Generator: Sketch 3.3.1 (12005) - http://www.bohemiancoding.com/sketch -->
    <title>jcb copy</title>
    <desc>Created with Sketch.</desc>
    <defs></defs>
    <g id="Page-1" stroke="none" stroke-width="1" fill="none" fill-rule="evenodd" sketch:type="MSPage">
        <rect id="Rectangle-1" stroke="#393939" stroke-width="30" sketch:type="MSShapeGroup" x="15" y="15" width="750" height="471" rx="40"></rect>
        <path d="M161.341077,288.187364 C153.986867,285.964719 138.855021,278.873908 138.855021,278.873908 L138.700708,113.323166 C138.700708,113.323166 137.897449,94.8287252 157.9158,75.6999213 C177.934152,56.5711174 199.749506,57.8016924 199.749506,57.8016924 L293.909481,57.8016924 L293.693442,376.069754 C293.693442,376.069754 295.121272,399.758135 277.899431,419.1942 C258.710084,441.682888 231.433445,440.517022 231.433445,440.517022 L138.885884,440.517022 L138.885884,306.323008 L173.324014,312.4944 C173.324014,312.4944 186.587862,313.843812 199.749508,314.118886 C211.285675,314.359988 221.99673,313.329818 229.103973,312.206392 C242.699318,310.057404 249.721966,308.175309 262.591245,300.374431 C281.767552,286.138939 280.902217,264.274973 280.902217,264.274973 L280.401575,187.719042 L226.794716,188.023636 L226.794716,263.261872 C226.794716,263.261872 227.29869,277.375952 216.302876,286.111602 C211.481819,289.941703 204.461129,293.435234 191.371313,293.435217 C182.061382,293.435205 169.515975,290.658043 161.341077,288.187364 Z M313.857615,207.56737 L313.857615,123.233031 C313.857615,123.233031 312.902962,98.5751818 330.814866,79.6723543 C348.72677,60.7695268 372.027318,60.0349919 372.027318,60.0349919 L468.983881,60.0349919 L468.983879,379.879733 C468.983879,379.879733 470.169522,403.379563 451.316204,422.846897 C432.532022,442.242843 411.790845,442.356426 411.790845,442.356426 L313.857615,442.356426 L313.857615,295.472023 C313.857615,295.472023 326.820589,309.418494 363.577145,314.694234 C380.831851,317.170835 401.245404,316.797864 418.02433,314.694234 C436.988436,312.316639 451.316204,307.992489 451.316204,307.992489 L450.926478,281.366929 C450.926478,281.366929 444.121821,285.59757 423.32766,292.030886 C402.533499,298.464202 350.578411,301.390037 349.132954,253.424795 C347.687496,205.459552 391.94589,205.033779 411.790847,207.56737 C431.635803,210.10096 451.316206,221.001617 451.316206,221.001617 L451.316206,194.967834 C451.316206,194.967834 426.267243,189.200992 415.588529,188.008209 C402.417036,186.536988 383.852099,184.94707 355.4249,189.211931 C326.9977,193.476792 313.857615,207.56737 313.857615,207.56737 Z M486.789122,310.641642 L486.789122,440.368857 L584.140395,440.368859 C584.140395,440.368859 606.483939,438.198849 619.536948,425.07357 C640.78097,408.523148 641.734375,382.018303 641.734375,382.018303 L641.734375,57.7899864 L548.895982,57.7899864 C548.895982,57.7899864 524.135905,57.0066885 505.056329,76.6205471 C485.976753,96.2344058 486.789122,119.084258 486.789122,119.084258 L486.789122,187.98614 L581.22696,187.98614 C581.22696,187.98614 589.903147,188.133364 598.472861,191.580806 C605.255212,194.309223 611.879198,199.242384 614.725006,206.841625 C621.134402,223.910216 611.441927,236.188836 606.483939,239.528725 C599.955993,245.304836 588.276903,247.062095 588.276903,247.062095 C588.276903,247.062095 605.179314,248.805676 614.725006,257.649079 C617.87966,260.51244 621.511536,265.303967 622.97618,270.104386 C624.90623,276.430188 624.138626,282.591658 624.138626,282.591658 C624.138626,282.591658 622.97618,293.444432 614.066316,300.789292 C610.265105,303.922826 605.100522,306.800761 599.863619,308.354289 C592.825462,310.442159 586.053288,310.641642 586.053288,310.641642 L486.789122,310.641642 Z M517.8238,208.48818 L517.8238,239.67029 L551.327644,239.67029 C551.327644,239.67029 567.026761,239.623679 567.026761,224.05593 C567.026761,208.48818 551.327644,208.48818 551.327644,208.48818 L517.8238,208.48818 Z M553.660384,257.983934 L517.8238,257.983934 L517.8238,291.485845 L553.660384,291.485845 C553.763158,291.485845 571.327628,292.524605 571.327628,274.73489 C571.327628,256.945176 553.660384,257.983934 553.660384,257.983934 Z" id="Path-8" fill="#393939" sketch:type="MSShapeGroup"></path>
    </g>
</svg>