<svg width="750" height="471" viewBox="0 0 750 471" version="1.1" xmlns="http://www.w3.org/2000/svg" xmlns:xlink="http://www.w3.org/1999/xlink">
    <!-- Generator: Sketch 48.2 (47327) - http://www.bohemiancoding.com/sketch -->
    <desc>Created with Sketch.</desc>
    <defs></defs>
    <g id="Page-1" stroke="none" stroke-width="1" fill="none" fill-rule="evenodd">
        <g id="maestro" fill="#393939" fill-rule="nonzero">
            <path d="M52.8846154,28.2035928 C39.6085397,28.2035928 28.8461538,38.7262417 28.8461538,51.7065868 L28.8461538,419.293413 C28.8461538,432.273758 39.6085397,442.796407 52.8846154,442.796407 L697.115385,442.796407 C710.39146,442.796407 721.153846,432.273758 721.153846,419.293413 L721.153846,51.7065868 C721.153846,38.7262417 710.39146,28.2035928 697.115385,28.2035928 L52.8846154,28.2035928 Z M52.8846154,0 L697.115385,0 C726.322751,-5.0099645e-15 750,23.1498275 750,51.7065868 L750,419.293413 C750,447.850173 726.322751,471 697.115385,471 L52.8846154,471 C23.6772488,471 3.41607085e-15,447.850173 0,419.293413 L0,51.7065868 C-3.41607085e-15,23.1498275 23.6772488,5.0099645e-15 52.8846154,0 Z" id="Rectangle-1"></path>
            <g id="Group" transform="translate(61.000000, 40.000000)">
                <path d="M627.719665,195.156045 C627.719665,302.454837 540.378996,389.755469 432.977642,389.755469 C388.215821,389.755469 346.917999,374.601299 313.981699,349.103853 C281.041043,374.601299 239.765007,389.755469 194.985322,389.755469 C87.6188253,389.755469 0.280335096,302.454837 0.280335096,195.156045 C0.280335096,87.884685 87.6188253,0.597114521 194.985322,0.597114521 C239.765007,0.597114521 281.041043,15.7887309 313.981699,41.2604866 C346.917999,15.7887309 388.215821,0.597114521 432.977642,0.597114521 C540.378996,0.597114521 627.719665,87.884685 627.719665,195.156045 Z M432.718033,17.7764458 C393.224103,17.7764458 356.767163,30.7082603 327.273075,52.5268868 C356.070005,79.283116 376.71456,114.63443 385.193729,154.406073 L367.346517,154.406073 C359.024207,118.823118 339.930827,87.3557029 313.722091,63.6343142 C287.530783,87.3557029 268.446117,118.823118 260.115094,154.406073 L242.276595,154.406073 C250.74705,114.63443 271.400319,79.283116 300.175464,52.5268868 C270.720591,30.7082603 234.228792,17.7764458 194.725712,17.7764458 C96.837934,17.7764458 17.4596664,97.0698035 17.4596664,194.910083 C17.4596664,292.749056 96.837934,372.099889 194.725712,372.099889 C234.228792,372.099889 270.720591,359.15806 300.175464,337.339868 C275.029891,313.927623 256.0803,284.023782 246.032528,250.234736 L264.276248,250.234736 C273.979799,279.766298 291.238785,305.843715 313.722091,326.24202 C336.257683,305.843715 353.481811,279.766298 363.185362,250.234736 L381.424726,250.234736 C371.411812,284.023782 352.431719,313.927623 327.273075,337.339868 C356.767163,359.15806 393.224103,372.099889 432.718033,372.099889 C530.633698,372.099889 610.000636,292.749056 610.000636,194.910083 C610.000636,97.0698035 530.633698,17.7764458 432.718033,17.7764458 Z" id="path14-path"></path>
                <path d="M310.43048,236.442661 C303.227979,238.293173 296.252055,239.202755 288.897051,239.202755 C265.446441,239.202755 253.198268,228.516374 253.198268,208.058853 C253.198268,184.21816 268.753578,166.663984 289.903571,166.663984 C307.171272,166.663984 318.208135,176.521771 318.208135,191.923258 C318.208135,197.011948 317.467406,201.988737 315.628655,209.067708 L273.903823,209.067708 C272.396223,219.037832 279.690225,223.425941 292.112686,223.425941 C299.550478,223.425941 306.256254,222.104457 313.698403,219.094001 L310.43048,236.442661 Z M299.249648,195.371375 C299.249648,193.8287 301.563336,183.132305 289.502525,182.888908 C282.840321,182.888908 278.051725,187.336668 276.104043,195.371375 L299.249648,195.371375 Z" id="path13"></path>
                <path d="M329.03949,190.300467 C329.03949,199.119355 334.011089,205.232141 345.309386,209.73607 C353.927986,213.276861 355.287442,214.29399 355.287442,217.461196 C355.287442,221.874994 351.496652,223.856131 343.02184,223.818685 C336.660284,223.779933 330.847741,222.997493 324.019961,221.097344 L320.961186,237.143243 C327.048236,238.565307 335.605835,239.048182 343.196129,239.202755 C365.709935,239.202755 376.088856,231.824654 376.088856,215.888043 C376.088856,206.320678 371.770841,200.673785 361.043342,196.467679 C352.115379,192.912955 351.087073,192.106567 351.087073,188.881886 C351.087073,185.083764 354.625142,183.157054 361.54878,183.157054 C365.731721,183.157054 371.461478,183.548057 376.908015,184.21816 L379.940647,168.021171 C374.420037,167.286191 365.997512,166.663984 361.139201,166.663984 C337.239797,166.663984 328.965418,177.397826 329.03949,190.300467 Z" id="path15"></path>
                <path d="M239.129493,238.080255 L221.602537,238.080255 L222.031724,230.732633 C216.694117,236.481413 209.598369,239.202755 199.924012,239.202755 C188.509813,239.202755 180.663314,231.390981 180.663314,220.182537 C180.663314,203.122992 194.284885,193.282187 217.676237,193.282187 C220.067485,193.282187 223.151532,193.428486 226.280023,193.787267 C226.921843,191.482617 227.09526,190.512949 227.09526,189.26984 C227.09526,184.597407 223.432573,182.88492 213.563884,182.88492 C203.87079,182.925414 197.328411,184.362718 191.260532,185.993781 L194.24567,170.342802 C204.755744,167.692868 211.638859,166.663984 219.406928,166.663984 C237.517318,166.663984 247.103223,173.734246 247.103223,187.084059 C247.247012,190.630511 246.005201,197.799613 245.382117,200.900201 C244.663175,205.465088 239.656718,231.824654 239.129493,238.080255 Z M224.360569,207.063895 C222.154504,206.817015 221.174127,206.74909 219.645611,206.74909 C207.688937,206.74909 201.660274,210.278561 201.660274,217.311378 C201.660274,221.763928 204.606633,224.485269 209.215711,224.485269 C217.778539,224.485269 223.992819,217.311378 224.360569,207.063895 Z" id="path17"></path>
                <path d="M418.437682,222.337728 C416.982367,222.837584 415.15233,223.034827 412.760212,223.034827 C407.779898,223.034827 405.601283,221.476913 405.601283,217.864278 C405.601283,215.610572 411.496614,186.038082 411.496614,186.038082 L422.250257,186.038082 L425.126029,169.028174 L414.433388,169.028174 L417.618523,152.347874 L396.773535,152.347874 C396.773535,152.347874 387.44035,202.761051 386.860838,206.237401 C386.27697,209.695029 383.627773,222.103039 383.985066,224.742523 C383.985066,234.498423 389.836826,239.975068 400.590469,239.975068 C405.405207,239.975068 409.901869,239.337621 415.635983,237.759243 L418.437682,222.337728 Z" id="path19"></path>
                <path d="M511.392118,239.202755 C487.911007,239.202755 478.43839,224.941619 478.43839,207.514584 C478.43839,183.157054 494.477352,166.663984 519.304847,166.663984 C540.873133,166.663984 552.323934,180.245001 552.323934,197.672036 C552.323934,226.577472 535.134662,239.202755 511.392118,239.202755 Z M518.476792,183.843315 C507.919225,183.843315 501.344165,196.337973 501.344165,207.391409 C501.344165,216.729311 505.81904,222.945725 513.265545,222.848628 C523.474535,222.848628 529.931949,213.505937 529.931949,197.778325 C529.931949,190.626205 527.012605,183.843315 518.476792,183.843315 Z" id="path21"></path>
                <path d="M438.804348,168.347638 C436.159509,189.955089 431.449344,211.861671 427.797986,233.474346 L426.900396,238.221237 L447.976316,238.221237 C455.562253,196.416642 458.093803,184.503698 473.993334,188.711545 C474.812494,186.468289 481.653344,168.951123 481.653344,168.951123 C470.572908,164.872595 463.418337,170.710198 456.960924,178.936923 C457.540435,175.196711 458.638457,171.621522 458.363951,168.347638 L438.804348,168.347638 Z" id="path23"></path>
                <polygon id="path25" points="183.523431 153.302282 149.42811 153.302282 126.368779 206.123737 124.637651 153.302282 91.8869701 153.302282 75.6785115 238.662271 94.7056622 238.662271 107.20699 173.435419 110.686238 238.662271 129.808376 238.662271 158.498119 173.035708 146.036006 238.662271 166.996459 238.662271"></polygon>
            </g>
        </g>
    </g>
</svg>
