<svg height="471" viewBox="0 0 750 471" width="750" xmlns="http://www.w3.org/2000/svg"><g fill="#393939"><path d="m697.115385 471h-644.2307696c-29.194186-.031088-52.8528192-23.162714-52.8846154-51.706587v-367.5868262c.0317962-28.5438724 23.6904294-51.67549887 52.8846154-51.7065868h644.2307696c29.194186.03108793 52.852819 23.1627144 52.884615 51.7065868v367.5868262c-.031796 28.543873-23.690429 51.675499-52.884615 51.706587zm-644.2307696-442.7964072c-13.2760757 0-24.0384616 10.5226489-24.0384616 23.502994v367.5868262c0 12.980345 10.7623859 23.502994 24.0384616 23.502994h644.2307696c13.276075 0 24.038461-10.522649 24.038461-23.502994v-367.5868262c0-12.9803451-10.762386-23.502994-24.038461-23.502994z"/><g transform="translate(154 60)"><path d="m132.787288 349.030169v-23.242457c0-8.75572-5.618644-14.645932-14.561652-14.720848-4.682204-.074915-9.607882 1.395297-13.016526 6.555085-2.556483-4.10161-6.5550846-6.555085-12.2392795-6.555085-4.3271447-.231045-8.4543263 1.841448-10.8533474 5.450085v-4.56983h-8.0627543v37.036228h8.1376695v-20.489322c0-6.433347 3.567839-9.841991 9.0647458-9.841991 5.3470762 0 8.0627542 3.483559 8.0627542 9.757712v20.601695h8.1376697v-20.517416c0-6.433347 3.745763-9.841991 9.064746-9.841991 5.496906 0 8.137669 3.483559 8.137669 9.757712v20.601695zm45.398644-18.513432v-18.522796h-8.062754v4.523008c-2.556483-3.333729-6.433347-5.421991-11.696144-5.421991-10.385127 0-18.513432 8.137669-18.513432 19.449873 0 11.312203 8.137669 19.449872 18.513432 19.449872 5.272161 0 9.139661-2.088262 11.696144-5.421991v4.494915h8.062754zm-29.966101 0c0-6.508262 4.260805-11.855339 11.237288-11.855339 6.667457 0 11.153008 5.112966 11.153008 11.855339s-4.494915 11.855339-11.153008 11.855339c-6.995212-.009364-11.256017-5.35644-11.256017-11.864703zm202.383559-19.496695c2.72186-.026821 5.422687.478988 7.950381 1.488941 2.354885.940799 4.502404 2.3343 6.320975 4.10161 1.79147 1.756537 3.211751 3.855114 4.176525 6.171144 2.009605 4.960876 2.009605 10.509124 0 15.47-.964774 2.31603-2.385055 4.414608-4.176525 6.171144-1.818267 1.767692-3.965865 3.161245-6.320975 4.101611-5.119367 1.992993-10.800124 1.992993-15.919491 0-2.350934-.937724-4.492886-2.331744-6.302246-4.101611-1.780656-1.761634-3.193901-3.859219-4.157797-6.171144-2.009604-4.960876-2.009604-10.509124 0-15.47.964336-2.311688 2.377525-4.409191 4.157797-6.171144 1.809516-1.769673 3.951427-3.163665 6.302246-4.10161 2.533533-1.012358 5.240959-1.518211 7.96911-1.488941zm0 7.622627c-1.574887-.013633-3.13711.282267-4.597924.87089-1.376805.552841-2.626012 1.381396-3.670847 2.434746-1.051537 1.075106-1.879122 2.348314-2.434746 3.745763-1.18528 3.099416-1.18528 6.527193 0 9.62661.555179 1.397679 1.382818 2.67097 2.434746 3.745763 1.044835 1.053349 2.294042 1.881905 3.670847 2.434745 2.958673 1.160516 6.246539 1.160516 9.205212 0 1.38058-.556154 2.635288-1.384134 3.689576-2.434745 1.060827-1.071355 1.895214-2.345228 2.453475-3.745763 1.18528-3.099417 1.18528-6.527194 0-9.62661-.558261-1.400535-1.392648-2.674409-2.453475-3.745763-1.054288-1.050611-2.308996-1.878591-3.689576-2.434746-1.463731-.58983-3.029255-.885753-4.607288-.87089zm-128.573305 11.864704c-.074916-11.546314-7.201229-19.449873-17.586356-19.449873-10.843983 0-18.438517 7.903559-18.438517 19.449873 0 11.780424 7.903559 19.449873 18.981652 19.449873 5.618644 0 10.694153-1.395297 15.189068-5.187882l-3.951779-5.965127c-3.059106 2.453146-6.848291 3.817252-10.769068 3.876865-5.187882 0-9.916907-2.397288-11.078093-9.064746h27.503262c.056187-1.011356.149831-2.022712.149831-3.108983zm-27.578178-3.249449c.852161-5.347077 4.10161-8.989831 9.841991-8.989831 5.187882 0 8.52161 3.249449 9.364407 8.989831zm61.514788-5.805932c-3.518392-2.026883-7.495679-3.122732-11.555678-3.183899-4.42 0-7.051398 1.629407-7.051398 4.335721 0 2.481567 2.809322 3.174533 6.274152 3.642754l3.792585.543135c8.062754 1.161187 12.94161 4.569831 12.94161 11.078094 0 7.051398-6.199237 12.089449-16.855932 12.089449-6.040042 0-11.621229-1.554492-16.041229-4.803941l3.792585-6.274152c3.553716 2.627927 7.886867 3.986571 12.30483 3.858135 5.496907 0 8.427966-1.629407 8.427966-4.494915 0-2.088263-2.088262-3.249449-6.508262-3.876865l-3.792585-.543135c-8.2875-1.161187-12.782415-4.878856-12.782415-10.928263 0-7.360424 6.040042-11.855339 15.413813-11.855339 5.890212 0 11.237288 1.320382 15.104788 3.876865zm38.721822-2.125721h-13.17572v16.762288c0 3.745763 1.320381 6.199238 5.347076 6.199238 2.513748-.082637 4.965535-.801098 7.126313-2.088263l2.322373 6.892203c-3.022385 1.883746-6.514756 2.87693-10.076101 2.865509-9.532966 0-12.857331-5.112966-12.857331-13.718856v-16.912119h-7.491525v-7.360424h7.491525v-11.237288h8.13767v11.237288h13.166356zm27.887203-8.2875c1.953897.009376 3.891932.351382 5.731017 1.011356l-2.481568 7.594534c-1.601403-.640505-3.313451-.95873-5.03805-.936441-5.272161 0-7.90356 3.408644-7.90356 9.532966v20.76089h-8.05339v-37.008135h7.941017v4.523008c2.013091-3.459027 5.757264-5.539522 9.757712-5.421991z"/><path d="m400.628051 41.3438559c-48.179825-48.20792977-124.147876-54.5247393-179.628051-14.9362288-42.549408-30.31595911-98.469836-34.32164299-144.9058258-10.3798729-46.43599 23.9417701-75.6062528 71.8190662-75.58849623 124.0637708-.01775657 52.244705 29.15250623 100.122002 75.58849623 124.063772 46.4359898 23.94177 102.3564178 19.936086 144.9058258-10.379873 42.549408 30.315959 98.469836 34.321643 144.905826 10.379873s75.606253-71.819067 75.588496-124.063772c.111091-37.05242-14.604124-72.6096927-40.866271-98.7476691zm-179.628051 190.3315681c-26.210964-23.215743-41.216193-56.551096-41.216193-91.56517 0-35.014073 15.005229-68.3494264 41.216193-91.5651693 26.194418 23.2253231 41.187664 56.5571253 41.187664 91.5651693 0 35.008045-14.993246 68.339847-41.187664 91.56517zm-80.871017 30.527966c-67.4198332 0-122.0744067-54.654574-122.0744067-122.074407 0-67.4198332 54.6545735-122.0744067 122.0744067-122.0744067 23.647951-.0694018 46.792402 6.8289863 66.543475 19.8338135-28.33862 26.452196-44.427691 63.4793622-44.427691 102.2452752 0 38.765914 16.089071 75.79308 44.427691 102.245276-19.75211 13.001522-42.896483 19.89663-66.543475 19.824449zm161.742034 0c-23.624995.069478-46.748036-6.815326-66.487288-19.796356 28.324807-26.465708 44.403531-63.494281 44.403531-102.259322s-16.078724-75.7936146-44.403531-102.2593222c19.751073-13.0048272 42.895523-19.9032153 66.543474-19.8338135 67.419833.000001 122.074405 54.6545743 122.074405 122.0744067 0 67.419833-54.654572 122.074406-122.074405 122.074407z"/></g></g></svg>