<?xml version="1.0" encoding="UTF-8" standalone="no"?>
<svg width="780px" height="501px" viewBox="0 0 780 501" version="1.1" xmlns="http://www.w3.org/2000/svg" xmlns:xlink="http://www.w3.org/1999/xlink" xmlns:sketch="http://www.bohemiancoding.com/sketch/ns">
    <!-- Generator: Sketch 3.3.1 (12005) - http://www.bohemiancoding.com/sketch -->
    <title>maestro</title>
    <desc>Created with Sketch.</desc>
    <defs></defs>
    <g id="Page-1" stroke="none" stroke-width="1" fill="none" fill-rule="evenodd" sketch:type="MSPage">
        <rect id="Rectangle-1" stroke="#393939" stroke-width="30" sketch:type="MSShapeGroup" x="15" y="15" width="750" height="471" rx="40"></rect>
        <path d="M718.706273,250.478786 C718.706273,362.903316 627.193279,454.374361 514.661287,454.374361 C467.761163,454.374361 424.490515,438.496265 389.980825,411.780789 C355.466571,438.496265 312.218749,454.374361 265.299907,454.374361 C152.804438,454.374361 61.2937269,362.903316 61.2937269,250.478786 C61.2937269,138.082998 152.804438,46.6256391 265.299907,46.6256391 C312.218749,46.6256391 355.466571,62.5429696 389.980825,89.231529 C424.490515,62.5429696 467.761163,46.6256391 514.661287,46.6256391 C627.193279,46.6256391 718.706273,138.082998 718.706273,250.478786 L718.706273,250.478786 Z M514.389277,64.6256391 C473.008694,64.6256391 434.81018,78.1752154 403.907139,101.036133 C434.079719,129.070526 455.710478,166.110597 464.594703,207.782159 L445.894917,207.782159 C437.175045,170.499382 417.169561,137.528746 389.708815,112.67417 C362.26633,137.528746 342.269976,170.499382 333.540974,207.782159 L314.850318,207.782159 C323.725412,166.110597 345.365302,129.070526 375.515056,101.036133 C344.653103,78.1752154 306.418066,64.6256391 265.027896,64.6256391 C162.46395,64.6256391 79.2937269,147.706896 79.2937269,250.221074 C79.2937269,352.733883 162.46395,435.875361 265.027896,435.875361 C306.418066,435.875361 344.653103,422.315292 375.515056,399.45483 C349.168262,374.924166 329.313435,343.591797 318.785674,308.188625 L337.90091,308.188625 C348.068006,339.13093 366.151466,366.454084 389.708815,387.82683 C413.320948,366.454084 431.367885,339.13093 441.534981,308.188625 L460.645652,308.188625 C450.154414,343.591797 430.267629,374.924166 403.907139,399.45483 C434.81018,422.315292 473.008694,435.875361 514.389277,435.875361 C616.982442,435.875361 700.140794,352.733883 700.140794,250.221074 C700.140794,147.706896 616.982442,64.6256391 514.389277,64.6256391 L514.389277,64.6256391 Z" id="path14-path" fill="#393939" sketch:type="MSShapeGroup"></path>
        <path d="M386.259962,293.737693 C378.713392,295.676605 371.404223,296.629638 363.697866,296.629638 C339.127003,296.629638 326.293727,285.432761 326.293727,263.99797 C326.293727,239.018391 342.592125,220.625639 364.752468,220.625639 C382.845059,220.625639 394.409161,230.95434 394.409161,247.091566 C394.409161,252.423347 393.633046,257.637881 391.706457,265.055019 L347.988401,265.055019 C346.408781,275.501423 354.051223,280.099155 367.067114,280.099155 C374.860214,280.099155 381.88633,278.714543 389.683995,275.560275 L386.259962,293.737693 L386.259962,293.737693 Z M374.545013,250.704402 C374.545013,249.088033 376.969228,237.880663 364.332263,237.625639 C357.351801,237.625639 352.334451,242.285872 350.293727,250.704402 L374.545013,250.704402 Z" id="path14-path" fill="#393939" sketch:type="MSShapeGroup"></path>
        <path d="M405.757937,245.391254 C405.757937,254.631426 410.967033,261.036224 422.805057,265.755309 C431.835374,269.465246 433.259772,270.530964 433.259772,273.84947 C433.259772,278.474118 429.287893,280.549895 420.408234,280.51066 C413.742782,280.470057 407.652569,279.650239 400.498622,277.659319 L397.293727,294.471742 C403.671559,295.961739 412.637961,296.467681 420.590849,296.629638 C444.180155,296.629638 455.054884,288.89908 455.054884,272.201166 C455.054884,262.176761 450.530595,256.260112 439.290635,251.853078 C429.936177,248.128542 428.858748,247.283632 428.858748,243.904906 C428.858748,239.925345 432.565834,237.906595 439.820219,237.906595 C444.202982,237.906595 450.206453,238.316276 455.913175,239.018391 L459.090678,222.04766 C453.306345,221.27757 444.48147,220.625639 439.391074,220.625639 C414.349978,220.625639 405.680326,231.872244 405.757937,245.391254 L405.757937,245.391254 Z" id="path14-path" fill="#393939" sketch:type="MSShapeGroup"></path>
        <path d="M311.552876,295.453516 L293.188645,295.453516 L293.638335,287.754893 C288.045747,293.778296 280.61103,296.629638 270.474522,296.629638 C258.515059,296.629638 250.293727,288.44469 250.293727,276.700811 C250.293727,258.82632 264.56601,248.515412 289.074783,248.515412 C291.580263,248.515412 294.811637,248.6687 298.089578,249.044621 C298.762058,246.629876 298.94376,245.613886 298.94376,244.311393 C298.94376,239.415754 295.106104,237.621461 284.76598,237.621461 C274.609841,237.663889 267.754927,239.169854 261.397182,240.878834 L264.524922,224.480197 C275.537069,221.703674 282.748996,220.625639 290.888151,220.625639 C309.863687,220.625639 319.907517,228.033653 319.907517,242.021196 C320.058175,245.737064 318.757042,253.248639 318.104193,256.497344 C317.350906,261.280299 312.105287,288.89908 311.552876,295.453516 Z M296.078431,262.955482 C293.76698,262.696809 292.73977,262.625639 291.138236,262.625639 C278.610383,262.625639 272.293727,266.323715 272.293727,273.692495 C272.293727,278.357746 275.380835,281.209088 280.210092,281.209088 C289.181972,281.209088 295.693113,273.692495 296.078431,262.955482 L296.078431,262.955482 Z" id="path14-path" fill="#393939" sketch:type="MSShapeGroup"></path>
        <path d="M499.426743,278.958957 C497.901907,279.482691 495.984448,279.689357 493.478056,279.689357 C488.259829,279.689357 485.97714,278.05702 485.97714,274.271807 C485.97714,271.91044 492.154096,240.925251 492.154096,240.925251 L503.421448,240.925251 L506.434597,223.102768 L495.231161,223.102768 L498.568452,205.625639 L476.727685,205.625639 C476.727685,205.625639 466.948647,258.447088 466.341451,262.089506 C465.729691,265.712307 462.953941,278.713057 463.328302,281.478631 C463.328302,291.700577 469.459604,297.438845 480.726956,297.438845 C485.771698,297.438845 490.483168,296.770947 496.491205,295.117169 L499.426743,278.958957 L499.426743,278.958957 Z" id="path14-path" fill="#393939" sketch:type="MSShapeGroup"></path>
        <path d="M596.821678,296.629638 C572.218858,296.629638 562.293727,281.687238 562.293727,263.427701 C562.293727,237.906595 579.098882,220.625639 605.112403,220.625639 C627.711022,220.625639 639.708835,234.855431 639.708835,253.114968 C639.708835,283.401237 621.69842,296.629638 596.821678,296.629638 Z M604.244792,238.625639 C593.182882,238.625639 586.293727,251.717176 586.293727,263.298642 C586.293727,273.082622 590.98237,279.595999 598.7846,279.494263 C609.48128,279.494263 616.247169,269.705265 616.247169,253.226334 C616.247169,245.732552 613.188366,238.625639 604.244792,238.625639 Z" id="path14-path" fill="#393939" sketch:type="MSShapeGroup"></path>
        <path d="M520.766339,222.389723 C517.995154,245.029377 513.059981,267.982451 509.234195,290.627579 L508.293727,295.601232 L530.376458,295.601232 C538.324781,251.799603 540.977265,239.317569 557.636328,243.726428 C558.494619,241.37601 565.662262,223.022037 565.662262,223.022037 C554.052506,218.748674 546.556156,224.865144 539.790267,233.484865 C540.397462,229.565981 541.547937,225.820002 541.260318,222.389723 L520.766339,222.389723 L520.766339,222.389723 Z" id="path14-path" fill="#393939" sketch:type="MSShapeGroup"></path>
        <path d="M253.290474,206.625639 L217.566395,206.625639 L193.405504,261.970412 L191.591679,206.625639 L157.276475,206.625639 L140.293727,296.063335 L160.229818,296.063335 L173.328343,227.72055 L176.973797,296.063335 L197.009413,296.063335 L227.069685,227.301745 L214.012248,296.063335 L235.973997,296.063335 L253.290474,206.625639 L253.290474,206.625639 Z" id="path14-path" fill="#393939" sketch:type="MSShapeGroup"></path>
        <g id="path14-path-+-path14-path" sketch:type="MSLayerGroup" transform="translate(691.000000, 357.000000)" fill="#393939">
            <path d="M0.380197915,6.71952422 C0.380197915,3.09799635 3.35467941,0.128544131 6.98254164,0.128544131 C10.6104039,0.128544131 13.5848854,3.09799635 13.5848854,6.71952422 C13.5848854,10.3387721 10.6104039,13.3045764 6.98254164,13.3045764 C3.35467941,13.3045764 0.380197915,10.3387721 0.380197915,6.71952422 Z M7.03304525,11.7190749 C9.80648653,11.7190749 12.0864654,9.43909011 12.0864654,6.71952422 C12.0864654,3.95299065 9.80648653,1.71404557 7.03304525,1.71404557 C4.26417307,1.71404557 2.02531603,3.95299065 2.02531603,6.71952422 C2.02531603,9.43909011 4.26417307,11.7190749 7.03304525,11.7190749 Z" id="path14-path" sketch:type="MSShapeGroup"></path>
            <path d="M6.36863026,7.20880629 L7.3464168,7.20880629 L8.24195962,9.52983083 L9.7497613,9.52983083 L8.69430012,6.96986388 C9.30198989,6.72408152 9.70863944,6.15408531 9.70863944,5.4810338 C9.70863944,4.93429344 9.38423362,4.3250815 8.97758408,4.02229951 C8.52981267,3.71404557 7.95867567,3.71404557 7.46978239,3.71404557 L5.02531603,3.71404557 L5.02531603,9.52983083 L6.36863026,9.52983083 L6.36863026,7.20880629 L6.36863026,7.20880629 Z M6.02531603,4.71987797 L6.75637139,4.71987797 C7.00310258,4.71987797 7.36863026,4.68066223 7.57423958,4.8056054 C7.7798489,4.96566033 7.93976726,5.17085897 7.93976726,5.41664133 C7.93976726,5.67838359 7.82097076,5.94012584 7.57423958,6.10565274 C7.36863026,6.20734006 7.04422444,6.20734006 6.79749325,6.20734006 L6.02531603,6.20734006 L6.02531603,4.71987797 L6.02531603,4.71987797 Z" id="path14-path" sketch:type="MSShapeGroup"></path>
        </g>
        <g id="path14-path-+-path14-path-copy" sketch:type="MSLayerGroup" transform="translate(633.000000, 289.000000)" fill="#393939">
            <path d="M0.380197915,6.71952422 C0.380197915,3.09799635 3.35467941,0.128544131 6.98254164,0.128544131 C10.6104039,0.128544131 13.5848854,3.09799635 13.5848854,6.71952422 C13.5848854,10.3387721 10.6104039,13.3045764 6.98254164,13.3045764 C3.35467941,13.3045764 0.380197915,10.3387721 0.380197915,6.71952422 Z M7.03304525,11.7190749 C9.80648653,11.7190749 12.0864654,9.43909011 12.0864654,6.71952422 C12.0864654,3.95299065 9.80648653,1.71404557 7.03304525,1.71404557 C4.26417307,1.71404557 2.02531603,3.95299065 2.02531603,6.71952422 C2.02531603,9.43909011 4.26417307,11.7190749 7.03304525,11.7190749 Z" id="path14-path" sketch:type="MSShapeGroup"></path>
            <path d="M6.36863026,7.20880629 L7.3464168,7.20880629 L8.24195962,9.52983083 L9.7497613,9.52983083 L8.69430012,6.96986388 C9.30198989,6.72408152 9.70863944,6.15408531 9.70863944,5.4810338 C9.70863944,4.93429344 9.38423362,4.3250815 8.97758408,4.02229951 C8.52981267,3.71404557 7.95867567,3.71404557 7.46978239,3.71404557 L5.02531603,3.71404557 L5.02531603,9.52983083 L6.36863026,9.52983083 L6.36863026,7.20880629 L6.36863026,7.20880629 Z M6.02531603,4.71987797 L6.75637139,4.71987797 C7.00310258,4.71987797 7.36863026,4.68066223 7.57423958,4.8056054 C7.7798489,4.96566033 7.93976726,5.17085897 7.93976726,5.41664133 C7.93976726,5.67838359 7.82097076,5.94012584 7.57423958,6.10565274 C7.36863026,6.20734006 7.04422444,6.20734006 6.79749325,6.20734006 L6.02531603,6.20734006 L6.02531603,4.71987797 L6.02531603,4.71987797 Z" id="path14-path" sketch:type="MSShapeGroup"></path>
        </g>
    </g>
</svg>