<svg height="471" viewBox="0 0 750 471" width="750" xmlns="http://www.w3.org/2000/svg"><g fill="#393939"><path d="m52.8846154 28.2035928c-13.2760757 0-24.0384616 10.5226489-24.0384616 23.502994v367.5868262c0 12.980345 10.7623859 23.502994 24.0384616 23.502994h644.2307696c13.276075 0 24.038461-10.522649 24.038461-23.502994v-367.5868262c0-12.9803451-10.762386-23.502994-24.038461-23.502994zm0-28.2035928h644.2307696c29.207366 0 52.884615 23.1498275 52.884615 51.7065868v367.5868262c0 28.55676-23.677249 51.706587-52.884615 51.706587h-644.2307696c-29.2073666 0-52.8846154-23.149827-52.8846154-51.706587v-367.5868262c0-28.5567593 23.6772488-51.7065868 52.8846154-51.7065868z"/><g transform="translate(61 40)"><path d="m627.719665 195.156045c0 107.298792-87.340669 194.599424-194.742023 194.599424-44.761821 0-86.059643-15.15417-118.995943-40.651616-32.940656 25.497446-74.216692 40.651616-118.996377 40.651616-107.3664967 0-194.7049869-87.300632-194.7049869-194.599424 0-107.27136 87.3384902-194.55893048 194.7049869-194.55893048 44.779685 0 86.055721 15.19161638 118.996377 40.66337208 32.9363-25.4717557 74.234122-40.66337208 118.995943-40.66337208 107.401354 0 194.742023 87.28757048 194.742023 194.55893048zm-195.001632-177.3795992c-39.49393 0-75.95087 12.9318145-105.444958 34.750441 28.79693 26.7562292 49.441485 62.1075432 57.920654 101.8791862h-17.847212c-8.32231-35.582955-27.41569-67.0503701-53.624426-90.7717588-26.191308 23.7213887-45.275974 55.1888038-53.606997 90.7717588h-17.838499c8.470455-39.771643 29.123724-75.122957 57.898869-101.8791862-29.454873-21.8186265-65.946672-34.750441-105.449752-34.750441-97.887778 0-177.2660456 79.2933577-177.2660456 177.1336372 0 97.838973 79.3782676 177.189806 177.2660456 177.189806 39.50308 0 75.994879-12.941829 105.449752-34.760021-25.145573-23.412245-44.095164-53.316086-54.142936-87.105132h18.24372c9.703551 29.531562 26.962537 55.608979 49.445843 76.007284 22.535592-20.398305 39.75972-46.475722 49.463271-76.007284h18.239364c-10.012914 33.789046-28.993007 63.692887-54.151651 87.105132 29.494088 21.818192 65.951028 34.760021 105.444958 34.760021 97.915665 0 177.282603-79.350833 177.282603-177.189806 0-97.8402795-79.366938-177.1336372-177.282603-177.1336372z"/><path d="m310.43048 236.442661c-7.202501 1.850512-14.178425 2.760094-21.533429 2.760094-23.45061 0-35.698783-10.686381-35.698783-31.143902 0-23.840693 15.55531-41.394869 36.705303-41.394869 17.267701 0 28.304564 9.857787 28.304564 25.259274 0 5.08869-.740729 10.065479-2.57948 17.14445h-41.724832c-1.5076 9.970124 5.786402 14.358233 18.208863 14.358233 7.437792 0 14.143568-1.321484 21.585717-4.33194zm-11.180832-41.071286c0-1.542675 2.313688-12.23907-9.747123-12.482467-6.662204 0-11.4508 4.44776-13.398482 12.482467z"/><path d="m329.03949 190.300467c0 8.818888 4.971599 14.931674 16.269896 19.435603 8.6186 3.540791 9.978056 4.55792 9.978056 7.725126 0 4.413798-3.79079 6.394935-12.265602 6.357489-6.361556-.038752-12.174099-.821192-19.001879-2.721341l-3.058775 16.045899c6.08705 1.422064 14.644649 1.904939 22.234943 2.059512 22.513806 0 32.892727-7.378101 32.892727-23.314712 0-9.567365-4.318015-15.214258-15.045514-19.420364-8.927963-3.554724-9.956269-4.361112-9.956269-7.585793 0-3.798122 3.538069-5.724832 10.461707-5.724832 4.182941 0 9.912698.391003 15.359235 1.061106l3.032632-16.196989c-5.52061-.73498-13.943135-1.357187-18.801446-1.357187-23.899404 0-32.173783 10.733842-32.099711 23.636483z"/><path d="m239.129493 238.080255h-17.526956l.429187-7.347622c-5.337607 5.74878-12.433355 8.470122-22.107712 8.470122-11.414199 0-19.260698-7.811774-19.260698-19.020218 0-17.059545 13.621571-26.90035 37.012923-26.90035 2.391248 0 5.475295.146299 8.603786.50508.64182-2.30465.815237-3.274318.815237-4.517427 0-4.672433-3.662687-6.38492-13.531376-6.38492-9.693094.040494-16.235473 1.477798-22.303352 3.108861l2.985138-15.650979c10.510074-2.649934 17.393189-3.678818 25.161258-3.678818 18.11039 0 27.696295 7.070262 27.696295 20.420075.143789 3.546452-1.098022 10.715554-1.721106 13.816142-.718942 4.564887-5.725399 30.924453-6.252624 37.180054zm-14.768924-31.01636c-2.206065-.24688-3.186442-.314805-4.714958-.314805-11.956674 0-17.985337 3.529471-17.985337 10.562288 0 4.45255 2.946359 7.173891 7.555437 7.173891 8.562828 0 14.777108-7.173891 15.144858-17.421374z"/><path d="m418.437682 222.337728c-1.455315.499856-3.285352.697099-5.67747.697099-4.980314 0-7.158929-1.557914-7.158929-5.170549 0-2.253706 5.895331-31.826196 5.895331-31.826196h10.753643l2.875772-17.009908h-10.692641l3.185135-16.6803h-20.844988s-9.333185 50.413177-9.912697 53.889527c-.583868 3.457628-3.233065 15.865638-2.875772 18.505122 0 9.7559 5.85176 15.232545 16.605403 15.232545 4.814738 0 9.3114-.637447 15.045514-2.215825z"/><path d="m511.392118 239.202755c-23.481111 0-32.953728-14.261136-32.953728-31.688171 0-24.35753 16.038962-40.8506 40.866457-40.8506 21.568286 0 33.019087 13.581017 33.019087 31.008052 0 28.905436-17.189272 41.530719-40.931816 41.530719zm7.084674-55.35944c-10.557567 0-17.132627 12.494658-17.132627 23.548094 0 9.337902 4.474875 15.554316 11.92138 15.457219 10.20899 0 16.666404-9.342691 16.666404-25.070303 0-7.15212-2.919344-13.93501-11.455157-13.93501z"/><path d="m438.804348 168.347638c-2.644839 21.607451-7.355004 43.514033-11.006362 65.126708l-.89759 4.746891h21.07592c7.585937-41.804595 10.117487-53.717539 26.017018-49.509692.81916-2.243256 7.66001-19.760422 7.66001-19.760422-11.080436-4.078528-18.235007 1.759075-24.69242 9.9858.579511-3.740212 1.677533-7.315401 1.403027-10.589285z"/><path d="m183.523431 153.302282h-34.095321l-23.059331 52.821455-1.731128-52.821455h-32.7506809l-16.2084586 85.359989h19.0271507l12.5013278-65.226852 3.479248 65.226852h19.122138l28.689743-65.626563-12.462113 65.626563h20.960453z"/></g></g></svg>