<svg height="471" viewBox="0 0 750 471" width="750" xmlns="http://www.w3.org/2000/svg"><g fill="#393939"><path d="m697.115385 471h-644.2307696c-29.194186-.031088-52.8528192-23.162714-52.8846154-51.706587v-367.5868262c.0317962-28.5438724 23.6904294-51.67549887 52.8846154-51.7065868h644.2307696c29.194186.03108793 52.852819 23.1627144 52.884615 51.7065868v367.5868262c-.031796 28.543873-23.690429 51.675499-52.884615 51.706587zm-644.2307696-442.7964072c-13.2760757 0-24.0384616 10.5226489-24.0384616 23.502994v367.5868262c0 12.980345 10.7623859 23.502994 24.0384616 23.502994h644.2307696c13.276075 0 24.038461-10.522649 24.038461-23.502994v-367.5868262c0-12.9803451-10.762386-23.502994-24.038461-23.502994z"/><g transform="translate(159 64)"><path d="m74.2545763 342.003051v-22.744068c0-8.722373-5.3084746-14.406102-14.0216949-14.406102-4.5762712 0-9.4728814 1.519322-12.8867797 6.40678-2.6542373-4.173559-6.4067797-6.40678-12.1271186-6.40678-4.3200779-.186704-8.4454777 1.807239-10.9830509 5.308475v-4.576271h-7.2030508v36.390508h7.2030508v-20.822034c0-6.406779 3.7891525-9.472881 9.0976271-9.472881s8.3379661 3.413898 8.3379661 9.472881v20.849492h7.2030509v-20.849492c0-6.406779 3.7891525-9.472881 9.0976271-9.472881s8.3379661 3.413898 8.3379661 9.472881v20.849492zm118.2691527-36.015254h-13.271187v-10.983051h-7.184745v10.983051h-7.578305v6.406779h7.578305v17.096949c0 8.337967 3.029491 13.271187 12.127118 13.271187 3.44665-.071863 6.823816-.982913 9.838983-2.654237l-2.278983-6.40678c-2.044966 1.278204-4.416582 1.93628-6.827796 1.894576-3.789153 0-5.683729-2.278983-5.683729-6.068135v-17.426441h13.271186v-6.068136zm67.472542-1.134916c-3.991098-.08892-7.734964 1.927275-9.857288 5.308475v-4.576271h-7.203051v36.390508h7.203051v-20.437627c0-6.068135 3.029492-9.857288 7.962712-9.857288 1.664673.06753 3.316442.322357 4.924068.759661l2.278983-6.827797c-1.738056-.438168-3.517286-.692782-5.308475-.759661zm-101.968474 3.789153c-3.789153-2.654237-9.097628-3.789153-14.781356-3.789153-9.097627 0-14.781356 4.17356-14.781356 11.376611 0 6.068135 4.173559 9.472881 12.127118 10.616949l3.789153.375254c4.173559.759661 6.827797 2.278983 6.827797 4.173559 0 2.654238-3.029492 4.576271-8.722373 4.576271-4.346884.089435-8.604407-1.24084-12.127119-3.789152l-3.789153 5.683729c5.308475 3.789152 11.751865 4.576271 15.559323 4.576271 10.616949 0 16.300677-4.924068 16.300677-11.751865 0-6.406779-4.576271-9.472881-12.511525-10.616949l-3.789152-.375254c-3.413899-.375254-6.40678-1.519322-6.40678-3.789152 0-2.654238 3.029491-4.576272 7.203051-4.576272 4.576271 0 9.097627 1.894577 11.37661 3.029492zm109.931186 15.165763c0 10.98305 7.203051 18.954915 18.954915 18.954915 5.308475 0 9.097627-1.134915 12.88678-4.173559l-3.789153-5.683729c-2.682831 2.172704-6.020814 3.375667-9.472881 3.413898-6.40678 0-11.37661-4.924068-11.37661-12.127119 0-7.20305 4.905763-12.090508 11.37661-12.090508 3.452067.03823 6.79005 1.241194 9.472881 3.413898l3.789153-5.683729c-3.789153-3.029491-7.578305-4.173559-12.88678-4.173559-11.37661-.759661-18.954915 7.203051-18.954915 18.195254zm-50.79661-18.954916c-10.616949 0-17.82 7.578305-17.82 18.954916 0 11.37661 7.578305 18.954915 18.570508 18.954915 5.347625.11295 10.569801-1.626698 14.781356-4.924068l-3.789152-5.308475c-3.045845 2.360206-6.765012 3.687564-10.616949 3.789153-4.924068 0-10.232543-3.029491-10.983051-9.472881h26.917627v-3.029492c0-11.37661-6.827797-18.954915-17.060339-18.954915zm-.375254 6.827797c5.308474 0 9.097627 3.413898 9.472881 9.097627h-19.705424c1.134916-5.308474 4.576271-9.097627 10.232543-9.097627zm-98.179322 12.127119v-18.195255h-7.203051v4.576272c-2.654238-3.413899-6.40678-5.308475-11.7518646-5.308475-10.2325424 0-17.82 7.962712-17.82 18.954915 0 10.992204 7.578305 18.954915 17.82 18.954915 5.3084746 0 9.0976266-1.894576 11.7518646-5.308474v4.576271h7.203051zm-29.187458 0c0-6.827797 4.1735593-12.127119 11.37661-12.127119 6.827797 0 10.983051 5.308475 10.983051 12.127119 0 7.20305-4.576271 12.127118-10.983051 12.127118-7.2030507.375254-11.37661-5.308474-11.37661-12.127118zm280.141017-18.954916c-3.991099-.08892-7.734964 1.927275-9.857288 5.308475v-4.576271h-7.203051v36.390508h7.193898v-20.437627c0-6.068135 3.029492-9.857288 7.962712-9.857288 1.664673.06753 3.316442.322357 4.924068.759661l2.278983-6.827797c-1.738056-.438168-3.517286-.692782-5.308475-.759661zm-28.052542 18.954916v-18.195255h-7.203051v4.576272c-2.654238-3.413899-6.40678-5.308475-11.751865-5.308475-10.232542 0-17.82 7.962712-17.82 18.954915 0 10.992204 7.578305 18.954915 17.82 18.954915 5.308475 0 9.097627-1.894576 11.751865-5.308474v4.576271h7.203051zm-29.187458 0c0-6.827797 4.173559-12.127119 11.37661-12.127119 6.827797 0 10.983051 5.308475 10.983051 12.127119 0 7.20305-4.576271 12.127118-10.983051 12.127118-7.203051.375254-11.37661-5.308474-11.37661-12.127118zm102.352881 0v-32.601356h-7.203051v18.954915c-2.654237-3.413898-6.406779-5.308475-11.751864-5.308475-10.232542 0-17.82 7.962712-17.82 18.954916 0 10.992203 7.578305 18.954915 17.82 18.954915 5.308475 0 9.097627-1.894576 11.751864-5.308475v4.576271h7.203051zm-29.187457 0c0-6.827797 4.173559-12.127119 11.37661-12.127119 6.827796 0 10.983051 5.308475 10.983051 12.127119 0 7.20305-4.576272 12.127118-10.983051 12.127118-7.212204.384407-11.385763-5.299322-11.385763-12.127118z"/><path d="m391.564068 40.4084746c-47.089784-47.11725268-121.3391-53.291148-175.564068-14.5983051-41.586752-29.63007771-96.242011-33.54513526-141.6274134-10.1450342-45.385402 23.4001011-73.89570414 70.1942004-73.87834931 121.2568987-.01735483 51.062698 28.49294731 97.856797 73.87834931 121.256898 45.3854024 23.400102 100.0406614 19.485044 141.6274134-10.145034 41.586752 29.630078 96.242011 33.545136 141.627413 10.145034 45.385402-23.400101 73.895705-70.1942 73.87835-121.256898.108577-36.214131-14.273714-70.96694-39.941695-96.5135594zm-175.564068 186.0254234c-25.617956-22.6905-40.2837-55.271659-40.2837-89.493559s14.665744-66.8030595 40.2837-89.4935593c25.601785 22.6998632 40.255816 55.2775523 40.255816 89.4935593s-14.654031 66.793696-40.255816 89.493559zm-79.041356 29.837288c-65.8944975 0-119.3125423-53.418044-119.3125423-119.312542 0-65.8944975 53.4180448-119.3125423 119.3125423-119.3125423 23.11293-.0678316 45.73375 6.6744843 65.037966 19.3850847-27.697474 25.85373-43.422539 62.0431774-43.422539 99.9320336 0 37.888857 15.725065 74.078304 43.422539 99.932034-19.30523 12.70737-41.925974 19.44648-65.037966 19.375932zm158.082712 0c-23.090493.067907-45.690388-6.661132-64.983051-19.348474 27.683975-25.866936 43.398927-62.057759 43.398927-99.945763 0-37.8880036-15.714952-74.0788266-43.398927-99.9457626 19.304216-12.7106004 41.925036-19.4529163 65.037966-19.3850847 65.894497.000001 119.312541 53.4180454 119.312541 119.3125423 0 65.894497-53.418044 119.312541-119.312541 119.312542z"/></g></g></svg>