<svg width="750" height="471" viewBox="0 0 750 471" version="1.1" xmlns="http://www.w3.org/2000/svg" xmlns:xlink="http://www.w3.org/1999/xlink">
    <!-- Generator: Sketch 48.2 (47327) - http://www.bohemiancoding.com/sketch -->
    <desc>Created with Sketch.</desc>
    <defs></defs>
    <g id="Page-1" stroke="none" stroke-width="1" fill="none" fill-rule="evenodd">
        <g id="mastercard" fill="#393939" fill-rule="nonzero">
            <path d="M52.8846154,28.2035928 C39.6085397,28.2035928 28.8461538,38.7262417 28.8461538,51.7065868 L28.8461538,419.293413 C28.8461538,432.273758 39.6085397,442.796407 52.8846154,442.796407 L697.115385,442.796407 C710.39146,442.796407 721.153846,432.273758 721.153846,419.293413 L721.153846,51.7065868 C721.153846,38.7262417 710.39146,28.2035928 697.115385,28.2035928 L52.8846154,28.2035928 Z M52.8846154,0 L697.115385,0 C726.322751,-5.0099645e-15 750,23.1498275 750,51.7065868 L750,419.293413 C750,447.850173 726.322751,471 697.115385,471 L52.8846154,471 C23.6772488,471 3.41607085e-15,447.850173 0,419.293413 L0,51.7065868 C-3.41607085e-15,23.1498275 23.6772488,5.0099645e-15 52.8846154,0 Z" id="Rectangle-1"></path>
            <g id="Group" transform="translate(61.000000, 40.000000)">
                <path d="M627.975838,195.157578 C627.975838,302.396893 540.546589,389.671093 433.088283,389.671093 C388.268202,389.671093 346.949825,374.455828 313.986699,349.01146 C281.045378,374.455828 239.727437,389.671093 194.905175,389.671093 C87.4494867,389.671093 0.0241617751,302.396893 0.0241617751,195.157578 C0.0241617751,87.914347 87.4494867,0.681490329 194.905175,0.681490329 C239.727437,0.681490329 281.045378,15.8397441 313.986699,41.3211038 C346.949825,15.8397441 388.268202,0.681490329 433.088283,0.681490329 C540.546589,0.681490329 627.975838,87.914347 627.975838,195.157578 Z M432.807494,17.8608216 C393.277036,17.8608216 356.78168,30.7864643 327.298456,52.5990305 C354.038751,77.4362844 373.814881,109.689463 383.264688,146.037936 L365.202343,146.037936 C355.948772,113.902264 337.860263,85.5311309 313.70591,63.696805 C289.577722,85.5311309 271.47613,113.902264 262.257444,146.037936 L244.168935,146.037936 C253.640545,109.689463 273.416677,77.4362844 300.15697,52.5990305 C270.656304,30.7864643 234.174467,17.8608216 194.624385,17.8608216 C96.6376908,17.8608216 17.2034931,97.1337449 17.2034931,194.946045 C17.2034931,292.733102 96.6376908,372.030832 194.624385,372.030832 C234.174467,372.030832 270.656304,359.105625 300.15697,337.294364 C274.995279,313.907219 256.01281,283.944099 245.978658,250.215571 L264.241599,250.215571 C273.94433,279.748271 291.169406,305.814984 313.70591,326.193108 C336.268577,305.814984 353.515457,279.748271 363.21819,250.215571 L381.476769,250.215571 C371.425174,283.944099 352.447067,313.907219 327.298456,337.294364 C356.78168,359.105625 393.277036,372.030832 432.807494,372.030832 C530.794188,372.030832 610.23013,292.733102 610.23013,194.946045 C610.23013,97.1337449 530.794188,17.8608216 432.807494,17.8608216 Z" id="path14-path" stroke="#979797"></path>
                <polygon id="path13" points="122.86111 152.432251 94.451074 152.432251 76.6965997 205.25722 75.9570123 152.432251 49.6288109 152.432251 35.3372317 237.781967 52.4702943 237.781967 63.474283 172.575798 65.0110219 237.781967 77.4937503 237.781967 100.886711 172.186288 90.4055791 237.781967 108.703842 237.781967"></polygon>
                <path d="M170.015636,237.698823 L154.848412,237.698823 L155.200763,230.499197 C150.570924,236.185609 144.406528,238.905652 136.029036,238.905652 C126.091257,238.905652 119.325074,231.162017 119.325074,219.962404 C119.325074,203.038516 131.126213,193.200666 151.427817,193.200666 C153.507909,193.200666 156.171909,193.394333 158.893906,193.742933 C159.459499,191.43242 159.595992,190.46365 159.595992,189.2207 C159.595992,184.641018 156.423961,182.913682 147.867677,182.913682 C138.924593,182.796612 131.535254,185.030093 128.50146,186.038467 C128.697259,184.873853 131.049899,170.435432 131.049899,170.435432 C140.15128,167.75804 146.176132,166.74836 152.94406,166.74836 C168.656381,166.74836 176.979363,173.772598 176.960612,187.087316 C176.979363,190.657317 176.395018,195.062045 175.481872,200.867704 C173.887571,210.897916 170.483984,232.440654 170.015636,237.698823 Z M157.159065,207.105471 C155.234218,206.909627 154.396076,206.833466 153.074324,206.833466 C142.690003,206.833466 137.458812,210.381272 137.458812,217.370258 C137.458812,221.700131 140.026003,224.45412 143.993439,224.45412 C151.461272,224.45412 156.826774,217.370258 157.159065,207.105471 Z" id="path15"></path>
                <path d="M409.634735,150.523436 C385.384445,150.523436 368.425378,171.831597 368.425378,202.342207 C368.425378,225.006908 380.700969,239.176372 400.398606,239.176372 C405.452748,239.176372 409.82661,238.513552 416.555291,236.652172 L419.764823,217.224104 C413.716424,220.195696 408.740776,221.610118 404.223009,221.610118 C393.58707,221.610118 387.168004,213.769432 387.168004,200.82377 C387.168004,182.019789 396.72247,168.841291 410.38915,168.841291 C415.465096,168.841291 420.209623,170.162143 426.742069,173.461881 L429.737924,154.948619 C427.056045,153.901511 417.623681,150.523436 409.634735,150.523436 Z" id="path17"></path>
                <path d="M475.451263,237.698823 L460.306279,237.698823 L460.655141,230.499197 C456.006551,236.185609 449.822967,238.905652 441.458994,238.905652 C431.542583,238.905652 424.735408,231.162017 424.735408,219.962404 C424.735408,203.038516 436.579283,193.200666 456.861263,193.200666 C458.941355,193.200666 461.605791,193.394333 464.331278,193.742933 C464.889457,191.43242 465.029002,190.46365 465.029002,189.2207 C465.029002,184.641018 461.858716,182.913682 453.320311,182.913682 C444.358911,182.796612 436.989196,185.030093 433.954094,186.038467 C434.128525,184.873853 436.483346,170.435432 436.483346,170.435432 C445.601733,167.75804 451.628329,166.74836 458.35701,166.74836 C474.0907,166.74836 482.415426,173.772598 482.393622,187.087316 C482.432869,190.657317 481.831082,195.062045 480.915318,200.867704 C479.341077,210.897916 475.922227,232.440654 475.451263,237.698823 Z M462.588587,207.105471 C460.682927,206.909627 459.828214,206.833466 458.485095,206.833466 C448.119524,206.833466 442.869147,210.381272 442.869147,217.370258 C442.869147,221.700131 445.437646,224.45412 449.445201,224.45412 C456.893411,224.45412 462.278972,217.370258 462.588587,207.105471 Z" id="path19"></path>
                <path d="M260.067396,221.615331 C258.842017,222.045751 257.228529,222.275105 255.148437,222.275105 C250.79202,222.275105 248.868916,220.724463 248.868916,217.132701 C248.908164,214.922285 251.921461,198.503672 254.023357,185.325175 L263.412113,185.325175 L265.902118,168.634122 L256.548247,168.634122 L258.667586,158.158694 L240.484447,158.158694 C240.484447,158.158694 233.602703,199.008512 232.572251,205.470463 C231.405306,212.865498 229.928311,220.918565 230.042564,223.983726 C230.042564,233.864227 235.139005,239.241208 244.490695,239.241208 C248.733732,239.241208 252.636629,238.539219 257.660246,236.989012 L260.067396,221.615331 Z" id="path21"></path>
                <path d="M315.968704,236.109447 C309.706626,238.013477 303.67567,238.905652 297.300211,238.905652 C276.917932,238.863436 266.303797,228.250047 266.303797,207.931111 C266.303797,184.21408 279.81785,166.74836 298.154923,166.74836 C313.14728,166.74836 322.736632,176.509613 322.736632,191.879813 C322.736632,196.964335 322.05635,201.913071 320.477749,208.95994 L284.270205,208.95994 C283.044826,218.990152 289.503139,223.183805 300.082388,223.183805 C306.59303,223.183805 312.449556,221.862952 318.982002,218.836959 L315.968704,236.109447 Z M306.432096,195.396698 C306.549837,193.960515 308.3552,182.973284 297.972186,182.973284 C292.176711,182.973284 288.016529,187.418487 286.34635,195.396698 L306.432096,195.396698 Z" id="path23"></path>
                <path d="M184.505902,190.230815 C184.505902,199.023298 188.744142,205.058311 198.428124,209.619278 C205.837959,213.111378 206.984407,214.119317 206.984407,217.286753 C206.984407,221.590948 203.717311,223.532405 196.464029,223.532405 C191.020032,223.532405 185.924899,222.716393 180.070117,220.817585 C180.070117,220.817585 177.66166,236.109447 177.543919,236.848864 C181.725905,237.741473 185.419049,238.591432 196.600521,238.905652 C215.90874,238.905652 224.816066,231.548045 224.816066,215.712174 C224.816066,206.146328 221.100683,200.5957 211.920808,196.381158 C204.262409,192.850324 203.368014,192.07348 203.368014,188.833365 C203.368014,185.067521 206.420558,183.165232 212.350345,183.165232 C215.927491,183.165232 220.846886,183.554741 225.47498,184.21408 L228.083162,168.10664 C223.337326,167.368529 216.162537,166.74836 211.980551,166.74836 C191.505387,166.74836 184.427844,177.402223 184.505902,190.230815 Z" id="path25"></path>
                <path d="M578.456133,237.781967 L561.135121,237.781967 L562.007277,231.321757 C556.970577,236.660004 551.820498,238.988795 545.131063,238.988795 C531.826328,238.988795 523.039359,227.556347 523.039359,210.207697 C523.039359,187.090381 536.666792,167.645775 552.806033,167.645775 C559.887938,167.645775 565.290943,170.518575 570.292756,177.097597 L574.335197,152.432251 L592.38446,152.432251 L578.456133,237.781967 Z M551.503179,221.874678 C560.01978,221.874678 566.028932,212.227014 566.028932,198.487099 C566.028932,189.657187 562.627525,184.882099 556.32184,184.882099 C548.018917,184.882099 542.127505,194.528022 542.127505,208.172192 C542.127505,217.272801 545.280348,221.874678 551.503179,221.874678 Z" id="path27"></path>
                <path d="M495.228638,168.452296 C492.934869,189.918437 488.870623,211.67225 485.700337,233.177561 L484.863068,237.852553 L503.143451,237.852553 C509.697702,195.411183 511.289386,187.123539 521.537215,188.171083 C523.168146,179.4565 526.203248,171.871281 528.497018,168.02884 C520.822048,166.434242 516.539763,170.783264 510.962328,178.99257 C511.407126,175.420828 512.205149,171.984869 512.030718,168.452296 L495.228638,168.452296 Z" id="path29"></path>
                <path d="M334.910017,168.452296 C332.611886,189.918437 328.530197,211.67225 325.359911,233.177561 L324.522642,237.852553 L342.820469,237.852553 C349.374719,195.411183 350.94896,187.123539 361.196789,188.171083 C362.849525,179.4565 365.90207,171.871281 368.160953,168.02884 C360.516508,166.434242 356.203699,170.783264 350.617541,178.99257 C351.066701,175.420828 351.860363,171.984869 351.707736,168.452296 L334.910017,168.452296 Z" id="path31"></path>
            </g>
        </g>
    </g>
</svg>