<svg height="471" viewBox="0 0 750 471" width="750" xmlns="http://www.w3.org/2000/svg"><g fill="#393939"><path d="m52.8846154 28.2035928c-13.2760757 0-24.0384616 10.5226489-24.0384616 23.502994v367.5868262c0 12.980345 10.7623859 23.502994 24.0384616 23.502994h644.2307696c13.276075 0 24.038461-10.522649 24.038461-23.502994v-367.5868262c0-12.9803451-10.762386-23.502994-24.038461-23.502994zm0-28.2035928h644.2307696c29.207366 0 52.884615 23.1498275 52.884615 51.7065868v367.5868262c0 28.55676-23.677249 51.706587-52.884615 51.706587h-644.2307696c-29.2073666 0-52.8846154-23.149827-52.8846154-51.706587v-367.5868262c0-28.5567593 23.6772488-51.7065868 52.8846154-51.7065868z"/><g transform="translate(61 40)"><path d="m627.975838 195.157578c0 107.239315-87.429249 194.513515-194.887555 194.513515-44.820081 0-86.138458-15.215265-119.101584-40.659633-32.941321 25.444368-74.259262 40.659633-119.081524 40.659633-107.4556883 0-194.88101322-87.2742-194.88101322-194.513515 0-107.243231 87.42532492-194.47608767 194.88101322-194.47608767 44.822262 0 86.140203 15.15825377 119.081524 40.63961347 32.963126-25.4813597 74.281503-40.63961347 119.101584-40.63961347 107.458306 0 194.887555 87.23285667 194.887555 194.47608767zm-195.168344-177.2967564c-39.530458 0-76.025814 12.9256427-105.509038 34.7382089 26.740295 24.8372539 46.516425 57.0904325 55.966232 93.4389055h-18.062345c-9.253571-32.135672-27.34208-60.5068051-51.496433-82.341131-24.128188 21.8343259-42.22978 50.205459-51.448466 82.341131h-18.088509c9.47161-36.348473 29.247742-68.6016516 55.988035-93.4389055-29.500666-21.8125662-65.982503-34.7382089-105.532585-34.7382089-97.9866942 0-177.4208919 79.2729233-177.4208919 177.0852234 0 97.787057 79.4341977 177.084787 177.4208919 177.084787 39.550082 0 76.031919-12.925207 105.532585-34.736468-25.161691-23.387145-44.14416-53.350265-54.178312-87.078793h18.262941c9.702731 29.5327 26.927807 55.599413 49.464311 75.977537 22.562667-20.378124 39.809547-46.444837 49.51228-75.977537h18.258579c-10.051595 33.728528-29.029702 63.691648-54.178313 87.078793 29.483224 21.811261 65.97858 34.736468 105.509038 34.736468 97.986694 0 177.422636-79.29773 177.422636-177.084787 0-97.8123001-79.435942-177.0852234-177.422636-177.0852234z" stroke="#979797"/><path d="m122.86111 152.432251h-28.410036l-17.7544743 52.824969-.7395874-52.824969h-26.3282014l-14.2915792 85.349716h17.1330626l11.0039887-65.206169 1.5367389 65.206169h12.4827284l23.3929607-65.595679-10.4811319 65.595679h18.2982629z"/><path d="m170.015636 237.698823h-15.167224l.352351-7.199626c-4.629839 5.686412-10.794235 8.406455-19.171727 8.406455-9.937779 0-16.703962-7.743635-16.703962-18.943248 0-16.923888 11.801139-26.761738 32.102743-26.761738 2.080092 0 4.744092.193667 7.466089.542267.565593-2.310513.702086-3.279283.702086-4.522233 0-4.579682-3.172031-6.307018-11.728315-6.307018-8.943084-.11707-16.332423 2.116411-19.366217 3.124785.195799-1.164614 2.548439-15.603035 2.548439-15.603035 9.101381-2.677392 15.126233-3.687072 21.894161-3.687072 15.712321 0 24.035303 7.024238 24.016552 20.338956.018751 3.570001-.565594 7.974729-1.47874 13.780388-1.594301 10.030212-4.997888 31.57295-5.466236 36.831119zm-12.856571-30.593352c-1.924847-.195844-2.762989-.272005-4.084741-.272005-10.384321 0-15.615512 3.547806-15.615512 10.536792 0 4.329873 2.567191 7.083862 6.534627 7.083862 7.467833 0 12.833335-7.083862 13.165626-17.348649z"/><path d="m409.634735 150.523436c-24.25029 0-41.209357 21.308161-41.209357 51.818771 0 22.664701 12.275591 36.834165 31.973228 36.834165 5.054142 0 9.428004-.66282 16.156685-2.5242l3.209532-19.428068c-6.048399 2.971592-11.024047 4.386014-15.541814 4.386014-10.635939 0-17.055005-7.840686-17.055005-20.786348 0-18.803981 9.554466-31.982479 23.221146-31.982479 5.075946 0 9.820473 1.320852 16.352919 4.62059l2.995855-18.513262c-2.681879-1.047108-12.114243-4.425183-20.103189-4.425183z"/><path d="m475.451263 237.698823h-15.144984l.348862-7.199626c-4.64859 5.686412-10.832174 8.406455-19.196147 8.406455-9.916411 0-16.723586-7.743635-16.723586-18.943248 0-16.923888 11.843875-26.761738 32.125855-26.761738 2.080092 0 4.744528.193667 7.470015.542267.558179-2.310513.697724-3.279283.697724-4.522233 0-4.579682-3.170286-6.307018-11.708691-6.307018-8.9614-.11707-16.331115 2.116411-19.366217 3.124785.174431-1.164614 2.529252-15.603035 2.529252-15.603035 9.118387-2.677392 15.144983-3.687072 21.873664-3.687072 15.73369 0 24.058416 7.024238 24.036612 20.338956.039247 3.570001-.56254 7.974729-1.478304 13.780388-1.574241 10.030212-4.993091 31.57295-5.464055 36.831119zm-12.862676-30.593352c-1.90566-.195844-2.760373-.272005-4.103492-.272005-10.365571 0-15.615948 3.547806-15.615948 10.536792 0 4.329873 2.568499 7.083862 6.576054 7.083862 7.44821 0 12.833771-7.083862 13.143386-17.348649z"/><path d="m260.067396 221.615331c-1.225379.43042-2.838867.659774-4.918959.659774-4.356417 0-6.279521-1.550642-6.279521-5.142404.039248-2.210416 3.052545-18.629029 5.154441-31.807526h9.388756l2.490005-16.691053h-9.353871l2.119339-10.475428h-18.183139s-6.881744 40.849818-7.912196 47.311769c-1.166945 7.395035-2.64394 15.448102-2.529687 18.513263 0 9.880501 5.096441 15.257482 14.448131 15.257482 4.243037 0 8.145934-.701989 13.169551-2.252196z"/><path d="m315.968704 236.109447c-6.262078 1.90403-12.293034 2.796205-18.668493 2.796205-20.382279-.042216-30.996414-10.655605-30.996414-30.974541 0-23.717031 13.514053-41.182751 31.851126-41.182751 14.992357 0 24.581709 9.761253 24.581709 25.131453 0 5.084522-.680282 10.033258-2.258883 17.080127h-36.207544c-1.225379 10.030212 5.232934 14.223865 15.812183 14.223865 6.510642 0 12.367168-1.320853 18.899614-4.346846zm-9.536608-40.712749c.117741-1.436183 1.923104-12.423414-8.45991-12.423414-5.795475 0-9.955657 4.445203-11.625836 12.423414z"/><path d="m184.505902 190.230815c0 8.792483 4.23824 14.827496 13.922222 19.388463 7.409835 3.4921 8.556283 4.500039 8.556283 7.667475 0 4.304195-3.267096 6.245652-10.520378 6.245652-5.443997 0-10.53913-.816012-16.393912-2.71482 0 0-2.408457 15.291862-2.526198 16.031279 4.181986.892609 7.87513 1.742568 19.056602 2.056788 19.308219 0 28.215545-7.357607 28.215545-23.193478 0-9.565846-3.715383-15.116474-12.895258-19.331016-7.658399-3.530834-8.552794-4.307678-8.552794-7.547793 0-3.765844 3.052544-5.668133 8.982331-5.668133 3.577146 0 8.496541.389509 13.124635 1.048848l2.608182-16.10744c-4.745836-.738111-11.920625-1.35828-16.102611-1.35828-20.475164 0-27.552707 10.653863-27.474649 23.482455z"/><path d="m578.456133 237.781967h-17.321012l.872156-6.46021c-5.0367 5.338247-10.186779 7.667038-16.876214 7.667038-13.304735 0-22.091704-11.432448-22.091704-28.781098 0-23.117316 13.627433-42.561922 29.766674-42.561922 7.081905 0 12.48491 2.8728 17.486723 9.451822l4.042441-24.665346h18.049263zm-26.952954-15.907289c8.516601 0 14.525753-9.647664 14.525753-23.387579 0-8.829912-3.401407-13.605-9.707092-13.605-8.302923 0-14.194335 9.645923-14.194335 23.290093 0 9.100609 3.152843 13.702486 9.375674 13.702486z"/><path d="m495.228638 168.452296c-2.293769 21.466141-6.358015 43.219954-9.528301 64.725265l-.837269 4.674992h18.280383c6.554251-42.44137 8.145935-50.729014 18.393764-49.68147 1.630931-8.714583 4.666033-16.299802 6.959803-20.142243-7.67497-1.594598-11.957255 2.754424-17.53469 10.96373.444798-3.571742 1.242821-7.007701 1.06839-10.540274z"/><path d="m334.910017 168.452296c-2.298131 21.466141-6.37982 43.219954-9.550106 64.725265l-.837269 4.674992h18.297827c6.55425-42.44137 8.128491-50.729014 18.37632-49.68147 1.652736-8.714583 4.705281-16.299802 6.964164-20.142243-7.644445-1.594598-11.957254 2.754424-17.543412 10.96373.44916-3.571742 1.242822-7.007701 1.090195-10.540274z"/></g></g></svg>