<svg height="471" viewBox="0 0 750 471" width="750" xmlns="http://www.w3.org/2000/svg"><g fill="#393939"><path d="m52.8846154 28.2035928c-13.2762744 0-24.0384616 10.5226363-24.0384616 23.502994v367.5868262c0 12.980919 10.7617993 23.502994 24.0384616 23.502994h644.2307696c13.276088 0 24.038461-10.522454 24.038461-23.502994v-367.5868262c0-12.9799785-10.762761-23.502994-24.038461-23.502994zm0-28.2035928h644.2307696c29.206991 0 52.884615 23.1501941 52.884615 51.7065868v367.5868262c0 28.557063-23.677347 51.706587-52.884615 51.706587h-644.2307696c-29.2079531 0-52.8846154-23.149254-52.8846154-51.706587v-367.5868262c0-28.5566629 23.6769386-51.7065868 52.8846154-51.7065868z"/><g transform="translate(54 161)"><path d="m109.272795 8.45777679c-8.024045-5.51623215-18.4947593-8.28103572-31.4121432-8.28103572h-50.009125c-3.9599554 0-6.1477232 1.98045536-6.5633036 5.93754464l-20.31566963 127.52393729c-.21113393 1.252473.10222322 2.397947.93720536 3.439286.83020536 1.04325 1.87441071 1.562009 3.12497321 1.562009h23.75399996c4.1663125 0 6.4563036-1.975679 6.8766608-5.937545l5.6251428-34.3794819c.2054018-1.6661429.9381607-3.0208393 2.1887232-4.0640893 1.2496072-1.0413393 2.8125715-1.7225089 4.6879375-2.0349107 1.8753661-.3095357 3.6437322-.465259 5.3136965-.465259 1.6651875 0 3.6437321.1050893 5.9394553.3124018 2.2899911.2082679 3.7497768.3095357 4.3755357.3095357 17.9186786 0 31.9834465-5.0490625 42.1952591-15.1576964 10.207036-10.1048125 15.316286-24.1160803 15.316286-42.0395357 0-12.2925804-4.014411-21.2003304-12.034634-26.72516071zm-25.7850896 38.29071431c-1.0451608 7.2941518-3.7507322 12.0843125-8.1262679 14.3771696-4.3764911 2.2957232-10.6273929 3.437375-18.7527054 3.437375l-10.314991.3124018 5.3146518-33.4441875c.414625-2.2899911 1.768366-3.4364196 4.0621785-3.4364196h5.9404107c8.3307143 0 14.3771697 1.2008839 18.1279018 3.5930982 3.7488215 2.3979464 4.999384 7.452741 3.7488215 15.1605625z"/><path d="m637.025455.17674107h-23.12633c-2.298589 0-3.651375 1.14642857-4.064089 3.43928572l-20.316625 130.02315221-.313357.624803c0 1.047072.416535 2.032045 1.252473 2.970205.828294.936251 1.875366 1.405331 3.124018 1.405331h20.629982c3.954223 0 6.142946-1.975679 6.564259-5.937545l20.316625-127.83920514v-.31049107c-.000956-2.91670536-1.359473-4.37553572-4.066956-4.37553572z"/><path d="m357.599732 50.4963571c0-1.0394285-.419402-2.0310892-1.246741-2.9673392-.835937-.9372054-1.776009-1.4081965-2.813527-1.4081965h-24.068312c-2.296679 0-4.171089 1.0470715-5.626098 3.1249732l-33.130831 48.7614286-13.752366-46.8841518c-1.046116-3.3313303-3.336107-5.00225-6.875705-5.00225h-23.44542c-1.044205 0-1.981411.4700357-2.809705 1.4081965-.835938.93625-1.250563 1.928866-1.250563 2.9673392 0 .4203572 2.032045 6.564259 6.094224 18.441259 4.062178 11.879866 8.437714 24.6950268 13.126607 38.4483479 4.688893 13.750456 7.135562 21.047473 7.344785 21.875768-17.087518 23.339375-25.62841 35.842134-25.62841 37.506366 0 2.711304 1.352785 4.06409 4.063134 4.06409h24.067357c2.290946 0 4.165357-1.039429 5.626098-3.124018l79.70258-115.024045c.415581-.4136696.622893-1.1397411.622893-2.1877679z"/><path d="m581.704545 46.1208214h-23.756866c-2.918616 0-4.685072 3.4392857-5.30892 10.3159465-5.424518-8.3316697-15.31533-12.5037143-29.696321-12.5037143-15.001974 0-27.768411 5.6270535-38.286893 16.87925-10.524215 11.2521964-15.783456 24.4867589-15.783456 39.6960444 0 12.296402 3.593099 22.088813 10.78025 29.379143 7.189063 7.297973 16.826706 10.939795 28.91484 10.939795 6.041678 0 12.188446-1.252473 18.439348-3.750732 6.250902-2.50017 11.143286-5.832456 14.692437-10.001634 0 .209223-.213044 1.145473-.626714 2.811616-.419402 1.669964-.624804 2.922437-.624804 3.750732 0 3.338018 1.350875 5.000339 4.06409 5.000339h21.568143c3.952312 0 6.248991-1.975678 6.871884-5.937544l12.817071-81.5779469c.205402-1.2505625-.107955-2.3950804-.938161-3.4383304-.836893-1.0403839-1.875366-1.5629643-3.125928-1.5629643zm-40.788974 61.5756336c-5.312741 5.209563-11.720321 7.812911-19.22083 7.812911-6.0455 0-10.937884-1.664232-14.690527-5.000339-3.752643-3.328464-5.628009-7.913223-5.628009-13.7523663 0-7.7049553 2.605259-14.2214464 7.814822-19.5341875 5.20383-5.3136964 11.669687-7.9705446 19.379419-7.9705446 5.82959 0 10.675161 1.7196428 14.533849 5.1560625 3.851044 3.4392857 5.782776 8.1807232 5.782776 14.2243125-.000955 7.5005089-2.657803 13.8574554-7.9715 19.0641514z"/><path d="m226.64033 46.1208214h-23.754955c-2.921482 0-4.688893 3.4392857-5.314652 10.3159465-5.626098-8.3316697-15.524553-12.5037143-29.693455-12.5037143-15.002929 0-27.767455 5.6270535-38.288804 16.87925-10.524214 11.2521964-15.783455 24.4867589-15.783455 39.6960444 0 12.296402 3.595009 22.088813 10.784071 29.379143 7.189063 7.297973 16.82384 10.939795 28.911018 10.939795 5.8315 0 11.877956-1.252473 18.127902-3.750732 6.250902-2.50017 11.252196-5.832456 15.002929-10.001634-.835938 2.500169-1.250563 4.688893-1.250563 6.562348 0 3.338018 1.353741 5.000339 4.063134 5.000339h21.566232c3.956134 0 6.250902-1.975678 6.876661-5.937544l12.814205-81.5779469c.205402-1.2505625-.106044-2.3950804-.937205-3.4383304-.834027-1.0403839-1.875366-1.5629643-3.123063-1.5629643zm-40.789928 61.7304016c-5.314652 5.111161-11.829232 7.658143-19.534188 7.658143-6.046455 0-10.891071-1.664232-14.534803-5.000339-3.648509-3.328464-5.470375-7.913223-5.470375-13.7523663 0-7.7049553 2.603348-14.2214464 7.814821-19.5341875 5.205741-5.3136964 11.665866-7.9705446 19.378464-7.9705446 5.8315 0 10.676117 1.7196428 14.534804 5.1560625 3.852 3.4392857 5.781821 8.1807232 5.781821 14.2243125 0 7.7097321-2.656848 14.1192234-7.970544 19.2189194z"/><path d="m464.337964 8.45777679c-8.023089-5.51623215-18.490937-8.28103572-31.411187-8.28103572h-49.694813c-4.170134 0-6.463946 1.98045536-6.877616 5.93754464l-20.314714 127.52393729c-.211134 1.252473.100312 2.397947.93625 3.439286.828295 1.04325 1.875366 1.562009 3.124973 1.562009h25.628411c2.50017 0 4.166312-1.352786 5.000339-4.062179l5.628009-36.2548479c.205402-1.6661429.93625-3.0208393 2.186813-4.0640893 1.250562-1.0413393 2.811616-1.7225089 4.688892-2.0349107 1.875367-.3095357 3.642777-.465259 5.314652-.465259 1.664232 0 3.643732.1050893 5.935634.3124018 2.292857.2082679 3.754554.3095357 4.375536.3095357 17.9225 0 31.985357-5.0490625 42.196214-15.1576964 10.209902-10.1048125 15.314375-24.1160803 15.314375-42.0395357.000955-12.2925804-4.0125-21.2003304-12.031768-26.72516071zm-32.035991 51.41732141c-4.584759 3.1249732-11.462375 4.6869822-20.628071 4.6869822l-10.003545.3124017 5.315607-33.4441875c.412715-2.289991 1.7655-3.4364196 4.062179-3.4364196h5.624187c4.582849 0 8.228491.2082679 10.941706.6238482 2.705571.4194018 5.312741 1.7186875 7.81291 3.9064554 2.502081 2.1877678 3.750733 5.3671964 3.750733 9.5335089 0 8.7529821-2.294768 14.6895714-6.875706 17.8174107z"/></g></g></svg>