<svg width="750" height="471" viewBox="0 0 750 471" version="1.1" xmlns="http://www.w3.org/2000/svg" xmlns:xlink="http://www.w3.org/1999/xlink">
    <!-- Generator: Sketch 48.2 (47327) - http://www.bohemiancoding.com/sketch -->
    <desc>Created with Sketch.</desc>
    <defs></defs>
    <g id="Page-1" stroke="none" stroke-width="1" fill="none" fill-rule="evenodd">
        <g id="security-code" fill-rule="nonzero">
            <path d="M52.8846154,28.2035928 C39.6085397,28.2035928 28.8461538,38.7262417 28.8461538,51.7065868 L28.8461538,419.293413 C28.8461538,432.273758 39.6085397,442.796407 52.8846154,442.796407 L697.115385,442.796407 C710.39146,442.796407 721.153846,432.273758 721.153846,419.293413 L721.153846,51.7065868 C721.153846,38.7262417 710.39146,28.2035928 697.115385,28.2035928 L52.8846154,28.2035928 Z M52.8846154,0 L697.115385,0 C726.322751,-5.0099645e-15 750,23.1498275 750,51.7065868 L750,419.293413 C750,447.850173 726.322751,471 697.115385,471 L52.8846154,471 C23.6772488,471 3.41607085e-15,447.850173 0,419.293413 L0,51.7065868 C-3.41607085e-15,23.1498275 23.6772488,5.0099645e-15 52.8846154,0 Z" id="Rectangle-1" fill="#393939"></path>
            <g id="text4185" transform="translate(375.000000, 314.000000) scale(-1, 1) translate(-375.000000, -314.000000) translate(66.000000, 294.000000)" fill="#000000" fill-opacity="0.19607843">
                <polygon id="path4219" points="21.120614 15.6571429 17.1184211 15.6571429 16.7346491 26.2971429 5.8245614 26.2971429 15.9122807 2.62857143 12.129386 1 1 26.6228571 1 29.88 16.6798246 29.88 16.6798246 39 21.120614 39 21.120614 29.88 26 29.88 26 29.88 26 26.2971429 21.120614 26.2971429"></polygon>
                <path d="M44.055557,1 C40.1666676,1 36.444445,2.3164557 33.2222224,5.38818565 L35.7222227,8.18565401 C38.2777785,5.82700422 40.5555565,4.67510549 43.8333347,4.67510549 C47.8888878,4.67510549 51.1111104,6.92405063 51.1111104,11.092827 C51.1111104,15.6455696 47.4999989,17.7299578 43.8333347,17.7299578 L41.5555567,17.7299578 L41.000001,21.350211 L44.2222236,21.350211 C48.7222213,21.350211 52.1666661,23.1054852 52.1666661,28.535865 C52.1666661,33.2531646 48.9999991,36.2700422 43.6111125,36.2700422 C40.500001,36.2700422 37.2777784,35.0084388 35.1111115,32.4852321 L32,35.0084388 C34.8888892,38.5189873 39.4444453,40 43.7222236,40 C51.6111105,40 57,35.0632911 57,28.535865 C57,22.6666667 52.7777773,19.5949367 48.2777768,19.2658228 C52.3333328,18.4978903 55.7777776,15.0421941 55.7777776,10.4894515 C55.7777776,5.33333333 51.2222216,1 44.055557,1 Z" id="path4221"></path>
                <path d="M77.6397229,1 C72.4849885,1 69.0484988,2.79142857 66,6.37428571 L69.2147806,8.76285714 C71.6535797,5.99428571 73.704388,4.8 77.4734411,4.8 C81.7413395,4.8 84.2909931,7.40571429 84.2909931,11.5857143 C84.2909931,17.72 81.187067,21.7914286 66.7759815,35.3085714 L66.7759815,39 L89.4457275,39 L90,35.1457143 L72.0415704,35.1457143 C84.6235566,23.9085714 89.113164,18.3171429 89.113164,11.4771429 C89.113164,5.50571429 84.8452656,1 77.6397229,1 Z" id="path4223"></path>
                <polygon id="path4225" points="112.144893 1 101 7.95930233 102.966746 11.2180233 111.598575 5.97093023 111.598575 35.244186 102.311164 35.244186 102.311164 39 124 39 124 35.244186 124 35.244186 116.133017 35.244186 116.133017 1"></polygon>
                <polygon id="path4227" points="185.120614 15.6571429 181.118421 15.6571429 180.734649 26.2971429 169.824561 26.2971429 179.912281 2.62857143 176.129386 1 165 26.6228571 165 29.88 180.679825 29.88 180.679825 39 185.120614 39 185.120614 29.88 190 29.88 190 29.88 190 26.2971429 185.120614 26.2971429"></polygon>
                <path d="M209.055556,1 C205.166667,1 201.444444,2.3164557 198.222222,5.38818565 L200.722222,8.18565401 C203.277778,5.82700422 205.555556,4.67510549 208.833333,4.67510549 C212.888889,4.67510549 216.111111,6.92405063 216.111111,11.092827 C216.111111,15.6455696 212.5,17.7299578 208.833333,17.7299578 L206.555556,17.7299578 L206,21.350211 L209.222222,21.350211 C213.722222,21.350211 217.166667,23.1054852 217.166667,28.535865 C217.166667,33.2531646 214,36.2700422 208.611111,36.2700422 C205.5,36.2700422 202.277778,35.0084388 200.111111,32.4852321 L197,35.0084388 C199.888889,38.5189873 204.444444,40 208.722222,40 C216.611111,40 222,35.0632911 222,28.535865 C222,22.6666667 217.777778,19.5949367 213.277778,19.2658228 C217.333333,18.4978903 220.777778,15.0421941 220.777778,10.4894515 C220.777778,5.33333333 216.222222,1 209.055556,1 Z" id="path4229"></path>
                <path d="M241.639723,1 C236.484988,1 233.048499,2.79142857 230,6.37428571 L233.214781,8.76285714 C235.65358,5.99428571 237.704388,4.8 241.473441,4.8 C245.741339,4.8 248.290993,7.40571429 248.290993,11.5857143 C248.290993,17.72 245.187067,21.7914286 230.775982,35.3085714 L230.775982,39 L253.445727,39 L254,35.1457143 L236.04157,35.1457143 C248.623557,23.9085714 253.113164,18.3171429 253.113164,11.4771429 C253.113164,5.50571429 248.845266,1 241.639723,1 Z" id="path4231"></path>
                <polygon id="path4233" points="276.144893 1 265 7.95930233 266.966746 11.2180233 275.598575 5.97093023 275.598575 35.244186 266.311164 35.244186 266.311164 39 288 39 288 35.244186 288 35.244186 280.133017 35.244186 280.133017 1"></polygon>
                <polygon id="path4235" points="350.120614 15.6571429 346.118421 15.6571429 345.734649 26.2971429 334.824561 26.2971429 344.912281 2.62857143 341.129386 1 330 26.6228571 330 29.88 345.679825 29.88 345.679825 39 350.120614 39 350.120614 29.88 355 29.88 355 29.88 355 26.2971429 350.120614 26.2971429"></polygon>
                <path d="M373.055556,1 C369.166667,1 365.444444,2.3164557 362.222222,5.38818565 L364.722222,8.18565401 C367.277778,5.82700422 369.555556,4.67510549 372.833333,4.67510549 C376.888889,4.67510549 380.111111,6.92405063 380.111111,11.092827 C380.111111,15.6455696 376.5,17.7299578 372.833333,17.7299578 L370.555556,17.7299578 L370,21.350211 L373.222222,21.350211 C377.722222,21.350211 381.166667,23.1054852 381.166667,28.535865 C381.166667,33.2531646 378,36.2700422 372.611111,36.2700422 C369.5,36.2700422 366.277778,35.0084388 364.111111,32.4852321 L361,35.0084388 C363.888889,38.5189873 368.444444,40 372.722222,40 C380.611111,40 386,35.0632911 386,28.535865 C386,22.6666667 381.777778,19.5949367 377.277778,19.2658228 C381.333333,18.4978903 384.777778,15.0421941 384.777778,10.4894515 C384.777778,5.33333333 380.222222,1 373.055556,1 Z" id="path4237"></path>
                <path d="M405.639723,1 C400.484988,1 397.048499,2.79142857 394,6.37428571 L397.214781,8.76285714 C399.65358,5.99428571 401.704388,4.8 405.473441,4.8 C409.741339,4.8 412.290993,7.40571429 412.290993,11.5857143 C412.290993,17.72 409.187067,21.7914286 394.775982,35.3085714 L394.775982,39 L417.445727,39 L418,35.1457143 L400.04157,35.1457143 C412.623557,23.9085714 417.113164,18.3171429 417.113164,11.4771429 C417.113164,5.50571429 412.845266,1 405.639723,1 Z" id="path4239"></path>
                <polygon id="path4241" points="441.144893 1 430 7.95930233 431.966746 11.2180233 440.598575 5.97093023 440.598575 35.244186 431.311164 35.244186 431.311164 39 453 39 453 35.244186 453 35.244186 445.133017 35.244186 445.133017 1"></polygon>
                <polygon id="path4243" points="514.120614 15.6571429 510.118421 15.6571429 509.734649 26.2971429 498.824561 26.2971429 508.912281 2.62857143 505.129386 1 494 26.6228571 494 29.88 509.679825 29.88 509.679825 39 514.120614 39 514.120614 29.88 519 29.88 519 29.88 519 26.2971429 514.120614 26.2971429"></polygon>
                <path d="M538.055556,1 C534.166667,1 530.444444,2.3164557 527.222222,5.38818565 L529.722222,8.18565401 C532.277778,5.82700422 534.555556,4.67510549 537.833333,4.67510549 C541.888889,4.67510549 545.111111,6.92405063 545.111111,11.092827 C545.111111,15.6455696 541.5,17.7299578 537.833333,17.7299578 L535.555556,17.7299578 L535,21.350211 L538.222222,21.350211 C542.722222,21.350211 546.166667,23.1054852 546.166667,28.535865 C546.166667,33.2531646 543,36.2700422 537.611111,36.2700422 C534.5,36.2700422 531.277778,35.0084388 529.111111,32.4852321 L526,35.0084388 C528.888889,38.5189873 533.444444,40 537.722222,40 C545.611111,40 551,35.0632911 551,28.535865 C551,22.6666667 546.777778,19.5949367 542.277778,19.2658228 C546.333333,18.4978903 549.777778,15.0421941 549.777778,10.4894515 C549.777778,5.33333333 545.222222,1 538.055556,1 Z" id="path4245"></path>
                <path d="M570.639723,1 C565.484988,1 562.048499,2.79142857 559,6.37428571 L562.214781,8.76285714 C564.65358,5.99428571 566.704388,4.8 570.473441,4.8 C574.741339,4.8 577.290993,7.40571429 577.290993,11.5857143 C577.290993,17.72 574.187067,21.7914286 559.775982,35.3085714 L559.775982,39 L582.445727,39 L583,35.1457143 L565.04157,35.1457143 C577.623557,23.9085714 582.113164,18.3171429 582.113164,11.4771429 C582.113164,5.50571429 577.845266,1 570.639723,1 Z" id="path4247"></path>
                <polygon id="path4249" points="605.144893 1 594 7.95930233 595.966746 11.2180233 604.598575 5.97093023 604.598575 35.244186 595.311164 35.244186 595.311164 39 617 39 617 35.244186 617 35.244186 609.133017 35.244186 609.133017 1"></polygon>
            </g>
            <g id="text4189" transform="translate(612.000000, 405.000000) scale(-1, 1) translate(-612.000000, -405.000000) translate(536.000000, 390.000000)" fill="#000000" fill-opacity="0.19607843">
                <g id="tspan4191">
                    <path d="M0.828125,9.195312 L0.828125,6.5 C3.36718747,6.252604 5.1380208,5.84244767 6.140625,5.269531 C7.143229,4.68359367 7.891927,3.309896 8.386719,1.148438 L11.160156,1.148438 L11.160156,29 L7.410156,29 L7.410156,9.195312 L0.828125,9.195312 Z" id="path4989"></path>
                    <path d="M23.09375,9.195312 L23.09375,6.5 C25.6328127,6.252604 27.403646,5.84244767 28.40625,5.269531 C29.408854,4.68359367 30.157552,3.309896 30.652344,1.148438 L33.425781,1.148438 L33.425781,29 L29.675781,29 L29.675781,9.195312 L23.09375,9.195312 Z" id="path4991"></path>
                    <path d="M53.875,29 C54.005208,26.591146 54.4999997,24.4947917 55.359375,22.710937 C56.231771,20.927083 57.9244793,19.3059893 60.4375,17.847656 L64.1875,15.679687 C65.8671873,14.703125 67.0455727,13.8697917 67.722656,13.179687 C68.7903647,12.0989583 69.324219,10.8619793 69.324219,9.46875 C69.324219,7.841146 68.8359377,6.55208367 67.859375,5.601563 C66.8828123,4.638021 65.580729,4.15625 63.953125,4.15625 C61.544271,4.15625 59.8776043,5.06770833 58.953125,6.890625 C58.458333,7.86718767 58.1848953,9.22135433 58.132812,10.953125 L54.558594,10.953125 C54.597654,8.518229 55.0468727,6.532552 55.90625,4.996094 C57.4296873,2.28776067 60.1184893,0.933594 63.972656,0.933594 C67.1757813,0.933594 69.513021,1.79947933 70.984375,3.53125 C72.4687497,5.26302067 73.210937,7.190104 73.210937,9.3125 C73.210937,11.5520833 72.4231767,13.4661457 70.847656,15.054687 C69.936198,15.9791663 68.3020833,17.098958 65.945312,18.414062 L63.269531,19.898437 C61.9934897,20.6015623 60.9908857,21.2721353 60.261719,21.910156 C58.9596357,23.0429687 58.139323,24.299479 57.800781,25.679687 L73.074219,25.679687 L73.074219,29 L53.875,29 Z" id="path4993"></path>
                    <path d="M85.28125,29.761719 C81.973958,29.761719 79.5716143,28.856771 78.074219,27.046875 C76.5898437,25.2239583 75.847656,23.0104167 75.847656,20.40625 L79.519531,20.40625 C79.675781,22.216146 80.0143227,23.53125 80.535156,24.351562 C81.4466147,25.8229167 83.09375,26.558594 85.476562,26.558594 C87.3255207,26.558594 88.8098957,26.0638023 89.929687,25.074219 C91.049479,24.0846357 91.609375,22.808594 91.609375,21.246094 C91.609375,19.3190107 91.016927,17.9713543 89.832031,17.203125 C88.6601563,16.4348957 87.0260417,16.050781 84.929687,16.050781 C84.6953123,16.050781 84.454427,16.057291 84.207031,16.070311 C83.9726563,16.070311 83.731771,16.076821 83.484375,16.089841 L83.484375,12.984372 C83.8489583,13.023432 84.154948,13.0494753 84.402344,13.062502 C84.6497393,13.075522 84.9166663,13.082032 85.203125,13.082032 C86.518229,13.082032 87.598958,12.8736987 88.445312,12.457032 C89.9296873,11.7278653 90.671875,10.425782 90.671875,8.550782 C90.671875,7.15755267 90.1770833,6.083334 89.1875,5.328126 C88.1979167,4.572918 87.045573,4.195314 85.730469,4.195314 C83.386719,4.195314 81.765625,4.97656367 80.867187,6.539063 C80.3723957,7.39843833 80.092448,8.62239667 80.027344,10.210938 L76.550781,10.210938 C76.550781,8.12760467 76.9674477,6.35677167 77.800781,4.898439 C79.233073,2.29427233 81.7526043,0.992189 85.359375,0.992189 C88.2109377,0.992189 90.417969,1.63020967 91.980469,2.906251 C93.542969,4.16927167 94.324219,6.005209 94.324219,8.414063 C94.324219,10.132813 93.8619793,11.5260423 92.9375,12.593751 C92.3645833,13.2578137 91.6223957,13.778647 90.710937,14.156251 C92.1822917,14.559897 93.328125,15.341147 94.148437,16.500001 C94.9817703,17.6458343 95.398437,19.0520843 95.398437,20.718751 C95.398437,23.3880217 94.519531,25.5625007 92.761719,27.242188 C91.0039063,28.921876 88.5104167,29.76172 85.28125,29.76172 L85.28125,29.761719 Z" id="path4995"></path>
                    <path d="M113.19141,21.871094 C113.425783,23.876302 114.356773,25.2630207 115.98438,26.03125 C116.817713,26.4218747 117.781253,26.617187 118.875,26.617187 C120.958333,26.617187 122.501303,25.9531247 123.50391,24.625 C124.50651,23.2968747 125.00781,21.8255203 125.00781,20.210937 C125.00781,18.2578123 124.408853,16.7473957 123.21094,15.679687 C122.02604,14.611979 120.600257,14.078125 118.93359,14.078125 C117.722657,14.078125 116.68099,14.3125 115.80859,14.78125 C114.949217,15.25 114.21354,15.9010417 113.60156,16.734375 L110.55469,16.558594 L112.68359,1.5 L127.21484,1.5 L127.21484,4.898438 L115.32031,4.898438 L114.12891,12.671875 C114.77995,12.177083 115.39844,11.8059893 115.98438,11.558594 C117.026047,11.128906 118.230473,10.914062 119.59766,10.914062 C122.16276,10.914062 124.337237,11.740885 126.12109,13.394531 C127.904943,15.048177 128.79687,17.1445313 128.79687,19.683594 C128.79687,22.3268227 127.97656,24.6575517 126.33594,26.675781 C124.708333,28.6940103 122.104167,29.703125 118.52344,29.703125 C116.244793,29.703125 114.226563,29.065104 112.46875,27.789062 C110.723957,26.5 109.747393,24.527344 109.53906,21.871094 L113.19141,21.871094 Z" id="path4997"></path>
                    <path d="M141.39453,12.75 C142.94401,12.75 144.154947,12.3203123 145.02734,11.460937 C145.89974,10.5885417 146.33594,9.55338567 146.33594,8.355469 C146.33594,7.31380233 145.919273,6.356771 145.08594,5.484375 C144.252607,4.611979 142.983073,4.175781 141.27734,4.175781 C139.584633,4.175781 138.360677,4.611979 137.60547,5.484375 C136.850263,6.356771 136.47266,7.37890633 136.47266,8.550781 C136.47266,9.865885 136.96094,10.894531 137.9375,11.636719 C138.91406,12.3789063 140.066403,12.75 141.39453,12.75 Z M141.60937,26.597656 C143.236977,26.597656 144.584633,26.161458 145.65234,25.289062 C146.733073,24.4036453 147.27344,23.0885413 147.27344,21.34375 C147.27344,19.533854 146.720053,18.160156 145.61328,17.222656 C144.506507,16.285156 143.087237,15.816406 141.35547,15.816406 C139.675783,15.816406 138.302083,16.298177 137.23437,17.261719 C136.179683,18.2122397 135.65234,19.533854 135.65234,21.226562 C135.65234,22.6848953 136.134113,23.9479163 137.09766,25.015625 C138.07422,26.0703123 139.578123,26.597656 141.60937,26.597656 Z M136.60937,14.097656 C135.63281,13.6809893 134.871093,13.192708 134.32422,12.632812 C133.295573,11.5911453 132.78125,10.2369787 132.78125,8.570312 C132.78125,6.48697933 133.536457,4.696615 135.04687,3.199219 C136.55729,1.701823 138.69922,0.953125 141.47266,0.953125 C144.154947,0.953125 146.25781,1.66276033 147.78125,3.082031 C149.30469,4.488281 150.06641,6.13541633 150.06641,8.023437 C150.06641,9.768229 149.6237,11.1809897 148.73828,12.261719 C148.243487,12.8736977 147.475257,13.472656 146.43359,14.058594 C147.592443,14.592448 148.503903,15.204427 149.16797,15.894531 C150.40495,17.1966143 151.02344,18.8893227 151.02344,20.972656 C151.02344,23.4335933 150.196617,25.523437 148.54297,27.242187 C146.889323,28.9479163 144.552083,29.800781 141.53125,29.800781 C138.809897,29.800781 136.50521,29.065104 134.61719,27.59375 C132.74219,26.1093747 131.80469,23.960937 131.80469,21.148437 C131.80469,19.4947917 132.208333,18.0690107 133.01562,16.871094 C133.822913,15.660156 135.02083,14.7356767 136.60937,14.097656 Z" id="path4999"></path>
                </g>
            </g>
            <g id="text4214" transform="translate(407.500000, 406.000000) scale(-1, 1) translate(-407.500000, -406.000000) translate(315.000000, 391.000000)" fill="#000000" fill-opacity="0.19607843">
                <g id="tspan4216">
                    <path d="M0.828125,9.195312 L0.828125,6.5 C3.36718747,6.252604 5.1380208,5.84244767 6.140625,5.269531 C7.143229,4.68359367 7.891927,3.309896 8.386719,1.148438 L11.160156,1.148438 L11.160156,29 L7.410156,29 L7.410156,9.195312 L0.828125,9.195312 Z" id="path4972"></path>
                    <path d="M29.65625,29.761719 C26.348958,29.761719 23.9466143,28.856771 22.449219,27.046875 C20.9648437,25.2239583 20.222656,23.0104167 20.222656,20.40625 L23.894531,20.40625 C24.050781,22.216146 24.3893227,23.53125 24.910156,24.351562 C25.8216147,25.8229167 27.46875,26.558594 29.851562,26.558594 C31.7005207,26.558594 33.1848957,26.0638023 34.304687,25.074219 C35.424479,24.0846357 35.984375,22.808594 35.984375,21.246094 C35.984375,19.3190107 35.391927,17.9713543 34.207031,17.203125 C33.0351563,16.4348957 31.4010417,16.050781 29.304687,16.050781 C29.0703123,16.050781 28.829427,16.057291 28.582031,16.070311 C28.3476563,16.070311 28.106771,16.076821 27.859375,16.089841 L27.859375,12.984372 C28.2239583,13.023432 28.529948,13.0494753 28.777344,13.062502 C29.0247393,13.075522 29.2916663,13.082032 29.578125,13.082032 C30.893229,13.082032 31.973958,12.8736987 32.820312,12.457032 C34.3046873,11.7278653 35.046875,10.425782 35.046875,8.550782 C35.046875,7.15755267 34.5520833,6.083334 33.5625,5.328126 C32.5729167,4.572918 31.420573,4.195314 30.105469,4.195314 C27.761719,4.195314 26.140625,4.97656367 25.242187,6.539063 C24.7473957,7.39843767 24.467448,8.62239567 24.402344,10.210937 L20.925781,10.210937 C20.925781,8.12760367 21.3424477,6.35677067 22.175781,4.898438 C23.608073,2.29427133 26.1276043,0.992188 29.734375,0.992188 C32.5859377,0.992188 34.792969,1.63020867 36.355469,2.90625 C37.917969,4.16927067 38.699219,6.005208 38.699219,8.414062 C38.699219,10.132812 38.2369793,11.5260413 37.3125,12.59375 C36.7395833,13.2578127 35.9973957,13.778646 35.085937,14.15625 C36.5572917,14.559896 37.703125,15.341146 38.523437,16.5 C39.3567703,17.6458333 39.773437,19.0520833 39.773437,20.71875 C39.773437,23.3880207 38.894531,25.5624997 37.136719,27.242187 C35.3789063,28.921875 32.8854167,29.761719 29.65625,29.761719 Z" id="path4974"></path>
                    <path d="M42.78125,29 C42.911458,26.591146 43.4062497,24.4947917 44.265625,22.710937 C45.138021,20.927083 46.8307293,19.3059893 49.34375,17.847656 L53.09375,15.679687 C54.7734373,14.703125 55.9518227,13.8697917 56.628906,13.179687 C57.6966147,12.0989583 58.230469,10.8619793 58.230469,9.46875 C58.230469,7.841146 57.7421877,6.55208367 56.765625,5.601563 C55.7890623,4.638021 54.486979,4.15625 52.859375,4.15625 C50.450521,4.15625 48.7838543,5.06770833 47.859375,6.890625 C47.364583,7.86718767 47.0911453,9.22135433 47.039062,10.953125 L43.464844,10.953125 C43.503904,8.518229 43.9531227,6.532552 44.8125,4.996094 C46.3359373,2.28776067 49.0247393,0.933594 52.878906,0.933594 C56.0820313,0.933594 58.419271,1.79947933 59.890625,3.53125 C61.3749997,5.26302067 62.117187,7.190104 62.117187,9.3125 C62.117187,11.5520833 61.3294267,13.4661457 59.753906,15.054687 C58.842448,15.9791663 57.2083333,17.098958 54.851562,18.414062 L52.175781,19.898437 C50.8997397,20.6015623 49.8971357,21.2721353 49.167969,21.910156 C47.8658857,23.0429687 47.045573,24.299479 46.707031,25.679687 L61.980469,25.679687 L61.980469,29 L42.78125,29 Z" id="path4976"></path>
                    <path d="M67.625,9.195312 L67.625,6.5 C70.1640627,6.252604 71.934896,5.84244767 72.9375,5.269531 C73.940104,4.68359367 74.688802,3.309896 75.183594,1.148438 L77.957031,1.148438 L77.957031,29 L74.207031,29 L74.207031,9.195312 L67.625,9.195312 Z" id="path4978"></path>
                    <path d="M107.54688,29.761719 C104.239587,29.761719 101.83724,28.856771 100.33984,27.046875 C98.8554667,25.2239583 98.11328,23.0104167 98.11328,20.40625 L101.78516,20.40625 C101.941407,22.216146 102.279947,23.53125 102.80078,24.351562 C103.71224,25.8229167 105.359377,26.558594 107.74219,26.558594 C109.59115,26.558594 111.075523,26.0638023 112.19531,25.074219 C113.315103,24.0846357 113.875,22.808594 113.875,21.246094 C113.875,19.3190107 113.282553,17.9713543 112.09766,17.203125 C110.92578,16.4348957 109.291663,16.050781 107.19531,16.050781 C106.960937,16.050781 106.720053,16.057291 106.47266,16.070311 C106.23828,16.070311 105.997393,16.076821 105.75,16.089841 L105.75,12.984372 C106.114587,13.023432 106.420577,13.0494753 106.66797,13.062502 C106.915363,13.075522 107.18229,13.082032 107.46875,13.082032 C108.783857,13.082032 109.864587,12.8736987 110.71094,12.457032 C112.195313,11.7278653 112.9375,10.425782 112.9375,8.550782 C112.9375,7.15755267 112.44271,6.083334 111.45313,5.328126 C110.463543,4.572918 109.311197,4.195314 107.99609,4.195314 C105.652343,4.195314 104.03125,4.97656367 103.13281,6.539063 C102.638023,7.39843833 102.358077,8.62239667 102.29297,10.210938 L98.81641,10.210938 C98.81641,8.12760467 99.2330767,6.35677167 100.06641,4.898439 C101.498697,2.29427233 104.018227,0.992189 107.625,0.992189 C110.47656,0.992189 112.68359,1.63020967 114.24609,2.906251 C115.80859,4.16927167 116.58984,6.005209 116.58984,8.414063 C116.58984,10.132813 116.127603,11.5260423 115.20313,12.593751 C114.63021,13.2578137 113.88802,13.778647 112.97656,14.156251 C114.447913,14.559897 115.593747,15.341147 116.41406,16.500001 C117.247393,17.6458343 117.66406,19.0520843 117.66406,20.718751 C117.66406,23.3880217 116.785153,25.5625007 115.02734,27.242188 C113.269533,28.921876 110.776047,29.76172 107.54688,29.76172 L107.54688,29.761719 Z" id="path4980"></path>
                    <path d="M132.64453,19.097656 L132.64453,6.421875 L123.67969,19.097656 L132.64453,19.097656 Z M132.70312,29 L132.70312,22.164062 L120.4375,22.164062 L120.4375,18.726562 L133.25,0.953125 L136.21875,0.953125 L136.21875,19.097656 L140.33984,19.097656 L140.33984,22.164062 L136.21875,22.164062 L136.21875,29 L132.70312,29 Z" id="path4982"></path>
                    <path d="M146.62891,21.871094 C146.863283,23.876302 147.79427,25.2630207 149.42187,26.03125 C150.255203,26.4218747 151.218747,26.617187 152.3125,26.617187 C154.395833,26.617187 155.938803,25.9531247 156.94141,24.625 C157.94401,23.2968747 158.44531,21.8255203 158.44531,20.210937 C158.44531,18.2578123 157.846353,16.7473957 156.64844,15.679687 C155.46354,14.611979 154.037757,14.078125 152.37109,14.078125 C151.160157,14.078125 150.11849,14.3125 149.24609,14.78125 C148.386717,15.25 147.65104,15.9010417 147.03906,16.734375 L143.99219,16.558594 L146.12109,1.5 L160.65234,1.5 L160.65234,4.898438 L148.75781,4.898438 L147.56641,12.671875 C148.21745,12.177083 148.835937,11.8059893 149.42187,11.558594 C150.463537,11.128906 151.667967,10.914062 153.03516,10.914062 C155.60026,10.914062 157.774737,11.740885 159.55859,13.394531 C161.342443,15.048177 162.23437,17.1445313 162.23437,19.683594 C162.23437,22.3268227 161.41406,24.6575517 159.77344,26.675781 C158.145833,28.6940103 155.541667,29.703125 151.96094,29.703125 C149.682293,29.703125 147.664063,29.065104 145.90625,27.789062 C144.161457,26.5 143.184893,24.527344 142.97656,21.871094 L146.62891,21.871094 Z" id="path4984"></path>
                    <path d="M168.89453,21.871094 C169.128903,23.876302 170.059893,25.2630207 171.6875,26.03125 C172.520833,26.4218747 173.484373,26.617187 174.57812,26.617187 C176.661453,26.617187 178.204423,25.9531247 179.20703,24.625 C180.209637,23.2968747 180.71094,21.8255203 180.71094,20.210937 C180.71094,18.2578123 180.11198,16.7473957 178.91406,15.679687 C177.729167,14.611979 176.303387,14.078125 174.63672,14.078125 C173.42578,14.078125 172.384113,14.3125 171.51172,14.78125 C170.652347,15.25 169.91667,15.9010417 169.30469,16.734375 L166.25781,16.558594 L168.38672,1.5 L182.91797,1.5 L182.91797,4.898438 L171.02344,4.898438 L169.83203,12.671875 C170.48307,12.177083 171.10156,11.8059893 171.6875,11.558594 C172.729167,11.128906 173.933593,10.914062 175.30078,10.914062 C177.865887,10.914062 180.040367,11.740885 181.82422,13.394531 C183.608073,15.048177 184.5,17.1445313 184.5,19.683594 C184.5,22.3268227 183.679687,24.6575517 182.03906,26.675781 C180.41146,28.6940103 177.807293,29.703125 174.22656,29.703125 C171.947913,29.703125 169.929683,29.065104 168.17187,27.789062 C166.427083,26.5 165.450523,24.527344 165.24219,21.871094 L168.89453,21.871094 Z" id="path4986"></path>
                </g>
            </g>
            <rect id="rect4300" stroke="#393939" fill="#393939" transform="translate(376.000000, 118.000000) scale(-1, 1) rotate(-180.000000) translate(-376.000000, -118.000000) " x="15" y="69" width="722" height="98"></rect>
            <rect id="rect4322" fill-opacity="0.19607843" fill="#000000" x="27" y="192" width="562" height="80"></rect>
            <g id="text4324" transform="translate(492.000000, 214.000000)" fill="#000000" stroke="#393939">
                <polygon id="path4331" points="11 0.6 0.8 6.9 2.6 9.85 10.5 5.1 10.5 31.6 2 31.6 2 35 21.85 35 21.85 31.6 21.85 31.6 14.65 31.6 14.65 0.6"></polygon>
                <path d="M39.43047,0 C34.78047,0 31.68047,1.65 28.93047,4.95 L31.83047,7.15 C34.03047,4.6 35.88047,3.5 39.28047,3.5 C43.13047,3.5 45.43047,5.9 45.43047,9.75 C45.43047,15.4 42.63047,19.15 29.63047,31.6 L29.63047,35 L50.08047,35 L50.58047,31.45 L34.38047,31.45 C45.73047,21.1 49.78047,15.95 49.78047,9.65 C49.78047,4.15 45.93047,-1.77635684e-15 39.43047,-1.77635684e-15 Z" id="path4333"></path>
                <path d="M69.41094,0 C65.91094,0 62.56094,1.2 59.66094,4 L61.91094,6.55 C64.21094,4.4 66.26094,3.35 69.21094,3.35 C72.86094,3.35 75.76094,5.4 75.76094,9.2 C75.76094,13.35 72.51094,15.25 69.21094,15.25 L67.16094,15.25 L66.66094,18.55 L69.56094,18.55 C73.61094,18.55 76.71094,20.15 76.71094,25.1 C76.71094,29.4 73.86094,32.15 69.01094,32.15 C66.21094,32.15 63.31094,31 61.36094,28.7 L58.56094,31 C61.16094,34.2 65.26094,35.55 69.11094,35.55 C76.21094,35.55 81.06094,31.05 81.06094,25.1 C81.06094,19.75 77.26094,16.95 73.21094,16.65 C76.86094,15.95 79.96094,12.8 79.96094,8.65 C79.96094,3.95 75.86094,-1.77635684e-15 69.41094,-1.77635684e-15 Z" id="path4335"></path>
            </g>
        </g>
    </g>
</svg>
