<?xml version="1.0" encoding="UTF-8" standalone="no"?>
<svg
   xmlns:dc="http://purl.org/dc/elements/1.1/"
   xmlns:cc="http://creativecommons.org/ns#"
   xmlns:rdf="http://www.w3.org/1999/02/22-rdf-syntax-ns#"
   xmlns:svg="http://www.w3.org/2000/svg"
   xmlns="http://www.w3.org/2000/svg"
   xmlns:sodipodi="http://sodipodi.sourceforge.net/DTD/sodipodi-0.dtd"
   xmlns:inkscape="http://www.inkscape.org/namespaces/inkscape"
   width="780"
   height="501"
   viewBox="0 0 780 501"
   version="1.1"
   id="svg4380"
   inkscape:version="0.91 r13725"
   sodipodi:docname="security-code.svg">
  <metadata
     id="metadata4429">
    <rdf:RDF>
      <cc:Work
         rdf:about="">
        <dc:format>image/svg+xml</dc:format>
        <dc:type
           rdf:resource="http://purl.org/dc/dcmitype/StillImage" />
        <dc:title>security-code</dc:title>
      </cc:Work>
    </rdf:RDF>
  </metadata>
  <sodipodi:namedview
     pagecolor="#ffffff"
     bordercolor="#666666"
     borderopacity="1"
     objecttolerance="10"
     gridtolerance="10"
     guidetolerance="10"
     inkscape:pageopacity="0"
     inkscape:pageshadow="2"
     inkscape:window-width="1440"
     inkscape:window-height="856"
     id="namedview4427"
     showgrid="false"
     inkscape:zoom="0.51665935"
     inkscape:cx="251.08569"
     inkscape:cy="281.11512"
     inkscape:window-x="0"
     inkscape:window-y="0"
     inkscape:window-maximized="0"
     inkscape:current-layer="g4392"
     fit-margin-top="0"
     fit-margin-left="0"
     fit-margin-right="0"
     fit-margin-bottom="0" />
  <!-- Generator: Sketch 39.1 (31720) - http://www.bohemiancoding.com/sketch -->
  <title
     id="title4382">security-code</title>
  <desc
     id="desc4384">Created with Sketch.</desc>
  <defs
     id="defs4386" />
  <g
     id="Page-1"
     style="fill:none;fill-rule:evenodd;stroke:none;stroke-width:1"
     transform="translate(15,15)">
    <g
       id="security-code">
      <g
         id="g4390">
        <g
           id="g4392"
           style="stroke:#393939;stroke-opacity:1">
          <rect
             id="Rectangle-1"
             transform="matrix(-1,0,0,1,750,0)"
             x="0"
             y="0"
             width="750"
             height="471"
             rx="40"
             style="fill:none;stroke:#393939;stroke-width:30;stroke-miterlimit:4;stroke-dasharray:none;stroke-opacity:1" />
          <g
             id="text4185"
             transform="matrix(-1,0,0,1,698.94815,279)"
             style="fill:#000000;fill-opacity:0.19607843;stroke:none;stroke-opacity:1">
            <polygon
               id="path4219"
               points="21.984974,16.30512 17.787474,16.30512 17.384974,27.57512 5.942474,27.57512 16.522474,2.50512 12.554974,0.78012 0.882474,27.92012 0.882474,31.37012 17.327474,31.37012 17.327474,41.03012 21.984974,41.03012 21.984974,31.37012 27.102474,31.37012 27.102474,31.37012 27.102474,27.57512 21.984974,27.57512 "
               style="fill:#000000;fill-opacity:0.19607843;stroke:none;stroke-opacity:1" />
            <path
               d="m 46.687513,0.78012 c -4.025,0 -7.8775,1.38 -11.2125,4.6 l 2.5875,2.9325 c 2.645,-2.4725 5.0025,-3.68 8.395,-3.68 4.197497,0 7.532497,2.3575 7.532497,6.7275 0,4.7725 -3.7375,6.9575 -7.532497,6.9575 l -2.3575,0 -0.575,3.795 3.335,0 c 4.657497,0 8.222497,1.84 8.222497,7.5325 0,4.945 -3.2775,8.1075 -8.854997,8.1075 -3.22,0 -6.555,-1.3225 -8.7975,-3.9675 l -3.22,2.645 c 2.99,3.68 7.705,5.2325 12.1325,5.2325 8.164997,0 13.742497,-5.175 13.742497,-12.0175 0,-6.1525 -4.37,-9.3725 -9.0275,-9.7175 4.1975,-0.805 7.7625,-4.4275 7.7625,-9.2 0,-5.405 -4.715,-9.9475 -12.132497,-9.9475 l 0,0 z"
               id="path4221"
               style="fill:#000000;fill-opacity:0.19607843;stroke:none;stroke-opacity:1"
               inkscape:connector-curvature="0" />
            <path
               d="m 81.16505,0.78012 c -5.3475,0 -8.9125,1.8975 -12.075,5.6925 l 3.335,2.53 c 2.53,-2.9325 4.6575,-4.1975 8.5675,-4.1975 4.4275,0 7.0725,2.76 7.0725,7.1875 0,6.4975 -3.22,10.81 -18.17,25.1275 l 0,3.91 23.5175,0 0.575,-4.0825 -18.63,0 c 13.0525,-11.9025 17.71,-17.825 17.71,-25.07 0,-6.325 -4.4275,-11.0975 -11.9025,-11.0975 l 0,0 z"
               id="path4223"
               style="fill:#000000;fill-opacity:0.19607843;stroke:none;stroke-opacity:1"
               inkscape:connector-curvature="0" />
            <polygon
               id="path4225"
               points="117.42509,1.47012 105.69509,8.71512 107.76509,12.10762 116.85009,6.64512 116.85009,37.12012 107.07509,37.12012 107.07509,41.03012 129.90259,41.03012 129.90259,37.12012 129.90259,37.12012 121.62259,37.12012 121.62259,1.47012 "
               style="fill:#000000;fill-opacity:0.19607843;stroke:none;stroke-opacity:1" />
            <polygon
               id="path4227"
               points="194.37267,16.30512 190.17517,16.30512 189.77267,27.57512 178.33017,27.57512 188.91017,2.50512 184.94267,0.78012 173.27017,27.92012 173.27017,31.37012 189.71517,31.37012 189.71517,41.03012 194.37267,41.03012 194.37267,31.37012 199.49017,31.37012 199.49017,31.37012 199.49017,27.57512 194.37267,27.57512 "
               style="fill:#000000;fill-opacity:0.19607843;stroke:none;stroke-opacity:1" />
            <path
               d="m 219.07521,0.78012 c -4.025,0 -7.8775,1.38 -11.2125,4.6 l 2.5875,2.9325 c 2.645,-2.4725 5.0025,-3.68 8.395,-3.68 4.1975,0 7.5325,2.3575 7.5325,6.7275 0,4.7725 -3.7375,6.9575 -7.5325,6.9575 l -2.3575,0 -0.575,3.795 3.335,0 c 4.6575,0 8.2225,1.84 8.2225,7.5325 0,4.945 -3.2775,8.1075 -8.855,8.1075 -3.22,0 -6.555,-1.3225 -8.7975,-3.9675 l -3.22,2.645 c 2.99,3.68 7.705,5.2325 12.1325,5.2325 8.165,0 13.7425,-5.175 13.7425,-12.0175 0,-6.1525 -4.37,-9.3725 -9.0275,-9.7175 4.1975,-0.805 7.7625,-4.4275 7.7625,-9.2 0,-5.405 -4.715,-9.9475 -12.1325,-9.9475 l 0,0 z"
               id="path4229"
               style="fill:#000000;fill-opacity:0.19607843;stroke:none;stroke-opacity:1"
               inkscape:connector-curvature="0" />
            <path
               d="m 253.55275,0.78012 c -5.3475,0 -8.9125,1.8975 -12.075,5.6925 l 3.335,2.53 c 2.53,-2.9325 4.6575,-4.1975 8.5675,-4.1975 4.4275,0 7.0725,2.76 7.0725,7.1875 0,6.4975 -3.22,10.81 -18.17,25.1275 l 0,3.91 23.5175,0 0.575,-4.0825 -18.63,0 c 13.0525,-11.9025 17.71,-17.825 17.71,-25.07 0,-6.325 -4.4275,-11.0975 -11.9025,-11.0975 l 0,0 z"
               id="path4231"
               style="fill:#000000;fill-opacity:0.19607843;stroke:none;stroke-opacity:1"
               inkscape:connector-curvature="0" />
            <polygon
               id="path4233"
               points="289.81279,1.47012 278.08279,8.71512 280.15279,12.10762 289.23779,6.64512 289.23779,37.12012 279.46279,37.12012 279.46279,41.03012 302.29029,41.03012 302.29029,37.12012 302.29029,37.12012 294.01029,37.12012 294.01029,1.47012 "
               style="fill:#000000;fill-opacity:0.19607843;stroke:none;stroke-opacity:1" />
            <polygon
               id="path4235"
               points="366.76036,16.30512 362.56286,16.30512 362.16036,27.57512 350.71786,27.57512 361.29786,2.50512 357.33036,0.78012 345.65786,27.92012 345.65786,31.37012 362.10286,31.37012 362.10286,41.03012 366.76036,41.03012 366.76036,31.37012 371.87786,31.37012 371.87786,31.37012 371.87786,27.57512 366.76036,27.57512 "
               style="fill:#000000;fill-opacity:0.19607843;stroke:none;stroke-opacity:1" />
            <path
               d="m 391.4629,0.78012 c -4.025,0 -7.8775,1.38 -11.2125,4.6 l 2.5875,2.9325 c 2.645,-2.4725 5.0025,-3.68 8.395,-3.68 4.1975,0 7.5325,2.3575 7.5325,6.7275 0,4.7725 -3.7375,6.9575 -7.5325,6.9575 l -2.3575,0 -0.575,3.795 3.335,0 c 4.6575,0 8.2225,1.84 8.2225,7.5325 0,4.945 -3.2775,8.1075 -8.855,8.1075 -3.22,0 -6.555,-1.3225 -8.7975,-3.9675 l -3.22,2.645 c 2.99,3.68 7.705,5.2325 12.1325,5.2325 8.165,0 13.7425,-5.175 13.7425,-12.0175 0,-6.1525 -4.37,-9.3725 -9.0275,-9.7175 4.1975,-0.805 7.7625,-4.4275 7.7625,-9.2 0,-5.405 -4.715,-9.9475 -12.1325,-9.9475 l 0,0 z"
               id="path4237"
               style="fill:#000000;fill-opacity:0.19607843;stroke:none;stroke-opacity:1"
               inkscape:connector-curvature="0" />
            <path
               d="m 425.94044,0.78012 c -5.3475,0 -8.9125,1.8975 -12.075,5.6925 l 3.335,2.53 c 2.53,-2.9325 4.6575,-4.1975 8.5675,-4.1975 4.4275,0 7.0725,2.76 7.0725,7.1875 0,6.4975 -3.22,10.81 -18.17,25.1275 l 0,3.91 23.5175,0 0.575,-4.0825 -18.63,0 c 13.0525,-11.9025 17.71,-17.825 17.71,-25.07 0,-6.325 -4.4275,-11.0975 -11.9025,-11.0975 l 0,0 z"
               id="path4239"
               style="fill:#000000;fill-opacity:0.19607843;stroke:none;stroke-opacity:1"
               inkscape:connector-curvature="0" />
            <polygon
               id="path4241"
               points="462.20048,1.47012 450.47048,8.71512 452.54048,12.10762 461.62548,6.64512 461.62548,37.12012 451.85048,37.12012 451.85048,41.03012 474.67798,41.03012 474.67798,37.12012 474.67798,37.12012 466.39798,37.12012 466.39798,1.47012 "
               style="fill:#000000;fill-opacity:0.19607843;stroke:none;stroke-opacity:1" />
            <polygon
               id="path4243"
               points="539.14806,16.30512 534.95056,16.30512 534.54806,27.57512 523.10556,27.57512 533.68556,2.50512 529.71806,0.78012 518.04556,27.92012 518.04556,31.37012 534.49056,31.37012 534.49056,41.03012 539.14806,41.03012 539.14806,31.37012 544.26556,31.37012 544.26556,31.37012 544.26556,27.57512 539.14806,27.57512 "
               style="fill:#000000;fill-opacity:0.19607843;stroke:none;stroke-opacity:1" />
            <path
               d="m 563.8506,0.78012 c -4.025,0 -7.8775,1.38 -11.2125,4.6 l 2.5875,2.9325 c 2.645,-2.4725 5.0025,-3.68 8.395,-3.68 4.1975,0 7.5325,2.3575 7.5325,6.7275 0,4.7725 -3.7375,6.9575 -7.5325,6.9575 l -2.3575,0 -0.575,3.795 3.335,0 c 4.6575,0 8.2225,1.84 8.2225,7.5325 0,4.945 -3.2775,8.1075 -8.855,8.1075 -3.22,0 -6.555,-1.3225 -8.7975,-3.9675 l -3.22,2.645 c 2.99,3.68 7.705,5.2325 12.1325,5.2325 8.165,0 13.7425,-5.175 13.7425,-12.0175 0,-6.1525 -4.37,-9.3725 -9.0275,-9.7175 4.1975,-0.805 7.7625,-4.4275 7.7625,-9.2 0,-5.405 -4.715,-9.9475 -12.1325,-9.9475 l 0,0 z"
               id="path4245"
               style="fill:#000000;fill-opacity:0.19607843;stroke:none;stroke-opacity:1"
               inkscape:connector-curvature="0" />
            <path
               d="m 598.32814,0.78012 c -5.3475,0 -8.9125,1.8975 -12.075,5.6925 l 3.335,2.53 c 2.53,-2.9325 4.6575,-4.1975 8.5675,-4.1975 4.4275,0 7.0725,2.76 7.0725,7.1875 0,6.4975 -3.22,10.81 -18.17,25.1275 l 0,3.91 23.5175,0 0.575,-4.0825 -18.63,0 c 13.0525,-11.9025 17.71,-17.825 17.71,-25.07 0,-6.325 -4.4275,-11.0975 -11.9025,-11.0975 l 0,0 z"
               id="path4247"
               style="fill:#000000;fill-opacity:0.19607843;stroke:none;stroke-opacity:1"
               inkscape:connector-curvature="0" />
            <polygon
               id="path4249"
               points="634.58818,1.47012 622.85818,8.71512 624.92818,12.10762 634.01318,6.64512 634.01318,37.12012 624.23818,37.12012 624.23818,41.03012 647.06568,41.03012 647.06568,37.12012 647.06568,37.12012 638.78568,37.12012 638.78568,1.47012 "
               style="fill:#000000;fill-opacity:0.19607843;stroke:none;stroke-opacity:1" />
          </g>
          <g
             id="text4189"
             transform="matrix(-1,0,0,1,702.35425,372.74118)"
             style="fill:#000000;fill-opacity:0.19607843;stroke:none;stroke-opacity:1">
            <g
               id="tspan4191"
               style="fill:#000000;fill-opacity:0.19607843;stroke:none;stroke-opacity:1">
              <path
                 d="m 3.828125,19.195312 0,-2.695312 q 3.8085937,-0.371094 5.3125,-1.230469 1.503906,-0.878906 2.246094,-4.121093 l 2.773437,0 0,27.851562 -3.75,0 0,-19.804688 -6.582031,0 z"
                 id="path4989"
                 style="fill:#000000;fill-opacity:0.19607843;stroke:none;stroke-opacity:1"
                 inkscape:connector-curvature="0" />
              <path
                 d="m 26.09375,19.195312 0,-2.695312 q 3.808594,-0.371094 5.3125,-1.230469 1.503906,-0.878906 2.246094,-4.121093 l 2.773437,0 0,27.851562 -3.75,0 0,-19.804688 -6.582031,0 z"
                 id="path4991"
                 style="fill:#000000;fill-opacity:0.19607843;stroke:none;stroke-opacity:1"
                 inkscape:connector-curvature="0" />
              <path
                 d="m 56.875,39 q 0.195312,-3.613281 1.484375,-6.289063 1.308594,-2.675781 5.078125,-4.863281 l 3.75,-2.167969 q 2.519531,-1.464843 3.535156,-2.5 1.601563,-1.621093 1.601563,-3.710937 0,-2.441406 -1.464844,-3.867187 -1.464844,-1.445313 -3.90625,-1.445313 -3.613281,0 -5,2.734375 -0.742188,1.464844 -0.820313,4.0625 l -3.574218,0 q 0.05859,-3.652344 1.347656,-5.957031 2.285156,-4.0625 8.066406,-4.0625 4.804688,0 7.011719,2.597656 2.226562,2.597656 2.226562,5.78125 0,3.359375 -2.363281,5.742187 -1.367187,1.386719 -4.902344,3.359375 l -2.675781,1.484375 q -1.914062,1.054688 -3.007812,2.011719 -1.953125,1.699219 -2.460938,3.769531 l 15.273438,0 0,3.320313 L 56.875,39 Z"
                 id="path4993"
                 style="fill:#000000;fill-opacity:0.19607843;stroke:none;stroke-opacity:1"
                 inkscape:connector-curvature="0" />
              <path
                 d="m 88.28125,39.761719 q -4.960938,0 -7.207031,-2.714844 Q 78.847656,34.3125 78.847656,30.40625 l 3.671875,0 q 0.234375,2.714844 1.015625,3.945312 1.367188,2.207032 4.941406,2.207032 2.773438,0 4.453125,-1.484375 1.679688,-1.484375 1.679688,-3.828125 0,-2.890625 -1.777344,-4.042969 -1.757812,-1.152344 -4.902344,-1.152344 -0.351562,0 -0.722656,0.01953 -0.351562,0 -0.722656,0.01953 l 0,-3.105469 q 0.546875,0.05859 0.917969,0.07813 0.371093,0.01953 0.800781,0.01953 1.972656,0 3.242187,-0.625 2.226563,-1.09375 2.226563,-3.90625 0,-2.089844 -1.484375,-3.222656 -1.484375,-1.132812 -3.457031,-1.132812 -3.515625,0 -4.863282,2.343749 -0.742187,1.289063 -0.839843,3.671875 l -3.476563,0 q 0,-3.125 1.25,-5.312499 2.148438,-3.90625 7.558594,-3.90625 4.277344,0 6.621094,1.914062 2.34375,1.894531 2.34375,5.507812 0,2.578125 -1.386719,4.179688 -0.859375,0.996094 -2.226563,1.5625 2.207032,0.605469 3.4375,2.34375 1.25,1.71875 1.25,4.21875 0,4.003906 -2.636718,6.523437 Q 93.125,39.76172 88.28125,39.76172 Z"
                 id="path4995"
                 style="fill:#000000;fill-opacity:0.19607843;stroke:none;stroke-opacity:1"
                 inkscape:connector-curvature="0" />
              <path
                 d="m 116.19141,31.871094 q 0.35156,3.007812 2.79297,4.160156 1.25,0.585937 2.89062,0.585937 3.125,0 4.62891,-1.992187 1.5039,-1.992188 1.5039,-4.414063 0,-2.929687 -1.79687,-4.53125 -1.77735,-1.601562 -4.27735,-1.601562 -1.8164,0 -3.125,0.703125 -1.28906,0.703125 -2.20703,1.953125 l -3.04687,-0.175781 2.1289,-15.058594 14.53125,0 0,3.398438 -11.89453,0 -1.1914,7.773437 q 0.97656,-0.742188 1.85547,-1.113281 1.5625,-0.644532 3.61328,-0.644532 3.84765,0 6.52343,2.480469 2.67578,2.480469 2.67578,6.289063 0,3.964843 -2.46093,6.992187 -2.44141,3.027344 -7.8125,3.027344 -3.41797,0 -6.05469,-1.914063 -2.61719,-1.933593 -2.92969,-5.917968 l 3.65235,0 z"
                 id="path4997"
                 style="fill:#000000;fill-opacity:0.19607843;stroke:none;stroke-opacity:1"
                 inkscape:connector-curvature="0" />
              <path
                 d="m 144.39453,22.75 q 2.32422,0 3.63281,-1.289063 1.3086,-1.308593 1.3086,-3.105468 0,-1.5625 -1.25,-2.871094 -1.25,-1.308594 -3.8086,-1.308594 -2.53906,0 -3.67187,1.308594 -1.13281,1.308594 -1.13281,3.066406 0,1.972656 1.46484,3.085938 1.46484,1.113281 3.45703,1.113281 z m 0.21484,13.847656 q 2.44141,0 4.04297,-1.308594 1.6211,-1.328125 1.6211,-3.945312 0,-2.714844 -1.66016,-4.121094 -1.66016,-1.40625 -4.25781,-1.40625 -2.51953,0 -4.1211,1.445313 -1.58203,1.425781 -1.58203,3.964843 0,2.1875 1.44532,3.789063 1.46484,1.582031 4.51171,1.582031 z m -5,-12.5 q -1.46484,-0.625 -2.28515,-1.464844 -1.54297,-1.5625 -1.54297,-4.0625 0,-3.124999 2.26562,-5.371093 2.26563,-2.246094 6.42579,-2.246094 4.02343,0 6.30859,2.128906 2.28516,2.109375 2.28516,4.941406 0,2.617188 -1.32813,4.238282 -0.74219,0.917968 -2.30469,1.796875 1.73828,0.800781 2.73438,1.835937 1.85547,1.953125 1.85547,5.078125 0,3.691406 -2.48047,6.269531 -2.48047,2.558594 -7.01172,2.558594 -4.08203,0 -6.91406,-2.207031 -2.8125,-2.226563 -2.8125,-6.445313 0,-2.480468 1.21093,-4.277343 1.21094,-1.816407 3.59375,-2.773438 z"
                 id="path4999"
                 style="fill:#000000;fill-opacity:0.19607843;stroke:none;stroke-opacity:1"
                 inkscape:connector-curvature="0" />
            </g>
          </g>
          <g
             id="text4214"
             transform="matrix(-1,0,0,1,515.12476,373.77344)"
             style="fill:#000000;fill-opacity:0.19607843;stroke:none;stroke-opacity:1">
            <g
               id="tspan4216"
               style="fill:#000000;fill-opacity:0.19607843;stroke:none;stroke-opacity:1">
              <path
                 d="m 3.828125,19.195312 0,-2.695312 q 3.8085937,-0.371094 5.3125,-1.230469 1.503906,-0.878906 2.246094,-4.121093 l 2.773437,0 0,27.851562 -3.75,0 0,-19.804688 -6.582031,0 z"
                 id="path4972"
                 style="fill:#000000;fill-opacity:0.19607843;stroke:none;stroke-opacity:1"
                 inkscape:connector-curvature="0" />
              <path
                 d="m 32.65625,39.761719 q -4.960938,0 -7.207031,-2.714844 Q 23.222656,34.3125 23.222656,30.40625 l 3.671875,0 q 0.234375,2.714844 1.015625,3.945312 1.367188,2.207032 4.941406,2.207032 2.773438,0 4.453125,-1.484375 1.679688,-1.484375 1.679688,-3.828125 0,-2.890625 -1.777344,-4.042969 -1.757812,-1.152344 -4.902344,-1.152344 -0.351562,0 -0.722656,0.01953 -0.351562,0 -0.722656,0.01953 l 0,-3.105469 q 0.546875,0.05859 0.917969,0.07813 0.371093,0.01953 0.800781,0.01953 1.972656,0 3.242187,-0.625 2.226563,-1.09375 2.226563,-3.90625 0,-2.089844 -1.484375,-3.222656 -1.484375,-1.132812 -3.457031,-1.132812 -3.515625,0 -4.863282,2.343749 Q 27.5,17.828125 27.402344,20.210937 l -3.476563,0 q 0,-3.125 1.25,-5.312499 2.148438,-3.90625 7.558594,-3.90625 4.277344,0 6.621094,1.914062 2.34375,1.894531 2.34375,5.507812 0,2.578125 -1.386719,4.179688 -0.859375,0.996094 -2.226563,1.5625 2.207032,0.605469 3.4375,2.34375 1.25,1.71875 1.25,4.21875 0,4.003906 -2.636718,6.523437 Q 37.5,39.761719 32.65625,39.761719 Z"
                 id="path4974"
                 style="fill:#000000;fill-opacity:0.19607843;stroke:none;stroke-opacity:1"
                 inkscape:connector-curvature="0" />
              <path
                 d="m 45.78125,39 q 0.195312,-3.613281 1.484375,-6.289063 1.308594,-2.675781 5.078125,-4.863281 l 3.75,-2.167969 q 2.519531,-1.464843 3.535156,-2.5 1.601563,-1.621093 1.601563,-3.710937 0,-2.441406 -1.464844,-3.867187 -1.464844,-1.445313 -3.90625,-1.445313 -3.613281,0 -5,2.734375 -0.742188,1.464844 -0.820313,4.0625 l -3.574218,0 q 0.05859,-3.652344 1.347656,-5.957031 2.285156,-4.0625 8.066406,-4.0625 4.804688,0 7.011719,2.597656 2.226562,2.597656 2.226562,5.78125 0,3.359375 -2.363281,5.742187 -1.367187,1.386719 -4.902344,3.359375 l -2.675781,1.484375 q -1.914062,1.054688 -3.007812,2.011719 -1.953125,1.699219 -2.460938,3.769531 l 15.273438,0 0,3.320313 -19.199219,0 z"
                 id="path4976"
                 style="fill:#000000;fill-opacity:0.19607843;stroke:none;stroke-opacity:1"
                 inkscape:connector-curvature="0" />
              <path
                 d="m 70.625,19.195312 0,-2.695312 q 3.808594,-0.371094 5.3125,-1.230469 1.503906,-0.878906 2.246094,-4.121093 l 2.773437,0 0,27.851562 -3.75,0 0,-19.804688 -6.582031,0 z"
                 id="path4978"
                 style="fill:#000000;fill-opacity:0.19607843;stroke:none;stroke-opacity:1"
                 inkscape:connector-curvature="0" />
              <path
                 d="m 110.54688,39.761719 q -4.96094,0 -7.20704,-2.714844 -2.22656,-2.734375 -2.22656,-6.640625 l 3.67188,0 q 0.23437,2.714844 1.01562,3.945312 1.36719,2.207032 4.94141,2.207032 2.77344,0 4.45312,-1.484375 1.67969,-1.484375 1.67969,-3.828125 0,-2.890625 -1.77734,-4.042969 -1.75782,-1.152344 -4.90235,-1.152344 -0.35156,0 -0.72265,0.01953 -0.35157,0 -0.72266,0.01953 l 0,-3.105469 q 0.54688,0.05859 0.91797,0.07813 0.37109,0.01953 0.80078,0.01953 1.97266,0 3.24219,-0.625 2.22656,-1.09375 2.22656,-3.90625 0,-2.089844 -1.48437,-3.222656 -1.48438,-1.132812 -3.45704,-1.132812 -3.51562,0 -4.86328,2.343749 -0.74218,1.289063 -0.83984,3.671875 l -3.47656,0 q 0,-3.125 1.25,-5.312499 2.14843,-3.90625 7.55859,-3.90625 4.27734,0 6.62109,1.914062 2.34375,1.894531 2.34375,5.507812 0,2.578125 -1.38671,4.179688 -0.85938,0.996094 -2.22657,1.5625 2.20703,0.605469 3.4375,2.34375 1.25,1.71875 1.25,4.21875 0,4.003906 -2.63672,6.523437 -2.63671,2.519532 -7.48046,2.519532 z"
                 id="path4980"
                 style="fill:#000000;fill-opacity:0.19607843;stroke:none;stroke-opacity:1"
                 inkscape:connector-curvature="0" />
              <path
                 d="m 135.64453,29.097656 0,-12.675781 -8.96484,12.675781 8.96484,0 z M 135.70312,39 l 0,-6.835938 -12.26562,0 0,-3.4375 12.8125,-17.773437 2.96875,0 0,18.144531 4.12109,0 0,3.066406 -4.12109,0 0,6.835938 -3.51563,0 z"
                 id="path4982"
                 style="fill:#000000;fill-opacity:0.19607843;stroke:none;stroke-opacity:1"
                 inkscape:connector-curvature="0" />
              <path
                 d="m 149.62891,31.871094 q 0.35156,3.007812 2.79296,4.160156 1.25,0.585937 2.89063,0.585937 3.125,0 4.62891,-1.992187 1.5039,-1.992188 1.5039,-4.414063 0,-2.929687 -1.79687,-4.53125 -1.77735,-1.601562 -4.27735,-1.601562 -1.8164,0 -3.125,0.703125 -1.28906,0.703125 -2.20703,1.953125 l -3.04687,-0.175781 2.1289,-15.058594 14.53125,0 0,3.398438 -11.89453,0 -1.1914,7.773437 q 0.97656,-0.742188 1.85546,-1.113281 1.5625,-0.644532 3.61329,-0.644532 3.84765,0 6.52343,2.480469 2.67578,2.480469 2.67578,6.289063 0,3.964843 -2.46093,6.992187 -2.44141,3.027344 -7.8125,3.027344 -3.41797,0 -6.05469,-1.914063 -2.61719,-1.933593 -2.92969,-5.917968 l 3.65235,0 z"
                 id="path4984"
                 style="fill:#000000;fill-opacity:0.19607843;stroke:none;stroke-opacity:1"
                 inkscape:connector-curvature="0" />
              <path
                 d="m 171.89453,31.871094 q 0.35156,3.007812 2.79297,4.160156 1.25,0.585937 2.89062,0.585937 3.125,0 4.62891,-1.992187 1.50391,-1.992188 1.50391,-4.414063 0,-2.929687 -1.79688,-4.53125 -1.77734,-1.601562 -4.27734,-1.601562 -1.81641,0 -3.125,0.703125 -1.28906,0.703125 -2.20703,1.953125 L 169.25781,26.558594 171.38672,11.5 l 14.53125,0 0,3.398438 -11.89453,0 -1.19141,7.773437 q 0.97656,-0.742188 1.85547,-1.113281 1.5625,-0.644532 3.61328,-0.644532 3.84766,0 6.52344,2.480469 Q 187.5,25.875 187.5,29.683594 q 0,3.964843 -2.46094,6.992187 -2.4414,3.027344 -7.8125,3.027344 -3.41797,0 -6.05469,-1.914063 -2.61718,-1.933593 -2.92968,-5.917968 l 3.65234,0 z"
                 id="path4986"
                 style="fill:#000000;fill-opacity:0.19607843;stroke:none;stroke-opacity:1"
                 inkscape:connector-curvature="0" />
            </g>
          </g>
          <rect
             id="rect4300"
             transform="matrix(1,0,0,-1,0,206)"
             x="0"
             y="52"
             width="750"
             height="102"
             style="fill:#393939;fill-opacity:1;stroke:#393939;stroke-opacity:1" />
          <rect
             id="rect4322"
             x="12"
             y="177"
             width="562"
             height="80"
             style="fill:#000000;fill-opacity:0.19607843;stroke:none;stroke-opacity:0.19607843" />
          <g
             id="text4324"
             transform="translate(477,199)"
             style="fill:#000000;stroke:#393939;stroke-opacity:1">
            <polygon
               id="path4331"
               points="11,0.6 0.8,6.9 2.6,9.85 10.5,5.1 10.5,31.6 2,31.6 2,35 21.85,35 21.85,31.6 21.85,31.6 14.65,31.6 14.65,0.6 "
               style="stroke:#393939;stroke-opacity:1" />
            <path
               d="m 39.43047,0 c -4.65,0 -7.75,1.65 -10.5,4.95 l 2.9,2.2 c 2.2,-2.55 4.05,-3.65 7.45,-3.65 3.85,0 6.15,2.4 6.15,6.25 0,5.65 -2.8,9.4 -15.8,21.85 l 0,3.4 20.45,0 0.5,-3.55 -16.2,0 c 11.35,-10.35 15.4,-15.5 15.4,-21.8 0,-5.5 -3.85,-9.65 -10.35,-9.65 l 0,0 z"
               id="path4333"
               style="stroke:#393939;stroke-opacity:1"
               inkscape:connector-curvature="0" />
            <path
               d="m 69.41094,0 c -3.5,0 -6.85,1.2 -9.75,4 l 2.25,2.55 c 2.3,-2.15 4.35,-3.2 7.3,-3.2 3.65,0 6.55,2.05 6.55,5.85 0,4.15 -3.25,6.05 -6.55,6.05 l -2.05,0 -0.5,3.3 2.9,0 c 4.05,0 7.15,1.6 7.15,6.55 0,4.3 -2.85,7.05 -7.7,7.05 -2.8,0 -5.7,-1.15 -7.65,-3.45 l -2.8,2.3 c 2.6,3.2 6.7,4.55 10.55,4.55 7.1,0 11.95,-4.5 11.95,-10.45 0,-5.35 -3.8,-8.15 -7.85,-8.45 3.65,-0.7 6.75,-3.85 6.75,-8 0,-4.7 -4.1,-8.65 -10.55,-8.65 l 0,0 z"
               id="path4335"
               style="stroke:#393939;stroke-opacity:1"
               inkscape:connector-curvature="0" />
          </g>
        </g>
      </g>
    </g>
  </g>
</svg>
