<svg width="750" height="471" viewBox="0 0 750 471" version="1.1" xmlns="http://www.w3.org/2000/svg" xmlns:xlink="http://www.w3.org/1999/xlink">
    <!-- Generator: Sketch 48.2 (47327) - http://www.bohemiancoding.com/sketch -->
    <desc>Created with Sketch.</desc>
    <defs></defs>
    <g id="Page-1" stroke="none" stroke-width="1" fill="none" fill-rule="evenodd">
        <g id="Verve-Outline" fill="#393939">
            <path d="M52.8846154,28.2035928 C39.6085397,28.2035928 28.8461538,38.7262417 28.8461538,51.7065868 L28.8461538,419.293413 C28.8461538,432.273758 39.6085397,442.796407 52.8846154,442.796407 L697.115385,442.796407 C710.39146,442.796407 721.153846,432.273758 721.153846,419.293413 L721.153846,51.7065868 C721.153846,38.7262417 710.39146,28.2035928 697.115385,28.2035928 L52.8846154,28.2035928 Z M52.8846154,0 L697.115385,0 C726.322751,-5.0099645e-15 750,23.1498275 750,51.7065868 L750,419.293413 C750,447.850173 726.322751,471 697.115385,471 L52.8846154,471 C23.6772488,471 3.41607085e-15,447.850173 0,419.293413 L0,51.7065868 C-3.41607085e-15,23.1498275 23.6772488,5.0099645e-15 52.8846154,0 Z" id="Combined-Shape"></path>
            <path d="M166.086967,320.173934 C105.287614,320.173934 56,270.88632 56,210.086967 C56,149.287614 105.287614,100 166.086967,100 C226.88632,100 276.173934,149.287614 276.173934,210.086967 C276.173934,270.88632 226.88632,320.173934 166.086967,320.173934 Z M166.086967,257.242149 C141.464962,201.425964 123.408874,149.28615 123.408874,149.28615 L85.6592065,149.28615 C85.6592065,149.28615 108.635678,216.21085 151.313771,299.904235 L180.860172,299.904235 C223.538266,216.21085 246.514737,149.28615 246.514737,149.28615 L208.76506,149.28615 C208.76506,149.28615 190.708973,201.425964 166.086967,257.242149 Z M693.088034,250.301655 L619.232142,250.301655 C619.232142,250.301655 620.872986,274.925054 653.698143,274.925054 C670.110197,274.925054 686.523482,269.996667 686.523482,269.996667 L689.806441,296.256097 C689.806441,296.256097 673.393156,302.821328 650.415318,302.821328 C617.591336,302.821328 588.048908,286.408587 588.048908,240.454287 C588.048908,204.346667 611.02538,181.369517 643.850718,181.369517 C693.088034,181.369517 696.370993,230.606776 693.088034,250.301655 Z M642.209979,204.346667 C620.872938,204.346667 619.232142,227.323817 619.232142,227.323817 L665.186451,227.323817 C665.186451,227.323817 663.545654,204.346667 642.209979,204.346667 Z M439.309732,211.279139 C439.309732,211.279139 421.254285,204.714043 408.1252,214.56142 L408.127788,299.904254 L375.301217,299.904254 L375.301217,194.866541 C406.20886,173.480304 444.233354,185.01903 444.233354,185.01903 L439.309732,211.279139 Z M349.610017,250.301655 L275.754125,250.301655 C275.754125,250.301655 277.394969,274.925054 310.220126,274.925054 C326.63218,274.925054 343.044109,269.996667 343.044109,269.996667 L346.327068,296.256097 C346.327068,296.256097 329.915148,302.821328 306.937311,302.821328 C274.111972,302.821328 244.569582,286.408587 244.569582,240.454287 C244.569582,204.346667 267.54742,181.369517 300.372759,181.369517 C349.610017,181.369517 352.891582,230.606776 349.610017,250.301655 Z M298.730596,204.346667 C277.394921,204.346667 275.754125,227.323817 275.754125,227.323817 L321.708434,227.323817 C321.708434,227.323817 320.067628,204.346667 298.730596,204.346667 Z M519.030937,260.538374 C508.827646,235.723348 500.595945,210.142773 494.412293,184.034247 L461.589676,184.038583 C461.589676,184.038583 478.001663,247.40396 505.904545,299.909536 L532.157328,299.909536 C560.06023,247.40396 576.472197,184.050263 576.472197,184.050263 L543.64958,184.050263 C537.464559,210.153194 529.232882,235.72834 519.030937,260.538374 Z" id="Combined-Shape" fill-rule="nonzero"></path>
        </g>
    </g>
</svg>
