<svg height="471" viewBox="0 0 750 471" width="750" xmlns="http://www.w3.org/2000/svg"><g fill="#393939" fill-rule="evenodd"><path d="m52.8846154 28.2035928c-13.2760757 0-24.0384616 10.5226489-24.0384616 23.502994v367.5868262c0 12.980345 10.7623859 23.502994 24.0384616 23.502994h644.2307696c13.276075 0 24.038461-10.522649 24.038461-23.502994v-367.5868262c0-12.9803451-10.762386-23.502994-24.038461-23.502994zm0-28.2035928h644.2307696c29.207366 0 52.884615 23.1498275 52.884615 51.7065868v367.5868262c0 28.55676-23.677249 51.706587-52.884615 51.706587h-644.2307696c-29.2073666 0-52.8846154-23.149827-52.8846154-51.706587v-367.5868262c0-28.5567593 23.6772488-51.7065868 52.8846154-51.7065868z"/><path d="m166.086967 320.173934c-60.799353 0-110.086967-49.287614-110.086967-110.086967s49.287614-110.086967 110.086967-110.086967 110.086967 49.287614 110.086967 110.086967-49.287614 110.086967-110.086967 110.086967zm0-62.931785c-24.622005-55.816185-42.678093-107.955999-42.678093-107.955999h-37.7496675s22.9764715 66.9247 65.6545645 150.618085h29.546401c42.678094-83.693385 65.654565-150.618085 65.654565-150.618085h-37.749677s-18.056087 52.139814-42.678093 107.955999zm527.001067-6.940494h-73.855892s1.640844 24.623399 34.466001 24.623399c16.412054 0 32.825339-4.928387 32.825339-4.928387l3.282959 26.25943s-16.413285 6.565231-39.391123 6.565231c-32.823982 0-62.36641-16.412741-62.36641-62.367041 0-36.10762 22.976472-59.08477 55.80181-59.08477 49.237316 0 52.520275 49.237259 49.237316 68.932138zm-50.878055-45.954988c-21.337041 0-22.977837 22.97715-22.977837 22.97715h45.954309s-1.640797-22.97715-22.976472-22.97715zm-202.900247 6.932472s-18.055447-6.565096-31.184532 3.282281l.002588 85.342834h-32.826571v-105.037713c30.907643-21.386237 68.932137-9.847511 68.932137-9.847511zm-89.699715 39.022516h-73.855892s1.640844 24.623399 34.466001 24.623399c16.412054 0 32.823983-4.928387 32.823983-4.928387l3.282959 26.25943s-16.41192 6.565231-39.389757 6.565231c-32.825339 0-62.367729-16.412741-62.367729-62.367041 0-36.10762 22.977838-59.08477 55.803177-59.08477 49.237258 0 52.518823 49.237259 49.237258 68.932138zm-50.879421-45.954988c-21.335675 0-22.976471 22.97715-22.976471 22.97715h45.954309s-1.640806-22.97715-22.977838-22.97715zm220.300341 56.191707c-10.203291-24.815026-18.434992-50.395601-24.618644-76.504127l-32.822617.004336s16.411987 63.365377 44.314869 115.870953h26.252783c27.902902-52.505576 44.314869-115.859273 44.314869-115.859273h-32.822617c-6.185021 26.102931-14.416698 51.678077-24.618643 76.488111z" fill-rule="nonzero"/></g></svg>