<?xml version="1.0" encoding="UTF-8" standalone="no"?>
<svg width="780px" height="501px" viewBox="0 0 780 501" version="1.1" xmlns="http://www.w3.org/2000/svg" xmlns:xlink="http://www.w3.org/1999/xlink" xmlns:sketch="http://www.bohemiancoding.com/sketch/ns">
    <!-- Generator: Sketch 3.3.1 (12005) - http://www.bohemiancoding.com/sketch -->
    <title>visa</title>
    <desc>Created with Sketch.</desc>
    <defs></defs>
    <g id="Page-1" stroke="none" stroke-width="1" fill="none" fill-rule="evenodd" sketch:type="MSPage">
        <rect id="Rectangle-1" stroke="#393939" stroke-width="30" sketch:type="MSShapeGroup" x="15" y="14" width="750" height="471" rx="40"></rect>
        <path d="M293.1975,348.2275 L326.5585,152.4655 L379.9175,152.4655 L346.5335,348.2275 L293.1975,348.2275 Z" id="Shape" fill="#393939" sketch:type="MSShapeGroup"></path>
        <path d="M539.3075,156.6875 C528.7355,152.7215 512.1715,148.4655 491.4845,148.4655 C438.7605,148.4655 401.6205,175.0165 401.3045,213.0695 C401.0075,241.1985 427.8185,256.8905 448.0585,266.2545 C468.8275,275.8495 475.8105,281.9695 475.7115,290.5375 C475.5795,303.6595 459.1255,309.6545 443.7885,309.6545 C422.4315,309.6545 411.0855,306.6875 393.5625,299.3785 L386.6865,296.2665 L379.1975,340.0905 C391.6605,345.5545 414.7065,350.2895 438.6355,350.5345 C494.7245,350.5345 531.1365,324.2875 531.5505,283.6525 C531.7515,261.3835 517.5355,244.4355 486.7515,230.4645 C468.1005,221.4085 456.6785,215.3655 456.7995,206.1955 C456.7995,198.0585 466.4675,189.3575 487.3565,189.3575 C504.8055,189.0865 517.4445,192.8915 527.2925,196.8575 L532.0745,199.1165 L539.3075,156.6875" id="Shape" fill="#393939" sketch:type="MSShapeGroup"></path>
        <path d="M676.6145,152.4655 L635.3835,152.4655 C622.6105,152.4655 613.0525,155.9515 607.4425,168.6995 L528.1975,348.1025 L584.2285,348.1025 C584.2285,348.1025 593.3905,323.9805 595.4625,318.6845 C601.5855,318.6845 656.0165,318.7685 663.7985,318.7685 C665.3945,325.6215 670.2905,348.1025 670.2905,348.1025 L719.8025,348.1025 L676.6145,152.4655 Z M611.1975,278.8725 C615.6105,267.5935 632.4565,224.1495 632.4565,224.1495 C632.1415,224.6705 636.8365,212.8155 639.5315,205.4655 L643.1385,222.3435 C643.1385,222.3435 653.3555,269.0725 655.4905,278.8715 L611.1975,278.8715 L611.1975,278.8725 Z" id="Path" fill="#393939" sketch:type="MSShapeGroup"></path>
        <path d="M247.9025,152.4655 L195.6625,285.9605 L190.0965,258.8315 C180.3715,227.5575 150.0715,193.6755 116.1975,176.7125 L163.9645,347.9155 L220.4195,347.8505 L304.4235,152.4655 L247.9025,152.4655" id="Path" fill="#393939" sketch:type="MSShapeGroup"></path>
        <path d="M146.9195,152.4655 L60.8785,152.4655 L60.1975,156.5385 C127.1365,172.7425 171.4295,211.9015 189.8155,258.9525 L171.1065,168.9925 C167.8765,156.5965 158.5085,152.8975 146.9195,152.4655" id="Shape" fill="#393939" sketch:type="MSShapeGroup"></path>
    </g>
</svg>