<svg width="750" height="471" viewBox="0 0 750 471" version="1.1" xmlns="http://www.w3.org/2000/svg" xmlns:xlink="http://www.w3.org/1999/xlink">
    <!-- Generator: Sketch 48.2 (47327) - http://www.bohemiancoding.com/sketch -->
    <desc>Created with Sketch.</desc>
    <defs></defs>
    <g id="Page-1" stroke="none" stroke-width="1" fill="none" fill-rule="evenodd">
        <g id="visa" fill="#393939" fill-rule="nonzero">
            <path d="M52.8846154,28.2035928 C39.6085397,28.2035928 28.8461538,38.7262417 28.8461538,51.7065868 L28.8461538,419.293413 C28.8461538,432.273758 39.6085397,442.796407 52.8846154,442.796407 L697.115385,442.796407 C710.39146,442.796407 721.153846,432.273758 721.153846,419.293413 L721.153846,51.7065868 C721.153846,38.7262417 710.39146,28.2035928 697.115385,28.2035928 L52.8846154,28.2035928 Z M52.8846154,0 L697.115385,0 C726.322751,-5.0099645e-15 750,23.1498275 750,51.7065868 L750,419.293413 C750,447.850173 726.322751,471 697.115385,471 L52.8846154,471 C23.6772488,471 3.41607085e-15,447.850173 0,419.293413 L0,51.7065868 C-3.41607085e-15,23.1498275 23.6772488,5.0099645e-15 52.8846154,0 Z" id="outline"></path>
            <g id="Logo" transform="translate(60.000000, 139.000000)">
                <polygon id="Shape" points="222.597614 191.12625 254.442205 4.26252273 305.375795 4.26252273 273.50925 191.12625"></polygon>
                <path d="M457.520795,8.29261364 C447.429341,4.50688636 431.61825,0.444340909 411.871568,0.444340909 C361.544114,0.444340909 326.092295,25.7884773 325.790659,62.1117955 C325.507159,88.9622045 351.099477,103.940932 370.419477,112.879295 C390.244432,122.038159 396.910023,127.879977 396.815523,136.058523 C396.689523,148.584068 380.983432,154.306568 366.343568,154.306568 C345.957341,154.306568 335.127068,151.474432 318.400568,144.497659 L311.837114,141.527114 L304.688523,183.359114 C316.585023,188.57475 338.583477,193.094523 361.424795,193.328386 C414.964295,193.328386 449.721205,168.274432 450.116386,129.486477 C450.30825,108.229705 436.738432,92.0520682 407.353705,78.7161136 C389.550477,70.07175 378.647659,64.3034318 378.763159,55.55025 C378.763159,47.7831136 387.991705,39.4776136 407.931205,39.4776136 C424.587068,39.2189318 436.651568,42.8509773 446.051932,46.6367045 L450.616568,48.7930227 L457.520795,8.29261364" id="Shape"></path>
                <path d="M588.586568,4.26252273 L549.229705,4.26252273 C537.037295,4.26252273 527.91375,7.59006818 522.55875,19.7586136 L446.915795,191.006932 L500.399932,191.006932 C500.399932,191.006932 509.145477,167.981386 511.123295,162.926114 C516.967977,162.926114 568.924841,163.006295 576.353114,163.006295 C577.876568,169.547795 582.550023,191.006932 582.550023,191.006932 L629.811477,191.006932 L588.586568,4.26252273 Z M526.143068,124.92375 C530.355477,114.157432 546.43575,72.6881591 546.43575,72.6881591 C546.135068,73.1854773 550.616659,61.8693409 553.189159,54.8534318 L556.632205,70.96425 C556.632205,70.96425 566.384795,115.569205 568.42275,124.922795 L526.143068,124.922795 L526.143068,124.92375 Z" id="Path"></path>
                <path d="M179.361477,4.26252273 L129.496023,131.689568 L124.183023,105.793705 C114.900068,75.94125 85.9773409,43.5993409 53.6430682,27.4073864 L99.2388409,190.828432 L153.127705,190.766386 L233.313341,4.26252273 L179.361477,4.26252273" id="Path"></path>
                <path d="M82.9686136,4.26252273 L0.838568182,4.26252273 L0.188522727,8.15038636 C64.0848409,23.6178409 106.364523,60.9968864 123.914795,105.909205 L106.056205,20.0382955 C102.973023,8.20575 94.0308409,4.67488636 82.9686136,4.26252273" id="Shape"></path>
            </g>
        </g>
    </g>
</svg>
