<svg height="471" viewBox="0 0 750 471" width="750" xmlns="http://www.w3.org/2000/svg"><g fill="#393939"><path d="m52.8846154 28.2035928c-13.2760757 0-24.0384616 10.5226489-24.0384616 23.502994v367.5868262c0 12.980345 10.7623859 23.502994 24.0384616 23.502994h644.2307696c13.276075 0 24.038461-10.522649 24.038461-23.502994v-367.5868262c0-12.9803451-10.762386-23.502994-24.038461-23.502994zm0-28.2035928h644.2307696c29.207366 0 52.884615 23.1498275 52.884615 51.7065868v367.5868262c0 28.55676-23.677249 51.706587-52.884615 51.706587h-644.2307696c-29.2073666 0-52.8846154-23.149827-52.8846154-51.706587v-367.5868262c0-28.5567593 23.6772488-51.7065868 52.8846154-51.7065868z"/><g transform="translate(60 139)"><path d="m222.597614 191.12625 31.844591-186.86372727h50.93359l-31.866545 186.86372727z"/><path d="m457.520795 8.29261364c-10.091454-3.78572728-25.902545-7.84827273-45.649227-7.84827273-50.327454 0-85.779273 25.34413639-86.080909 61.66745459-.2835 26.850409 25.308818 41.8291365 44.628818 50.7674995 19.824955 9.158864 26.490546 15.000682 26.396046 23.179228-.126 12.525545-15.832091 18.248045-30.471955 18.248045-20.386227 0-31.2165-2.832136-47.943-9.808909l-6.563454-2.970545-7.148591 41.832c11.8965 5.215636 33.894954 9.735409 56.736272 9.969272 53.5395 0 88.29641-25.053954 88.691591-63.841909.191864-21.256772-13.377954-37.4344088-42.762681-50.7703634-17.803228-8.6443636-28.706046-14.4126818-28.590546-23.1658636 0-7.7671364 9.228546-16.0726364 29.168046-16.0726364 16.655863-.2586818 28.720363 3.3733637 38.120727 7.1590909l4.564636 2.1563182z"/><path d="m588.586568 4.26252273h-39.356863c-12.19241 0-21.315955 3.32754545-26.670955 15.49609087l-75.642955 171.2483184h53.484137s8.745545-23.025546 10.723363-28.080818c5.844682 0 57.801546.080181 65.229819.080181 1.523454 6.5415 6.196909 28.000637 6.196909 28.000637h47.261454zm-62.4435 120.66122727c4.212409-10.766318 20.292682-52.2355909 20.292682-52.2355909-.300682.4973182 4.180909-10.8188182 6.753409-17.8347273l3.443046 16.1108182s9.75259 44.604955 11.790545 53.958545h-42.279682z"/><path d="m179.361477 4.26252273-49.865454 127.42704527-5.313-25.895863c-9.282955-29.852455-38.2056821-62.1943641-70.5399548-78.3863186l45.5957727 163.4210456 53.8888641-.062046 80.185636-186.50386327z"/><path d="m82.9686136 4.26252273h-82.13004542l-.65004545 3.88786363c63.89631817 15.46745454 106.17600027 52.84650004 123.72627227 97.75881864l-17.85859-85.8709095c-3.083182-11.8325455-12.0253641-15.36340914-23.0875914-15.77577277"/></g></g></svg>